<?xml version="1.0" encoding="utf-8" standalone="no"?>
<!DOCTYPE svg PUBLIC "-//W3C//DTD SVG 1.1//EN"
  "http://www.w3.org/Graphics/SVG/1.1/DTD/svg11.dtd">
<svg xmlns:xlink="http://www.w3.org/1999/xlink" width="338.4pt" height="338.4pt" viewBox="0 0 338.4 338.4" xmlns="http://www.w3.org/2000/svg" version="1.1">
 <metadata>
  <rdf:RDF xmlns:dc="http://purl.org/dc/elements/1.1/" xmlns:cc="http://creativecommons.org/ns#" xmlns:rdf="http://www.w3.org/1999/02/22-rdf-syntax-ns#">
   <cc:Work>
    <dc:type rdf:resource="http://purl.org/dc/dcmitype/StillImage"/>
    <dc:date>2022-08-23T17:26:20.437528</dc:date>
    <dc:format>image/svg+xml</dc:format>
    <dc:creator>
     <cc:Agent>
      <dc:title>Matplotlib v3.5.2, https://matplotlib.org/</dc:title>
     </cc:Agent>
    </dc:creator>
   </cc:Work>
  </rdf:RDF>
 </metadata>
 <defs>
  <style type="text/css">*{stroke-linejoin: round; stroke-linecap: butt}</style>
 </defs>
 <g id="figure_1">
  <g id="patch_1">
   <path d="M -0 338.4 
L 338.4 338.4 
L 338.4 0 
L -0 0 
z
" style="fill: #ffffff"/>
  </g>
  <g id="axes_1">
   <g id="patch_2">
    <path d="M 7.2 331.2 
L 331.2 331.2 
L 331.2 7.2 
L 7.2 7.2 
z
" style="fill: #ffffff"/>
   </g>
   <g id="patch_3">
    <path d="M 13.430769 324.969231 
L 13.430769 13.430769 
L 324.969231 13.430769 
L 324.969231 324.969231 
L 13.430769 324.969231 
z
" clip-path="url(#pc88ddbc1c1)" style="fill: none; stroke: #000000; stroke-linejoin: miter"/>
   </g>
   <g id="patch_4">
    <path d="M 169.2 169.2 
L 169.2 101.749945 
L 169.353073 101.838553 
L 169.525385 101.938855 
L 169.747026 102.068742 
L 170.006856 102.222263 
L 170.167991 102.318153 
L 170.388674 102.450336 
L 170.576859 102.563838 
L 170.686973 102.630588 
L 171.043255 102.848276 
L 171.228936 102.962771 
L 171.367982 103.048981 
L 171.515026 103.14059 
L 171.781338 103.307662 
L 171.862854 103.359102 
L 172.154959 103.544594 
L 172.33339 103.658799 
L 172.560595 103.805217 
L 172.735081 103.91842 
L 172.96342 104.067565 
L 173.088841 104.149973 
L 173.354973 104.325986 
L 173.560057 104.462696 
L 173.643895 104.518853 
L 173.879335 104.677402 
L 174.156025 104.865331 
L 174.211023 104.902892 
L 174.504702 105.104638 
L 174.685475 105.229808 
L 174.960911 105.421982 
L 175.147294 105.553029 
L 175.173133 105.57126 
L 175.383474 105.720262 
L 175.592762 105.869559 
L 175.891596 106.084549 
L 176.000209 106.163221 
L 176.334719 106.407318 
L 176.444373 106.487929 
L 176.604832 106.606422 
L 176.908736 106.832593 
L 177.017881 106.914383 
L 177.267789 107.102785 
L 177.482657 107.266035 
L 177.617249 107.368894 
L 177.747949 107.469223 
L 177.966141 107.637696 
L 178.202759 107.821796 
L 178.3565 107.9422 
L 178.578586 108.117232 
L 178.842201 108.326698 
L 178.967629 108.427017 
L 179.208605 108.620949 
L 179.364823 108.747514 
L 179.590437 108.931487 
L 179.824181 109.123577 
L 179.934112 109.214446 
L 180.208442 109.442691 
L 180.305132 109.523648 
L 180.627927 109.795852 
L 180.808776 109.949673 
L 180.952827 110.072878 
L 181.111536 110.209323 
L 181.314189 110.384632 
L 181.539871 110.581305 
L 181.681914 110.705874 
L 182.002518 110.989294 
L 182.136542 111.108707 
L 182.383561 111.330257 
L 182.575525 111.503746 
L 182.620663 111.544708 
L 182.809118 111.716428 
L 183.021379 111.911199 
L 183.238972 112.112372 
L 183.453666 112.312377 
L 183.774835 112.614413 
L 183.818291 112.655544 
L 184.049566 112.875515 
L 184.36564 113.179082 
L 184.397664 113.210029 
L 184.660486 113.465367 
L 184.950631 113.75006 
L 185.038908 113.837272 
L 185.344359 114.141191 
L 185.344858 114.14169 
L 185.671429 114.470382 
L 185.913552 114.716621 
L 186.099706 114.907433 
L 186.318259 115.133133 
L 186.468392 115.289235 
L 186.583306 115.409307 
L 186.844457 115.684102 
L 186.985764 115.833913 
L 187.26411 116.13135 
L 187.36646 116.241507 
L 187.649124 116.547964 
L 187.837549 116.754091 
L 187.98374 116.915043 
L 188.093073 117.036008 
L 188.449223 117.433611 
L 188.58356 117.585017 
L 188.679111 117.693193 
L 189.010963 118.072057 
L 189.11791 118.195215 
L 189.447333 118.577873 
L 189.621018 118.781661 
L 189.701586 118.876677 
L 189.954405 119.176847 
L 190.113595 119.367438 
L 190.327226 119.625163 
L 190.592371 119.9482 
L 190.709943 120.09258 
L 190.868398 120.288287 
L 191.075181 120.545643 
L 191.291502 120.817282 
L 191.539953 121.132362 
L 191.627002 121.243549 
L 191.957871 121.669997 
L 192.193358 121.977266 
L 192.321561 122.145888 
L 192.546523 122.444092 
L 192.602312 122.518508 
L 192.922339 122.948996 
L 193.061603 123.138279 
L 193.274373 123.429799 
L 193.459958 123.686409 
L 193.614785 123.902184 
L 193.939907 124.360409 
L 194.081361 124.561982 
L 194.324063 124.911024 
L 194.346204 124.943069 
L 194.562765 125.258323 
L 194.83914 125.665531 
L 194.971761 125.862919 
L 195.268378 126.309161 
L 195.412151 126.52788 
L 195.694186 126.961646 
L 195.81108 127.143293 
L 195.981183 127.409617 
L 196.271805 127.870225 
L 196.462565 128.176493 
L 196.602001 128.402377 
L 196.776322 128.687221 
L 197.072633 129.177793 
L 197.194632 129.382173 
L 197.35906 129.659898 
L 197.623886 130.112799 
L 197.755059 130.339752 
L 197.90362 130.598941 
L 198.246875 131.206785 
L 198.389583 131.463296 
L 198.622764 131.887398 
L 198.80122 132.216246 
L 199.012225 132.610007 
L 199.09208 132.760456 
L 199.266016 133.090935 
L 199.474805 133.492793 
L 199.741305 134.014194 
L 200.014757 134.559485 
L 200.086745 134.704831 
L 200.322109 135.185433 
L 200.429029 135.406556 
L 200.723438 136.024828 
L 200.872289 136.342853 
L 201.009107 136.63851 
L 201.26175 137.193171 
L 201.406949 137.517251 
L 201.552148 137.845354 
L 201.615913 137.990745 
L 201.808536 138.43492 
L 201.984997 138.848607 
L 202.204652 139.373028 
L 202.340581 139.703044 
L 202.47651 140.037427 
L 202.587044 140.312663 
L 202.713517 140.631367 
L 202.83999 140.954233 
L 202.976583 141.307774 
L 203.113176 141.666532 
L 203.300656 142.167819 
L 203.468148 142.624777 
L 203.669633 143.186536 
L 203.877257 143.780068 
L 203.996665 144.128557 
L 204.116072 144.482536 
L 204.220818 144.797759 
L 204.367134 145.245793 
L 204.513449 145.70328 
L 204.55794 145.844347 
L 204.694877 146.284527 
L 204.831814 146.734165 
L 204.955268 147.148119 
L 205.078723 147.570699 
L 205.174726 147.905604 
L 205.27073 148.246301 
L 205.356942 148.557423 
L 205.433711 148.838775 
L 205.51048 149.124363 
L 205.587249 149.414371 
L 205.664019 149.708995 
L 205.764142 150.10054 
L 205.864777 150.502886 
L 205.965412 150.914636 
L 206.030245 151.185185 
L 206.095079 151.460097 
L 206.159912 151.739577 
L 206.224746 152.02385 
L 206.287545 152.304 
L 206.350345 152.589113 
L 206.413144 152.879447 
L 206.475944 153.175286 
L 206.540439 153.485171 
L 206.604935 153.801562 
L 206.653046 154.042055 
L 206.701157 154.286581 
L 206.749268 154.535341 
L 206.797379 154.788556 
L 206.856088 155.103932 
L 206.914797 155.426778 
L 206.973506 155.757632 
L 207.032215 156.0971 
L 207.099748 156.499144 
L 207.164958 156.900174 
L 207.230169 157.315085 
L 207.262774 157.528207 
L 207.295379 157.745386 
L 207.327984 157.966858 
L 207.360589 158.192882 
L 207.409263 158.539399 
L 207.457938 158.897795 
L 207.506612 159.269355 
L 207.555286 159.655617 
L 207.582023 159.874703 
L 207.60876 160.09914 
L 207.635497 160.329334 
L 207.662233 160.565746 
L 207.68897 160.808902 
L 207.715707 161.059404 
L 207.742444 161.317955 
L 207.76918 161.585373 
L 207.785749 161.755956 
L 207.802317 161.930578 
L 207.818885 162.109537 
L 207.835454 162.293172 
L 207.852022 162.481866 
L 207.86859 162.676057 
L 207.885159 162.876251 
L 207.901727 163.083039 
L 207.916763 163.276992 
L 207.931799 163.477554 
L 207.946836 163.685447 
L 207.961872 163.901533 
L 207.976908 164.126859 
L 207.991945 164.362716 
L 208.006981 164.610727 
L 208.022017 164.872983 
L 208.029535 165.010283 
L 208.037054 165.152251 
L 208.044572 165.299397 
L 208.05209 165.452332 
L 208.059608 165.611794 
L 208.067126 165.778697 
L 208.074644 165.954189 
L 208.082162 166.139746 
L 208.089681 166.337325 
L 208.097199 166.549614 
L 208.104717 166.780482 
L 208.112235 167.035865 
L 208.119753 167.325759 
L 208.127271 167.669651 
L 208.13479 168.117854 
L 208.142308 169.2 
L 208.142308 169.2 
z
" clip-path="url(#pc88ddbc1c1)" style="fill: #808080; opacity: 0.5"/>
   </g>
   <g id="patch_5">
    <path d="M 169.2 169.2 
L 169.2 236.650055 
L 169.337252 236.570627 
L 169.585323 236.426117 
L 169.845868 236.273017 
L 170.024844 236.167059 
L 170.186083 236.071047 
L 170.330904 235.984362 
L 170.577946 235.835504 
L 170.670419 235.779462 
L 170.918562 235.628209 
L 171.219699 235.442942 
L 171.320004 235.380812 
L 171.547666 235.239014 
L 171.770538 235.099142 
L 172.006924 234.949639 
L 172.200671 234.826213 
L 172.294641 234.76606 
L 172.42917 234.679613 
L 172.658324 234.531461 
L 172.827987 234.421034 
L 173.103962 234.240068 
L 173.32011 234.097161 
L 173.54149 233.949719 
L 173.691126 233.84944 
L 173.910128 233.701769 
L 174.133452 233.550066 
L 174.227313 233.485969 
L 174.416281 233.356312 
L 174.695289 233.163375 
L 174.852562 233.053825 
L 175.137185 232.8541 
L 175.191875 232.815506 
L 175.367349 232.691198 
L 175.637125 232.498661 
L 175.938209 232.281723 
L 175.976724 232.253814 
L 176.281091 232.031999 
L 176.480035 231.885791 
L 176.703253 231.720582 
L 176.914656 231.562978 
L 177.1163 231.411608 
L 177.156265 231.381486 
L 177.404208 231.193705 
L 177.566166 231.0702 
L 177.861485 230.843266 
L 177.969597 230.759626 
L 178.194988 230.584273 
L 178.443602 230.389308 
L 178.67563 230.205874 
L 178.793192 230.112384 
L 179.046829 229.909418 
L 179.212973 229.775522 
L 179.413541 229.612878 
L 179.532274 229.516075 
L 179.839826 229.263511 
L 179.983341 229.144751 
L 180.158796 228.998772 
L 180.352292 228.83677 
L 180.611705 228.617899 
L 180.680436 228.559584 
L 180.854937 228.410912 
L 181.1322 228.172856 
L 181.295694 228.031417 
L 181.458541 227.889747 
L 181.678799 227.696864 
L 181.824546 227.568424 
L 182.116695 227.309011 
L 182.39684 227.057779 
L 182.534502 226.933426 
L 182.665067 226.814932 
L 182.855133 226.641471 
L 183.083438 226.431582 
L 183.215713 226.309206 
L 183.476165 226.066576 
L 183.682393 225.872874 
L 183.784047 225.776874 
L 184.024028 225.548864 
L 184.282233 225.301358 
L 184.532985 225.058803 
L 184.693236 224.902648 
L 184.819149 224.779319 
L 185.067719 224.534205 
L 185.280031 224.323095 
L 185.417742 224.185291 
L 185.560414 224.041793 
L 185.892104 223.70528 
L 186.004263 223.590562 
L 186.146828 223.444058 
L 186.451638 223.128228 
L 186.662946 222.907175 
L 186.767294 222.797372 
L 187.06913 222.477329 
L 187.126218 222.416389 
L 187.405163 222.116727 
L 187.540878 221.969783 
L 187.813446 221.67236 
L 187.989435 221.478668 
L 188.185364 221.261485 
L 188.463985 220.949791 
L 188.664134 220.723789 
L 188.851543 220.510563 
L 188.968692 220.376477 
L 189.161843 220.154041 
L 189.357585 219.926876 
L 189.460926 219.806229 
L 189.661795 219.570287 
L 189.927641 219.255075 
L 190.184989 218.946683 
L 190.321143 218.782207 
L 190.587798 218.457402 
L 190.808273 218.186125 
L 190.92418 218.042508 
L 191.116603 217.802534 
L 191.351462 217.506983 
L 191.469933 217.356774 
L 191.679681 217.088962 
L 191.995046 216.681707 
L 192.088508 216.559936 
L 192.273086 216.317982 
L 192.486395 216.035904 
L 192.602452 215.881305 
L 192.89732 215.484883 
L 193.095373 215.21564 
L 193.229778 215.031537 
L 193.555773 214.580241 
L 193.743626 214.317065 
L 193.778382 214.268118 
L 194.061567 213.866306 
L 194.324273 213.488673 
L 194.538974 213.176473 
L 194.735368 212.888015 
L 194.738148 212.883912 
L 194.956725 212.559526 
L 195.247868 212.12191 
L 195.341708 211.979483 
L 195.580548 211.613887 
L 195.804805 211.266487 
L 196.014428 210.938052 
L 196.169047 210.693453 
L 196.447796 210.247333 
L 196.620035 209.968282 
L 196.741566 209.76979 
L 196.99114 209.357941 
L 197.197286 209.013367 
L 197.399479 208.67143 
L 197.531711 208.445633 
L 197.843352 207.906484 
L 198.006021 207.621052 
L 198.134571 207.39349 
L 198.409917 206.899968 
L 198.619776 206.518077 
L 198.691738 206.385947 
L 198.861915 206.071045 
L 199.124611 205.578026 
L 199.297792 205.248272 
L 199.548863 204.763282 
L 199.771738 204.325642 
L 199.82792 204.214236 
L 200.150768 203.565263 
L 200.339378 203.178973 
L 200.475392 202.897003 
L 200.627204 202.578812 
L 200.789707 202.234046 
L 200.95221 201.884836 
L 201.159159 201.433451 
L 201.280355 201.165524 
L 201.400744 200.89668 
L 201.591247 200.465592 
L 201.754658 200.090083 
L 201.918068 199.709078 
L 202.06122 199.370627 
L 202.236187 198.950792 
L 202.400634 198.549775 
L 202.565081 198.142268 
L 202.693179 197.82016 
L 202.858032 197.39936 
L 202.989438 197.058688 
L 203.120843 196.713171 
L 203.26063 196.34009 
L 203.429422 195.881665 
L 203.580298 195.464211 
L 203.76176 194.951998 
L 203.914777 194.51101 
L 204.067794 194.061259 
L 204.187942 193.701663 
L 204.30809 193.336112 
L 204.474654 192.818973 
L 204.620065 192.35709 
L 204.73207 191.994305 
L 204.844075 191.625093 
L 204.997783 191.107356 
L 205.151076 190.577427 
L 205.237418 190.272589 
L 205.323761 189.962917 
L 205.415904 189.626859 
L 205.508047 189.284756 
L 205.60019 188.936294 
L 205.692334 188.58113 
L 205.823039 188.065091 
L 205.898329 187.760912 
L 205.973618 187.451354 
L 206.091761 186.954078 
L 206.150833 186.699842 
L 206.209905 186.441656 
L 206.276117 186.147341 
L 206.34233 185.847559 
L 206.408543 185.542011 
L 206.474755 185.230366 
L 206.529903 184.965885 
L 206.585052 184.696693 
L 206.655377 184.34619 
L 206.725702 183.987047 
L 206.796028 183.618618 
L 206.866353 183.240172 
L 206.937617 182.845604 
L 207.008881 182.438897 
L 207.071433 182.070996 
L 207.133986 181.691951 
L 207.196538 181.300716 
L 207.259091 180.896067 
L 207.314011 180.528595 
L 207.368931 180.148521 
L 207.400093 179.926755 
L 207.431255 179.700213 
L 207.462417 179.468581 
L 207.493579 179.231504 
L 207.524741 178.988589 
L 207.555903 178.739387 
L 207.587065 178.483395 
L 207.618227 178.220032 
L 207.654878 177.899939 
L 207.691529 177.56745 
L 207.72818 177.221024 
L 207.746506 177.042009 
L 207.764831 176.858768 
L 207.791668 176.58214 
L 207.818504 176.294633 
L 207.84534 175.994866 
L 207.872177 175.681138 
L 207.88906 175.475675 
L 207.905943 175.263207 
L 207.922826 175.04297 
L 207.939709 174.814048 
L 207.956593 174.575334 
L 207.973476 174.325458 
L 207.990359 174.0627 
L 207.998801 173.925823 
L 208.007242 173.784846 
L 208.015684 173.639379 
L 208.024125 173.488964 
L 208.032567 173.333061 
L 208.041009 173.171024 
L 208.04945 173.002069 
L 208.057892 172.825229 
L 208.066333 172.639287 
L 208.074775 172.442679 
L 208.083217 172.233331 
L 208.091658 172.008395 
L 208.1001 171.763771 
L 208.108541 171.493169 
L 208.116983 171.185996 
L 208.125424 170.821603 
L 208.133866 170.346678 
L 208.142308 169.2 
L 208.142308 169.2 
z
" clip-path="url(#pc88ddbc1c1)" style="fill: #808080; opacity: 0.5"/>
   </g>
   <g id="patch_6">
    <path d="M 130.257692 169.2 
L 130.257692 169.2 
L 130.266152 168.052095 
L 130.274612 167.576662 
L 130.283071 167.211879 
L 130.291531 166.904378 
L 130.299991 166.633486 
L 130.30845 166.388601 
L 130.31691 166.163425 
L 130.32537 165.953852 
L 130.333829 165.757034 
L 130.342289 165.570894 
L 130.350749 165.393865 
L 130.359208 165.22473 
L 130.367668 165.06252 
L 130.376128 164.90645 
L 130.384587 164.755875 
L 130.393047 164.610252 
L 130.401507 164.469125 
L 130.409966 164.332102 
L 130.426886 164.069064 
L 130.443805 163.818921 
L 130.460724 163.579952 
L 130.477644 163.350787 
L 130.494563 163.130315 
L 130.511482 162.91762 
L 130.528402 162.711939 
L 130.548263 162.478571 
L 130.568125 162.253094 
L 130.588848 162.025452 
L 130.60957 161.804871 
L 130.630293 161.590739 
L 130.651015 161.382525 
L 130.671738 161.179768 
L 130.69246 160.982064 
L 130.713183 160.789057 
L 130.733906 160.600431 
L 130.775351 160.235221 
L 130.816796 159.884501 
L 130.858241 159.546694 
L 130.899686 159.220486 
L 130.937941 158.928727 
L 130.976196 158.645169 
L 131.017596 158.346788 
L 131.058997 158.056547 
L 131.100398 157.773826 
L 131.141799 157.498081 
L 131.183199 157.228828 
L 131.2246 156.965639 
L 131.266001 156.708132 
L 131.307402 156.455961 
L 131.360311 156.14097 
L 131.401692 155.899956 
L 131.443072 155.66336 
L 131.484453 155.430952 
L 131.525834 155.202525 
L 131.608596 154.756861 
L 131.691358 154.325003 
L 131.776619 153.893306 
L 131.86188 153.473918 
L 131.936141 153.117913 
L 132.010403 152.769955 
L 132.082041 152.441444 
L 132.15368 152.11955 
L 132.248079 151.704874 
L 132.342479 151.3003 
L 132.444322 150.874383 
L 132.546165 150.458695 
L 132.644419 150.066729 
L 132.742672 149.683128 
L 132.828646 149.353949 
L 132.91462 149.030509 
L 133.000594 148.712535 
L 133.086568 148.399776 
L 133.171387 148.096106 
L 133.256205 147.79708 
L 133.313259 147.598453 
L 133.401609 147.294722 
L 133.489958 146.995497 
L 133.576833 146.705483 
L 133.663708 146.419492 
L 133.837459 145.85899 
L 133.953608 145.492402 
L 134.069758 145.131957 
L 134.197217 144.743162 
L 134.299555 144.435891 
L 134.401892 144.132803 
L 134.468375 143.938074 
L 134.602336 143.550715 
L 134.736297 143.169808 
L 134.848679 142.855032 
L 134.961062 142.544446 
L 135.174735 141.964975 
L 135.357121 141.481234 
L 135.484713 141.148488 
L 135.612305 140.820217 
L 135.734028 140.511077 
L 135.847008 140.227547 
L 135.993711 139.86413 
L 136.140413 139.505886 
L 136.252289 139.236047 
L 136.505536 138.635539 
L 136.763486 138.037889 
L 136.846678 137.848022 
L 137.080816 137.320889 
L 137.213402 137.026974 
L 137.47332 136.460001 
L 137.625153 136.134244 
L 137.802624 135.758377 
L 137.980094 135.387619 
L 138.038831 135.266007 
L 138.192321 134.950727 
L 138.479795 134.369731 
L 138.629931 134.071055 
L 138.89147 133.558243 
L 138.995538 133.356764 
L 139.17226 133.017879 
L 139.348982 132.682995 
L 139.391491 132.603026 
L 139.574848 132.260634 
L 139.922425 131.622601 
L 139.957483 131.559025 
L 140.308863 130.929423 
L 140.528387 130.542904 
L 140.6629 130.308577 
L 140.795306 130.079741 
L 141.083453 129.587838 
L 141.16525 129.449691 
L 141.445793 128.980749 
L 141.511428 128.872104 
L 141.778907 128.433441 
L 142.055385 127.986751 
L 142.24428 127.685386 
L 142.488036 127.300956 
L 142.561787 127.185614 
L 142.800755 126.814923 
L 143.008812 126.49589 
L 143.116157 126.332611 
L 143.272294 126.096697 
L 143.477392 125.78961 
L 143.718362 125.432791 
L 143.929899 125.123023 
L 144.230897 124.687699 
L 144.304373 124.582387 
L 144.610942 124.146932 
L 144.811018 123.866116 
L 144.935713 123.692421 
L 145.103006 123.460961 
L 145.261383 123.24347 
L 145.506506 122.90994 
L 145.665366 122.695752 
L 145.90014 122.381992 
L 146.172837 122.021636 
L 146.278719 121.882882 
L 146.539802 121.543473 
L 146.741912 121.283357 
L 146.844082 121.152723 
L 147.174436 120.734219 
L 147.31975 120.551981 
L 147.482637 120.349026 
L 147.672651 120.114015 
L 147.780942 119.98091 
L 148.13686 119.547613 
L 148.213325 119.455349 
L 148.450556 119.170927 
L 148.602014 118.99077 
L 148.805618 118.750316 
L 148.951087 118.579721 
L 149.183423 118.309301 
L 149.500335 117.944441 
L 149.715321 117.69951 
L 149.750209 117.659956 
L 150.011179 117.365792 
L 150.256337 117.092153 
L 150.326859 117.013917 
L 150.532903 116.786549 
L 150.835669 116.455688 
L 151.079588 116.191894 
L 151.158955 116.106584 
L 151.405508 115.843193 
L 151.615178 115.621115 
L 151.846573 115.378038 
L 152.054966 115.160908 
L 152.239096 114.970449 
L 152.366604 114.839314 
L 152.642833 114.557328 
L 152.701102 114.498208 
L 152.934735 114.262424 
L 153.15849 114.038481 
L 153.41586 113.783132 
L 153.600313 113.601581 
L 153.832294 113.374955 
L 153.93973 113.270635 
L 154.108174 113.107882 
L 154.371957 112.854967 
L 154.619337 112.619925 
L 154.708665 112.535557 
L 154.859961 112.393268 
L 155.159293 112.113982 
L 155.386034 111.904372 
L 155.518178 111.782979 
L 155.761913 111.560538 
L 155.967551 111.37433 
L 156.045057 111.304492 
L 156.324396 111.054344 
L 156.562022 110.843446 
L 156.757568 110.671188 
L 156.931864 110.518625 
L 157.131282 110.34519 
L 157.203012 110.283097 
L 157.508569 110.020292 
L 157.725962 109.834981 
L 157.761374 109.804926 
L 158.078792 109.537133 
L 158.148271 109.478902 
L 158.37274 109.291708 
L 158.638907 109.071582 
L 158.806113 108.934311 
L 158.972185 108.798739 
L 159.31648 108.520087 
L 159.402019 108.451357 
L 159.524572 108.353232 
L 159.732159 108.187945 
L 159.954811 108.011942 
L 160.278951 107.758056 
L 160.310509 107.733486 
L 160.57386 107.529455 
L 160.751921 107.39252 
L 160.945951 107.244231 
L 161.261932 107.004793 
L 161.444228 106.867804 
L 161.636303 106.724366 
L 161.741797 106.645976 
L 162.046957 106.420768 
L 162.145174 106.348771 
L 162.372299 106.18318 
L 162.472388 106.110605 
L 162.743808 105.915013 
L 162.863588 105.829259 
L 163.076679 105.677544 
L 163.376942 105.465587 
L 163.519575 105.365643 
L 163.741705 105.21094 
L 163.974821 105.049813 
L 164.146048 104.93226 
L 164.262212 104.85289 
L 164.476931 104.706991 
L 164.780492 104.502502 
L 164.843669 104.460204 
L 165.182179 104.235082 
L 165.189244 104.23041 
L 165.40679 104.087107 
L 165.594183 103.964501 
L 165.852631 103.796663 
L 166.034805 103.679228 
L 166.328743 103.491256 
L 166.371323 103.464179 
L 166.595327 103.322373 
L 166.779061 103.206856 
L 167.00335 103.066805 
L 167.27701 102.897355 
L 167.44828 102.792098 
L 167.599318 102.69978 
L 167.824109 102.563252 
L 167.93515 102.496194 
L 168.171747 102.354151 
L 168.422009 102.205141 
L 168.581481 102.110848 
L 168.82043 101.970518 
L 168.963489 101.887048 
L 169.2 101.749945 
L 169.2 169.2 
z
" clip-path="url(#pc88ddbc1c1)" style="fill: #808080; opacity: 0.5"/>
   </g>
   <g id="patch_7">
    <path d="M 130.257692 169.2 
L 130.257692 169.2 
L 130.262689 170.08222 
L 130.267686 170.447627 
L 130.272682 170.728 
L 130.277679 170.964354 
L 130.282676 171.172576 
L 130.287673 171.360814 
L 130.292669 171.533909 
L 130.297666 171.695014 
L 130.302663 171.846319 
L 130.30766 171.98942 
L 130.312656 172.125522 
L 130.317653 172.255559 
L 130.32265 172.380276 
L 130.327646 172.500275 
L 130.33764 172.728029 
L 130.347633 172.94192 
L 130.357627 173.144203 
L 130.36762 173.336583 
L 130.377614 173.520381 
L 130.387607 173.696651 
L 130.397601 173.866245 
L 130.407594 174.029867 
L 130.417588 174.188105 
L 130.435719 174.463014 
L 130.453849 174.724199 
L 130.47198 174.973524 
L 130.490111 175.212464 
L 130.508242 175.442212 
L 130.526373 175.663748 
L 130.544504 175.87789 
L 130.562635 176.085327 
L 130.580766 176.286648 
L 130.598897 176.482361 
L 130.617028 176.672906 
L 130.635159 176.858669 
L 130.65329 177.03999 
L 130.671421 177.21717 
L 130.707683 177.560154 
L 130.73697 177.82711 
L 130.766257 178.085953 
L 130.799332 178.369371 
L 130.832406 178.644171 
L 130.86548 178.911086 
L 130.898554 179.170749 
L 130.931628 179.423712 
L 130.964702 179.670461 
L 130.997777 179.911425 
L 131.030851 180.146986 
L 131.083804 180.513726 
L 131.136758 180.868705 
L 131.189712 181.212966 
L 131.242666 181.547405 
L 131.297104 181.881799 
L 131.351543 182.207372 
L 131.405981 182.52477 
L 131.46042 182.834564 
L 131.516861 183.148268 
L 131.573302 183.454846 
L 131.629743 183.754749 
L 131.686184 184.048382 
L 131.742392 184.334935 
L 131.798601 184.615958 
L 131.859748 184.915739 
L 131.920896 185.209674 
L 131.982043 185.49808 
L 132.04319 185.781244 
L 132.123879 186.147325 
L 132.182391 186.407682 
L 132.240902 186.663962 
L 132.357925 187.164986 
L 132.438401 187.501141 
L 132.518876 187.830885 
L 132.599351 188.154551 
L 132.679826 188.472447 
L 132.760155 188.784288 
L 132.840483 189.090917 
L 132.916714 189.3773 
L 132.992946 189.659391 
L 133.124838 190.137825 
L 133.25673 190.604755 
L 133.377482 191.02279 
L 133.470953 191.340508 
L 133.564424 191.653341 
L 133.688863 192.062588 
L 133.813303 192.463972 
L 133.88696 192.698012 
L 134.018049 193.108317 
L 134.149139 193.510992 
L 134.274757 193.890044 
L 134.377488 194.195292 
L 134.480218 194.496441 
L 134.615783 194.887807 
L 134.751347 195.272595 
L 134.882969 195.640169 
L 135.023286 196.025771 
L 135.163603 196.405183 
L 135.303936 196.778705 
L 135.450151 197.161825 
L 135.596366 197.539013 
L 135.710793 197.830211 
L 135.896337 198.29524 
L 136.057691 198.692735 
L 136.205321 199.051019 
L 136.352951 199.404331 
L 136.560466 199.892886 
L 136.699075 200.214155 
L 136.961119 200.810943 
L 137.176854 201.292331 
L 137.399761 201.780753 
L 137.401104 201.783668 
L 137.582351 202.17432 
L 137.763597 202.559412 
L 137.880766 202.805492 
L 138.109165 203.278912 
L 138.328079 203.725162 
L 138.396349 203.862871 
L 138.603521 204.276638 
L 138.88328 204.825839 
L 138.980855 205.014895 
L 139.309002 205.641588 
L 139.524336 206.045451 
L 139.563646 206.118565 
L 139.84055 206.628374 
L 139.959005 206.843732 
L 140.280507 207.420274 
L 140.520441 207.843193 
L 140.7133 208.17874 
L 140.776924 208.288597 
L 140.962983 208.607507 
L 141.200166 209.009081 
L 141.357539 209.272534 
L 141.574311 209.631611 
L 141.720171 209.870789 
L 141.926939 210.206564 
L 142.170383 210.597083 
L 142.318889 210.832809 
L 142.668035 211.379769 
L 142.877603 211.703313 
L 143.030694 211.937467 
L 143.239976 212.254624 
L 143.427873 212.536535 
L 143.598084 212.789638 
L 143.693562 212.930682 
L 143.921349 213.264518 
L 144.075088 213.487749 
L 144.349118 213.881565 
L 144.532954 214.142891 
L 144.665472 214.329864 
L 144.882819 214.634023 
L 145.162917 215.021498 
L 145.389151 215.330843 
L 145.614339 215.635616 
L 145.770114 215.844644 
L 145.977267 216.120369 
L 146.09905 216.281286 
L 146.327874 216.581316 
L 146.41591 216.695949 
L 146.722067 217.091204 
L 146.909205 217.330244 
L 147.032645 217.486876 
L 147.296252 217.818627 
L 147.410983 217.961866 
L 147.685328 218.301597 
L 147.910158 218.577135 
L 148.113065 218.823617 
L 148.33391 219.089567 
L 148.535437 219.330174 
L 148.648992 219.464885 
L 148.870602 219.726015 
L 149.068445 219.957187 
L 149.152292 220.05461 
L 149.344005 220.276149 
L 149.574952 220.540804 
L 149.863316 220.867905 
L 149.980308 220.999567 
L 150.251555 221.302534 
L 150.415118 221.483696 
L 150.611914 221.700163 
L 150.881613 221.994187 
L 151.029482 222.154117 
L 151.21787 222.356577 
L 151.469642 222.624922 
L 151.619275 222.783207 
L 151.85432 223.030064 
L 151.970391 223.151173 
L 152.10263 223.288518 
L 152.408523 223.603663 
L 152.649207 223.849146 
L 152.702414 223.903122 
L 152.884248 224.086794 
L 153.055625 224.258793 
L 153.350874 224.552616 
L 153.49601 224.695905 
L 153.721393 224.91694 
L 154.01862 225.205711 
L 154.117518 225.301117 
L 154.336286 225.51097 
L 154.586677 225.749162 
L 154.666135 225.824308 
L 154.91548 226.058756 
L 155.148219 226.275738 
L 155.228425 226.350104 
L 155.540441 226.637418 
L 155.623331 226.713219 
L 155.896937 226.961878 
L 156.121393 227.164107 
L 156.275037 227.301631 
L 156.445016 227.452926 
L 156.756384 227.727772 
L 156.804521 227.770001 
L 157.115213 228.040878 
L 157.323962 228.221259 
L 157.391211 228.279095 
L 157.587124 228.446829 
L 157.765434 228.598517 
L 158.007856 228.803272 
L 158.198778 228.963343 
L 158.52112 229.23125 
L 158.591993 229.289763 
L 158.794594 229.456257 
L 158.957033 229.588923 
L 159.186584 229.775163 
L 159.424533 229.966699 
L 159.515246 230.039314 
L 159.87394 230.324283 
L 160.048421 230.461663 
L 160.167699 230.555116 
L 160.366029 230.709678 
L 160.52867 230.835662 
L 160.778757 231.028047 
L 160.97928 231.181143 
L 161.111626 231.281626 
L 161.414189 231.50968 
L 161.606508 231.653444 
L 161.767915 231.773389 
L 161.965244 231.919153 
L 162.192693 232.085978 
L 162.435413 232.262612 
L 162.493874 232.304943 
L 162.828523 232.545672 
L 162.920204 232.611156 
L 163.1775 232.793862 
L 163.358021 232.921119 
L 163.476829 233.004453 
L 163.716134 233.17131 
L 163.837268 233.255263 
L 164.140243 233.463766 
L 164.391976 233.635408 
L 164.555514 233.746144 
L 164.752386 233.878652 
L 164.88175 233.965249 
L 165.075325 234.094132 
L 165.225791 234.193737 
L 165.418684 234.320698 
L 165.753765 234.539305 
L 165.837026 234.593245 
L 165.994196 234.694656 
L 166.329233 234.909057 
L 166.489705 235.010896 
L 166.593498 235.076473 
L 166.795269 235.203301 
L 167.095849 235.390645 
L 167.248397 235.485001 
L 167.440867 235.603359 
L 167.674601 235.746059 
L 167.763833 235.800241 
L 167.963854 235.9211 
L 168.313036 236.130131 
L 168.422537 236.195173 
L 168.647318 236.327931 
L 168.901453 236.476806 
L 169.0686 236.574021 
L 169.2 236.650055 
L 169.2 169.2 
z
" clip-path="url(#pc88ddbc1c1)" style="fill: #808080; opacity: 0.5"/>
   </g>
   <g id="matplotlib.axis_1"/>
   <g id="matplotlib.axis_2"/>
   <g id="line2d_1">
    <path d="M 169.2 101.749945 
L 172.735081 103.91842 
L 176.000209 106.163221 
L 179.364823 108.747514 
L 182.620663 111.544708 
L 185.671429 114.470382 
L 188.58356 117.585017 
L 191.291502 120.817282 
L 193.614785 123.902184 
L 195.981183 127.409617 
L 198.246875 131.206785 
L 200.086745 134.704831 
L 201.808536 138.43492 
L 203.300656 142.167819 
L 204.694877 146.284527 
L 205.864777 150.502886 
L 206.749268 154.535341 
L 207.409263 158.539399 
L 207.86859 162.676057 
L 208.104717 166.780482 
L 208.142308 169.2 
L 208.142308 169.2 
" clip-path="url(#pc88ddbc1c1)" style="fill: none; stroke: #0000ff; stroke-linecap: square"/>
   </g>
   <g id="line2d_2">
    <path d="M 169.2 236.650055 
L 172.658324 234.531461 
L 175.976724 232.253814 
L 179.413541 229.612878 
L 182.534502 226.933426 
L 185.560414 224.041793 
L 188.463985 220.949791 
L 191.116603 217.802534 
L 193.555773 214.580241 
L 195.804805 211.266487 
L 198.006021 207.621052 
L 199.82792 204.214236 
L 201.591247 200.465592 
L 203.120843 196.713171 
L 204.474654 192.818973 
L 205.692334 188.58113 
L 206.655377 184.34619 
L 207.368931 180.148521 
L 207.84534 175.994866 
L 208.1001 171.763771 
L 208.142308 169.2 
L 208.142308 169.2 
" clip-path="url(#pc88ddbc1c1)" style="fill: none; stroke: #0000ff; stroke-linecap: square"/>
   </g>
   <g id="line2d_3">
    <path d="M 130.257692 169.2 
L 130.401507 164.469125 
L 130.733906 160.600431 
L 131.307402 156.455961 
L 132.082041 152.441444 
L 133.086568 148.399776 
L 134.299555 144.435891 
L 135.734028 140.511077 
L 137.213402 137.026974 
L 139.17226 133.017879 
L 141.16525 129.449691 
L 143.477392 125.78961 
L 145.90014 122.381992 
L 148.602014 118.99077 
L 151.405508 115.843193 
L 154.371957 112.854967 
L 157.508569 110.020292 
L 160.751921 107.39252 
L 164.146048 104.93226 
L 167.599318 102.69978 
L 169.2 101.749945 
L 169.2 101.749945 
" clip-path="url(#pc88ddbc1c1)" style="fill: none; stroke: #0000ff; stroke-linecap: square"/>
   </g>
   <g id="line2d_4">
    <path d="M 130.257692 169.2 
L 130.387607 173.696651 
L 130.73697 177.82711 
L 131.297104 181.881799 
L 132.04319 185.781244 
L 132.992946 189.659391 
L 134.149139 193.510992 
L 135.596366 197.539013 
L 137.176854 201.292331 
L 138.980855 205.014895 
L 140.962983 208.607507 
L 143.239976 212.254624 
L 145.614339 215.635616 
L 148.113065 218.823617 
L 150.881613 221.994187 
L 153.721393 224.91694 
L 156.804521 227.770001 
L 160.167699 230.555116 
L 163.476829 233.004453 
L 166.795269 235.203301 
L 169.2 236.650055 
L 169.2 236.650055 
" clip-path="url(#pc88ddbc1c1)" style="fill: none; stroke: #0000ff; stroke-linecap: square"/>
   </g>
   <g id="text_1">
    <!-- $\Omega$ -->
    <g transform="translate(17.569231 23.978606)scale(0.1 -0.1)">
     <defs>
      <path id="Cmr10-ad" d="M 494 0 
L 281 1063 
L 469 1063 
Q 503 878 531 736 
Q 559 594 604 536 
Q 650 478 750 459 
Q 850 441 1081 441 
L 1472 441 
Q 1378 803 1004 1386 
Q 631 1969 495 2233 
Q 359 2497 359 2913 
Q 359 3397 646 3761 
Q 934 4125 1389 4319 
Q 1844 4513 2309 4513 
Q 2772 4513 3226 4319 
Q 3681 4125 3968 3758 
Q 4256 3391 4256 2913 
Q 4256 2588 4137 2300 
Q 4019 2013 3834 1725 
Q 3650 1438 3436 1084 
Q 3222 731 3144 441 
L 3531 441 
Q 3766 441 3869 459 
Q 3972 478 4015 536 
Q 4059 594 4086 736 
Q 4113 878 4147 1063 
L 4331 1063 
L 4122 0 
L 2988 0 
Q 2925 0 2925 84 
Q 2925 409 3004 721 
Q 3084 1034 3240 1478 
Q 3397 1922 3484 2261 
Q 3572 2600 3572 2913 
Q 3572 3297 3422 3625 
Q 3272 3953 2984 4150 
Q 2697 4347 2309 4347 
Q 1725 4347 1384 3930 
Q 1044 3513 1044 2913 
Q 1047 2584 1122 2293 
Q 1197 2003 1364 1518 
Q 1531 1034 1611 721 
Q 1691 409 1691 84 
Q 1691 0 1625 0 
L 494 0 
z
" transform="scale(0.015625)"/>
     </defs>
     <use xlink:href="#Cmr10-ad" transform="translate(0 0.484375)"/>
    </g>
   </g>
   <g id="text_2">
    <!-- $A$ -->
    <g style="fill: #0000ff" transform="translate(87.565385 94.07476)scale(0.1 -0.1)">
     <defs>
      <path id="Cmmi10-41" d="M 288 0 
Q 225 0 225 84 
Q 250 225 306 225 
Q 566 225 755 328 
Q 944 431 1081 647 
Q 1094 659 1094 659 
L 3378 4513 
Q 3428 4581 3500 4581 
L 3584 4581 
Q 3603 4581 3622 4573 
Q 3641 4566 3655 4548 
Q 3669 4531 3669 4513 
L 4056 378 
Q 4056 350 4084 294 
Q 4147 225 4563 225 
Q 4628 225 4628 141 
Q 4606 56 4592 28 
Q 4578 0 4519 0 
L 2919 0 
Q 2859 0 2859 84 
Q 2894 225 2944 225 
Q 3450 225 3481 397 
L 3384 1453 
L 1806 1453 
L 1294 594 
Q 1247 525 1247 434 
Q 1247 322 1355 273 
Q 1463 225 1594 225 
Q 1656 225 1656 141 
Q 1634 50 1621 25 
Q 1609 0 1550 0 
L 288 0 
z
M 1931 1678 
L 3359 1678 
L 3169 3750 
L 1931 1678 
z
" transform="scale(0.015625)"/>
     </defs>
     <use xlink:href="#Cmmi10-41" transform="translate(0 0.421875)"/>
    </g>
   </g>
   <g id="text_3">
    <!-- $B$ -->
    <g style="fill: #ff0000" transform="translate(243.284615 94.07476)scale(0.1 -0.1)">
     <defs>
      <path id="Cmmi10-42" d="M 319 0 
Q 256 0 256 84 
Q 259 100 268 137 
Q 278 175 293 200 
Q 309 225 341 225 
Q 522 225 656 234 
Q 791 244 884 269 
Q 959 297 1006 441 
L 1881 3956 
Q 1894 4019 1894 4044 
Q 1894 4113 1819 4122 
Q 1697 4147 1356 4147 
Q 1294 4147 1294 4231 
Q 1297 4247 1306 4286 
Q 1316 4325 1333 4348 
Q 1350 4372 1375 4372 
L 3669 4372 
Q 3878 4372 4083 4320 
Q 4288 4269 4461 4156 
Q 4634 4044 4736 3876 
Q 4838 3709 4838 3488 
Q 4838 3247 4714 3040 
Q 4591 2834 4395 2681 
Q 4200 2528 3973 2429 
Q 3747 2331 3500 2284 
Q 3675 2284 3854 2215 
Q 4034 2147 4175 2028 
Q 4316 1909 4402 1743 
Q 4488 1578 4488 1388 
Q 4488 1003 4219 684 
Q 3950 366 3542 183 
Q 3134 0 2753 0 
L 319 0 
z
M 1497 275 
Q 1497 225 1716 225 
L 2631 225 
Q 2944 225 3231 398 
Q 3519 572 3692 859 
Q 3866 1147 3866 1459 
Q 3866 1650 3786 1820 
Q 3706 1991 3556 2089 
Q 3406 2188 3213 2188 
L 1966 2188 
L 1522 416 
Q 1497 328 1497 275 
z
M 2009 2356 
L 2981 2356 
Q 3288 2356 3577 2512 
Q 3866 2669 4048 2937 
Q 4231 3206 4231 3506 
Q 4231 3784 4057 3965 
Q 3884 4147 3609 4147 
L 2731 4147 
Q 2559 4147 2500 4115 
Q 2441 4084 2400 3928 
L 2009 2356 
z
" transform="scale(0.015625)"/>
     </defs>
     <use xlink:href="#Cmmi10-42" transform="translate(0 0.6875)"/>
    </g>
   </g>
   <g id="text_4">
    <!-- $A\cap B$, colorée en gris -->
    <g transform="translate(116.25 55.323077)scale(0.1 -0.1)">
     <defs>
      <path id="Cmsy10-5c" d="M 359 -25 
L 359 2472 
Q 359 2897 625 3206 
Q 891 3516 1306 3672 
Q 1722 3828 2131 3828 
Q 2434 3828 2745 3745 
Q 3056 3663 3320 3489 
Q 3584 3316 3743 3056 
Q 3903 2797 3903 2472 
L 3903 -25 
Q 3903 -75 3865 -108 
Q 3828 -141 3775 -141 
Q 3728 -141 3687 -108 
Q 3647 -75 3647 -25 
L 3647 2450 
Q 3647 2731 3508 2945 
Q 3369 3159 3151 3293 
Q 2934 3428 2662 3500 
Q 2391 3572 2131 3572 
Q 1775 3572 1426 3447 
Q 1078 3322 847 3069 
Q 616 2816 616 2450 
L 616 -25 
Q 616 -75 575 -108 
Q 534 -141 488 -141 
Q 434 -141 396 -108 
Q 359 -75 359 -25 
z
" transform="scale(0.015625)"/>
      <path id="DejaVuSans-2c" d="M 750 794 
L 1409 794 
L 1409 256 
L 897 -744 
L 494 -744 
L 750 256 
L 750 794 
z
" transform="scale(0.015625)"/>
      <path id="DejaVuSans-20" transform="scale(0.015625)"/>
      <path id="DejaVuSans-63" d="M 3122 3366 
L 3122 2828 
Q 2878 2963 2633 3030 
Q 2388 3097 2138 3097 
Q 1578 3097 1268 2742 
Q 959 2388 959 1747 
Q 959 1106 1268 751 
Q 1578 397 2138 397 
Q 2388 397 2633 464 
Q 2878 531 3122 666 
L 3122 134 
Q 2881 22 2623 -34 
Q 2366 -91 2075 -91 
Q 1284 -91 818 406 
Q 353 903 353 1747 
Q 353 2603 823 3093 
Q 1294 3584 2113 3584 
Q 2378 3584 2631 3529 
Q 2884 3475 3122 3366 
z
" transform="scale(0.015625)"/>
      <path id="DejaVuSans-6f" d="M 1959 3097 
Q 1497 3097 1228 2736 
Q 959 2375 959 1747 
Q 959 1119 1226 758 
Q 1494 397 1959 397 
Q 2419 397 2687 759 
Q 2956 1122 2956 1747 
Q 2956 2369 2687 2733 
Q 2419 3097 1959 3097 
z
M 1959 3584 
Q 2709 3584 3137 3096 
Q 3566 2609 3566 1747 
Q 3566 888 3137 398 
Q 2709 -91 1959 -91 
Q 1206 -91 779 398 
Q 353 888 353 1747 
Q 353 2609 779 3096 
Q 1206 3584 1959 3584 
z
" transform="scale(0.015625)"/>
      <path id="DejaVuSans-6c" d="M 603 4863 
L 1178 4863 
L 1178 0 
L 603 0 
L 603 4863 
z
" transform="scale(0.015625)"/>
      <path id="DejaVuSans-72" d="M 2631 2963 
Q 2534 3019 2420 3045 
Q 2306 3072 2169 3072 
Q 1681 3072 1420 2755 
Q 1159 2438 1159 1844 
L 1159 0 
L 581 0 
L 581 3500 
L 1159 3500 
L 1159 2956 
Q 1341 3275 1631 3429 
Q 1922 3584 2338 3584 
Q 2397 3584 2469 3576 
Q 2541 3569 2628 3553 
L 2631 2963 
z
" transform="scale(0.015625)"/>
      <path id="DejaVuSans-e9" d="M 3597 1894 
L 3597 1613 
L 953 1613 
Q 991 1019 1311 708 
Q 1631 397 2203 397 
Q 2534 397 2845 478 
Q 3156 559 3463 722 
L 3463 178 
Q 3153 47 2828 -22 
Q 2503 -91 2169 -91 
Q 1331 -91 842 396 
Q 353 884 353 1716 
Q 353 2575 817 3079 
Q 1281 3584 2069 3584 
Q 2775 3584 3186 3129 
Q 3597 2675 3597 1894 
z
M 3022 2063 
Q 3016 2534 2758 2815 
Q 2500 3097 2075 3097 
Q 1594 3097 1305 2825 
Q 1016 2553 972 2059 
L 3022 2063 
z
M 2469 5119 
L 3091 5119 
L 2072 3944 
L 1594 3944 
L 2469 5119 
z
" transform="scale(0.015625)"/>
      <path id="DejaVuSans-65" d="M 3597 1894 
L 3597 1613 
L 953 1613 
Q 991 1019 1311 708 
Q 1631 397 2203 397 
Q 2534 397 2845 478 
Q 3156 559 3463 722 
L 3463 178 
Q 3153 47 2828 -22 
Q 2503 -91 2169 -91 
Q 1331 -91 842 396 
Q 353 884 353 1716 
Q 353 2575 817 3079 
Q 1281 3584 2069 3584 
Q 2775 3584 3186 3129 
Q 3597 2675 3597 1894 
z
M 3022 2063 
Q 3016 2534 2758 2815 
Q 2500 3097 2075 3097 
Q 1594 3097 1305 2825 
Q 1016 2553 972 2059 
L 3022 2063 
z
" transform="scale(0.015625)"/>
      <path id="DejaVuSans-6e" d="M 3513 2113 
L 3513 0 
L 2938 0 
L 2938 2094 
Q 2938 2591 2744 2837 
Q 2550 3084 2163 3084 
Q 1697 3084 1428 2787 
Q 1159 2491 1159 1978 
L 1159 0 
L 581 0 
L 581 3500 
L 1159 3500 
L 1159 2956 
Q 1366 3272 1645 3428 
Q 1925 3584 2291 3584 
Q 2894 3584 3203 3211 
Q 3513 2838 3513 2113 
z
" transform="scale(0.015625)"/>
      <path id="DejaVuSans-67" d="M 2906 1791 
Q 2906 2416 2648 2759 
Q 2391 3103 1925 3103 
Q 1463 3103 1205 2759 
Q 947 2416 947 1791 
Q 947 1169 1205 825 
Q 1463 481 1925 481 
Q 2391 481 2648 825 
Q 2906 1169 2906 1791 
z
M 3481 434 
Q 3481 -459 3084 -895 
Q 2688 -1331 1869 -1331 
Q 1566 -1331 1297 -1286 
Q 1028 -1241 775 -1147 
L 775 -588 
Q 1028 -725 1275 -790 
Q 1522 -856 1778 -856 
Q 2344 -856 2625 -561 
Q 2906 -266 2906 331 
L 2906 616 
Q 2728 306 2450 153 
Q 2172 0 1784 0 
Q 1141 0 747 490 
Q 353 981 353 1791 
Q 353 2603 747 3093 
Q 1141 3584 1784 3584 
Q 2172 3584 2450 3431 
Q 2728 3278 2906 2969 
L 2906 3500 
L 3481 3500 
L 3481 434 
z
" transform="scale(0.015625)"/>
      <path id="DejaVuSans-69" d="M 603 3500 
L 1178 3500 
L 1178 0 
L 603 0 
L 603 3500 
z
M 603 4863 
L 1178 4863 
L 1178 4134 
L 603 4134 
L 603 4863 
z
" transform="scale(0.015625)"/>
      <path id="DejaVuSans-73" d="M 2834 3397 
L 2834 2853 
Q 2591 2978 2328 3040 
Q 2066 3103 1784 3103 
Q 1356 3103 1142 2972 
Q 928 2841 928 2578 
Q 928 2378 1081 2264 
Q 1234 2150 1697 2047 
L 1894 2003 
Q 2506 1872 2764 1633 
Q 3022 1394 3022 966 
Q 3022 478 2636 193 
Q 2250 -91 1575 -91 
Q 1294 -91 989 -36 
Q 684 19 347 128 
L 347 722 
Q 666 556 975 473 
Q 1284 391 1588 391 
Q 1994 391 2212 530 
Q 2431 669 2431 922 
Q 2431 1156 2273 1281 
Q 2116 1406 1581 1522 
L 1381 1569 
Q 847 1681 609 1914 
Q 372 2147 372 2553 
Q 372 3047 722 3315 
Q 1072 3584 1716 3584 
Q 2034 3584 2315 3537 
Q 2597 3491 2834 3397 
z
" transform="scale(0.015625)"/>
     </defs>
     <use xlink:href="#Cmmi10-41" transform="translate(0 0.015625)"/>
     <use xlink:href="#Cmsy10-5c" transform="translate(92.558594 0.015625)"/>
     <use xlink:href="#Cmmi10-42" transform="translate(176.71875 0.015625)"/>
     <use xlink:href="#DejaVuSans-2c" transform="translate(252.5 0.015625)"/>
     <use xlink:href="#DejaVuSans-20" transform="translate(284.287109 0.015625)"/>
     <use xlink:href="#DejaVuSans-63" transform="translate(316.074219 0.015625)"/>
     <use xlink:href="#DejaVuSans-6f" transform="translate(371.054688 0.015625)"/>
     <use xlink:href="#DejaVuSans-6c" transform="translate(432.236328 0.015625)"/>
     <use xlink:href="#DejaVuSans-6f" transform="translate(460.019531 0.015625)"/>
     <use xlink:href="#DejaVuSans-72" transform="translate(521.201172 0.015625)"/>
     <use xlink:href="#DejaVuSans-e9" transform="translate(562.314453 0.015625)"/>
     <use xlink:href="#DejaVuSans-65" transform="translate(623.837891 0.015625)"/>
     <use xlink:href="#DejaVuSans-20" transform="translate(685.361328 0.015625)"/>
     <use xlink:href="#DejaVuSans-65" transform="translate(717.148438 0.015625)"/>
     <use xlink:href="#DejaVuSans-6e" transform="translate(778.671875 0.015625)"/>
     <use xlink:href="#DejaVuSans-20" transform="translate(842.050781 0.015625)"/>
     <use xlink:href="#DejaVuSans-67" transform="translate(873.837891 0.015625)"/>
     <use xlink:href="#DejaVuSans-72" transform="translate(937.314453 0.015625)"/>
     <use xlink:href="#DejaVuSans-69" transform="translate(978.427734 0.015625)"/>
     <use xlink:href="#DejaVuSans-73" transform="translate(1006.210938 0.015625)"/>
    </g>
   </g>
   <g id="patch_8">
    <path d="M 130.257692 247.084615 
C 150.912934 247.084615 170.724971 238.878201 185.330432 224.27274 
C 199.935893 209.667278 208.142308 189.855241 208.142308 169.2 
C 208.142308 148.544759 199.935893 128.732722 185.330432 114.12726 
C 170.724971 99.521799 150.912934 91.315385 130.257692 91.315385 
C 109.602451 91.315385 89.790414 99.521799 75.184953 114.12726 
C 60.579491 128.732722 52.373077 148.544759 52.373077 169.2 
C 52.373077 189.855241 60.579491 209.667278 75.184953 224.27274 
C 89.790414 238.878201 109.602451 247.084615 130.257692 247.084615 
L 130.257692 247.084615 
z
" clip-path="url(#pc88ddbc1c1)" style="fill: none; stroke: #0000ff; stroke-linejoin: miter"/>
   </g>
   <g id="patch_9">
    <path d="M 208.142308 247.084615 
C 228.797549 247.084615 248.609586 238.878201 263.215047 224.27274 
C 277.820509 209.667278 286.026923 189.855241 286.026923 169.2 
C 286.026923 148.544759 277.820509 128.732722 263.215047 114.12726 
C 248.609586 99.521799 228.797549 91.315385 208.142308 91.315385 
C 187.487066 91.315385 167.675029 99.521799 153.069568 114.12726 
C 138.464107 128.732722 130.257692 148.544759 130.257692 169.2 
C 130.257692 189.855241 138.464107 209.667278 153.069568 224.27274 
C 167.675029 238.878201 187.487066 247.084615 208.142308 247.084615 
L 208.142308 247.084615 
z
" clip-path="url(#pc88ddbc1c1)" style="fill: none; stroke: #ff0000; stroke-linejoin: miter"/>
   </g>
  </g>
 </g>
 <defs>
  <clipPath id="pc88ddbc1c1">
   <rect x="7.2" y="7.2" width="324" height="324"/>
  </clipPath>
 </defs>
</svg>
