<?xml version="1.0" encoding="utf-8" standalone="no"?>
<!DOCTYPE svg PUBLIC "-//W3C//DTD SVG 1.1//EN"
  "http://www.w3.org/Graphics/SVG/1.1/DTD/svg11.dtd">
<svg xmlns:xlink="http://www.w3.org/1999/xlink" width="419.4pt" height="338.4pt" viewBox="0 0 419.4 338.4" xmlns="http://www.w3.org/2000/svg" version="1.1">
 <metadata>
  <rdf:RDF xmlns:dc="http://purl.org/dc/elements/1.1/" xmlns:cc="http://creativecommons.org/ns#" xmlns:rdf="http://www.w3.org/1999/02/22-rdf-syntax-ns#">
   <cc:Work>
    <dc:type rdf:resource="http://purl.org/dc/dcmitype/StillImage"/>
    <dc:date>2022-08-23T17:25:48.990760</dc:date>
    <dc:format>image/svg+xml</dc:format>
    <dc:creator>
     <cc:Agent>
      <dc:title>Matplotlib v3.5.2, https://matplotlib.org/</dc:title>
     </cc:Agent>
    </dc:creator>
   </cc:Work>
  </rdf:RDF>
 </metadata>
 <defs>
  <style type="text/css">*{stroke-linejoin: round; stroke-linecap: butt}</style>
 </defs>
 <g id="figure_1">
  <g id="patch_1">
   <path d="M 0 338.4 
L 419.4 338.4 
L 419.4 0 
L 0 0 
z
" style="fill: #ffffff"/>
  </g>
  <g id="axes_1">
   <g id="patch_2">
    <path d="M 7.2 331.2 
L 412.2 331.2 
L 412.2 7.2 
L 7.2 7.2 
z
" style="fill: #ffffff"/>
   </g>
   <g id="PathCollection_1">
    <path d="M 92.873077 93.551453 
C 93.466089 93.551453 94.034893 93.315846 94.454216 92.896523 
C 94.873539 92.477201 95.109145 91.908397 95.109145 91.315385 
C 95.109145 90.722372 94.873539 90.153569 94.454216 89.734246 
C 94.034893 89.314923 93.466089 89.079317 92.873077 89.079317 
C 92.280065 89.079317 91.711261 89.314923 91.291938 89.734246 
C 90.872615 90.153569 90.637009 90.722372 90.637009 91.315385 
C 90.637009 91.908397 90.872615 92.477201 91.291938 92.896523 
C 91.711261 93.315846 92.280065 93.551453 92.873077 93.551453 
z
" clip-path="url(#pa05bc6ec89)"/>
   </g>
   <g id="PathCollection_2">
    <path d="M 92.873077 171.436068 
C 93.466089 171.436068 94.034893 171.200462 94.454216 170.781139 
C 94.873539 170.361816 95.109145 169.793012 95.109145 169.2 
C 95.109145 168.606988 94.873539 168.038184 94.454216 167.618861 
C 94.034893 167.199538 93.466089 166.963932 92.873077 166.963932 
C 92.280065 166.963932 91.711261 167.199538 91.291938 167.618861 
C 90.872615 168.038184 90.637009 168.606988 90.637009 169.2 
C 90.637009 169.793012 90.872615 170.361816 91.291938 170.781139 
C 91.711261 171.200462 92.280065 171.436068 92.873077 171.436068 
z
" clip-path="url(#pa05bc6ec89)"/>
   </g>
   <g id="PathCollection_3">
    <path d="M 92.873077 249.320683 
C 93.466089 249.320683 94.034893 249.085077 94.454216 248.665754 
C 94.873539 248.246431 95.109145 247.677628 95.109145 247.084615 
C 95.109145 246.491603 94.873539 245.922799 94.454216 245.503477 
C 94.034893 245.084154 93.466089 244.848547 92.873077 244.848547 
C 92.280065 244.848547 91.711261 245.084154 91.291938 245.503477 
C 90.872615 245.922799 90.637009 246.491603 90.637009 247.084615 
C 90.637009 247.677628 90.872615 248.246431 91.291938 248.665754 
C 91.711261 249.085077 92.280065 249.320683 92.873077 249.320683 
z
" clip-path="url(#pa05bc6ec89)"/>
   </g>
   <g id="PathCollection_4">
    <path d="M 326.526923 93.551453 
C 327.119935 93.551453 327.688739 93.315846 328.108062 92.896523 
C 328.527385 92.477201 328.762991 91.908397 328.762991 91.315385 
C 328.762991 90.722372 328.527385 90.153569 328.108062 89.734246 
C 327.688739 89.314923 327.119935 89.079317 326.526923 89.079317 
C 325.933911 89.079317 325.365107 89.314923 324.945784 89.734246 
C 324.526461 90.153569 324.290855 90.722372 324.290855 91.315385 
C 324.290855 91.908397 324.526461 92.477201 324.945784 92.896523 
C 325.365107 93.315846 325.933911 93.551453 326.526923 93.551453 
z
" clip-path="url(#pa05bc6ec89)"/>
   </g>
   <g id="PathCollection_5">
    <path d="M 326.526923 171.436068 
C 327.119935 171.436068 327.688739 171.200462 328.108062 170.781139 
C 328.527385 170.361816 328.762991 169.793012 328.762991 169.2 
C 328.762991 168.606988 328.527385 168.038184 328.108062 167.618861 
C 327.688739 167.199538 327.119935 166.963932 326.526923 166.963932 
C 325.933911 166.963932 325.365107 167.199538 324.945784 167.618861 
C 324.526461 168.038184 324.290855 168.606988 324.290855 169.2 
C 324.290855 169.793012 324.526461 170.361816 324.945784 170.781139 
C 325.365107 171.200462 325.933911 171.436068 326.526923 171.436068 
z
" clip-path="url(#pa05bc6ec89)"/>
   </g>
   <g id="matplotlib.axis_1"/>
   <g id="matplotlib.axis_2"/>
   <g id="patch_3">
    <path d="M 92.873077 169.2 
Q 209.7 169.2 325.408889 169.2 
" clip-path="url(#pa05bc6ec89)" style="fill: none; stroke: #000000; stroke-linecap: round"/>
    <path d="M 321.408889 167.2 
L 325.408889 169.2 
L 321.408889 171.2 
L 321.408889 167.2 
z
" clip-path="url(#pa05bc6ec89)" style="stroke: #000000; stroke-linecap: round"/>
   </g>
   <g id="patch_4">
    <path d="M 92.873077 247.084615 
Q 209.7 169.2 325.596663 91.935558 
" clip-path="url(#pa05bc6ec89)" style="fill: none; stroke: #000000; stroke-linecap: round"/>
    <path d="M 321.159061 92.490258 
L 325.596663 91.935558 
L 323.377862 95.81846 
L 321.159061 92.490258 
z
" clip-path="url(#pa05bc6ec89)" style="stroke: #000000; stroke-linecap: round"/>
   </g>
   <g id="patch_5">
    <path d="M 92.873077 91.315385 
Q 209.7 91.315385 325.408889 91.315385 
" clip-path="url(#pa05bc6ec89)" style="fill: none; stroke: #000000; stroke-linecap: round"/>
    <path d="M 321.408889 89.315385 
L 325.408889 91.315385 
L 321.408889 93.315385 
L 321.408889 89.315385 
z
" clip-path="url(#pa05bc6ec89)" style="stroke: #000000; stroke-linecap: round"/>
   </g>
   <g id="text_1">
    <!-- $a$ -->
    <g transform="translate(74.116154 94.626635)scale(0.12 -0.12)">
     <defs>
      <path id="Cmmi10-61" d="M 1113 -72 
Q 709 -72 476 233 
Q 244 538 244 953 
Q 244 1363 456 1803 
Q 669 2244 1030 2536 
Q 1391 2828 1806 2828 
Q 1997 2828 2147 2725 
Q 2297 2622 2381 2444 
Q 2453 2700 2663 2700 
Q 2744 2700 2798 2651 
Q 2853 2603 2853 2522 
Q 2853 2503 2851 2493 
Q 2850 2484 2847 2472 
L 2400 684 
Q 2356 494 2356 372 
Q 2356 97 2541 97 
Q 2741 97 2845 351 
Q 2950 606 3022 941 
Q 3034 978 3072 978 
L 3150 978 
Q 3175 978 3190 956 
Q 3206 934 3206 916 
Q 3094 469 2961 198 
Q 2828 -72 2528 -72 
Q 2313 -72 2147 54 
Q 1981 181 1941 391 
Q 1528 -72 1113 -72 
z
M 1119 97 
Q 1350 97 1567 270 
Q 1784 444 1941 678 
Q 1947 684 1947 697 
L 2291 2088 
L 2297 2106 
Q 2259 2334 2132 2498 
Q 2006 2663 1791 2663 
Q 1575 2663 1389 2486 
Q 1203 2309 1075 2069 
Q 950 1813 836 1366 
Q 722 919 722 672 
Q 722 450 817 273 
Q 913 97 1119 97 
z
" transform="scale(0.015625)"/>
     </defs>
     <use xlink:href="#Cmmi10-61" transform="translate(0 0.8125)"/>
    </g>
   </g>
   <g id="text_2">
    <!-- $b$ -->
    <g transform="translate(74.716154 172.51125)scale(0.12 -0.12)">
     <defs>
      <path id="Cmmi10-62" d="M 1106 -72 
Q 719 -72 503 231 
Q 288 534 288 941 
Q 288 1000 317 1173 
Q 347 1347 347 1388 
L 966 3872 
Q 991 3981 997 4044 
Q 997 4147 581 4147 
Q 519 4147 519 4231 
Q 522 4247 533 4287 
Q 544 4328 561 4350 
Q 578 4372 609 4372 
L 1472 4441 
Q 1550 4441 1550 4359 
L 1075 2472 
Q 1438 2828 1806 2828 
Q 2078 2828 2273 2684 
Q 2469 2541 2566 2306 
Q 2663 2072 2663 1806 
Q 2663 1497 2542 1167 
Q 2422 838 2209 555 
Q 1997 272 1712 100 
Q 1428 -72 1106 -72 
z
M 1119 97 
Q 1338 97 1528 280 
Q 1719 463 1838 691 
Q 1966 947 2077 1386 
Q 2188 1825 2188 2088 
Q 2188 2316 2092 2489 
Q 1997 2663 1791 2663 
Q 1559 2663 1348 2492 
Q 1138 2322 978 2088 
L 800 1363 
Q 697 959 691 716 
Q 691 475 795 286 
Q 900 97 1119 97 
z
" transform="scale(0.015625)"/>
     </defs>
     <use xlink:href="#Cmmi10-62" transform="translate(0 0.609375)"/>
    </g>
   </g>
   <g id="text_3">
    <!-- $c$ -->
    <g transform="translate(74.656154 250.395865)scale(0.12 -0.12)">
     <defs>
      <path id="Cmmi10-63" d="M 750 763 
Q 750 484 892 290 
Q 1034 97 1300 97 
Q 1681 97 2032 272 
Q 2384 447 2606 756 
Q 2625 775 2656 775 
Q 2688 775 2720 739 
Q 2753 703 2753 672 
Q 2753 647 2741 634 
Q 2506 306 2109 117 
Q 1713 -72 1288 -72 
Q 981 -72 747 73 
Q 513 219 384 462 
Q 256 706 256 1013 
Q 256 1444 497 1869 
Q 738 2294 1138 2561 
Q 1538 2828 1978 2828 
Q 2266 2828 2495 2689 
Q 2725 2550 2725 2278 
Q 2725 2103 2623 1979 
Q 2522 1856 2350 1856 
Q 2247 1856 2176 1920 
Q 2106 1984 2106 2088 
Q 2106 2238 2215 2344 
Q 2325 2450 2472 2450 
L 2484 2450 
Q 2409 2559 2267 2611 
Q 2125 2663 1972 2663 
Q 1597 2663 1315 2342 
Q 1034 2022 892 1576 
Q 750 1131 750 763 
z
" transform="scale(0.015625)"/>
     </defs>
     <use xlink:href="#Cmmi10-63" transform="translate(0 0.8125)"/>
    </g>
   </g>
   <g id="text_4">
    <!-- $1$ -->
    <g transform="translate(323.526923 79.049712)scale(0.12 -0.12)">
     <defs>
      <path id="Cmr10-31" d="M 594 0 
L 594 225 
Q 1394 225 1394 428 
L 1394 3788 
Q 1063 3628 556 3628 
L 556 3853 
Q 1341 3853 1741 4263 
L 1831 4263 
Q 1853 4263 1873 4245 
Q 1894 4228 1894 4206 
L 1894 428 
Q 1894 225 2694 225 
L 2694 0 
L 594 0 
z
" transform="scale(0.015625)"/>
     </defs>
     <use xlink:href="#Cmr10-31" transform="translate(0 0.390625)"/>
    </g>
   </g>
   <g id="text_5">
    <!-- $2$ -->
    <g transform="translate(323.526923 188.088173)scale(0.12 -0.12)">
     <defs>
      <path id="Cmr10-32" d="M 319 0 
L 319 172 
Q 319 188 331 206 
L 1325 1306 
Q 1550 1550 1690 1715 
Q 1831 1881 1968 2097 
Q 2106 2313 2186 2536 
Q 2266 2759 2266 3009 
Q 2266 3272 2169 3511 
Q 2072 3750 1880 3894 
Q 1688 4038 1416 4038 
Q 1138 4038 916 3870 
Q 694 3703 603 3438 
Q 628 3444 672 3444 
Q 816 3444 917 3347 
Q 1019 3250 1019 3097 
Q 1019 2950 917 2848 
Q 816 2747 672 2747 
Q 522 2747 420 2851 
Q 319 2956 319 3097 
Q 319 3338 409 3548 
Q 500 3759 670 3923 
Q 841 4088 1055 4175 
Q 1269 4263 1509 4263 
Q 1875 4263 2190 4108 
Q 2506 3953 2690 3670 
Q 2875 3388 2875 3009 
Q 2875 2731 2753 2481 
Q 2631 2231 2440 2026 
Q 2250 1822 1953 1562 
Q 1656 1303 1563 1216 
L 838 519 
L 1453 519 
Q 1906 519 2211 526 
Q 2516 534 2534 550 
Q 2609 631 2688 1141 
L 2875 1141 
L 2694 0 
L 319 0 
z
" transform="scale(0.015625)"/>
     </defs>
     <use xlink:href="#Cmr10-32" transform="translate(0 0.390625)"/>
    </g>
   </g>
   <g id="patch_6">
    <path d="M 92.873077 324.969231 
C 113.528318 324.969231 133.340355 308.556402 147.945817 279.345479 
C 162.551278 250.134557 170.757692 210.510483 170.757692 169.2 
C 170.757692 127.889517 162.551278 88.265443 147.945817 59.054521 
C 133.340355 29.843598 113.528318 13.430769 92.873077 13.430769 
C 72.217835 13.430769 52.405799 29.843598 37.800337 59.054521 
C 23.194876 88.265443 14.988462 127.889517 14.988462 169.2 
C 14.988462 210.510483 23.194876 250.134557 37.800337 279.345479 
C 52.405799 308.556402 72.217835 324.969231 92.873077 324.969231 
L 92.873077 324.969231 
z
" clip-path="url(#pa05bc6ec89)" style="fill: none; stroke: #000000; stroke-linejoin: miter"/>
   </g>
   <g id="patch_7">
    <path d="M 326.526923 324.969231 
C 347.182165 324.969231 366.994201 308.556402 381.599663 279.345479 
C 396.205124 250.134557 404.411538 210.510483 404.411538 169.2 
C 404.411538 127.889517 396.205124 88.265443 381.599663 59.054521 
C 366.994201 29.843598 347.182165 13.430769 326.526923 13.430769 
C 305.871682 13.430769 286.059645 29.843598 271.454183 59.054521 
C 256.848722 88.265443 248.642308 127.889517 248.642308 169.2 
C 248.642308 210.510483 256.848722 250.134557 271.454183 279.345479 
C 286.059645 308.556402 305.871682 324.969231 326.526923 324.969231 
L 326.526923 324.969231 
z
" clip-path="url(#pa05bc6ec89)" style="fill: none; stroke: #000000; stroke-linejoin: miter"/>
   </g>
  </g>
 </g>
 <defs>
  <clipPath id="pa05bc6ec89">
   <rect x="7.2" y="7.2" width="405" height="324"/>
  </clipPath>
 </defs>
</svg>
