<?xml version="1.0" encoding="utf-8" standalone="no"?>
<!DOCTYPE svg PUBLIC "-//W3C//DTD SVG 1.1//EN"
  "http://www.w3.org/Graphics/SVG/1.1/DTD/svg11.dtd">
<svg xmlns:xlink="http://www.w3.org/1999/xlink" width="338.4pt" height="338.4pt" viewBox="0 0 338.4 338.4" xmlns="http://www.w3.org/2000/svg" version="1.1">
 <metadata>
  <rdf:RDF xmlns:dc="http://purl.org/dc/elements/1.1/" xmlns:cc="http://creativecommons.org/ns#" xmlns:rdf="http://www.w3.org/1999/02/22-rdf-syntax-ns#">
   <cc:Work>
    <dc:type rdf:resource="http://purl.org/dc/dcmitype/StillImage"/>
    <dc:date>2022-08-23T17:26:12.643507</dc:date>
    <dc:format>image/svg+xml</dc:format>
    <dc:creator>
     <cc:Agent>
      <dc:title>Matplotlib v3.5.2, https://matplotlib.org/</dc:title>
     </cc:Agent>
    </dc:creator>
   </cc:Work>
  </rdf:RDF>
 </metadata>
 <defs>
  <style type="text/css">*{stroke-linejoin: round; stroke-linecap: butt}</style>
 </defs>
 <g id="figure_1">
  <g id="patch_1">
   <path d="M -0 338.4 
L 338.4 338.4 
L 338.4 0 
L -0 0 
z
" style="fill: #ffffff"/>
  </g>
  <g id="axes_1">
   <g id="patch_2">
    <path d="M 7.2 331.2 
L 331.2 331.2 
L 331.2 7.2 
L 7.2 7.2 
z
" style="fill: #ffffff"/>
   </g>
   <g id="patch_3">
    <path d="M 13.430769 324.969231 
L 13.430769 13.430769 
L 324.969231 13.430769 
L 324.969231 324.969231 
L 13.430769 324.969231 
z
" clip-path="url(#p1c562630e0)" style="fill: none; stroke: #000000; stroke-linejoin: miter"/>
   </g>
   <g id="patch_4">
    <path d="M 200.353846 146.393802 
L 199.807139 146.081831 
L 199.454781 145.884618 
L 199.007095 145.638349 
L 198.378941 145.3008 
L 198.038296 145.121599 
L 197.622556 144.906512 
L 196.877826 144.531033 
L 196.38508 144.289419 
L 196.117814 144.16061 
L 195.580288 143.906269 
L 195.178076 143.720039 
L 194.568973 143.444588 
L 194.388536 143.364495 
L 193.636821 143.038139 
L 193.125839 142.822961 
L 192.714007 142.653413 
L 192.209172 142.450249 
L 191.716547 142.256913 
L 191.39159 142.132013 
L 190.772003 141.899614 
L 190.299215 141.727302 
L 190.106619 141.658345 
L 189.463589 141.43326 
L 188.88413 141.237152 
L 188.582582 141.137598 
L 188.347138 141.061051 
L 187.653648 140.841567 
L 187.391996 140.761063 
L 186.660671 140.542698 
L 186.069166 140.373185 
L 185.820368 140.303768 
L 185.309097 140.164599 
L 185.024501 140.089149 
L 184.169213 139.871029 
L 183.821076 139.785929 
L 183.427656 139.692307 
L 183.077524 139.611251 
L 182.333425 139.446033 
L 182.130133 139.402553 
L 181.392156 139.250656 
L 181.13884 139.200656 
L 180.653071 139.10782 
L 179.995535 138.988506 
L 179.702089 138.937605 
L 179.250512 138.862093 
L 178.66643 138.769471 
L 178.250473 138.706969 
L 177.804746 138.643176 
L 177.139703 138.554092 
L 177.010583 138.53764 
L 176.633808 138.4912 
L 175.951997 138.413076 
L 175.242109 138.339804 
L 175.131371 138.329114 
L 174.656719 138.285555 
L 174.045583 138.234857 
L 173.643003 138.204765 
L 172.987855 138.161397 
L 172.563745 138.137018 
L 172.330746 138.124858 
L 171.681071 138.095571 
L 171.014379 138.072577 
L 170.694792 138.064087 
L 170.099945 138.052653 
L 169.70449 138.048196 
L 169.310443 138.046252 
L 169.107924 138.046222 
L 168.636929 138.048698 
L 167.885657 138.060018 
L 167.369221 138.073056 
L 167.208058 138.078003 
L 166.33064 138.112258 
L 165.883758 138.134468 
L 165.629348 138.148549 
L 164.954789 138.190942 
L 164.603399 138.215937 
L 164.380189 138.232852 
L 163.610149 138.297403 
L 163.080962 138.347347 
L 162.925975 138.362838 
L 162.368365 138.421808 
L 161.638247 138.506709 
L 161.561071 138.516193 
L 160.849225 138.608295 
L 160.526617 138.652785 
L 160.084263 138.716586 
L 159.484373 138.808293 
L 159.001174 138.886518 
L 158.488845 138.973722 
L 157.928186 139.074203 
L 157.791029 139.09959 
L 157.169941 139.218536 
L 156.86899 139.278526 
L 156.027551 139.454461 
L 155.514197 139.567768 
L 155.433536 139.585985 
L 154.705358 139.755547 
L 154.293392 139.855569 
L 154.054327 139.914975 
L 153.600624 140.030484 
L 152.878258 140.221914 
L 152.451131 140.339482 
L 151.81963 140.519314 
L 151.39991 140.642831 
L 150.816231 140.819944 
L 150.50796 140.916012 
L 150.16553 141.024785 
L 149.818647 141.137196 
L 149.137452 141.364502 
L 148.898523 141.446304 
L 148.020387 141.756299 
L 147.84122 141.821368 
L 147.141058 142.081626 
L 146.676192 142.259728 
L 146.405933 142.365235 
L 145.732152 142.634624 
L 145.186005 142.859702 
L 144.919858 142.971591 
L 144.677098 143.074917 
L 144.221496 143.272125 
L 143.476365 143.604017 
L 143.123904 143.765104 
L 142.744458 143.9415 
L 141.904545 144.343073 
L 141.837007 144.376037 
L 140.988239 144.798963 
L 140.543986 145.026806 
L 140.033752 145.294074 
L 139.768201 145.435564 
L 139.516594 145.571149 
L 138.727361 146.006199 
L 138.423468 146.177711 
L 137.7151 146.586295 
L 137.404624 146.76931 
L 137.143491 146.92512 
L 136.3205 147.427605 
L 136.164603 147.524772 
L 135.559175 147.908223 
L 134.847983 148.371278 
L 134.434585 148.646841 
L 134.328102 148.718594 
L 133.599756 149.218035 
L 133.158029 149.528411 
L 132.665825 149.881056 
L 132.069667 150.31799 
L 131.620881 150.654165 
L 131.163372 151.003431 
L 130.933919 151.181134 
L 130.412914 151.591048 
L 129.952421 151.960912 
L 129.647704 152.209642 
L 128.943732 152.796708 
L 128.367474 153.290556 
L 128.077239 153.543943 
L 127.492418 154.064257 
L 127.041276 154.47476 
L 126.58485 154.898401 
L 126.277113 155.188879 
L 125.726223 155.718891 
L 125.049044 156.388615 
L 124.722123 156.719376 
L 124.059634 157.405087 
L 123.961563 157.508399 
L 123.256618 158.2652 
L 122.659094 158.926892 
L 122.179228 159.472365 
L 122.117429 159.543553 
L 121.489325 160.279665 
L 120.993512 160.877485 
L 120.736786 161.193083 
L 120.102612 161.991169 
L 119.580828 162.668487 
L 119.274833 163.074815 
L 118.756562 163.779154 
L 118.39175 164.287654 
L 118.026937 164.80717 
L 117.759789 165.194876 
L 117.437056 165.671773 
L 117.003644 166.327549 
L 116.570231 167.001846 
L 116.236007 167.535193 
L 115.991643 167.932876 
L 115.690036 168.433127 
L 115.388429 168.94424 
L 115.076384 169.485047 
L 114.670908 170.207094 
L 114.265432 170.952455 
L 113.997753 171.458165 
L 113.730073 171.975409 
L 113.518183 172.393449 
L 113.163159 173.111948 
L 112.808135 173.854675 
L 112.638364 174.219007 
L 112.260066 175.053799 
L 111.881768 175.922948 
L 111.67824 176.406077 
L 111.482956 176.880641 
L 111.287672 177.366658 
L 111.120223 177.793082 
L 110.952775 178.22899 
L 110.785326 178.674954 
L 110.617877 179.131608 
L 110.450538 179.599347 
L 110.283199 180.079255 
L 110.036727 180.81016 
L 109.790256 181.572717 
L 109.636776 182.065303 
L 109.483296 182.572853 
L 109.329816 183.096687 
L 109.176336 183.638338 
L 109.021402 184.205013 
L 108.866468 184.793853 
L 108.706365 185.428412 
L 108.546261 186.092972 
L 108.386158 186.791944 
L 108.306107 187.156032 
L 108.226055 187.530953 
L 108.124166 188.025381 
L 108.022277 188.541362 
L 107.920388 189.081857 
L 107.8185 189.650579 
L 107.745214 190.079716 
L 107.671928 190.528123 
L 107.598642 190.998572 
L 107.525356 191.494571 
L 107.48579 191.774521 
L 107.446225 192.064109 
L 107.406659 192.364382 
L 107.367094 192.676593 
L 107.327528 193.002265 
L 107.287963 193.343272 
L 107.248397 193.701972 
L 107.208832 194.081401 
L 107.169266 194.485577 
L 107.129701 194.920021 
L 107.109918 195.150941 
L 107.090135 195.392676 
L 107.070352 195.646893 
L 107.05057 195.915735 
L 107.030787 196.202043 
L 107.011004 196.509718 
L 106.991221 196.844375 
L 106.971439 197.21463 
L 106.951656 197.634989 
L 106.931873 198.133733 
L 106.91209 198.783864 
L 106.892308 200.353846 
L 106.892308 84.086109 
L 107.134745 83.946862 
L 107.919988 83.505686 
L 108.32911 83.281696 
L 108.809439 83.023767 
L 109.105911 82.867255 
L 109.527629 82.648119 
L 110.051422 82.381592 
L 110.511886 82.152392 
L 111.047409 81.891757 
L 111.562117 81.647179 
L 112.07484 81.409246 
L 112.443785 81.241513 
L 113.169118 80.920139 
L 113.235757 80.891165 
L 113.910462 80.602991 
L 114.608306 80.314743 
L 115.012874 80.152143 
L 115.238575 80.062856 
L 115.827855 79.834508 
L 116.402463 79.618428 
L 116.737577 79.49538 
L 117.356729 79.273743 
L 117.661559 79.167322 
L 118.351169 78.933075 
L 118.492168 78.886284 
L 119.058707 78.702027 
L 119.581943 78.537151 
L 119.984708 78.413674 
L 120.598085 78.231328 
L 120.969098 78.124349 
L 121.298696 78.031396 
L 122.052862 77.826032 
L 122.578905 77.688779 
L 122.759893 77.642687 
L 123.493577 77.461741 
L 123.824829 77.38313 
L 124.418308 77.247056 
L 124.585724 77.209772 
L 125.124404 77.093082 
L 125.608577 76.992446 
L 126.185512 76.877749 
L 126.791748 76.763311 
L 127.234766 76.683605 
L 127.715964 76.600766 
L 128.007408 76.552479 
L 128.611473 76.456907 
L 129.183477 76.371998 
L 129.481969 76.329841 
L 129.696558 76.300443 
L 130.385199 76.211226 
L 130.914043 76.147999 
L 131.404528 76.093452 
L 131.572896 76.075633 
L 132.438772 75.991293 
L 132.738508 75.964938 
L 133.157531 75.930537 
L 133.42966 75.909719 
L 134.244054 75.854574 
L 134.399245 75.845281 
L 134.940291 75.815919 
L 135.329591 75.79771 
L 135.837451 75.777621 
L 136.561417 75.756154 
L 136.832312 75.750286 
L 137.215821 75.743994 
L 137.667967 75.739609 
L 138.280637 75.738903 
L 138.732608 75.742243 
L 139.341724 75.751932 
L 139.752364 75.761827 
L 140.294991 75.779058 
L 140.805649 75.799598 
L 141.05184 75.811 
L 141.542603 75.836642 
L 142.114252 75.871407 
L 142.693749 75.912038 
L 142.885233 75.926657 
L 143.418228 75.97048 
L 144.024957 76.025976 
L 144.464311 76.069902 
L 144.78715 76.104185 
L 145.602912 76.198406 
L 145.943384 76.240958 
L 146.533787 76.319267 
L 146.738998 76.347832 
L 147.067578 76.395019 
L 147.581839 76.472464 
L 148.087299 76.55287 
L 148.900424 76.691176 
L 149.226818 76.749814 
L 149.828411 76.862603 
L 149.933147 76.882865 
L 150.590305 77.014254 
L 151.140569 77.129943 
L 151.715692 77.256416 
L 152.146555 77.354909 
L 152.373076 77.407982 
L 152.869255 77.527362 
L 153.228303 77.616435 
L 154.007185 77.817473 
L 154.450241 77.936634 
L 154.589862 77.974911 
L 155.40169 78.204413 
L 155.560684 78.250755 
L 156.312541 78.476131 
L 156.549321 78.549252 
L 157.302584 78.788762 
L 157.848958 78.969107 
L 158.261884 79.10913 
L 158.381018 79.150128 
L 159.176325 79.43076 
L 159.652388 79.604566 
L 159.762114 79.64525 
L 160.22417 79.819149 
L 160.877353 80.072152 
L 161.396233 80.279188 
L 161.905018 80.487461 
L 162.390485 80.691101 
L 162.761068 80.849812 
L 163.286807 81.079866 
L 163.724713 81.275914 
L 164.04613 81.422398 
L 164.726715 81.739883 
L 164.964381 81.853115 
L 165.373485 82.050926 
L 165.916508 82.319214 
L 166.654864 82.694639 
L 166.918424 82.831658 
L 167.354998 83.062155 
L 167.864086 83.336562 
L 168.587981 83.737358 
L 168.792348 83.852795 
L 169.528902 84.277342 
L 169.742241 84.402827 
L 170.491456 84.852631 
L 170.765193 85.020566 
L 171.119732 85.240974 
L 171.705317 85.612298 
L 172.144908 85.897103 
L 172.550003 86.164241 
L 173.013385 86.475413 
L 173.646231 86.910227 
L 173.944983 87.119515 
L 174.494583 87.511408 
L 175.066249 87.928681 
L 175.46361 88.224648 
L 176.042807 88.664954 
L 176.197722 88.784542 
L 176.677956 89.160242 
L 177.398104 89.738054 
L 177.607832 89.909659 
L 178.341142 90.521819 
L 178.526641 90.679724 
L 179.084292 91.162044 
L 179.870472 91.862012 
L 180.029092 92.006156 
L 180.461778 92.40447 
L 181.276633 93.175516 
L 181.673403 93.561194 
L 181.876394 93.761184 
L 182.360208 94.245319 
L 183.044766 94.948898 
L 183.283654 95.199717 
L 183.905214 95.865648 
L 184.570295 96.600372 
L 184.975301 97.059526 
L 185.171974 97.28581 
L 185.902358 98.145875 
L 186.063942 98.34048 
L 186.50394 98.878674 
L 186.943938 99.42938 
L 187.073221 99.593648 
L 187.48946 100.130353 
L 187.9057 100.679401 
L 188.203773 101.08047 
L 188.76801 101.858561 
L 189.088403 102.311894 
L 189.481177 102.879594 
L 189.882722 103.474218 
L 190.296392 104.102655 
L 190.710062 104.748087 
L 191.167053 105.482084 
L 191.445767 105.941172 
L 191.752433 106.456851 
L 192.266297 107.347218 
L 192.774823 108.26325 
L 193.056912 108.787564 
L 193.339001 109.324218 
L 193.567108 109.767679 
L 193.900524 110.432066 
L 194.23394 111.116964 
L 194.457481 111.58844 
L 194.681023 112.070395 
L 195.000171 112.777824 
L 195.199738 113.232522 
L 195.399306 113.697346 
L 195.598874 114.172886 
L 195.798442 114.659795 
L 196.030107 115.24024 
L 196.261772 115.838265 
L 196.516935 116.519049 
L 196.772099 117.225205 
L 197.015841 117.925902 
L 197.259583 118.654962 
L 197.462507 119.285945 
L 197.665432 119.941176 
L 197.832174 120.499637 
L 197.998917 121.078105 
L 198.147121 121.610758 
L 198.295325 122.162645 
L 198.39182 122.533286 
L 198.488315 122.913618 
L 198.58481 123.30439 
L 198.681305 123.706456 
L 198.7778 124.120794 
L 198.874295 124.548535 
L 198.97079 124.990994 
L 199.067285 125.449724 
L 199.200132 126.111352 
L 199.266555 126.456892 
L 199.332978 126.813449 
L 199.418666 127.291465 
L 199.504353 127.792456 
L 199.59004 128.319972 
L 199.675727 128.87859 
L 199.718109 129.168181 
L 199.760492 129.467751 
L 199.802874 129.778386 
L 199.845257 130.101382 
L 199.887639 130.438316 
L 199.930022 130.791127 
L 199.972404 131.162256 
L 200.014787 131.554846 
L 200.057169 131.973056 
L 200.099551 132.4226 
L 200.120743 132.661552 
L 200.141934 132.9117 
L 200.163125 133.174768 
L 200.184316 133.452976 
L 200.205508 133.749264 
L 200.226699 134.067668 
L 200.24789 134.414001 
L 200.269081 134.797181 
L 200.290272 135.232221 
L 200.311464 135.748392 
L 200.332655 136.421253 
L 200.353846 138.046154 
z
" clip-path="url(#p1c562630e0)" style="fill: #808080; opacity: 0.5"/>
   </g>
   <g id="patch_5">
    <path d="M 75.738462 138.046154 
L 75.738462 138.046154 
L 75.743384 137.262929 
L 75.748307 136.938528 
L 75.75323 136.689622 
L 75.758153 136.479797 
L 75.763076 136.294948 
L 75.767999 136.127842 
L 75.772922 135.974181 
L 75.777845 135.831165 
L 75.782767 135.69685 
L 75.78769 135.569819 
L 75.792613 135.449004 
L 75.797536 135.333572 
L 75.802459 135.222865 
L 75.807382 135.116347 
L 75.812305 135.013575 
L 75.817227 134.914182 
L 75.827073 134.724328 
L 75.836919 134.54478 
L 75.846765 134.374027 
L 75.85661 134.210894 
L 75.866456 134.054447 
L 75.876302 133.903928 
L 75.886148 133.758712 
L 75.895993 133.618278 
L 75.905671 133.484476 
L 75.915348 133.354507 
L 75.925026 133.228063 
L 75.934704 133.104873 
L 75.954059 132.867329 
L 75.973414 132.640283 
L 75.992769 132.422462 
L 76.012124 132.212834 
L 76.031479 132.010544 
L 76.050834 131.814877 
L 76.075099 131.57801 
L 76.099364 131.349604 
L 76.12363 131.12882 
L 76.147895 130.914951 
L 76.17216 130.707392 
L 76.196425 130.505623 
L 76.220691 130.309189 
L 76.244956 130.117695 
L 76.270177 129.92352 
L 76.295398 129.733956 
L 76.320618 129.548695 
L 76.345839 129.367461 
L 76.389319 129.063767 
L 76.432799 128.770213 
L 76.476279 128.485867 
L 76.51976 128.209929 
L 76.576427 127.861792 
L 76.633095 127.525473 
L 76.670528 127.309254 
L 76.70796 127.097432 
L 76.745393 126.889756 
L 76.782825 126.686 
L 76.821342 126.480215 
L 76.859859 126.278154 
L 76.898375 126.079629 
L 76.936892 125.884465 
L 76.983475 125.652696 
L 77.030058 125.425354 
L 77.076641 125.202204 
L 77.123224 124.983031 
L 77.185196 124.697283 
L 77.247168 124.417807 
L 77.316958 124.11011 
L 77.386749 123.809403 
L 77.456539 123.515253 
L 77.526329 123.227269 
L 77.596166 122.944912 
L 77.666003 122.668055 
L 77.747478 122.351625 
L 77.855934 121.940689 
L 77.96439 121.540694 
L 78.061495 121.191208 
L 78.1586 120.84937 
L 78.267665 120.473995 
L 78.349175 120.199048 
L 78.430685 119.928639 
L 78.509716 119.670598 
L 78.588747 119.416465 
L 78.73292 118.962422 
L 78.839162 118.635316 
L 78.945404 118.314204 
L 78.948363 118.305343 
L 79.02995 118.062755 
L 79.111537 117.823406 
L 79.261087 117.392718 
L 79.410636 116.971891 
L 79.450595 116.861042 
L 79.5826 116.499428 
L 79.714605 116.14458 
L 79.77752 115.97774 
L 79.908451 115.635083 
L 80.039383 115.298341 
L 80.064847 115.233513 
L 80.181237 114.93988 
L 80.297626 114.650511 
L 80.370111 114.472383 
L 80.489835 114.181562 
L 80.609559 113.894837 
L 80.753167 113.556112 
L 80.911316 113.189388 
L 81.012539 112.958003 
L 81.2289 112.471789 
L 81.354365 112.194856 
L 81.45491 111.975488 
L 81.588273 111.687925 
L 81.721637 111.404132 
L 81.823627 111.189571 
L 82.037031 110.747314 
L 82.232889 110.349078 
L 82.37219 110.070123 
L 82.518157 109.781511 
L 82.703902 109.419529 
L 82.765414 109.300923 
L 82.933846 108.9793 
L 83.112203 108.643611 
L 83.312891 108.271694 
L 83.397992 108.115787 
L 83.527852 107.879893 
L 83.715112 107.543918 
L 83.939663 107.147349 
L 84.087904 106.8892 
L 84.169877 106.747666 
L 84.280259 106.558425 
L 84.487803 106.206688 
L 84.72078 105.818013 
L 84.775521 105.727612 
L 85.043373 105.290181 
L 85.189685 105.054605 
L 85.263073 104.93732 
L 85.444171 104.650348 
L 85.553133 104.479335 
L 85.736302 104.194596 
L 85.836887 104.03967 
L 86.003572 103.785123 
L 86.229284 103.444702 
L 86.453095 103.111861 
L 86.555977 102.960399 
L 86.766087 102.654018 
L 86.880344 102.489038 
L 87.087307 102.193059 
L 87.108861 102.162443 
L 87.370718 101.793585 
L 87.477271 101.645102 
L 87.694248 101.345553 
L 87.857492 101.122628 
L 87.999142 100.930859 
L 88.175279 100.694522 
L 88.278114 100.557612 
L 88.486833 100.28212 
L 88.500079 100.264744 
L 88.746109 99.944262 
L 88.88866 99.760526 
L 89.092899 99.499722 
L 89.229518 99.326849 
L 89.432836 99.071882 
L 89.583024 98.885287 
L 89.742191 98.689126 
L 89.899181 98.497228 
L 89.921237 98.470392 
L 90.14491 98.199958 
L 90.373235 97.927065 
L 90.467287 97.815569 
L 90.588322 97.672861 
L 90.772967 97.456816 
L 90.871585 97.34224 
L 91.063418 97.120966 
L 91.170943 96.997852 
L 91.437876 96.695012 
L 91.616387 96.494676 
L 91.74985 96.346024 
L 91.871732 96.211105 
L 92.046564 96.018945 
L 92.143191 95.913429 
L 92.274673 95.770628 
L 92.509201 95.518111 
L 92.587841 95.434063 
L 92.840602 95.166011 
L 92.954077 95.046699 
L 93.046672 94.949807 
L 93.208143 94.781835 
L 93.506772 94.474466 
L 93.626732 94.352178 
L 93.816643 94.15995 
L 93.903319 94.072768 
L 94.037439 93.938541 
L 94.170845 93.805835 
L 94.376241 93.603075 
L 94.470901 93.51026 
L 94.64623 93.339386 
L 94.891146 93.102925 
L 94.934394 93.061438 
L 95.16442 92.842112 
L 95.324545 92.69075 
L 95.455322 92.567922 
L 95.664829 92.372618 
L 95.721404 92.320186 
L 95.918615 92.138431 
L 96.025797 92.040305 
L 96.169007 91.909909 
L 96.415187 91.687647 
L 96.626132 91.499077 
L 96.731047 91.405931 
L 96.8077 91.338141 
L 96.988556 91.179085 
L 97.196002 90.998161 
L 97.282744 90.922986 
L 97.450168 90.778676 
L 97.673706 90.587603 
L 97.856836 90.432424 
L 97.902935 90.393552 
L 98.075462 90.248745 
L 98.2442 90.108142 
L 98.392262 89.985594 
L 98.622306 89.796711 
L 98.816661 89.638557 
L 98.932103 89.545231 
L 99.075109 89.430249 
L 99.176824 89.348888 
L 99.355733 89.206622 
L 99.58675 89.024497 
L 99.742876 88.902412 
L 99.845038 88.822955 
L 100.004535 88.699586 
L 100.226411 88.529333 
L 100.388157 88.406212 
L 100.545308 88.287385 
L 100.686976 88.180932 
L 100.803788 88.09363 
L 101.015999 87.936114 
L 101.042032 87.916886 
L 101.204139 87.797627 
L 101.489062 87.58996 
L 101.556953 87.54084 
L 101.729141 87.416883 
L 101.807789 87.36056 
L 102.079623 87.167306 
L 102.2075 87.07715 
L 102.295322 87.01551 
L 102.522946 86.856797 
L 102.692432 86.739596 
L 102.850896 86.630764 
L 102.981982 86.541277 
L 103.207021 86.388789 
L 103.225637 86.376238 
L 103.472163 86.210957 
L 103.593061 86.130522 
L 103.71397 86.050484 
L 103.974466 85.879415 
L 104.071436 85.81621 
L 104.200728 85.732334 
L 104.322569 85.653709 
L 104.55986 85.501729 
L 104.677575 85.426895 
L 104.869992 85.305365 
L 104.996679 85.225886 
L 105.128093 85.143888 
L 105.260289 85.061858 
L 105.4896 84.920649 
L 105.600763 84.852685 
L 105.873654 84.687192 
L 105.950091 84.64118 
L 106.040692 84.586833 
L 106.241083 84.467371 
L 106.459932 84.338062 
L 106.581909 84.266512 
L 106.682309 84.207898 
L 106.892308 84.086109 
L 106.892308 138.046154 
z
" clip-path="url(#p1c562630e0)" style="fill: #808080; opacity: 0.5"/>
   </g>
   <g id="patch_6">
    <path d="M 75.738462 138.046154 
L 75.738462 138.046154 
L 75.742877 138.787938 
L 75.747293 139.095177 
L 75.751709 139.330917 
L 75.756124 139.529644 
L 75.76054 139.704717 
L 75.764956 139.862986 
L 75.769371 140.008523 
L 75.773787 140.143977 
L 75.778203 140.271192 
L 75.782619 140.391508 
L 75.787034 140.505939 
L 75.79145 140.61527 
L 75.795866 140.720127 
L 75.800281 140.821018 
L 75.804697 140.91836 
L 75.809113 141.012503 
L 75.817944 141.192331 
L 75.826775 141.362398 
L 75.835607 141.524137 
L 75.844438 141.67866 
L 75.85327 141.826852 
L 75.862101 141.96943 
L 75.870932 142.106987 
L 75.879764 142.240015 
L 75.891495 142.410436 
L 75.903227 142.574416 
L 75.914959 142.732633 
L 75.92669 142.885652 
L 75.938422 143.033951 
L 75.950153 143.17794 
L 75.961885 143.317971 
L 75.973616 143.454352 
L 75.985348 143.587353 
L 75.997079 143.717211 
L 76.020543 143.968321 
L 76.044006 144.20912 
L 76.067469 144.440771 
L 76.083321 144.592589 
L 76.099172 144.740928 
L 76.130876 145.02805 
L 76.162579 145.303683 
L 76.194283 145.569091 
L 76.232043 145.873302 
L 76.269804 146.165949 
L 76.307564 146.448239 
L 76.345324 146.721184 
L 76.379551 146.961229 
L 76.413777 147.19485 
L 76.448003 147.422527 
L 76.48223 147.644683 
L 76.529072 147.940454 
L 76.575915 148.227421 
L 76.622757 148.506309 
L 76.669599 148.777747 
L 76.726096 149.095994 
L 76.782592 149.405048 
L 76.847689 149.750702 
L 76.912787 150.086086 
L 76.957243 150.309658 
L 77.0017 150.529068 
L 77.046156 150.744532 
L 77.090613 150.956247 
L 77.140254 151.188449 
L 77.189896 151.416434 
L 77.239537 151.640414 
L 77.289179 151.860586 
L 77.349254 152.122192 
L 77.409329 152.378772 
L 77.462354 152.601279 
L 77.515379 152.820245 
L 77.568404 153.035825 
L 77.621429 153.248164 
L 77.713583 153.609876 
L 77.805738 153.962837 
L 77.880387 154.242727 
L 77.955036 154.517524 
L 78.047908 154.85267 
L 78.115798 155.093175 
L 78.183688 155.330068 
L 78.251578 155.563495 
L 78.319468 155.793592 
L 78.415767 156.11451 
L 78.482953 156.334773 
L 78.576761 156.637544 
L 78.670568 156.934996 
L 78.764053 157.22638 
L 78.857538 157.512954 
L 79.000957 157.943723 
L 79.135978 158.339989 
L 79.253371 158.677615 
L 79.370763 159.009146 
L 79.487898 159.334161 
L 79.576015 159.575005 
L 79.684942 159.868561 
L 79.793868 160.157683 
L 79.934354 160.524305 
L 80.064598 160.858163 
L 80.194842 161.186471 
L 80.35303 161.57809 
L 80.418274 161.737418 
L 80.536472 162.022913 
L 80.66553 162.330151 
L 80.794588 162.632873 
L 80.850077 162.761681 
L 81.029737 163.173365 
L 81.160452 163.467906 
L 81.291167 163.758408 
L 81.329339 163.842499 
L 81.452021 164.110548 
L 81.574704 164.375298 
L 81.71755 164.679534 
L 81.798614 164.850311 
L 81.932134 165.128719 
L 82.171969 165.620127 
L 82.266165 165.810184 
L 82.431853 166.140602 
L 82.68733 166.640719 
L 82.751564 166.764733 
L 82.943778 167.131832 
L 83.066937 167.363969 
L 83.318127 167.830236 
L 83.457393 168.084723 
L 83.610015 168.36043 
L 83.668813 168.465774 
L 83.850193 168.78776 
L 84.037029 169.114835 
L 84.223723 169.437147 
L 84.282746 169.538128 
L 84.494064 169.896149 
L 84.622061 170.110383 
L 84.839317 170.469618 
L 85.022636 170.768547 
L 85.124017 170.932259 
L 85.341519 171.279721 
L 85.506364 171.53972 
L 85.677058 171.805987 
L 85.729279 171.886857 
L 85.95216 172.228961 
L 86.12529 172.491363 
L 86.181786 172.57637 
L 86.369745 172.857033 
L 86.578552 173.165016 
L 86.688632 173.325801 
L 86.904358 173.637799 
L 86.986457 173.755479 
L 87.190047 174.044833 
L 87.267757 174.154366 
L 87.402338 174.342881 
L 87.604799 174.623718 
L 87.845794 174.953774 
L 87.959345 175.107725 
L 88.101853 175.299548 
L 88.285965 175.545115 
L 88.396498 175.691342 
L 88.568887 175.917628 
L 88.71827 176.111997 
L 88.839388 176.268434 
L 89.054734 176.544066 
L 89.246516 176.78688 
L 89.378694 176.952796 
L 89.461706 177.056409 
L 89.60238 177.230964 
L 89.874996 177.565618 
L 89.92124 177.62192 
L 90.162803 177.913851 
L 90.225816 177.989411 
L 90.443729 178.248862 
L 90.621454 178.45836 
L 90.777056 178.640253 
L 90.978696 178.873877 
L 91.153196 179.074181 
L 91.239478 179.172589 
L 91.358796 179.30799 
L 91.581393 179.558495 
L 91.721297 179.714561 
L 91.847699 179.854661 
L 91.943896 179.960714 
L 92.221864 180.264431 
L 92.276213 180.323346 
L 92.54204 180.609332 
L 92.632465 180.705799 
L 92.730103 180.809504 
L 92.906339 180.995492 
L 93.049519 181.145473 
L 93.306727 181.412411 
L 93.396821 181.505164 
L 93.579521 181.692083 
L 93.783296 181.898725 
L 93.866652 181.982701 
L 94.053821 182.170106 
L 94.215728 182.330941 
L 94.404237 182.516724 
L 94.564524 182.673459 
L 94.68218 182.787793 
L 94.827931 182.928598 
L 94.970848 183.065778 
L 95.155477 183.24171 
L 95.311104 183.388894 
L 95.42777 183.498567 
L 95.687289 183.74052 
L 95.804737 183.849115 
L 95.943335 183.976549 
L 96.102249 184.121715 
L 96.25912 184.264032 
L 96.474794 184.45812 
L 96.531372 184.508735 
L 96.677841 184.639192 
L 96.938219 184.869078 
L 97.022894 184.943282 
L 97.171795 185.073117 
L 97.281501 185.168246 
L 97.522775 185.375894 
L 97.609035 185.449613 
L 97.764963 185.582184 
L 97.915221 185.709103 
L 98.121288 185.881848 
L 98.313692 186.041778 
L 98.368765 186.087317 
L 98.521863 186.213352 
L 98.749871 186.399548 
L 98.865452 186.49325 
L 99.09886 186.681088 
L 99.222239 186.779635 
L 99.365338 186.893293 
L 99.47815 186.982414 
L 99.757852 187.201565 
L 99.884232 187.299745 
L 100.022937 187.406902 
L 100.088084 187.457018 
L 100.298804 187.618184 
L 100.50235 187.772518 
L 100.571687 187.824792 
L 100.854063 188.036122 
L 100.954132 188.110417 
L 101.027085 188.164385 
L 101.205369 188.295583 
L 101.349794 188.40115 
L 101.556809 188.551364 
L 101.69892 188.653734 
L 101.84623 188.75921 
L 102.04571 188.901011 
L 102.150713 188.975181 
L 102.376984 189.13391 
L 102.532655 189.242247 
L 102.683952 189.346868 
L 102.757511 189.397495 
L 102.947479 189.527525 
L 103.175974 189.682566 
L 103.302266 189.767627 
L 103.429145 189.852632 
L 103.575836 189.950351 
L 103.691125 190.026732 
L 103.944123 190.193062 
L 104.102835 190.296509 
L 104.24571 190.389047 
L 104.389465 190.481598 
L 104.568288 190.595949 
L 104.758366 190.71656 
L 104.840063 190.768104 
L 104.949762 190.837037 
L 105.184773 190.983647 
L 105.339258 191.079233 
L 105.409663 191.122589 
L 105.635079 191.260539 
L 105.738729 191.32353 
L 105.943931 191.447426 
L 106.156614 191.574705 
L 106.237576 191.622855 
L 106.352156 191.690716 
L 106.622874 191.849741 
L 106.798954 191.952193 
L 106.892308 192.006198 
L 106.892308 138.046154 
z
" clip-path="url(#p1c562630e0)" style="fill: #808080; opacity: 0.5"/>
   </g>
   <g id="patch_7">
    <path d="M 200.353846 138.046154 
L 200.33889 139.411284 
L 200.323933 139.976624 
L 200.308977 140.410345 
L 200.29402 140.775923 
L 200.279064 141.097946 
L 200.264107 141.389023 
L 200.249151 141.656649 
L 200.234194 141.905704 
L 200.219238 142.139579 
L 200.204282 142.360743 
L 200.189325 142.571061 
L 200.174369 142.771982 
L 200.144456 143.150018 
L 200.114543 143.501758 
L 200.08463 143.832 
L 200.054717 144.144237 
L 200.024804 144.441108 
L 199.994891 144.724662 
L 199.964978 144.996529 
L 199.935065 145.25803 
L 199.875239 145.754117 
L 199.813755 146.23224 
L 199.75227 146.6835 
L 199.690785 147.111909 
L 199.629301 147.520569 
L 199.567816 147.911933 
L 199.506331 148.287985 
L 199.444847 148.650353 
L 199.383362 149.000396 
L 199.319628 149.351456 
L 199.255895 149.691589 
L 199.128427 150.342673 
L 199.00096 150.959718 
L 198.873493 151.54739 
L 198.72084 152.217639 
L 198.568187 152.856015 
L 198.415535 153.466477 
L 198.262882 154.05222 
L 198.183052 154.349591 
L 198.016626 154.951509 
L 197.8502 155.531136 
L 197.683774 156.09062 
L 197.517348 156.631781 
L 197.27545 157.388828 
L 197.09048 157.946305 
L 196.905511 158.486912 
L 196.720542 159.011953 
L 196.535572 159.52257 
L 196.330234 160.073738 
L 196.124897 160.609579 
L 195.794173 161.443052 
L 195.487433 162.186327 
L 195.180694 162.903604 
L 194.969216 163.38414 
L 194.757738 163.853998 
L 194.472418 164.471998 
L 194.128942 165.193335 
L 193.785465 165.891758 
L 193.402341 166.645823 
L 193.064265 167.290914 
L 192.774183 167.830233 
L 192.484101 168.357182 
L 192.091539 169.051716 
L 191.698977 169.726165 
L 191.562955 169.955409 
L 191.16174 170.618888 
L 190.760526 171.264274 
L 190.318262 171.955964 
L 190.098401 172.292497 
L 189.720334 172.860341 
L 189.342267 173.415029 
L 188.885 174.069205 
L 188.492763 174.616471 
L 188.355743 174.804741 
L 187.79172 175.564511 
L 187.433522 176.034788 
L 186.981033 176.61591 
L 186.528544 177.183174 
L 186.484925 177.237148 
L 185.889187 177.962225 
L 185.390286 178.552717 
L 184.698302 179.347795 
L 184.382151 179.702172 
L 183.881804 180.252098 
L 183.419326 180.748892 
L 183.156535 181.026406 
L 182.592103 181.611127 
L 181.990531 182.217867 
L 181.355636 182.840543 
L 181.109598 183.077125 
L 180.723904 183.44283 
L 180.079487 184.040147 
L 179.673163 184.408214 
L 179.259441 184.776374 
L 178.829906 185.151717 
L 178.290498 185.613383 
L 177.937333 185.909943 
L 177.247441 186.476595 
L 177.026551 186.65456 
L 176.611571 186.984453 
L 175.984206 187.472389 
L 175.506479 187.835435 
L 174.76855 188.382166 
L 174.689544 188.43971 
L 174.191813 188.797901 
L 173.810568 189.067279 
L 173.181371 189.502592 
L 172.764917 189.784496 
L 172.202787 190.157314 
L 171.474836 190.627251 
L 171.194288 190.804563 
L 170.608484 191.168119 
L 170.289153 191.362544 
L 169.610228 191.767265 
L 169.504795 191.829073 
L 168.681302 192.302363 
L 168.615396 192.339523 
L 167.822632 192.778319 
L 167.4384 192.985615 
L 167.156101 193.135713 
L 166.519335 193.467508 
L 165.934341 193.764172 
L 165.718437 193.871715 
L 165.146928 194.151382 
L 164.835525 194.300737 
L 164.113574 194.638893 
L 163.590951 194.876708 
L 163.469565 194.931114 
L 162.941823 195.164051 
L 162.390687 195.401121 
L 162.052877 195.543334 
L 161.403769 195.810073 
L 160.910838 196.006957 
L 160.541093 196.151457 
L 160.16276 196.296512 
L 159.593617 196.509436 
L 158.815984 196.790198 
L 158.387941 196.939789 
L 158.073478 197.047466 
L 157.833832 197.128269 
L 157.148833 197.353288 
L 156.66546 197.506813 
L 156.09334 197.682951 
L 155.686377 197.804593 
L 155.068288 197.983583 
L 154.642832 198.102784 
L 154.444048 198.157364 
L 153.986052 198.280431 
L 153.22731 198.476122 
L 152.893194 198.559078 
L 152.437229 198.669132 
L 151.974824 198.777041 
L 151.519784 198.879613 
L 151.190732 198.951561 
L 150.51361 199.093767 
L 150.312201 199.134554 
L 149.780626 199.238888 
L 149.143575 199.357619 
L 148.569361 199.45878 
L 148.271098 199.509143 
L 147.97946 199.556949 
L 147.330608 199.658226 
L 146.943578 199.715306 
L 146.274589 199.808127 
L 145.995656 199.844648 
L 145.267467 199.933965 
L 145.165069 199.945827 
L 144.498118 200.018895 
L 144.123086 200.056793 
L 143.51605 200.113285 
L 143.032347 200.154015 
L 142.39033 200.202221 
L 142.185474 200.216199 
L 141.71637 200.245656 
L 141.371153 200.265065 
L 140.527173 200.304431 
L 140.244719 200.315045 
L 139.590294 200.334709 
L 139.482289 200.337293 
L 138.712399 200.350284 
L 138.514771 200.352084 
L 137.807021 200.353387 
L 137.227087 200.348462 
L 137.177149 200.347786 
L 136.261561 200.328284 
L 136.215887 200.326959 
L 135.647979 200.307677 
L 135.082784 200.283337 
L 134.539636 200.255099 
L 134.087645 200.227974 
L 133.666769 200.19975 
L 133.274272 200.170848 
L 132.548554 200.110837 
L 132.237845 200.082531 
L 131.686307 200.028416 
L 131.422492 200.000779 
L 131.05483 199.960368 
L 130.240606 199.862996 
L 129.906808 199.819931 
L 129.280776 199.734213 
L 128.830517 199.668557 
L 128.583081 199.631045 
L 128.193433 199.569909 
L 127.369954 199.432368 
L 127.08699 199.382483 
L 126.719231 199.315635 
L 126.006612 199.179598 
L 125.621997 199.102594 
L 125.12685 198.999744 
L 124.670711 198.901277 
L 124.364911 198.833259 
L 123.790441 198.701106 
L 123.463083 198.623233 
L 122.650599 198.421856 
L 122.411583 198.360404 
L 121.881819 198.22059 
L 121.450852 198.103164 
L 121.032612 197.986023 
L 120.702205 197.891254 
L 119.938172 197.664519 
L 119.435122 197.509403 
L 119.2861 197.462557 
L 118.514687 197.213462 
L 118.061081 197.061791 
L 117.904371 197.00849 
L 117.343523 196.813914 
L 116.952092 196.674552 
L 116.500605 196.510142 
L 115.69941 196.208612 
L 115.372643 196.082008 
L 115.097783 195.973874 
L 114.372913 195.68144 
L 114.131292 195.581603 
L 113.314814 195.235395 
L 112.801152 195.010515 
L 112.610988 194.925859 
L 111.888163 194.597087 
L 111.526604 194.428438 
L 111.322325 194.331903 
L 110.45479 193.911753 
L 110.000544 193.6851 
L 109.53289 193.446897 
L 109.302051 193.32748 
L 109.001168 193.16999 
L 108.205526 192.74337 
L 107.902233 192.576811 
L 107.549326 192.380231 
L 106.892308 192.006198 
L 106.892308 200.353846 
L 106.904564 201.589613 
L 106.916819 202.101398 
L 106.929075 202.494046 
L 106.941331 202.825015 
L 106.953587 203.116561 
L 106.965843 203.3801 
L 106.978099 203.622413 
L 106.990355 203.847919 
L 107.00261 204.059687 
L 107.014866 204.259953 
L 107.039378 204.632351 
L 107.06389 204.974705 
L 107.088402 205.293265 
L 107.112913 205.592375 
L 107.137425 205.875196 
L 107.161937 206.144116 
L 107.186448 206.40099 
L 107.235472 206.88422 
L 107.284495 207.333732 
L 107.326055 207.693021 
L 107.367615 208.035298 
L 107.409175 208.362746 
L 107.450735 208.677114 
L 107.492295 208.979832 
L 107.533855 209.272088 
L 107.616974 209.829049 
L 107.66846 210.15783 
L 107.719946 210.475676 
L 107.822917 211.082415 
L 107.925888 211.655693 
L 108.028859 212.200368 
L 108.131831 212.72022 
L 108.234802 213.21826 
L 108.337773 213.696929 
L 108.440744 214.158243 
L 108.590605 214.802023 
L 108.740466 215.416824 
L 108.860652 215.891271 
L 108.980837 216.350751 
L 109.101023 216.796518 
L 109.221208 217.229659 
L 109.372341 217.757861 
L 109.523474 218.269223 
L 109.674606 218.765147 
L 109.825739 219.246851 
L 110.018985 219.843742 
L 110.212232 220.421027 
L 110.420247 221.0224 
L 110.657933 221.68633 
L 110.895619 222.327641 
L 111.073363 222.793602 
L 111.251108 223.248702 
L 111.428852 223.693577 
L 111.606597 224.1288 
L 111.887276 224.797663 
L 112.167955 225.445566 
L 112.439434 226.05378 
L 112.833272 226.906446 
L 113.227111 227.726903 
L 113.446822 228.171677 
L 113.748221 228.767728 
L 114.049619 229.348398 
L 114.473279 230.140328 
L 114.847951 230.818633 
L 115.118653 231.296639 
L 115.489755 231.936406 
L 115.860857 232.559193 
L 116.275925 233.236832 
L 116.723857 233.947043 
L 117.067652 234.478131 
L 117.411447 234.997667 
L 117.794882 235.564105 
L 118.090138 235.991333 
L 118.730804 236.892987 
L 119.004087 237.267514 
L 119.582706 238.041678 
L 120.25602 238.912054 
L 120.307556 238.977381 
L 121.037112 239.883388 
L 121.402394 240.324303 
L 122.002781 241.031494 
L 122.374298 241.458617 
L 122.793762 241.9316 
L 123.488498 242.694218 
L 123.732865 242.956524 
L 124.481673 243.741861 
L 124.551037 243.813236 
L 125.097098 244.367282 
L 125.705248 244.968363 
L 125.942714 245.198642 
L 126.769844 245.982022 
L 127.161377 246.343005 
L 127.730416 246.856772 
L 128.034141 247.125853 
L 128.647413 247.658562 
L 128.906902 247.879784 
L 129.460943 248.344011 
L 129.798813 248.621796 
L 130.58667 249.25435 
L 130.879972 249.484529 
L 131.124772 249.674486 
L 131.885067 250.252186 
L 132.480329 250.691847 
L 132.574546 250.760439 
L 132.989102 251.059066 
L 133.863176 251.672043 
L 134.122202 251.849444 
L 134.547135 252.136348 
L 134.862046 252.345706 
L 135.438662 252.721972 
L 135.92046 253.029464 
L 136.602354 253.454148 
L 136.920107 253.647908 
L 137.348117 253.904813 
L 137.94901 254.257688 
L 138.288297 254.452969 
L 139.00091 254.85397 
L 139.141422 254.931593 
L 139.78557 255.281434 
L 140.196316 255.499425 
L 140.668187 255.745039 
L 141.240856 256.036292 
L 141.694506 256.261773 
L 142.172931 256.494616 
L 142.563907 256.681167 
L 142.969982 256.871407 
L 143.613732 257.165741 
L 144.103781 257.383911 
L 144.343589 257.488839 
L 144.993837 257.767348 
L 145.525862 257.988764 
L 145.682748 258.052957 
L 146.452684 258.360812 
L 146.609009 258.421872 
L 147.20102 258.648729 
L 147.732005 258.846356 
L 148.068636 258.96881 
L 148.724964 259.201288 
L 149.200669 259.364652 
L 149.766163 259.553293 
L 150.104217 259.663201 
L 150.360529 259.745115 
L 150.813853 259.887014 
L 151.499841 260.09456 
L 152.042836 260.252763 
L 152.290166 260.323055 
L 153.051295 260.532479 
L 153.432846 260.633572 
L 154.042617 260.789781 
L 154.226621 260.835632 
L 154.805168 260.975932 
L 155.31122 261.093868 
L 155.804539 261.204566 
L 156.182763 261.286597 
L 156.645386 261.383595 
L 157.201802 261.495418 
L 157.511184 261.555318 
L 157.889637 261.626387 
L 158.353406 261.710182 
L 158.794025 261.786445 
L 159.527676 261.90622 
L 159.957829 261.972275 
L 160.575939 262.06182 
L 160.822349 262.095756 
L 161.142073 262.138297 
L 161.652498 262.202724 
L 162.247315 262.272411 
L 162.597321 262.310711 
L 163.27353 262.379046 
L 163.871018 262.433235 
L 164.390081 262.475607 
L 164.862324 262.510367 
L 165.134802 262.528782 
L 165.691611 262.562686 
L 165.937139 262.576047 
L 166.400947 262.598636 
L 167.18162 262.628838 
L 167.486498 262.637973 
L 167.838531 262.646662 
L 168.30422 262.655099 
L 168.940429 262.660998 
L 169.447895 262.661045 
L 169.705004 262.659492 
L 170.292241 262.651964 
L 170.555121 262.646801 
L 171.400021 262.622686 
L 171.911073 262.60253 
L 172.322216 262.583263 
L 172.567594 262.570466 
L 173.010965 262.544883 
L 173.511689 262.512175 
L 174.057448 262.471909 
L 174.436512 262.441103 
L 175.064727 262.384915 
L 175.246202 262.367489 
L 175.866548 262.303872 
L 176.331549 262.252065 
L 176.981525 262.173717 
L 177.248435 262.139534 
L 177.583694 262.094936 
L 178.367571 261.983418 
L 178.795948 261.918173 
L 179.206257 261.852816 
L 179.484815 261.806845 
L 180.163002 261.689489 
L 180.825004 261.56747 
L 180.880104 261.556981 
L 181.605926 261.413993 
L 182.269001 261.275515 
L 182.551622 261.2142 
L 183.063773 261.099581 
L 183.631246 260.967274 
L 183.997172 260.878983 
L 184.376562 260.784968 
L 184.950344 260.637967 
L 185.497502 260.492353 
L 185.923388 260.375316 
L 186.051733 260.339408 
L 186.545078 260.198619 
L 187.210797 260.001643 
L 187.464215 259.924535 
L 188.299907 259.661873 
L 188.610833 259.56084 
L 189.134299 259.386653 
L 189.610608 259.223665 
L 190.074755 259.060687 
L 190.440317 258.929417 
L 190.73298 258.822464 
L 191.501456 258.533684 
L 192.132713 258.287767 
L 192.264708 258.235344 
L 192.756342 258.037009 
L 193.150105 257.874634 
L 193.928867 257.544157 
L 194.226355 257.414604 
L 194.662647 257.221254 
L 195.363094 256.902419 
L 195.705625 256.742678 
L 196.358824 256.430997 
L 196.770719 256.229637 
L 197.115362 256.058254 
L 197.729074 255.746449 
L 198.163798 255.520384 
L 198.434703 255.377302 
L 198.887408 255.134375 
L 199.572536 254.7575 
L 199.923583 254.560026 
L 200.353846 254.313891 
z
" clip-path="url(#p1c562630e0)" style="fill: #808080; opacity: 0.5"/>
   </g>
   <g id="patch_8">
    <path d="M 231.507692 200.353846 
L 231.503847 199.661625 
L 231.500002 199.374913 
L 231.496156 199.154921 
L 231.492311 198.969469 
L 231.488466 198.806089 
L 231.48462 198.658389 
L 231.480775 198.522571 
L 231.47693 198.396161 
L 231.473085 198.27744 
L 231.469239 198.165156 
L 231.465394 198.058364 
L 231.461549 197.95633 
L 231.457703 197.85847 
L 231.453858 197.764312 
L 231.446167 197.585604 
L 231.438477 197.417772 
L 231.430786 197.259048 
L 231.423096 197.108095 
L 231.415405 196.963874 
L 231.407714 196.82556 
L 231.400024 196.692484 
L 231.392333 196.564093 
L 231.384642 196.439927 
L 231.370385 196.219629 
L 231.356128 196.010537 
L 231.34187 195.811104 
L 231.327613 195.620108 
L 231.313355 195.436567 
L 231.299098 195.259674 
L 231.28484 195.088759 
L 231.270583 194.923259 
L 231.256325 194.762691 
L 231.242068 194.606643 
L 231.22781 194.454756 
L 231.213553 194.306716 
L 231.199295 194.162248 
L 231.185038 194.021106 
L 231.156523 193.747956 
L 231.133854 193.538695 
L 231.111184 193.335744 
L 231.088515 193.13857 
L 231.065846 192.946712 
L 231.043177 192.759768 
L 231.020507 192.577382 
L 230.997838 192.399242 
L 230.975169 192.225068 
L 230.956291 192.082871 
L 230.920596 191.820581 
L 230.8849 191.566262 
L 230.849204 191.319239 
L 230.813509 191.07893 
L 230.777813 190.844826 
L 230.742117 190.61648 
L 230.706422 190.393495 
L 230.670726 190.175519 
L 230.636994 189.973854 
L 230.603263 189.776141 
L 230.569531 189.582162 
L 230.535799 189.391718 
L 230.487754 189.126211 
L 230.439708 188.86704 
L 230.371397 188.508647 
L 230.303086 188.161167 
L 230.246181 187.879378 
L 230.189275 187.604069 
L 230.13237 187.334829 
L 230.075465 187.07129 
L 230.007082 186.761668 
L 229.938699 186.459281 
L 229.861066 186.124174 
L 229.783433 185.797193 
L 229.692887 185.42538 
L 229.602342 185.063141 
L 229.507018 184.691404 
L 229.427371 184.387874 
L 229.347724 184.090398 
L 229.285328 183.861367 
L 229.222932 183.635707 
L 229.150526 183.377893 
L 229.07812 183.12424 
L 229.005713 182.874568 
L 228.933307 182.628708 
L 228.906513 182.538662 
L 228.807881 182.211381 
L 228.709248 181.890426 
L 228.617429 181.597044 
L 228.52561 181.308623 
L 228.40844 180.947426 
L 228.292898 180.598393 
L 228.177355 180.256084 
L 228.035808 179.845405 
L 227.948241 179.59589 
L 227.860673 179.349704 
L 227.689772 178.878392 
L 227.627381 178.709223 
L 227.508787 178.391744 
L 227.390192 178.07942 
L 227.312857 177.878429 
L 227.140902 177.438778 
L 227.033968 177.170217 
L 226.927033 176.905219 
L 226.843384 176.700332 
L 226.670759 176.283941 
L 226.469118 175.808039 
L 226.315815 175.453401 
L 226.238735 175.277339 
L 226.098954 174.961769 
L 225.959172 174.650833 
L 225.885236 174.488183 
L 225.72931 174.149158 
L 225.546738 173.758853 
L 225.412895 173.47711 
L 225.191626 173.019136 
L 225.013451 172.657146 
L 224.983483 172.596837 
L 224.846992 172.324204 
L 224.595133 171.829686 
L 224.49587 171.637731 
L 224.372928 171.402223 
L 224.099676 170.887355 
L 224.037911 170.772568 
L 223.77049 170.282097 
L 223.630841 170.030059 
L 223.510647 169.815311 
L 223.391398 169.604198 
L 223.234723 169.329706 
L 223.064165 169.03452 
L 222.847536 168.664883 
L 222.71071 168.434378 
L 222.603975 168.25612 
L 222.438022 167.981612 
L 222.225178 167.634142 
L 222.084959 167.407987 
L 221.908677 167.12669 
L 221.803797 166.960897 
L 221.599833 166.64174 
L 221.486671 166.466496 
L 221.277518 166.145943 
L 221.168003 165.979798 
L 221.095408 165.870297 
L 220.920134 165.607965 
L 220.759908 165.370644 
L 220.527721 165.030857 
L 220.322065 164.733865 
L 220.174143 164.522501 
L 220.140822 164.475145 
L 219.87554 164.101423 
L 219.817379 164.020261 
L 219.676954 163.825424 
L 219.401293 163.447496 
L 219.266708 163.265125 
L 219.12296 163.071859 
L 218.922873 162.805419 
L 218.870156 162.73571 
L 218.723261 162.542536 
L 218.459987 162.200181 
L 218.34787 162.055865 
L 218.244595 161.923699 
L 218.054493 161.682318 
L 217.810926 161.376592 
L 217.721794 161.26569 
L 217.609921 161.127222 
L 217.355227 160.814971 
L 217.222992 160.654467 
L 217.085317 160.488511 
L 216.943611 160.31891 
L 216.774643 160.118266 
L 216.649999 159.971349 
L 216.495504 159.790515 
L 216.359109 159.632022 
L 216.117973 159.354428 
L 216.063304 159.291951 
L 215.776565 158.966987 
L 215.675995 158.854082 
L 215.583019 158.750192 
L 215.388858 158.534737 
L 215.219948 158.348931 
L 215.128647 158.249121 
L 214.884566 157.984412 
L 214.785775 157.87814 
L 214.631103 157.712747 
L 214.366737 157.432821 
L 214.232136 157.291621 
L 214.112865 157.167239 
L 214.040074 157.091665 
L 213.801815 156.84607 
L 213.727045 156.769551 
L 213.521278 156.560321 
L 213.420475 156.458538 
L 213.117186 156.155098 
L 213.02959 156.068232 
L 212.91739 155.957469 
L 212.752954 155.796145 
L 212.559311 155.607688 
L 212.468077 155.519462 
L 212.193958 155.256528 
L 212.024025 155.09513 
L 211.901649 154.97965 
L 211.775832 154.861572 
L 211.685637 154.777326 
L 211.527536 154.630458 
L 211.327722 154.446292 
L 211.231699 154.358359 
L 211.024889 154.170221 
L 210.831477 153.995798 
L 210.724241 153.899719 
L 210.53989 153.735587 
L 210.37183 153.587095 
L 210.218783 153.452802 
L 209.988646 153.252521 
L 209.931279 153.202903 
L 209.699684 153.003829 
L 209.587161 152.907817 
L 209.384937 152.736419 
L 209.266963 152.637109 
L 209.096532 152.494518 
L 209.022985 152.433304 
L 208.818384 152.264012 
L 208.670269 152.142371 
L 208.444716 151.958591 
L 208.404165 151.925735 
L 208.115357 151.693354 
L 208.027774 151.62344 
L 207.837206 151.472205 
L 207.656223 151.329695 
L 207.549471 151.246142 
L 207.439817 151.160707 
L 207.2637 151.024309 
L 207.069111 150.87477 
L 206.946473 150.781149 
L 206.780906 150.655516 
L 206.597049 150.51702 
L 206.409446 150.376795 
L 206.33502 150.321469 
L 206.124593 150.165969 
L 205.987583 150.065456 
L 205.904953 150.005113 
L 205.618494 149.797523 
L 205.530495 149.734249 
L 205.412087 149.649475 
L 205.283553 149.557924 
L 204.97365 149.339196 
L 204.911395 149.295597 
L 204.66213 149.122158 
L 204.642934 149.108876 
L 204.461299 148.983725 
L 204.309578 148.87991 
L 204.066727 148.715102 
L 203.955963 148.640486 
L 203.753696 148.505118 
L 203.623615 148.418663 
L 203.547586 148.368349 
L 203.268378 148.184946 
L 203.208454 148.145863 
L 203.01476 148.0202 
L 202.805861 147.885812 
L 202.641866 147.781134 
L 202.478014 147.677264 
L 202.440474 147.653567 
L 202.233459 147.523561 
L 202.028098 147.395707 
L 201.884651 147.307054 
L 201.768925 147.235924 
L 201.621336 147.145712 
L 201.454985 147.044706 
L 201.264098 146.929674 
L 201.102703 146.833139 
L 200.931359 146.731375 
L 200.828172 146.670448 
L 200.644975 146.562935 
L 200.437209 146.442017 
L 200.353846 146.393802 
L 200.353846 254.313891 
L 200.583807 254.180467 
L 200.629565 254.153762 
L 200.893126 253.998923 
L 200.984169 253.945031 
L 201.138012 253.85349 
L 201.307349 253.752036 
L 201.430353 253.677882 
L 201.605982 253.571332 
L 201.746567 253.48547 
L 201.8501 253.421911 
L 202.015386 253.319863 
L 202.297936 253.143762 
L 202.46022 253.041666 
L 202.56045 252.97826 
L 202.699632 252.889769 
L 202.901085 252.760767 
L 203.001662 252.695953 
L 203.15232 252.598353 
L 203.273777 252.51922 
L 203.47424 252.387729 
L 203.700721 252.237839 
L 203.793939 252.175732 
L 203.951463 252.070229 
L 204.144902 251.93972 
L 204.321151 251.819886 
L 204.490862 251.703662 
L 204.568072 251.650513 
L 204.796813 251.492046 
L 204.906009 251.415862 
L 205.013851 251.340282 
L 205.270659 251.158925 
L 205.436512 251.040765 
L 205.577262 250.939846 
L 205.610502 250.915925 
L 205.840662 250.749386 
L 205.992846 250.638387 
L 206.151078 250.522226 
L 206.243833 250.453776 
L 206.509999 250.255875 
L 206.627692 250.167664 
L 206.765589 250.063755 
L 206.888772 249.970426 
L 207.123162 249.791507 
L 207.283066 249.668434 
L 207.328126 249.633604 
L 207.533548 249.473981 
L 207.755464 249.299987 
L 207.909097 249.178577 
L 208.070152 249.050456 
L 208.241885 248.91288 
L 208.364339 248.814171 
L 208.423757 248.766091 
L 208.695737 248.54446 
L 208.802458 248.456797 
L 208.938452 248.344512 
L 209.060385 248.243284 
L 209.251914 248.083216 
L 209.433898 247.929911 
L 209.619542 247.772294 
L 209.694545 247.708258 
L 209.839039 247.584313 
L 209.998035 247.44704 
L 210.138615 247.324883 
L 210.37834 247.114865 
L 210.552885 246.960578 
L 210.646326 246.877502 
L 210.815636 246.726115 
L 210.930376 246.622888 
L 211.181283 246.395353 
L 211.267691 246.316417 
L 211.506071 246.097095 
L 211.610414 246.000372 
L 211.783263 245.839165 
L 211.891792 245.737317 
L 212.122277 245.519393 
L 212.208083 245.437694 
L 212.449781 245.205881 
L 212.513169 245.14467 
L 212.783637 244.881535 
L 212.864959 244.801791 
L 213.013484 244.655394 
L 213.229451 244.44076 
L 213.406629 244.263099 
L 213.571356 244.096632 
L 213.714134 243.951328 
L 213.798856 243.864656 
L 214.028076 243.628459 
L 214.145652 243.506331 
L 214.293638 243.351664 
L 214.366845 243.274758 
L 214.629082 242.997099 
L 214.788395 242.826741 
L 214.941726 242.661564 
L 215.115146 242.473294 
L 215.239331 242.337516 
L 215.332164 242.235489 
L 215.478902 242.073288 
L 215.738895 241.78306 
L 215.918353 241.580586 
L 216.065616 241.413103 
L 216.159838 241.305307 
L 216.361882 241.072458 
L 216.539746 240.865535 
L 216.563352 240.837934 
L 216.772152 240.592371 
L 216.891539 240.450799 
L 217.163283 240.125343 
L 217.322791 239.932192 
L 217.451772 239.774844 
L 217.641983 239.540869 
L 217.681757 239.491651 
L 217.884968 239.238579 
L 218.109595 238.95566 
L 218.261504 238.762404 
L 218.365578 238.629092 
L 218.5796 238.352578 
L 218.651078 238.25951 
L 218.753551 238.12545 
L 218.955779 237.858659 
L 219.128895 237.627885 
L 219.313333 237.379545 
L 219.489437 237.139999 
L 219.629808 236.947329 
L 219.775139 236.746206 
L 219.961287 236.486106 
L 220.051431 236.35913 
L 220.163747 236.199976 
L 220.408404 235.849591 
L 220.561269 235.628037 
L 220.649081 235.499836 
L 220.907169 235.119019 
L 221.023985 234.944641 
L 221.239698 234.619257 
L 221.29517 234.534862 
L 221.518172 234.192543 
L 221.612831 234.045739 
L 221.822432 233.717422 
L 221.974658 233.476104 
L 222.10284 233.270985 
L 222.321719 232.916578 
L 222.417683 232.759505 
L 222.61903 232.42651 
L 222.791537 232.137422 
L 222.825164 232.080654 
L 223.077697 231.64989 
L 223.153468 231.51908 
L 223.430571 231.034357 
L 223.561585 230.801614 
L 223.678575 230.591792 
L 223.810705 230.352504 
L 224.058339 229.897223 
L 224.12873 229.766142 
L 224.368963 229.313025 
L 224.41814 229.219146 
L 224.681455 228.709739 
L 224.776263 228.523466 
L 225.005064 228.067442 
L 225.128106 227.818286 
L 225.311442 227.441752 
L 225.457147 227.137832 
L 225.545867 226.950685 
L 225.731469 226.553876 
L 225.872505 226.247392 
L 226.02348 225.914375 
L 226.11644 225.706704 
L 226.230817 225.448357 
L 226.345194 225.186795 
L 226.483006 224.867224 
L 226.594903 224.604076 
L 226.706799 224.337519 
L 226.7841 224.151324 
L 226.898716 223.872068 
L 227.043995 223.512447 
L 227.189274 223.146227 
L 227.350422 222.731891 
L 227.392249 222.622898 
L 227.54398 222.222283 
L 227.647718 221.94349 
L 227.751457 221.660545 
L 227.922379 221.184849 
L 228.029075 220.881594 
L 228.128658 220.593949 
L 228.228241 220.30166 
L 228.340571 219.966122 
L 228.452901 219.624088 
L 228.573201 219.250181 
L 228.663471 218.96417 
L 228.748359 218.690736 
L 228.833246 218.412763 
L 228.925419 218.105545 
L 229.017592 217.792429 
L 229.112693 217.462842 
L 229.207793 217.126241 
L 229.320287 216.71843 
L 229.382991 216.4863 
L 229.445695 216.250534 
L 229.507677 216.01375 
L 229.569659 215.773081 
L 229.665653 215.392241 
L 229.761647 215.000873 
L 229.817293 214.768849 
L 229.872939 214.532811 
L 229.949498 214.20112 
L 230.026058 213.860853 
L 230.073102 213.647228 
L 230.120146 213.429945 
L 230.16719 213.208818 
L 230.214234 212.983644 
L 230.28853 212.619248 
L 230.362825 212.243225 
L 230.407651 212.010262 
L 230.452476 211.772371 
L 230.497301 211.529238 
L 230.542127 211.280512 
L 230.585598 211.033589 
L 230.629069 210.780638 
L 230.67254 210.521211 
L 230.716011 210.254798 
L 230.75864 209.986204 
L 230.801269 209.709708 
L 230.843898 209.424587 
L 230.886527 209.130001 
L 230.929059 208.825669 
L 230.971591 208.509768 
L 230.992857 208.347052 
L 231.014123 208.180896 
L 231.035389 208.011076 
L 231.056655 207.837344 
L 231.076581 207.670765 
L 231.096506 207.500249 
L 231.116431 207.325506 
L 231.136357 207.146211 
L 231.156282 206.961993 
L 231.176208 206.772429 
L 231.196133 206.577029 
L 231.216059 206.375225 
L 231.231029 206.218996 
L 231.245999 206.058451 
L 231.260969 205.893214 
L 231.27594 205.722853 
L 231.29091 205.546863 
L 231.30588 205.36465 
L 231.320851 205.175511 
L 231.335821 204.978594 
L 231.346563 204.831932 
L 231.357305 204.680275 
L 231.368047 204.523077 
L 231.378789 204.359686 
L 231.389531 204.189312 
L 231.400273 204.010977 
L 231.411015 203.823454 
L 231.421757 203.625165 
L 231.427128 203.521356 
L 231.432499 203.414017 
L 231.43787 203.302764 
L 231.443241 203.187136 
L 231.448611 203.066573 
L 231.453982 202.940386 
L 231.459353 202.807706 
L 231.464724 202.667417 
L 231.470095 202.51804 
L 231.475466 202.357544 
L 231.480837 202.183003 
L 231.486208 201.989929 
L 231.491579 201.770766 
L 231.49695 201.510781 
L 231.502321 201.17194 
z
" clip-path="url(#p1c562630e0)" style="fill: #808080; opacity: 0.5"/>
   </g>
   <g id="matplotlib.axis_1"/>
   <g id="matplotlib.axis_2"/>
   <g id="line2d_1">
    <path d="M 106.892308 84.086109 
L 110.051422 82.381592 
L 113.235757 80.891165 
L 116.737577 79.49538 
L 120.598085 78.231328 
L 123.824829 77.38313 
L 127.715964 76.600766 
L 131.404528 76.093452 
L 134.940291 75.815919 
L 138.732608 75.742243 
L 142.693749 75.912038 
L 145.943384 76.240958 
L 149.828411 76.862603 
L 153.228303 77.616435 
L 156.549321 78.549252 
L 160.22417 79.819149 
L 163.724713 81.275914 
L 166.918424 82.831658 
L 169.742241 84.402827 
L 173.013385 86.475413 
L 176.197722 88.784542 
L 179.084292 91.162044 
L 181.876394 93.761184 
L 184.570295 96.600372 
L 187.073221 99.593648 
L 189.481177 102.879594 
L 191.445767 105.941172 
L 193.339001 109.324218 
L 195.000171 112.777824 
L 196.261772 115.838265 
L 197.462507 119.285945 
L 198.488315 122.913618 
L 199.266555 126.456892 
L 199.845257 130.101382 
L 200.205508 133.749264 
L 200.332655 136.421253 
L 200.353846 138.046154 
L 200.353846 138.046154 
" clip-path="url(#p1c562630e0)" style="fill: none; stroke: #0000ff; stroke-linecap: square"/>
   </g>
   <g id="line2d_2">
    <path d="M 75.738462 138.046154 
L 75.866456 134.054447 
L 76.220691 130.309189 
L 76.782825 126.686 
L 77.526329 123.227269 
L 78.509716 119.670598 
L 79.714605 116.14458 
L 81.012539 112.958003 
L 82.703902 109.419529 
L 84.487803 106.206688 
L 86.555977 102.960399 
L 88.746109 99.944262 
L 91.170943 96.997852 
L 93.816643 94.15995 
L 96.415187 91.687647 
L 99.355733 89.206622 
L 102.295322 87.01551 
L 105.4896 84.920649 
L 106.892308 84.086109 
L 106.892308 84.086109 
" clip-path="url(#p1c562630e0)" style="fill: none; stroke: #0000ff; stroke-linecap: square"/>
   </g>
   <g id="line2d_3">
    <path d="M 75.738462 138.046154 
L 75.870932 142.106987 
L 76.232043 145.873302 
L 76.782592 149.405048 
L 77.568404 153.035825 
L 78.576761 156.637544 
L 79.793868 160.157683 
L 81.291167 163.758408 
L 82.943778 167.131832 
L 84.839317 170.469618 
L 86.904358 173.637799 
L 89.054734 176.544066 
L 91.358796 179.30799 
L 93.866652 181.982701 
L 96.531372 184.508735 
L 99.365338 186.893293 
L 102.376984 189.13391 
L 105.409663 191.122589 
L 106.892308 192.006198 
L 106.892308 192.006198 
" clip-path="url(#p1c562630e0)" style="fill: none; stroke: #0000ff; stroke-linecap: square"/>
   </g>
   <g id="line2d_4">
    <path d="M 106.892308 200.353846 
L 107.039378 204.632351 
L 107.409175 208.362746 
L 107.925888 211.655693 
L 108.740466 215.416824 
L 109.674606 218.765147 
L 110.895619 222.327641 
L 112.167955 225.445566 
L 113.748221 228.767728 
L 115.489755 231.936406 
L 117.411447 234.997667 
L 119.582706 238.041678 
L 122.002781 241.031494 
L 124.551037 243.813236 
L 127.161377 246.343005 
L 129.798813 248.621796 
L 132.989102 251.059066 
L 135.92046 253.029464 
L 139.141422 254.931593 
L 142.563907 256.681167 
L 145.682748 258.052957 
L 149.200669 259.364652 
L 153.051295 260.532479 
L 156.645386 261.383595 
L 160.575939 262.06182 
L 164.390081 262.475607 
L 168.30422 262.655099 
L 172.322216 262.583263 
L 175.866548 262.303872 
L 179.484815 261.806845 
L 183.063773 261.099581 
L 186.545078 260.198619 
L 190.074755 259.060687 
L 193.150105 257.874634 
L 196.770719 256.229637 
L 199.923583 254.560026 
L 200.353846 254.313891 
L 200.353846 254.313891 
" clip-path="url(#p1c562630e0)" style="fill: none; stroke: #228b22; stroke-linecap: square"/>
   </g>
   <g id="line2d_5">
    <path d="M 200.353846 254.313891 
L 203.47424 252.387729 
L 206.627692 250.167664 
L 209.433898 247.929911 
L 212.208083 245.437694 
L 214.788395 242.826741 
L 217.163283 240.125343 
L 219.489437 237.139999 
L 221.612831 234.045739 
L 223.561585 230.801614 
L 225.311442 227.441752 
L 226.7841 224.151324 
L 228.128658 220.593949 
L 229.207793 217.126241 
L 230.120146 213.429945 
L 230.801269 209.709708 
L 231.260969 205.893214 
L 231.480837 202.183003 
L 231.507692 200.353846 
L 231.507692 200.353846 
" clip-path="url(#p1c562630e0)" style="fill: none; stroke: #228b22; stroke-linecap: square"/>
   </g>
   <g id="text_1">
    <!-- $\Omega$ -->
    <g transform="translate(16.011538 22.420913)scale(0.1 -0.1)">
     <defs>
      <path id="Cmr10-ad" d="M 494 0 
L 281 1063 
L 469 1063 
Q 503 878 531 736 
Q 559 594 604 536 
Q 650 478 750 459 
Q 850 441 1081 441 
L 1472 441 
Q 1378 803 1004 1386 
Q 631 1969 495 2233 
Q 359 2497 359 2913 
Q 359 3397 646 3761 
Q 934 4125 1389 4319 
Q 1844 4513 2309 4513 
Q 2772 4513 3226 4319 
Q 3681 4125 3968 3758 
Q 4256 3391 4256 2913 
Q 4256 2588 4137 2300 
Q 4019 2013 3834 1725 
Q 3650 1438 3436 1084 
Q 3222 731 3144 441 
L 3531 441 
Q 3766 441 3869 459 
Q 3972 478 4015 536 
Q 4059 594 4086 736 
Q 4113 878 4147 1063 
L 4331 1063 
L 4122 0 
L 2988 0 
Q 2925 0 2925 84 
Q 2925 409 3004 721 
Q 3084 1034 3240 1478 
Q 3397 1922 3484 2261 
Q 3572 2600 3572 2913 
Q 3572 3297 3422 3625 
Q 3272 3953 2984 4150 
Q 2697 4347 2309 4347 
Q 1725 4347 1384 3930 
Q 1044 3513 1044 2913 
Q 1047 2584 1122 2293 
Q 1197 2003 1364 1518 
Q 1531 1034 1611 721 
Q 1691 409 1691 84 
Q 1691 0 1625 0 
L 494 0 
z
" transform="scale(0.015625)"/>
     </defs>
     <use xlink:href="#Cmr10-ad" transform="translate(0 0.484375)"/>
    </g>
   </g>
   <g id="text_2">
    <!-- $A$ -->
    <g style="fill: #0000ff" transform="translate(103.142308 78.497837)scale(0.1 -0.1)">
     <defs>
      <path id="Cmmi10-41" d="M 288 0 
Q 225 0 225 84 
Q 250 225 306 225 
Q 566 225 755 328 
Q 944 431 1081 647 
Q 1094 659 1094 659 
L 3378 4513 
Q 3428 4581 3500 4581 
L 3584 4581 
Q 3603 4581 3622 4573 
Q 3641 4566 3655 4548 
Q 3669 4531 3669 4513 
L 4056 378 
Q 4056 350 4084 294 
Q 4147 225 4563 225 
Q 4628 225 4628 141 
Q 4606 56 4592 28 
Q 4578 0 4519 0 
L 2919 0 
Q 2859 0 2859 84 
Q 2894 225 2944 225 
Q 3450 225 3481 397 
L 3384 1453 
L 1806 1453 
L 1294 594 
Q 1247 525 1247 434 
Q 1247 322 1355 273 
Q 1463 225 1594 225 
Q 1656 225 1656 141 
Q 1634 50 1621 25 
Q 1609 0 1550 0 
L 288 0 
z
M 1931 1678 
L 3359 1678 
L 3169 3750 
L 1931 1678 
z
" transform="scale(0.015625)"/>
     </defs>
     <use xlink:href="#Cmmi10-41" transform="translate(0 0.421875)"/>
    </g>
   </g>
   <g id="text_3">
    <!-- $B$ -->
    <g style="fill: #ff0000" transform="translate(227.707692 78.497837)scale(0.1 -0.1)">
     <defs>
      <path id="Cmmi10-42" d="M 319 0 
Q 256 0 256 84 
Q 259 100 268 137 
Q 278 175 293 200 
Q 309 225 341 225 
Q 522 225 656 234 
Q 791 244 884 269 
Q 959 297 1006 441 
L 1881 3956 
Q 1894 4019 1894 4044 
Q 1894 4113 1819 4122 
Q 1697 4147 1356 4147 
Q 1294 4147 1294 4231 
Q 1297 4247 1306 4286 
Q 1316 4325 1333 4348 
Q 1350 4372 1375 4372 
L 3669 4372 
Q 3878 4372 4083 4320 
Q 4288 4269 4461 4156 
Q 4634 4044 4736 3876 
Q 4838 3709 4838 3488 
Q 4838 3247 4714 3040 
Q 4591 2834 4395 2681 
Q 4200 2528 3973 2429 
Q 3747 2331 3500 2284 
Q 3675 2284 3854 2215 
Q 4034 2147 4175 2028 
Q 4316 1909 4402 1743 
Q 4488 1578 4488 1388 
Q 4488 1003 4219 684 
Q 3950 366 3542 183 
Q 3134 0 2753 0 
L 319 0 
z
M 1497 275 
Q 1497 225 1716 225 
L 2631 225 
Q 2944 225 3231 398 
Q 3519 572 3692 859 
Q 3866 1147 3866 1459 
Q 3866 1650 3786 1820 
Q 3706 1991 3556 2089 
Q 3406 2188 3213 2188 
L 1966 2188 
L 1522 416 
Q 1497 328 1497 275 
z
M 2009 2356 
L 2981 2356 
Q 3288 2356 3577 2512 
Q 3866 2669 4048 2937 
Q 4231 3206 4231 3506 
Q 4231 3784 4057 3965 
Q 3884 4147 3609 4147 
L 2731 4147 
Q 2559 4147 2500 4115 
Q 2441 4084 2400 3928 
L 2009 2356 
z
" transform="scale(0.015625)"/>
     </defs>
     <use xlink:href="#Cmmi10-42" transform="translate(0 0.6875)"/>
    </g>
   </g>
   <g id="text_4">
    <!-- $C$ -->
    <g style="fill: #228b22" transform="translate(150.023077 271.651683)scale(0.1 -0.1)">
     <defs>
      <path id="Cmmi10-43" d="M 934 1381 
Q 934 997 1082 705 
Q 1231 413 1514 248 
Q 1797 84 2181 84 
Q 2584 84 2957 290 
Q 3331 497 3595 842 
Q 3859 1188 3956 1575 
Q 3969 1613 4006 1613 
L 4084 1613 
Q 4109 1613 4125 1595 
Q 4141 1578 4141 1556 
Q 4141 1550 4134 1538 
Q 4025 1094 3711 705 
Q 3397 316 2959 87 
Q 2522 -141 2059 -141 
Q 1559 -141 1162 84 
Q 766 309 545 709 
Q 325 1109 325 1613 
Q 325 2150 565 2676 
Q 806 3203 1212 3614 
Q 1619 4025 2139 4269 
Q 2659 4513 3194 4513 
Q 3406 4513 3600 4448 
Q 3794 4384 3959 4253 
Q 4125 4122 4231 3950 
L 4738 4500 
Q 4738 4513 4769 4513 
L 4806 4513 
Q 4831 4513 4847 4491 
Q 4863 4469 4863 4447 
L 4428 2719 
Q 4428 2675 4378 2675 
L 4263 2675 
Q 4213 2675 4213 2747 
Q 4238 2888 4238 3084 
Q 4238 3397 4131 3673 
Q 4025 3950 3801 4119 
Q 3578 4288 3256 4288 
Q 2734 4288 2300 4025 
Q 1866 3763 1564 3336 
Q 1263 2909 1098 2389 
Q 934 1869 934 1381 
z
" transform="scale(0.015625)"/>
     </defs>
     <use xlink:href="#Cmmi10-43" transform="translate(0 0.484375)"/>
    </g>
   </g>
   <g id="patch_9">
    <path d="M 138.046154 200.353846 
C 154.570347 200.353846 170.419977 193.788715 182.104346 182.104346 
C 193.788715 170.419977 200.353846 154.570347 200.353846 138.046154 
C 200.353846 121.521961 193.788715 105.672331 182.104346 93.987962 
C 170.419977 82.303593 154.570347 75.738462 138.046154 75.738462 
C 121.521961 75.738462 105.672331 82.303593 93.987962 93.987962 
C 82.303593 105.672331 75.738462 121.521961 75.738462 138.046154 
C 75.738462 154.570347 82.303593 170.419977 93.987962 182.104346 
C 105.672331 193.788715 121.521961 200.353846 138.046154 200.353846 
L 138.046154 200.353846 
z
" clip-path="url(#p1c562630e0)" style="fill: none; stroke: #0000ff; stroke-linejoin: miter"/>
   </g>
   <g id="patch_10">
    <path d="M 200.353846 200.353846 
C 216.878039 200.353846 232.727669 193.788715 244.412038 182.104346 
C 256.096407 170.419977 262.661538 154.570347 262.661538 138.046154 
C 262.661538 121.521961 256.096407 105.672331 244.412038 93.987962 
C 232.727669 82.303593 216.878039 75.738462 200.353846 75.738462 
C 183.829653 75.738462 167.980023 82.303593 156.295654 93.987962 
C 144.611285 105.672331 138.046154 121.521961 138.046154 138.046154 
C 138.046154 154.570347 144.611285 170.419977 156.295654 182.104346 
C 167.980023 193.788715 183.829653 200.353846 200.353846 200.353846 
L 200.353846 200.353846 
z
" clip-path="url(#p1c562630e0)" style="fill: none; stroke: #ff0000; stroke-linejoin: miter"/>
   </g>
   <g id="patch_11">
    <path d="M 169.2 262.661538 
C 185.724193 262.661538 201.573823 256.096407 213.258192 244.412038 
C 224.942561 232.727669 231.507692 216.878039 231.507692 200.353846 
C 231.507692 183.829653 224.942561 167.980023 213.258192 156.295654 
C 201.573823 144.611285 185.724193 138.046154 169.2 138.046154 
C 152.675807 138.046154 136.826177 144.611285 125.141808 156.295654 
C 113.457439 167.980023 106.892308 183.829653 106.892308 200.353846 
C 106.892308 216.878039 113.457439 232.727669 125.141808 244.412038 
C 136.826177 256.096407 152.675807 262.661538 169.2 262.661538 
L 169.2 262.661538 
z
" clip-path="url(#p1c562630e0)" style="fill: none; stroke: #228b22; stroke-linejoin: miter"/>
   </g>
  </g>
 </g>
 <defs>
  <clipPath id="p1c562630e0">
   <rect x="7.2" y="7.2" width="324" height="324"/>
  </clipPath>
 </defs>
</svg>
