<?xml version="1.0" encoding="utf-8" standalone="no"?>
<!DOCTYPE svg PUBLIC "-//W3C//DTD SVG 1.1//EN"
  "http://www.w3.org/Graphics/SVG/1.1/DTD/svg11.dtd">
<svg xmlns:xlink="http://www.w3.org/1999/xlink" width="338.4pt" height="338.4pt" viewBox="0 0 338.4 338.4" xmlns="http://www.w3.org/2000/svg" version="1.1">
 <metadata>
  <rdf:RDF xmlns:dc="http://purl.org/dc/elements/1.1/" xmlns:cc="http://creativecommons.org/ns#" xmlns:rdf="http://www.w3.org/1999/02/22-rdf-syntax-ns#">
   <cc:Work>
    <dc:type rdf:resource="http://purl.org/dc/dcmitype/StillImage"/>
    <dc:date>2022-08-29T16:22:48.664089</dc:date>
    <dc:format>image/svg+xml</dc:format>
    <dc:creator>
     <cc:Agent>
      <dc:title>Matplotlib v3.5.2, https://matplotlib.org/</dc:title>
     </cc:Agent>
    </dc:creator>
   </cc:Work>
  </rdf:RDF>
 </metadata>
 <defs>
  <style type="text/css">*{stroke-linejoin: round; stroke-linecap: butt}</style>
 </defs>
 <g id="figure_1">
  <g id="patch_1">
   <path d="M -0 338.4 
L 338.4 338.4 
L 338.4 0 
L -0 0 
z
" style="fill: #ffffff"/>
  </g>
  <g id="axes_1">
   <g id="patch_2">
    <path d="M 7.2 331.2 
L 331.2 331.2 
L 331.2 7.2 
L 7.2 7.2 
z
" style="fill: #ffffff"/>
   </g>
   <g id="patch_3">
    <path d="M 13.430769 324.969231 
L 13.430769 13.430769 
L 324.969231 13.430769 
L 324.969231 324.969231 
L 13.430769 324.969231 
z
" clip-path="url(#p9125c6208e)" style="fill: none; stroke: #000000; stroke-linejoin: miter"/>
   </g>
   <g id="patch_4">
    <path d="M 169.2 169.2 
L 169.2 101.749945 
L 169.478784 101.91167 
L 169.606947 101.986538 
L 169.811574 102.106753 
L 169.97287 102.202104 
L 170.096812 102.27573 
L 170.462669 102.494879 
L 170.565718 102.557098 
L 170.848963 102.729239 
L 170.910532 102.766876 
L 171.10919 102.888851 
L 171.439538 103.093503 
L 171.515328 103.140778 
L 171.761438 103.295126 
L 171.845444 103.348104 
L 172.079023 103.496198 
L 172.401327 103.702463 
L 172.478711 103.75232 
L 172.741156 103.922373 
L 172.942449 104.053819 
L 173.043232 104.119965 
L 173.357731 104.327818 
L 173.470279 104.402734 
L 173.635691 104.513351 
L 173.978086 104.744275 
L 174.080228 104.813676 
L 174.249903 104.929488 
L 174.447901 105.065464 
L 174.757402 105.279822 
L 174.849451 105.344003 
L 175.142155 105.549405 
L 175.275362 105.643547 
L 175.415719 105.743197 
L 175.742131 105.976752 
L 175.923193 106.107407 
L 176.107906 106.241512 
L 176.304163 106.384907 
L 176.427156 106.475252 
L 176.612525 106.61212 
L 176.841963 106.782702 
L 177.118246 106.989858 
L 177.300711 107.127722 
L 177.421333 107.219323 
L 177.574611 107.336259 
L 177.90174 107.587842 
L 177.982591 107.650448 
L 178.295724 107.894528 
L 178.398704 107.975362 
L 178.579039 108.117591 
L 178.80368 108.295974 
L 179.050292 108.493365 
L 179.254422 108.657999 
L 179.355018 108.739551 
L 179.606139 108.944343 
L 179.854481 109.14859 
L 179.942176 109.221126 
L 180.132987 109.3797 
L 180.365268 109.574132 
L 180.565255 109.742768 
L 180.757298 109.905792 
L 181.013869 110.125269 
L 181.105499 110.20412 
L 181.390038 110.450562 
L 181.492983 110.540318 
L 181.802759 110.812335 
L 181.917581 110.913902 
L 182.183752 111.150904 
L 182.221014 111.184256 
L 182.463913 111.402735 
L 182.796854 111.70522 
L 182.842326 111.746805 
L 183.102254 111.985792 
L 183.291573 112.161234 
L 183.453619 112.312332 
L 183.59095 112.441063 
L 183.918686 112.75081 
L 184.094017 112.918 
L 184.1953 113.015057 
L 184.517696 113.326345 
L 184.755368 113.55814 
L 184.906771 113.706834 
L 185.123048 113.920654 
L 185.282923 114.079792 
L 185.491339 114.288639 
L 185.580359 114.378327 
L 185.906345 114.709259 
L 185.98625 114.790983 
L 186.297882 115.112012 
L 186.484586 115.306126 
L 186.698171 115.529843 
L 186.789014 115.625538 
L 186.972124 115.819418 
L 187.207709 116.070828 
L 187.366567 116.241622 
L 187.508134 116.394695 
L 187.718401 116.623577 
L 187.978264 116.908998 
L 188.168987 117.120299 
L 188.443221 117.426865 
L 188.52544 117.519414 
L 188.690319 117.705909 
L 189.004756 118.064926 
L 189.242662 118.339537 
L 189.435364 118.563881 
L 189.479727 118.615774 
L 189.808009 119.002659 
L 189.997644 119.228494 
L 190.114172 119.368131 
L 190.284515 119.573455 
L 190.597184 119.954096 
L 190.678717 120.054165 
L 190.847712 120.262664 
L 191.074071 120.544257 
L 191.38157 120.931119 
L 191.504595 121.087317 
L 191.724903 121.369096 
L 191.90105 121.596326 
L 192.050321 121.79025 
L 192.244391 122.044274 
L 192.52767 122.418987 
L 192.6814 122.624319 
L 192.823025 122.814738 
L 193.135017 123.238545 
L 193.322322 123.495889 
L 193.518955 123.768448 
L 193.68894 124.006083 
L 193.936904 124.356145 
L 194.039505 124.502196 
L 194.335299 124.927282 
L 194.395427 125.014433 
L 194.588433 125.295911 
L 194.918618 125.783667 
L 195.052802 125.98418 
L 195.256983 126.291894 
L 195.352144 126.436398 
L 195.580658 126.786282 
L 195.753768 127.054095 
L 196.090981 127.5828 
L 196.109284 127.611767 
L 196.397391 128.0715 
L 196.685611 128.538656 
L 196.829202 128.774175 
L 196.962313 128.994194 
L 197.148237 129.304282 
L 197.387324 129.707901 
L 197.666533 130.186394 
L 197.726195 130.289661 
L 197.869214 130.538709 
L 198.175459 131.079267 
L 198.308768 131.317756 
L 198.462941 131.596047 
L 198.796604 132.207691 
L 198.970544 132.531794 
L 199.056814 132.693916 
L 199.299869 133.155706 
L 199.591188 133.719306 
L 199.759782 134.050707 
L 199.910666 134.350658 
L 200.175555 134.885196 
L 200.313437 135.167575 
L 200.604078 135.772477 
L 200.627856 135.822562 
L 200.859821 136.316073 
L 201.035715 136.696388 
L 201.209131 137.076695 
L 201.382546 137.462506 
L 201.464994 137.647923 
L 201.615484 137.989763 
L 201.765974 138.336121 
L 201.892034 138.629846 
L 201.982876 138.843594 
L 202.212808 139.392709 
L 202.372303 139.780682 
L 202.531797 140.174717 
L 202.565399 140.258527 
L 202.736272 140.689145 
L 202.907144 141.127408 
L 203.048438 141.495837 
L 203.274659 142.097676 
L 203.394564 142.422932 
L 203.514469 142.752731 
L 203.727759 143.351158 
L 203.888075 143.811418 
L 204.044039 144.268325 
L 204.239351 144.854005 
L 204.335361 145.147716 
L 204.43137 145.445445 
L 204.530039 145.755773 
L 204.628709 146.070685 
L 204.72753 146.390866 
L 204.843482 146.772933 
L 204.959433 147.162232 
L 205.084481 147.590626 
L 205.209528 148.028425 
L 205.295502 148.335186 
L 205.381475 148.646884 
L 205.512852 149.133255 
L 205.644229 149.632594 
L 205.73929 150.002561 
L 205.834352 150.38028 
L 205.912357 150.69635 
L 206.014269 151.118118 
L 206.116181 151.550551 
L 206.182422 151.837723 
L 206.248664 152.129982 
L 206.314906 152.427594 
L 206.381147 152.73085 
L 206.444466 153.026293 
L 206.507785 153.327487 
L 206.571104 153.634765 
L 206.634423 153.948496 
L 206.707338 154.318298 
L 206.785381 154.724978 
L 206.863423 155.143853 
L 206.941466 155.576047 
L 207.019509 156.02287 
L 207.07513 156.351088 
L 207.119053 156.616498 
L 207.162976 156.887784 
L 207.206899 157.165344 
L 207.250822 157.449623 
L 207.294744 157.74112 
L 207.338667 158.040402 
L 207.38259 158.348112 
L 207.426513 158.664989 
L 207.471221 158.997828 
L 207.515929 159.342101 
L 207.54615 159.581913 
L 207.576371 159.827957 
L 207.606592 160.080737 
L 207.636814 160.340829 
L 207.667035 160.608898 
L 207.697256 160.885716 
L 207.727477 161.172187 
L 207.757698 161.469384 
L 207.790338 161.803909 
L 207.806658 161.977034 
L 207.822978 162.15445 
L 207.839298 162.336489 
L 207.855618 162.52353 
L 207.871938 162.716005 
L 207.888258 162.914413 
L 207.904136 163.113696 
L 207.920014 163.319771 
L 207.935892 163.533381 
L 207.95177 163.75541 
L 207.967648 163.986936 
L 207.983527 164.229285 
L 207.999405 164.484125 
L 208.007344 164.616877 
L 208.015283 164.753604 
L 208.023222 164.894686 
L 208.031161 165.040565 
L 208.0391 165.191766 
L 208.047039 165.348915 
L 208.054978 165.512773 
L 208.062917 165.684277 
L 208.070856 165.864608 
L 208.078795 166.055282 
L 208.086734 166.25831 
L 208.094673 166.476455 
L 208.102612 166.713692 
L 208.110551 166.976122 
L 208.118491 167.274016 
L 208.12643 167.6274 
L 208.134369 168.087976 
L 208.142308 169.2 
L 208.142308 169.2 
z
" clip-path="url(#p9125c6208e)" style="fill: #808080; opacity: 0.5"/>
   </g>
   <g id="patch_5">
    <path d="M 169.2 169.2 
L 169.2 236.650055 
L 169.308199 236.587471 
L 169.57414 236.432658 
L 169.777907 236.313083 
L 169.921968 236.228043 
L 170.216102 236.053114 
L 170.378826 235.955584 
L 170.645833 235.79438 
L 170.723144 235.747431 
L 170.937479 235.616626 
L 171.077895 235.530418 
L 171.395148 235.334129 
L 171.460778 235.29326 
L 171.718416 235.131948 
L 171.905279 235.01407 
L 172.055294 234.9189 
L 172.237204 234.80285 
L 172.520425 234.620751 
L 172.764284 234.46257 
L 172.989163 234.315549 
L 173.118695 234.23036 
L 173.30467 234.107403 
L 173.476164 233.993341 
L 173.657589 233.871959 
L 173.974185 233.658371 
L 174.103948 233.570173 
L 174.203172 233.502474 
L 174.417215 233.355669 
L 174.733435 233.136857 
L 174.799267 233.091012 
L 175.00154 232.949521 
L 175.250518 232.774043 
L 175.433405 232.644214 
L 175.74866 232.418551 
L 175.907805 232.303729 
L 175.999384 232.237377 
L 176.291526 232.024354 
L 176.390733 231.951541 
L 176.69464 231.72698 
L 176.87335 231.59386 
L 177.05163 231.460266 
L 177.309078 231.265936 
L 177.3239 231.254697 
L 177.536839 231.092614 
L 177.745642 230.932552 
L 177.980948 230.750826 
L 178.254398 230.537831 
L 178.424097 230.404663 
L 178.65906 230.219021 
L 178.739763 230.154919 
L 179.015219 229.934808 
L 179.224037 229.766578 
L 179.417877 229.60935 
L 179.527001 229.520383 
L 179.71989 229.362317 
L 179.972441 229.153792 
L 180.104409 229.044115 
L 180.276966 228.899963 
L 180.455142 228.750226 
L 180.669743 228.568666 
L 180.989293 228.295838 
L 181.23369 228.085151 
L 181.393118 227.946758 
L 181.458082 227.890147 
L 181.646185 227.725517 
L 181.995851 227.416632 
L 182.200983 227.233679 
L 182.360055 227.090907 
L 182.472407 226.989592 
L 182.692603 226.789873 
L 182.918752 226.583152 
L 183.096337 226.419672 
L 183.341405 226.192392 
L 183.4884 226.055124 
L 183.669087 225.885415 
L 183.872644 225.692922 
L 184.01111 225.561187 
L 184.306218 225.27825 
L 184.414066 225.174105 
L 184.63968 224.954935 
L 184.811915 224.78642 
L 185.058196 224.543637 
L 185.332326 224.270846 
L 185.517956 224.084575 
L 185.66654 223.934568 
L 185.749003 223.850963 
L 186.076398 223.51653 
L 186.300024 223.285768 
L 186.455454 223.124252 
L 186.678972 222.890339 
L 186.7868 222.776798 
L 186.943472 222.611007 
L 187.252802 222.280795 
L 187.49086 222.024027 
L 187.591881 221.914364 
L 187.708771 221.786946 
L 188.021613 221.443113 
L 188.185267 221.261592 
L 188.428452 220.989729 
L 188.526624 220.87925 
L 188.807844 220.560424 
L 189.012763 220.325873 
L 189.101267 220.223985 
L 189.411402 219.864109 
L 189.602183 219.640507 
L 189.744586 219.472485 
L 189.892684 219.296717 
L 190.102061 219.046413 
L 190.369675 218.723356 
L 190.579075 218.468084 
L 190.818946 218.17293 
L 190.893089 218.0811 
L 191.172545 217.732402 
L 191.38202 217.468311 
L 191.416885 217.424128 
L 191.793911 216.94209 
L 191.951807 216.737875 
L 192.0979 216.547672 
L 192.251912 216.345838 
L 192.519514 215.991867 
L 192.65663 215.80886 
L 192.887289 215.498455 
L 193.064389 215.257922 
L 193.26599 214.98174 
L 193.404884 214.789972 
L 193.66249 214.431017 
L 193.888261 214.112849 
L 194.094329 213.819471 
L 194.208687 213.655411 
L 194.38681 213.398072 
L 194.735023 212.888524 
L 194.869839 212.688893 
L 195.017196 212.469157 
L 195.202925 212.189884 
L 195.426174 211.850702 
L 195.563853 211.639589 
L 195.84989 211.196154 
L 195.990931 210.975048 
L 196.255353 210.556041 
L 196.411455 210.305875 
L 196.628151 209.955067 
L 196.846712 209.596978 
L 196.977089 209.381282 
L 197.135942 209.116326 
L 197.310284 208.822762 
L 197.601002 208.326614 
L 197.818598 207.949676 
L 198.046031 207.550417 
L 198.10011 207.454668 
L 198.29625 207.104722 
L 198.498761 206.73891 
L 198.708027 206.355954 
L 198.900608 205.998959 
L 199.123567 205.580002 
L 199.348337 205.151303 
L 199.584154 204.694436 
L 199.728673 204.410739 
L 199.885973 204.098651 
L 200.197902 203.469233 
L 200.271496 203.318626 
L 200.544962 202.751647 
L 200.778805 202.257313 
L 200.847019 202.1114 
L 201.030637 201.714668 
L 201.300558 201.120596 
L 201.575818 200.50077 
L 201.663003 200.301365 
L 201.812352 199.956202 
L 201.961701 199.606388 
L 202.151162 199.155672 
L 202.342513 198.692235 
L 202.510463 198.27835 
L 202.56542 198.14142 
L 202.70743 197.784065 
L 202.84944 197.421471 
L 203.039449 196.92777 
L 203.174679 196.570173 
L 203.304506 196.221776 
L 203.434333 195.868195 
L 203.554412 195.536368 
L 203.693465 195.146109 
L 203.832519 194.749133 
L 203.935815 194.449705 
L 204.105633 193.948637 
L 204.27545 193.436023 
L 204.371275 193.141391 
L 204.538754 192.616599 
L 204.67739 192.172198 
L 204.816026 191.718175 
L 204.948185 191.27586 
L 205.101658 190.749804 
L 205.255132 190.20946 
L 205.348586 189.872954 
L 205.44204 189.530449 
L 205.544702 189.146916 
L 205.647364 188.755324 
L 205.750619 188.352842 
L 205.853874 187.941149 
L 205.914668 187.694196 
L 205.980863 187.42127 
L 206.047059 187.143948 
L 206.113254 186.862024 
L 206.179449 186.575274 
L 206.247584 186.274824 
L 206.31572 185.968715 
L 206.376016 185.69285 
L 206.436313 185.412067 
L 206.496609 185.126106 
L 206.556906 184.834683 
L 206.631734 184.464962 
L 206.706562 184.085685 
L 206.792518 183.637235 
L 206.878474 183.173872 
L 206.921452 182.936129 
L 206.96443 182.694061 
L 207.007408 182.447431 
L 207.050386 182.195979 
L 207.097215 181.916176 
L 207.144043 181.629899 
L 207.190871 181.336691 
L 207.2377 181.036036 
L 207.273904 180.798123 
L 207.331929 180.40604 
L 207.389954 179.99942 
L 207.418967 179.790138 
L 207.447979 179.576555 
L 207.476992 179.358399 
L 207.506005 179.135369 
L 207.550994 178.779081 
L 207.595984 178.408798 
L 207.618479 178.217873 
L 207.640974 178.02276 
L 207.663468 177.823175 
L 207.685963 177.618799 
L 207.722148 177.279072 
L 207.740241 177.103672 
L 207.758333 176.924248 
L 207.776425 176.740512 
L 207.794518 176.552142 
L 207.81261 176.358771 
L 207.830703 176.159982 
L 207.848795 175.955298 
L 207.866888 175.744165 
L 207.88498 175.525938 
L 207.903073 175.299854 
L 207.921165 175.065007 
L 207.939258 174.820297 
L 207.95735 174.564374 
L 207.975442 174.295549 
L 207.985872 174.13391 
L 207.996301 173.966769 
L 208.00673 173.793528 
L 208.017159 173.613467 
L 208.027588 173.425714 
L 208.038017 173.229195 
L 208.048446 173.022558 
L 208.058875 172.804063 
L 208.069304 172.571405 
L 208.074519 172.448822 
L 208.079733 172.321419 
L 208.084948 172.188582 
L 208.090162 172.049549 
L 208.095377 171.903364 
L 208.100591 171.748799 
L 208.105806 171.584223 
L 208.11102 171.407399 
L 208.116235 171.215104 
L 208.12145 171.002394 
L 208.126664 170.760945 
L 208.131879 170.474528 
L 208.137093 170.101242 
L 208.142308 169.2 
L 208.142308 169.2 
z
" clip-path="url(#p9125c6208e)" style="fill: #808080; opacity: 0.5"/>
   </g>
   <g id="patch_6">
    <path d="M 130.257692 169.2 
L 130.257692 169.2 
L 130.265292 168.11201 
L 130.272891 167.661388 
L 130.280491 167.315639 
L 130.288091 167.02418 
L 130.29569 166.767419 
L 130.30329 166.535306 
L 130.310889 166.321872 
L 130.318489 166.123226 
L 130.326088 165.936668 
L 130.333688 165.76023 
L 130.341288 165.592427 
L 130.348887 165.432105 
L 130.356487 165.278346 
L 130.364086 165.130407 
L 130.371686 164.987674 
L 130.379285 164.849635 
L 130.394485 164.585966 
L 130.409684 164.336619 
L 130.424883 164.099492 
L 130.440082 163.872953 
L 130.455281 163.655704 
L 130.47048 163.446694 
L 130.485679 163.245053 
L 130.500879 163.050058 
L 130.525151 162.750947 
L 130.549423 162.465195 
L 130.573696 162.191167 
L 130.597968 161.927538 
L 130.62224 161.673216 
L 130.646513 161.427286 
L 130.670785 161.188976 
L 130.695058 160.957624 
L 130.73258 160.612372 
L 130.770102 160.280631 
L 130.807625 159.960946 
L 130.845147 159.652107 
L 130.872017 159.437031 
L 130.898888 159.226665 
L 130.925758 159.020716 
L 130.952629 158.818922 
L 130.988013 158.559128 
L 131.023398 158.305642 
L 131.058782 158.058035 
L 131.094166 157.815921 
L 131.129551 157.578959 
L 131.164935 157.346838 
L 131.20032 157.11928 
L 131.235704 156.896032 
L 131.289262 156.565814 
L 131.34282 156.244232 
L 131.394922 155.939078 
L 131.447024 155.640991 
L 131.499126 155.349514 
L 131.551228 155.064237 
L 131.637064 154.606817 
L 131.7229 154.163794 
L 131.808737 153.733933 
L 131.894573 153.316164 
L 131.940046 153.099423 
L 132.038428 152.64063 
L 132.136809 152.194779 
L 132.24199 151.731312 
L 132.34717 151.280444 
L 132.46836 150.775369 
L 132.589551 150.284551 
L 132.691543 149.881732 
L 132.793536 149.487669 
L 132.869254 149.200483 
L 132.944971 148.917646 
L 133.049668 148.533388 
L 133.154366 148.156667 
L 133.250725 147.816264 
L 133.347085 147.481623 
L 133.456446 147.108477 
L 133.565808 146.742062 
L 133.687829 146.340781 
L 133.80985 145.947064 
L 133.926119 145.578599 
L 134.091761 145.064346 
L 134.257403 144.561938 
L 134.294162 144.451975 
L 134.409558 144.110262 
L 134.524954 143.773664 
L 134.710762 143.241931 
L 134.899065 142.715275 
L 135.025183 142.369059 
L 135.151302 142.027838 
L 135.293544 141.648759 
L 135.435786 141.275549 
L 135.500228 141.108337 
L 135.650582 140.722587 
L 135.800937 140.342776 
L 135.930021 140.021257 
L 136.091792 139.624054 
L 136.225804 139.299668 
L 136.359816 138.979358 
L 136.474579 138.708199 
L 136.74153 138.08823 
L 136.864118 137.808393 
L 137.044232 137.402565 
L 137.257275 136.930425 
L 137.41579 136.584466 
L 137.711376 135.950983 
L 137.818168 135.725702 
L 138.042536 135.258353 
L 138.227697 134.878571 
L 138.543926 134.24176 
L 138.648978 134.03339 
L 138.857698 133.623939 
L 138.996152 133.355579 
L 139.171887 133.01859 
L 139.347622 132.685556 
L 139.49866 132.402405 
L 139.673199 132.078652 
L 139.89948 131.664286 
L 140.045879 131.399342 
L 140.212985 131.099863 
L 140.379927 130.803737 
L 140.623538 130.376951 
L 140.919449 129.866801 
L 140.929914 129.84892 
L 141.306223 129.213114 
L 141.432428 129.00292 
L 141.57211 128.772014 
L 141.816299 128.372633 
L 142.016099 128.049814 
L 142.156816 127.824545 
L 142.294858 127.605208 
L 142.583006 127.152512 
L 142.854074 126.732838 
L 142.97721 126.544129 
L 143.253271 126.125341 
L 143.340303 125.99452 
L 143.605294 125.599689 
L 143.730105 125.415512 
L 144.046293 124.953936 
L 144.215828 124.709343 
L 144.288887 124.604552 
L 144.53496 124.254271 
L 144.645747 124.097893 
L 145.017066 123.579641 
L 145.092856 123.474953 
L 145.269767 123.232001 
L 145.571389 122.822275 
L 145.749735 122.582619 
L 145.994133 122.257294 
L 146.102051 122.11476 
L 146.206572 121.977358 
L 146.422382 121.695642 
L 146.602372 121.462702 
L 146.868459 121.12164 
L 147.118939 120.804113 
L 147.346483 120.518577 
L 147.409754 120.439665 
L 147.728945 120.044747 
L 147.922683 119.80759 
L 148.142766 119.540476 
L 148.165825 119.512629 
L 148.488095 119.126172 
L 148.556287 119.045046 
L 148.871425 118.673019 
L 148.967214 118.560869 
L 149.303734 118.170248 
L 149.34468 118.123075 
L 149.71899 117.695347 
L 149.755543 117.653913 
L 150.102958 117.263046 
L 150.141263 117.220272 
L 150.44232 116.886286 
L 150.616662 116.694634 
L 150.724417 116.57682 
L 150.949471 116.332309 
L 151.192686 116.070404 
L 151.323605 115.930419 
L 151.632145 115.60322 
L 151.813594 115.412554 
L 151.955356 115.264485 
L 152.174835 115.036771 
L 152.307935 114.899575 
L 152.582083 114.619099 
L 152.709961 114.489231 
L 152.864104 114.333493 
L 153.127495 114.069394 
L 153.39325 113.80547 
L 153.612763 113.589371 
L 153.744124 113.460867 
L 153.91666 113.293002 
L 154.150681 113.066966 
L 154.350176 112.875761 
L 154.46997 112.761595 
L 154.693305 112.550045 
L 154.994133 112.267717 
L 155.08401 112.183946 
L 155.227385 112.05086 
L 155.508161 111.792162 
L 155.659059 111.654175 
L 155.984036 111.35946 
L 156.173862 111.188847 
L 156.241853 111.128009 
L 156.57704 110.830175 
L 156.641342 110.773432 
L 156.95961 110.494423 
L 157.158158 110.321908 
L 157.166462 110.314718 
L 157.537835 109.995265 
L 157.681029 109.873171 
L 157.853578 109.726838 
L 158.072333 109.542554 
L 158.179911 109.452429 
L 158.478548 109.203964 
L 158.712394 109.011156 
L 158.778929 108.956575 
L 159.119913 108.678779 
L 159.315854 108.520591 
L 159.481939 108.387322 
L 159.579103 108.309701 
L 159.841288 108.101515 
L 160.051686 107.935774 
L 160.250512 107.780222 
L 160.472486 107.607781 
L 160.492736 107.592114 
L 160.707442 107.42665 
L 160.949085 107.241844 
L 161.236811 107.023737 
L 161.3544 106.935203 
L 161.618538 106.737594 
L 161.719617 106.662435 
L 161.990614 106.462177 
L 162.140318 106.352325 
L 162.430687 106.140813 
L 162.609758 106.011392 
L 162.658123 105.976569 
L 162.887742 105.812007 
L 163.094209 105.665111 
L 163.24272 105.560073 
L 163.462227 105.40577 
L 163.810546 105.163228 
L 163.890275 105.108106 
L 164.198013 104.896716 
L 164.369436 104.779902 
L 164.540931 104.663706 
L 164.606613 104.619379 
L 164.977621 104.370816 
L 165.029358 104.336398 
L 165.324553 104.141156 
L 165.403948 104.088972 
L 165.770662 103.849736 
L 165.845544 103.801246 
L 166.018884 103.689463 
L 166.258415 103.536061 
L 166.429258 103.427401 
L 166.72237 103.242422 
L 166.758117 103.219987 
L 166.989206 103.075606 
L 167.173736 102.961118 
L 167.404523 102.818932 
L 167.541552 102.735032 
L 167.85292 102.545829 
L 167.971437 102.474334 
L 168.316413 102.267859 
L 168.359212 102.242412 
L 168.549634 102.129637 
L 168.889146 101.930374 
L 168.96332 101.887146 
L 169.2 101.749945 
L 169.2 169.2 
z
" clip-path="url(#p9125c6208e)" style="fill: #808080; opacity: 0.5"/>
   </g>
   <g id="patch_7">
    <path d="M 130.257692 169.2 
L 130.257692 169.2 
L 130.265079 170.272635 
L 130.272465 170.716899 
L 130.279852 171.05777 
L 130.287239 171.345117 
L 130.294625 171.598257 
L 130.302012 171.827097 
L 130.309398 172.037522 
L 130.316785 172.233366 
L 130.324171 172.417294 
L 130.331558 172.591246 
L 130.338945 172.756684 
L 130.346331 172.914747 
L 130.353718 173.06634 
L 130.361104 173.212195 
L 130.368491 173.352918 
L 130.375877 173.489014 
L 130.390651 173.74897 
L 130.405424 173.994808 
L 130.420197 174.228598 
L 130.43497 174.45195 
L 130.449743 174.666143 
L 130.464516 174.872216 
L 130.479289 175.071022 
L 130.494063 175.263278 
L 130.511701 175.485084 
L 130.52934 175.699276 
L 130.546979 175.906585 
L 130.564618 176.10763 
L 130.580736 176.286323 
L 130.596855 176.460583 
L 130.629092 176.79702 
L 130.661329 177.119045 
L 130.693566 177.42835 
L 130.725803 177.726321 
L 130.75804 178.014107 
L 130.790277 178.292674 
L 130.822514 178.562846 
L 130.848904 178.778257 
L 130.875293 178.988858 
L 130.901682 179.194953 
L 130.928071 179.396814 
L 130.98085 179.788802 
L 131.033628 180.166534 
L 131.093152 180.577207 
L 131.152675 180.973264 
L 131.212198 181.356132 
L 131.271721 181.727022 
L 131.330052 182.079856 
L 131.388382 182.423021 
L 131.446713 182.757251 
L 131.505043 183.083193 
L 131.560278 183.384714 
L 131.615513 183.679746 
L 131.675152 183.991464 
L 131.734791 184.296511 
L 131.794429 184.595284 
L 131.854068 184.888141 
L 131.907122 185.143959 
L 131.960177 185.395562 
L 132.066286 185.886887 
L 132.176457 186.381466 
L 132.286627 186.861514 
L 132.383017 187.270506 
L 132.479406 187.66994 
L 132.565513 188.019178 
L 132.65162 188.361665 
L 132.757234 188.773042 
L 132.839377 189.086729 
L 132.92152 189.395209 
L 133.003664 189.698719 
L 133.085807 189.997476 
L 133.145435 190.211484 
L 133.238631 190.541335 
L 133.331828 190.865765 
L 133.474016 191.350837 
L 133.616205 191.824619 
L 133.703392 192.109849 
L 133.838135 192.543162 
L 133.972877 192.967812 
L 134.146029 193.501524 
L 134.338161 194.078932 
L 134.481039 194.49883 
L 134.641783 194.962107 
L 134.802527 195.416214 
L 134.962576 195.859711 
L 135.087956 196.201388 
L 135.213335 196.53822 
L 135.393547 197.014226 
L 135.511884 197.321786 
L 135.657107 197.694016 
L 135.802329 198.060714 
L 135.878391 198.25064 
L 136.028251 198.620676 
L 136.178111 198.985362 
L 136.289066 199.252039 
L 136.437852 199.605333 
L 136.586637 199.95385 
L 136.773583 200.385229 
L 136.955499 200.798283 
L 137.179549 201.29829 
L 137.220412 201.388477 
L 137.39723 201.775256 
L 137.574048 202.156548 
L 137.762918 202.55798 
L 137.802553 202.641475 
L 138.021002 203.097136 
L 138.28961 203.647263 
L 138.389248 203.848578 
L 138.610722 204.29091 
L 138.846757 204.754746 
L 139.053501 205.154835 
L 139.353058 205.724683 
L 139.484568 205.971294 
L 139.639911 206.259884 
L 139.835867 206.619828 
L 140.013701 206.942631 
L 140.203152 207.2826 
L 140.339091 207.524106 
L 140.656449 208.080228 
L 140.80978 208.345165 
L 141.102565 208.844499 
L 141.228271 209.056304 
L 141.390683 209.327721 
L 141.682463 209.809142 
L 141.731327 209.889003 
L 141.921838 210.198326 
L 142.234844 210.699632 
L 142.411065 210.978188 
L 142.640044 211.336288 
L 142.703758 211.435169 
L 142.997492 211.88684 
L 143.099003 212.041357 
L 143.31325 212.364876 
L 143.606204 212.801658 
L 143.7516 213.016093 
L 143.957729 213.317493 
L 144.161634 213.612687 
L 144.250624 213.740611 
L 144.564996 214.188207 
L 144.794256 214.510458 
L 145.013684 214.815679 
L 145.041922 214.854733 
L 145.416433 215.367932 
L 145.525449 215.515682 
L 145.7322 215.793902 
L 145.818704 215.909546 
L 146.073657 216.247805 
L 146.368977 216.634891 
L 146.542771 216.860365 
L 146.724228 217.093974 
L 146.812653 217.207153 
L 147.099583 217.571469 
L 147.217142 217.719454 
L 147.575784 218.166412 
L 147.732893 218.360105 
L 147.925772 218.596175 
L 148.012041 218.701156 
L 148.346822 219.105042 
L 148.537445 219.332561 
L 148.724411 219.554015 
L 148.858044 219.71128 
L 149.057974 219.944998 
L 149.257289 220.17615 
L 149.441951 220.388685 
L 149.65317 220.629895 
L 149.896687 220.905521 
L 149.928825 220.941702 
L 150.191273 221.235477 
L 150.334369 221.394402 
L 150.641111 221.73214 
L 150.760254 221.862257 
L 150.903262 222.017657 
L 151.202222 222.339815 
L 151.35321 222.501142 
L 151.680903 222.848142 
L 151.761008 222.932322 
L 151.887369 223.064601 
L 152.156029 223.343789 
L 152.307846 223.500334 
L 152.497921 223.695096 
L 152.830523 224.032652 
L 152.976604 224.179619 
L 153.239907 224.442554 
L 153.377874 224.579329 
L 153.572325 224.770949 
L 153.774437 224.968701 
L 154.015504 225.2027 
L 154.166169 225.347928 
L 154.333644 225.508445 
L 154.435199 225.605317 
L 154.78963 225.940683 
L 154.952502 226.093391 
L 155.014852 226.151618 
L 155.291328 226.408279 
L 155.563432 226.658465 
L 155.714248 226.79611 
L 155.826728 226.898297 
L 156.099185 227.144169 
L 156.301374 227.325132 
L 156.508826 227.509493 
L 156.726195 227.701253 
L 156.816137 227.780181 
L 157.095135 228.02346 
L 157.283881 228.186725 
L 157.426465 228.309361 
L 157.693741 228.537639 
L 157.870977 228.687869 
L 158.133234 228.908507 
L 158.333163 229.075391 
L 158.405615 229.135588 
L 158.570795 229.272277 
L 158.889162 229.53358 
L 159.021725 229.641556 
L 159.238593 229.817159 
L 159.431507 229.97229 
L 159.678539 230.169472 
L 159.837828 230.295749 
L 160.032492 230.449155 
L 160.228141 230.602328 
L 160.337918 230.687833 
L 160.587414 230.880997 
L 160.754062 231.009122 
L 160.997369 231.194904 
L 161.238635 231.377639 
L 161.412135 231.508139 
L 161.588039 231.639678 
L 161.803097 231.799448 
L 161.937514 231.898727 
L 162.234667 232.116626 
L 162.445739 232.270095 
L 162.624131 232.398963 
L 162.799623 232.524989 
L 162.975343 232.650442 
L 163.086209 232.729216 
L 163.315152 232.890968 
L 163.455761 232.9897 
L 163.78653 233.22014 
L 163.963161 233.342157 
L 164.06651 233.413218 
L 164.37563 233.624307 
L 164.491224 233.702684 
L 164.616716 233.78743 
L 164.942515 234.005796 
L 165.178108 234.162226 
L 165.370936 234.289347 
L 165.397071 234.306513 
L 165.642372 234.466904 
L 165.958437 234.671631 
L 166.133627 234.784176 
L 166.352043 234.923566 
L 166.471904 234.999626 
L 166.593971 235.076771 
L 166.787688 235.198551 
L 166.950228 235.30012 
L 167.33354 235.537454 
L 167.489517 235.633154 
L 167.626264 235.716641 
L 167.919663 235.894469 
L 167.986719 235.934864 
L 168.160799 236.039302 
L 168.357625 236.156645 
L 168.588852 236.293498 
L 168.84263 236.442462 
L 169.061369 236.569827 
L 169.2 236.650055 
L 169.2 169.2 
z
" clip-path="url(#p9125c6208e)" style="fill: #808080; opacity: 0.5"/>
   </g>
   <g id="matplotlib.axis_1"/>
   <g id="matplotlib.axis_2"/>
   <g id="line2d_1">
    <path d="M 169.2 101.749945 
L 172.741156 103.922373 
L 176.107906 106.241512 
L 179.355018 108.739551 
L 182.463913 111.402735 
L 185.580359 114.378327 
L 188.52544 117.519414 
L 191.074071 120.544257 
L 193.68894 124.006083 
L 196.109284 127.611767 
L 198.308768 131.317756 
L 200.175555 134.885196 
L 201.892034 138.629846 
L 203.394564 142.422932 
L 204.72753 146.390866 
L 205.834352 150.38028 
L 206.707338 154.318298 
L 207.38259 158.348112 
L 207.855618 162.52353 
L 208.102612 166.713692 
L 208.142308 169.2 
L 208.142308 169.2 
" clip-path="url(#p9125c6208e)" style="fill: none; stroke: #0000ff; stroke-linecap: square"/>
   </g>
   <g id="line2d_2">
    <path d="M 169.2 236.650055 
L 172.764284 234.46257 
L 176.291526 232.024354 
L 179.527001 229.520383 
L 182.692603 226.789873 
L 185.749003 223.850963 
L 188.526624 220.87925 
L 191.172545 217.732402 
L 193.66249 214.431017 
L 195.990931 210.975048 
L 198.10011 207.454668 
L 199.885973 204.098651 
L 201.663003 200.301365 
L 203.174679 196.570173 
L 204.538754 192.616599 
L 205.647364 188.755324 
L 206.556906 184.834683 
L 207.273904 180.798123 
L 207.794518 176.552142 
L 208.079733 172.321419 
L 208.142308 169.2 
L 208.142308 169.2 
" clip-path="url(#p9125c6208e)" style="fill: none; stroke: #0000ff; stroke-linecap: square"/>
   </g>
   <g id="line2d_3">
    <path d="M 130.257692 169.2 
L 130.394485 164.585966 
L 130.73258 160.612372 
L 131.289262 156.565814 
L 132.038428 152.64063 
L 133.049668 148.533388 
L 134.294162 144.451975 
L 135.650582 140.722587 
L 137.257275 136.930425 
L 138.996152 133.355579 
L 140.929914 129.84892 
L 143.253271 126.125341 
L 145.571389 122.822275 
L 148.165825 119.512629 
L 150.949471 116.332309 
L 153.91666 113.293002 
L 156.95961 110.494423 
L 160.250512 107.780222 
L 163.462227 105.40577 
L 166.989206 103.075606 
L 169.2 101.749945 
L 169.2 101.749945 
" clip-path="url(#p9125c6208e)" style="fill: none; stroke: #0000ff; stroke-linecap: square"/>
   </g>
   <g id="line2d_4">
    <path d="M 130.257692 169.2 
L 130.390651 173.74897 
L 130.75804 178.014107 
L 131.330052 182.079856 
L 132.066286 185.886887 
L 133.085807 189.997476 
L 134.338161 194.078932 
L 135.802329 198.060714 
L 137.39723 201.775256 
L 139.053501 205.154835 
L 141.228271 209.056304 
L 143.31325 212.364876 
L 145.818704 215.909546 
L 148.537445 219.332561 
L 151.35321 222.501142 
L 154.435199 225.605317 
L 157.693741 228.537639 
L 160.997369 231.194904 
L 164.491224 233.702684 
L 167.986719 235.934864 
L 169.2 236.650055 
L 169.2 236.650055 
" clip-path="url(#p9125c6208e)" style="fill: none; stroke: #0000ff; stroke-linecap: square"/>
   </g>
   <g id="text_1">
    <!-- $\Omega$ -->
    <g transform="translate(17.569231 23.978606)scale(0.1 -0.1)">
     <defs>
      <path id="Cmr10-ad" d="M 494 0 
L 281 1063 
L 469 1063 
Q 503 878 531 736 
Q 559 594 604 536 
Q 650 478 750 459 
Q 850 441 1081 441 
L 1472 441 
Q 1378 803 1004 1386 
Q 631 1969 495 2233 
Q 359 2497 359 2913 
Q 359 3397 646 3761 
Q 934 4125 1389 4319 
Q 1844 4513 2309 4513 
Q 2772 4513 3226 4319 
Q 3681 4125 3968 3758 
Q 4256 3391 4256 2913 
Q 4256 2588 4137 2300 
Q 4019 2013 3834 1725 
Q 3650 1438 3436 1084 
Q 3222 731 3144 441 
L 3531 441 
Q 3766 441 3869 459 
Q 3972 478 4015 536 
Q 4059 594 4086 736 
Q 4113 878 4147 1063 
L 4331 1063 
L 4122 0 
L 2988 0 
Q 2925 0 2925 84 
Q 2925 409 3004 721 
Q 3084 1034 3240 1478 
Q 3397 1922 3484 2261 
Q 3572 2600 3572 2913 
Q 3572 3297 3422 3625 
Q 3272 3953 2984 4150 
Q 2697 4347 2309 4347 
Q 1725 4347 1384 3930 
Q 1044 3513 1044 2913 
Q 1047 2584 1122 2293 
Q 1197 2003 1364 1518 
Q 1531 1034 1611 721 
Q 1691 409 1691 84 
Q 1691 0 1625 0 
L 494 0 
z
" transform="scale(0.015625)"/>
     </defs>
     <use xlink:href="#Cmr10-ad" transform="translate(0 0.484375)"/>
    </g>
   </g>
   <g id="text_2">
    <!-- $A$ -->
    <g style="fill: #0000ff" transform="translate(87.565385 94.07476)scale(0.1 -0.1)">
     <defs>
      <path id="Cmmi10-41" d="M 288 0 
Q 225 0 225 84 
Q 250 225 306 225 
Q 566 225 755 328 
Q 944 431 1081 647 
Q 1094 659 1094 659 
L 3378 4513 
Q 3428 4581 3500 4581 
L 3584 4581 
Q 3603 4581 3622 4573 
Q 3641 4566 3655 4548 
Q 3669 4531 3669 4513 
L 4056 378 
Q 4056 350 4084 294 
Q 4147 225 4563 225 
Q 4628 225 4628 141 
Q 4606 56 4592 28 
Q 4578 0 4519 0 
L 2919 0 
Q 2859 0 2859 84 
Q 2894 225 2944 225 
Q 3450 225 3481 397 
L 3384 1453 
L 1806 1453 
L 1294 594 
Q 1247 525 1247 434 
Q 1247 322 1355 273 
Q 1463 225 1594 225 
Q 1656 225 1656 141 
Q 1634 50 1621 25 
Q 1609 0 1550 0 
L 288 0 
z
M 1931 1678 
L 3359 1678 
L 3169 3750 
L 1931 1678 
z
" transform="scale(0.015625)"/>
     </defs>
     <use xlink:href="#Cmmi10-41" transform="translate(0 0.421875)"/>
    </g>
   </g>
   <g id="text_3">
    <!-- $B$ -->
    <g style="fill: #ff0000" transform="translate(243.284615 94.07476)scale(0.1 -0.1)">
     <defs>
      <path id="Cmmi10-42" d="M 319 0 
Q 256 0 256 84 
Q 259 100 268 137 
Q 278 175 293 200 
Q 309 225 341 225 
Q 522 225 656 234 
Q 791 244 884 269 
Q 959 297 1006 441 
L 1881 3956 
Q 1894 4019 1894 4044 
Q 1894 4113 1819 4122 
Q 1697 4147 1356 4147 
Q 1294 4147 1294 4231 
Q 1297 4247 1306 4286 
Q 1316 4325 1333 4348 
Q 1350 4372 1375 4372 
L 3669 4372 
Q 3878 4372 4083 4320 
Q 4288 4269 4461 4156 
Q 4634 4044 4736 3876 
Q 4838 3709 4838 3488 
Q 4838 3247 4714 3040 
Q 4591 2834 4395 2681 
Q 4200 2528 3973 2429 
Q 3747 2331 3500 2284 
Q 3675 2284 3854 2215 
Q 4034 2147 4175 2028 
Q 4316 1909 4402 1743 
Q 4488 1578 4488 1388 
Q 4488 1003 4219 684 
Q 3950 366 3542 183 
Q 3134 0 2753 0 
L 319 0 
z
M 1497 275 
Q 1497 225 1716 225 
L 2631 225 
Q 2944 225 3231 398 
Q 3519 572 3692 859 
Q 3866 1147 3866 1459 
Q 3866 1650 3786 1820 
Q 3706 1991 3556 2089 
Q 3406 2188 3213 2188 
L 1966 2188 
L 1522 416 
Q 1497 328 1497 275 
z
M 2009 2356 
L 2981 2356 
Q 3288 2356 3577 2512 
Q 3866 2669 4048 2937 
Q 4231 3206 4231 3506 
Q 4231 3784 4057 3965 
Q 3884 4147 3609 4147 
L 2731 4147 
Q 2559 4147 2500 4115 
Q 2441 4084 2400 3928 
L 2009 2356 
z
" transform="scale(0.015625)"/>
     </defs>
     <use xlink:href="#Cmmi10-42" transform="translate(0 0.6875)"/>
    </g>
   </g>
   <g id="text_4">
    <!-- $A\cap B$, colorée en gris -->
    <g transform="translate(116.25 55.323077)scale(0.1 -0.1)">
     <defs>
      <path id="Cmsy10-5c" d="M 359 -25 
L 359 2472 
Q 359 2897 625 3206 
Q 891 3516 1306 3672 
Q 1722 3828 2131 3828 
Q 2434 3828 2745 3745 
Q 3056 3663 3320 3489 
Q 3584 3316 3743 3056 
Q 3903 2797 3903 2472 
L 3903 -25 
Q 3903 -75 3865 -108 
Q 3828 -141 3775 -141 
Q 3728 -141 3687 -108 
Q 3647 -75 3647 -25 
L 3647 2450 
Q 3647 2731 3508 2945 
Q 3369 3159 3151 3293 
Q 2934 3428 2662 3500 
Q 2391 3572 2131 3572 
Q 1775 3572 1426 3447 
Q 1078 3322 847 3069 
Q 616 2816 616 2450 
L 616 -25 
Q 616 -75 575 -108 
Q 534 -141 488 -141 
Q 434 -141 396 -108 
Q 359 -75 359 -25 
z
" transform="scale(0.015625)"/>
      <path id="DejaVuSans-2c" d="M 750 794 
L 1409 794 
L 1409 256 
L 897 -744 
L 494 -744 
L 750 256 
L 750 794 
z
" transform="scale(0.015625)"/>
      <path id="DejaVuSans-20" transform="scale(0.015625)"/>
      <path id="DejaVuSans-63" d="M 3122 3366 
L 3122 2828 
Q 2878 2963 2633 3030 
Q 2388 3097 2138 3097 
Q 1578 3097 1268 2742 
Q 959 2388 959 1747 
Q 959 1106 1268 751 
Q 1578 397 2138 397 
Q 2388 397 2633 464 
Q 2878 531 3122 666 
L 3122 134 
Q 2881 22 2623 -34 
Q 2366 -91 2075 -91 
Q 1284 -91 818 406 
Q 353 903 353 1747 
Q 353 2603 823 3093 
Q 1294 3584 2113 3584 
Q 2378 3584 2631 3529 
Q 2884 3475 3122 3366 
z
" transform="scale(0.015625)"/>
      <path id="DejaVuSans-6f" d="M 1959 3097 
Q 1497 3097 1228 2736 
Q 959 2375 959 1747 
Q 959 1119 1226 758 
Q 1494 397 1959 397 
Q 2419 397 2687 759 
Q 2956 1122 2956 1747 
Q 2956 2369 2687 2733 
Q 2419 3097 1959 3097 
z
M 1959 3584 
Q 2709 3584 3137 3096 
Q 3566 2609 3566 1747 
Q 3566 888 3137 398 
Q 2709 -91 1959 -91 
Q 1206 -91 779 398 
Q 353 888 353 1747 
Q 353 2609 779 3096 
Q 1206 3584 1959 3584 
z
" transform="scale(0.015625)"/>
      <path id="DejaVuSans-6c" d="M 603 4863 
L 1178 4863 
L 1178 0 
L 603 0 
L 603 4863 
z
" transform="scale(0.015625)"/>
      <path id="DejaVuSans-72" d="M 2631 2963 
Q 2534 3019 2420 3045 
Q 2306 3072 2169 3072 
Q 1681 3072 1420 2755 
Q 1159 2438 1159 1844 
L 1159 0 
L 581 0 
L 581 3500 
L 1159 3500 
L 1159 2956 
Q 1341 3275 1631 3429 
Q 1922 3584 2338 3584 
Q 2397 3584 2469 3576 
Q 2541 3569 2628 3553 
L 2631 2963 
z
" transform="scale(0.015625)"/>
      <path id="DejaVuSans-e9" d="M 3597 1894 
L 3597 1613 
L 953 1613 
Q 991 1019 1311 708 
Q 1631 397 2203 397 
Q 2534 397 2845 478 
Q 3156 559 3463 722 
L 3463 178 
Q 3153 47 2828 -22 
Q 2503 -91 2169 -91 
Q 1331 -91 842 396 
Q 353 884 353 1716 
Q 353 2575 817 3079 
Q 1281 3584 2069 3584 
Q 2775 3584 3186 3129 
Q 3597 2675 3597 1894 
z
M 3022 2063 
Q 3016 2534 2758 2815 
Q 2500 3097 2075 3097 
Q 1594 3097 1305 2825 
Q 1016 2553 972 2059 
L 3022 2063 
z
M 2469 5119 
L 3091 5119 
L 2072 3944 
L 1594 3944 
L 2469 5119 
z
" transform="scale(0.015625)"/>
      <path id="DejaVuSans-65" d="M 3597 1894 
L 3597 1613 
L 953 1613 
Q 991 1019 1311 708 
Q 1631 397 2203 397 
Q 2534 397 2845 478 
Q 3156 559 3463 722 
L 3463 178 
Q 3153 47 2828 -22 
Q 2503 -91 2169 -91 
Q 1331 -91 842 396 
Q 353 884 353 1716 
Q 353 2575 817 3079 
Q 1281 3584 2069 3584 
Q 2775 3584 3186 3129 
Q 3597 2675 3597 1894 
z
M 3022 2063 
Q 3016 2534 2758 2815 
Q 2500 3097 2075 3097 
Q 1594 3097 1305 2825 
Q 1016 2553 972 2059 
L 3022 2063 
z
" transform="scale(0.015625)"/>
      <path id="DejaVuSans-6e" d="M 3513 2113 
L 3513 0 
L 2938 0 
L 2938 2094 
Q 2938 2591 2744 2837 
Q 2550 3084 2163 3084 
Q 1697 3084 1428 2787 
Q 1159 2491 1159 1978 
L 1159 0 
L 581 0 
L 581 3500 
L 1159 3500 
L 1159 2956 
Q 1366 3272 1645 3428 
Q 1925 3584 2291 3584 
Q 2894 3584 3203 3211 
Q 3513 2838 3513 2113 
z
" transform="scale(0.015625)"/>
      <path id="DejaVuSans-67" d="M 2906 1791 
Q 2906 2416 2648 2759 
Q 2391 3103 1925 3103 
Q 1463 3103 1205 2759 
Q 947 2416 947 1791 
Q 947 1169 1205 825 
Q 1463 481 1925 481 
Q 2391 481 2648 825 
Q 2906 1169 2906 1791 
z
M 3481 434 
Q 3481 -459 3084 -895 
Q 2688 -1331 1869 -1331 
Q 1566 -1331 1297 -1286 
Q 1028 -1241 775 -1147 
L 775 -588 
Q 1028 -725 1275 -790 
Q 1522 -856 1778 -856 
Q 2344 -856 2625 -561 
Q 2906 -266 2906 331 
L 2906 616 
Q 2728 306 2450 153 
Q 2172 0 1784 0 
Q 1141 0 747 490 
Q 353 981 353 1791 
Q 353 2603 747 3093 
Q 1141 3584 1784 3584 
Q 2172 3584 2450 3431 
Q 2728 3278 2906 2969 
L 2906 3500 
L 3481 3500 
L 3481 434 
z
" transform="scale(0.015625)"/>
      <path id="DejaVuSans-69" d="M 603 3500 
L 1178 3500 
L 1178 0 
L 603 0 
L 603 3500 
z
M 603 4863 
L 1178 4863 
L 1178 4134 
L 603 4134 
L 603 4863 
z
" transform="scale(0.015625)"/>
      <path id="DejaVuSans-73" d="M 2834 3397 
L 2834 2853 
Q 2591 2978 2328 3040 
Q 2066 3103 1784 3103 
Q 1356 3103 1142 2972 
Q 928 2841 928 2578 
Q 928 2378 1081 2264 
Q 1234 2150 1697 2047 
L 1894 2003 
Q 2506 1872 2764 1633 
Q 3022 1394 3022 966 
Q 3022 478 2636 193 
Q 2250 -91 1575 -91 
Q 1294 -91 989 -36 
Q 684 19 347 128 
L 347 722 
Q 666 556 975 473 
Q 1284 391 1588 391 
Q 1994 391 2212 530 
Q 2431 669 2431 922 
Q 2431 1156 2273 1281 
Q 2116 1406 1581 1522 
L 1381 1569 
Q 847 1681 609 1914 
Q 372 2147 372 2553 
Q 372 3047 722 3315 
Q 1072 3584 1716 3584 
Q 2034 3584 2315 3537 
Q 2597 3491 2834 3397 
z
" transform="scale(0.015625)"/>
     </defs>
     <use xlink:href="#Cmmi10-41" transform="translate(0 0.015625)"/>
     <use xlink:href="#Cmsy10-5c" transform="translate(92.558594 0.015625)"/>
     <use xlink:href="#Cmmi10-42" transform="translate(176.71875 0.015625)"/>
     <use xlink:href="#DejaVuSans-2c" transform="translate(252.5 0.015625)"/>
     <use xlink:href="#DejaVuSans-20" transform="translate(284.287109 0.015625)"/>
     <use xlink:href="#DejaVuSans-63" transform="translate(316.074219 0.015625)"/>
     <use xlink:href="#DejaVuSans-6f" transform="translate(371.054688 0.015625)"/>
     <use xlink:href="#DejaVuSans-6c" transform="translate(432.236328 0.015625)"/>
     <use xlink:href="#DejaVuSans-6f" transform="translate(460.019531 0.015625)"/>
     <use xlink:href="#DejaVuSans-72" transform="translate(521.201172 0.015625)"/>
     <use xlink:href="#DejaVuSans-e9" transform="translate(562.314453 0.015625)"/>
     <use xlink:href="#DejaVuSans-65" transform="translate(623.837891 0.015625)"/>
     <use xlink:href="#DejaVuSans-20" transform="translate(685.361328 0.015625)"/>
     <use xlink:href="#DejaVuSans-65" transform="translate(717.148438 0.015625)"/>
     <use xlink:href="#DejaVuSans-6e" transform="translate(778.671875 0.015625)"/>
     <use xlink:href="#DejaVuSans-20" transform="translate(842.050781 0.015625)"/>
     <use xlink:href="#DejaVuSans-67" transform="translate(873.837891 0.015625)"/>
     <use xlink:href="#DejaVuSans-72" transform="translate(937.314453 0.015625)"/>
     <use xlink:href="#DejaVuSans-69" transform="translate(978.427734 0.015625)"/>
     <use xlink:href="#DejaVuSans-73" transform="translate(1006.210938 0.015625)"/>
    </g>
   </g>
   <g id="patch_8">
    <path d="M 130.257692 247.084615 
C 150.912934 247.084615 170.724971 238.878201 185.330432 224.27274 
C 199.935893 209.667278 208.142308 189.855241 208.142308 169.2 
C 208.142308 148.544759 199.935893 128.732722 185.330432 114.12726 
C 170.724971 99.521799 150.912934 91.315385 130.257692 91.315385 
C 109.602451 91.315385 89.790414 99.521799 75.184953 114.12726 
C 60.579491 128.732722 52.373077 148.544759 52.373077 169.2 
C 52.373077 189.855241 60.579491 209.667278 75.184953 224.27274 
C 89.790414 238.878201 109.602451 247.084615 130.257692 247.084615 
L 130.257692 247.084615 
z
" clip-path="url(#p9125c6208e)" style="fill: none; stroke: #0000ff; stroke-linejoin: miter"/>
   </g>
   <g id="patch_9">
    <path d="M 208.142308 247.084615 
C 228.797549 247.084615 248.609586 238.878201 263.215047 224.27274 
C 277.820509 209.667278 286.026923 189.855241 286.026923 169.2 
C 286.026923 148.544759 277.820509 128.732722 263.215047 114.12726 
C 248.609586 99.521799 228.797549 91.315385 208.142308 91.315385 
C 187.487066 91.315385 167.675029 99.521799 153.069568 114.12726 
C 138.464107 128.732722 130.257692 148.544759 130.257692 169.2 
C 130.257692 189.855241 138.464107 209.667278 153.069568 224.27274 
C 167.675029 238.878201 187.487066 247.084615 208.142308 247.084615 
L 208.142308 247.084615 
z
" clip-path="url(#p9125c6208e)" style="fill: none; stroke: #ff0000; stroke-linejoin: miter"/>
   </g>
  </g>
 </g>
 <defs>
  <clipPath id="p9125c6208e">
   <rect x="7.2" y="7.2" width="324" height="324"/>
  </clipPath>
 </defs>
</svg>
