<?xml version="1.0" encoding="utf-8" standalone="no"?>
<!DOCTYPE svg PUBLIC "-//W3C//DTD SVG 1.1//EN"
  "http://www.w3.org/Graphics/SVG/1.1/DTD/svg11.dtd">
<svg xmlns:xlink="http://www.w3.org/1999/xlink" width="453.6pt" height="337.731323pt" viewBox="0 0 453.6 337.731323" xmlns="http://www.w3.org/2000/svg" version="1.1">
 <metadata>
  <rdf:RDF xmlns:dc="http://purl.org/dc/elements/1.1/" xmlns:cc="http://creativecommons.org/ns#" xmlns:rdf="http://www.w3.org/1999/02/22-rdf-syntax-ns#">
   <cc:Work>
    <dc:type rdf:resource="http://purl.org/dc/dcmitype/StillImage"/>
    <dc:date>2022-08-25T17:40:25.739210</dc:date>
    <dc:format>image/svg+xml</dc:format>
    <dc:creator>
     <cc:Agent>
      <dc:title>Matplotlib v3.5.2, https://matplotlib.org/</dc:title>
     </cc:Agent>
    </dc:creator>
   </cc:Work>
  </rdf:RDF>
 </metadata>
 <defs>
  <style type="text/css">*{stroke-linejoin: round; stroke-linecap: butt}</style>
 </defs>
 <g id="figure_1">
  <g id="patch_1">
   <path d="M 0 337.731323 
L 453.6 337.731323 
L 453.6 0 
L 0 0 
z
" style="fill: #ffffff"/>
  </g>
  <g id="axes_1">
   <g id="patch_2">
    <path d="M 7.2 325.503676 
L 446.4 325.503676 
L 446.4 10.142055 
L 7.2 10.142055 
z
" style="fill: #ffffff"/>
   </g>
   <g id="matplotlib.axis_1">
    <g id="xtick_1">
     <g id="line2d_1">
      <defs>
       <path id="m0cc64626b6" d="M 0 0 
L 0 3.5 
" style="stroke: #000000; stroke-width: 0.8"/>
      </defs>
      <g>
       <use xlink:href="#m0cc64626b6" x="25.16293" y="167.825818" style="stroke: #000000; stroke-width: 0.8"/>
      </g>
     </g>
     <g id="text_1">
      <!-- −3 -->
      <g transform="translate(17.791836 182.424255)scale(0.1 -0.1)">
       <defs>
        <path id="DejaVuSans-2212" d="M 678 2272 
L 4684 2272 
L 4684 1741 
L 678 1741 
L 678 2272 
z
" transform="scale(0.015625)"/>
        <path id="DejaVuSans-33" d="M 2597 2516 
Q 3050 2419 3304 2112 
Q 3559 1806 3559 1356 
Q 3559 666 3084 287 
Q 2609 -91 1734 -91 
Q 1441 -91 1130 -33 
Q 819 25 488 141 
L 488 750 
Q 750 597 1062 519 
Q 1375 441 1716 441 
Q 2309 441 2620 675 
Q 2931 909 2931 1356 
Q 2931 1769 2642 2001 
Q 2353 2234 1838 2234 
L 1294 2234 
L 1294 2753 
L 1863 2753 
Q 2328 2753 2575 2939 
Q 2822 3125 2822 3475 
Q 2822 3834 2567 4026 
Q 2313 4219 1838 4219 
Q 1578 4219 1281 4162 
Q 984 4106 628 3988 
L 628 4550 
Q 988 4650 1302 4700 
Q 1616 4750 1894 4750 
Q 2613 4750 3031 4423 
Q 3450 4097 3450 3541 
Q 3450 3153 3228 2886 
Q 3006 2619 2597 2516 
z
" transform="scale(0.015625)"/>
       </defs>
       <use xlink:href="#DejaVuSans-2212"/>
       <use xlink:href="#DejaVuSans-33" x="83.789062"/>
      </g>
     </g>
    </g>
    <g id="xtick_2">
     <g id="line2d_2">
      <g>
       <use xlink:href="#m0cc64626b6" x="92.375287" y="167.825818" style="stroke: #000000; stroke-width: 0.8"/>
      </g>
     </g>
     <g id="text_2">
      <!-- −2 -->
      <g transform="translate(85.004193 182.424255)scale(0.1 -0.1)">
       <defs>
        <path id="DejaVuSans-32" d="M 1228 531 
L 3431 531 
L 3431 0 
L 469 0 
L 469 531 
Q 828 903 1448 1529 
Q 2069 2156 2228 2338 
Q 2531 2678 2651 2914 
Q 2772 3150 2772 3378 
Q 2772 3750 2511 3984 
Q 2250 4219 1831 4219 
Q 1534 4219 1204 4116 
Q 875 4013 500 3803 
L 500 4441 
Q 881 4594 1212 4672 
Q 1544 4750 1819 4750 
Q 2544 4750 2975 4387 
Q 3406 4025 3406 3419 
Q 3406 3131 3298 2873 
Q 3191 2616 2906 2266 
Q 2828 2175 2409 1742 
Q 1991 1309 1228 531 
z
" transform="scale(0.015625)"/>
       </defs>
       <use xlink:href="#DejaVuSans-2212"/>
       <use xlink:href="#DejaVuSans-32" x="83.789062"/>
      </g>
     </g>
    </g>
    <g id="xtick_3">
     <g id="line2d_3">
      <g>
       <use xlink:href="#m0cc64626b6" x="159.587643" y="167.825818" style="stroke: #000000; stroke-width: 0.8"/>
      </g>
     </g>
     <g id="text_3">
      <!-- −1 -->
      <g transform="translate(152.21655 182.424255)scale(0.1 -0.1)">
       <defs>
        <path id="DejaVuSans-31" d="M 794 531 
L 1825 531 
L 1825 4091 
L 703 3866 
L 703 4441 
L 1819 4666 
L 2450 4666 
L 2450 531 
L 3481 531 
L 3481 0 
L 794 0 
L 794 531 
z
" transform="scale(0.015625)"/>
       </defs>
       <use xlink:href="#DejaVuSans-2212"/>
       <use xlink:href="#DejaVuSans-31" x="83.789062"/>
      </g>
     </g>
    </g>
    <g id="xtick_4">
     <g id="line2d_4">
      <g>
       <use xlink:href="#m0cc64626b6" x="226.8" y="167.825818" style="stroke: #000000; stroke-width: 0.8"/>
      </g>
     </g>
    </g>
    <g id="xtick_5">
     <g id="line2d_5">
      <g>
       <use xlink:href="#m0cc64626b6" x="294.012357" y="167.825818" style="stroke: #000000; stroke-width: 0.8"/>
      </g>
     </g>
     <g id="text_4">
      <!-- 1 -->
      <g transform="translate(290.831107 182.424255)scale(0.1 -0.1)">
       <use xlink:href="#DejaVuSans-31"/>
      </g>
     </g>
    </g>
    <g id="xtick_6">
     <g id="line2d_6">
      <g>
       <use xlink:href="#m0cc64626b6" x="361.224713" y="167.825818" style="stroke: #000000; stroke-width: 0.8"/>
      </g>
     </g>
     <g id="text_5">
      <!-- 2 -->
      <g transform="translate(358.043463 182.424255)scale(0.1 -0.1)">
       <use xlink:href="#DejaVuSans-32"/>
      </g>
     </g>
    </g>
    <g id="xtick_7">
     <g id="line2d_7">
      <g>
       <use xlink:href="#m0cc64626b6" x="428.43707" y="167.825818" style="stroke: #000000; stroke-width: 0.8"/>
      </g>
     </g>
     <g id="text_6">
      <!-- 3 -->
      <g transform="translate(425.25582 182.424255)scale(0.1 -0.1)">
       <use xlink:href="#DejaVuSans-33"/>
      </g>
     </g>
    </g>
    <g id="xtick_8">
     <g id="line2d_8">
      <defs>
       <path id="m071595921c" d="M 0 0 
L 0 2 
" style="stroke: #000000; stroke-width: 0.6"/>
      </defs>
      <g>
       <use xlink:href="#m071595921c" x="11.720458" y="167.825818" style="stroke: #000000; stroke-width: 0.6"/>
      </g>
     </g>
    </g>
    <g id="xtick_9">
     <g id="line2d_9">
      <g>
       <use xlink:href="#m071595921c" x="38.605401" y="167.825818" style="stroke: #000000; stroke-width: 0.6"/>
      </g>
     </g>
    </g>
    <g id="xtick_10">
     <g id="line2d_10">
      <g>
       <use xlink:href="#m071595921c" x="52.047872" y="167.825818" style="stroke: #000000; stroke-width: 0.6"/>
      </g>
     </g>
    </g>
    <g id="xtick_11">
     <g id="line2d_11">
      <g>
       <use xlink:href="#m071595921c" x="65.490344" y="167.825818" style="stroke: #000000; stroke-width: 0.6"/>
      </g>
     </g>
    </g>
    <g id="xtick_12">
     <g id="line2d_12">
      <g>
       <use xlink:href="#m071595921c" x="78.932815" y="167.825818" style="stroke: #000000; stroke-width: 0.6"/>
      </g>
     </g>
    </g>
    <g id="xtick_13">
     <g id="line2d_13">
      <g>
       <use xlink:href="#m071595921c" x="105.817758" y="167.825818" style="stroke: #000000; stroke-width: 0.6"/>
      </g>
     </g>
    </g>
    <g id="xtick_14">
     <g id="line2d_14">
      <g>
       <use xlink:href="#m071595921c" x="119.260229" y="167.825818" style="stroke: #000000; stroke-width: 0.6"/>
      </g>
     </g>
    </g>
    <g id="xtick_15">
     <g id="line2d_15">
      <g>
       <use xlink:href="#m071595921c" x="132.702701" y="167.825818" style="stroke: #000000; stroke-width: 0.6"/>
      </g>
     </g>
    </g>
    <g id="xtick_16">
     <g id="line2d_16">
      <g>
       <use xlink:href="#m071595921c" x="146.145172" y="167.825818" style="stroke: #000000; stroke-width: 0.6"/>
      </g>
     </g>
    </g>
    <g id="xtick_17">
     <g id="line2d_17">
      <g>
       <use xlink:href="#m071595921c" x="173.030115" y="167.825818" style="stroke: #000000; stroke-width: 0.6"/>
      </g>
     </g>
    </g>
    <g id="xtick_18">
     <g id="line2d_18">
      <g>
       <use xlink:href="#m071595921c" x="186.472586" y="167.825818" style="stroke: #000000; stroke-width: 0.6"/>
      </g>
     </g>
    </g>
    <g id="xtick_19">
     <g id="line2d_19">
      <g>
       <use xlink:href="#m071595921c" x="199.915057" y="167.825818" style="stroke: #000000; stroke-width: 0.6"/>
      </g>
     </g>
    </g>
    <g id="xtick_20">
     <g id="line2d_20">
      <g>
       <use xlink:href="#m071595921c" x="213.357529" y="167.825818" style="stroke: #000000; stroke-width: 0.6"/>
      </g>
     </g>
    </g>
    <g id="xtick_21">
     <g id="line2d_21">
      <g>
       <use xlink:href="#m071595921c" x="240.242471" y="167.825818" style="stroke: #000000; stroke-width: 0.6"/>
      </g>
     </g>
    </g>
    <g id="xtick_22">
     <g id="line2d_22">
      <g>
       <use xlink:href="#m071595921c" x="253.684943" y="167.825818" style="stroke: #000000; stroke-width: 0.6"/>
      </g>
     </g>
    </g>
    <g id="xtick_23">
     <g id="line2d_23">
      <g>
       <use xlink:href="#m071595921c" x="267.127414" y="167.825818" style="stroke: #000000; stroke-width: 0.6"/>
      </g>
     </g>
    </g>
    <g id="xtick_24">
     <g id="line2d_24">
      <g>
       <use xlink:href="#m071595921c" x="280.569885" y="167.825818" style="stroke: #000000; stroke-width: 0.6"/>
      </g>
     </g>
    </g>
    <g id="xtick_25">
     <g id="line2d_25">
      <g>
       <use xlink:href="#m071595921c" x="307.454828" y="167.825818" style="stroke: #000000; stroke-width: 0.6"/>
      </g>
     </g>
    </g>
    <g id="xtick_26">
     <g id="line2d_26">
      <g>
       <use xlink:href="#m071595921c" x="320.897299" y="167.825818" style="stroke: #000000; stroke-width: 0.6"/>
      </g>
     </g>
    </g>
    <g id="xtick_27">
     <g id="line2d_27">
      <g>
       <use xlink:href="#m071595921c" x="334.339771" y="167.825818" style="stroke: #000000; stroke-width: 0.6"/>
      </g>
     </g>
    </g>
    <g id="xtick_28">
     <g id="line2d_28">
      <g>
       <use xlink:href="#m071595921c" x="347.782242" y="167.825818" style="stroke: #000000; stroke-width: 0.6"/>
      </g>
     </g>
    </g>
    <g id="xtick_29">
     <g id="line2d_29">
      <g>
       <use xlink:href="#m071595921c" x="374.667185" y="167.825818" style="stroke: #000000; stroke-width: 0.6"/>
      </g>
     </g>
    </g>
    <g id="xtick_30">
     <g id="line2d_30">
      <g>
       <use xlink:href="#m071595921c" x="388.109656" y="167.825818" style="stroke: #000000; stroke-width: 0.6"/>
      </g>
     </g>
    </g>
    <g id="xtick_31">
     <g id="line2d_31">
      <g>
       <use xlink:href="#m071595921c" x="401.552128" y="167.825818" style="stroke: #000000; stroke-width: 0.6"/>
      </g>
     </g>
    </g>
    <g id="xtick_32">
     <g id="line2d_32">
      <g>
       <use xlink:href="#m071595921c" x="414.994599" y="167.825818" style="stroke: #000000; stroke-width: 0.6"/>
      </g>
     </g>
    </g>
    <g id="xtick_33">
     <g id="line2d_33">
      <g>
       <use xlink:href="#m071595921c" x="441.879542" y="167.825818" style="stroke: #000000; stroke-width: 0.6"/>
      </g>
     </g>
    </g>
   </g>
   <g id="matplotlib.axis_2">
    <g id="ytick_1">
     <g id="line2d_34">
      <defs>
       <path id="mf35a804ee1" d="M 0 0 
L -3.5 0 
" style="stroke: #000000; stroke-width: 0.8"/>
      </defs>
      <g>
       <use xlink:href="#mf35a804ee1" x="226.8" y="324.652416" style="stroke: #000000; stroke-width: 0.8"/>
      </g>
     </g>
     <g id="text_7">
      <!-- −1.0 -->
      <g transform="translate(195.517187 328.451635)scale(0.1 -0.1)">
       <defs>
        <path id="DejaVuSans-2e" d="M 684 794 
L 1344 794 
L 1344 0 
L 684 0 
L 684 794 
z
" transform="scale(0.015625)"/>
        <path id="DejaVuSans-30" d="M 2034 4250 
Q 1547 4250 1301 3770 
Q 1056 3291 1056 2328 
Q 1056 1369 1301 889 
Q 1547 409 2034 409 
Q 2525 409 2770 889 
Q 3016 1369 3016 2328 
Q 3016 3291 2770 3770 
Q 2525 4250 2034 4250 
z
M 2034 4750 
Q 2819 4750 3233 4129 
Q 3647 3509 3647 2328 
Q 3647 1150 3233 529 
Q 2819 -91 2034 -91 
Q 1250 -91 836 529 
Q 422 1150 422 2328 
Q 422 3509 836 4129 
Q 1250 4750 2034 4750 
z
" transform="scale(0.015625)"/>
       </defs>
       <use xlink:href="#DejaVuSans-2212"/>
       <use xlink:href="#DejaVuSans-31" x="83.789062"/>
       <use xlink:href="#DejaVuSans-2e" x="147.412109"/>
       <use xlink:href="#DejaVuSans-30" x="179.199219"/>
      </g>
     </g>
    </g>
    <g id="ytick_2">
     <g id="line2d_35">
      <g>
       <use xlink:href="#mf35a804ee1" x="226.8" y="246.239117" style="stroke: #000000; stroke-width: 0.8"/>
      </g>
     </g>
     <g id="text_8">
      <!-- −0.5 -->
      <g transform="translate(195.517187 250.038336)scale(0.1 -0.1)">
       <defs>
        <path id="DejaVuSans-35" d="M 691 4666 
L 3169 4666 
L 3169 4134 
L 1269 4134 
L 1269 2991 
Q 1406 3038 1543 3061 
Q 1681 3084 1819 3084 
Q 2600 3084 3056 2656 
Q 3513 2228 3513 1497 
Q 3513 744 3044 326 
Q 2575 -91 1722 -91 
Q 1428 -91 1123 -41 
Q 819 9 494 109 
L 494 744 
Q 775 591 1075 516 
Q 1375 441 1709 441 
Q 2250 441 2565 725 
Q 2881 1009 2881 1497 
Q 2881 1984 2565 2268 
Q 2250 2553 1709 2553 
Q 1456 2553 1204 2497 
Q 953 2441 691 2322 
L 691 4666 
z
" transform="scale(0.015625)"/>
       </defs>
       <use xlink:href="#DejaVuSans-2212"/>
       <use xlink:href="#DejaVuSans-30" x="83.789062"/>
       <use xlink:href="#DejaVuSans-2e" x="147.412109"/>
       <use xlink:href="#DejaVuSans-35" x="179.199219"/>
      </g>
     </g>
    </g>
    <g id="ytick_3">
     <g id="line2d_36">
      <g>
       <use xlink:href="#mf35a804ee1" x="226.8" y="167.825818" style="stroke: #000000; stroke-width: 0.8"/>
      </g>
     </g>
    </g>
    <g id="ytick_4">
     <g id="line2d_37">
      <g>
       <use xlink:href="#mf35a804ee1" x="226.8" y="89.412518" style="stroke: #000000; stroke-width: 0.8"/>
      </g>
     </g>
     <g id="text_9">
      <!-- 0.5 -->
      <g transform="translate(203.896875 93.211737)scale(0.1 -0.1)">
       <use xlink:href="#DejaVuSans-30"/>
       <use xlink:href="#DejaVuSans-2e" x="63.623047"/>
       <use xlink:href="#DejaVuSans-35" x="95.410156"/>
      </g>
     </g>
    </g>
    <g id="ytick_5">
     <g id="line2d_38">
      <g>
       <use xlink:href="#mf35a804ee1" x="226.8" y="10.999219" style="stroke: #000000; stroke-width: 0.8"/>
      </g>
     </g>
     <g id="text_10">
      <!-- 1.0 -->
      <g transform="translate(203.896875 14.798437)scale(0.1 -0.1)">
       <use xlink:href="#DejaVuSans-31"/>
       <use xlink:href="#DejaVuSans-2e" x="63.623047"/>
       <use xlink:href="#DejaVuSans-30" x="95.410156"/>
      </g>
     </g>
    </g>
    <g id="ytick_6">
     <g id="line2d_39">
      <defs>
       <path id="m339a1da788" d="M 0 0 
L -2 0 
" style="stroke: #000000; stroke-width: 0.6"/>
      </defs>
      <g>
       <use xlink:href="#m339a1da788" x="226.8" y="308.969757" style="stroke: #000000; stroke-width: 0.6"/>
      </g>
     </g>
    </g>
    <g id="ytick_7">
     <g id="line2d_40">
      <g>
       <use xlink:href="#m339a1da788" x="226.8" y="293.287097" style="stroke: #000000; stroke-width: 0.6"/>
      </g>
     </g>
    </g>
    <g id="ytick_8">
     <g id="line2d_41">
      <g>
       <use xlink:href="#m339a1da788" x="226.8" y="277.604437" style="stroke: #000000; stroke-width: 0.6"/>
      </g>
     </g>
    </g>
    <g id="ytick_9">
     <g id="line2d_42">
      <g>
       <use xlink:href="#m339a1da788" x="226.8" y="261.921777" style="stroke: #000000; stroke-width: 0.6"/>
      </g>
     </g>
    </g>
    <g id="ytick_10">
     <g id="line2d_43">
      <g>
       <use xlink:href="#m339a1da788" x="226.8" y="230.556457" style="stroke: #000000; stroke-width: 0.6"/>
      </g>
     </g>
    </g>
    <g id="ytick_11">
     <g id="line2d_44">
      <g>
       <use xlink:href="#m339a1da788" x="226.8" y="214.873797" style="stroke: #000000; stroke-width: 0.6"/>
      </g>
     </g>
    </g>
    <g id="ytick_12">
     <g id="line2d_45">
      <g>
       <use xlink:href="#m339a1da788" x="226.8" y="199.191137" style="stroke: #000000; stroke-width: 0.6"/>
      </g>
     </g>
    </g>
    <g id="ytick_13">
     <g id="line2d_46">
      <g>
       <use xlink:href="#m339a1da788" x="226.8" y="183.508477" style="stroke: #000000; stroke-width: 0.6"/>
      </g>
     </g>
    </g>
    <g id="ytick_14">
     <g id="line2d_47">
      <g>
       <use xlink:href="#m339a1da788" x="226.8" y="152.143158" style="stroke: #000000; stroke-width: 0.6"/>
      </g>
     </g>
    </g>
    <g id="ytick_15">
     <g id="line2d_48">
      <g>
       <use xlink:href="#m339a1da788" x="226.8" y="136.460498" style="stroke: #000000; stroke-width: 0.6"/>
      </g>
     </g>
    </g>
    <g id="ytick_16">
     <g id="line2d_49">
      <g>
       <use xlink:href="#m339a1da788" x="226.8" y="120.777838" style="stroke: #000000; stroke-width: 0.6"/>
      </g>
     </g>
    </g>
    <g id="ytick_17">
     <g id="line2d_50">
      <g>
       <use xlink:href="#m339a1da788" x="226.8" y="105.095178" style="stroke: #000000; stroke-width: 0.6"/>
      </g>
     </g>
    </g>
    <g id="ytick_18">
     <g id="line2d_51">
      <g>
       <use xlink:href="#m339a1da788" x="226.8" y="73.729858" style="stroke: #000000; stroke-width: 0.6"/>
      </g>
     </g>
    </g>
    <g id="ytick_19">
     <g id="line2d_52">
      <g>
       <use xlink:href="#m339a1da788" x="226.8" y="58.047198" style="stroke: #000000; stroke-width: 0.6"/>
      </g>
     </g>
    </g>
    <g id="ytick_20">
     <g id="line2d_53">
      <g>
       <use xlink:href="#m339a1da788" x="226.8" y="42.364539" style="stroke: #000000; stroke-width: 0.6"/>
      </g>
     </g>
    </g>
    <g id="ytick_21">
     <g id="line2d_54">
      <g>
       <use xlink:href="#m339a1da788" x="226.8" y="26.681879" style="stroke: #000000; stroke-width: 0.6"/>
      </g>
     </g>
    </g>
   </g>
   <g id="line2d_55">
    <path d="M 15.646154 167.825818 
L 17.607643 168.025902 
L 19.233703 168.493084 
L 20.859763 169.22816 
L 22.504259 170.235883 
L 23.63675 171.078701 
L 25.74999 172.958611 
L 28.444291 175.886431 
L 30.870586 178.963938 
L 34.002645 183.425446 
L 36.359531 187.041671 
L 44.348838 199.673503 
L 47.853853 204.712704 
L 50.248141 207.73605 
L 52.488097 210.156388 
L 53.31084 210.93082 
L 55.062969 212.351837 
L 56.815097 213.435813 
L 57.940144 213.940203 
L 59.920979 214.438816 
L 61.439791 214.466161 
L 62.958602 214.170191 
L 64.564866 213.492648 
L 66.316822 212.313916 
L 67.757191 210.994121 
L 69.197559 209.354008 
L 70.431248 207.693407 
L 71.664937 205.797002 
L 72.906985 203.650972 
L 74.327555 200.908627 
L 77.017572 194.895659 
L 78.793471 190.361586 
L 81.399894 182.948905 
L 84.093119 174.429245 
L 87.221155 163.597779 
L 91.515577 147.493497 
L 103.358032 101.307393 
L 106.326135 90.74336 
L 108.77013 82.744351 
L 111.083077 75.897115 
L 112.719415 71.542568 
L 114.482039 67.356633 
L 116.244662 63.738417 
L 117.747197 61.133867 
L 119.212929 59.042597 
L 120.678661 57.415294 
L 121.482291 56.726471 
L 122.28592 56.185096 
L 123.536918 55.641357 
L 125.079229 55.482463 
L 126.032234 55.671583 
L 126.985239 56.082959 
L 127.938244 56.718367 
L 129.583872 58.346508 
L 131.190185 60.58651 
L 132.796497 63.468234 
L 133.957597 65.948001 
L 135.877594 70.76891 
L 137.835232 76.588272 
L 140.182751 84.72469 
L 142.043386 92.026221 
L 143.90402 100.034829 
L 146.85409 114.056647 
L 149.677086 128.805179 
L 152.172159 142.735148 
L 155.638679 163.134083 
L 168.964251 243.551653 
L 171.940819 259.783167 
L 174.32001 271.777025 
L 176.883132 283.521666 
L 179.33796 293.456984 
L 181.058604 299.573184 
L 183.220463 306.187246 
L 184.567782 309.673331 
L 185.9353 312.691087 
L 187.323017 315.201395 
L 188.016875 316.243615 
L 188.943869 317.411044 
L 189.771538 318.233589 
L 190.599207 318.846777 
L 191.426876 319.249013 
L 192.254545 319.439029 
L 193.041312 319.422046 
L 193.82808 319.211918 
L 194.966007 318.565848 
L 196.103935 317.515482 
L 197.519444 315.646895 
L 198.649584 313.711003 
L 199.779723 311.385135 
L 200.896282 308.709284 
L 202.93075 302.888462 
L 204.7147 296.811101 
L 206.640008 289.277401 
L 208.758544 279.884141 
L 211.266582 267.385409 
L 213.996245 252.266767 
L 216.473596 237.371596 
L 220.388205 212.047232 
L 223.650009 189.796834 
L 233.275504 123.178268 
L 237.48456 96.065184 
L 240.554526 77.953215 
L 242.882211 65.410913 
L 245.25526 53.845624 
L 247.381785 44.639818 
L 249.379197 37.069158 
L 251.112372 31.39303 
L 252.394112 27.750057 
L 253.720842 24.489643 
L 255.092562 21.675608 
L 256.346967 19.605645 
L 257.484058 18.149388 
L 258.679538 17.052157 
L 259.933406 16.380818 
L 260.560341 16.229351 
L 261.280459 16.206701 
L 262.000577 16.345463 
L 263.204014 16.935933 
L 264.407451 17.971558 
L 265.284406 19.00359 
L 266.90123 21.509727 
L 268.380972 24.474768 
L 270.05002 28.565647 
L 271.757624 33.539021 
L 273.465228 39.271682 
L 275.250607 46.030939 
L 277.281143 54.601403 
L 280.11014 67.948613 
L 283.456129 85.522966 
L 286.5748 103.258561 
L 290.671622 127.854371 
L 299.383554 181.007125 
L 303.357972 203.759131 
L 305.922937 217.419646 
L 307.956592 227.534944 
L 310.889434 240.83255 
L 312.848853 248.77419 
L 315.084426 256.83279 
L 316.176472 260.361565 
L 317.457006 264.14666 
L 319.499169 269.374835 
L 321.277435 273.100139 
L 322.294072 274.878897 
L 323.310709 276.400619 
L 324.918891 278.281746 
L 325.981912 279.171808 
L 327.044932 279.782009 
L 328.109776 280.114735 
L 329.174619 280.171518 
L 330.023392 280.021495 
L 330.872164 279.700529 
L 331.720936 279.211038 
L 333.070231 278.092736 
L 334.637821 276.283649 
L 336.20541 273.947615 
L 338.208489 270.235538 
L 340.30603 265.533189 
L 342.118601 260.853913 
L 344.016647 255.401259 
L 346.42306 247.773324 
L 349.139212 238.362858 
L 352.836248 224.546132 
L 367.042792 169.680639 
L 370.130509 159.177788 
L 372.79011 150.949409 
L 375.658148 143.061482 
L 377.248597 139.169044 
L 379.927945 133.439725 
L 381.802439 130.072488 
L 383.676933 127.245591 
L 385.611945 124.898775 
L 386.999028 123.572857 
L 388.398619 122.533591 
L 389.755023 121.808255 
L 391.111427 121.354566 
L 392.47447 121.165025 
L 393.837512 121.233769 
L 395.690606 121.723142 
L 397.035549 122.349068 
L 398.729672 123.440109 
L 400.576973 124.984266 
L 402.424275 126.860816 
L 405.486416 130.591989 
L 408.675271 135.111124 
L 412.422428 140.928601 
L 417.879746 149.606995 
L 421.030466 154.326129 
L 424.270554 158.686787 
L 426.470742 161.264083 
L 429.11686 163.866794 
L 431.413117 165.630452 
L 433.541546 166.818761 
L 435.092698 167.400729 
L 436.64385 167.736508 
L 437.953846 167.825818 
L 437.953846 167.825818 
" clip-path="url(#pf590095ede)" style="fill: none; stroke: #000000; stroke-linecap: square"/>
   </g>
   <g id="patch_3">
    <path d="M 226.8 325.503676 
L 226.8 10.142055 
" style="fill: none; stroke: #000000; stroke-width: 0.8; stroke-linejoin: miter; stroke-linecap: square"/>
   </g>
   <g id="patch_4">
    <path d="M 7.2 167.825818 
L 446.4 167.825818 
" style="fill: none; stroke: #000000; stroke-width: 0.8; stroke-linejoin: miter; stroke-linecap: square"/>
   </g>
  </g>
 </g>
 <defs>
  <clipPath id="pf590095ede">
   <rect x="7.2" y="10.142055" width="439.2" height="315.361621"/>
  </clipPath>
 </defs>
</svg>
