<?xml version="1.0" encoding="utf-8" standalone="no"?>
<!DOCTYPE svg PUBLIC "-//W3C//DTD SVG 1.1//EN"
  "http://www.w3.org/Graphics/SVG/1.1/DTD/svg11.dtd">
<svg xmlns:xlink="http://www.w3.org/1999/xlink" width="338.4pt" height="338.4pt" viewBox="0 0 338.4 338.4" xmlns="http://www.w3.org/2000/svg" version="1.1">
 <metadata>
  <rdf:RDF xmlns:dc="http://purl.org/dc/elements/1.1/" xmlns:cc="http://creativecommons.org/ns#" xmlns:rdf="http://www.w3.org/1999/02/22-rdf-syntax-ns#">
   <cc:Work>
    <dc:type rdf:resource="http://purl.org/dc/dcmitype/StillImage"/>
    <dc:date>2022-08-23T18:58:45.153331</dc:date>
    <dc:format>image/svg+xml</dc:format>
    <dc:creator>
     <cc:Agent>
      <dc:title>Matplotlib v3.5.2, https://matplotlib.org/</dc:title>
     </cc:Agent>
    </dc:creator>
   </cc:Work>
  </rdf:RDF>
 </metadata>
 <defs>
  <style type="text/css">*{stroke-linejoin: round; stroke-linecap: butt}</style>
 </defs>
 <g id="figure_1">
  <g id="patch_1">
   <path d="M -0 338.4 
L 338.4 338.4 
L 338.4 0 
L -0 0 
z
" style="fill: #ffffff"/>
  </g>
  <g id="axes_1">
   <g id="patch_2">
    <path d="M 7.2 331.2 
L 331.2 331.2 
L 331.2 7.2 
L 7.2 7.2 
z
" style="fill: #ffffff"/>
   </g>
   <g id="patch_3">
    <path d="M 13.430769 324.969231 
L 13.430769 13.430769 
L 324.969231 13.430769 
L 324.969231 324.969231 
L 13.430769 324.969231 
z
" clip-path="url(#p7798addcc2)" style="fill: none; stroke: #000000; stroke-linejoin: miter"/>
   </g>
   <g id="matplotlib.axis_1"/>
   <g id="matplotlib.axis_2"/>
   <g id="text_1">
    <!-- $\Omega$ -->
    <g transform="translate(17.569231 23.978606)scale(0.1 -0.1)">
     <defs>
      <path id="Cmr10-ad" d="M 494 0 
L 281 1063 
L 469 1063 
Q 503 878 531 736 
Q 559 594 604 536 
Q 650 478 750 459 
Q 850 441 1081 441 
L 1472 441 
Q 1378 803 1004 1386 
Q 631 1969 495 2233 
Q 359 2497 359 2913 
Q 359 3397 646 3761 
Q 934 4125 1389 4319 
Q 1844 4513 2309 4513 
Q 2772 4513 3226 4319 
Q 3681 4125 3968 3758 
Q 4256 3391 4256 2913 
Q 4256 2588 4137 2300 
Q 4019 2013 3834 1725 
Q 3650 1438 3436 1084 
Q 3222 731 3144 441 
L 3531 441 
Q 3766 441 3869 459 
Q 3972 478 4015 536 
Q 4059 594 4086 736 
Q 4113 878 4147 1063 
L 4331 1063 
L 4122 0 
L 2988 0 
Q 2925 0 2925 84 
Q 2925 409 3004 721 
Q 3084 1034 3240 1478 
Q 3397 1922 3484 2261 
Q 3572 2600 3572 2913 
Q 3572 3297 3422 3625 
Q 3272 3953 2984 4150 
Q 2697 4347 2309 4347 
Q 1725 4347 1384 3930 
Q 1044 3513 1044 2913 
Q 1047 2584 1122 2293 
Q 1197 2003 1364 1518 
Q 1531 1034 1611 721 
Q 1691 409 1691 84 
Q 1691 0 1625 0 
L 494 0 
z
" transform="scale(0.015625)"/>
     </defs>
     <use xlink:href="#Cmr10-ad" transform="translate(0 0.484375)"/>
    </g>
   </g>
   <g id="text_2">
    <!-- $A$ -->
    <g style="fill: #0000ff" transform="translate(87.565385 94.07476)scale(0.1 -0.1)">
     <defs>
      <path id="Cmmi10-41" d="M 288 0 
Q 225 0 225 84 
Q 250 225 306 225 
Q 566 225 755 328 
Q 944 431 1081 647 
Q 1094 659 1094 659 
L 3378 4513 
Q 3428 4581 3500 4581 
L 3584 4581 
Q 3603 4581 3622 4573 
Q 3641 4566 3655 4548 
Q 3669 4531 3669 4513 
L 4056 378 
Q 4056 350 4084 294 
Q 4147 225 4563 225 
Q 4628 225 4628 141 
Q 4606 56 4592 28 
Q 4578 0 4519 0 
L 2919 0 
Q 2859 0 2859 84 
Q 2894 225 2944 225 
Q 3450 225 3481 397 
L 3384 1453 
L 1806 1453 
L 1294 594 
Q 1247 525 1247 434 
Q 1247 322 1355 273 
Q 1463 225 1594 225 
Q 1656 225 1656 141 
Q 1634 50 1621 25 
Q 1609 0 1550 0 
L 288 0 
z
M 1931 1678 
L 3359 1678 
L 3169 3750 
L 1931 1678 
z
" transform="scale(0.015625)"/>
     </defs>
     <use xlink:href="#Cmmi10-41" transform="translate(0 0.421875)"/>
    </g>
   </g>
   <g id="text_3">
    <!-- $B$ -->
    <g style="fill: #ff0000" transform="translate(243.284615 94.07476)scale(0.1 -0.1)">
     <defs>
      <path id="Cmmi10-42" d="M 319 0 
Q 256 0 256 84 
Q 259 100 268 137 
Q 278 175 293 200 
Q 309 225 341 225 
Q 522 225 656 234 
Q 791 244 884 269 
Q 959 297 1006 441 
L 1881 3956 
Q 1894 4019 1894 4044 
Q 1894 4113 1819 4122 
Q 1697 4147 1356 4147 
Q 1294 4147 1294 4231 
Q 1297 4247 1306 4286 
Q 1316 4325 1333 4348 
Q 1350 4372 1375 4372 
L 3669 4372 
Q 3878 4372 4083 4320 
Q 4288 4269 4461 4156 
Q 4634 4044 4736 3876 
Q 4838 3709 4838 3488 
Q 4838 3247 4714 3040 
Q 4591 2834 4395 2681 
Q 4200 2528 3973 2429 
Q 3747 2331 3500 2284 
Q 3675 2284 3854 2215 
Q 4034 2147 4175 2028 
Q 4316 1909 4402 1743 
Q 4488 1578 4488 1388 
Q 4488 1003 4219 684 
Q 3950 366 3542 183 
Q 3134 0 2753 0 
L 319 0 
z
M 1497 275 
Q 1497 225 1716 225 
L 2631 225 
Q 2944 225 3231 398 
Q 3519 572 3692 859 
Q 3866 1147 3866 1459 
Q 3866 1650 3786 1820 
Q 3706 1991 3556 2089 
Q 3406 2188 3213 2188 
L 1966 2188 
L 1522 416 
Q 1497 328 1497 275 
z
M 2009 2356 
L 2981 2356 
Q 3288 2356 3577 2512 
Q 3866 2669 4048 2937 
Q 4231 3206 4231 3506 
Q 4231 3784 4057 3965 
Q 3884 4147 3609 4147 
L 2731 4147 
Q 2559 4147 2500 4115 
Q 2441 4084 2400 3928 
L 2009 2356 
z
" transform="scale(0.015625)"/>
     </defs>
     <use xlink:href="#Cmmi10-42" transform="translate(0 0.6875)"/>
    </g>
   </g>
   <g id="patch_4">
    <path d="M 130.257692 247.084615 
C 150.912934 247.084615 170.724971 238.878201 185.330432 224.27274 
C 199.935893 209.667278 208.142308 189.855241 208.142308 169.2 
C 208.142308 148.544759 199.935893 128.732722 185.330432 114.12726 
C 170.724971 99.521799 150.912934 91.315385 130.257692 91.315385 
C 109.602451 91.315385 89.790414 99.521799 75.184953 114.12726 
C 60.579491 128.732722 52.373077 148.544759 52.373077 169.2 
C 52.373077 189.855241 60.579491 209.667278 75.184953 224.27274 
C 89.790414 238.878201 109.602451 247.084615 130.257692 247.084615 
L 130.257692 247.084615 
z
" clip-path="url(#p7798addcc2)" style="fill: none; stroke: #0000ff; stroke-linejoin: miter"/>
   </g>
   <g id="patch_5">
    <path d="M 208.142308 247.084615 
C 228.797549 247.084615 248.609586 238.878201 263.215047 224.27274 
C 277.820509 209.667278 286.026923 189.855241 286.026923 169.2 
C 286.026923 148.544759 277.820509 128.732722 263.215047 114.12726 
C 248.609586 99.521799 228.797549 91.315385 208.142308 91.315385 
C 187.487066 91.315385 167.675029 99.521799 153.069568 114.12726 
C 138.464107 128.732722 130.257692 148.544759 130.257692 169.2 
C 130.257692 189.855241 138.464107 209.667278 153.069568 224.27274 
C 167.675029 238.878201 187.487066 247.084615 208.142308 247.084615 
L 208.142308 247.084615 
z
" clip-path="url(#p7798addcc2)" style="fill: none; stroke: #ff0000; stroke-linejoin: miter"/>
   </g>
  </g>
 </g>
 <defs>
  <clipPath id="p7798addcc2">
   <rect x="7.2" y="7.2" width="324" height="324"/>
  </clipPath>
 </defs>
</svg>
