<?xml version="1.0" encoding="utf-8" standalone="no"?>
<!DOCTYPE svg PUBLIC "-//W3C//DTD SVG 1.1//EN"
  "http://www.w3.org/Graphics/SVG/1.1/DTD/svg11.dtd">
<svg xmlns:xlink="http://www.w3.org/1999/xlink" width="338.4pt" height="338.4pt" viewBox="0 0 338.4 338.4" xmlns="http://www.w3.org/2000/svg" version="1.1">
 <metadata>
  <rdf:RDF xmlns:dc="http://purl.org/dc/elements/1.1/" xmlns:cc="http://creativecommons.org/ns#" xmlns:rdf="http://www.w3.org/1999/02/22-rdf-syntax-ns#">
   <cc:Work>
    <dc:type rdf:resource="http://purl.org/dc/dcmitype/StillImage"/>
    <dc:date>2022-08-23T18:58:48.201008</dc:date>
    <dc:format>image/svg+xml</dc:format>
    <dc:creator>
     <cc:Agent>
      <dc:title>Matplotlib v3.5.2, https://matplotlib.org/</dc:title>
     </cc:Agent>
    </dc:creator>
   </cc:Work>
  </rdf:RDF>
 </metadata>
 <defs>
  <style type="text/css">*{stroke-linejoin: round; stroke-linecap: butt}</style>
 </defs>
 <g id="figure_1">
  <g id="patch_1">
   <path d="M -0 338.4 
L 338.4 338.4 
L 338.4 0 
L -0 0 
z
" style="fill: #ffffff"/>
  </g>
  <g id="axes_1">
   <g id="patch_2">
    <path d="M 7.2 331.2 
L 331.2 331.2 
L 331.2 7.2 
L 7.2 7.2 
z
" style="fill: #ffffff"/>
   </g>
   <g id="patch_3">
    <path d="M 13.430769 324.969231 
L 13.430769 13.430769 
L 324.969231 13.430769 
L 324.969231 324.969231 
L 13.430769 324.969231 
z
" clip-path="url(#p39f8ad0796)" style="fill: none; stroke: #000000; stroke-linejoin: miter"/>
   </g>
   <g id="patch_4">
    <path d="M 169.2 169.2 
L 169.2 101.749945 
L 169.483648 101.914506 
L 169.535935 101.945015 
L 169.709068 102.046428 
L 170.004391 102.2208 
L 170.150446 102.307687 
L 170.313583 102.405248 
L 170.479076 102.504771 
L 170.791022 102.693891 
L 171.054426 102.855145 
L 171.102566 102.884771 
L 171.327182 103.023642 
L 171.618213 103.205147 
L 171.71948 103.268722 
L 171.956504 103.418373 
L 172.121353 103.523161 
L 172.372598 103.683986 
L 172.609015 103.836564 
L 172.743417 103.923844 
L 173.013026 104.100117 
L 173.173205 104.2056 
L 173.21363 104.23231 
L 173.549312 104.45551 
L 173.620484 104.503156 
L 173.989099 104.751746 
L 173.995201 104.755887 
L 174.335417 104.988104 
L 174.464034 105.076583 
L 174.664311 105.215115 
L 174.909834 105.386212 
L 175.006919 105.454255 
L 175.285275 105.650569 
L 175.367646 105.709013 
L 175.712104 105.95516 
L 175.890304 106.083615 
L 176.054142 106.202393 
L 176.313179 106.391518 
L 176.419488 106.46961 
L 176.713735 106.687206 
L 176.886889 106.816257 
L 176.978762 106.885034 
L 177.290067 107.119657 
L 177.410212 107.210862 
L 177.520925 107.295234 
L 177.718945 107.446921 
L 178.091662 107.735175 
L 178.138276 107.77148 
L 178.46172 108.024964 
L 178.511324 108.064083 
L 178.720008 108.229373 
L 179.041604 108.486383 
L 179.144538 108.569235 
L 179.371238 108.752726 
L 179.485444 108.845698 
L 179.735124 109.050211 
L 180.033511 109.296902 
L 180.18369 109.42201 
L 180.28791 109.509208 
L 180.48129 109.671825 
L 180.708835 109.864551 
L 180.885148 110.014917 
L 181.112231 110.209923 
L 181.397835 110.457348 
L 181.483745 110.53225 
L 181.812668 110.821084 
L 181.977046 110.966661 
L 182.208801 111.17332 
L 182.310683 111.264696 
L 182.464228 111.40302 
L 182.68826 111.606174 
L 182.854268 111.757737 
L 183.105759 111.98903 
L 183.197841 112.074227 
L 183.56003 112.412025 
L 183.599413 112.449017 
L 183.968163 112.797884 
L 183.997957 112.826272 
L 184.311642 113.126978 
L 184.479183 113.28897 
L 184.611986 113.418067 
L 184.818582 113.620124 
L 185.052031 113.850259 
L 185.288836 114.085696 
L 185.45186 114.248957 
L 185.577347 114.375287 
L 185.88762 114.690144 
L 185.951471 114.755383 
L 186.15465 114.964003 
L 186.387552 115.205073 
L 186.668163 115.498304 
L 186.800813 115.637991 
L 187.072186 115.925929 
L 187.145889 116.00464 
L 187.459239 116.341733 
L 187.618356 116.514446 
L 187.884195 116.805349 
L 187.943254 116.870379 
L 188.182883 117.135755 
L 188.446494 117.430543 
L 188.509463 117.501407 
L 188.679965 117.694161 
L 188.891721 117.935354 
L 189.15874 118.242372 
L 189.330818 118.441955 
L 189.501012 118.640704 
L 189.676053 118.846532 
L 189.984721 119.213048 
L 190.10674 119.359205 
L 190.28389 119.572699 
L 190.537745 119.881357 
L 190.694619 120.073722 
L 190.981616 120.428918 
L 191.101447 120.578494 
L 191.285476 120.809681 
L 191.566533 121.166268 
L 191.628845 121.245908 
L 191.855857 121.537862 
L 192.083146 121.833065 
L 192.295489 122.111519 
L 192.549857 122.448535 
L 192.752361 122.719577 
L 192.949131 122.985318 
L 193.044789 123.115363 
L 193.208845 123.339716 
L 193.561658 123.827968 
L 193.5795 123.852872 
L 193.829862 124.204528 
L 193.965473 124.396741 
L 194.329726 124.919217 
L 194.418609 125.048103 
L 194.667114 125.41142 
L 194.775251 125.570905 
L 194.959153 125.844097 
L 195.322566 126.391409 
L 195.50115 126.66408 
L 195.707266 126.981916 
L 195.818533 127.154911 
L 195.962055 127.37955 
L 196.298809 127.91339 
L 196.3064 127.925534 
L 196.554495 128.325225 
L 196.792907 128.714465 
L 197.037501 129.119201 
L 197.087164 129.202062 
L 197.435239 129.789461 
L 197.552335 129.989741 
L 197.714908 130.270097 
L 197.902798 130.597501 
L 198.109724 130.962386 
L 198.350528 131.39287 
L 198.518688 131.697335 
L 198.811039 132.234449 
L 198.867936 132.340161 
L 199.178712 132.924576 
L 199.382751 133.314912 
L 199.506884 133.555045 
L 199.79035 134.111215 
L 199.855144 134.239907 
L 200.136273 134.805272 
L 200.402956 135.352471 
L 200.488947 135.531257 
L 200.652798 135.875198 
L 200.82514 136.241714 
L 201.025817 136.674842 
L 201.275334 137.223324 
L 201.430417 137.570005 
L 201.5855 137.921298 
L 201.740627 138.277462 
L 201.863584 138.563265 
L 202.014033 138.917318 
L 202.164482 139.276316 
L 202.276058 139.545854 
L 202.41655 139.889377 
L 202.580626 140.2966 
L 202.744703 140.710588 
L 202.897258 141.101836 
L 203.08059 141.580463 
L 203.202796 141.90485 
L 203.36718 142.348256 
L 203.531564 142.800131 
L 203.669789 143.186977 
L 203.789617 143.527655 
L 203.915774 143.891891 
L 204.04193 144.262084 
L 204.157561 144.606857 
L 204.273193 144.957084 
L 204.4413 145.476476 
L 204.547462 145.81104 
L 204.653624 146.150949 
L 204.743216 146.442144 
L 204.832809 146.73747 
L 204.979619 147.230773 
L 205.074101 147.554716 
L 205.168582 147.884 
L 205.291269 148.319969 
L 205.413955 148.765973 
L 205.515081 149.141618 
L 205.616207 149.524952 
L 205.721131 149.931302 
L 205.789592 150.201436 
L 205.858053 150.475717 
L 205.926514 150.75433 
L 205.994975 151.037474 
L 206.064118 151.328257 
L 206.133261 151.624123 
L 206.202403 151.925332 
L 206.271546 152.232168 
L 206.336829 152.527321 
L 206.409912 152.864371 
L 206.482994 153.208856 
L 206.562771 153.593965 
L 206.642547 153.989239 
L 206.722324 154.395493 
L 206.802101 154.813657 
L 206.883219 155.252168 
L 206.964337 155.705408 
L 207.033849 156.106676 
L 207.10336 156.521017 
L 207.172872 156.949759 
L 207.207628 157.170009 
L 207.242384 157.39447 
L 207.277431 157.625324 
L 207.312478 157.860986 
L 207.347526 158.101761 
L 207.382573 158.34799 
L 207.416186 158.58962 
L 207.449799 158.836992 
L 207.483413 159.090527 
L 207.517026 159.3507 
L 207.550639 159.618053 
L 207.584252 159.893204 
L 207.617865 160.176867 
L 207.651479 160.469871 
L 207.673324 160.665754 
L 207.695168 160.866297 
L 207.717013 161.071845 
L 207.738858 161.282788 
L 207.760703 161.499569 
L 207.782548 161.722696 
L 207.804393 161.952756 
L 207.826238 162.19043 
L 207.840824 162.353762 
L 207.85541 162.521119 
L 207.869997 162.692812 
L 207.884583 162.869193 
L 207.89917 163.050666 
L 207.913756 163.237695 
L 207.928342 163.430821 
L 207.942929 163.630678 
L 207.95539 163.807311 
L 207.967851 163.989959 
L 207.980312 164.179278 
L 207.992773 164.376053 
L 208.005235 164.581237 
L 208.017696 164.796006 
L 208.030157 165.021837 
L 208.042618 165.260633 
L 208.048849 165.385648 
L 208.055079 165.514912 
L 208.06131 165.648889 
L 208.067541 165.788135 
L 208.073771 165.933322 
L 208.080002 166.085283 
L 208.086232 166.245061 
L 208.092463 166.414001 
L 208.098694 166.593884 
L 208.104924 166.787157 
L 208.111155 166.997342 
L 208.117385 167.229843 
L 208.123616 167.49376 
L 208.129847 167.806833 
L 208.136077 168.214863 
L 208.142308 169.2 
L 208.142308 169.2 
z
" clip-path="url(#p39f8ad0796)" style="fill: #808080; opacity: 0.5"/>
   </g>
   <g id="patch_5">
    <path d="M 169.2 169.2 
L 169.2 236.650055 
L 169.328369 236.575779 
L 169.598992 236.418119 
L 169.836432 236.278586 
L 169.964507 236.202852 
L 170.184738 236.07185 
L 170.367634 235.962309 
L 170.493077 235.886784 
L 170.810168 235.694436 
L 170.939609 235.615322 
L 171.084084 235.526609 
L 171.374176 235.34717 
L 171.552582 235.23594 
L 171.717955 235.132238 
L 171.926546 235.000607 
L 172.117602 234.87923 
L 172.260152 234.78816 
L 172.537919 234.609447 
L 172.779419 234.452709 
L 172.962815 234.332832 
L 173.062419 234.267416 
L 173.40696 234.039448 
L 173.586605 233.919538 
L 173.706973 233.838791 
L 173.984206 233.651574 
L 174.139652 233.545839 
L 174.268644 233.45768 
L 174.421002 233.353062 
L 174.710502 233.152803 
L 174.920543 233.006293 
L 175.004596 232.947376 
L 175.266487 232.762738 
L 175.464287 232.622213 
L 175.710441 232.446035 
L 175.773444 232.400709 
L 176.067423 232.187951 
L 176.304764 232.014652 
L 176.4899 231.878515 
L 176.573656 231.81665 
L 176.804525 231.645222 
L 176.935616 231.547291 
L 177.157501 231.380554 
L 177.444533 231.163016 
L 177.644944 231.009884 
L 177.715647 230.955614 
L 178.059311 230.689988 
L 178.203477 230.577643 
L 178.354875 230.459076 
L 178.496652 230.347494 
L 178.795349 230.110666 
L 178.928218 230.004549 
L 179.126409 229.845378 
L 179.310044 229.696943 
L 179.566943 229.487736 
L 179.769787 229.321259 
L 179.940087 229.180605 
L 180.074663 229.06888 
L 180.416093 228.78312 
L 180.538953 228.679477 
L 180.801952 228.456148 
L 181.002192 228.284762 
L 181.195279 228.118381 
L 181.288594 228.037576 
L 181.539735 227.818815 
L 181.664966 227.709021 
L 181.920002 227.483952 
L 182.202146 227.232638 
L 182.265191 227.176145 
L 182.558788 226.911426 
L 182.675702 226.805256 
L 182.989687 226.517973 
L 183.069315 226.444614 
L 183.265093 226.263375 
L 183.532341 226.013951 
L 183.657909 225.895945 
L 183.838041 225.725743 
L 184.115732 225.46122 
L 184.352053 225.234038 
L 184.551229 225.04107 
L 184.582975 225.010187 
L 184.934323 224.66602 
L 185.004411 224.596842 
L 185.151577 224.451016 
L 185.516393 224.086149 
L 185.668649 223.932432 
L 185.761353 223.83842 
L 186.069306 223.523817 
L 186.312428 223.272913 
L 186.515017 223.062108 
L 186.533533 223.042762 
L 186.871379 222.687417 
L 187.029458 222.519602 
L 187.28663 222.24445 
L 187.459536 222.057946 
L 187.508174 222.005261 
L 187.801257 221.685727 
L 187.923494 221.551396 
L 188.18904 221.257394 
L 188.345906 221.082297 
L 188.564584 220.836419 
L 188.675096 220.71136 
L 188.97769 220.366153 
L 189.199431 220.110556 
L 189.290663 220.004741 
L 189.559317 219.690896 
L 189.808496 219.396763 
L 189.90758 219.27898 
L 190.191768 218.938515 
L 190.364571 218.729552 
L 190.48474 218.583358 
L 190.755191 218.251667 
L 190.936587 218.027094 
L 191.079218 217.849309 
L 191.300724 217.571082 
L 191.452293 217.379188 
L 191.641826 217.137474 
L 191.937537 216.756389 
L 192.002215 216.672384 
L 192.375205 216.183273 
L 192.466875 216.061827 
L 192.61622 215.862911 
L 192.961414 215.398015 
L 193.096111 215.214633 
L 193.311103 214.919588 
L 193.537383 214.605882 
L 193.666671 214.425157 
L 193.763773 214.288702 
L 194.103829 213.805876 
L 194.156296 213.730683 
L 194.37975 213.408314 
L 194.598686 213.089063 
L 194.784789 212.814988 
L 195.013751 212.474314 
L 195.190848 212.208123 
L 195.408704 211.877383 
L 195.566886 211.634922 
L 195.732799 211.378475 
L 195.923981 211.080209 
L 196.278819 210.518568 
L 196.492249 210.175563 
L 196.618471 209.970828 
L 196.782876 209.702016 
L 197.028139 209.296393 
L 197.182978 209.037413 
L 197.283557 208.867956 
L 197.595376 208.336296 
L 197.740363 208.085761 
L 198.02812 207.58206 
L 198.139914 207.383993 
L 198.265138 207.160514 
L 198.516113 206.707349 
L 198.656356 206.450989 
L 198.846357 206.099979 
L 199.036358 205.74461 
L 199.056725 205.706252 
L 199.246223 205.346867 
L 199.582839 204.697004 
L 199.659932 204.546039 
L 199.835877 204.198421 
L 200.011823 203.846423 
L 200.178956 203.507874 
L 200.267765 203.326282 
L 200.484642 202.87772 
L 200.713388 202.39651 
L 200.954807 201.879219 
L 201.145451 201.463587 
L 201.25049 201.231797 
L 201.397417 200.904147 
L 201.634553 200.366601 
L 201.818621 199.941614 
L 201.984663 199.552182 
L 202.21265 199.007674 
L 202.384983 198.588217 
L 202.51563 198.265507 
L 202.646278 197.93858 
L 202.778068 197.604374 
L 202.909857 197.265571 
L 203.048098 196.905056 
L 203.171109 196.579681 
L 203.322015 196.174398 
L 203.47292 195.762074 
L 203.581814 195.45998 
L 203.690707 195.153913 
L 203.862512 194.662596 
L 203.97235 194.342844 
L 204.082187 194.018486 
L 204.180238 193.724898 
L 204.278288 193.427356 
L 204.336652 193.248305 
L 204.430942 192.955891 
L 204.525231 192.659454 
L 204.619521 192.358839 
L 204.71381 192.053881 
L 204.808091 191.74443 
L 204.902373 191.430272 
L 204.93291 191.327475 
L 205.025797 191.011552 
L 205.118684 190.690585 
L 205.211571 190.364343 
L 205.304458 190.032578 
L 205.373101 189.783699 
L 205.514211 189.261649 
L 205.65532 188.724627 
L 205.748686 188.360458 
L 205.842052 187.988769 
L 205.89293 187.782899 
L 206.007246 187.311278 
L 206.121563 186.826302 
L 206.19342 186.514115 
L 206.265277 186.195892 
L 206.337135 185.871286 
L 206.408992 185.539917 
L 206.473778 185.235011 
L 206.538564 184.923927 
L 206.603351 184.60629 
L 206.668137 184.281687 
L 206.727124 183.979692 
L 206.786112 183.671155 
L 206.833674 183.417323 
L 206.881237 183.158714 
L 206.9288 182.895057 
L 206.976362 182.626055 
L 207.04218 182.244376 
L 207.107998 181.850844 
L 207.150845 181.587751 
L 207.193692 181.318796 
L 207.23654 181.043579 
L 207.279387 180.761655 
L 207.320507 180.484324 
L 207.361626 180.199851 
L 207.402746 179.907664 
L 207.443865 179.607115 
L 207.484985 179.297456 
L 207.526104 178.977824 
L 207.567224 178.647204 
L 207.608343 178.3044 
L 207.637654 178.051828 
L 207.666965 177.791733 
L 207.696275 177.523412 
L 207.725586 177.246041 
L 207.759382 176.913716 
L 207.77628 176.742007 
L 207.793178 176.566258 
L 207.810076 176.386172 
L 207.826974 176.201415 
L 207.843872 176.011607 
L 207.86077 175.816312 
L 207.878366 175.606579 
L 207.895963 175.389694 
L 207.913559 175.164876 
L 207.931155 174.931191 
L 207.948751 174.687508 
L 207.966347 174.43243 
L 207.983943 174.164199 
L 207.992741 174.024471 
L 208.001539 173.880557 
L 208.010337 173.732058 
L 208.019135 173.578507 
L 208.027933 173.419354 
L 208.036731 173.253939 
L 208.045529 173.081461 
L 208.054327 172.900932 
L 208.063125 172.711112 
L 208.071923 172.510402 
L 208.080721 172.296685 
L 208.089519 172.067054 
L 208.098317 171.817324 
L 208.107116 171.541072 
L 208.115914 171.227485 
L 208.124712 170.855481 
L 208.13351 170.370635 
L 208.142308 169.2 
L 208.142308 169.2 
z
" clip-path="url(#p39f8ad0796)" style="fill: #808080; opacity: 0.5"/>
   </g>
   <g id="patch_6">
    <path d="M 130.257692 169.2 
L 130.257692 169.2 
L 130.263179 168.275553 
L 130.268665 167.892657 
L 130.274152 167.598867 
L 130.279638 167.351203 
L 130.285125 167.133019 
L 130.290611 166.935776 
L 130.296098 166.754401 
L 130.301585 166.585591 
L 130.307071 166.427049 
L 130.312558 166.277105 
L 130.318044 166.134496 
L 130.323531 165.998242 
L 130.329017 165.867563 
L 130.334504 165.741827 
L 130.33999 165.620514 
L 130.345477 165.503188 
L 130.35645 165.279077 
L 130.367423 165.06713 
L 130.378396 164.865562 
L 130.389369 164.672987 
L 130.400342 164.488302 
L 130.411315 164.310612 
L 130.422288 164.139181 
L 130.433261 163.973393 
L 130.4466 163.778718 
L 130.459938 163.590827 
L 130.473277 163.409059 
L 130.486616 163.232856 
L 130.499954 163.061737 
L 130.513293 162.89529 
L 130.526631 162.733152 
L 130.53997 162.575009 
L 130.566647 162.269616 
L 130.593324 161.977223 
L 130.620002 161.696309 
L 130.646679 161.425631 
L 130.675495 161.143559 
L 130.704311 160.871135 
L 130.733127 160.60744 
L 130.761943 160.351694 
L 130.790759 160.103226 
L 130.819576 159.861456 
L 130.848392 159.625875 
L 130.877208 159.396039 
L 130.914051 159.109925 
L 130.950893 158.831834 
L 130.987736 158.561137 
L 131.024579 158.297284 
L 131.059614 158.05228 
L 131.094649 157.812653 
L 131.129685 157.578073 
L 131.16472 157.348237 
L 131.199755 157.122877 
L 131.23479 156.901745 
L 131.304861 156.47129 
L 131.373643 156.062821 
L 131.442426 155.667025 
L 131.491351 155.392603 
L 131.540277 155.1237 
L 131.589203 154.860005 
L 131.638129 154.601236 
L 131.70349 154.262782 
L 131.768852 153.932109 
L 131.834213 153.608721 
L 131.899574 153.292174 
L 131.970057 152.958029 
L 132.040541 152.630922 
L 132.106205 152.332147 
L 132.17187 152.038825 
L 132.237535 151.75068 
L 132.3032 151.467459 
L 132.404783 151.038485 
L 132.491465 150.680731 
L 132.578147 150.330158 
L 132.692813 149.876773 
L 132.80748 149.43445 
L 132.929543 148.974933 
L 133.051607 148.526347 
L 133.102216 148.343397 
L 133.192751 148.020357 
L 133.283286 147.702553 
L 133.373822 147.389755 
L 133.464357 147.08175 
L 133.627773 146.537311 
L 133.752835 146.130112 
L 133.877897 145.730644 
L 133.879316 145.726156 
L 134.000922 145.34485 
L 134.122527 144.970154 
L 134.288849 144.467837 
L 134.45517 143.976618 
L 134.652894 143.406215 
L 134.662291 143.379455 
L 134.786364 143.029045 
L 134.910438 142.683844 
L 135.086891 142.201492 
L 135.240476 141.789487 
L 135.39406 141.384432 
L 135.457061 141.220219 
L 135.58508 140.889897 
L 135.713098 140.563957 
L 135.856103 140.204865 
L 136.075297 139.664272 
L 136.314431 139.087387 
L 136.42284 138.830092 
L 136.682859 138.223226 
L 136.886398 137.757853 
L 137.018945 137.459165 
L 137.168468 137.126218 
L 137.317992 136.797383 
L 137.40872 136.599802 
L 137.688319 135.999867 
L 137.846765 135.665689 
L 138.091703 135.156997 
L 138.269168 134.794221 
L 138.428027 134.473463 
L 138.699125 133.934469 
L 138.907124 133.527845 
L 139.037553 133.275828 
L 139.335604 132.708209 
L 139.36226 132.657992 
L 139.559252 132.289599 
L 139.750249 131.936886 
L 139.941247 131.588452 
L 140.112439 131.279686 
L 140.248541 131.036539 
L 140.465297 130.653462 
L 140.583066 130.447423 
L 140.917205 129.870636 
L 140.924581 129.858032 
L 141.213452 129.368585 
L 141.343507 129.150861 
L 141.631467 128.674436 
L 141.899353 128.238014 
L 142.017985 128.046782 
L 142.14557 127.842487 
L 142.462752 127.340602 
L 142.496036 127.288422 
L 142.759328 126.878855 
L 142.978375 126.54235 
L 143.146262 126.28698 
L 143.448115 125.833253 
L 143.489972 125.770876 
L 143.810994 125.29675 
L 143.96052 125.078446 
L 144.239218 124.675755 
L 144.415633 124.42362 
L 144.547417 124.236646 
L 144.813315 123.862906 
L 144.964583 123.652351 
L 145.211397 123.311943 
L 145.258528 123.247377 
L 145.544347 122.858781 
L 145.756511 122.573552 
L 145.908214 122.37126 
L 146.026828 122.214039 
L 146.341477 121.800942 
L 146.515585 121.574793 
L 146.784768 121.228491 
L 146.987446 120.970381 
L 147.118881 120.804187 
L 147.303226 120.572647 
L 147.381633 120.474712 
L 147.712123 120.065429 
L 147.810951 119.94413 
L 148.153092 119.528002 
L 148.296208 119.355666 
L 148.374181 119.262195 
L 148.601823 118.990997 
L 148.907957 118.630197 
L 149.08877 118.419167 
L 149.204801 118.284544 
L 149.459007 117.991763 
L 149.700747 117.716049 
L 149.828704 117.571162 
L 150.010476 117.366579 
L 150.22666 117.12514 
L 150.459879 116.866925 
L 150.59555 116.717775 
L 150.897385 116.388712 
L 151.019824 116.256302 
L 151.242328 116.017244 
L 151.438237 115.808412 
L 151.649723 115.584692 
L 151.721771 115.50888 
L 151.912181 115.309499 
L 152.147194 115.065348 
L 152.403553 114.801429 
L 152.589318 114.611735 
L 152.850624 114.347078 
L 153.024264 114.172601 
L 153.114267 114.082598 
L 153.351531 113.846734 
L 153.507413 113.692869 
L 153.704708 113.499362 
L 153.870139 113.338161 
L 154.087727 113.127586 
L 154.235041 112.985945 
L 154.59543 112.642549 
L 154.736759 112.509077 
L 154.964491 112.295403 
L 155.057282 112.208831 
L 155.402404 111.889304 
L 155.427372 111.866338 
L 155.753843 111.567873 
L 155.916936 111.420039 
L 156.112627 111.243761 
L 156.320624 111.057705 
L 156.491993 110.905418 
L 156.685019 110.734961 
L 156.837026 110.601524 
L 157.029482 110.433578 
L 157.187286 110.296697 
L 157.492955 110.033655 
L 157.615989 109.928553 
L 157.905585 109.682902 
L 157.989434 109.612228 
L 158.31667 109.338333 
L 158.48445 109.199079 
L 158.648224 109.063912 
L 158.790592 108.947021 
L 158.964174 108.805261 
L 159.200925 108.613249 
L 159.328766 108.510203 
L 159.64728 108.255389 
L 159.82159 108.117093 
L 159.95524 108.011604 
L 160.211684 107.810517 
L 160.465571 107.613133 
L 160.648764 107.471752 
L 160.851564 107.316247 
L 161.01074 107.19493 
L 161.218981 107.037192 
L 161.40602 106.896447 
L 161.594102 106.755802 
L 161.708034 106.671035 
L 161.895743 106.532077 
L 162.069218 106.404429 
L 162.278747 106.251235 
L 162.501525 106.089524 
L 162.647805 105.983993 
L 162.853227 105.836663 
L 163.083336 105.672822 
L 163.378075 105.464791 
L 163.552949 105.342327 
L 163.681262 105.252923 
L 163.927751 105.082247 
L 164.114211 104.954066 
L 164.304949 104.823768 
L 164.573036 104.642027 
L 164.713299 104.547587 
L 164.831374 104.468428 
L 165.107484 104.284538 
L 165.28268 104.168734 
L 165.484035 104.036474 
L 165.728434 103.877136 
L 165.79266 103.835479 
L 166.150832 103.604808 
L 166.270377 103.528433 
L 166.49376 103.386538 
L 166.558643 103.345523 
L 166.8826 103.142072 
L 167.005242 103.065628 
L 167.167312 102.965092 
L 167.358051 102.847474 
L 167.675216 102.653566 
L 167.798284 102.578884 
L 167.980615 102.46881 
L 168.264066 102.299035 
L 168.507402 102.154586 
L 168.665955 102.061107 
L 168.746277 102.013944 
L 169.047332 101.838318 
L 169.2 101.749945 
L 169.2 169.2 
z
" clip-path="url(#p39f8ad0796)" style="fill: #808080; opacity: 0.5"/>
   </g>
   <g id="patch_7">
    <path d="M 130.257692 169.2 
L 130.257692 169.2 
L 130.262935 170.103676 
L 130.268178 170.477969 
L 130.273421 170.765159 
L 130.278663 171.00726 
L 130.283906 171.220544 
L 130.289149 171.413358 
L 130.294391 171.590659 
L 130.299634 171.755679 
L 130.304877 171.910662 
L 130.31012 172.05724 
L 130.315362 172.196648 
L 130.320605 172.329845 
L 130.325848 172.457591 
L 130.331091 172.580505 
L 130.341576 172.81379 
L 130.352062 173.032874 
L 130.362547 173.240068 
L 130.373033 173.437116 
L 130.383518 173.625374 
L 130.394003 173.80592 
L 130.404489 173.979629 
L 130.414974 174.147219 
L 130.42546 174.309294 
L 130.44012 174.527596 
L 130.454779 174.737261 
L 130.469439 174.939233 
L 130.484099 175.134299 
L 130.498759 175.32312 
L 130.513418 175.506255 
L 130.528078 175.684186 
L 130.542738 175.857331 
L 130.557398 176.026055 
L 130.572057 176.190677 
L 130.601377 176.508717 
L 130.630696 176.81337 
L 130.660016 177.106183 
L 130.690552 177.399933 
L 130.721089 177.683408 
L 130.751626 177.957605 
L 130.782162 178.223371 
L 130.823519 178.57114 
L 130.864876 178.906282 
L 130.906233 179.230061 
L 130.94759 179.543545 
L 130.988947 179.847642 
L 131.030304 180.143137 
L 131.071661 180.430707 
L 131.113018 180.710946 
L 131.1555 180.991724 
L 131.197982 181.265821 
L 131.240464 181.533681 
L 131.282945 181.795703 
L 131.353256 182.217481 
L 131.423566 182.625647 
L 131.50089 183.060245 
L 131.578214 183.481206 
L 131.627741 183.74422 
L 131.677267 184.002396 
L 131.726794 184.255982 
L 131.776321 184.505207 
L 131.853882 184.887236 
L 131.931443 185.259806 
L 132.008511 185.621278 
L 132.08558 185.974609 
L 132.162649 186.320302 
L 132.239718 186.658812 
L 132.305472 186.942256 
L 132.371226 187.221001 
L 132.469789 187.630497 
L 132.568352 188.030573 
L 132.696277 188.536748 
L 132.824203 189.029181 
L 132.906781 189.34023 
L 132.998673 189.680415 
L 133.090564 190.014636 
L 133.182455 190.343175 
L 133.274347 190.666293 
L 133.342436 190.902362 
L 133.47965 191.369819 
L 133.616864 191.826789 
L 133.705084 192.115346 
L 133.815323 192.470423 
L 133.925561 192.819649 
L 134.085152 193.315367 
L 134.241045 193.788953 
L 134.396938 194.252618 
L 134.497852 194.547731 
L 134.62596 194.91692 
L 134.754069 195.280254 
L 134.881574 195.636304 
L 135.009079 195.987015 
L 135.179396 196.447509 
L 135.334843 196.860195 
L 135.515363 197.330769 
L 135.740968 197.906434 
L 135.970177 198.477926 
L 136.0606 198.699843 
L 136.2032 199.045906 
L 136.3458 199.387328 
L 136.559629 199.890935 
L 136.711307 200.242317 
L 136.818333 200.487441 
L 136.979605 200.852536 
L 137.140877 201.212655 
L 137.393849 201.767913 
L 137.56903 202.1458 
L 137.761651 202.555306 
L 137.792901 202.621166 
L 137.971947 202.995469 
L 138.150992 203.364734 
L 138.362258 203.794191 
L 138.437057 203.944659 
L 138.723574 204.513634 
L 138.809584 204.682203 
L 139.044511 205.137554 
L 139.19447 205.424426 
L 139.544344 206.082688 
L 139.620626 206.224215 
L 139.809404 206.571482 
L 140.136601 207.16363 
L 140.231434 207.333012 
L 140.512336 207.829007 
L 140.663016 208.091626 
L 140.801702 208.331268 
L 140.994944 208.661941 
L 141.299867 209.176261 
L 141.401457 209.345636 
L 141.580945 209.642531 
L 141.861834 210.101248 
L 141.910008 210.179211 
L 142.19307 210.633216 
L 142.372128 210.916864 
L 142.666819 211.377882 
L 142.771022 211.539205 
L 142.906318 211.747373 
L 143.213179 212.214202 
L 143.356726 212.430102 
L 143.62803 212.833946 
L 143.745703 213.007427 
L 144.021163 213.409638 
L 144.153702 213.601257 
L 144.267049 213.764164 
L 144.579808 214.209132 
L 144.650307 214.308526 
L 144.953001 214.731581 
L 145.14259 214.993546 
L 145.285868 215.190013 
L 145.571001 215.577202 
L 145.778433 215.855765 
L 145.926671 216.053258 
L 146.12311 216.312975 
L 146.213499 216.431727 
L 146.50155 216.80704 
L 146.69972 217.062529 
L 146.943666 217.374055 
L 146.990754 217.433813 
L 147.311074 217.83717 
L 147.506954 218.081154 
L 147.750495 218.381727 
L 147.874213 218.533255 
L 148.124729 218.837724 
L 148.35842 219.118935 
L 148.440057 219.216543 
L 148.577849 219.38056 
L 148.871203 219.726721 
L 148.956746 219.826896 
L 149.286324 220.209671 
L 149.506464 220.462571 
L 149.552615 220.515312 
L 149.76445 220.756174 
L 149.980724 221.000034 
L 150.25332 221.304495 
L 150.320507 221.379045 
L 150.643113 221.734331 
L 150.804607 221.910543 
L 151.04118 222.166731 
L 151.164256 222.299105 
L 151.332804 222.479392 
L 151.54002 222.69948 
L 151.73987 222.910133 
L 151.92523 223.104113 
L 152.089883 223.275308 
L 152.394257 223.589045 
L 152.546315 223.744468 
L 152.765288 223.966769 
L 152.989077 224.192131 
L 153.135249 224.338343 
L 153.312495 224.5146 
L 153.526595 224.726005 
L 153.704708 224.900638 
L 153.923583 225.113712 
L 154.088443 225.273104 
L 154.379335 225.552072 
L 154.535299 225.700459 
L 154.689228 225.846108 
L 154.941177 226.082801 
L 155.030006 226.16575 
L 155.392744 226.501804 
L 155.454254 226.558368 
L 155.759854 226.837591 
L 155.94882 227.008764 
L 156.0013 227.056103 
L 156.219978 227.252433 
L 156.532368 227.53033 
L 156.761 227.731825 
L 156.901612 227.85496 
L 157.126209 228.050412 
L 157.25101 228.158368 
L 157.363117 228.25495 
L 157.657659 228.506944 
L 157.805485 228.632462 
L 157.953894 228.757841 
L 158.149429 228.922068 
L 158.488558 229.20432 
L 158.58653 229.285257 
L 158.76647 229.433213 
L 159.11641 229.718383 
L 159.252665 229.828509 
L 159.479198 230.010485 
L 159.642234 230.140595 
L 159.864947 230.317181 
L 160.072386 230.480469 
L 160.26353 230.629927 
L 160.474836 230.794038 
L 160.656204 230.933972 
L 160.752503 231.007926 
L 161.001704 231.1982 
L 161.15404 231.313735 
L 161.369442 231.476098 
L 161.574331 231.629455 
L 161.673984 231.703666 
L 161.966882 231.920359 
L 162.230418 232.113525 
L 162.430168 232.258811 
L 162.601599 232.382729 
L 162.777427 232.509091 
L 162.936298 232.62263 
L 163.037969 232.694975 
L 163.293836 232.87596 
L 163.458848 232.991863 
L 163.636605 233.116006 
L 163.907906 233.304064 
L 164.109143 233.442461 
L 164.373673 233.622977 
L 164.456878 233.679427 
L 164.684968 233.833373 
L 164.880975 233.964731 
L 165.046884 234.075248 
L 165.335126 234.265802 
L 165.467313 234.352576 
L 165.586139 234.430252 
L 165.914504 234.643303 
L 166.140435 234.788535 
L 166.296463 234.888192 
L 166.435012 234.976248 
L 166.7465 235.172725 
L 166.828325 235.223997 
L 166.969866 235.312354 
L 167.278087 235.503309 
L 167.450897 235.609506 
L 167.647926 235.729831 
L 167.902065 235.883852 
L 168.054714 235.97573 
L 168.123825 236.017171 
L 168.513754 236.249169 
L 168.598475 236.29917 
L 168.766871 236.398127 
L 169.036326 236.555293 
L 169.2 236.650055 
L 169.2 169.2 
z
" clip-path="url(#p39f8ad0796)" style="fill: #808080; opacity: 0.5"/>
   </g>
   <g id="matplotlib.axis_1"/>
   <g id="matplotlib.axis_2"/>
   <g id="line2d_1">
    <path d="M 169.2 101.749945 
L 172.743417 103.923844 
L 176.054142 106.202393 
L 179.371238 108.752726 
L 182.464228 111.40302 
L 185.577347 114.375287 
L 188.509463 117.501407 
L 191.101447 120.578494 
L 193.5795 123.852872 
L 195.962055 127.37955 
L 198.109724 130.962386 
L 200.136273 134.805272 
L 201.863584 138.563265 
L 203.36718 142.348256 
L 204.743216 146.442144 
L 205.858053 150.475717 
L 206.722324 154.395493 
L 207.416186 158.58962 
L 207.869997 162.692812 
L 208.104924 166.787157 
L 208.142308 169.2 
L 208.142308 169.2 
" clip-path="url(#p39f8ad0796)" style="fill: none; stroke: #0000ff; stroke-linecap: square"/>
   </g>
   <g id="line2d_2">
    <path d="M 169.2 236.650055 
L 172.779419 234.452709 
L 176.067423 232.187951 
L 179.310044 229.696943 
L 182.558788 226.911426 
L 185.516393 224.086149 
L 188.345906 221.082297 
L 191.079218 217.849309 
L 193.666671 214.425157 
L 195.923981 211.080209 
L 198.139914 207.383993 
L 200.011823 203.846423 
L 201.818621 199.941614 
L 203.322015 196.174398 
L 204.71381 192.053881 
L 205.842052 187.988769 
L 206.727124 183.979692 
L 207.402746 179.907664 
L 207.86077 175.816312 
L 208.098317 171.817324 
L 208.142308 169.2 
L 208.142308 169.2 
" clip-path="url(#p39f8ad0796)" style="fill: none; stroke: #0000ff; stroke-linecap: square"/>
   </g>
   <g id="line2d_3">
    <path d="M 130.257692 169.2 
L 130.389369 164.672987 
L 130.733127 160.60744 
L 131.304861 156.47129 
L 132.106205 152.332147 
L 133.102216 148.343397 
L 134.288849 144.467837 
L 135.713098 140.563957 
L 137.40872 136.599802 
L 139.36226 132.657992 
L 141.343507 129.150861 
L 143.489972 125.770876 
L 146.026828 122.214039 
L 148.601823 118.990997 
L 151.438237 115.808412 
L 154.235041 112.985945 
L 157.492955 110.033655 
L 160.648764 107.471752 
L 164.114211 104.954066 
L 167.675216 102.653566 
L 169.2 101.749945 
L 169.2 101.749945 
" clip-path="url(#p39f8ad0796)" style="fill: none; stroke: #0000ff; stroke-linecap: square"/>
   </g>
   <g id="line2d_4">
    <path d="M 130.257692 169.2 
L 130.394003 173.80592 
L 130.751626 177.957605 
L 131.282945 181.795703 
L 132.08558 185.974609 
L 133.090564 190.014636 
L 134.241045 193.788953 
L 135.740968 197.906434 
L 137.393849 201.767913 
L 139.19447 205.424426 
L 141.401457 209.345636 
L 143.62803 212.833946 
L 145.926671 216.053258 
L 148.577849 219.38056 
L 151.332804 222.479392 
L 154.088443 225.273104 
L 157.25101 228.158368 
L 160.474836 230.794038 
L 163.907906 233.304064 
L 167.450897 235.609506 
L 169.2 236.650055 
L 169.2 236.650055 
" clip-path="url(#p39f8ad0796)" style="fill: none; stroke: #0000ff; stroke-linecap: square"/>
   </g>
   <g id="text_1">
    <!-- $\Omega$ -->
    <g transform="translate(17.569231 23.978606)scale(0.1 -0.1)">
     <defs>
      <path id="Cmr10-ad" d="M 494 0 
L 281 1063 
L 469 1063 
Q 503 878 531 736 
Q 559 594 604 536 
Q 650 478 750 459 
Q 850 441 1081 441 
L 1472 441 
Q 1378 803 1004 1386 
Q 631 1969 495 2233 
Q 359 2497 359 2913 
Q 359 3397 646 3761 
Q 934 4125 1389 4319 
Q 1844 4513 2309 4513 
Q 2772 4513 3226 4319 
Q 3681 4125 3968 3758 
Q 4256 3391 4256 2913 
Q 4256 2588 4137 2300 
Q 4019 2013 3834 1725 
Q 3650 1438 3436 1084 
Q 3222 731 3144 441 
L 3531 441 
Q 3766 441 3869 459 
Q 3972 478 4015 536 
Q 4059 594 4086 736 
Q 4113 878 4147 1063 
L 4331 1063 
L 4122 0 
L 2988 0 
Q 2925 0 2925 84 
Q 2925 409 3004 721 
Q 3084 1034 3240 1478 
Q 3397 1922 3484 2261 
Q 3572 2600 3572 2913 
Q 3572 3297 3422 3625 
Q 3272 3953 2984 4150 
Q 2697 4347 2309 4347 
Q 1725 4347 1384 3930 
Q 1044 3513 1044 2913 
Q 1047 2584 1122 2293 
Q 1197 2003 1364 1518 
Q 1531 1034 1611 721 
Q 1691 409 1691 84 
Q 1691 0 1625 0 
L 494 0 
z
" transform="scale(0.015625)"/>
     </defs>
     <use xlink:href="#Cmr10-ad" transform="translate(0 0.484375)"/>
    </g>
   </g>
   <g id="text_2">
    <!-- $A$ -->
    <g style="fill: #0000ff" transform="translate(87.565385 94.07476)scale(0.1 -0.1)">
     <defs>
      <path id="Cmmi10-41" d="M 288 0 
Q 225 0 225 84 
Q 250 225 306 225 
Q 566 225 755 328 
Q 944 431 1081 647 
Q 1094 659 1094 659 
L 3378 4513 
Q 3428 4581 3500 4581 
L 3584 4581 
Q 3603 4581 3622 4573 
Q 3641 4566 3655 4548 
Q 3669 4531 3669 4513 
L 4056 378 
Q 4056 350 4084 294 
Q 4147 225 4563 225 
Q 4628 225 4628 141 
Q 4606 56 4592 28 
Q 4578 0 4519 0 
L 2919 0 
Q 2859 0 2859 84 
Q 2894 225 2944 225 
Q 3450 225 3481 397 
L 3384 1453 
L 1806 1453 
L 1294 594 
Q 1247 525 1247 434 
Q 1247 322 1355 273 
Q 1463 225 1594 225 
Q 1656 225 1656 141 
Q 1634 50 1621 25 
Q 1609 0 1550 0 
L 288 0 
z
M 1931 1678 
L 3359 1678 
L 3169 3750 
L 1931 1678 
z
" transform="scale(0.015625)"/>
     </defs>
     <use xlink:href="#Cmmi10-41" transform="translate(0 0.421875)"/>
    </g>
   </g>
   <g id="text_3">
    <!-- $B$ -->
    <g style="fill: #ff0000" transform="translate(243.284615 94.07476)scale(0.1 -0.1)">
     <defs>
      <path id="Cmmi10-42" d="M 319 0 
Q 256 0 256 84 
Q 259 100 268 137 
Q 278 175 293 200 
Q 309 225 341 225 
Q 522 225 656 234 
Q 791 244 884 269 
Q 959 297 1006 441 
L 1881 3956 
Q 1894 4019 1894 4044 
Q 1894 4113 1819 4122 
Q 1697 4147 1356 4147 
Q 1294 4147 1294 4231 
Q 1297 4247 1306 4286 
Q 1316 4325 1333 4348 
Q 1350 4372 1375 4372 
L 3669 4372 
Q 3878 4372 4083 4320 
Q 4288 4269 4461 4156 
Q 4634 4044 4736 3876 
Q 4838 3709 4838 3488 
Q 4838 3247 4714 3040 
Q 4591 2834 4395 2681 
Q 4200 2528 3973 2429 
Q 3747 2331 3500 2284 
Q 3675 2284 3854 2215 
Q 4034 2147 4175 2028 
Q 4316 1909 4402 1743 
Q 4488 1578 4488 1388 
Q 4488 1003 4219 684 
Q 3950 366 3542 183 
Q 3134 0 2753 0 
L 319 0 
z
M 1497 275 
Q 1497 225 1716 225 
L 2631 225 
Q 2944 225 3231 398 
Q 3519 572 3692 859 
Q 3866 1147 3866 1459 
Q 3866 1650 3786 1820 
Q 3706 1991 3556 2089 
Q 3406 2188 3213 2188 
L 1966 2188 
L 1522 416 
Q 1497 328 1497 275 
z
M 2009 2356 
L 2981 2356 
Q 3288 2356 3577 2512 
Q 3866 2669 4048 2937 
Q 4231 3206 4231 3506 
Q 4231 3784 4057 3965 
Q 3884 4147 3609 4147 
L 2731 4147 
Q 2559 4147 2500 4115 
Q 2441 4084 2400 3928 
L 2009 2356 
z
" transform="scale(0.015625)"/>
     </defs>
     <use xlink:href="#Cmmi10-42" transform="translate(0 0.6875)"/>
    </g>
   </g>
   <g id="text_4">
    <!-- $A\cap B$, colorée en gris -->
    <g transform="translate(116.25 55.323077)scale(0.1 -0.1)">
     <defs>
      <path id="Cmsy10-5c" d="M 359 -25 
L 359 2472 
Q 359 2897 625 3206 
Q 891 3516 1306 3672 
Q 1722 3828 2131 3828 
Q 2434 3828 2745 3745 
Q 3056 3663 3320 3489 
Q 3584 3316 3743 3056 
Q 3903 2797 3903 2472 
L 3903 -25 
Q 3903 -75 3865 -108 
Q 3828 -141 3775 -141 
Q 3728 -141 3687 -108 
Q 3647 -75 3647 -25 
L 3647 2450 
Q 3647 2731 3508 2945 
Q 3369 3159 3151 3293 
Q 2934 3428 2662 3500 
Q 2391 3572 2131 3572 
Q 1775 3572 1426 3447 
Q 1078 3322 847 3069 
Q 616 2816 616 2450 
L 616 -25 
Q 616 -75 575 -108 
Q 534 -141 488 -141 
Q 434 -141 396 -108 
Q 359 -75 359 -25 
z
" transform="scale(0.015625)"/>
      <path id="DejaVuSans-2c" d="M 750 794 
L 1409 794 
L 1409 256 
L 897 -744 
L 494 -744 
L 750 256 
L 750 794 
z
" transform="scale(0.015625)"/>
      <path id="DejaVuSans-20" transform="scale(0.015625)"/>
      <path id="DejaVuSans-63" d="M 3122 3366 
L 3122 2828 
Q 2878 2963 2633 3030 
Q 2388 3097 2138 3097 
Q 1578 3097 1268 2742 
Q 959 2388 959 1747 
Q 959 1106 1268 751 
Q 1578 397 2138 397 
Q 2388 397 2633 464 
Q 2878 531 3122 666 
L 3122 134 
Q 2881 22 2623 -34 
Q 2366 -91 2075 -91 
Q 1284 -91 818 406 
Q 353 903 353 1747 
Q 353 2603 823 3093 
Q 1294 3584 2113 3584 
Q 2378 3584 2631 3529 
Q 2884 3475 3122 3366 
z
" transform="scale(0.015625)"/>
      <path id="DejaVuSans-6f" d="M 1959 3097 
Q 1497 3097 1228 2736 
Q 959 2375 959 1747 
Q 959 1119 1226 758 
Q 1494 397 1959 397 
Q 2419 397 2687 759 
Q 2956 1122 2956 1747 
Q 2956 2369 2687 2733 
Q 2419 3097 1959 3097 
z
M 1959 3584 
Q 2709 3584 3137 3096 
Q 3566 2609 3566 1747 
Q 3566 888 3137 398 
Q 2709 -91 1959 -91 
Q 1206 -91 779 398 
Q 353 888 353 1747 
Q 353 2609 779 3096 
Q 1206 3584 1959 3584 
z
" transform="scale(0.015625)"/>
      <path id="DejaVuSans-6c" d="M 603 4863 
L 1178 4863 
L 1178 0 
L 603 0 
L 603 4863 
z
" transform="scale(0.015625)"/>
      <path id="DejaVuSans-72" d="M 2631 2963 
Q 2534 3019 2420 3045 
Q 2306 3072 2169 3072 
Q 1681 3072 1420 2755 
Q 1159 2438 1159 1844 
L 1159 0 
L 581 0 
L 581 3500 
L 1159 3500 
L 1159 2956 
Q 1341 3275 1631 3429 
Q 1922 3584 2338 3584 
Q 2397 3584 2469 3576 
Q 2541 3569 2628 3553 
L 2631 2963 
z
" transform="scale(0.015625)"/>
      <path id="DejaVuSans-e9" d="M 3597 1894 
L 3597 1613 
L 953 1613 
Q 991 1019 1311 708 
Q 1631 397 2203 397 
Q 2534 397 2845 478 
Q 3156 559 3463 722 
L 3463 178 
Q 3153 47 2828 -22 
Q 2503 -91 2169 -91 
Q 1331 -91 842 396 
Q 353 884 353 1716 
Q 353 2575 817 3079 
Q 1281 3584 2069 3584 
Q 2775 3584 3186 3129 
Q 3597 2675 3597 1894 
z
M 3022 2063 
Q 3016 2534 2758 2815 
Q 2500 3097 2075 3097 
Q 1594 3097 1305 2825 
Q 1016 2553 972 2059 
L 3022 2063 
z
M 2469 5119 
L 3091 5119 
L 2072 3944 
L 1594 3944 
L 2469 5119 
z
" transform="scale(0.015625)"/>
      <path id="DejaVuSans-65" d="M 3597 1894 
L 3597 1613 
L 953 1613 
Q 991 1019 1311 708 
Q 1631 397 2203 397 
Q 2534 397 2845 478 
Q 3156 559 3463 722 
L 3463 178 
Q 3153 47 2828 -22 
Q 2503 -91 2169 -91 
Q 1331 -91 842 396 
Q 353 884 353 1716 
Q 353 2575 817 3079 
Q 1281 3584 2069 3584 
Q 2775 3584 3186 3129 
Q 3597 2675 3597 1894 
z
M 3022 2063 
Q 3016 2534 2758 2815 
Q 2500 3097 2075 3097 
Q 1594 3097 1305 2825 
Q 1016 2553 972 2059 
L 3022 2063 
z
" transform="scale(0.015625)"/>
      <path id="DejaVuSans-6e" d="M 3513 2113 
L 3513 0 
L 2938 0 
L 2938 2094 
Q 2938 2591 2744 2837 
Q 2550 3084 2163 3084 
Q 1697 3084 1428 2787 
Q 1159 2491 1159 1978 
L 1159 0 
L 581 0 
L 581 3500 
L 1159 3500 
L 1159 2956 
Q 1366 3272 1645 3428 
Q 1925 3584 2291 3584 
Q 2894 3584 3203 3211 
Q 3513 2838 3513 2113 
z
" transform="scale(0.015625)"/>
      <path id="DejaVuSans-67" d="M 2906 1791 
Q 2906 2416 2648 2759 
Q 2391 3103 1925 3103 
Q 1463 3103 1205 2759 
Q 947 2416 947 1791 
Q 947 1169 1205 825 
Q 1463 481 1925 481 
Q 2391 481 2648 825 
Q 2906 1169 2906 1791 
z
M 3481 434 
Q 3481 -459 3084 -895 
Q 2688 -1331 1869 -1331 
Q 1566 -1331 1297 -1286 
Q 1028 -1241 775 -1147 
L 775 -588 
Q 1028 -725 1275 -790 
Q 1522 -856 1778 -856 
Q 2344 -856 2625 -561 
Q 2906 -266 2906 331 
L 2906 616 
Q 2728 306 2450 153 
Q 2172 0 1784 0 
Q 1141 0 747 490 
Q 353 981 353 1791 
Q 353 2603 747 3093 
Q 1141 3584 1784 3584 
Q 2172 3584 2450 3431 
Q 2728 3278 2906 2969 
L 2906 3500 
L 3481 3500 
L 3481 434 
z
" transform="scale(0.015625)"/>
      <path id="DejaVuSans-69" d="M 603 3500 
L 1178 3500 
L 1178 0 
L 603 0 
L 603 3500 
z
M 603 4863 
L 1178 4863 
L 1178 4134 
L 603 4134 
L 603 4863 
z
" transform="scale(0.015625)"/>
      <path id="DejaVuSans-73" d="M 2834 3397 
L 2834 2853 
Q 2591 2978 2328 3040 
Q 2066 3103 1784 3103 
Q 1356 3103 1142 2972 
Q 928 2841 928 2578 
Q 928 2378 1081 2264 
Q 1234 2150 1697 2047 
L 1894 2003 
Q 2506 1872 2764 1633 
Q 3022 1394 3022 966 
Q 3022 478 2636 193 
Q 2250 -91 1575 -91 
Q 1294 -91 989 -36 
Q 684 19 347 128 
L 347 722 
Q 666 556 975 473 
Q 1284 391 1588 391 
Q 1994 391 2212 530 
Q 2431 669 2431 922 
Q 2431 1156 2273 1281 
Q 2116 1406 1581 1522 
L 1381 1569 
Q 847 1681 609 1914 
Q 372 2147 372 2553 
Q 372 3047 722 3315 
Q 1072 3584 1716 3584 
Q 2034 3584 2315 3537 
Q 2597 3491 2834 3397 
z
" transform="scale(0.015625)"/>
     </defs>
     <use xlink:href="#Cmmi10-41" transform="translate(0 0.015625)"/>
     <use xlink:href="#Cmsy10-5c" transform="translate(92.558594 0.015625)"/>
     <use xlink:href="#Cmmi10-42" transform="translate(176.71875 0.015625)"/>
     <use xlink:href="#DejaVuSans-2c" transform="translate(252.5 0.015625)"/>
     <use xlink:href="#DejaVuSans-20" transform="translate(284.287109 0.015625)"/>
     <use xlink:href="#DejaVuSans-63" transform="translate(316.074219 0.015625)"/>
     <use xlink:href="#DejaVuSans-6f" transform="translate(371.054688 0.015625)"/>
     <use xlink:href="#DejaVuSans-6c" transform="translate(432.236328 0.015625)"/>
     <use xlink:href="#DejaVuSans-6f" transform="translate(460.019531 0.015625)"/>
     <use xlink:href="#DejaVuSans-72" transform="translate(521.201172 0.015625)"/>
     <use xlink:href="#DejaVuSans-e9" transform="translate(562.314453 0.015625)"/>
     <use xlink:href="#DejaVuSans-65" transform="translate(623.837891 0.015625)"/>
     <use xlink:href="#DejaVuSans-20" transform="translate(685.361328 0.015625)"/>
     <use xlink:href="#DejaVuSans-65" transform="translate(717.148438 0.015625)"/>
     <use xlink:href="#DejaVuSans-6e" transform="translate(778.671875 0.015625)"/>
     <use xlink:href="#DejaVuSans-20" transform="translate(842.050781 0.015625)"/>
     <use xlink:href="#DejaVuSans-67" transform="translate(873.837891 0.015625)"/>
     <use xlink:href="#DejaVuSans-72" transform="translate(937.314453 0.015625)"/>
     <use xlink:href="#DejaVuSans-69" transform="translate(978.427734 0.015625)"/>
     <use xlink:href="#DejaVuSans-73" transform="translate(1006.210938 0.015625)"/>
    </g>
   </g>
   <g id="patch_8">
    <path d="M 130.257692 247.084615 
C 150.912934 247.084615 170.724971 238.878201 185.330432 224.27274 
C 199.935893 209.667278 208.142308 189.855241 208.142308 169.2 
C 208.142308 148.544759 199.935893 128.732722 185.330432 114.12726 
C 170.724971 99.521799 150.912934 91.315385 130.257692 91.315385 
C 109.602451 91.315385 89.790414 99.521799 75.184953 114.12726 
C 60.579491 128.732722 52.373077 148.544759 52.373077 169.2 
C 52.373077 189.855241 60.579491 209.667278 75.184953 224.27274 
C 89.790414 238.878201 109.602451 247.084615 130.257692 247.084615 
L 130.257692 247.084615 
z
" clip-path="url(#p39f8ad0796)" style="fill: none; stroke: #0000ff; stroke-linejoin: miter"/>
   </g>
   <g id="patch_9">
    <path d="M 208.142308 247.084615 
C 228.797549 247.084615 248.609586 238.878201 263.215047 224.27274 
C 277.820509 209.667278 286.026923 189.855241 286.026923 169.2 
C 286.026923 148.544759 277.820509 128.732722 263.215047 114.12726 
C 248.609586 99.521799 228.797549 91.315385 208.142308 91.315385 
C 187.487066 91.315385 167.675029 99.521799 153.069568 114.12726 
C 138.464107 128.732722 130.257692 148.544759 130.257692 169.2 
C 130.257692 189.855241 138.464107 209.667278 153.069568 224.27274 
C 167.675029 238.878201 187.487066 247.084615 208.142308 247.084615 
L 208.142308 247.084615 
z
" clip-path="url(#p39f8ad0796)" style="fill: none; stroke: #ff0000; stroke-linejoin: miter"/>
   </g>
  </g>
 </g>
 <defs>
  <clipPath id="p39f8ad0796">
   <rect x="7.2" y="7.2" width="324" height="324"/>
  </clipPath>
 </defs>
</svg>
