<?xml version="1.0" encoding="utf-8" standalone="no"?>
<!DOCTYPE svg PUBLIC "-//W3C//DTD SVG 1.1//EN"
  "http://www.w3.org/Graphics/SVG/1.1/DTD/svg11.dtd">
<svg xmlns:xlink="http://www.w3.org/1999/xlink" width="401.265672pt" height="338.4pt" viewBox="0 0 401.265672 338.4" xmlns="http://www.w3.org/2000/svg" version="1.1">
 <metadata>
  <rdf:RDF xmlns:dc="http://purl.org/dc/elements/1.1/" xmlns:cc="http://creativecommons.org/ns#" xmlns:rdf="http://www.w3.org/1999/02/22-rdf-syntax-ns#">
   <cc:Work>
    <dc:type rdf:resource="http://purl.org/dc/dcmitype/StillImage"/>
    <dc:date>2022-08-23T18:58:23.006104</dc:date>
    <dc:format>image/svg+xml</dc:format>
    <dc:creator>
     <cc:Agent>
      <dc:title>Matplotlib v3.5.2, https://matplotlib.org/</dc:title>
     </cc:Agent>
    </dc:creator>
   </cc:Work>
  </rdf:RDF>
 </metadata>
 <defs>
  <style type="text/css">*{stroke-linejoin: round; stroke-linecap: butt}</style>
 </defs>
 <g id="figure_1">
  <g id="patch_1">
   <path d="M -0 338.4 
L 401.265672 338.4 
L 401.265672 0 
L -0 0 
z
" style="fill: #ffffff"/>
  </g>
  <g id="axes_1">
   <g id="patch_2">
    <path d="M 7.2 331.2 
L 394.065672 331.2 
L 394.065672 7.2 
L 7.2 7.2 
z
" style="fill: #ffffff"/>
   </g>
   <g id="PathCollection_1">
    <path d="M 61.138002 94.71391 
C 61.731014 94.71391 62.299818 94.478303 62.719141 94.05898 
C 63.138464 93.639657 63.37407 93.070854 63.37407 92.477842 
C 63.37407 91.884829 63.138464 91.316026 62.719141 90.896703 
C 62.299818 90.47738 61.731014 90.241774 61.138002 90.241774 
C 60.54499 90.241774 59.976186 90.47738 59.556863 90.896703 
C 59.137541 91.316026 58.901934 91.884829 58.901934 92.477842 
C 58.901934 93.070854 59.137541 93.639657 59.556863 94.05898 
C 59.976186 94.478303 60.54499 94.71391 61.138002 94.71391 
z
" clip-path="url(#pb3e9beb2bd)"/>
   </g>
   <g id="PathCollection_2">
    <path d="M 61.138002 141.212187 
C 61.731014 141.212187 62.299818 140.976581 62.719141 140.557258 
C 63.138464 140.137935 63.37407 139.569132 63.37407 138.976119 
C 63.37407 138.383107 63.138464 137.814303 62.719141 137.394981 
C 62.299818 136.975658 61.731014 136.740051 61.138002 136.740051 
C 60.54499 136.740051 59.976186 136.975658 59.556863 137.394981 
C 59.137541 137.814303 58.901934 138.383107 58.901934 138.976119 
C 58.901934 139.569132 59.137541 140.137935 59.556863 140.557258 
C 59.976186 140.976581 60.54499 141.212187 61.138002 141.212187 
z
" clip-path="url(#pb3e9beb2bd)"/>
   </g>
   <g id="PathCollection_3">
    <path d="M 61.138002 187.710465 
C 61.731014 187.710465 62.299818 187.474859 62.719141 187.055536 
C 63.138464 186.636213 63.37407 186.067409 63.37407 185.474397 
C 63.37407 184.881385 63.138464 184.312581 62.719141 183.893258 
C 62.299818 183.473935 61.731014 183.238329 61.138002 183.238329 
C 60.54499 183.238329 59.976186 183.473935 59.556863 183.893258 
C 59.137541 184.312581 58.901934 184.881385 58.901934 185.474397 
C 58.901934 186.067409 59.137541 186.636213 59.556863 187.055536 
C 59.976186 187.474859 60.54499 187.710465 61.138002 187.710465 
z
" clip-path="url(#pb3e9beb2bd)"/>
   </g>
   <g id="PathCollection_4">
    <path d="M 200.632836 94.71391 
C 201.225848 94.71391 201.794652 94.478303 202.213975 94.05898 
C 202.633298 93.639657 202.868904 93.070854 202.868904 92.477842 
C 202.868904 91.884829 202.633298 91.316026 202.213975 90.896703 
C 201.794652 90.47738 201.225848 90.241774 200.632836 90.241774 
C 200.039824 90.241774 199.47102 90.47738 199.051697 90.896703 
C 198.632374 91.316026 198.396768 91.884829 198.396768 92.477842 
C 198.396768 93.070854 198.632374 93.639657 199.051697 94.05898 
C 199.47102 94.478303 200.039824 94.71391 200.632836 94.71391 
z
" clip-path="url(#pb3e9beb2bd)"/>
   </g>
   <g id="PathCollection_5">
    <path d="M 200.632836 141.212187 
C 201.225848 141.212187 201.794652 140.976581 202.213975 140.557258 
C 202.633298 140.137935 202.868904 139.569132 202.868904 138.976119 
C 202.868904 138.383107 202.633298 137.814303 202.213975 137.394981 
C 201.794652 136.975658 201.225848 136.740051 200.632836 136.740051 
C 200.039824 136.740051 199.47102 136.975658 199.051697 137.394981 
C 198.632374 137.814303 198.396768 138.383107 198.396768 138.976119 
C 198.396768 139.569132 198.632374 140.137935 199.051697 140.557258 
C 199.47102 140.976581 200.039824 141.212187 200.632836 141.212187 
z
" clip-path="url(#pb3e9beb2bd)"/>
   </g>
   <g id="PathCollection_6">
    <path d="M 200.632836 187.710465 
C 201.225848 187.710465 201.794652 187.474859 202.213975 187.055536 
C 202.633298 186.636213 202.868904 186.067409 202.868904 185.474397 
C 202.868904 184.881385 202.633298 184.312581 202.213975 183.893258 
C 201.794652 183.473935 201.225848 183.238329 200.632836 183.238329 
C 200.039824 183.238329 199.47102 183.473935 199.051697 183.893258 
C 198.632374 184.312581 198.396768 184.881385 198.396768 185.474397 
C 198.396768 186.067409 198.632374 186.636213 199.051697 187.055536 
C 199.47102 187.474859 200.039824 187.710465 200.632836 187.710465 
z
" clip-path="url(#pb3e9beb2bd)"/>
   </g>
   <g id="PathCollection_7">
    <path d="M 340.127669 94.71391 
C 340.720682 94.71391 341.289485 94.478303 341.708808 94.05898 
C 342.128131 93.639657 342.363737 93.070854 342.363737 92.477842 
C 342.363737 91.884829 342.128131 91.316026 341.708808 90.896703 
C 341.289485 90.47738 340.720682 90.241774 340.127669 90.241774 
C 339.534657 90.241774 338.965853 90.47738 338.546531 90.896703 
C 338.127208 91.316026 337.891601 91.884829 337.891601 92.477842 
C 337.891601 93.070854 338.127208 93.639657 338.546531 94.05898 
C 338.965853 94.478303 339.534657 94.71391 340.127669 94.71391 
z
" clip-path="url(#pb3e9beb2bd)"/>
   </g>
   <g id="PathCollection_8">
    <path d="M 340.127669 125.712761 
C 340.720682 125.712761 341.289485 125.477155 341.708808 125.057832 
C 342.128131 124.638509 342.363737 124.069706 342.363737 123.476693 
C 342.363737 122.883681 342.128131 122.314878 341.708808 121.895555 
C 341.289485 121.476232 340.720682 121.240625 340.127669 121.240625 
C 339.534657 121.240625 338.965853 121.476232 338.546531 121.895555 
C 338.127208 122.314878 337.891601 122.883681 337.891601 123.476693 
C 337.891601 124.069706 338.127208 124.638509 338.546531 125.057832 
C 338.965853 125.477155 339.534657 125.712761 340.127669 125.712761 
z
" clip-path="url(#pb3e9beb2bd)"/>
   </g>
   <g id="PathCollection_9">
    <path d="M 340.127669 156.711613 
C 340.720682 156.711613 341.289485 156.476007 341.708808 156.056684 
C 342.128131 155.637361 342.363737 155.068558 342.363737 154.475545 
C 342.363737 153.882533 342.128131 153.313729 341.708808 152.894407 
C 341.289485 152.475084 340.720682 152.239477 340.127669 152.239477 
C 339.534657 152.239477 338.965853 152.475084 338.546531 152.894407 
C 338.127208 153.313729 337.891601 153.882533 337.891601 154.475545 
C 337.891601 155.068558 338.127208 155.637361 338.546531 156.056684 
C 338.965853 156.476007 339.534657 156.711613 340.127669 156.711613 
z
" clip-path="url(#pb3e9beb2bd)"/>
   </g>
   <g id="PathCollection_10">
    <path d="M 340.127669 187.710465 
C 340.720682 187.710465 341.289485 187.474859 341.708808 187.055536 
C 342.128131 186.636213 342.363737 186.067409 342.363737 185.474397 
C 342.363737 184.881385 342.128131 184.312581 341.708808 183.893258 
C 341.289485 183.473935 340.720682 183.238329 340.127669 183.238329 
C 339.534657 183.238329 338.965853 183.473935 338.546531 183.893258 
C 338.127208 184.312581 337.891601 184.881385 337.891601 185.474397 
C 337.891601 186.067409 338.127208 186.636213 338.546531 187.055536 
C 338.965853 187.474859 339.534657 187.710465 340.127669 187.710465 
z
" clip-path="url(#pb3e9beb2bd)"/>
   </g>
   <g id="matplotlib.axis_1"/>
   <g id="matplotlib.axis_2"/>
   <g id="patch_3">
    <path d="M 61.138002 138.976119 
Q 130.885419 162.225258 199.572176 185.120844 
" clip-path="url(#pb3e9beb2bd)" style="fill: none; stroke: #000000; stroke-linecap: round"/>
    <path d="M 196.409898 181.958566 
L 199.572176 185.120844 
L 195.144987 185.753299 
L 196.409898 181.958566 
z
" clip-path="url(#pb3e9beb2bd)" style="stroke: #000000; stroke-linecap: round"/>
   </g>
   <g id="patch_4">
    <path d="M 200.632836 92.477842 
Q 270.380253 138.976119 339.197409 184.854224 
" clip-path="url(#pb3e9beb2bd)" style="fill: none; stroke: #000000; stroke-linecap: round"/>
    <path d="M 336.978608 180.971322 
L 339.197409 184.854224 
L 334.759807 184.299523 
L 336.978608 180.971322 
z
" clip-path="url(#pb3e9beb2bd)" style="stroke: #000000; stroke-linecap: round"/>
   </g>
   <g id="patch_5">
    <path d="M 200.632836 185.474397 
Q 270.380253 154.475545 339.105997 123.93077 
" clip-path="url(#pb3e9beb2bd)" style="fill: none; stroke: #000000; stroke-linecap: round"/>
    <path d="M 334.638474 123.727701 
L 339.105997 123.93077 
L 336.263028 127.382947 
L 334.638474 123.727701 
z
" clip-path="url(#pb3e9beb2bd)" style="stroke: #000000; stroke-linecap: round"/>
   </g>
   <g id="patch_6">
    <path d="M 61.138002 185.474397 
Q 130.885419 138.976119 199.702575 93.098015 
" clip-path="url(#pb3e9beb2bd)" style="fill: none; stroke: #000000; stroke-linecap: round"/>
    <path d="M 195.264974 93.652715 
L 199.702575 93.098015 
L 197.483775 96.980917 
L 195.264974 93.652715 
z
" clip-path="url(#pb3e9beb2bd)" style="stroke: #000000; stroke-linecap: round"/>
   </g>
   <g id="patch_7">
    <path d="M 61.138002 92.477842 
Q 130.885419 92.477842 199.514802 92.477842 
" clip-path="url(#pb3e9beb2bd)" style="fill: none; stroke: #000000; stroke-linecap: round"/>
    <path d="M 195.514802 90.477842 
L 199.514802 92.477842 
L 195.514802 94.477842 
L 195.514802 90.477842 
z
" clip-path="url(#pb3e9beb2bd)" style="stroke: #000000; stroke-linecap: round"/>
   </g>
   <g id="patch_8">
    <path d="M 200.632836 138.976119 
Q 270.380253 115.72698 339.067009 92.831395 
" clip-path="url(#pb3e9beb2bd)" style="fill: none; stroke: #000000; stroke-linecap: round"/>
    <path d="M 334.63982 92.198939 
L 339.067009 92.831395 
L 335.904732 95.993673 
L 334.63982 92.198939 
z
" clip-path="url(#pb3e9beb2bd)" style="stroke: #000000; stroke-linecap: round"/>
   </g>
   <g id="patch_9">
    <path d="M 61.138002 231.972675 
Q 200.632836 324.969231 326.178186 241.272331 
" clip-path="url(#pb3e9beb2bd)" style="fill: none; stroke: #000000; stroke-linejoin: miter"/>
   </g>
   <g id="patch_10">
    <path d="M 326.178186 241.272331 
Q 333.152928 236.622503 339.197409 232.592849 
" clip-path="url(#pb3e9beb2bd)" style="fill: none; stroke: #000000; stroke-linecap: round"/>
    <path d="M 334.759807 233.147549 
L 339.197409 232.592849 
L 336.978608 236.47575 
L 334.759807 233.147549 
z
" clip-path="url(#pb3e9beb2bd)" style="stroke: #000000; stroke-linecap: round"/>
   </g>
   <g id="patch_11">
    <path d="M 61.138002 45.979564 
Q 130.885419 13.430769 191.33318 41.329736 
" clip-path="url(#pb3e9beb2bd)" style="fill: none; stroke: #000000; stroke-linejoin: miter"/>
   </g>
   <g id="patch_12">
    <path d="M 191.33318 41.329736 
Q 195.983008 43.65465 199.632836 45.479564 
" clip-path="url(#pb3e9beb2bd)" style="fill: none; stroke: #000000; stroke-linecap: round"/>
    <path d="M 196.949554 41.901855 
L 199.632836 45.479564 
L 195.1607 45.479564 
L 196.949554 41.901855 
z
" clip-path="url(#pb3e9beb2bd)" style="stroke: #000000; stroke-linecap: round"/>
   </g>
   <g id="patch_13">
    <path d="M 200.632836 45.979564 
Q 270.380253 13.430769 330.828014 41.329736 
" clip-path="url(#pb3e9beb2bd)" style="fill: none; stroke: #000000; stroke-linejoin: miter"/>
   </g>
   <g id="patch_14">
    <path d="M 330.828014 41.329736 
Q 335.477842 43.65465 339.127669 45.479564 
" clip-path="url(#pb3e9beb2bd)" style="fill: none; stroke: #000000; stroke-linecap: round"/>
    <path d="M 336.444388 41.901855 
L 339.127669 45.479564 
L 334.655533 45.479564 
L 336.444388 41.901855 
z
" clip-path="url(#pb3e9beb2bd)" style="stroke: #000000; stroke-linecap: round"/>
   </g>
   <g id="text_1">
    <!-- $a$ -->
    <g transform="translate(48.658347 95.789092)scale(0.12 -0.12)">
     <defs>
      <path id="Cmmi10-61" d="M 1113 -72 
Q 709 -72 476 233 
Q 244 538 244 953 
Q 244 1363 456 1803 
Q 669 2244 1030 2536 
Q 1391 2828 1806 2828 
Q 1997 2828 2147 2725 
Q 2297 2622 2381 2444 
Q 2453 2700 2663 2700 
Q 2744 2700 2798 2651 
Q 2853 2603 2853 2522 
Q 2853 2503 2851 2493 
Q 2850 2484 2847 2472 
L 2400 684 
Q 2356 494 2356 372 
Q 2356 97 2541 97 
Q 2741 97 2845 351 
Q 2950 606 3022 941 
Q 3034 978 3072 978 
L 3150 978 
Q 3175 978 3190 956 
Q 3206 934 3206 916 
Q 3094 469 2961 198 
Q 2828 -72 2528 -72 
Q 2313 -72 2147 54 
Q 1981 181 1941 391 
Q 1528 -72 1113 -72 
z
M 1119 97 
Q 1350 97 1567 270 
Q 1784 444 1941 678 
Q 1947 684 1947 697 
L 2291 2088 
L 2297 2106 
Q 2259 2334 2132 2498 
Q 2006 2663 1791 2663 
Q 1575 2663 1389 2486 
Q 1203 2309 1075 2069 
Q 950 1813 836 1366 
Q 722 919 722 672 
Q 722 450 817 273 
Q 913 97 1119 97 
z
" transform="scale(0.015625)"/>
     </defs>
     <use xlink:href="#Cmmi10-61" transform="translate(0 0.8125)"/>
    </g>
   </g>
   <g id="text_2">
    <!-- $b$ -->
    <g transform="translate(49.258347 142.287369)scale(0.12 -0.12)">
     <defs>
      <path id="Cmmi10-62" d="M 1106 -72 
Q 719 -72 503 231 
Q 288 534 288 941 
Q 288 1000 317 1173 
Q 347 1347 347 1388 
L 966 3872 
Q 991 3981 997 4044 
Q 997 4147 581 4147 
Q 519 4147 519 4231 
Q 522 4247 533 4287 
Q 544 4328 561 4350 
Q 578 4372 609 4372 
L 1472 4441 
Q 1550 4441 1550 4359 
L 1075 2472 
Q 1438 2828 1806 2828 
Q 2078 2828 2273 2684 
Q 2469 2541 2566 2306 
Q 2663 2072 2663 1806 
Q 2663 1497 2542 1167 
Q 2422 838 2209 555 
Q 1997 272 1712 100 
Q 1428 -72 1106 -72 
z
M 1119 97 
Q 1338 97 1528 280 
Q 1719 463 1838 691 
Q 1966 947 2077 1386 
Q 2188 1825 2188 2088 
Q 2188 2316 2092 2489 
Q 1997 2663 1791 2663 
Q 1559 2663 1348 2492 
Q 1138 2322 978 2088 
L 800 1363 
Q 697 959 691 716 
Q 691 475 795 286 
Q 900 97 1119 97 
z
" transform="scale(0.015625)"/>
     </defs>
     <use xlink:href="#Cmmi10-62" transform="translate(0 0.609375)"/>
    </g>
   </g>
   <g id="text_3">
    <!-- $c$ -->
    <g transform="translate(49.198347 188.785647)scale(0.12 -0.12)">
     <defs>
      <path id="Cmmi10-63" d="M 750 763 
Q 750 484 892 290 
Q 1034 97 1300 97 
Q 1681 97 2032 272 
Q 2384 447 2606 756 
Q 2625 775 2656 775 
Q 2688 775 2720 739 
Q 2753 703 2753 672 
Q 2753 647 2741 634 
Q 2506 306 2109 117 
Q 1713 -72 1288 -72 
Q 981 -72 747 73 
Q 513 219 384 462 
Q 256 706 256 1013 
Q 256 1444 497 1869 
Q 738 2294 1138 2561 
Q 1538 2828 1978 2828 
Q 2266 2828 2495 2689 
Q 2725 2550 2725 2278 
Q 2725 2103 2623 1979 
Q 2522 1856 2350 1856 
Q 2247 1856 2176 1920 
Q 2106 1984 2106 2088 
Q 2106 2238 2215 2344 
Q 2325 2450 2472 2450 
L 2484 2450 
Q 2409 2559 2267 2611 
Q 2125 2663 1972 2663 
Q 1597 2663 1315 2342 
Q 1034 2022 892 1576 
Q 750 1131 750 763 
z
" transform="scale(0.015625)"/>
     </defs>
     <use xlink:href="#Cmmi10-63" transform="translate(0 0.8125)"/>
    </g>
   </g>
   <g id="text_4">
    <!-- $1$ -->
    <g transform="translate(197.632836 86.489436)scale(0.12 -0.12)">
     <defs>
      <path id="Cmr10-31" d="M 594 0 
L 594 225 
Q 1394 225 1394 428 
L 1394 3788 
Q 1063 3628 556 3628 
L 556 3853 
Q 1341 3853 1741 4263 
L 1831 4263 
Q 1853 4263 1873 4245 
Q 1894 4228 1894 4206 
L 1894 428 
Q 1894 225 2694 225 
L 2694 0 
L 594 0 
z
" transform="scale(0.015625)"/>
     </defs>
     <use xlink:href="#Cmr10-31" transform="translate(0 0.390625)"/>
    </g>
   </g>
   <g id="text_5">
    <!-- $3$ -->
    <g transform="translate(197.632836 198.085303)scale(0.12 -0.12)">
     <defs>
      <path id="Cmr10-33" d="M 609 494 
Q 759 275 1012 169 
Q 1266 63 1556 63 
Q 1928 63 2084 380 
Q 2241 697 2241 1100 
Q 2241 1281 2208 1462 
Q 2175 1644 2097 1800 
Q 2019 1956 1883 2050 
Q 1747 2144 1550 2144 
L 1125 2144 
Q 1069 2144 1069 2203 
L 1069 2259 
Q 1069 2309 1125 2309 
L 1478 2338 
Q 1703 2338 1851 2506 
Q 2000 2675 2069 2917 
Q 2138 3159 2138 3378 
Q 2138 3684 1994 3881 
Q 1850 4078 1556 4078 
Q 1313 4078 1091 3986 
Q 869 3894 738 3706 
Q 750 3709 759 3711 
Q 769 3713 781 3713 
Q 925 3713 1022 3613 
Q 1119 3513 1119 3372 
Q 1119 3234 1022 3134 
Q 925 3034 781 3034 
Q 641 3034 541 3134 
Q 441 3234 441 3372 
Q 441 3647 606 3850 
Q 772 4053 1033 4158 
Q 1294 4263 1556 4263 
Q 1750 4263 1965 4205 
Q 2181 4147 2356 4039 
Q 2531 3931 2642 3762 
Q 2753 3594 2753 3378 
Q 2753 3109 2633 2881 
Q 2513 2653 2303 2487 
Q 2094 2322 1844 2241 
Q 2122 2188 2372 2031 
Q 2622 1875 2773 1631 
Q 2925 1388 2925 1106 
Q 2925 753 2731 467 
Q 2538 181 2222 20 
Q 1906 -141 1556 -141 
Q 1256 -141 954 -26 
Q 653 88 461 316 
Q 269 544 269 863 
Q 269 1022 375 1128 
Q 481 1234 641 1234 
Q 744 1234 830 1186 
Q 916 1138 964 1050 
Q 1013 963 1013 863 
Q 1013 706 903 600 
Q 794 494 641 494 
L 609 494 
z
" transform="scale(0.015625)"/>
     </defs>
     <use xlink:href="#Cmr10-33" transform="translate(0 0.390625)"/>
    </g>
   </g>
   <g id="text_6">
    <!-- $2$ -->
    <g transform="translate(197.632836 151.587025)scale(0.12 -0.12)">
     <defs>
      <path id="Cmr10-32" d="M 319 0 
L 319 172 
Q 319 188 331 206 
L 1325 1306 
Q 1550 1550 1690 1715 
Q 1831 1881 1968 2097 
Q 2106 2313 2186 2536 
Q 2266 2759 2266 3009 
Q 2266 3272 2169 3511 
Q 2072 3750 1880 3894 
Q 1688 4038 1416 4038 
Q 1138 4038 916 3870 
Q 694 3703 603 3438 
Q 628 3444 672 3444 
Q 816 3444 917 3347 
Q 1019 3250 1019 3097 
Q 1019 2950 917 2848 
Q 816 2747 672 2747 
Q 522 2747 420 2851 
Q 319 2956 319 3097 
Q 319 3338 409 3548 
Q 500 3759 670 3923 
Q 841 4088 1055 4175 
Q 1269 4263 1509 4263 
Q 1875 4263 2190 4108 
Q 2506 3953 2690 3670 
Q 2875 3388 2875 3009 
Q 2875 2731 2753 2481 
Q 2631 2231 2440 2026 
Q 2250 1822 1953 1562 
Q 1656 1303 1563 1216 
L 838 519 
L 1453 519 
Q 1906 519 2211 526 
Q 2516 534 2534 550 
Q 2609 631 2688 1141 
L 2875 1141 
L 2694 0 
L 319 0 
z
" transform="scale(0.015625)"/>
     </defs>
     <use xlink:href="#Cmr10-32" transform="translate(0 0.390625)"/>
    </g>
   </g>
   <g id="text_7">
    <!-- $-1$ -->
    <g transform="translate(341.747325 95.789092)scale(0.12 -0.12)">
     <defs>
      <path id="Cmsy10-a1" d="M 653 1472 
Q 600 1472 565 1512 
Q 531 1553 531 1600 
Q 531 1647 565 1687 
Q 600 1728 653 1728 
L 4325 1728 
Q 4375 1728 4408 1687 
Q 4441 1647 4441 1600 
Q 4441 1553 4408 1512 
Q 4375 1472 4325 1472 
L 653 1472 
z
" transform="scale(0.015625)"/>
     </defs>
     <use xlink:href="#Cmsy10-a1" transform="translate(0 0.390625)"/>
     <use xlink:href="#Cmr10-31" transform="translate(77.685547 0.390625)"/>
    </g>
   </g>
   <g id="text_8">
    <!-- $-2$ -->
    <g transform="translate(341.747325 126.787943)scale(0.12 -0.12)">
     <use xlink:href="#Cmsy10-a1" transform="translate(0 0.390625)"/>
     <use xlink:href="#Cmr10-32" transform="translate(77.685547 0.390625)"/>
    </g>
   </g>
   <g id="text_9">
    <!-- $-3$ -->
    <g transform="translate(341.747325 157.786795)scale(0.12 -0.12)">
     <use xlink:href="#Cmsy10-a1" transform="translate(0 0.390625)"/>
     <use xlink:href="#Cmr10-33" transform="translate(77.685547 0.390625)"/>
    </g>
   </g>
   <g id="text_10">
    <!-- $-4$ -->
    <g transform="translate(341.747325 188.785647)scale(0.12 -0.12)">
     <defs>
      <path id="Cmr10-34" d="M 178 1056 
L 178 1281 
L 2156 4231 
Q 2178 4263 2222 4263 
L 2316 4263 
Q 2388 4263 2388 4191 
L 2388 1281 
L 3016 1281 
L 3016 1056 
L 2388 1056 
L 2388 428 
Q 2388 297 2575 261 
Q 2763 225 3009 225 
L 3009 0 
L 1247 0 
L 1247 225 
Q 1494 225 1681 261 
Q 1869 297 1869 428 
L 1869 1056 
L 178 1056 
z
M 391 1281 
L 1906 1281 
L 1906 3547 
L 391 1281 
z
" transform="scale(0.015625)"/>
     </defs>
     <use xlink:href="#Cmsy10-a1" transform="translate(0 0.390625)"/>
     <use xlink:href="#Cmr10-34" transform="translate(77.685547 0.390625)"/>
    </g>
   </g>
   <g id="text_11">
    <!-- $A$ -->
    <g transform="translate(56.638002 216.684614)scale(0.12 -0.12)">
     <defs>
      <path id="Cmmi10-41" d="M 288 0 
Q 225 0 225 84 
Q 250 225 306 225 
Q 566 225 755 328 
Q 944 431 1081 647 
Q 1094 659 1094 659 
L 3378 4513 
Q 3428 4581 3500 4581 
L 3584 4581 
Q 3603 4581 3622 4573 
Q 3641 4566 3655 4548 
Q 3669 4531 3669 4513 
L 4056 378 
Q 4056 350 4084 294 
Q 4147 225 4563 225 
Q 4628 225 4628 141 
Q 4606 56 4592 28 
Q 4578 0 4519 0 
L 2919 0 
Q 2859 0 2859 84 
Q 2894 225 2944 225 
Q 3450 225 3481 397 
L 3384 1453 
L 1806 1453 
L 1294 594 
Q 1247 525 1247 434 
Q 1247 322 1355 273 
Q 1463 225 1594 225 
Q 1656 225 1656 141 
Q 1634 50 1621 25 
Q 1609 0 1550 0 
L 288 0 
z
M 1931 1678 
L 3359 1678 
L 3169 3750 
L 1931 1678 
z
" transform="scale(0.015625)"/>
     </defs>
     <use xlink:href="#Cmmi10-41" transform="translate(0 0.421875)"/>
    </g>
   </g>
   <g id="text_12">
    <!-- $B$ -->
    <g transform="translate(196.072836 216.684614)scale(0.12 -0.12)">
     <defs>
      <path id="Cmmi10-42" d="M 319 0 
Q 256 0 256 84 
Q 259 100 268 137 
Q 278 175 293 200 
Q 309 225 341 225 
Q 522 225 656 234 
Q 791 244 884 269 
Q 959 297 1006 441 
L 1881 3956 
Q 1894 4019 1894 4044 
Q 1894 4113 1819 4122 
Q 1697 4147 1356 4147 
Q 1294 4147 1294 4231 
Q 1297 4247 1306 4286 
Q 1316 4325 1333 4348 
Q 1350 4372 1375 4372 
L 3669 4372 
Q 3878 4372 4083 4320 
Q 4288 4269 4461 4156 
Q 4634 4044 4736 3876 
Q 4838 3709 4838 3488 
Q 4838 3247 4714 3040 
Q 4591 2834 4395 2681 
Q 4200 2528 3973 2429 
Q 3747 2331 3500 2284 
Q 3675 2284 3854 2215 
Q 4034 2147 4175 2028 
Q 4316 1909 4402 1743 
Q 4488 1578 4488 1388 
Q 4488 1003 4219 684 
Q 3950 366 3542 183 
Q 3134 0 2753 0 
L 319 0 
z
M 1497 275 
Q 1497 225 1716 225 
L 2631 225 
Q 2944 225 3231 398 
Q 3519 572 3692 859 
Q 3866 1147 3866 1459 
Q 3866 1650 3786 1820 
Q 3706 1991 3556 2089 
Q 3406 2188 3213 2188 
L 1966 2188 
L 1522 416 
Q 1497 328 1497 275 
z
M 2009 2356 
L 2981 2356 
Q 3288 2356 3577 2512 
Q 3866 2669 4048 2937 
Q 4231 3206 4231 3506 
Q 4231 3784 4057 3965 
Q 3884 4147 3609 4147 
L 2731 4147 
Q 2559 4147 2500 4115 
Q 2441 4084 2400 3928 
L 2009 2356 
z
" transform="scale(0.015625)"/>
     </defs>
     <use xlink:href="#Cmmi10-42" transform="translate(0 0.6875)"/>
    </g>
   </g>
   <g id="text_13">
    <!-- $C$ -->
    <g transform="translate(335.807669 216.684614)scale(0.12 -0.12)">
     <defs>
      <path id="Cmmi10-43" d="M 934 1381 
Q 934 997 1082 705 
Q 1231 413 1514 248 
Q 1797 84 2181 84 
Q 2584 84 2957 290 
Q 3331 497 3595 842 
Q 3859 1188 3956 1575 
Q 3969 1613 4006 1613 
L 4084 1613 
Q 4109 1613 4125 1595 
Q 4141 1578 4141 1556 
Q 4141 1550 4134 1538 
Q 4025 1094 3711 705 
Q 3397 316 2959 87 
Q 2522 -141 2059 -141 
Q 1559 -141 1162 84 
Q 766 309 545 709 
Q 325 1109 325 1613 
Q 325 2150 565 2676 
Q 806 3203 1212 3614 
Q 1619 4025 2139 4269 
Q 2659 4513 3194 4513 
Q 3406 4513 3600 4448 
Q 3794 4384 3959 4253 
Q 4125 4122 4231 3950 
L 4738 4500 
Q 4738 4513 4769 4513 
L 4806 4513 
Q 4831 4513 4847 4491 
Q 4863 4469 4863 4447 
L 4428 2719 
Q 4428 2675 4378 2675 
L 4263 2675 
Q 4213 2675 4213 2747 
Q 4238 2888 4238 3084 
Q 4238 3397 4131 3673 
Q 4025 3950 3801 4119 
Q 3578 4288 3256 4288 
Q 2734 4288 2300 4025 
Q 1866 3763 1564 3336 
Q 1263 2909 1098 2389 
Q 934 1869 934 1381 
z
" transform="scale(0.015625)"/>
     </defs>
     <use xlink:href="#Cmmi10-43" transform="translate(0 0.484375)"/>
    </g>
   </g>
   <g id="text_14">
    <!-- $f\circ g$ -->
    <g transform="translate(189.712836 295.707311)scale(0.12 -0.12)">
     <defs>
      <path id="Cmmi10-66" d="M 622 -1056 
Q 741 -1147 909 -1147 
Q 1138 -1147 1281 -641 
Q 1341 -397 1606 966 
L 1900 2534 
L 1350 2534 
Q 1288 2534 1288 2619 
Q 1313 2759 1369 2759 
L 1941 2759 
L 2016 3175 
Q 2053 3369 2084 3508 
Q 2116 3647 2152 3765 
Q 2188 3884 2259 4031 
Q 2369 4241 2555 4377 
Q 2741 4513 2956 4513 
Q 3097 4513 3230 4461 
Q 3363 4409 3447 4306 
Q 3531 4203 3531 4063 
Q 3531 3900 3423 3779 
Q 3316 3659 3163 3659 
Q 3059 3659 2986 3723 
Q 2913 3788 2913 3891 
Q 2913 4031 3008 4136 
Q 3103 4241 3244 4256 
Q 3125 4347 2950 4347 
Q 2853 4347 2767 4256 
Q 2681 4166 2656 4063 
Q 2616 3900 2478 3181 
L 2400 2759 
L 3059 2759 
Q 3122 2759 3122 2675 
Q 3119 2659 3109 2620 
Q 3100 2581 3083 2557 
Q 3066 2534 3041 2534 
L 2356 2534 
L 2059 972 
Q 2003 631 1929 279 
Q 1856 -72 1723 -442 
Q 1591 -813 1384 -1063 
Q 1178 -1313 897 -1313 
Q 681 -1313 511 -1189 
Q 341 -1066 341 -863 
Q 341 -700 445 -579 
Q 550 -459 709 -459 
Q 816 -459 887 -523 
Q 959 -588 959 -691 
Q 959 -828 857 -942 
Q 756 -1056 622 -1056 
z
" transform="scale(0.015625)"/>
      <path id="Cmsy10-b1" d="M 1600 359 
Q 1269 359 983 526 
Q 697 694 528 984 
Q 359 1275 359 1600 
Q 359 1925 528 2215 
Q 697 2506 983 2673 
Q 1269 2841 1600 2841 
Q 1931 2841 2215 2672 
Q 2500 2503 2667 2214 
Q 2834 1925 2834 1600 
Q 2834 1275 2667 986 
Q 2500 697 2215 528 
Q 1931 359 1600 359 
z
M 1600 616 
Q 2000 616 2289 908 
Q 2578 1200 2578 1600 
Q 2578 1856 2445 2086 
Q 2313 2316 2088 2450 
Q 1863 2584 1600 2584 
Q 1403 2584 1225 2507 
Q 1047 2431 906 2290 
Q 766 2150 691 1973 
Q 616 1797 616 1600 
Q 616 1200 905 908 
Q 1194 616 1600 616 
z
" transform="scale(0.015625)"/>
      <path id="Cmmi10-67" d="M 91 -916 
Q 91 -759 198 -642 
Q 306 -525 459 -525 
Q 563 -525 633 -589 
Q 703 -653 703 -756 
Q 703 -872 637 -964 
Q 572 -1056 469 -1094 
Q 641 -1147 1006 -1147 
Q 1300 -1147 1544 -920 
Q 1788 -694 1863 -397 
L 2047 353 
Q 1700 0 1325 0 
Q 1050 0 854 140 
Q 659 281 556 515 
Q 453 750 453 1013 
Q 453 1306 573 1628 
Q 694 1950 911 2225 
Q 1128 2500 1409 2664 
Q 1691 2828 2003 2828 
Q 2191 2828 2341 2725 
Q 2491 2622 2578 2450 
Q 2641 2700 2853 2700 
Q 2934 2700 2990 2651 
Q 3047 2603 3047 2522 
Q 3047 2503 3045 2493 
Q 3044 2484 3041 2472 
L 2309 -434 
Q 2259 -634 2125 -800 
Q 1991 -966 1809 -1077 
Q 1628 -1188 1412 -1250 
Q 1197 -1313 997 -1313 
Q 631 -1313 361 -1242 
Q 91 -1172 91 -916 
z
M 1338 166 
Q 1747 166 2144 728 
L 2497 2125 
Q 2453 2347 2322 2505 
Q 2191 2663 1991 2663 
Q 1778 2663 1589 2489 
Q 1400 2316 1275 2075 
Q 1156 1844 1045 1411 
Q 934 978 934 728 
Q 934 509 1034 337 
Q 1134 166 1338 166 
z
" transform="scale(0.015625)"/>
     </defs>
     <use xlink:href="#Cmmi10-66" transform="translate(0 0.484375)"/>
     <use xlink:href="#Cmsy10-b1" transform="translate(66.435547 0.484375)"/>
     <use xlink:href="#Cmmi10-67" transform="translate(133.994141 0.484375)"/>
    </g>
   </g>
   <g id="text_15">
    <!-- $f$ -->
    <g transform="translate(267.440253 23.692386)scale(0.12 -0.12)">
     <use xlink:href="#Cmmi10-66" transform="translate(0 0.484375)"/>
    </g>
   </g>
   <g id="text_16">
    <!-- $g$ -->
    <g transform="translate(128.005419 23.692386)scale(0.12 -0.12)">
     <use xlink:href="#Cmmi10-67" transform="translate(0 0.8125)"/>
    </g>
   </g>
   <g id="patch_15">
    <path d="M 61.138002 231.972675 
C 73.46949 231.972675 85.297571 222.173971 94.01725 204.734615 
C 102.736928 187.295258 107.63628 163.639094 107.63628 138.976119 
C 107.63628 114.313145 102.736928 90.656981 94.01725 73.217624 
C 85.297571 55.778267 73.46949 45.979564 61.138002 45.979564 
C 48.806515 45.979564 36.978433 55.778267 28.258755 73.217624 
C 19.539076 90.656981 14.639724 114.313145 14.639724 138.976119 
C 14.639724 163.639094 19.539076 187.295258 28.258755 204.734615 
C 36.978433 222.173971 48.806515 231.972675 61.138002 231.972675 
L 61.138002 231.972675 
z
" clip-path="url(#pb3e9beb2bd)" style="fill: none; stroke: #000000; stroke-linejoin: miter"/>
   </g>
   <g id="patch_16">
    <path d="M 200.632836 231.972675 
C 212.964323 231.972675 224.792405 222.173971 233.512083 204.734615 
C 242.231762 187.295258 247.131114 163.639094 247.131114 138.976119 
C 247.131114 114.313145 242.231762 90.656981 233.512083 73.217624 
C 224.792405 55.778267 212.964323 45.979564 200.632836 45.979564 
C 188.301348 45.979564 176.473267 55.778267 167.753588 73.217624 
C 159.03391 90.656981 154.134558 114.313145 154.134558 138.976119 
C 154.134558 163.639094 159.03391 187.295258 167.753588 204.734615 
C 176.473267 222.173971 188.301348 231.972675 200.632836 231.972675 
L 200.632836 231.972675 
z
" clip-path="url(#pb3e9beb2bd)" style="fill: none; stroke: #000000; stroke-linejoin: miter"/>
   </g>
   <g id="patch_17">
    <path d="M 340.127669 231.972675 
C 352.459157 231.972675 364.287239 222.173971 373.006917 204.734615 
C 381.726595 187.295258 386.625947 163.639094 386.625947 138.976119 
C 386.625947 114.313145 381.726595 90.656981 373.006917 73.217624 
C 364.287239 55.778267 352.459157 45.979564 340.127669 45.979564 
C 327.796182 45.979564 315.9681 55.778267 307.248422 73.217624 
C 298.528743 90.656981 293.629392 114.313145 293.629392 138.976119 
C 293.629392 163.639094 298.528743 187.295258 307.248422 204.734615 
C 315.9681 222.173971 327.796182 231.972675 340.127669 231.972675 
L 340.127669 231.972675 
z
" clip-path="url(#pb3e9beb2bd)" style="fill: none; stroke: #000000; stroke-linejoin: miter"/>
   </g>
  </g>
 </g>
 <defs>
  <clipPath id="pb3e9beb2bd">
   <rect x="7.2" y="7.2" width="386.865672" height="324"/>
  </clipPath>
 </defs>
</svg>
