<?xml version="1.0" encoding="utf-8" standalone="no"?>
<!DOCTYPE svg PUBLIC "-//W3C//DTD SVG 1.1//EN"
  "http://www.w3.org/Graphics/SVG/1.1/DTD/svg11.dtd">
<svg xmlns:xlink="http://www.w3.org/1999/xlink" width="338.4pt" height="338.4pt" viewBox="0 0 338.4 338.4" xmlns="http://www.w3.org/2000/svg" version="1.1">
 <metadata>
  <rdf:RDF xmlns:dc="http://purl.org/dc/elements/1.1/" xmlns:cc="http://creativecommons.org/ns#" xmlns:rdf="http://www.w3.org/1999/02/22-rdf-syntax-ns#">
   <cc:Work>
    <dc:type rdf:resource="http://purl.org/dc/dcmitype/StillImage"/>
    <dc:date>2022-08-29T16:22:41.215822</dc:date>
    <dc:format>image/svg+xml</dc:format>
    <dc:creator>
     <cc:Agent>
      <dc:title>Matplotlib v3.5.2, https://matplotlib.org/</dc:title>
     </cc:Agent>
    </dc:creator>
   </cc:Work>
  </rdf:RDF>
 </metadata>
 <defs>
  <style type="text/css">*{stroke-linejoin: round; stroke-linecap: butt}</style>
 </defs>
 <g id="figure_1">
  <g id="patch_1">
   <path d="M -0 338.4 
L 338.4 338.4 
L 338.4 0 
L -0 0 
z
" style="fill: #ffffff"/>
  </g>
  <g id="axes_1">
   <g id="patch_2">
    <path d="M 7.2 331.2 
L 331.2 331.2 
L 331.2 7.2 
L 7.2 7.2 
z
" style="fill: #ffffff"/>
   </g>
   <g id="patch_3">
    <path d="M 13.430769 324.969231 
L 13.430769 13.430769 
L 324.969231 13.430769 
L 324.969231 324.969231 
L 13.430769 324.969231 
z
" clip-path="url(#p111b4dd810)" style="fill: none; stroke: #000000; stroke-linejoin: miter"/>
   </g>
   <g id="patch_4">
    <path d="M 200.353846 146.393802 
L 200.074239 146.233334 
L 199.25162 145.772268 
L 198.722252 145.484136 
L 198.326966 145.273283 
L 198.010677 145.107186 
L 197.696911 144.94469 
L 196.983127 144.583367 
L 196.694042 144.440286 
L 196.230723 144.214835 
L 195.812475 144.015363 
L 195.062037 143.666955 
L 194.655668 143.483313 
L 194.414299 143.375889 
L 193.816442 143.115054 
L 193.214461 142.859897 
L 192.847796 142.708116 
L 192.331632 142.499061 
L 191.846004 142.307252 
L 191.425536 142.144963 
L 190.93061 141.958392 
L 190.690278 141.869519 
L 190.128001 141.665966 
L 189.558737 141.466069 
L 189.306341 141.379415 
L 188.417893 141.083946 
L 188.175113 141.005774 
L 187.646038 140.839208 
L 187.049455 140.657569 
L 186.869475 140.60405 
L 186.121434 140.387909 
L 185.985887 140.349825 
L 185.469757 140.207828 
L 184.714417 140.008578 
L 184.315182 139.907342 
L 183.692585 139.755055 
L 183.394222 139.684475 
L 182.824082 139.553904 
L 182.717888 139.530206 
L 182.165416 139.410048 
L 181.783002 139.329944 
L 181.014433 139.1765 
L 180.584619 139.095059 
L 179.973778 138.984683 
L 179.721168 138.940871 
L 179.167234 138.848539 
L 178.969983 138.816898 
L 178.360794 138.723266 
L 177.767792 138.638034 
L 177.476616 138.598311 
L 176.785382 138.509602 
L 176.295149 138.451444 
L 175.992644 138.41752 
L 175.248286 138.340406 
L 174.91366 138.30868 
L 174.623764 138.282667 
L 174.115961 138.240387 
L 173.721143 138.210401 
L 173.066768 138.166254 
L 172.876707 138.154728 
L 172.194265 138.118142 
L 171.687059 138.09581 
L 171.27943 138.080863 
L 170.663555 138.063345 
L 170.352202 138.056808 
L 169.760845 138.048678 
L 169.130628 138.046192 
L 168.788607 138.047512 
L 168.411647 138.051141 
L 167.752671 138.062966 
L 167.279824 138.075749 
L 167.103935 138.08142 
L 166.353936 138.111188 
L 166.291914 138.114055 
L 165.526095 138.154562 
L 165.074047 138.182912 
L 164.501457 138.223562 
L 164.090186 138.256034 
L 163.895583 138.272354 
L 163.02548 138.352848 
L 162.997954 138.355595 
L 162.27265 138.432442 
L 161.830583 138.483496 
L 161.567476 138.515403 
L 160.711224 138.627116 
L 160.633005 138.637923 
L 160.063268 138.719694 
L 159.517013 138.803149 
L 158.882258 138.906367 
L 158.594371 138.9554 
L 158.188979 139.026805 
L 157.710935 139.114562 
L 157.31425 139.190316 
L 156.845143 139.283346 
L 156.092435 139.440463 
L 155.948385 139.471638 
L 155.399536 139.593697 
L 154.777407 139.738359 
L 154.445169 139.818373 
L 153.868724 139.96179 
L 153.327336 140.101817 
L 152.886628 140.219643 
L 152.619528 140.29274 
L 152.189709 140.413054 
L 151.55948 140.595495 
L 150.947677 140.779513 
L 150.792686 140.827219 
L 149.996325 141.079337 
L 149.550709 141.225563 
L 149.116051 141.371785 
L 148.533333 141.573429 
L 148.015263 141.758151 
L 147.579464 141.917548 
L 147.162762 142.073415 
L 146.884372 142.179442 
L 146.436036 142.353411 
L 145.974503 142.536679 
L 145.307527 142.809096 
L 145.125862 142.88486 
L 144.446605 143.174147 
L 143.940782 143.395788 
L 143.45894 143.611918 
L 143.268163 143.698852 
L 142.484683 144.064057 
L 142.104682 144.245984 
L 141.595359 144.494806 
L 141.186099 144.698928 
L 140.805364 144.892209 
L 140.353314 145.12598 
L 139.72989 145.456113 
L 139.479102 145.59148 
L 138.685415 146.029739 
L 138.181927 146.315641 
L 138.045531 146.394161 
L 137.589704 146.65992 
L 136.887416 147.079599 
L 136.307454 147.435712 
L 135.898992 147.691797 
L 135.479938 147.959133 
L 134.973389 148.288621 
L 134.831853 148.38194 
L 133.911216 149.002602 
L 133.682089 149.160814 
L 133.121434 149.554382 
L 132.520705 149.986418 
L 132.363614 150.101192 
L 131.711399 150.585851 
L 131.250683 150.93626 
L 130.729614 151.340808 
L 130.298952 151.681914 
L 130.022766 151.903946 
L 129.28869 152.506842 
L 129.130415 152.639311 
L 128.593679 153.095247 
L 127.881174 153.716917 
L 127.594846 153.972172 
L 127.254571 154.279673 
L 126.645024 154.842062 
L 126.232307 155.231503 
L 125.618206 155.824353 
L 125.234382 156.203275 
L 124.590005 156.854457 
L 124.205887 157.251893 
L 123.642877 157.84741 
L 123.106451 158.42971 
L 122.904352 158.652989 
L 122.252154 159.388638 
L 121.85218 159.851594 
L 121.526685 160.235227 
L 121.097179 160.75123 
L 120.408282 161.603145 
L 120.054754 162.052497 
L 119.682473 162.535027 
L 119.176941 163.206275 
L 118.626595 163.959076 
L 118.268067 164.462529 
L 117.87596 165.025509 
L 117.433982 165.676363 
L 116.992004 166.345412 
L 116.619241 166.924632 
L 116.168953 167.643656 
L 115.882662 168.112413 
L 115.506945 168.74207 
L 114.97949 169.65556 
L 114.596869 170.341405 
L 114.214248 171.04829 
L 114.132036 171.203068 
L 113.66437 172.104203 
L 113.388975 172.652258 
L 113.113579 173.214173 
L 112.847004 173.772116 
L 112.580429 174.344757 
L 112.256833 175.061075 
L 111.938538 175.790184 
L 111.620243 176.545862 
L 111.300742 177.333758 
L 111.066872 177.930912 
L 110.833002 178.546919 
L 110.668864 178.991388 
L 110.504725 179.446592 
L 110.340587 179.913248 
L 110.176449 180.392159 
L 109.973492 181.002638 
L 109.770535 181.635213 
L 109.599105 182.188445 
L 109.427675 182.760733 
L 109.218061 183.489224 
L 109.113254 183.866534 
L 109.008447 184.253365 
L 108.90364 184.650422 
L 108.798833 185.058501 
L 108.694027 185.478508 
L 108.58922 185.911484 
L 108.535507 186.13879 
L 108.422323 186.630783 
L 108.309138 187.142054 
L 108.195953 187.674934 
L 108.082769 188.232271 
L 107.969584 188.817611 
L 107.8564 189.435457 
L 107.799807 189.758334 
L 107.743215 190.091677 
L 107.686623 190.43654 
L 107.630031 190.794171 
L 107.57908 191.128297 
L 107.52813 191.475281 
L 107.488391 191.755835 
L 107.448652 192.046047 
L 107.408913 192.346969 
L 107.369174 192.659855 
L 107.329435 192.986232 
L 107.289696 193.327978 
L 107.249958 193.687456 
L 107.210219 194.067708 
L 107.17048 194.472763 
L 107.130741 194.908151 
L 107.110871 195.139573 
L 107.091002 195.381835 
L 107.071133 195.636606 
L 107.051263 195.906034 
L 107.031394 196.192967 
L 107.011524 196.501313 
L 106.991655 196.8367 
L 106.971785 197.207764 
L 106.951916 197.629042 
L 106.932047 198.128875 
L 106.912177 198.780429 
L 106.892308 200.353846 
L 106.892308 84.086109 
L 107.22817 83.893588 
L 107.620135 83.672393 
L 108.358257 83.26589 
L 108.698641 83.082784 
L 109.33288 82.748808 
L 109.673827 82.573101 
L 110.274266 82.270077 
L 110.805069 82.008918 
L 111.322266 81.760433 
L 111.671261 81.596056 
L 111.945309 81.468822 
L 112.706961 81.123629 
L 113.077481 80.960132 
L 113.674385 80.702755 
L 114.022997 80.555838 
L 114.373073 80.410802 
L 114.765009 80.251372 
L 115.318726 80.031392 
L 115.984632 79.774911 
L 116.406876 79.616793 
L 116.869904 79.447392 
L 117.433655 79.24672 
L 117.557002 79.203625 
L 118.160398 78.996977 
L 118.711665 78.814186 
L 119.148239 78.673455 
L 119.515472 78.557816 
L 120.161182 78.360508 
L 120.41514 78.284997 
L 120.992676 78.117635 
L 121.586219 77.951902 
L 121.780766 77.898954 
L 122.602622 77.682706 
L 122.773428 77.639264 
L 123.529912 77.453025 
L 123.786632 77.392097 
L 124.140043 77.310097 
L 124.809348 77.160725 
L 125.426201 77.029883 
L 125.731528 76.967528 
L 126.30493 76.854715 
L 126.429648 76.830916 
L 127.014124 76.722889 
L 127.430851 76.64938 
L 127.942051 76.563184 
L 128.616626 76.456118 
L 129.020205 76.395681 
L 129.421472 76.338266 
L 129.872626 76.27689 
L 130.158756 76.239702 
L 131.02829 76.134942 
L 131.176305 76.118343 
L 131.614721 76.071278 
L 132.133068 76.019676 
L 132.883076 75.952747 
L 133.317621 75.918145 
L 133.696409 75.890476 
L 134.345154 75.848476 
L 134.495441 75.839716 
L 135.29662 75.799157 
L 135.410668 75.794224 
L 136.056744 75.770229 
L 136.474646 75.758283 
L 137.071736 75.746081 
L 137.557412 75.740378 
L 137.879641 75.738684 
L 138.301397 75.738984 
L 138.784144 75.742832 
L 139.243847 75.749974 
L 139.711989 75.760734 
L 140.456778 75.785111 
L 140.860876 75.802071 
L 141.019703 75.809456 
L 141.613209 75.840651 
L 141.937099 75.86007 
L 142.413727 75.891727 
L 142.916477 75.929099 
L 143.604572 75.986888 
L 143.965817 76.020304 
L 144.566632 76.080584 
L 144.890582 76.115529 
L 145.496037 76.185441 
L 145.920401 76.238025 
L 146.192402 76.273286 
L 146.956774 76.378907 
L 147.366915 76.439564 
L 147.885298 76.520226 
L 148.190034 76.569734 
L 148.500221 76.621721 
L 149.048658 76.717584 
L 149.597455 76.818579 
L 150.256366 76.946569 
L 150.771787 77.051836 
L 151.23893 77.151169 
L 151.672025 77.246613 
L 152.182966 77.36338 
L 152.633764 77.470167 
L 153.057247 77.573717 
L 153.500034 77.685354 
L 153.791357 77.76069 
L 154.485831 77.946357 
L 154.984209 78.08491 
L 155.300979 78.175297 
L 155.532474 78.242499 
L 156.296493 78.471213 
L 156.719107 78.60232 
L 157.097796 78.722605 
L 157.500221 78.853352 
L 158.093737 79.051722 
L 158.384708 79.151403 
L 159.127413 79.413151 
L 159.288775 79.471419 
L 159.987372 79.729505 
L 160.312295 79.852791 
L 160.824149 80.051228 
L 161.396069 80.279122 
L 161.910595 80.489773 
L 162.528207 80.749753 
L 162.763304 80.850778 
L 163.377972 81.120347 
L 163.532378 81.189308 
L 164.357019 81.566185 
L 164.44536 81.607422 
L 165.24038 81.986163 
L 165.663966 82.193625 
L 166.099073 82.410893 
L 166.709866 82.723101 
L 167.156226 82.956661 
L 167.698304 83.246533 
L 167.924634 83.369606 
L 168.384547 83.623453 
L 169.085177 84.019979 
L 169.173121 84.0706 
L 169.891568 84.49134 
L 170.371764 84.779809 
L 170.561798 84.8956 
L 171.304955 85.357439 
L 171.612407 85.552772 
L 172.216303 85.943856 
L 172.532614 86.15268 
L 173.121079 86.548599 
L 173.659651 86.919572 
L 174.231702 87.32284 
L 174.383125 87.431205 
L 175.096874 87.951317 
L 175.456367 88.219208 
L 176.153018 88.749953 
L 176.605007 89.102683 
L 176.83035 89.281057 
L 177.487522 89.811032 
L 177.667565 89.958813 
L 178.257967 90.451421 
L 178.940645 91.036696 
L 179.239396 91.298263 
L 179.497126 91.526637 
L 180.247065 92.20587 
L 180.441826 92.385936 
L 180.864316 92.78189 
L 181.503949 93.395639 
L 181.904309 93.78883 
L 182.403637 94.289301 
L 182.758591 94.65207 
L 183.633178 95.571789 
L 184.037639 96.010077 
L 184.524404 96.548916 
L 185.00844 97.097501 
L 185.223741 97.345739 
L 185.728675 97.938477 
L 186.413185 98.766657 
L 186.712592 99.138233 
L 187.010711 99.514081 
L 187.389241 100.000021 
L 187.767771 100.496063 
L 188.375861 101.315116 
L 188.813436 101.922317 
L 188.968811 102.141676 
L 189.458305 102.846164 
L 189.937643 103.556708 
L 190.277283 104.073258 
L 190.616923 104.601232 
L 190.955762 105.139896 
L 191.301766 105.702866 
L 191.64777 106.279579 
L 191.66733 106.312607 
L 192.102238 107.059249 
L 192.537146 107.83059 
L 192.936548 108.562377 
L 193.185177 109.03001 
L 193.599291 109.830955 
L 194.013405 110.661572 
L 194.22199 111.092046 
L 194.499908 111.679088 
L 194.777826 112.282499 
L 195.166667 113.156486 
L 195.473546 113.872963 
L 195.780426 114.615354 
L 196.005143 115.176872 
L 196.234335 115.766475 
L 196.463526 116.374534 
L 196.665371 116.926592 
L 196.867215 117.495455 
L 197.06906 118.08256 
L 197.270905 118.689568 
L 197.484572 119.35597 
L 197.698239 120.049565 
L 197.833768 120.505067 
L 197.969296 120.973793 
L 198.104825 121.456863 
L 198.240353 121.955571 
L 198.286844 122.130509 
L 198.464629 122.819321 
L 198.642413 123.542986 
L 198.731305 123.919551 
L 198.820198 124.307009 
L 198.90909 124.706307 
L 198.997982 125.118543 
L 199.075476 125.489466 
L 199.152969 125.872178 
L 199.230462 126.267829 
L 199.307955 126.677769 
L 199.385449 127.103603 
L 199.462942 127.547266 
L 199.540435 128.011122 
L 199.617929 128.498114 
L 199.672799 128.858929 
L 199.72767 129.234848 
L 199.78254 129.627895 
L 199.837411 130.04059 
L 199.892282 130.476147 
L 199.947152 130.938769 
L 200.002023 131.434133 
L 200.029458 131.696468 
L 200.056893 131.970243 
L 200.094013 132.361811 
L 200.131132 132.78269 
L 200.149691 133.006395 
L 200.168251 133.240573 
L 200.18681 133.48684 
L 200.20537 133.747271 
L 200.223929 134.024617 
L 200.242489 134.322657 
L 200.261048 134.646829 
L 200.270328 134.821151 
L 200.279608 135.005478 
L 200.288888 135.201756 
L 200.298168 135.412655 
L 200.307447 135.64202 
L 200.316727 135.895751 
L 200.326007 136.183781 
L 200.335287 136.525476 
L 200.344566 136.970832 
L 200.353846 138.046154 
z
" clip-path="url(#p111b4dd810)" style="fill: #808080; opacity: 0.5"/>
   </g>
   <g id="patch_5">
    <path d="M 75.738462 138.046154 
L 75.738462 138.046154 
L 75.74223 137.360911 
L 75.745998 137.077089 
L 75.749766 136.859315 
L 75.753534 136.675731 
L 75.757302 136.513998 
L 75.761071 136.367786 
L 75.764839 136.233337 
L 75.768607 136.108201 
L 75.772375 135.990675 
L 75.776143 135.879522 
L 75.779911 135.773805 
L 75.78368 135.672799 
L 75.787448 135.575925 
L 75.791216 135.482715 
L 75.798752 135.305806 
L 75.806289 135.139664 
L 75.813825 134.982537 
L 75.821361 134.833103 
L 75.828898 134.690333 
L 75.836434 134.55341 
L 75.84397 134.421672 
L 75.851507 134.294573 
L 75.859043 134.171655 
L 75.866519 134.053472 
L 75.873995 133.938703 
L 75.888947 133.718323 
L 75.903899 133.508684 
L 75.918851 133.308359 
L 75.933802 133.116212 
L 75.948754 132.931322 
L 75.963706 132.752929 
L 75.978658 132.580396 
L 75.99361 132.413185 
L 76.008562 132.250834 
L 76.023514 132.092947 
L 76.038466 131.939178 
L 76.053418 131.789221 
L 76.06837 131.642811 
L 76.098274 131.359701 
L 76.129071 131.080281 
L 76.159869 130.811777 
L 76.186507 130.587428 
L 76.213145 130.369725 
L 76.239783 130.158119 
L 76.266422 129.95213 
L 76.29306 129.751341 
L 76.319698 129.555382 
L 76.346337 129.363927 
L 76.372975 129.176683 
L 76.39781 129.005675 
L 76.422646 128.837909 
L 76.472317 128.511423 
L 76.504412 128.306416 
L 76.536507 128.105741 
L 76.568602 127.909138 
L 76.600697 127.716377 
L 76.632791 127.527245 
L 76.664886 127.341551 
L 76.729076 126.979785 
L 76.766532 126.774223 
L 76.804302 126.570786 
L 76.842072 126.371015 
L 76.879842 126.174725 
L 76.917612 125.981747 
L 76.993152 125.605111 
L 77.068693 125.239993 
L 77.094109 125.119565 
L 77.14571 124.878599 
L 77.197312 124.642162 
L 77.248914 124.410019 
L 77.300516 124.181955 
L 77.358988 123.928207 
L 77.41746 123.679177 
L 77.475932 123.434625 
L 77.534404 123.19433 
L 77.601319 122.924299 
L 77.707719 122.505183 
L 77.814118 122.097786 
L 77.878904 121.855088 
L 77.986813 121.459289 
L 78.094722 121.073402 
L 78.204068 120.691809 
L 78.329429 120.265228 
L 78.42438 119.949397 
L 78.519331 119.639474 
L 78.648082 119.228143 
L 78.776832 118.826475 
L 78.917317 118.398529 
L 79.050336 118.002652 
L 79.192531 117.588893 
L 79.287866 117.316655 
L 79.378772 117.060758 
L 79.469679 116.808332 
L 79.570466 116.532379 
L 79.671254 116.260388 
L 79.801372 115.914866 
L 79.891393 115.679385 
L 80.019944 115.347972 
L 80.148494 115.022046 
L 80.250865 114.766267 
L 80.353236 114.513713 
L 80.3673 114.479262 
L 80.492904 114.174162 
L 80.618508 113.873566 
L 80.722415 113.628179 
L 80.938093 113.127931 
L 81.016739 112.948457 
L 81.177098 112.587187 
L 81.358693 112.185366 
L 81.459291 111.965981 
L 81.586168 111.692435 
L 81.713045 111.422305 
L 81.782411 111.276026 
L 81.980771 110.863045 
L 82.16424 110.487848 
L 82.250877 110.312859 
L 82.46397 109.888219 
L 82.657901 109.508636 
L 82.859332 109.121023 
L 82.892708 109.057432 
L 83.091293 108.68271 
L 83.298772 108.297663 
L 83.403773 108.105233 
L 83.489533 107.94925 
L 83.723343 107.529262 
L 83.869124 107.271197 
L 83.957723 107.115745 
L 84.206492 106.684723 
L 84.297034 106.529798 
L 84.513332 106.163783 
L 84.686875 105.874181 
L 84.779364 105.721277 
L 85.030408 105.311169 
L 85.159199 105.103499 
L 85.280809 104.909061 
L 85.3773 104.75591 
L 85.595654 104.412932 
L 85.698539 104.253022 
L 85.897336 103.947044 
L 86.09865 103.641135 
L 86.300404 103.338433 
L 86.403939 103.184568 
L 86.550547 102.968368 
L 86.765929 102.654248 
L 86.787586 102.622888 
L 87.0447 102.253693 
L 87.139803 102.11856 
L 87.370758 101.79353 
L 87.45163 101.680749 
L 87.585499 101.495219 
L 87.825255 101.166487 
L 87.904255 101.05915 
L 88.178738 100.689904 
L 88.227299 100.625167 
L 88.379633 100.42322 
L 88.552251 100.196423 
L 88.789855 99.887727 
L 88.869514 99.785121 
L 89.031013 99.578446 
L 89.20151 99.362186 
L 89.292489 99.247588 
L 89.470368 99.025114 
L 89.701419 98.739219 
L 89.759116 98.668362 
L 89.982212 98.396362 
L 90.175432 98.163294 
L 90.343837 97.962024 
L 90.515056 97.759143 
L 90.534288 97.736464 
L 90.7487 97.485096 
L 90.892264 97.318286 
L 91.045597 97.141433 
L 91.261658 96.894489 
L 91.358772 96.784345 
L 91.501146 96.623807 
L 91.697991 96.403672 
L 91.891732 96.189041 
L 92.087011 95.974718 
L 92.238626 95.809689 
L 92.270879 95.774736 
L 92.5498 95.47468 
L 92.589057 95.432766 
L 92.783243 95.226562 
L 92.949497 95.051503 
L 93.167438 94.82406 
L 93.268442 94.71943 
L 93.356944 94.62815 
L 93.619002 94.360038 
L 93.685923 94.292086 
L 93.856197 94.120122 
L 94.092463 93.883708 
L 94.255546 93.721994 
L 94.436738 93.543712 
L 94.494624 93.487061 
L 94.649293 93.336412 
L 94.826304 93.165277 
L 94.963638 93.033429 
L 95.207246 92.801524 
L 95.369661 92.648296 
L 95.520726 92.506759 
L 95.620985 92.413341 
L 95.725076 92.316788 
L 95.869473 92.183576 
L 96.080933 91.990006 
L 96.192147 91.888916 
L 96.446464 91.659579 
L 96.487937 91.622419 
L 96.65766 91.471042 
L 96.906429 91.251159 
L 97.026332 91.146018 
L 97.184324 91.008304 
L 97.333161 90.87942 
L 97.535623 90.705416 
L 97.639222 90.616961 
L 97.758826 90.515324 
L 97.979587 90.329084 
L 98.196808 90.14753 
L 98.206275 90.139656 
L 98.449378 89.938526 
L 98.578334 89.832673 
L 98.762919 89.682159 
L 98.906644 89.565773 
L 98.994735 89.494787 
L 99.266226 89.277663 
L 99.390083 89.17943 
L 99.552035 89.051753 
L 99.714576 88.924482 
L 99.829935 88.834681 
L 99.951074 88.740846 
L 100.234406 88.523228 
L 100.365538 88.423379 
L 100.509598 88.314318 
L 100.574225 88.265604 
L 100.723481 88.153603 
L 100.88791 88.031022 
L 101.168452 87.823812 
L 101.306602 87.722662 
L 101.415423 87.643395 
L 101.556266 87.541336 
L 101.73763 87.410794 
L 101.823097 87.349618 
L 102.113599 87.143305 
L 102.223498 87.065904 
L 102.309484 87.005592 
L 102.525136 86.855278 
L 102.726231 86.716323 
L 102.795499 86.668728 
L 102.983062 86.540542 
L 103.138244 86.435241 
L 103.365347 86.282362 
L 103.498389 86.193474 
L 103.604634 86.122842 
L 103.731816 86.038705 
L 103.976303 85.878215 
L 104.027657 85.844713 
L 104.206736 85.728448 
L 104.462838 85.563686 
L 104.498584 85.54083 
L 104.673361 85.429567 
L 104.912087 85.278909 
L 105.044632 85.195912 
L 105.192393 85.103931 
L 105.350736 85.005998 
L 105.536713 84.891805 
L 105.710465 84.785927 
L 105.851045 84.700831 
L 105.935428 84.649995 
L 106.074059 84.566871 
L 106.269125 84.450735 
L 106.441376 84.348979 
L 106.58194 84.266495 
L 106.782488 84.149663 
L 106.892308 84.086109 
L 106.892308 138.046154 
z
" clip-path="url(#p111b4dd810)" style="fill: #808080; opacity: 0.5"/>
   </g>
   <g id="patch_6">
    <path d="M 75.738462 138.046154 
L 75.738462 138.046154 
L 75.74522 138.96386 
L 75.751979 139.343951 
L 75.758737 139.635581 
L 75.765496 139.881416 
L 75.772255 140.097984 
L 75.779013 140.29376 
L 75.785772 140.47378 
L 75.792531 140.641325 
L 75.799289 140.798674 
L 75.806048 140.947486 
L 75.812806 141.089014 
L 75.819565 141.224231 
L 75.826324 141.353912 
L 75.833082 141.478684 
L 75.839841 141.599063 
L 75.8466 141.715483 
L 75.853358 141.828309 
L 75.860117 141.937854 
L 75.873634 142.148144 
L 75.887151 142.348123 
L 75.900669 142.53917 
L 75.914186 142.72238 
L 75.927703 142.898639 
L 75.941221 143.068681 
L 75.954738 143.233115 
L 75.976193 143.483849 
L 75.997649 143.72344 
L 76.016952 143.93059 
L 76.036254 144.130631 
L 76.055557 144.324242 
L 76.074859 144.512 
L 76.094162 144.694402 
L 76.113464 144.871877 
L 76.132767 145.0448 
L 76.15207 145.2135 
L 76.173917 145.399714 
L 76.195765 145.581264 
L 76.217612 145.75848 
L 76.23946 145.931653 
L 76.261307 146.101045 
L 76.283155 146.26689 
L 76.305003 146.429397 
L 76.32685 146.588758 
L 76.358927 146.817391 
L 76.391004 147.040099 
L 76.423081 147.257313 
L 76.455158 147.469412 
L 76.496325 147.73466 
L 76.537493 147.992666 
L 76.57866 148.243981 
L 76.619827 148.489088 
L 76.65633 148.701577 
L 76.692833 148.909788 
L 76.729336 149.113963 
L 76.765839 149.31432 
L 76.802342 149.511061 
L 76.838846 149.704367 
L 76.911852 150.081337 
L 76.913858 150.091522 
L 76.985083 150.447532 
L 77.056309 150.793206 
L 77.127535 151.129363 
L 77.19876 151.456717 
L 77.233533 151.61353 
L 77.301789 151.915929 
L 77.370045 152.211545 
L 77.438301 152.500795 
L 77.506556 152.784053 
L 77.600574 153.165028 
L 77.694591 153.536067 
L 77.752631 153.760465 
L 77.81067 153.981492 
L 77.901148 154.319654 
L 77.991626 154.650437 
L 78.052027 154.867368 
L 78.154039 155.227047 
L 78.256051 155.578755 
L 78.344686 155.87824 
L 78.47121 156.296485 
L 78.597734 156.7045 
L 78.73339 157.131346 
L 78.858747 157.516629 
L 78.94922 157.789531 
L 79.039693 158.058302 
L 79.137109 158.34327 
L 79.25739 158.689064 
L 79.377671 159.028471 
L 79.527854 159.443749 
L 79.579551 159.584604 
L 79.754909 160.054774 
L 79.890372 160.410268 
L 80.025835 160.759391 
L 80.187446 161.167972 
L 80.260068 161.348874 
L 80.366389 161.610816 
L 80.472711 161.869404 
L 80.625973 162.236468 
L 80.709891 162.434707 
L 80.835255 162.727352 
L 80.960618 163.015938 
L 81.042161 163.201538 
L 81.224381 163.610477 
L 81.313446 163.807528 
L 81.487605 164.187673 
L 81.657526 164.552212 
L 81.904192 165.070746 
L 81.936021 165.13677 
L 82.108632 165.491411 
L 82.369047 166.015928 
L 82.460412 166.197066 
L 82.575431 166.423036 
L 82.788378 166.835505 
L 82.908173 167.064279 
L 83.152748 167.524324 
L 83.28547 167.770152 
L 83.480693 168.127029 
L 83.634449 168.404266 
L 83.647507 168.427658 
L 83.862678 168.809759 
L 84.06698 169.166843 
L 84.208285 169.410663 
L 84.412966 169.759395 
L 84.539643 169.97266 
L 84.62624 170.117345 
L 84.742465 170.310147 
L 84.915139 170.593716 
L 85.054445 170.820035 
L 85.33156 171.263923 
L 85.36747 171.320841 
L 85.601186 171.688001 
L 85.711369 171.859152 
L 85.941653 172.212944 
L 86.04938 172.376666 
L 86.301305 172.755218 
L 86.32342 172.788165 
L 86.528414 173.091424 
L 86.633761 173.245789 
L 86.858501 173.571817 
L 87.054633 173.852764 
L 87.166649 174.011755 
L 87.395809 174.33377 
L 87.548379 174.545788 
L 87.699478 174.753929 
L 87.860231 174.973402 
L 87.982271 175.138688 
L 88.143481 175.355292 
L 88.327805 175.600572 
L 88.402035 175.698643 
L 88.563776 175.910951 
L 88.719469 176.113551 
L 88.836127 176.264236 
L 89.07299 176.567288 
L 89.153814 176.66982 
L 89.358037 176.926943 
L 89.587342 177.212364 
L 89.668809 177.312947 
L 89.888905 177.582567 
L 89.914634 177.613885 
L 90.173149 177.926273 
L 90.345165 178.131864 
L 90.459237 178.267217 
L 90.605629 178.439781 
L 90.747766 178.606122 
L 90.88241 178.762609 
L 91.156442 179.077891 
L 91.308934 179.251503 
L 91.3881 179.341123 
L 91.47959 179.444266 
L 91.684981 179.674151 
L 91.872215 179.881735 
L 91.957679 179.975869 
L 92.242086 180.286371 
L 92.347962 180.400891 
L 92.539777 180.606913 
L 92.710576 180.788801 
L 92.856718 180.94328 
L 93.027378 181.122347 
L 93.098282 181.196325 
L 93.221017 181.323811 
L 93.451433 181.561202 
L 93.584331 181.696983 
L 93.791742 181.907247 
L 93.939973 182.056305 
L 94.071605 182.18783 
L 94.259364 182.374086 
L 94.355383 182.468728 
L 94.468721 182.579915 
L 94.757614 182.860782 
L 94.905651 183.003306 
L 95.019696 183.112466 
L 95.216074 183.299141 
L 95.29599 183.374644 
L 95.444223 183.513988 
L 95.563525 183.625478 
L 95.73013 183.780197 
L 95.988415 184.017831 
L 96.02371 184.050097 
L 96.323612 184.32226 
L 96.479381 184.462228 
L 96.552582 184.527678 
L 96.755482 184.708011 
L 96.926358 184.858662 
L 97.075911 184.989606 
L 97.187417 185.086691 
L 97.329919 185.210089 
L 97.489922 185.347746 
L 97.703536 185.530064 
L 97.749886 185.569404 
L 97.970102 185.755258 
L 98.105207 185.868422 
L 98.265016 186.001442 
L 98.4239 186.1328 
L 98.594825 186.273129 
L 98.718703 186.374201 
L 98.979447 186.58522 
L 99.087894 186.672304 
L 99.183203 186.748511 
L 99.339682 186.872966 
L 99.607664 187.084211 
L 99.661024 187.12599 
L 99.844541 187.268966 
L 100.046848 187.425312 
L 100.206538 187.54779 
L 100.288686 187.610477 
L 100.486103 187.760247 
L 100.560178 187.816126 
L 100.732496 187.945447 
L 100.946598 188.104834 
L 101.147167 188.25286 
L 101.199371 188.291185 
L 101.366596 188.413391 
L 101.627807 188.602583 
L 101.749469 188.69 
L 101.867311 188.774251 
L 102.003301 188.870964 
L 102.135979 188.964794 
L 102.400452 189.150287 
L 102.446295 189.182233 
L 102.679534 189.343822 
L 102.838415 189.452998 
L 103.054811 189.600537 
L 103.190498 189.692371 
L 103.309203 189.772286 
L 103.507645 189.905 
L 103.615847 189.976901 
L 103.717574 190.044203 
L 103.926358 190.18144 
L 104.145093 190.323937 
L 104.252651 190.393529 
L 104.328087 190.44215 
L 104.617526 190.627285 
L 104.778245 190.729119 
L 104.926992 190.822755 
L 104.972554 190.851319 
L 105.152511 190.963606 
L 105.355838 191.089455 
L 105.477506 191.164246 
L 105.709111 191.305559 
L 105.729022 191.317643 
L 105.881246 191.409692 
L 106.038538 191.504184 
L 106.262291 191.63752 
L 106.394038 191.715438 
L 106.621605 191.849 
L 106.804443 191.955374 
L 106.892308 192.006198 
L 106.892308 138.046154 
z
" clip-path="url(#p111b4dd810)" style="fill: #808080; opacity: 0.5"/>
   </g>
   <g id="patch_7">
    <path d="M 200.353846 138.046154 
L 200.345841 139.044885 
L 200.337836 139.458527 
L 200.329832 139.775896 
L 200.321827 140.043423 
L 200.313822 140.279097 
L 200.305817 140.492142 
L 200.297812 140.688038 
L 200.289807 140.870356 
L 200.273798 141.203505 
L 200.257788 141.504637 
L 200.241778 141.781502 
L 200.225769 142.039153 
L 200.209759 142.281096 
L 200.193749 142.509888 
L 200.177739 142.727457 
L 200.16173 142.935301 
L 200.12971 143.326356 
L 200.097691 143.690201 
L 200.053722 144.154345 
L 200.009753 144.585332 
L 199.965785 144.989341 
L 199.921816 145.370837 
L 199.877847 145.733171 
L 199.833878 146.078939 
L 199.789909 146.410194 
L 199.745941 146.728597 
L 199.701972 147.035515 
L 199.658003 147.332087 
L 199.570066 147.897895 
L 199.482128 148.432183 
L 199.394191 148.939589 
L 199.318857 149.355636 
L 199.243523 149.756427 
L 199.16819 150.143478 
L 199.092856 150.518069 
L 199.017523 150.88129 
L 198.942189 151.234081 
L 198.791522 151.911535 
L 198.677231 152.403067 
L 198.588411 152.773123 
L 198.499591 153.133582 
L 198.32195 153.828325 
L 198.144309 154.49183 
L 197.966668 155.127736 
L 197.82651 155.611959 
L 197.686352 156.082098 
L 197.546194 156.539228 
L 197.406035 156.984289 
L 197.177924 157.68495 
L 196.949812 158.358898 
L 196.693965 159.086182 
L 196.438117 159.786142 
L 196.299702 160.154358 
L 196.100373 160.672601 
L 195.901045 161.17752 
L 195.701717 161.669968 
L 195.502388 162.150711 
L 195.205724 162.845995 
L 194.950878 163.425296 
L 194.696033 163.989164 
L 194.460238 164.497991 
L 194.224443 164.99515 
L 193.972078 165.515037 
L 193.719714 166.022988 
L 193.249703 166.939349 
L 192.957358 167.491157 
L 192.665013 168.029962 
L 192.162899 168.926997 
L 191.747473 169.643889 
L 191.475951 170.100878 
L 191.112118 170.699668 
L 190.748285 171.283691 
L 190.632878 171.465983 
L 190.302792 171.9798 
L 189.972706 172.482788 
L 189.540339 173.126025 
L 189.168515 173.665709 
L 188.777317 174.220697 
L 188.386119 174.763131 
L 188.135584 175.104183 
L 187.538 175.898573 
L 187.068046 176.505256 
L 186.538503 177.170835 
L 186.178116 177.613347 
L 185.663702 178.230947 
L 185.532408 178.386012 
L 185.120364 178.866091 
L 184.70832 179.336477 
L 184.387729 179.695967 
L 183.857416 180.278568 
L 183.242788 180.935695 
L 182.789167 181.40871 
L 182.547625 181.656561 
L 182.02074 182.187793 
L 181.649597 182.554448 
L 181.022845 183.159927 
L 180.701304 183.464066 
L 180.005231 184.107899 
L 179.563715 184.506251 
L 179.028005 184.979472 
L 178.565519 185.37933 
L 178.362369 185.552483 
L 177.901697 185.939621 
L 177.282566 186.448142 
L 176.660683 186.945711 
L 176.621274 186.976805 
L 175.844773 187.579102 
L 175.527248 187.819802 
L 174.785182 188.370028 
L 174.570525 188.526039 
L 174.15057 188.827249 
L 173.449952 189.31817 
L 173.300614 189.420968 
L 172.643845 189.865535 
L 172.352416 190.05893 
L 171.518388 190.599537 
L 171.296348 190.7403 
L 170.66001 191.136501 
L 170.204632 191.413567 
L 169.710393 191.708286 
L 169.367393 191.909207 
L 169.093982 192.067269 
L 168.647254 192.321574 
L 167.956282 192.705396 
L 167.334356 193.041151 
L 167.157246 193.135108 
L 166.424704 193.516023 
L 166.279377 193.590133 
L 165.438459 194.009625 
L 165.308302 194.073146 
L 164.51576 194.451902 
L 164.408802 194.501971 
L 163.575702 194.883559 
L 163.09803 195.095712 
L 162.762167 195.242021 
L 162.475166 195.36519 
L 161.897973 195.607767 
L 161.398628 195.812152 
L 161.016087 195.965327 
L 160.31037 196.240253 
L 159.850882 196.413973 
L 159.423244 196.571948 
L 158.858275 196.775228 
L 158.434835 196.92357 
L 158.28627 196.974807 
L 157.735537 197.161099 
L 157.289441 197.307815 
L 156.447727 197.574556 
L 156.301355 197.619606 
L 155.637945 197.818868 
L 155.056015 197.987068 
L 154.768354 198.067955 
L 154.248585 198.210344 
L 153.716695 198.351068 
L 153.583601 198.385496 
L 152.840753 198.57192 
L 152.633546 198.622193 
L 151.946843 198.783452 
L 151.649354 198.850771 
L 151.259188 198.936746 
L 150.557255 199.084837 
L 149.923352 199.211346 
L 149.816709 199.231957 
L 149.063632 199.372035 
L 148.809933 199.417072 
L 148.166575 199.52644 
L 147.570902 199.621536 
L 147.105363 199.691748 
L 146.660656 199.755463 
L 146.211005 199.816565 
L 145.962457 199.84891 
L 145.481267 199.908643 
L 145.033147 199.960857 
L 144.378239 200.031259 
L 144.217353 200.047483 
L 143.374976 200.125556 
L 142.862676 200.167403 
L 142.391114 200.202166 
L 142.010206 200.227621 
L 141.789893 200.241274 
L 141.372603 200.264987 
L 140.897094 200.288588 
L 140.054865 200.321459 
L 139.949408 200.324771 
L 139.481152 200.337319 
L 138.756038 200.349802 
L 138.472608 200.352387 
L 137.700014 200.352885 
L 137.269982 200.349012 
L 136.876865 200.342874 
L 136.551931 200.335927 
L 136.021644 200.320947 
L 135.421075 200.298523 
L 135.225829 200.289983 
L 134.50629 200.25321 
L 134.26057 200.238741 
L 133.642039 200.198003 
L 133.311483 200.173695 
L 132.755542 200.128824 
L 132.386966 200.096312 
L 131.963669 200.056249 
L 131.18976 199.975455 
L 130.751904 199.925411 
L 130.267823 199.866426 
L 129.999792 199.832112 
L 129.394372 199.750248 
L 128.754827 199.65719 
L 128.464866 199.612764 
L 127.949975 199.530426 
L 127.717508 199.491801 
L 126.974263 199.362235 
L 126.522201 199.278882 
L 126.196494 199.216687 
L 125.581615 199.094363 
L 125.001544 198.97305 
L 124.792991 198.928025 
L 124.258665 198.809249 
L 123.571541 198.64924 
L 123.192625 198.557485 
L 123.075474 198.528608 
L 122.485441 198.379501 
L 121.919783 198.230775 
L 121.543987 198.128822 
L 121.075289 197.99812 
L 120.640175 197.873242 
L 119.958349 197.670644 
L 119.748269 197.606509 
L 119.122833 197.41076 
L 118.525659 197.217083 
L 118.301974 197.142819 
L 117.582684 196.897619 
L 117.297754 196.79777 
L 116.972043 196.681727 
L 116.213981 196.403714 
L 115.582514 196.163564 
L 115.176921 196.005163 
L 114.843676 195.872562 
L 114.287832 195.64642 
L 113.868682 195.471744 
L 113.27904 195.219912 
L 112.944565 195.073856 
L 112.526367 194.887943 
L 112.124928 194.706003 
L 111.367614 194.353383 
L 110.948628 194.15295 
L 110.602025 193.984229 
L 110.045262 193.707618 
L 109.503967 193.432001 
L 109.386725 193.371425 
L 108.876916 193.104342 
L 108.206561 192.743935 
L 108.033902 192.649389 
L 107.369149 192.278708 
L 106.892308 192.006198 
L 106.892308 200.353846 
L 106.906801 201.69767 
L 106.921294 202.254189 
L 106.935787 202.681146 
L 106.95028 203.041024 
L 106.964774 203.358028 
L 106.979267 203.644571 
L 106.99376 203.908028 
L 107.008253 204.153206 
L 107.022746 204.383441 
L 107.037239 204.601165 
L 107.066226 205.006009 
L 107.095212 205.378171 
L 107.124198 205.724449 
L 107.153185 206.049567 
L 107.182171 206.356964 
L 107.211157 206.649235 
L 107.240144 206.928398 
L 107.26913 207.196059 
L 107.298116 207.453518 
L 107.356089 207.941943 
L 107.399166 208.285143 
L 107.442243 208.613872 
L 107.485321 208.929793 
L 107.528398 209.234273 
L 107.614552 209.813292 
L 107.700706 210.358114 
L 107.779624 210.831726 
L 107.858542 211.284267 
L 107.93746 211.718254 
L 108.016379 212.135738 
L 108.095297 212.538416 
L 108.174215 212.92771 
L 108.253133 213.304827 
L 108.332051 213.670801 
L 108.446861 214.185138 
L 108.561672 214.680103 
L 108.676482 215.157639 
L 108.791292 215.61938 
L 108.89926 216.040443 
L 109.007229 216.449771 
L 109.115197 216.848238 
L 109.223165 217.236613 
L 109.343581 217.658689 
L 109.463996 218.069894 
L 109.584411 218.470968 
L 109.704827 218.862571 
L 109.88121 219.420301 
L 110.057593 219.960587 
L 110.239333 220.500515 
L 110.421072 221.024748 
L 110.602812 221.534452 
L 110.784551 222.030651 
L 111.040989 222.709561 
L 111.297427 223.365595 
L 111.610531 224.138329 
L 111.886871 224.796714 
L 112.163211 225.43478 
L 112.551869 226.300673 
L 112.869 226.982157 
L 113.186131 227.642946 
L 113.24021 227.753672 
L 113.488833 228.255718 
L 113.737456 228.746711 
L 114.12666 229.494466 
L 114.515863 230.218436 
L 114.798334 230.729942 
L 115.080804 231.230392 
L 115.257562 231.538168 
L 115.621352 232.159144 
L 115.985141 232.764143 
L 116.161337 233.051686 
L 116.569871 233.705279 
L 116.958626 234.310987 
L 117.347381 234.901704 
L 117.877012 235.683711 
L 118.379165 236.402303 
L 118.482089 236.546967 
L 118.854725 237.063542 
L 119.22736 237.569217 
L 119.408669 237.811448 
L 119.832076 238.367746 
L 120.225205 238.872906 
L 120.618335 239.367566 
L 121.198291 240.078957 
L 121.60589 240.566397 
L 122.024869 241.057109 
L 122.329657 241.407707 
L 122.943829 242.098488 
L 123.459474 242.662862 
L 123.748785 242.973508 
L 124.427958 243.68643 
L 124.773447 244.040571 
L 125.081478 244.351625 
L 125.484646 244.752228 
L 126.134854 245.383189 
L 126.502368 245.731823 
L 126.867961 246.073066 
L 127.341118 246.506663 
L 127.892635 247.000927 
L 128.705787 247.708543 
L 129.119915 248.059562 
L 129.270426 248.18561 
L 130.008112 248.791893 
L 130.569138 249.240501 
L 130.936186 249.528322 
L 131.363075 249.857539 
L 131.750133 250.150995 
L 132.113772 250.422402 
L 132.689205 250.843552 
L 133.378921 251.335204 
L 133.443557 251.380558 
L 134.236885 251.927377 
L 134.609407 252.177966 
L 134.963066 252.412283 
L 135.524517 252.777222 
L 135.790809 252.947329 
L 136.306716 253.271522 
L 136.748156 253.543378 
L 137.463547 253.973302 
L 138.007037 254.291287 
L 138.18699 254.394958 
L 138.967954 254.835695 
L 139.509548 255.132725 
L 139.577692 255.169605 
L 140.135554 255.467424 
L 140.710303 255.766712 
L 141.229855 256.030767 
L 141.797607 256.312379 
L 142.03617 256.428572 
L 142.516914 256.658921 
L 142.866702 256.82336 
L 143.338805 257.041121 
L 144.159479 257.408389 
L 144.301079 257.470326 
L 144.97351 257.758774 
L 145.526739 257.989124 
L 145.643171 258.03681 
L 146.339838 258.316433 
L 146.956219 258.555759 
L 147.402224 258.724262 
L 147.913588 258.912681 
L 148.228192 259.026087 
L 148.663868 259.179995 
L 148.997934 259.295555 
L 149.573561 259.489719 
L 150.128756 259.671097 
L 150.626734 259.828902 
L 151.265654 260.024675 
L 151.723671 260.160422 
L 152.169353 260.288857 
L 152.547988 260.395157 
L 153.007436 260.520693 
L 153.204539 260.573392 
L 154.076444 260.798255 
L 154.27949 260.848696 
L 154.838815 260.983912 
L 155.056197 261.034991 
L 155.69372 261.180065 
L 155.997252 261.24667 
L 156.465129 261.346236 
L 157.245107 261.5039 
L 157.567048 261.565961 
L 158.204731 261.683713 
L 158.397144 261.717898 
L 159.169495 261.848866 
L 159.494702 261.901029 
L 159.882646 261.960952 
L 160.512854 262.052971 
L 160.965165 262.114967 
L 161.35706 262.165955 
L 161.712815 262.210055 
L 162.114219 262.257321 
L 162.938491 262.34612 
L 163.081346 262.360383 
L 163.710783 262.419271 
L 164.20969 262.461377 
L 164.437744 262.479279 
L 165.139623 262.529097 
L 165.763392 262.566692 
L 166.200931 262.589319 
L 166.315182 262.59472 
L 166.798269 262.615232 
L 167.414828 262.63596 
L 168.109578 262.651996 
L 168.287417 262.654855 
L 168.835921 262.660475 
L 169.193969 262.661538 
L 169.645526 262.659946 
L 170.174186 262.653922 
L 170.545987 262.646999 
L 171.355734 262.624235 
L 171.91961 262.602157 
L 172.105085 262.593777 
L 172.575512 262.570037 
L 173.178009 262.534422 
L 173.758141 262.494589 
L 174.14582 262.464935 
L 174.724801 262.416114 
L 174.936117 262.39694 
L 175.240737 262.368022 
L 176.061056 262.282631 
L 176.451113 262.238173 
L 177.071523 262.162322 
L 177.525812 262.102768 
L 177.640067 262.087255 
L 178.177433 262.011402 
L 178.683059 261.935663 
L 179.377136 261.82477 
L 179.654039 261.778284 
L 180.213934 261.680364 
L 180.441444 261.639068 
L 181.259923 261.483273 
L 181.684109 261.398056 
L 182.210379 261.288061 
L 182.319912 261.264571 
L 182.897911 261.137197 
L 183.212818 261.065373 
L 183.685703 260.954283 
L 184.589398 260.731118 
L 184.963619 260.634497 
L 185.346452 260.533084 
L 185.770381 260.417737 
L 186.436981 260.229843 
L 186.667432 260.163021 
L 186.992668 260.067073 
L 187.523957 259.906186 
L 187.993049 259.759821 
L 188.740692 259.518108 
L 188.883251 259.470833 
L 189.441569 259.282001 
L 189.928827 259.112371 
L 190.259712 258.994592 
L 190.814738 258.792289 
L 191.523649 258.525173 
L 191.722727 258.448384 
L 192.28453 258.227441 
L 192.607255 258.097668 
L 193.473659 257.738844 
L 193.729119 257.630114 
L 194.254337 257.402323 
L 194.670253 257.217848 
L 195.29589 256.933463 
L 195.559145 256.811299 
L 196.026407 256.590777 
L 196.765709 256.232108 
L 197.105661 256.063115 
L 197.587675 255.819046 
L 198.032911 255.588905 
L 198.434581 255.377366 
L 199.160097 254.985715 
L 199.620882 254.730482 
L 199.910288 254.56756 
L 200.353846 254.313891 
z
" clip-path="url(#p111b4dd810)" style="fill: #808080; opacity: 0.5"/>
   </g>
   <g id="patch_8">
    <path d="M 231.507692 200.353846 
L 231.500505 199.407472 
L 231.493317 199.015509 
L 231.48613 198.714772 
L 231.478942 198.461261 
L 231.471755 198.237932 
L 231.464567 198.036046 
L 231.45738 197.850408 
L 231.450192 197.677635 
L 231.443005 197.515377 
L 231.435817 197.361924 
L 231.42863 197.215982 
L 231.421442 197.076549 
L 231.414254 196.942825 
L 231.407067 196.814165 
L 231.399879 196.690033 
L 231.392692 196.569986 
L 231.385504 196.453645 
L 231.378317 196.340688 
L 231.363942 196.12385 
L 231.349567 195.917645 
L 231.335192 195.720653 
L 231.320817 195.531744 
L 231.306442 195.350004 
L 231.292066 195.174676 
L 231.277691 195.005131 
L 231.264401 194.853063 
L 231.251111 194.705118 
L 231.237821 194.560981 
L 231.224531 194.420374 
L 231.197951 194.148796 
L 231.17137 193.888726 
L 231.148823 193.676135 
L 231.126276 193.47018 
L 231.103729 193.270282 
L 231.081182 193.075943 
L 231.058635 192.886728 
L 231.036087 192.702257 
L 231.01354 192.522194 
L 230.990993 192.346243 
L 230.963054 192.133528 
L 230.935116 191.926273 
L 230.907177 191.724085 
L 230.879239 191.526615 
L 230.838813 191.248617 
L 230.798388 190.979034 
L 230.757963 190.717159 
L 230.717537 190.46238 
L 230.668736 190.16351 
L 230.619936 189.873386 
L 230.571135 189.591302 
L 230.522334 189.31664 
L 230.480781 189.088218 
L 230.439229 188.864486 
L 230.397676 188.645176 
L 230.356124 188.430044 
L 230.289558 188.093567 
L 230.245941 187.878205 
L 230.202324 187.666648 
L 230.158707 187.458709 
L 230.11509 187.254216 
L 230.063806 187.01797 
L 230.012522 186.78603 
L 229.93787 186.455658 
L 229.863218 186.133351 
L 229.788566 185.818573 
L 229.713914 185.510844 
L 229.648256 185.245672 
L 229.565191 184.91713 
L 229.482127 184.595873 
L 229.382203 184.218453 
L 229.28228 183.850266 
L 229.214003 183.603682 
L 229.145725 183.36095 
L 229.025317 182.941782 
L 228.930201 182.618243 
L 228.835085 182.301002 
L 228.753682 182.034252 
L 228.624207 181.618529 
L 228.494733 181.212707 
L 228.383631 180.871898 
L 228.267737 180.523288 
L 228.151842 180.181368 
L 228.107988 180.053663 
L 228.021931 179.805635 
L 227.935873 179.560922 
L 227.842847 179.299988 
L 227.749822 179.042654 
L 227.656834 178.788897 
L 227.563847 178.538487 
L 227.435546 178.198266 
L 227.314145 177.881759 
L 227.137438 177.430019 
L 226.956603 176.978147 
L 226.850053 176.716589 
L 226.743502 176.458368 
L 226.7139 176.387207 
L 226.568454 176.041112 
L 226.423007 175.700734 
L 226.278147 175.367177 
L 226.241395 175.28339 
L 226.121989 175.01345 
L 226.002583 174.746913 
L 225.796872 174.2954 
L 225.689763 174.064015 
L 225.59846 173.868714 
L 225.441888 173.537834 
L 225.208828 173.054401 
L 225.048888 172.728673 
L 224.950581 172.530812 
L 224.798522 172.228183 
L 224.632992 171.903329 
L 224.472147 171.592096 
L 224.345679 171.350352 
L 224.218514 171.109844 
L 224.005029 170.711692 
L 223.879539 170.480839 
L 223.708346 170.1696 
L 223.513881 169.821064 
L 223.441514 169.692687 
L 223.220481 169.304915 
L 223.03285 168.980724 
L 222.850171 168.669344 
L 222.765234 168.525963 
L 222.587601 168.228893 
L 222.42141 167.954308 
L 222.249523 167.673629 
L 222.181305 167.563149 
L 221.980652 167.24114 
L 221.815822 166.979847 
L 221.576387 166.605327 
L 221.526177 166.52753 
L 221.258906 166.117625 
L 221.137991 165.934468 
L 220.970624 165.683238 
L 220.849133 165.50251 
L 220.755543 165.364211 
L 220.589779 165.121202 
L 220.411743 164.862919 
L 220.241035 164.617852 
L 220.018207 164.301684 
L 219.903492 164.140528 
L 219.730918 163.90011 
L 219.537355 163.63329 
L 219.465269 163.534677 
L 219.308434 163.321517 
L 219.171744 163.137273 
L 219.059601 162.987167 
L 218.881358 162.750506 
L 218.603867 162.386671 
L 218.574659 162.348695 
L 218.322764 162.023668 
L 218.249763 161.930295 
L 218.07326 161.70604 
L 217.958251 161.561044 
L 217.686208 161.221556 
L 217.62788 161.149396 
L 217.460246 160.943224 
L 217.301344 160.749437 
L 217.040218 160.434401 
L 216.949303 160.325699 
L 216.754457 160.094411 
L 216.619251 159.935247 
L 216.405351 159.685635 
L 216.296815 159.559991 
L 216.094453 159.327527 
L 216.054809 159.282257 
L 215.775813 158.96614 
L 215.637471 158.810979 
L 215.534459 158.696117 
L 215.406174 158.55387 
L 215.231447 158.361533 
L 215.135079 158.256138 
L 214.977792 158.085154 
L 214.808987 157.903065 
L 214.539137 157.614974 
L 214.430579 157.500103 
L 214.287692 157.349794 
L 214.081264 157.134398 
L 213.949213 156.997688 
L 213.844866 156.890246 
L 213.645061 156.685951 
L 213.476926 156.51548 
L 213.328552 156.366127 
L 213.211817 156.249329 
L 212.995402 156.034422 
L 212.860076 155.901104 
L 212.689665 155.734371 
L 212.515144 155.564932 
L 212.355399 155.410993 
L 212.180383 155.24359 
L 212.059357 155.128587 
L 212.012375 155.084109 
L 211.821061 154.903943 
L 211.581206 154.6802 
L 211.409769 154.521719 
L 211.251418 154.376387 
L 211.140636 154.275309 
L 210.996715 154.144722 
L 210.76519 153.936355 
L 210.674234 153.855067 
L 210.529302 153.7262 
L 210.333982 153.553803 
L 210.139122 153.383251 
L 210.07652 153.328761 
L 209.958064 153.226054 
L 209.802742 153.092171 
L 209.602524 152.920898 
L 209.381501 152.73352 
L 209.289809 152.656302 
L 209.155398 152.543652 
L 209.038811 152.44646 
L 208.748527 152.206546 
L 208.689827 152.158389 
L 208.431621 151.947974 
L 208.324153 151.861072 
L 208.115481 151.693453 
L 207.96984 151.577335 
L 207.807394 151.448656 
L 207.665881 151.337273 
L 207.60443 151.28911 
L 207.392127 151.123673 
L 207.240696 151.006567 
L 207.051197 150.861065 
L 206.938844 150.775341 
L 206.731234 150.617994 
L 206.688889 150.586068 
L 206.535725 150.471062 
L 206.297703 150.293793 
L 206.140508 150.177683 
L 206.004575 150.07789 
L 205.849669 149.964857 
L 205.629437 149.805408 
L 205.574889 149.766141 
L 205.397089 149.638767 
L 205.248364 149.532945 
L 205.041349 149.386737 
L 204.909434 149.294226 
L 204.742696 149.178019 
L 204.533343 149.033252 
L 204.399629 148.941448 
L 204.296568 148.871039 
L 204.118107 148.749831 
L 203.991668 148.664501 
L 203.773567 148.518366 
L 203.606374 148.407239 
L 203.436116 148.294871 
L 203.280168 148.192647 
L 203.103965 148.077947 
L 202.963389 147.987043 
L 202.904628 147.949204 
L 202.709378 147.824139 
L 202.47929 147.67807 
L 202.380794 147.615971 
L 202.291481 147.559884 
L 202.008731 147.383707 
L 201.944902 147.344225 
L 201.708214 147.198747 
L 201.609788 147.138677 
L 201.494615 147.068704 
L 201.260736 146.927657 
L 201.150111 146.861427 
L 200.975597 146.757578 
L 200.796203 146.651626 
L 200.711795 146.602053 
L 200.553529 146.509582 
L 200.353846 146.393802 
L 200.353846 254.313891 
L 200.532136 254.210562 
L 200.695594 254.115134 
L 200.764226 254.074868 
L 200.940416 253.970957 
L 201.10911 253.870734 
L 201.252418 253.785026 
L 201.49572 253.638319 
L 201.535738 253.614043 
L 201.736894 253.491395 
L 201.918216 253.379942 
L 202.114537 253.258305 
L 202.201467 253.204123 
L 202.416014 253.069546 
L 202.558906 252.979239 
L 202.644168 252.925094 
L 202.790232 252.831887 
L 203.076393 252.647618 
L 203.126857 252.614892 
L 203.310096 252.495479 
L 203.412338 252.428451 
L 203.656779 252.267033 
L 203.766689 252.193913 
L 204.017745 252.025629 
L 204.097114 251.97206 
L 204.235712 251.878087 
L 204.377072 251.781681 
L 204.586316 251.637929 
L 204.746049 251.527345 
L 204.969822 251.37118 
L 205.061715 251.306627 
L 205.260017 251.166479 
L 205.383308 251.078759 
L 205.584303 250.934781 
L 205.665398 250.876349 
L 205.78159 250.792282 
L 205.998876 250.633974 
L 206.217792 250.47302 
L 206.242268 250.454933 
L 206.417532 250.324876 
L 206.602032 250.186933 
L 206.746494 250.078179 
L 206.924504 249.943264 
L 207.153042 249.768572 
L 207.2935 249.660375 
L 207.391855 249.584231 
L 207.563026 249.450962 
L 207.660537 249.374613 
L 207.80223 249.263113 
L 208.079982 249.042608 
L 208.1503 248.986373 
L 208.340648 248.833308 
L 208.455302 248.740515 
L 208.634837 248.594308 
L 208.783205 248.472641 
L 208.996833 248.296109 
L 209.166774 248.154531 
L 209.232264 248.099698 
L 209.460193 247.907661 
L 209.541454 247.838745 
L 209.710765 247.694383 
L 209.86219 247.564383 
L 210.134356 247.328595 
L 210.171635 247.296083 
L 210.446005 247.05519 
L 210.57526 246.940715 
L 210.641337 246.881946 
L 210.794276 246.745276 
L 210.995665 246.56392 
L 211.227908 246.352797 
L 211.326315 246.262692 
L 211.468173 246.132117 
L 211.664601 245.949967 
L 211.793681 245.82941 
L 211.946432 245.685856 
L 212.035642 245.601567 
L 212.190083 245.454858 
L 212.425217 245.229554 
L 212.57849 245.081412 
L 212.706207 244.957192 
L 212.80332 244.862261 
L 213.003206 244.665556 
L 213.175502 244.494573 
L 213.372623 244.297309 
L 213.431392 244.238155 
L 213.681457 243.984666 
L 213.85487 243.807168 
L 213.945008 243.714344 
L 214.137445 243.514876 
L 214.208715 243.440551 
L 214.448995 243.188142 
L 214.523083 243.109743 
L 214.780719 242.834978 
L 214.860478 242.749238 
L 215.072672 242.519549 
L 215.21787 242.361038 
L 215.426184 242.131692 
L 215.599528 241.939088 
L 215.762628 241.756384 
L 215.899633 241.601789 
L 215.983906 241.506181 
L 216.088133 241.387387 
L 216.375828 241.0563 
L 216.479977 240.935274 
L 216.579188 240.8194 
L 216.831682 240.521886 
L 216.894102 240.44775 
L 217.173987 240.112431 
L 217.222567 240.05374 
L 217.404401 239.832755 
L 217.633711 239.551093 
L 217.781925 239.367243 
L 217.945592 239.162554 
L 218.104565 238.962033 
L 218.147408 238.907702 
L 218.286961 238.729865 
L 218.539134 238.405106 
L 218.635866 238.279348 
L 218.873822 237.967141 
L 218.94736 237.869825 
L 219.10737 237.656701 
L 219.221632 237.50334 
L 219.507637 237.115106 
L 219.543619 237.065813 
L 219.716133 236.828068 
L 219.975853 236.465634 
L 220.142587 236.230041 
L 220.214158 236.128198 
L 220.343463 235.943096 
L 220.609102 235.558288 
L 220.778514 235.309609 
L 220.892901 235.14023 
L 220.994286 234.989094 
L 221.127699 234.788749 
L 221.348812 234.452965 
L 221.510408 234.204544 
L 221.581241 234.094831 
L 221.738904 233.848802 
L 221.929762 233.547531 
L 222.130308 233.2268 
L 222.276314 232.990535 
L 222.409194 232.773442 
L 222.597875 232.461719 
L 222.711304 232.272319 
L 222.946384 231.874867 
L 223.089366 231.629792 
L 223.171624 231.487627 
L 223.293337 231.275673 
L 223.478418 230.949629 
L 223.717246 230.522014 
L 223.855493 230.270825 
L 224.002898 229.99994 
L 224.099947 229.819832 
L 224.239395 229.55853 
L 224.484678 229.091504 
L 224.582942 228.90167 
L 224.735456 228.603832 
L 224.983811 228.110196 
L 225.152322 227.768918 
L 225.181062 227.710184 
L 225.412584 227.231232 
L 225.619938 226.793195 
L 225.70854 226.603292 
L 225.8133 226.376583 
L 225.942569 226.093493 
L 226.071838 225.806599 
L 226.262002 225.377364 
L 226.371633 225.125864 
L 226.456996 224.927916 
L 226.657521 224.455336 
L 226.778093 224.165854 
L 226.904703 223.857373 
L 227.031313 223.544097 
L 227.049242 223.499336 
L 227.174245 223.184427 
L 227.299248 222.864418 
L 227.432024 222.51868 
L 227.532568 222.252705 
L 227.655305 221.92294 
L 227.778043 221.587345 
L 227.938607 221.139047 
L 228.059485 220.794237 
L 228.157811 220.508871 
L 228.256138 220.218919 
L 228.361847 219.901849 
L 228.453263 219.622977 
L 228.544678 219.339569 
L 228.680678 218.909102 
L 228.788891 218.558588 
L 228.897104 218.200536 
L 228.939641 218.057627 
L 229.029608 217.751161 
L 229.119575 217.438725 
L 229.1865 217.202238 
L 229.253426 216.962115 
L 229.320351 216.718194 
L 229.387277 216.470305 
L 229.490001 216.081664 
L 229.593527 215.679331 
L 229.660345 215.413566 
L 229.727164 215.142724 
L 229.784733 214.905089 
L 229.842302 214.663276 
L 229.89987 214.41707 
L 229.957439 214.166237 
L 230.044516 213.777459 
L 230.088055 213.57857 
L 230.131593 213.376499 
L 230.21078 213.000319 
L 230.250373 212.80778 
L 230.289966 212.61209 
L 230.361408 212.250513 
L 230.43285 211.877153 
L 230.491325 211.561969 
L 230.5498 211.237347 
L 230.604828 210.922463 
L 230.659856 210.597609 
L 230.714883 210.261804 
L 230.742397 210.089443 
L 230.769911 209.913895 
L 230.802646 209.700637 
L 230.835381 209.482281 
L 230.868116 209.258451 
L 230.900851 209.028724 
L 230.930201 208.817344 
L 230.959551 208.600442 
L 230.988901 208.377572 
L 231.018252 208.148222 
L 231.050297 207.88971 
L 231.082343 207.621868 
L 231.114389 207.343623 
L 231.146435 207.053679 
L 231.166191 206.868422 
L 231.185947 206.677679 
L 231.205704 206.480937 
L 231.22546 206.277598 
L 231.245216 206.066958 
L 231.264973 205.848178 
L 231.284729 205.620243 
L 231.304485 205.381909 
L 231.317186 205.222495 
L 231.329886 205.057648 
L 231.342587 204.886774 
L 231.355287 204.709165 
L 231.367988 204.523959 
L 231.380688 204.330096 
L 231.393388 204.12624 
L 231.399739 204.020048 
L 231.406089 203.910675 
L 231.412439 203.797818 
L 231.418789 203.681124 
L 231.42514 203.560173 
L 231.43149 203.434464 
L 231.43784 203.303389 
L 231.44419 203.166196 
L 231.45054 203.021944 
L 231.456891 202.869417 
L 231.463241 202.707007 
L 231.469591 202.532505 
L 231.475941 202.342731 
L 231.482291 202.132805 
L 231.488642 201.894509 
L 231.494992 201.611824 
L 231.501342 201.243393 
z
" clip-path="url(#p111b4dd810)" style="fill: #808080; opacity: 0.5"/>
   </g>
   <g id="matplotlib.axis_1"/>
   <g id="matplotlib.axis_2"/>
   <g id="line2d_1">
    <path d="M 106.892308 84.086109 
L 110.274266 82.270077 
L 113.674385 80.702755 
L 116.869904 79.447392 
L 120.41514 78.284997 
L 124.140043 77.310097 
L 127.942051 76.563184 
L 131.614721 76.071278 
L 135.410668 75.794224 
L 139.243847 75.749974 
L 142.916477 75.929099 
L 146.956774 76.378907 
L 150.771787 77.051836 
L 154.485831 77.946357 
L 158.093737 79.051722 
L 161.396069 80.279122 
L 164.44536 81.607422 
L 167.924634 83.369606 
L 171.304955 85.357439 
L 174.383125 87.431205 
L 177.667565 89.958813 
L 180.441826 92.385936 
L 182.758591 94.65207 
L 185.223741 97.345739 
L 187.767771 100.496063 
L 189.937643 103.556708 
L 191.66733 106.312607 
L 193.599291 109.830955 
L 195.166667 113.156486 
L 196.665371 116.926592 
L 197.833768 120.505067 
L 198.820198 124.307009 
L 199.540435 128.011122 
L 200.029458 131.696468 
L 200.298168 135.412655 
L 200.353846 138.046154 
L 200.353846 138.046154 
" clip-path="url(#p111b4dd810)" style="fill: none; stroke: #0000ff; stroke-linecap: square"/>
   </g>
   <g id="line2d_2">
    <path d="M 75.738462 138.046154 
L 75.866519 134.053472 
L 76.213145 130.369725 
L 76.766532 126.774223 
L 77.534404 123.19433 
L 78.519331 119.639474 
L 79.801372 115.914866 
L 81.177098 112.587187 
L 82.892708 109.057432 
L 84.779364 105.721277 
L 86.787586 102.622888 
L 89.031013 99.578446 
L 91.501146 96.623807 
L 94.092463 93.883708 
L 96.65766 91.471042 
L 99.552035 89.051753 
L 102.525136 86.855278 
L 105.710465 84.785927 
L 106.892308 84.086109 
L 106.892308 84.086109 
" clip-path="url(#p111b4dd810)" style="fill: none; stroke: #0000ff; stroke-linecap: square"/>
   </g>
   <g id="line2d_3">
    <path d="M 75.738462 138.046154 
L 75.873634 142.148144 
L 76.23946 145.931653 
L 76.802342 149.511061 
L 77.600574 153.165028 
L 78.597734 156.7045 
L 79.890372 160.410268 
L 81.313446 163.807528 
L 82.908173 167.064279 
L 84.742465 170.310147 
L 86.858501 173.571817 
L 89.153814 176.66982 
L 91.47959 179.444266 
L 94.071605 182.18783 
L 96.755482 184.708011 
L 99.661024 187.12599 
L 102.679534 189.343822 
L 105.881246 191.409692 
L 106.892308 192.006198 
L 106.892308 192.006198 
" clip-path="url(#p111b4dd810)" style="fill: none; stroke: #0000ff; stroke-linecap: square"/>
   </g>
   <g id="line2d_4">
    <path d="M 106.892308 200.353846 
L 107.037239 204.601165 
L 107.399166 208.285143 
L 107.93746 211.718254 
L 108.676482 215.157639 
L 109.704827 218.862571 
L 110.784551 222.030651 
L 112.163211 225.43478 
L 113.737456 228.746711 
L 115.621352 232.159144 
L 117.347381 234.901704 
L 119.408669 237.811448 
L 121.60589 240.566397 
L 123.748785 242.973508 
L 126.502368 245.731823 
L 129.270426 248.18561 
L 132.113772 250.422402 
L 134.963066 252.412283 
L 138.18699 254.394958 
L 141.797607 256.312379 
L 144.97351 257.758774 
L 148.663868 259.179995 
L 152.169353 260.288857 
L 155.69372 261.180065 
L 159.494702 261.901029 
L 163.081346 262.360383 
L 166.798269 262.615232 
L 170.545987 262.646999 
L 174.14582 262.464935 
L 177.640067 262.087255 
L 181.259923 261.483273 
L 184.963619 260.634497 
L 187.993049 259.759821 
L 191.722727 258.448384 
L 195.29589 256.933463 
L 198.434581 255.377366 
L 200.353846 254.313891 
L 200.353846 254.313891 
" clip-path="url(#p111b4dd810)" style="fill: none; stroke: #228b22; stroke-linecap: square"/>
   </g>
   <g id="line2d_5">
    <path d="M 200.353846 254.313891 
L 203.412338 252.428451 
L 206.417532 250.324876 
L 209.232264 248.099698 
L 212.035642 245.601567 
L 214.523083 243.109743 
L 216.894102 240.44775 
L 219.221632 237.50334 
L 221.348812 234.452965 
L 223.293337 231.275673 
L 224.983811 228.110196 
L 226.456996 224.927916 
L 227.778043 221.587345 
L 228.939641 218.057627 
L 229.89987 214.41707 
L 230.604828 210.922463 
L 231.114389 207.343623 
L 231.42514 203.560173 
L 231.507692 200.353846 
L 231.507692 200.353846 
" clip-path="url(#p111b4dd810)" style="fill: none; stroke: #228b22; stroke-linecap: square"/>
   </g>
   <g id="text_1">
    <!-- $\Omega$ -->
    <g transform="translate(16.011538 22.420913)scale(0.1 -0.1)">
     <defs>
      <path id="Cmr10-ad" d="M 494 0 
L 281 1063 
L 469 1063 
Q 503 878 531 736 
Q 559 594 604 536 
Q 650 478 750 459 
Q 850 441 1081 441 
L 1472 441 
Q 1378 803 1004 1386 
Q 631 1969 495 2233 
Q 359 2497 359 2913 
Q 359 3397 646 3761 
Q 934 4125 1389 4319 
Q 1844 4513 2309 4513 
Q 2772 4513 3226 4319 
Q 3681 4125 3968 3758 
Q 4256 3391 4256 2913 
Q 4256 2588 4137 2300 
Q 4019 2013 3834 1725 
Q 3650 1438 3436 1084 
Q 3222 731 3144 441 
L 3531 441 
Q 3766 441 3869 459 
Q 3972 478 4015 536 
Q 4059 594 4086 736 
Q 4113 878 4147 1063 
L 4331 1063 
L 4122 0 
L 2988 0 
Q 2925 0 2925 84 
Q 2925 409 3004 721 
Q 3084 1034 3240 1478 
Q 3397 1922 3484 2261 
Q 3572 2600 3572 2913 
Q 3572 3297 3422 3625 
Q 3272 3953 2984 4150 
Q 2697 4347 2309 4347 
Q 1725 4347 1384 3930 
Q 1044 3513 1044 2913 
Q 1047 2584 1122 2293 
Q 1197 2003 1364 1518 
Q 1531 1034 1611 721 
Q 1691 409 1691 84 
Q 1691 0 1625 0 
L 494 0 
z
" transform="scale(0.015625)"/>
     </defs>
     <use xlink:href="#Cmr10-ad" transform="translate(0 0.484375)"/>
    </g>
   </g>
   <g id="text_2">
    <!-- $A$ -->
    <g style="fill: #0000ff" transform="translate(103.142308 78.497837)scale(0.1 -0.1)">
     <defs>
      <path id="Cmmi10-41" d="M 288 0 
Q 225 0 225 84 
Q 250 225 306 225 
Q 566 225 755 328 
Q 944 431 1081 647 
Q 1094 659 1094 659 
L 3378 4513 
Q 3428 4581 3500 4581 
L 3584 4581 
Q 3603 4581 3622 4573 
Q 3641 4566 3655 4548 
Q 3669 4531 3669 4513 
L 4056 378 
Q 4056 350 4084 294 
Q 4147 225 4563 225 
Q 4628 225 4628 141 
Q 4606 56 4592 28 
Q 4578 0 4519 0 
L 2919 0 
Q 2859 0 2859 84 
Q 2894 225 2944 225 
Q 3450 225 3481 397 
L 3384 1453 
L 1806 1453 
L 1294 594 
Q 1247 525 1247 434 
Q 1247 322 1355 273 
Q 1463 225 1594 225 
Q 1656 225 1656 141 
Q 1634 50 1621 25 
Q 1609 0 1550 0 
L 288 0 
z
M 1931 1678 
L 3359 1678 
L 3169 3750 
L 1931 1678 
z
" transform="scale(0.015625)"/>
     </defs>
     <use xlink:href="#Cmmi10-41" transform="translate(0 0.421875)"/>
    </g>
   </g>
   <g id="text_3">
    <!-- $B$ -->
    <g style="fill: #ff0000" transform="translate(227.707692 78.497837)scale(0.1 -0.1)">
     <defs>
      <path id="Cmmi10-42" d="M 319 0 
Q 256 0 256 84 
Q 259 100 268 137 
Q 278 175 293 200 
Q 309 225 341 225 
Q 522 225 656 234 
Q 791 244 884 269 
Q 959 297 1006 441 
L 1881 3956 
Q 1894 4019 1894 4044 
Q 1894 4113 1819 4122 
Q 1697 4147 1356 4147 
Q 1294 4147 1294 4231 
Q 1297 4247 1306 4286 
Q 1316 4325 1333 4348 
Q 1350 4372 1375 4372 
L 3669 4372 
Q 3878 4372 4083 4320 
Q 4288 4269 4461 4156 
Q 4634 4044 4736 3876 
Q 4838 3709 4838 3488 
Q 4838 3247 4714 3040 
Q 4591 2834 4395 2681 
Q 4200 2528 3973 2429 
Q 3747 2331 3500 2284 
Q 3675 2284 3854 2215 
Q 4034 2147 4175 2028 
Q 4316 1909 4402 1743 
Q 4488 1578 4488 1388 
Q 4488 1003 4219 684 
Q 3950 366 3542 183 
Q 3134 0 2753 0 
L 319 0 
z
M 1497 275 
Q 1497 225 1716 225 
L 2631 225 
Q 2944 225 3231 398 
Q 3519 572 3692 859 
Q 3866 1147 3866 1459 
Q 3866 1650 3786 1820 
Q 3706 1991 3556 2089 
Q 3406 2188 3213 2188 
L 1966 2188 
L 1522 416 
Q 1497 328 1497 275 
z
M 2009 2356 
L 2981 2356 
Q 3288 2356 3577 2512 
Q 3866 2669 4048 2937 
Q 4231 3206 4231 3506 
Q 4231 3784 4057 3965 
Q 3884 4147 3609 4147 
L 2731 4147 
Q 2559 4147 2500 4115 
Q 2441 4084 2400 3928 
L 2009 2356 
z
" transform="scale(0.015625)"/>
     </defs>
     <use xlink:href="#Cmmi10-42" transform="translate(0 0.6875)"/>
    </g>
   </g>
   <g id="text_4">
    <!-- $C$ -->
    <g style="fill: #228b22" transform="translate(150.023077 271.651683)scale(0.1 -0.1)">
     <defs>
      <path id="Cmmi10-43" d="M 934 1381 
Q 934 997 1082 705 
Q 1231 413 1514 248 
Q 1797 84 2181 84 
Q 2584 84 2957 290 
Q 3331 497 3595 842 
Q 3859 1188 3956 1575 
Q 3969 1613 4006 1613 
L 4084 1613 
Q 4109 1613 4125 1595 
Q 4141 1578 4141 1556 
Q 4141 1550 4134 1538 
Q 4025 1094 3711 705 
Q 3397 316 2959 87 
Q 2522 -141 2059 -141 
Q 1559 -141 1162 84 
Q 766 309 545 709 
Q 325 1109 325 1613 
Q 325 2150 565 2676 
Q 806 3203 1212 3614 
Q 1619 4025 2139 4269 
Q 2659 4513 3194 4513 
Q 3406 4513 3600 4448 
Q 3794 4384 3959 4253 
Q 4125 4122 4231 3950 
L 4738 4500 
Q 4738 4513 4769 4513 
L 4806 4513 
Q 4831 4513 4847 4491 
Q 4863 4469 4863 4447 
L 4428 2719 
Q 4428 2675 4378 2675 
L 4263 2675 
Q 4213 2675 4213 2747 
Q 4238 2888 4238 3084 
Q 4238 3397 4131 3673 
Q 4025 3950 3801 4119 
Q 3578 4288 3256 4288 
Q 2734 4288 2300 4025 
Q 1866 3763 1564 3336 
Q 1263 2909 1098 2389 
Q 934 1869 934 1381 
z
" transform="scale(0.015625)"/>
     </defs>
     <use xlink:href="#Cmmi10-43" transform="translate(0 0.484375)"/>
    </g>
   </g>
   <g id="patch_9">
    <path d="M 138.046154 200.353846 
C 154.570347 200.353846 170.419977 193.788715 182.104346 182.104346 
C 193.788715 170.419977 200.353846 154.570347 200.353846 138.046154 
C 200.353846 121.521961 193.788715 105.672331 182.104346 93.987962 
C 170.419977 82.303593 154.570347 75.738462 138.046154 75.738462 
C 121.521961 75.738462 105.672331 82.303593 93.987962 93.987962 
C 82.303593 105.672331 75.738462 121.521961 75.738462 138.046154 
C 75.738462 154.570347 82.303593 170.419977 93.987962 182.104346 
C 105.672331 193.788715 121.521961 200.353846 138.046154 200.353846 
L 138.046154 200.353846 
z
" clip-path="url(#p111b4dd810)" style="fill: none; stroke: #0000ff; stroke-linejoin: miter"/>
   </g>
   <g id="patch_10">
    <path d="M 200.353846 200.353846 
C 216.878039 200.353846 232.727669 193.788715 244.412038 182.104346 
C 256.096407 170.419977 262.661538 154.570347 262.661538 138.046154 
C 262.661538 121.521961 256.096407 105.672331 244.412038 93.987962 
C 232.727669 82.303593 216.878039 75.738462 200.353846 75.738462 
C 183.829653 75.738462 167.980023 82.303593 156.295654 93.987962 
C 144.611285 105.672331 138.046154 121.521961 138.046154 138.046154 
C 138.046154 154.570347 144.611285 170.419977 156.295654 182.104346 
C 167.980023 193.788715 183.829653 200.353846 200.353846 200.353846 
L 200.353846 200.353846 
z
" clip-path="url(#p111b4dd810)" style="fill: none; stroke: #ff0000; stroke-linejoin: miter"/>
   </g>
   <g id="patch_11">
    <path d="M 169.2 262.661538 
C 185.724193 262.661538 201.573823 256.096407 213.258192 244.412038 
C 224.942561 232.727669 231.507692 216.878039 231.507692 200.353846 
C 231.507692 183.829653 224.942561 167.980023 213.258192 156.295654 
C 201.573823 144.611285 185.724193 138.046154 169.2 138.046154 
C 152.675807 138.046154 136.826177 144.611285 125.141808 156.295654 
C 113.457439 167.980023 106.892308 183.829653 106.892308 200.353846 
C 106.892308 216.878039 113.457439 232.727669 125.141808 244.412038 
C 136.826177 256.096407 152.675807 262.661538 169.2 262.661538 
L 169.2 262.661538 
z
" clip-path="url(#p111b4dd810)" style="fill: none; stroke: #228b22; stroke-linejoin: miter"/>
   </g>
  </g>
 </g>
 <defs>
  <clipPath id="p111b4dd810">
   <rect x="7.2" y="7.2" width="324" height="324"/>
  </clipPath>
 </defs>
</svg>
