<?xml version="1.0" encoding="utf-8" standalone="no"?>
<!DOCTYPE svg PUBLIC "-//W3C//DTD SVG 1.1//EN"
  "http://www.w3.org/Graphics/SVG/1.1/DTD/svg11.dtd">
<svg xmlns:xlink="http://www.w3.org/1999/xlink" width="338.4pt" height="338.4pt" viewBox="0 0 338.4 338.4" xmlns="http://www.w3.org/2000/svg" version="1.1">
 <metadata>
  <rdf:RDF xmlns:dc="http://purl.org/dc/elements/1.1/" xmlns:cc="http://creativecommons.org/ns#" xmlns:rdf="http://www.w3.org/1999/02/22-rdf-syntax-ns#">
   <cc:Work>
    <dc:type rdf:resource="http://purl.org/dc/dcmitype/StillImage"/>
    <dc:date>2022-08-23T18:58:36.661837</dc:date>
    <dc:format>image/svg+xml</dc:format>
    <dc:creator>
     <cc:Agent>
      <dc:title>Matplotlib v3.5.2, https://matplotlib.org/</dc:title>
     </cc:Agent>
    </dc:creator>
   </cc:Work>
  </rdf:RDF>
 </metadata>
 <defs>
  <style type="text/css">*{stroke-linejoin: round; stroke-linecap: butt}</style>
 </defs>
 <g id="figure_1">
  <g id="patch_1">
   <path d="M -0 338.4 
L 338.4 338.4 
L 338.4 0 
L -0 0 
z
" style="fill: #ffffff"/>
  </g>
  <g id="axes_1">
   <g id="patch_2">
    <path d="M 7.2 331.2 
L 331.2 331.2 
L 331.2 7.2 
L 7.2 7.2 
z
" style="fill: #ffffff"/>
   </g>
   <g id="patch_3">
    <path d="M 13.430769 324.969231 
L 13.430769 13.430769 
L 324.969231 13.430769 
L 324.969231 324.969231 
L 13.430769 324.969231 
z
" clip-path="url(#pb2886c38d8)" style="fill: none; stroke: #000000; stroke-linejoin: miter"/>
   </g>
   <g id="patch_4">
    <path d="M 169.2 138.046154 
L 168.966058 138.046593 
L 168.874267 138.047005 
L 168.693128 138.048216 
L 168.642982 138.048644 
L 168.419978 138.051037 
L 168.217828 138.053895 
L 168.156862 138.054886 
L 167.876802 138.060205 
L 167.784923 138.062225 
L 167.573894 138.067377 
L 167.497288 138.069424 
L 167.26004 138.076362 
L 167.200701 138.078238 
L 166.965019 138.086251 
L 166.925532 138.087681 
L 166.658239 138.098019 
L 166.508342 138.10432 
L 166.317152 138.112881 
L 166.267797 138.115187 
L 166.040747 138.126299 
L 165.94617 138.131173 
L 165.787478 138.139674 
L 165.604679 138.14997 
L 165.384628 138.163079 
L 165.22264 138.173229 
L 165.1375 138.178734 
L 165.028429 138.185956 
L 164.788213 138.202542 
L 164.690216 138.209576 
L 164.470573 138.225905 
L 164.392128 138.231927 
L 164.197318 138.247311 
L 164.093238 138.255783 
L 163.881804 138.273533 
L 163.749285 138.285028 
L 163.558293 138.302096 
L 163.447208 138.312296 
L 163.19028 138.336657 
L 163.13356 138.342179 
L 162.894141 138.366068 
L 162.786123 138.377151 
L 162.645587 138.391856 
L 162.531305 138.404052 
L 162.317154 138.427479 
L 162.191388 138.441587 
L 162.036447 138.459323 
L 161.822919 138.484409 
L 161.753559 138.492719 
L 161.58708 138.512986 
L 161.39374 138.537094 
L 161.289109 138.550397 
L 161.027958 138.584386 
L 160.889168 138.602906 
L 160.78615 138.616858 
L 160.519092 138.653843 
L 160.430633 138.666354 
L 160.287715 138.68684 
L 160.065544 138.719357 
L 159.952703 138.736186 
L 159.730931 138.769877 
L 159.585857 138.792358 
L 159.534618 138.800382 
L 159.305214 138.836843 
L 159.119649 138.866977 
L 159.044695 138.879312 
L 158.862038 138.909765 
L 158.669761 138.942426 
L 158.512253 138.969641 
L 158.343663 138.999234 
L 158.229844 139.019482 
L 158.086403 139.045311 
L 157.966493 139.067169 
L 157.822711 139.093698 
L 157.67402 139.121499 
L 157.49276 139.155896 
L 157.282524 139.196489 
L 157.150626 139.222339 
L 156.980866 139.256045 
L 156.763114 139.299998 
L 156.713952 139.310033 
L 156.544221 139.344996 
L 156.413319 139.372297 
L 156.195812 139.41831 
L 155.99796 139.460869 
L 155.825947 139.498417 
L 155.686924 139.529136 
L 155.566893 139.555927 
L 155.393096 139.59516 
L 155.20416 139.638403 
L 155.14191 139.652787 
L 154.976241 139.691393 
L 154.836878 139.724239 
L 154.608178 139.778874 
L 154.561365 139.79017 
L 154.342013 139.843609 
L 154.155785 139.889641 
L 153.946386 139.942127 
L 153.865328 139.962652 
L 153.7003 140.004796 
L 153.534782 140.047549 
L 153.314324 140.105246 
L 153.16386 140.14512 
L 153.037295 140.178972 
L 152.842764 140.23156 
L 152.729146 140.262586 
L 152.57797 140.304228 
L 152.466933 140.335074 
L 152.309402 140.379216 
L 152.115897 140.43405 
L 151.944061 140.48331 
L 151.843629 140.512348 
L 151.59791 140.584164 
L 151.471769 140.621457 
L 151.419337 140.637043 
L 151.139049 140.721216 
L 150.9783 140.770139 
L 150.823596 140.81767 
L 150.652388 140.870785 
L 150.525963 140.910353 
L 150.38196 140.955783 
L 150.215271 141.00885 
L 150.116077 141.040674 
L 149.931798 141.100281 
L 149.709585 141.173003 
L 149.685906 141.180806 
L 149.48729 141.246676 
L 149.251746 141.325754 
L 149.131753 141.366441 
L 148.943812 141.430715 
L 148.783309 141.486136 
L 148.660302 141.528942 
L 148.561253 141.56362 
L 148.317247 141.64985 
L 148.280743 141.662849 
L 147.993609 141.765985 
L 147.962263 141.77734 
L 147.736296 141.859761 
L 147.552122 141.927671 
L 147.391137 141.987572 
L 147.333002 142.009327 
L 147.124998 142.087708 
L 146.964198 142.148884 
L 146.799033 142.21225 
L 146.69818 142.251207 
L 146.512061 142.32363 
L 146.358715 142.383817 
L 146.169365 142.458783 
L 146.074256 142.496707 
L 145.910558 142.562407 
L 145.656805 142.665316 
L 145.609556 142.684622 
L 145.418749 142.763043 
L 145.20336 142.852457 
L 145.080887 142.903721 
L 144.974765 142.948389 
L 144.824507 143.01203 
L 144.644492 143.088887 
L 144.511716 143.146004 
L 144.361574 143.211033 
L 144.151294 143.302897 
L 144.047846 143.348428 
L 143.864007 143.429897 
L 143.743635 143.483625 
L 143.554914 143.568478 
L 143.417285 143.630834 
L 143.144354 143.755685 
L 143.076179 143.78712 
L 142.894933 143.871176 
L 142.754963 143.936574 
L 142.547557 144.03426 
L 142.381477 144.113155 
L 142.259526 144.17147 
L 142.178164 144.210557 
L 141.955328 144.318354 
L 141.77184 144.407939 
L 141.68923 144.448515 
L 141.456456 144.563665 
L 141.395533 144.594003 
L 141.157335 144.713416 
L 140.982516 144.80187 
L 140.915588 144.835916 
L 140.636778 144.978844 
L 140.504526 145.047262 
L 140.462501 145.069086 
L 140.171975 145.221076 
L 140.008563 145.307425 
L 139.957344 145.334617 
L 139.844824 145.394569 
L 139.620263 145.515104 
L 139.500005 145.580141 
L 139.234841 145.724753 
L 139.134265 145.780042 
L 138.981396 145.86454 
L 138.808182 145.960961 
L 138.616337 146.068599 
L 138.452692 146.16112 
L 138.320711 146.236215 
L 138.144009 146.337423 
L 138.046154 146.393802 
L 138.046154 138.046154 
L 138.052495 138.935042 
L 138.058835 139.303199 
L 138.065176 139.585674 
L 138.071517 139.823794 
L 138.077858 140.033565 
L 138.084199 140.223198 
L 138.090539 140.397571 
L 138.09688 140.55986 
L 138.103221 140.712274 
L 138.109562 140.85642 
L 138.115903 140.993511 
L 138.122243 141.12449 
L 138.128584 141.250106 
L 138.134925 141.370967 
L 138.141266 141.487575 
L 138.147607 141.600348 
L 138.153948 141.70964 
L 138.160288 141.815754 
L 138.17297 142.019459 
L 138.185652 142.213179 
L 138.198333 142.398248 
L 138.211015 142.575726 
L 138.223696 142.746474 
L 138.236378 142.911199 
L 138.24906 143.070495 
L 138.265233 143.266565 
L 138.281407 143.455484 
L 138.297581 143.637977 
L 138.313755 143.814655 
L 138.329929 143.986036 
L 138.346103 144.152566 
L 138.362276 144.314631 
L 138.37845 144.472571 
L 138.396355 144.642958 
L 138.41426 144.809007 
L 138.432165 144.971029 
L 138.45007 145.1293 
L 138.467974 145.284067 
L 138.485879 145.43555 
L 138.521689 145.729437 
L 138.54504 145.91508 
L 138.568391 146.096377 
L 138.591743 146.273613 
L 138.615094 146.447046 
L 138.643881 146.655958 
L 138.672668 146.859826 
L 138.701455 147.058991 
L 138.730243 147.25376 
L 138.75903 147.444405 
L 138.787817 147.631172 
L 138.816604 147.814284 
L 138.845391 147.993943 
L 138.888582 148.257414 
L 138.931773 148.514077 
L 138.974963 148.764421 
L 139.018154 149.008881 
L 139.060691 149.244264 
L 139.103229 149.474643 
L 139.164341 149.797451 
L 139.225454 150.111316 
L 139.286566 150.416919 
L 139.347679 150.714858 
L 139.391741 150.925215 
L 139.435803 151.132044 
L 139.479865 151.335508 
L 139.523927 151.535759 
L 139.54165 151.615431 
L 139.611538 151.924933 
L 139.681426 152.227338 
L 139.751315 152.52309 
L 139.821203 152.812589 
L 139.904414 153.14962 
L 139.987625 153.478843 
L 140.009375 153.563672 
L 140.085266 153.855859 
L 140.161157 154.142386 
L 140.250317 154.47218 
L 140.339478 154.795007 
L 140.402332 155.018615 
L 140.465186 155.239085 
L 140.590894 155.671081 
L 140.692286 156.011309 
L 140.781215 156.304033 
L 140.870144 156.591711 
L 140.947751 156.838821 
L 141.025357 157.082407 
L 141.133228 157.41538 
L 141.241099 157.742134 
L 141.256598 157.788591 
L 141.357094 158.086906 
L 141.457589 158.380348 
L 141.595867 158.776529 
L 141.68567 159.02933 
L 141.775474 159.278742 
L 141.951117 159.757206 
L 142.065885 160.063467 
L 142.180652 160.364936 
L 142.340851 160.77809 
L 142.398392 160.924394 
L 142.516535 161.221442 
L 142.65167 161.555883 
L 142.786805 161.884867 
L 142.959372 162.297399 
L 142.97918 162.344224 
L 143.141419 162.723809 
L 143.280283 163.043292 
L 143.419147 163.357981 
L 143.483532 163.50231 
L 143.657294 163.887002 
L 143.889289 164.390078 
L 143.991228 164.607474 
L 144.108745 164.855427 
L 144.291457 165.235436 
L 144.416969 165.492726 
L 144.548249 165.758676 
L 144.679529 166.021481 
L 144.819732 166.298776 
L 144.913692 166.482712 
L 145.04627 166.739716 
L 145.216273 167.065053 
L 145.344508 167.307411 
L 145.587945 167.760537 
L 145.720649 168.003828 
L 145.9304 168.383211 
L 146.059062 168.612882 
L 146.172424 168.813377 
L 146.329579 169.088496 
L 146.571038 169.504985 
L 146.637054 169.617577 
L 146.846194 169.970748 
L 146.933825 170.117166 
L 147.11789 170.421784 
L 147.244644 170.629297 
L 147.368096 170.829669 
L 147.655234 171.28927 
L 147.77608 171.480075 
L 147.891819 171.661392 
L 148.035719 171.884919 
L 148.185508 172.115393 
L 148.407011 172.452183 
L 148.585081 172.719537 
L 148.6969 172.885907 
L 148.910415 173.200413 
L 148.928792 173.22729 
L 149.170881 173.57857 
L 149.377807 173.874801 
L 149.408497 173.918426 
L 149.691932 174.317616 
L 149.783669 174.445409 
L 149.985436 174.724101 
L 150.134147 174.927455 
L 150.282973 175.129252 
L 150.36114 175.234565 
L 150.639294 175.605598 
L 150.803155 175.82151 
L 150.943259 176.004584 
L 151.051655 176.145268 
L 151.271748 176.428392 
L 151.429549 176.629332 
L 151.501475 176.720362 
L 151.594388 176.837438 
L 151.790932 177.083212 
L 152.038031 177.388632 
L 152.062349 177.418477 
L 152.293124 177.699849 
L 152.373051 177.796523 
L 152.663629 178.144679 
L 152.791323 178.29606 
L 152.931597 178.461235 
L 153.070036 178.623115 
L 153.274704 178.860402 
L 153.336889 178.932022 
L 153.509154 179.129281 
L 153.730207 179.379975 
L 153.804628 179.463769 
L 154.003815 179.686556 
L 154.234255 179.941641 
L 154.380598 180.102176 
L 154.434136 180.160626 
L 154.64861 180.39329 
L 154.748155 180.500476 
L 155.020553 180.791224 
L 155.104395 180.879969 
L 155.261935 181.045783 
L 155.40467 181.194967 
L 155.517379 181.312073 
L 155.800219 181.603275 
L 155.826928 181.630579 
L 156.121977 181.929981 
L 156.14767 181.955863 
L 156.382979 182.191498 
L 156.524931 182.332436 
L 156.701477 182.506464 
L 156.904766 182.705151 
L 157.053378 182.849256 
L 157.117515 182.911153 
L 157.226309 183.015745 
L 157.468807 183.24706 
L 157.685705 183.451861 
L 157.718563 183.482716 
L 157.978838 183.72555 
L 158.151545 183.885158 
L 158.241573 183.96788 
L 158.343418 184.061069 
L 158.582256 184.277991 
L 158.634908 184.325509 
L 158.910004 184.572022 
L 159.020644 184.670342 
L 159.11856 184.756963 
L 159.305457 184.921289 
L 159.532063 185.118763 
L 159.589024 185.168099 
L 159.800377 185.350114 
L 160.028204 185.544481 
L 160.128802 185.629705 
L 160.350138 185.815933 
L 160.417859 185.872564 
L 160.651542 186.066728 
L 160.682456 186.092271 
L 160.948835 186.310982 
L 161.058534 186.400336 
L 161.144195 186.469824 
L 161.429652 186.699577 
L 161.460577 186.724302 
L 161.698688 186.9136 
L 161.919726 187.087636 
L 161.936862 187.101061 
L 162.200719 187.306558 
L 162.361491 187.43066 
L 162.524778 187.555851 
L 162.566646 187.587814 
L 162.749306 187.726603 
L 162.897435 187.83838 
L 163.149742 188.027182 
L 163.177378 188.047741 
L 163.346465 188.173015 
L 163.56596 188.334323 
L 163.714972 188.442993 
L 163.871107 188.556136 
L 163.978229 188.633336 
L 164.126593 188.73969 
L 164.34868 188.897668 
L 164.459482 188.97594 
L 164.692279 189.139217 
L 164.746791 189.177222 
L 164.964486 189.328136 
L 165.187771 189.481508 
L 165.339932 189.58521 
L 165.406388 189.630295 
L 165.546306 189.724812 
L 165.7698 189.874643 
L 165.839892 189.921345 
L 166.079883 190.08022 
L 166.167042 190.137525 
L 166.337637 190.249085 
L 166.483174 190.343631 
L 166.705055 190.486666 
L 166.78814 190.539885 
L 167.084765 190.728378 
L 167.148268 190.768427 
L 167.292152 190.858775 
L 167.525994 191.004445 
L 167.671847 191.09458 
L 167.817612 191.184106 
L 167.88389 191.224631 
L 168.133502 191.376239 
L 168.207469 191.420857 
L 168.388062 191.529209 
L 168.613257 191.663161 
L 168.760184 191.749869 
L 168.902835 191.833535 
L 169.08535 191.939842 
L 169.2 192.006198 
z
" clip-path="url(#pb2886c38d8)" style="fill: #808080; opacity: 0.5"/>
   </g>
   <g id="patch_5">
    <path d="M 169.2 192.006198 
L 169.027433 192.105463 
L 168.645536 192.322542 
L 168.163623 192.591425 
L 167.977023 192.694041 
L 167.715358 192.836544 
L 167.372228 193.020965 
L 167.05738 193.187765 
L 166.602374 193.424767 
L 166.499153 193.477872 
L 166.15902 193.651147 
L 165.68824 193.886673 
L 165.29191 194.081119 
L 165.152458 194.14871 
L 164.827286 194.30466 
L 164.383387 194.513832 
L 164.224111 194.587847 
L 163.878681 194.746498 
L 163.540206 194.89949 
L 163.130664 195.08137 
L 163.072042 195.107117 
L 162.658262 195.28681 
L 162.213947 195.475818 
L 162.067316 195.537304 
L 161.61844 195.722803 
L 161.244114 195.874375 
L 161.050082 195.951834 
L 160.63822 196.113762 
L 160.439522 196.190677 
L 159.968017 196.370081 
L 159.911567 196.391267 
L 159.63818 196.492992 
L 159.2134 196.648169 
L 158.755717 196.811471 
L 158.508996 196.897837 
L 158.200616 197.004157 
L 157.958265 197.086448 
L 157.731628 197.162401 
L 157.155669 197.351086 
L 157.026011 197.392709 
L 156.768757 197.474368 
L 156.489822 197.561527 
L 155.952964 197.725251 
L 155.773081 197.77893 
L 155.43442 197.878392 
L 155.209227 197.943378 
L 154.776198 198.065768 
L 154.360745 198.180027 
L 154.107137 198.248258 
L 153.801568 198.328949 
L 153.394373 198.433907 
L 153.383249 198.436733 
L 153.02979 198.5254 
L 152.653353 198.61742 
L 152.251992 198.712806 
L 151.84043 198.807708 
L 151.744542 198.829397 
L 151.288365 198.930408 
L 151.042515 198.98336 
L 150.585202 199.079102 
L 150.36321 199.124289 
L 150.088696 199.179007 
L 149.89067 199.217683 
L 149.347884 199.320287 
L 149.073518 199.370258 
L 148.729253 199.431168 
L 148.416353 199.484802 
L 148.280634 199.507556 
L 148.02812 199.549071 
L 147.554433 199.624081 
L 147.273609 199.666788 
L 146.885433 199.723667 
L 146.631554 199.759519 
L 146.248207 199.811636 
L 145.913141 199.855207 
L 145.754126 199.875238 
L 145.437414 199.913898 
L 145.039541 199.960135 
L 144.629203 200.005108 
L 144.614392 200.00668 
L 144.244604 200.044765 
L 143.730508 200.094012 
L 143.60915 200.10501 
L 143.083971 200.149849 
L 142.968648 200.159096 
L 142.692508 200.180363 
L 142.37911 200.203004 
L 141.98338 200.229325 
L 141.627992 200.250808 
L 141.403857 200.263309 
L 141.029845 200.282366 
L 140.813825 200.292347 
L 140.291775 200.313366 
L 140.184264 200.31715 
L 139.712352 200.331564 
L 139.458385 200.33784 
L 139.123008 200.34454 
L 138.858064 200.348556 
L 138.380479 200.352949 
L 138.236958 200.353554 
L 137.862082 200.353574 
L 137.66574 200.352685 
L 137.144822 200.347327 
L 136.914694 200.343572 
L 136.735412 200.340058 
L 136.360064 200.331029 
L 136.007629 200.32049 
L 135.853916 200.315268 
L 135.48711 200.301273 
L 134.98117 200.278416 
L 134.756531 200.266945 
L 134.494784 200.252555 
L 134.035506 200.224633 
L 133.751071 200.205632 
L 133.387222 200.179421 
L 133.316343 200.174066 
L 132.84933 200.136745 
L 132.699931 200.12406 
L 132.155109 200.074729 
L 131.95432 200.055331 
L 131.647928 200.024466 
L 131.414169 199.999889 
L 130.963237 199.949957 
L 130.677399 199.916583 
L 130.302721 199.870807 
L 130.065552 199.84064 
L 129.773982 199.802285 
L 129.530496 199.769181 
L 129.018297 199.696347 
L 128.867975 199.674147 
L 128.548102 199.62566 
L 128.336926 199.592717 
L 127.866651 199.516685 
L 127.46459 199.448752 
L 127.325241 199.424575 
L 126.981045 199.363459 
L 126.573452 199.288505 
L 126.360735 199.248274 
L 125.891688 199.156852 
L 125.700319 199.118479 
L 125.309397 199.03815 
L 125.162827 199.007358 
L 124.657466 198.898365 
L 124.465871 198.855893 
L 124.189687 198.793556 
L 123.865061 198.718595 
L 123.531978 198.639778 
L 123.247012 198.570809 
L 122.710781 198.43717 
L 122.696194 198.433464 
L 122.156433 198.293687 
L 121.967176 198.243454 
L 121.657662 198.159928 
L 121.450194 198.102982 
L 120.892135 197.945972 
L 120.673161 197.882829 
L 120.399645 197.802737 
L 119.887528 197.649114 
L 119.846891 197.636718 
L 119.387022 197.494327 
L 119.005611 197.373266 
L 118.940872 197.35245 
L 118.470137 197.198737 
L 118.248285 197.124855 
L 117.795542 196.971201 
L 117.544721 196.884405 
L 117.237253 196.776369 
L 117.035922 196.704646 
L 116.560051 196.532014 
L 116.162515 196.384433 
L 116.085366 196.355435 
L 115.775819 196.237912 
L 115.28824 196.048963 
L 114.938535 195.910534 
L 114.665954 195.800935 
L 114.476962 195.724067 
L 113.98826 195.521942 
L 113.851711 195.464596 
L 113.584755 195.351376 
L 113.141531 195.160148 
L 112.746824 194.986407 
L 112.395389 194.828957 
L 112.060215 194.676353 
L 111.917131 194.610477 
L 111.715947 194.517109 
L 111.315693 194.328753 
L 110.866838 194.113375 
L 110.659622 194.012451 
L 110.286377 193.82826 
L 110.029277 193.699573 
L 109.7327 193.549279 
L 109.452527 193.405462 
L 108.968918 193.152985 
L 108.890175 193.111364 
L 108.480592 192.89254 
L 108.233345 192.758537 
L 107.731168 192.481897 
L 107.462633 192.331481 
L 107.184144 192.173641 
L 106.892308 192.006198 
L 106.892308 200.353846 
L 106.90523 201.622767 
L 106.918152 202.148278 
L 106.931075 202.551453 
L 106.943997 202.891292 
L 106.95692 203.19065 
L 106.969842 203.461248 
L 106.982764 203.710049 
L 106.995687 203.941592 
L 107.008609 204.159028 
L 107.021531 204.364652 
L 107.034454 204.560196 
L 107.047376 204.747008 
L 107.060299 204.926156 
L 107.073221 205.09851 
L 107.099066 205.425579 
L 107.12491 205.732672 
L 107.150755 206.023037 
L 107.1766 206.299126 
L 107.202445 206.562843 
L 107.228289 206.815703 
L 107.254134 207.058935 
L 107.279979 207.29355 
L 107.305824 207.520396 
L 107.340102 207.810488 
L 107.37438 208.089557 
L 107.408658 208.358757 
L 107.442936 208.619051 
L 107.477215 208.871257 
L 107.511493 209.116072 
L 107.545771 209.3541 
L 107.580049 209.585866 
L 107.622892 209.867429 
L 107.665734 210.140708 
L 107.708577 210.406379 
L 107.75142 210.665028 
L 107.819147 211.060823 
L 107.886874 211.442086 
L 107.954601 211.810267 
L 108.022328 212.166591 
L 108.083823 212.480735 
L 108.145318 212.786641 
L 108.206814 213.084901 
L 108.268309 213.376041 
L 108.3913 213.938783 
L 108.514291 214.478052 
L 108.634994 214.98698 
L 108.755698 215.47783 
L 108.890894 216.008246 
L 109.02609 216.520139 
L 109.140157 216.938894 
L 109.254225 217.346568 
L 109.404447 217.867851 
L 109.554669 218.372809 
L 109.716246 218.899236 
L 109.877822 219.409756 
L 110.002494 219.793593 
L 110.127166 220.169213 
L 110.251837 220.537073 
L 110.376509 220.897591 
L 110.526321 221.321628 
L 110.660877 221.694409 
L 110.795434 222.059955 
L 110.92999 222.418626 
L 111.064547 222.770751 
L 111.275638 223.310694 
L 111.502113 223.8741 
L 111.737345 224.443092 
L 111.972577 224.996706 
L 112.273241 225.683526 
L 112.555549 226.308705 
L 112.773466 226.779114 
L 112.991383 227.239527 
L 112.99918 227.255823 
L 113.229951 227.732708 
L 113.460721 228.199516 
L 113.798237 228.865128 
L 114.151629 229.541608 
L 114.267183 229.758508 
L 114.56469 230.307668 
L 114.862198 230.844038 
L 115.158377 231.365964 
L 115.355501 231.706971 
L 115.556976 232.050446 
L 115.877113 232.586101 
L 116.258003 233.20797 
L 116.558059 233.686631 
L 116.935302 234.275076 
L 117.290124 234.815612 
L 117.627225 235.318077 
L 117.85752 235.65538 
L 118.163317 236.096056 
L 118.575959 236.67815 
L 118.723442 236.882816 
L 119.224948 237.565978 
L 119.300506 237.667235 
L 119.767836 238.284173 
L 119.979743 238.558752 
L 120.240437 238.892265 
L 120.768783 239.554174 
L 120.833969 239.634574 
L 121.258058 240.151066 
L 121.727772 240.710209 
L 121.817446 240.815459 
L 122.158155 241.211077 
L 122.534825 241.640769 
L 122.725861 241.855688 
L 123.13927 242.314038 
L 123.476347 242.681096 
L 123.743524 242.967897 
L 124.169893 243.418193 
L 124.497301 243.757962 
L 124.714792 243.980842 
L 124.921064 244.190182 
L 125.262479 244.532379 
L 125.618252 244.883384 
L 125.977237 245.231917 
L 126.451039 245.68347 
L 126.491186 245.721298 
L 126.778044 245.989646 
L 127.305216 246.474076 
L 127.498765 246.649154 
L 127.913591 247.019475 
L 128.114226 247.196217 
L 128.553232 247.577662 
L 128.896937 247.871334 
L 129.278216 248.192112 
L 129.470598 248.352004 
L 129.697806 248.539168 
L 130.07911 248.849253 
L 130.292131 249.020326 
L 130.754835 249.38667 
L 130.926789 249.521008 
L 131.177693 249.715295 
L 131.608673 250.044294 
L 131.799585 250.188146 
L 132.317008 250.572303 
L 132.483319 250.694028 
L 132.946966 251.028949 
L 133.254271 251.247393 
L 133.362539 251.323689 
L 133.720043 251.57319 
L 134.039451 251.792978 
L 134.42758 252.056141 
L 134.674238 252.221179 
L 135.125922 252.519024 
L 135.330689 252.652204 
L 135.822196 252.967254 
L 136.165938 253.183755 
L 136.24046 253.23028 
L 136.6547 253.486246 
L 136.877839 253.622284 
L 137.385562 253.927067 
L 137.460691 253.971612 
L 137.922532 254.242328 
L 138.107925 254.349507 
L 138.505883 254.576717 
L 138.807159 254.746159 
L 139.22995 254.980256 
L 139.318714 255.028861 
L 139.810082 255.294553 
L 140.130996 255.465021 
L 140.268298 255.537224 
L 140.809808 255.817758 
L 140.881313 255.854301 
L 141.19917 256.015341 
L 141.735172 256.281762 
L 141.990888 256.406614 
L 142.179762 256.497904 
L 142.476015 256.639521 
L 142.928459 256.852117 
L 143.277476 257.013102 
L 143.555489 257.139475 
L 143.768094 257.235009 
L 144.053311 257.361675 
L 144.327928 257.482023 
L 144.824063 257.695473 
L 145.090086 257.807833 
L 145.373513 257.925949 
L 145.871704 258.129612 
L 146.159947 258.245162 
L 146.334883 258.314479 
L 146.690311 258.453437 
L 147.125803 258.620289 
L 147.17764 258.639901 
L 147.561356 258.783442 
L 147.858838 258.892751 
L 148.189344 259.012186 
L 148.473981 259.113362 
L 148.889258 259.258195 
L 149.262666 259.385628 
L 149.45522 259.450311 
L 149.656352 259.517132 
L 150.024759 259.637559 
L 150.263938 259.714389 
L 150.69621 259.850554 
L 151.178559 259.998428 
L 151.350199 260.05002 
L 151.523034 260.101427 
L 152.037877 260.251342 
L 152.274278 260.318573 
L 152.732366 260.445988 
L 152.800683 260.464668 
L 153.113123 260.549036 
L 153.496618 260.650217 
L 153.745977 260.714609 
L 154.303704 260.854663 
L 154.597708 260.926295 
L 154.705709 260.952229 
L 155.033435 261.029681 
L 155.44392 261.124059 
L 155.670828 261.174978 
L 155.900234 261.225553 
L 156.32978 261.317819 
L 156.70863 261.396571 
L 156.99673 261.454818 
L 157.438222 261.541338 
L 157.622538 261.57648 
L 157.954546 261.638333 
L 158.266719 261.694794 
L 158.493376 261.734761 
L 158.874887 261.800087 
L 159.08171 261.834483 
L 159.340093 261.87645 
L 159.931758 261.968359 
L 160.224185 262.011638 
L 160.470413 262.046981 
L 160.762768 262.087643 
L 160.928696 262.110093 
L 161.36652 262.167155 
L 161.685564 262.20675 
L 161.881562 262.230247 
L 162.386023 262.287829 
L 162.593889 262.310346 
L 163.016532 262.353953 
L 163.300275 262.381596 
L 163.479148 262.398349 
L 163.872649 262.433375 
L 164.059163 262.449098 
L 164.386132 262.475301 
L 164.808111 262.50656 
L 165.207578 262.533498 
L 165.494241 262.551241 
L 165.821035 262.56985 
L 165.971521 262.57784 
L 166.443001 262.600513 
L 166.597527 262.607165 
L 166.922917 262.619916 
L 167.317446 262.633092 
L 167.48245 262.637861 
L 167.869923 262.64734 
L 168.231308 262.654008 
L 168.531679 262.657954 
L 168.879207 262.660713 
L 169.2 262.661538 
z
" clip-path="url(#pb2886c38d8)" style="fill: #808080; opacity: 0.5"/>
   </g>
   <g id="patch_6">
    <path d="M 200.353846 146.393802 
L 200.120836 146.259942 
L 200.09337 146.244252 
L 199.908351 146.139035 
L 199.680186 146.010431 
L 199.517037 145.919245 
L 199.411612 145.860663 
L 199.190328 145.738567 
L 199.035192 145.653665 
L 198.905621 145.583191 
L 198.847812 145.551878 
L 198.659793 145.450576 
L 198.508609 145.369722 
L 198.327715 145.27368 
L 198.203075 145.207947 
L 198.043685 145.124412 
L 197.781691 144.988375 
L 197.683064 144.937571 
L 197.51263 144.850301 
L 197.453085 144.819967 
L 197.1923 144.688061 
L 197.130539 144.657046 
L 196.834788 144.509715 
L 196.746946 144.466331 
L 196.616223 144.402088 
L 196.388036 144.290853 
L 196.313162 144.254604 
L 196.115793 144.159642 
L 195.989425 144.099289 
L 195.73941 143.980907 
L 195.713756 143.968837 
L 195.504359 143.870847 
L 195.349697 143.799077 
L 195.239839 143.748411 
L 195.049145 143.661075 
L 194.812667 143.553848 
L 194.73451 143.51867 
L 194.494024 143.411236 
L 194.415342 143.37635 
L 194.199203 143.281187 
L 194.088748 143.232933 
L 193.876779 143.141041 
L 193.719852 143.07361 
L 193.698372 143.064421 
L 193.433677 142.951952 
L 193.316422 142.902591 
L 193.074621 142.801687 
L 192.991742 142.767376 
L 192.789573 142.684265 
L 192.655185 142.629477 
L 192.506214 142.569169 
L 192.340064 142.502433 
L 192.191018 142.443039 
L 192.133284 142.420151 
L 191.882857 142.321644 
L 191.680357 142.2429 
L 191.544758 142.190625 
L 191.360227 142.120068 
L 191.232029 142.071446 
L 191.046084 142.001493 
L 190.940851 141.962203 
L 190.733495 141.885418 
L 190.688921 141.869021 
L 190.537945 141.813769 
L 190.321064 141.73517 
L 190.220405 141.698999 
L 190.001635 141.621057 
L 189.93545 141.597658 
L 189.765144 141.537833 
L 189.492868 141.443337 
L 189.322796 141.385027 
L 189.199824 141.343207 
L 189.075801 141.301318 
L 189.003426 141.277008 
L 188.787391 141.205029 
L 188.605519 141.145111 
L 188.416881 141.083617 
L 188.313758 141.050282 
L 188.216495 141.019021 
L 187.923449 140.925898 
L 187.771557 140.878256 
L 187.7045 140.857359 
L 187.495181 140.79266 
L 187.375526 140.756038 
L 187.131557 140.68218 
L 187.064409 140.662043 
L 186.951469 140.628359 
L 186.734656 140.564346 
L 186.598827 140.524678 
L 186.398412 140.46676 
L 186.196498 140.409142 
L 186.169782 140.401573 
L 185.946051 140.338695 
L 185.810987 140.301172 
L 185.628627 140.251028 
L 185.450811 140.202706 
L 185.361347 140.178607 
L 185.1051 140.110371 
L 185.083656 140.104713 
L 184.876382 140.05045 
L 184.706941 140.006656 
L 184.596176 139.978302 
L 184.373374 139.921924 
L 184.197097 139.877937 
L 184.086362 139.850584 
L 183.928652 139.811998 
L 183.803594 139.781711 
L 183.549846 139.721096 
L 183.428405 139.692483 
L 183.284768 139.658971 
L 183.118933 139.620726 
L 182.988303 139.590936 
L 182.864928 139.563072 
L 182.64283 139.513573 
L 182.435962 139.468233 
L 182.273343 139.433109 
L 182.132535 139.403062 
L 182.1041 139.397036 
L 181.916696 139.357665 
L 181.7906 139.331512 
L 181.558575 139.284098 
L 181.381557 139.248542 
L 181.1769 139.208099 
L 181.161229 139.205032 
L 180.986883 139.171186 
L 180.782449 139.132156 
L 180.701851 139.116962 
L 180.475452 139.074872 
L 180.23839 139.031726 
L 180.211359 139.026866 
L 180.009015 138.990879 
L 179.799395 138.954324 
L 179.753674 138.946449 
L 179.578704 138.916634 
L 179.363329 138.880638 
L 179.158296 138.847091 
L 179.107604 138.838906 
L 178.870842 138.80124 
L 178.714912 138.776943 
L 178.598912 138.759131 
L 178.451106 138.736758 
L 178.299513 138.714189 
L 178.176127 138.6961 
L 177.911134 138.658103 
L 177.861624 138.651133 
L 177.676381 138.625413 
L 177.564262 138.610121 
L 177.314332 138.576778 
L 177.190159 138.560595 
L 176.951889 138.530252 
L 176.847259 138.517223 
L 176.759229 138.5064 
L 176.615423 138.488993 
L 176.344325 138.4571 
L 176.309862 138.453132 
L 176.053079 138.424178 
L 175.980458 138.416185 
L 175.800403 138.396738 
L 175.596149 138.375319 
L 175.452967 138.36071 
L 175.347761 138.350189 
L 175.072759 138.323537 
L 174.977916 138.314631 
L 174.801729 138.298475 
L 174.723462 138.291459 
L 174.557016 138.276871 
L 174.437452 138.266669 
L 174.160305 138.243912 
L 174.043061 138.23466 
L 173.821211 138.217762 
L 173.662915 138.206192 
L 173.617104 138.202919 
L 173.50332 138.194937 
L 173.295381 138.180891 
L 173.125576 138.169938 
L 172.923625 138.157519 
L 172.787498 138.149518 
L 172.668985 138.142797 
L 172.536954 138.135575 
L 172.289553 138.122799 
L 172.14675 138.115874 
L 171.984522 138.108405 
L 171.864957 138.103171 
L 171.742574 138.098053 
L 171.560721 138.090892 
L 171.320836 138.082259 
L 171.285171 138.081054 
L 171.033147 138.073126 
L 170.950124 138.070738 
L 170.717558 138.064637 
L 170.652126 138.063078 
L 170.445864 138.058611 
L 170.359372 138.056941 
L 170.191326 138.05404 
L 169.909635 138.050195 
L 169.835754 138.049397 
L 169.597121 138.047419 
L 169.471722 138.046746 
L 169.339964 138.046311 
L 169.2 138.046154 
L 169.2 262.661538 
L 169.301378 262.661456 
L 169.444248 262.66106 
L 169.713306 262.659424 
L 169.789429 262.65875 
L 169.95996 262.656904 
L 170.153551 262.654242 
L 170.227317 262.653069 
L 170.437499 262.649248 
L 170.643036 262.644826 
L 170.731786 262.642707 
L 170.943324 262.637145 
L 171.051138 262.634034 
L 171.253435 262.627692 
L 171.459656 262.620551 
L 171.533569 262.617824 
L 171.701392 262.611308 
L 171.801492 262.607206 
L 171.968167 262.600017 
L 172.196886 262.589424 
L 172.351405 262.581791 
L 172.469283 262.57571 
L 172.675976 262.564505 
L 172.747525 262.560466 
L 172.884515 262.552503 
L 173.185265 262.533957 
L 173.236044 262.530682 
L 173.410496 262.519112 
L 173.635453 262.503466 
L 173.785183 262.492599 
L 173.827551 262.489458 
L 174.015994 262.475137 
L 174.271199 262.454824 
L 174.435137 262.441219 
L 174.56197 262.430394 
L 174.640208 262.423586 
L 174.905026 262.399807 
L 174.999712 262.391027 
L 175.146696 262.377111 
L 175.229297 262.369135 
L 175.505343 262.341677 
L 175.654266 262.326348 
L 175.706352 262.320901 
L 175.862468 262.304311 
L 176.050195 262.283834 
L 176.276744 262.258355 
L 176.370659 262.247547 
L 176.558654 262.225477 
L 176.684452 262.210386 
L 176.89032 262.185129 
L 177.013606 262.16967 
L 177.205067 262.145168 
L 177.328326 262.129075 
L 177.501642 262.106022 
L 177.634094 262.088072 
L 177.884058 262.053406 
L 177.957182 262.04307 
L 178.095167 262.023324 
L 178.248555 262.001005 
L 178.373824 261.982488 
L 178.515684 261.961204 
L 178.67925 261.936249 
L 178.907087 261.900747 
L 179.087211 261.872068 
L 179.226184 261.849571 
L 179.380027 261.824291 
L 179.571237 261.792319 
L 179.671784 261.775262 
L 179.842381 261.745932 
L 179.935142 261.72978 
L 180.191031 261.684473 
L 180.359694 261.654007 
L 180.454447 261.636682 
L 180.560158 261.617174 
L 180.783702 261.5753 
L 180.864789 261.559902 
L 181.1283 261.509093 
L 181.22032 261.491072 
L 181.365835 261.462282 
L 181.520576 261.431272 
L 181.740006 261.386598 
L 181.805741 261.373055 
L 182.017727 261.328877 
L 182.121807 261.306905 
L 182.42342 261.242184 
L 182.514558 261.22232 
L 182.643333 261.194008 
L 182.859684 261.145799 
L 182.949168 261.125623 
L 183.175542 261.073964 
L 183.349087 261.033759 
L 183.5184 260.99403 
L 183.664321 260.95939 
L 183.696268 260.951757 
L 183.910258 260.900166 
L 184.01288 260.875141 
L 184.282043 260.808627 
L 184.422849 260.773325 
L 184.519302 260.748941 
L 184.625407 260.721928 
L 184.829104 260.669513 
L 184.959011 260.635701 
L 185.159154 260.583025 
L 185.24776 260.559477 
L 185.453179 260.504346 
L 185.69369 260.438842 
L 185.841551 260.398057 
L 185.996276 260.35496 
L 186.097055 260.326657 
L 186.332866 260.259717 
L 186.450304 260.226006 
L 186.565925 260.192572 
L 186.757891 260.136528 
L 186.967397 260.074597 
L 187.039696 260.05304 
L 187.165181 260.015398 
L 187.32964 259.965629 
L 187.594194 259.884528 
L 187.724536 259.844098 
L 187.870305 259.798511 
L 188.033303 259.747071 
L 188.072443 259.734646 
L 188.241058 259.680793 
L 188.4665 259.607964 
L 188.624913 259.556222 
L 188.783234 259.50404 
L 188.880369 259.471793 
L 189.108898 259.395224 
L 189.203074 259.363384 
L 189.446755 259.280219 
L 189.516422 259.256236 
L 189.769514 259.168331 
L 189.862863 259.1356 
L 190.034342 259.075041 
L 190.202702 259.015034 
L 190.396745 258.945198 
L 190.541085 258.892779 
L 190.580398 258.878432 
L 190.865628 258.773441 
L 190.962734 258.737336 
L 191.158761 258.663891 
L 191.286737 258.615537 
L 191.35966 258.587839 
L 191.558236 258.511888 
L 191.745856 258.439412 
L 191.922799 258.370421 
L 192.004529 258.338344 
L 192.137158 258.286007 
L 192.433118 258.167951 
L 192.558676 258.117336 
L 192.752656 258.038514 
L 192.897036 257.979353 
L 193.06089 257.911699 
L 193.123463 257.885719 
L 193.299318 257.812278 
L 193.432511 257.756232 
L 193.617528 257.677775 
L 193.824252 257.589279 
L 193.94069 257.539043 
L 194.103931 257.468142 
L 194.188613 257.431142 
L 194.387086 257.343838 
L 194.498416 257.294505 
L 194.717472 257.196675 
L 194.951195 257.091175 
L 194.999771 257.069103 
L 195.237804 256.960218 
L 195.316652 256.923882 
L 195.492264 256.842477 
L 195.588799 256.797445 
L 195.782875 256.706302 
L 195.91855 256.642101 
L 196.167248 256.523376 
L 196.345519 256.437439 
L 196.426491 256.398174 
L 196.67451 256.277006 
L 196.798816 256.215764 
L 196.895315 256.167984 
L 197.111463 256.060208 
L 197.23184 255.999731 
L 197.305684 255.96247 
L 197.585928 255.819941 
L 197.671983 255.775816 
L 197.86874 255.674293 
L 197.95727 255.628324 
L 198.185158 255.509164 
L 198.261725 255.468859 
L 198.497021 255.344146 
L 198.64475 255.265186 
L 198.814902 255.173606 
L 198.881556 255.137546 
L 199.169756 254.980417 
L 199.203505 254.961887 
L 199.344814 254.88401 
L 199.619302 254.731365 
L 199.67335 254.701095 
L 199.945463 254.547619 
L 200.077226 254.472655 
L 200.167208 254.421217 
L 200.353846 254.313891 
z
" clip-path="url(#pb2886c38d8)" style="fill: #808080; opacity: 0.5"/>
   </g>
   <g id="patch_7">
    <path d="M 231.507692 200.353846 
L 231.503529 199.633557 
L 231.499365 199.335221 
L 231.495202 199.106311 
L 231.491038 198.913341 
L 231.486875 198.743339 
L 231.482711 198.589653 
L 231.478548 198.448332 
L 231.474384 198.3168 
L 231.470221 198.193268 
L 231.466058 198.076435 
L 231.461894 197.965317 
L 231.457731 197.859151 
L 231.453567 197.757328 
L 231.449404 197.659357 
L 231.441077 197.473413 
L 231.43275 197.298787 
L 231.424423 197.133639 
L 231.416096 196.976577 
L 231.407769 196.826522 
L 231.399442 196.682614 
L 231.391115 196.544155 
L 231.382788 196.410573 
L 231.374461 196.281388 
L 231.365106 196.14099 
L 231.35575 196.005142 
L 231.346395 195.873432 
L 231.33704 195.745503 
L 231.327684 195.621049 
L 231.318329 195.499803 
L 231.299618 195.266023 
L 231.280907 195.042589 
L 231.262197 194.828246 
L 231.243486 194.621974 
L 231.224775 194.42293 
L 231.208645 194.256598 
L 231.192515 194.094726 
L 231.176385 193.936977 
L 231.160255 193.783054 
L 231.144125 193.632693 
L 231.127995 193.485661 
L 231.095735 193.200767 
L 231.073549 193.011337 
L 231.051364 192.826739 
L 231.029178 192.646624 
L 231.006992 192.470685 
L 230.984807 192.29865 
L 230.962621 192.130273 
L 230.940435 191.965333 
L 230.91825 191.803632 
L 230.893572 191.62735 
L 230.868893 191.454627 
L 230.844215 191.28526 
L 230.819537 191.119065 
L 230.770181 190.795531 
L 230.720824 190.482842 
L 230.680916 190.237253 
L 230.641008 189.99764 
L 230.579714 189.640342 
L 230.518421 189.294921 
L 230.457127 188.960297 
L 230.395833 188.635545 
L 230.356769 188.433353 
L 230.317705 188.234659 
L 230.278641 188.039295 
L 230.239577 187.847104 
L 230.166593 187.496046 
L 230.103384 187.1999 
L 230.040175 186.910573 
L 229.976966 186.627635 
L 229.913757 186.350697 
L 229.850344 186.078544 
L 229.786931 185.811759 
L 229.730228 185.577514 
L 229.673525 185.347139 
L 229.616822 185.120459 
L 229.56012 184.897311 
L 229.542919 184.830294 
L 229.481101 184.591949 
L 229.419283 184.357394 
L 229.357465 184.126464 
L 229.295647 183.899007 
L 229.213687 183.60255 
L 229.131727 183.311644 
L 229.048936 183.02314 
L 228.949658 182.683904 
L 228.850381 182.351607 
L 228.742435 181.997732 
L 228.647388 181.692212 
L 228.552341 181.39209 
L 228.458374 181.10044 
L 228.364407 180.813594 
L 228.26957 180.528751 
L 228.157286 180.197284 
L 228.045001 179.871796 
L 227.949339 179.598999 
L 227.853677 179.330177 
L 227.753813 179.053622 
L 227.657082 178.789567 
L 227.56035 178.529135 
L 227.431947 178.18881 
L 227.327794 177.91709 
L 227.223642 177.649099 
L 227.085283 177.298641 
L 226.910646 176.864916 
L 226.782404 176.552266 
L 226.615412 176.152215 
L 226.553814 176.006598 
L 226.365878 175.568551 
L 226.246917 175.295959 
L 226.105418 174.976259 
L 225.963918 174.661316 
L 225.919953 174.564402 
L 225.732844 174.156785 
L 225.553177 173.7725 
L 225.411696 173.474601 
L 225.192518 173.020964 
L 225.167077 172.968909 
L 224.943003 172.515633 
L 224.723336 172.080049 
L 224.545536 171.73357 
L 224.388234 171.431409 
L 224.291121 171.246855 
L 224.216049 171.105207 
L 223.996671 170.696245 
L 223.807283 170.34896 
L 223.74569 170.237135 
L 223.590567 169.95788 
L 223.304971 169.452379 
L 223.26097 169.375465 
L 223.053915 169.016897 
L 222.860584 168.686983 
L 222.785213 168.55961 
L 222.607547 168.262064 
L 222.453159 168.006518 
L 222.196409 167.587566 
L 222.101793 167.435025 
L 222.004485 167.27916 
L 221.732638 166.849064 
L 221.692853 166.786765 
L 221.493106 166.476426 
L 221.28143 166.151899 
L 221.116845 165.902581 
L 221.046979 165.797525 
L 220.878207 165.545637 
L 220.695982 165.276613 
L 220.47965 164.961106 
L 220.426631 164.884412 
L 220.162326 164.505696 
L 220.0535 164.351484 
L 219.909984 164.149619 
L 219.706973 163.866941 
L 219.666263 163.810655 
L 219.474516 163.547304 
L 219.330309 163.351135 
L 219.124269 163.073612 
L 219.050568 162.975118 
L 218.866376 162.73072 
L 218.654946 162.453228 
L 218.511446 162.266711 
L 218.340831 162.046833 
L 218.207684 161.87664 
L 218.031554 161.653357 
L 217.884862 161.468981 
L 217.791915 161.352893 
L 217.537994 161.038622 
L 217.472568 160.958318 
L 217.326319 160.77979 
L 217.053627 160.450476 
L 217.013399 160.402282 
L 216.856757 160.21556 
L 216.631762 159.94993 
L 216.47441 159.765933 
L 216.254535 159.51123 
L 216.100588 159.334541 
L 216.02129 159.24405 
L 215.774868 158.965077 
L 215.649955 158.824938 
L 215.525072 158.685678 
L 215.36274 158.505908 
L 215.153441 158.276183 
L 215.04652 158.15971 
L 214.888706 157.988877 
L 214.809103 157.903189 
L 214.523781 157.59869 
L 214.503335 157.577026 
L 214.351519 157.416813 
L 214.161556 157.217933 
L 213.985262 157.034926 
L 213.767394 156.810811 
L 213.589909 156.629888 
L 213.505475 156.544333 
L 213.404365 156.442314 
L 213.139332 156.177114 
L 212.964417 156.003825 
L 212.826706 155.868353 
L 212.794164 155.836463 
L 212.585478 155.633059 
L 212.443466 155.495723 
L 212.243948 155.30424 
L 212.126958 155.192748 
L 211.889966 154.968658 
L 211.719214 154.808649 
L 211.659367 154.752852 
L 211.398034 154.510914 
L 211.366544 154.481948 
L 211.121009 154.257452 
L 211.059221 154.201337 
L 210.792364 153.960702 
L 210.640939 153.825391 
L 210.519824 153.717802 
L 210.348804 153.566834 
L 210.148072 153.391053 
L 209.99538 153.258353 
L 209.853462 153.135793 
L 209.698219 153.002576 
L 209.581757 152.903217 
L 209.366679 152.721017 
L 209.318188 152.680169 
L 209.148918 152.538237 
L 209.006596 152.419688 
L 208.865326 152.302723 
L 208.69628 152.163677 
L 208.555046 152.048268 
L 208.288436 151.832276 
L 208.200825 151.761829 
L 208.071521 151.658329 
L 207.822213 151.460358 
L 207.648873 151.32393 
L 207.508571 151.21423 
L 207.344586 151.086828 
L 207.282347 151.038703 
L 207.126769 150.918952 
L 206.869309 150.722488 
L 206.753212 150.634587 
L 206.675647 150.576096 
L 206.533168 150.469148 
L 206.229101 150.243027 
L 206.175602 150.203539 
L 206.002255 150.076191 
L 205.901723 150.002758 
L 205.727202 149.876009 
L 205.568796 149.76176 
L 205.287242 149.560545 
L 205.195302 149.495349 
L 205.059282 149.399353 
L 204.906008 149.29183 
L 204.803671 149.220421 
L 204.575959 149.062619 
L 204.470874 148.990299 
L 204.319144 148.886437 
L 204.090926 148.73145 
L 204.017794 148.682096 
L 203.764237 148.512144 
L 203.645529 148.433195 
L 203.42726 148.289048 
L 203.31737 148.216972 
L 203.226517 148.157633 
L 202.943781 147.974406 
L 202.840606 147.908082 
L 202.658594 147.791778 
L 202.621931 147.768458 
L 202.422973 147.642533 
L 202.292492 147.560518 
L 202.039127 147.402546 
L 201.956322 147.351281 
L 201.706663 147.197799 
L 201.603579 147.134897 
L 201.409008 147.016914 
L 201.341187 146.976017 
L 201.087772 146.824242 
L 200.919625 146.724433 
L 200.863023 146.690996 
L 200.70326 146.59705 
L 200.518097 146.488966 
L 200.353846 146.393802 
L 200.353846 254.313891 
L 200.441437 254.263225 
L 200.593702 254.174697 
L 200.892699 253.999175 
L 200.920033 253.983018 
L 201.120822 253.863749 
L 201.291108 253.761798 
L 201.459665 253.660154 
L 201.592616 253.579469 
L 201.808887 253.447245 
L 201.902524 253.389621 
L 202.065707 253.288654 
L 202.281837 253.153852 
L 202.459684 253.042004 
L 202.605976 252.949372 
L 202.665412 252.911574 
L 202.844634 252.797026 
L 202.986383 252.705817 
L 203.216125 252.556832 
L 203.263771 252.525755 
L 203.505339 252.367231 
L 203.577828 252.319349 
L 203.790096 252.178298 
L 203.95688 252.066589 
L 204.186239 251.911693 
L 204.310407 251.827217 
L 204.441629 251.737463 
L 204.525356 251.679939 
L 204.717662 251.547051 
L 204.943111 251.389898 
L 204.994118 251.354137 
L 205.284697 251.148956 
L 205.426981 251.047577 
L 205.526309 250.976448 
L 205.634302 250.898778 
L 205.808245 250.772939 
L 206.063243 250.586802 
L 206.164616 250.512252 
L 206.247832 250.450818 
L 206.417058 250.325229 
L 206.686363 250.123527 
L 206.703116 250.110904 
L 206.862828 249.990122 
L 207.138847 249.779471 
L 207.20176 249.731116 
L 207.344998 249.620545 
L 207.587785 249.431606 
L 207.728047 249.321571 
L 207.927491 249.163988 
L 208.028266 249.08386 
L 208.111889 249.017112 
L 208.278322 248.883562 
L 208.488522 248.713546 
L 208.698163 248.542472 
L 208.789798 248.467217 
L 209.006647 248.287961 
L 209.178615 248.144628 
L 209.210145 248.118235 
L 209.377395 247.977637 
L 209.533036 247.845895 
L 209.756236 247.655434 
L 209.930867 247.505145 
L 210.000018 247.445321 
L 210.236414 247.239465 
L 210.425213 247.073546 
L 210.577304 246.9389 
L 210.687509 246.840781 
L 210.860307 246.685988 
L 211.038087 246.525515 
L 211.18662 246.390486 
L 211.292825 246.2934 
L 211.510344 246.093144 
L 211.592714 246.016811 
L 211.749104 245.87112 
L 211.871323 245.756563 
L 212.166694 245.477141 
L 212.210017 245.435849 
L 212.472319 245.184137 
L 212.629079 245.032293 
L 212.789953 244.875353 
L 212.815237 244.850583 
L 213.067548 244.60186 
L 213.206107 244.464061 
L 213.326815 244.343308 
L 213.537171 244.131281 
L 213.712273 243.953228 
L 213.888495 243.772586 
L 213.930014 243.729811 
L 214.094914 243.559114 
L 214.334821 243.308432 
L 214.518451 243.114652 
L 214.534943 243.097167 
L 214.765895 242.850878 
L 214.977029 242.623364 
L 215.082199 242.509182 
L 215.21648 242.362561 
L 215.445447 242.110368 
L 215.56861 241.973559 
L 215.744109 241.777202 
L 215.821369 241.690228 
L 216.007528 241.479311 
L 216.121404 241.349338 
L 216.324585 241.115617 
L 216.457064 240.961953 
L 216.706336 240.670054 
L 216.813671 240.543234 
L 216.929325 240.405813 
L 217.027923 240.288021 
L 217.211403 240.067241 
L 217.372729 239.871395 
L 217.519139 239.692242 
L 217.805876 239.337399 
L 217.838253 239.296995 
L 218.028386 239.058333 
L 218.1859 238.858783 
L 218.33991 238.662041 
L 218.566021 238.370217 
L 218.740431 238.142657 
L 218.818753 238.039756 
L 218.946034 237.871583 
L 219.161554 237.584097 
L 219.278696 237.426379 
L 219.43006 237.221035 
L 219.609949 236.974682 
L 219.709654 236.83704 
L 219.852146 236.638948 
L 220.011082 236.416049 
L 220.165875 236.19695 
L 220.333787 235.956996 
L 220.486117 235.737213 
L 220.675492 235.461143 
L 220.821374 235.246285 
L 220.995235 234.987676 
L 221.22612 234.639868 
L 221.28193 234.555032 
L 221.448291 234.300342 
L 221.567925 234.115496 
L 221.789456 233.769376 
L 221.894749 233.603086 
L 222.13736 233.215441 
L 222.208871 233.099962 
L 222.434865 232.731272 
L 222.539457 232.558672 
L 222.759567 232.191265 
L 222.824141 232.082383 
L 222.987329 231.804947 
L 223.286043 231.28843 
L 223.375731 231.131089 
L 223.514107 230.886228 
L 223.688503 230.573899 
L 223.831669 230.314307 
L 224.037236 229.936376 
L 224.204183 229.624794 
L 224.33581 229.376096 
L 224.499651 229.06268 
L 224.576914 228.913361 
L 224.814691 228.447522 
L 224.89017 228.297603 
L 225.024469 228.028332 
L 225.158769 227.755757 
L 225.238588 227.592149 
L 225.417977 227.219951 
L 225.566077 226.907827 
L 225.665586 226.695564 
L 225.786698 226.434377 
L 225.90781 226.16998 
L 225.999091 225.968524 
L 226.151992 225.62674 
L 226.329849 225.222077 
L 226.434557 224.980133 
L 226.606202 224.577316 
L 226.744568 224.246758 
L 226.878878 223.920678 
L 227.013188 223.589246 
L 227.075429 223.433778 
L 227.190104 223.144114 
L 227.30478 222.850137 
L 227.449026 222.473962 
L 227.558374 222.183842 
L 227.667722 221.889258 
L 227.686183 221.839072 
L 227.860854 221.357481 
L 227.991981 220.987593 
L 228.123108 220.610102 
L 228.181688 220.43889 
L 228.291633 220.113082 
L 228.401579 219.781188 
L 228.532894 219.376365 
L 228.623064 219.09279 
L 228.713234 218.804416 
L 228.795523 218.536866 
L 228.924643 218.108156 
L 229.053764 217.667871 
L 229.103316 217.495644 
L 229.185868 217.204488 
L 229.26842 216.907801 
L 229.347528 216.618021 
L 229.426636 216.322592 
L 229.535448 215.906409 
L 229.589855 215.693794 
L 229.644261 215.477994 
L 229.725351 215.150144 
L 229.806441 214.814408 
L 229.881878 214.494505 
L 229.957315 214.166784 
L 230.003022 213.964173 
L 230.04873 213.758343 
L 230.094438 213.549146 
L 230.140146 213.336416 
L 230.20168 213.044139 
L 230.263215 212.744663 
L 230.334825 212.386374 
L 230.406119 212.018303 
L 230.441766 211.829675 
L 230.477413 211.637782 
L 230.51306 211.442454 
L 230.548707 211.243506 
L 230.584354 211.040737 
L 230.620001 210.833924 
L 230.669787 210.537841 
L 230.703782 210.330483 
L 230.737777 210.118605 
L 230.771772 209.901905 
L 230.805767 209.680047 
L 230.839762 209.452654 
L 230.873757 209.2193 
L 230.907751 208.979502 
L 230.941746 208.732706 
L 230.968989 208.529451 
L 230.996232 208.320918 
L 231.023475 208.106683 
L 231.050718 207.886259 
L 231.085683 207.59337 
L 231.103166 207.442324 
L 231.120649 207.287944 
L 231.139542 207.117104 
L 231.158435 206.941781 
L 231.177327 206.761608 
L 231.19622 206.576162 
L 231.215113 206.384957 
L 231.234006 206.187427 
L 231.252898 205.982907 
L 231.271791 205.770605 
L 231.290684 205.549567 
L 231.309576 205.318625 
L 231.328469 205.076328 
L 231.337916 204.950363 
L 231.347362 204.820828 
L 231.356808 204.687402 
L 231.366255 204.549713 
L 231.375701 204.407329 
L 231.385147 204.259735 
L 231.394594 204.106316 
L 231.40404 203.946326 
L 231.413486 203.778846 
L 231.422933 203.602715 
L 231.42823 203.499617 
L 231.433528 203.393014 
L 231.438825 203.282524 
L 231.444123 203.167689 
L 231.44942 203.047952 
L 231.454718 202.92263 
L 231.460015 202.790861 
L 231.465313 202.651534 
L 231.47061 202.503182 
L 231.475908 202.343787 
L 231.478556 202.25909 
L 231.481205 202.170444 
L 231.483854 202.07724 
L 231.486502 201.978695 
L 231.489151 201.873769 
L 231.4918 201.761037 
L 231.494449 201.638443 
L 231.497097 201.502837 
L 231.499746 201.348912 
L 231.502395 201.166322 
L 231.505044 200.92836 
z
" clip-path="url(#pb2886c38d8)" style="fill: #808080; opacity: 0.5"/>
   </g>
   <g id="matplotlib.axis_1"/>
   <g id="matplotlib.axis_2"/>
   <g id="line2d_1">
    <path d="M 138.046154 138.046154 
L 138.185652 142.213179 
L 138.54504 145.91508 
L 139.103229 149.474643 
L 139.904414 153.14962 
L 140.947751 156.838821 
L 142.180652 160.364936 
L 143.657294 163.887002 
L 145.344508 167.307411 
L 147.244644 170.629297 
L 149.170881 173.57857 
L 151.429549 176.629332 
L 153.804628 179.463769 
L 156.382979 182.191498 
L 159.11856 184.756963 
L 161.936862 187.101061 
L 164.964486 189.328136 
L 168.133502 191.376239 
L 169.2 192.006198 
L 169.2 192.006198 
" clip-path="url(#pb2886c38d8)" style="fill: none; stroke: #ff0000; stroke-linecap: square"/>
   </g>
   <g id="line2d_2">
    <path d="M 106.892308 200.353846 
L 107.047376 204.747008 
L 107.408658 208.358757 
L 107.954601 211.810267 
L 108.755698 215.47783 
L 109.716246 218.899236 
L 110.92999 222.418626 
L 112.273241 225.683526 
L 113.798237 228.865128 
L 115.556976 232.050446 
L 117.627225 235.318077 
L 119.767836 238.284173 
L 122.158155 241.211077 
L 124.714792 243.980842 
L 127.498765 246.649154 
L 130.292131 249.020326 
L 133.362539 251.323689 
L 136.6547 253.486246 
L 139.810082 255.294553 
L 143.277476 257.013102 
L 146.690311 258.453437 
L 150.263938 259.714389 
L 153.745977 260.714609 
L 157.622538 261.57648 
L 161.36652 262.167155 
L 165.207578 262.533498 
L 168.879207 262.660713 
L 169.2 262.661538 
L 169.2 262.661538 
" clip-path="url(#pb2886c38d8)" style="fill: none; stroke: #228b22; stroke-linecap: square"/>
   </g>
   <g id="line2d_3">
    <path d="M 169.2 262.661538 
L 172.884515 262.552503 
L 176.684452 262.210386 
L 180.454447 261.636682 
L 184.01288 260.875141 
L 187.724536 259.844098 
L 191.286737 258.615537 
L 194.717472 257.196675 
L 197.95727 255.628324 
L 200.353846 254.313891 
L 200.353846 254.313891 
" clip-path="url(#pb2886c38d8)" style="fill: none; stroke: #228b22; stroke-linecap: square"/>
   </g>
   <g id="line2d_4">
    <path d="M 200.353846 254.313891 
L 203.505339 252.367231 
L 206.417058 250.325229 
L 209.377395 247.977637 
L 212.210017 245.435849 
L 214.765895 242.850878 
L 217.211403 240.067241 
L 219.43006 237.221035 
L 221.567925 234.115496 
L 223.514107 230.886228 
L 225.238588 227.592149 
L 226.744568 224.246758 
L 228.123108 220.610102 
L 229.185868 217.204488 
L 230.094438 213.549146 
L 230.771772 209.901905 
L 231.234006 206.187427 
L 231.47061 202.503182 
L 231.507692 200.353846 
L 231.507692 200.353846 
" clip-path="url(#pb2886c38d8)" style="fill: none; stroke: #228b22; stroke-linecap: square"/>
   </g>
   <g id="text_1">
    <!-- $\Omega$ -->
    <g transform="translate(16.011538 22.420913)scale(0.1 -0.1)">
     <defs>
      <path id="Cmr10-ad" d="M 494 0 
L 281 1063 
L 469 1063 
Q 503 878 531 736 
Q 559 594 604 536 
Q 650 478 750 459 
Q 850 441 1081 441 
L 1472 441 
Q 1378 803 1004 1386 
Q 631 1969 495 2233 
Q 359 2497 359 2913 
Q 359 3397 646 3761 
Q 934 4125 1389 4319 
Q 1844 4513 2309 4513 
Q 2772 4513 3226 4319 
Q 3681 4125 3968 3758 
Q 4256 3391 4256 2913 
Q 4256 2588 4137 2300 
Q 4019 2013 3834 1725 
Q 3650 1438 3436 1084 
Q 3222 731 3144 441 
L 3531 441 
Q 3766 441 3869 459 
Q 3972 478 4015 536 
Q 4059 594 4086 736 
Q 4113 878 4147 1063 
L 4331 1063 
L 4122 0 
L 2988 0 
Q 2925 0 2925 84 
Q 2925 409 3004 721 
Q 3084 1034 3240 1478 
Q 3397 1922 3484 2261 
Q 3572 2600 3572 2913 
Q 3572 3297 3422 3625 
Q 3272 3953 2984 4150 
Q 2697 4347 2309 4347 
Q 1725 4347 1384 3930 
Q 1044 3513 1044 2913 
Q 1047 2584 1122 2293 
Q 1197 2003 1364 1518 
Q 1531 1034 1611 721 
Q 1691 409 1691 84 
Q 1691 0 1625 0 
L 494 0 
z
" transform="scale(0.015625)"/>
     </defs>
     <use xlink:href="#Cmr10-ad" transform="translate(0 0.484375)"/>
    </g>
   </g>
   <g id="text_2">
    <!-- $A$ -->
    <g style="fill: #0000ff" transform="translate(103.142308 78.497837)scale(0.1 -0.1)">
     <defs>
      <path id="Cmmi10-41" d="M 288 0 
Q 225 0 225 84 
Q 250 225 306 225 
Q 566 225 755 328 
Q 944 431 1081 647 
Q 1094 659 1094 659 
L 3378 4513 
Q 3428 4581 3500 4581 
L 3584 4581 
Q 3603 4581 3622 4573 
Q 3641 4566 3655 4548 
Q 3669 4531 3669 4513 
L 4056 378 
Q 4056 350 4084 294 
Q 4147 225 4563 225 
Q 4628 225 4628 141 
Q 4606 56 4592 28 
Q 4578 0 4519 0 
L 2919 0 
Q 2859 0 2859 84 
Q 2894 225 2944 225 
Q 3450 225 3481 397 
L 3384 1453 
L 1806 1453 
L 1294 594 
Q 1247 525 1247 434 
Q 1247 322 1355 273 
Q 1463 225 1594 225 
Q 1656 225 1656 141 
Q 1634 50 1621 25 
Q 1609 0 1550 0 
L 288 0 
z
M 1931 1678 
L 3359 1678 
L 3169 3750 
L 1931 1678 
z
" transform="scale(0.015625)"/>
     </defs>
     <use xlink:href="#Cmmi10-41" transform="translate(0 0.421875)"/>
    </g>
   </g>
   <g id="text_3">
    <!-- $B$ -->
    <g style="fill: #ff0000" transform="translate(227.707692 78.497837)scale(0.1 -0.1)">
     <defs>
      <path id="Cmmi10-42" d="M 319 0 
Q 256 0 256 84 
Q 259 100 268 137 
Q 278 175 293 200 
Q 309 225 341 225 
Q 522 225 656 234 
Q 791 244 884 269 
Q 959 297 1006 441 
L 1881 3956 
Q 1894 4019 1894 4044 
Q 1894 4113 1819 4122 
Q 1697 4147 1356 4147 
Q 1294 4147 1294 4231 
Q 1297 4247 1306 4286 
Q 1316 4325 1333 4348 
Q 1350 4372 1375 4372 
L 3669 4372 
Q 3878 4372 4083 4320 
Q 4288 4269 4461 4156 
Q 4634 4044 4736 3876 
Q 4838 3709 4838 3488 
Q 4838 3247 4714 3040 
Q 4591 2834 4395 2681 
Q 4200 2528 3973 2429 
Q 3747 2331 3500 2284 
Q 3675 2284 3854 2215 
Q 4034 2147 4175 2028 
Q 4316 1909 4402 1743 
Q 4488 1578 4488 1388 
Q 4488 1003 4219 684 
Q 3950 366 3542 183 
Q 3134 0 2753 0 
L 319 0 
z
M 1497 275 
Q 1497 225 1716 225 
L 2631 225 
Q 2944 225 3231 398 
Q 3519 572 3692 859 
Q 3866 1147 3866 1459 
Q 3866 1650 3786 1820 
Q 3706 1991 3556 2089 
Q 3406 2188 3213 2188 
L 1966 2188 
L 1522 416 
Q 1497 328 1497 275 
z
M 2009 2356 
L 2981 2356 
Q 3288 2356 3577 2512 
Q 3866 2669 4048 2937 
Q 4231 3206 4231 3506 
Q 4231 3784 4057 3965 
Q 3884 4147 3609 4147 
L 2731 4147 
Q 2559 4147 2500 4115 
Q 2441 4084 2400 3928 
L 2009 2356 
z
" transform="scale(0.015625)"/>
     </defs>
     <use xlink:href="#Cmmi10-42" transform="translate(0 0.6875)"/>
    </g>
   </g>
   <g id="text_4">
    <!-- $C$ -->
    <g style="fill: #228b22" transform="translate(150.023077 271.651683)scale(0.1 -0.1)">
     <defs>
      <path id="Cmmi10-43" d="M 934 1381 
Q 934 997 1082 705 
Q 1231 413 1514 248 
Q 1797 84 2181 84 
Q 2584 84 2957 290 
Q 3331 497 3595 842 
Q 3859 1188 3956 1575 
Q 3969 1613 4006 1613 
L 4084 1613 
Q 4109 1613 4125 1595 
Q 4141 1578 4141 1556 
Q 4141 1550 4134 1538 
Q 4025 1094 3711 705 
Q 3397 316 2959 87 
Q 2522 -141 2059 -141 
Q 1559 -141 1162 84 
Q 766 309 545 709 
Q 325 1109 325 1613 
Q 325 2150 565 2676 
Q 806 3203 1212 3614 
Q 1619 4025 2139 4269 
Q 2659 4513 3194 4513 
Q 3406 4513 3600 4448 
Q 3794 4384 3959 4253 
Q 4125 4122 4231 3950 
L 4738 4500 
Q 4738 4513 4769 4513 
L 4806 4513 
Q 4831 4513 4847 4491 
Q 4863 4469 4863 4447 
L 4428 2719 
Q 4428 2675 4378 2675 
L 4263 2675 
Q 4213 2675 4213 2747 
Q 4238 2888 4238 3084 
Q 4238 3397 4131 3673 
Q 4025 3950 3801 4119 
Q 3578 4288 3256 4288 
Q 2734 4288 2300 4025 
Q 1866 3763 1564 3336 
Q 1263 2909 1098 2389 
Q 934 1869 934 1381 
z
" transform="scale(0.015625)"/>
     </defs>
     <use xlink:href="#Cmmi10-43" transform="translate(0 0.484375)"/>
    </g>
   </g>
   <g id="patch_8">
    <path d="M 138.046154 200.353846 
C 154.570347 200.353846 170.419977 193.788715 182.104346 182.104346 
C 193.788715 170.419977 200.353846 154.570347 200.353846 138.046154 
C 200.353846 121.521961 193.788715 105.672331 182.104346 93.987962 
C 170.419977 82.303593 154.570347 75.738462 138.046154 75.738462 
C 121.521961 75.738462 105.672331 82.303593 93.987962 93.987962 
C 82.303593 105.672331 75.738462 121.521961 75.738462 138.046154 
C 75.738462 154.570347 82.303593 170.419977 93.987962 182.104346 
C 105.672331 193.788715 121.521961 200.353846 138.046154 200.353846 
L 138.046154 200.353846 
z
" clip-path="url(#pb2886c38d8)" style="fill: none; stroke: #0000ff; stroke-linejoin: miter"/>
   </g>
   <g id="patch_9">
    <path d="M 200.353846 200.353846 
C 216.878039 200.353846 232.727669 193.788715 244.412038 182.104346 
C 256.096407 170.419977 262.661538 154.570347 262.661538 138.046154 
C 262.661538 121.521961 256.096407 105.672331 244.412038 93.987962 
C 232.727669 82.303593 216.878039 75.738462 200.353846 75.738462 
C 183.829653 75.738462 167.980023 82.303593 156.295654 93.987962 
C 144.611285 105.672331 138.046154 121.521961 138.046154 138.046154 
C 138.046154 154.570347 144.611285 170.419977 156.295654 182.104346 
C 167.980023 193.788715 183.829653 200.353846 200.353846 200.353846 
L 200.353846 200.353846 
z
" clip-path="url(#pb2886c38d8)" style="fill: none; stroke: #ff0000; stroke-linejoin: miter"/>
   </g>
   <g id="patch_10">
    <path d="M 169.2 262.661538 
C 185.724193 262.661538 201.573823 256.096407 213.258192 244.412038 
C 224.942561 232.727669 231.507692 216.878039 231.507692 200.353846 
C 231.507692 183.829653 224.942561 167.980023 213.258192 156.295654 
C 201.573823 144.611285 185.724193 138.046154 169.2 138.046154 
C 152.675807 138.046154 136.826177 144.611285 125.141808 156.295654 
C 113.457439 167.980023 106.892308 183.829653 106.892308 200.353846 
C 106.892308 216.878039 113.457439 232.727669 125.141808 244.412038 
C 136.826177 256.096407 152.675807 262.661538 169.2 262.661538 
L 169.2 262.661538 
z
" clip-path="url(#pb2886c38d8)" style="fill: none; stroke: #228b22; stroke-linejoin: miter"/>
   </g>
  </g>
 </g>
 <defs>
  <clipPath id="pb2886c38d8">
   <rect x="7.2" y="7.2" width="324" height="324"/>
  </clipPath>
 </defs>
</svg>
