<?xml version="1.0" encoding="utf-8" standalone="no"?>
<!DOCTYPE svg PUBLIC "-//W3C//DTD SVG 1.1//EN"
  "http://www.w3.org/Graphics/SVG/1.1/DTD/svg11.dtd">
<svg xmlns:xlink="http://www.w3.org/1999/xlink" width="338.4pt" height="338.4pt" viewBox="0 0 338.4 338.4" xmlns="http://www.w3.org/2000/svg" version="1.1">
 <metadata>
  <rdf:RDF xmlns:dc="http://purl.org/dc/elements/1.1/" xmlns:cc="http://creativecommons.org/ns#" xmlns:rdf="http://www.w3.org/1999/02/22-rdf-syntax-ns#">
   <cc:Work>
    <dc:type rdf:resource="http://purl.org/dc/dcmitype/StillImage"/>
    <dc:date>2022-08-29T16:22:38.213356</dc:date>
    <dc:format>image/svg+xml</dc:format>
    <dc:creator>
     <cc:Agent>
      <dc:title>Matplotlib v3.5.2, https://matplotlib.org/</dc:title>
     </cc:Agent>
    </dc:creator>
   </cc:Work>
  </rdf:RDF>
 </metadata>
 <defs>
  <style type="text/css">*{stroke-linejoin: round; stroke-linecap: butt}</style>
 </defs>
 <g id="figure_1">
  <g id="patch_1">
   <path d="M -0 338.4 
L 338.4 338.4 
L 338.4 0 
L -0 0 
z
" style="fill: #ffffff"/>
  </g>
  <g id="axes_1">
   <g id="patch_2">
    <path d="M 7.2 331.2 
L 331.2 331.2 
L 331.2 7.2 
L 7.2 7.2 
z
" style="fill: #ffffff"/>
   </g>
   <g id="patch_3">
    <path d="M 13.430769 324.969231 
L 13.430769 13.430769 
L 324.969231 13.430769 
L 324.969231 324.969231 
L 13.430769 324.969231 
z
" clip-path="url(#pef2408b880)" style="fill: none; stroke: #000000; stroke-linejoin: miter"/>
   </g>
   <g id="patch_4">
    <path d="M 169.2 138.046154 
L 168.996965 138.046485 
L 168.903978 138.046857 
L 168.799563 138.047441 
L 168.624137 138.048815 
L 168.43858 138.050806 
L 168.226698 138.053756 
L 168.040579 138.056942 
L 168.019098 138.057346 
L 167.837156 138.06106 
L 167.636747 138.065767 
L 167.554301 138.067891 
L 167.274334 138.075918 
L 167.192647 138.078497 
L 167.046051 138.083396 
L 166.88314 138.089244 
L 166.692974 138.096611 
L 166.581634 138.101194 
L 166.367397 138.110574 
L 166.242671 138.116376 
L 166.142686 138.121207 
L 165.864045 138.135521 
L 165.80733 138.138588 
L 165.522143 138.154796 
L 165.463443 138.158294 
L 165.343192 138.165635 
L 165.112273 138.180387 
L 164.963328 138.190359 
L 164.824671 138.199964 
L 164.664724 138.211431 
L 164.511328 138.222816 
L 164.41286 138.230326 
L 164.257044 138.242529 
L 164.012562 138.26247 
L 163.907091 138.271372 
L 163.670379 138.292008 
L 163.604678 138.297896 
L 163.475095 138.309717 
L 163.298948 138.326222 
L 163.090112 138.346445 
L 162.890239 138.366465 
L 162.71456 138.384599 
L 162.680533 138.38817 
L 162.394613 138.418919 
L 162.298338 138.429573 
L 162.182122 138.442636 
L 161.921421 138.472744 
L 161.864739 138.479437 
L 161.723517 138.496343 
L 161.566765 138.51549 
L 161.448882 138.530156 
L 161.206002 138.561092 
L 161.027089 138.584501 
L 160.946745 138.595184 
L 160.759355 138.620516 
L 160.525745 138.652908 
L 160.406968 138.669723 
L 160.23765 138.694096 
L 160.077864 138.717533 
L 159.897718 138.744463 
L 159.864368 138.749508 
L 159.654666 138.781652 
L 159.534165 138.800453 
L 159.308805 138.836265 
L 159.193925 138.854846 
L 158.990008 138.888371 
L 158.905287 138.902504 
L 158.769535 138.925401 
L 158.48194 138.974927 
L 158.350933 138.997948 
L 158.236202 139.018345 
L 158.047938 139.052296 
L 157.89277 139.080727 
L 157.821213 139.093976 
L 157.539975 139.146883 
L 157.466157 139.160992 
L 157.294031 139.194248 
L 157.188146 139.214956 
L 157.02433 139.247369 
L 156.772516 139.298083 
L 156.737022 139.305319 
L 156.527705 139.348425 
L 156.313105 139.393396 
L 156.177492 139.422222 
L 156.08275 139.442548 
L 155.956661 139.469838 
L 155.802601 139.503553 
L 155.635343 139.540619 
L 155.378235 139.598539 
L 155.200434 139.639262 
L 155.102161 139.662006 
L 154.94003 139.699895 
L 154.81889 139.728503 
L 154.604217 139.779828 
L 154.493022 139.80673 
L 154.284076 139.857865 
L 154.243967 139.867768 
L 153.998914 139.928889 
L 153.930476 139.946147 
L 153.770659 139.986769 
L 153.495024 140.057891 
L 153.399534 140.082843 
L 153.163432 140.145234 
L 153.010533 140.186166 
L 152.897947 140.216573 
L 152.751328 140.256511 
L 152.610064 140.295353 
L 152.423611 140.347169 
L 152.305352 140.380357 
L 152.18017 140.415762 
L 152.016852 140.462378 
L 151.867879 140.50532 
L 151.694262 140.555872 
L 151.570821 140.592148 
L 151.426427 140.634933 
L 151.157186 140.715726 
L 151.101958 140.732462 
L 150.916441 140.789092 
L 150.66779 140.865984 
L 150.539459 140.906115 
L 150.437464 140.938227 
L 150.268681 140.99179 
L 150.094686 141.047561 
L 149.917398 141.104966 
L 149.857051 141.12464 
L 149.587863 141.213229 
L 149.452745 141.258208 
L 149.3641 141.287903 
L 149.135372 141.36521 
L 148.937553 141.432867 
L 148.878756 141.45312 
L 148.668814 141.525971 
L 148.57123 141.560119 
L 148.455885 141.600717 
L 148.184838 141.69712 
L 148.13485 141.715054 
L 147.834059 141.823981 
L 147.707305 141.870408 
L 147.644974 141.893352 
L 147.402361 141.983379 
L 147.292127 142.024663 
L 147.130613 142.085581 
L 147.010262 142.131307 
L 146.77429 142.221789 
L 146.623939 142.280014 
L 146.460887 142.343664 
L 146.393298 142.370203 
L 146.22634 142.43615 
L 146.019005 142.518822 
L 145.943526 142.549132 
L 145.775219 142.617132 
L 145.577728 142.697651 
L 145.372555 142.78214 
L 145.244795 142.835182 
L 145.161639 142.869886 
L 144.96545 142.952321 
L 144.720314 143.056434 
L 144.562109 143.124283 
L 144.400869 143.193969 
L 144.233035 143.267077 
L 144.186383 143.287503 
L 143.980737 143.378086 
L 143.883688 143.421142 
L 143.62306 143.537751 
L 143.594838 143.550464 
L 143.346676 143.662981 
L 143.288564 143.689519 
L 143.056701 143.79612 
L 142.888306 143.874263 
L 142.75614 143.936023 
L 142.593163 144.0127 
L 142.381428 144.113178 
L 142.276894 144.163145 
L 142.113356 144.241796 
L 141.96014 144.316015 
L 141.819472 144.384612 
L 141.649373 144.468146 
L 141.437557 144.573067 
L 141.267315 144.658123 
L 141.254982 144.664309 
L 141.041481 144.771958 
L 140.839451 144.874771 
L 140.7787 144.905869 
L 140.495731 145.051826 
L 140.468071 145.066192 
L 140.165876 145.224288 
L 140.151829 145.231688 
L 139.893451 145.368624 
L 139.703946 145.470048 
L 139.581752 145.535894 
L 139.386658 145.641753 
L 139.373929 145.648691 
L 139.197689 145.745148 
L 138.994611 145.857213 
L 138.892856 145.913736 
L 138.74685 145.995276 
L 138.478545 146.14646 
L 138.417765 146.180952 
L 138.129622 146.345697 
L 138.046154 146.393802 
L 138.046154 138.046154 
L 138.052186 138.913103 
L 138.058217 139.272176 
L 138.064249 139.547682 
L 138.07028 139.779927 
L 138.076312 139.984524 
L 138.082344 140.169481 
L 138.088375 140.339554 
L 138.094407 140.497842 
L 138.100439 140.646499 
L 138.10647 140.787092 
L 138.112502 140.920805 
L 138.118534 141.048556 
L 138.124565 141.171077 
L 138.130597 141.288962 
L 138.136629 141.402697 
L 138.14266 141.512693 
L 138.154724 141.722796 
L 138.166787 141.921487 
L 138.17885 142.110441 
L 138.190914 142.290957 
L 138.202977 142.464071 
L 138.21504 142.630621 
L 138.227104 142.791299 
L 138.239167 142.946681 
L 138.250297 143.085769 
L 138.261427 143.221096 
L 138.272557 143.35295 
L 138.283687 143.481583 
L 138.305947 143.730058 
L 138.328207 143.968033 
L 138.350467 144.196727 
L 138.372728 144.417139 
L 138.394988 144.630102 
L 138.417248 144.836315 
L 138.435515 145.000919 
L 138.453782 145.161669 
L 138.487041 145.445274 
L 138.520301 145.718259 
L 138.55356 145.98172 
L 138.58682 146.236575 
L 138.62008 146.483605 
L 138.653339 146.723478 
L 138.686599 146.956772 
L 138.719858 147.183991 
L 138.746383 147.361145 
L 138.772908 147.534918 
L 138.825959 147.873035 
L 138.869198 148.140042 
L 138.912438 148.399986 
L 138.955677 148.653385 
L 138.998917 148.900698 
L 139.047344 149.170962 
L 139.095772 149.434608 
L 139.158079 149.764798 
L 139.220386 150.085614 
L 139.272701 150.348276 
L 139.325015 150.605227 
L 139.37733 150.856812 
L 139.429644 151.103341 
L 139.504363 151.447234 
L 139.579083 151.782115 
L 139.627353 151.99397 
L 139.675624 152.20249 
L 139.772165 152.610096 
L 139.850701 152.932993 
L 139.904167 153.148631 
L 139.957633 153.361046 
L 140.064564 153.77673 
L 140.163836 154.152403 
L 140.263109 154.518913 
L 140.3806 154.941664 
L 140.466172 155.242519 
L 140.551743 155.537781 
L 140.637159 155.827207 
L 140.722575 156.111592 
L 140.797709 156.357763 
L 140.872842 156.600363 
L 140.968733 156.905021 
L 141.064624 157.204355 
L 141.144719 157.450477 
L 141.224813 157.693189 
L 141.26822 157.823346 
L 141.349545 158.06467 
L 141.43087 158.302792 
L 141.536524 158.607553 
L 141.642178 158.907328 
L 141.753289 159.217437 
L 141.8644 159.522494 
L 142.018496 159.937599 
L 142.147379 160.278016 
L 142.310574 160.700669 
L 142.460909 161.082134 
L 142.60531 161.441774 
L 142.671461 161.604401 
L 142.792112 161.897681 
L 142.912764 162.186795 
L 143.012366 162.422438 
L 143.218999 162.902899 
L 143.381347 163.272784 
L 143.510025 163.561413 
L 143.633909 163.835633 
L 143.757794 164.10638 
L 143.861937 164.331372 
L 143.941173 164.500999 
L 144.073725 164.781832 
L 144.259137 165.168693 
L 144.446661 165.553155 
L 144.558111 165.778527 
L 144.747631 166.156604 
L 144.874517 166.406207 
L 145.13917 166.918078 
L 145.321574 167.264257 
L 145.332705 167.285213 
L 145.582732 167.750928 
L 145.7816 168.114717 
L 145.879613 168.291922 
L 145.955409 168.428032 
L 146.217504 168.892628 
L 146.2817 169.005022 
L 146.525633 169.42723 
L 146.580242 169.520715 
L 146.7667 169.837132 
L 146.915057 170.085885 
L 147.140252 170.458527 
L 147.246009 170.631521 
L 147.41517 170.905628 
L 147.651508 171.283362 
L 147.779912 171.486099 
L 147.884224 171.649535 
L 147.991657 171.816698 
L 148.262606 172.233158 
L 148.329495 172.334861 
L 148.538036 172.649194 
L 148.741739 172.952298 
L 148.794359 173.029976 
L 148.929409 173.228191 
L 149.224268 173.655349 
L 149.24067 173.678888 
L 149.410513 173.921289 
L 149.66094 174.274289 
L 149.749071 174.397292 
L 149.922436 174.637429 
L 150.02948 174.784508 
L 150.214897 175.037157 
L 150.477118 175.389969 
L 150.647281 175.616167 
L 150.727073 175.721502 
L 150.938888 175.998893 
L 151.081567 176.183944 
L 151.261943 176.41585 
L 151.403393 176.596142 
L 151.512436 176.734204 
L 151.70728 176.978918 
L 151.810063 177.106999 
L 151.99356 177.333955 
L 152.108674 177.475227 
L 152.254413 177.652884 
L 152.459724 177.90091 
L 152.678537 178.162402 
L 152.783296 178.286572 
L 152.843411 178.35753 
L 153.001471 178.54308 
L 153.298828 178.888213 
L 153.410831 179.016898 
L 153.581946 179.212133 
L 153.750175 179.402488 
L 153.898371 179.568887 
L 154.034415 179.720592 
L 154.223043 179.929295 
L 154.402489 180.126093 
L 154.53204 180.267128 
L 154.655427 180.400646 
L 154.750971 180.503501 
L 155.020764 180.791448 
L 155.185051 180.965013 
L 155.303387 181.08921 
L 155.468379 181.261237 
L 155.572533 181.369156 
L 155.800018 181.603069 
L 155.925192 181.730742 
L 156.069277 181.876799 
L 156.241519 182.050143 
L 156.418842 182.22719 
L 156.450629 182.258777 
L 156.681082 182.486431 
L 156.910387 182.710618 
L 157.060112 182.855763 
L 157.10176 182.895965 
L 157.342642 183.127024 
L 157.401431 183.183041 
L 157.634832 183.404002 
L 157.751977 183.514046 
L 158.004476 183.74932 
L 158.13 183.865313 
L 158.220367 183.948425 
L 158.469682 184.176028 
L 158.518252 184.220082 
L 158.644573 184.33422 
L 158.79938 184.473245 
L 159.096302 184.737305 
L 159.230008 184.855111 
L 159.393374 184.998132 
L 159.544627 185.129656 
L 159.701795 185.265421 
L 159.866375 185.406614 
L 159.92973 185.460702 
L 160.090978 185.597705 
L 160.298307 185.772481 
L 160.387658 185.847329 
L 160.603364 186.026855 
L 160.692699 186.100726 
L 160.831575 186.215009 
L 161.052354 186.395314 
L 161.1778 186.497014 
L 161.325059 186.615715 
L 161.500733 186.75636 
L 161.73446 186.941875 
L 161.840293 187.02528 
L 161.926726 187.093121 
L 162.164896 187.278791 
L 162.359453 187.429092 
L 162.402809 187.462419 
L 162.563072 187.585087 
L 162.780474 187.75018 
L 162.893314 187.83528 
L 163.116265 188.002245 
L 163.181946 188.051137 
L 163.460892 188.257293 
L 163.53389 188.310847 
L 163.668849 188.409429 
L 163.940373 188.606094 
L 164.049304 188.684368 
L 164.112449 188.72958 
L 164.372421 188.91447 
L 164.493602 188.99997 
L 164.672301 189.125267 
L 164.778311 189.199158 
L 165.042834 189.382115 
L 165.154421 189.458691 
L 165.356971 189.596782 
L 165.480623 189.680511 
L 165.539399 189.720159 
L 165.766085 189.872164 
L 165.932521 189.982855 
L 166.119143 190.106058 
L 166.197667 190.157611 
L 166.36415 190.266352 
L 166.49277 190.349845 
L 166.689282 190.476542 
L 166.874052 190.594721 
L 166.933345 190.632451 
L 167.158716 190.775006 
L 167.315678 190.873495 
L 167.403611 190.928386 
L 167.631335 191.069599 
L 167.802269 191.174709 
L 167.92969 191.252569 
L 168.042628 191.321229 
L 168.28024 191.464618 
L 168.367633 191.516993 
L 168.552158 191.626945 
L 168.670195 191.696827 
L 168.899341 191.831492 
L 169.011854 191.897134 
L 169.2 192.006198 
z
" clip-path="url(#pef2408b880)" style="fill: #808080; opacity: 0.5"/>
   </g>
   <g id="patch_5">
    <path d="M 169.2 192.006198 
L 168.832751 192.21657 
L 168.676848 192.304877 
L 168.183189 192.580617 
L 167.8199 192.779805 
L 167.598275 192.899783 
L 167.306476 193.05599 
L 167.089545 193.17083 
L 166.786751 193.329303 
L 166.232022 193.614178 
L 166.196152 193.632358 
L 165.899828 193.781433 
L 165.451457 194.003261 
L 165.112112 194.168186 
L 164.851359 194.293194 
L 164.382445 194.514271 
L 164.130443 194.63112 
L 163.829671 194.768802 
L 163.523288 194.907073 
L 163.188538 195.055882 
L 162.941558 195.164166 
L 162.752607 195.246151 
L 162.179379 195.490352 
L 162.01816 195.557817 
L 161.774057 195.658957 
L 161.242812 195.874897 
L 160.982226 195.978745 
L 160.668873 196.101826 
L 160.317132 196.237666 
L 160.167355 196.294767 
L 159.753494 196.450263 
L 159.434197 196.567946 
L 159.191213 196.656179 
L 158.998083 196.725496 
L 158.489993 196.904441 
L 158.336557 196.957512 
L 157.817264 197.133815 
L 157.675671 197.181005 
L 157.376568 197.279452 
L 156.854369 197.447328 
L 156.74581 197.481593 
L 156.258882 197.632604 
L 155.959223 197.723373 
L 155.798945 197.771248 
L 155.35157 197.902408 
L 155.104472 197.973296 
L 154.913278 198.02739 
L 154.397057 198.170163 
L 154.123317 198.243939 
L 153.995058 198.278047 
L 153.44925 198.419933 
L 153.371582 198.439695 
L 152.878176 198.56276 
L 152.664512 198.614728 
L 152.332465 198.693906 
L 151.917404 198.790182 
L 151.687914 198.842132 
L 151.217699 198.945734 
L 150.912992 199.01084 
L 150.769283 199.040994 
L 150.569227 199.082382 
L 150.010837 199.194293 
L 149.64947 199.263893 
L 149.485735 199.294701 
L 149.138705 199.3585 
L 148.708476 199.43478 
L 148.555357 199.461178 
L 148.299591 199.504396 
L 147.935094 199.564097 
L 147.737933 199.595467 
L 147.186838 199.679719 
L 146.99015 199.708569 
L 146.590886 199.765163 
L 146.486554 199.779517 
L 145.977368 199.846998 
L 145.644714 199.88878 
L 145.454767 199.911823 
L 145.230564 199.93826 
L 144.689613 199.99866 
L 144.329528 200.036215 
L 144.068285 200.062139 
L 143.837285 200.084137 
L 143.521506 200.112804 
L 143.296177 200.13227 
L 142.877529 200.16625 
L 142.657711 200.182955 
L 142.129028 200.219932 
L 141.993871 200.22866 
L 141.596218 200.252629 
L 141.394385 200.263819 
L 140.989691 200.284278 
L 140.695395 200.2975 
L 140.501048 200.305467 
L 140.193079 200.316847 
L 139.678991 200.332447 
L 139.388916 200.339376 
L 139.12807 200.344452 
L 138.882815 200.348229 
L 138.520577 200.35204 
L 138.176465 200.35371 
L 137.882497 200.353631 
L 137.637665 200.352507 
L 137.133781 200.347166 
L 137.104254 200.346726 
L 136.700372 200.339311 
L 136.172801 200.325678 
L 136.032347 200.321294 
L 135.846091 200.314992 
L 135.367374 200.296235 
L 134.966443 200.277688 
L 134.855864 200.272118 
L 134.566212 200.256591 
L 134.16977 200.233147 
L 133.75404 200.205838 
L 133.377015 200.178655 
L 133.153671 200.161467 
L 132.784486 200.131284 
L 132.704312 200.124437 
L 132.280228 200.086484 
L 131.791958 200.039166 
L 131.749775 200.034896 
L 131.30217 199.987797 
L 131.056097 199.960511 
L 130.548984 199.901153 
L 130.410196 199.884173 
L 130.062008 199.840182 
L 129.81175 199.807332 
L 129.527867 199.768818 
L 129.089941 199.706796 
L 128.74088 199.655085 
L 128.364232 199.597018 
L 128.204492 199.571679 
L 127.938162 199.528485 
L 127.518605 199.458036 
L 127.367733 199.431982 
L 126.993075 199.365629 
L 126.547242 199.28359 
L 126.253749 199.22775 
L 126.105106 199.198913 
L 125.800626 199.13867 
L 125.475739 199.07265 
L 125.150591 199.004771 
L 124.769137 198.922827 
L 124.370949 198.834617 
L 124.214169 198.799135 
L 123.696305 198.678904 
L 123.63152 198.663535 
L 123.30935 198.586018 
L 122.793463 198.458106 
L 122.686068 198.430889 
L 122.09822 198.278304 
L 121.846205 198.211012 
L 121.562978 198.134035 
L 121.317679 198.066206 
L 120.970193 197.968271 
L 120.778923 197.913434 
L 120.336028 197.783914 
L 120.01512 197.687837 
L 119.758056 197.609515 
L 119.367192 197.4881 
L 118.95764 197.357849 
L 118.765124 197.295546 
L 118.550399 197.225238 
L 118.105149 197.076696 
L 117.761693 196.959558 
L 117.689327 196.934592 
L 117.357941 196.818991 
L 116.868836 196.64453 
L 116.717656 196.589674 
L 116.365879 196.460315 
L 116.11209 196.365494 
L 115.576723 196.161326 
L 115.325991 196.063761 
L 114.940197 195.911197 
L 114.671461 195.803164 
L 114.268882 195.6386 
L 114.002534 195.527915 
L 113.80352 195.444266 
L 113.52231 195.32468 
L 113.100632 195.142296 
L 112.949663 195.076099 
L 112.426167 194.842851 
L 112.110168 194.699249 
L 112.047347 194.670447 
L 111.524673 194.42753 
L 111.428401 194.382144 
L 110.811199 194.08637 
L 110.626332 193.996149 
L 110.407198 193.888223 
L 109.971766 193.670584 
L 109.851029 193.609482 
L 109.263657 193.3075 
L 108.954345 193.145293 
L 108.7382 193.030628 
L 108.381604 192.839064 
L 108.08164 192.675601 
L 107.936142 192.595541 
L 107.420004 192.307443 
L 107.156873 192.158082 
L 106.892308 192.006198 
L 106.892308 200.353846 
L 106.903009 201.508587 
L 106.91371 201.986827 
L 106.924411 202.353745 
L 106.935113 202.663031 
L 106.945814 202.935483 
L 106.956515 203.181766 
L 106.967217 203.408217 
L 106.977918 203.618966 
L 106.988619 203.81688 
L 106.99932 204.004047 
L 107.010022 204.182045 
L 107.020723 204.352098 
L 107.042125 204.67208 
L 107.063528 204.969835 
L 107.08493 205.249421 
L 107.106333 205.513791 
L 107.127735 205.765177 
L 107.149138 206.00531 
L 107.170541 206.23557 
L 107.191943 206.457074 
L 107.213346 206.670744 
L 107.234748 206.877348 
L 107.271948 207.221516 
L 107.309148 207.549048 
L 107.346348 207.862121 
L 107.383547 208.162476 
L 107.413384 208.395155 
L 107.443221 208.62118 
L 107.502895 209.055329 
L 107.562569 209.468432 
L 107.622243 209.863232 
L 107.681917 210.241922 
L 107.741591 210.606287 
L 107.801265 210.957804 
L 107.860939 211.297711 
L 107.912336 211.581972 
L 107.963733 211.858982 
L 108.01513 212.129254 
L 108.066527 212.39324 
L 108.169321 212.903934 
L 108.272115 213.393834 
L 108.362233 213.808013 
L 108.44964 214.197339 
L 108.537047 214.575474 
L 108.624455 214.943288 
L 108.711862 215.301543 
L 108.809727 215.692147 
L 108.907593 216.072439 
L 109.005458 216.443149 
L 109.103324 216.804926 
L 109.211616 217.195528 
L 109.319907 217.576594 
L 109.452059 218.029595 
L 109.584211 218.470308 
L 109.716363 218.899611 
L 109.848514 219.318277 
L 109.946656 219.622725 
L 110.083987 220.040024 
L 110.221319 220.44772 
L 110.372133 220.885055 
L 110.522946 221.312183 
L 110.662457 221.698741 
L 110.801967 222.077526 
L 110.941477 222.448938 
L 111.080988 222.813342 
L 111.343335 223.480774 
L 111.581403 224.067677 
L 111.75648 224.488686 
L 112.008555 225.08009 
L 112.26063 225.655164 
L 112.456898 226.092317 
L 112.653166 226.520697 
L 112.722836 226.670733 
L 113.028953 227.317934 
L 113.33029 227.936886 
L 113.552514 228.382506 
L 113.774737 228.819417 
L 113.998035 229.250068 
L 114.221334 229.672693 
L 114.289508 229.800177 
L 114.661468 230.483517 
L 114.890464 230.894357 
L 115.257123 231.537408 
L 115.596744 232.117653 
L 115.950002 232.706377 
L 116.22683 233.157685 
L 116.657952 233.843871 
L 116.9536 234.303252 
L 117.328907 234.87396 
L 117.589515 235.262389 
L 117.823326 235.605596 
L 118.201177 236.150055 
L 118.569465 236.669097 
L 118.782374 236.964111 
L 118.980902 237.235966 
L 119.275155 237.633309 
L 119.579388 238.037309 
L 119.883621 238.434593 
L 120.071806 238.677065 
L 120.452405 239.160037 
L 120.634362 239.387515 
L 120.865526 239.673398 
L 121.398397 240.319523 
L 121.507449 240.449595 
L 121.834125 240.834982 
L 122.283722 241.355205 
L 122.586369 241.698954 
L 122.721702 241.851031 
L 123.028952 242.192619 
L 123.592042 242.805733 
L 123.735856 242.959716 
L 123.989656 243.228936 
L 124.495124 243.755719 
L 124.890574 244.159362 
L 125.119216 244.389434 
L 125.263213 244.533109 
L 125.80078 245.061297 
L 125.918426 245.175201 
L 126.316124 245.555856 
L 126.708725 245.92511 
L 126.824778 246.033044 
L 127.350783 246.515428 
L 127.607932 246.747255 
L 127.719929 246.847418 
L 128.096073 247.180289 
L 128.345734 247.398266 
L 128.703891 247.706921 
L 129.024171 247.978958 
L 129.304525 248.214055 
L 129.792081 248.6163 
L 129.950437 248.745171 
L 130.408842 249.113405 
L 130.667046 249.31771 
L 130.932918 249.525779 
L 131.188462 249.723589 
L 131.575135 250.018905 
L 131.981812 250.324388 
L 132.282564 250.546988 
L 132.639949 250.807897 
L 133.010007 251.073989 
L 133.18912 251.201315 
L 133.497699 251.418454 
L 133.927616 251.716356 
L 134.26545 251.946731 
L 134.424017 252.053745 
L 134.894718 252.367269 
L 134.958134 252.409039 
L 135.342237 252.659682 
L 135.699693 252.889338 
L 135.979817 253.066918 
L 136.345403 253.29555 
L 136.49023 253.385152 
L 137.018578 253.707427 
L 137.357611 253.910459 
L 137.463148 253.973066 
L 137.8461 254.197894 
L 138.082887 254.335082 
L 138.40882 254.521657 
L 138.824213 254.755685 
L 138.995458 254.850949 
L 139.596024 255.179507 
L 139.709211 255.240473 
L 140.083635 255.440014 
L 140.365423 255.588036 
L 140.828735 255.827442 
L 140.918834 255.87343 
L 141.37182 256.101859 
L 141.696649 256.262828 
L 141.841737 256.333967 
L 142.32015 256.565252 
L 142.650787 256.722169 
L 143.004961 256.887628 
L 143.349466 257.045983 
L 143.463939 257.098041 
L 143.900694 257.29411 
L 144.223425 257.436411 
L 144.616143 257.606641 
L 144.700964 257.642988 
L 145.145665 257.831124 
L 145.546037 257.997047 
L 145.828779 258.112262 
L 145.899568 258.140855 
L 146.390004 258.336194 
L 146.633139 258.431254 
L 147.014367 258.57795 
L 147.157456 258.632271 
L 147.483729 258.754634 
L 147.969161 258.932853 
L 148.16468 259.003346 
L 148.469873 259.111913 
L 148.900044 259.261913 
L 149.024671 259.304712 
L 149.353408 259.416197 
L 149.763069 259.552277 
L 150.185975 259.689462 
L 150.397309 259.75677 
L 150.586678 259.816379 
L 151.024977 259.951808 
L 151.321454 260.041417 
L 151.73591 260.163997 
L 151.857799 260.199452 
L 152.193476 260.295707 
L 152.589254 260.406587 
L 152.875661 260.485073 
L 153.110881 260.548437 
L 153.514316 260.654823 
L 153.971391 260.771873 
L 154.076649 260.798306 
L 154.558896 260.916926 
L 154.811527 260.977442 
L 155.257882 261.081647 
L 155.551992 261.148422 
L 155.868127 261.21853 
L 156.029073 261.253561 
L 156.225983 261.295814 
L 156.730715 261.401086 
L 157.04967 261.465367 
L 157.293655 261.513371 
L 157.57671 261.567796 
L 157.883524 261.625258 
L 158.216673 261.685853 
L 158.508608 261.737416 
L 158.948587 261.812426 
L 159.336714 261.875908 
L 159.455641 261.894857 
L 159.952442 261.971467 
L 160.095912 261.992828 
L 160.519432 262.053897 
L 160.804269 262.093301 
L 161.10156 262.133 
L 161.263617 262.154027 
L 161.704407 262.209037 
L 161.979762 262.241783 
L 162.391705 262.288454 
L 162.50915 262.301252 
L 162.958873 262.348175 
L 163.105713 262.362783 
L 163.437903 262.394532 
L 163.956956 262.440552 
L 164.270148 262.466205 
L 164.477792 262.482336 
L 164.961644 262.517219 
L 164.997504 262.519653 
L 165.559182 262.555076 
L 165.709389 262.563686 
L 166.150187 262.586853 
L 166.236068 262.591002 
L 166.768808 262.614089 
L 166.950622 262.620923 
L 167.26908 262.631612 
L 167.550236 262.639694 
L 167.8846 262.647652 
L 168.407498 262.656498 
L 168.617198 262.658813 
L 168.942574 262.661007 
L 169.2 262.661538 
z
" clip-path="url(#pef2408b880)" style="fill: #808080; opacity: 0.5"/>
   </g>
   <g id="patch_6">
    <path d="M 200.353846 146.393802 
L 200.251673 146.334941 
L 200.106881 146.251968 
L 199.95201 146.163788 
L 199.767113 146.059278 
L 199.557076 145.941564 
L 199.353247 145.828346 
L 199.297105 145.797336 
L 199.038955 145.655717 
L 198.982007 145.62469 
L 198.86092 145.558971 
L 198.579278 145.407449 
L 198.512509 145.371801 
L 198.242588 145.228747 
L 198.239514 145.227127 
L 198.071155 145.138767 
L 197.922523 145.061304 
L 197.761325 144.977865 
L 197.570003 144.879605 
L 197.416494 144.801366 
L 197.249687 144.716956 
L 197.015499 144.599505 
L 196.869368 144.52684 
L 196.768878 144.477147 
L 196.654638 144.420928 
L 196.379456 144.286693 
L 196.361725 144.278101 
L 196.076781 144.140973 
L 195.932964 144.072436 
L 195.843418 144.02999 
L 195.727241 143.97518 
L 195.431772 143.837099 
L 195.292871 143.772837 
L 195.148046 143.706274 
L 194.979209 143.62924 
L 194.947841 143.614995 
L 194.732309 143.51768 
L 194.632479 143.47294 
L 194.411424 143.374616 
L 194.187685 143.276143 
L 194.161276 143.264589 
L 193.939598 143.168176 
L 193.803871 143.109649 
L 193.636697 143.038086 
L 193.471923 142.968114 
L 193.302705 142.896835 
L 193.227425 142.865314 
L 193.050684 142.791763 
L 192.785259 142.682501 
L 192.72945 142.659709 
L 192.515025 142.572724 
L 192.395855 142.524781 
L 192.16219 142.431602 
L 191.999687 142.367444 
L 191.89043 142.324604 
L 191.785246 142.283585 
L 191.512045 142.178068 
L 191.428554 142.146115 
L 191.256952 142.080873 
L 191.041789 141.999885 
L 191.012801 141.989043 
L 190.870815 141.936175 
L 190.597325 141.835447 
L 190.531232 141.811323 
L 190.284873 141.722143 
L 190.159813 141.67732 
L 190.030199 141.631182 
L 189.901287 141.585613 
L 189.740781 141.52932 
L 189.588739 141.476449 
L 189.428298 141.421135 
L 189.309041 141.380335 
L 189.115779 141.314789 
L 188.868928 141.232092 
L 188.790497 141.206057 
L 188.652991 141.160691 
L 188.523482 141.118286 
L 188.291118 141.042989 
L 188.143658 140.995727 
L 188.051324 140.966338 
L 187.829138 140.896267 
L 187.749239 140.871292 
L 187.446621 140.777766 
L 187.310419 140.736221 
L 187.260167 140.720979 
L 187.007745 140.645114 
L 186.893606 140.611191 
L 186.686056 140.550114 
L 186.605645 140.526661 
L 186.428366 140.47537 
L 186.189898 140.407271 
L 186.068553 140.373012 
L 185.962796 140.34337 
L 185.815498 140.30242 
L 185.666608 140.261423 
L 185.546354 140.2286 
L 185.317049 140.166727 
L 185.097717 140.108422 
L 185.051852 140.096338 
L 184.815379 140.034625 
L 184.71283 140.00817 
L 184.503786 139.954818 
L 184.41197 139.931628 
L 184.289139 139.900836 
L 184.130889 139.861557 
L 183.943785 139.815682 
L 183.735067 139.765231 
L 183.657284 139.746623 
L 183.40447 139.686874 
L 183.312586 139.665433 
L 183.133766 139.624128 
L 182.943201 139.580719 
L 182.750647 139.537496 
L 182.614482 139.507316 
L 182.501442 139.482505 
L 182.355858 139.450875 
L 182.175073 139.412104 
L 181.994293 139.373894 
L 181.831941 139.340056 
L 181.657836 139.304269 
L 181.496402 139.271549 
L 181.37269 139.246775 
L 181.227296 139.217992 
L 181.049465 139.183276 
L 180.962785 139.166548 
L 180.862694 139.147392 
L 180.609776 139.09974 
L 180.505349 139.08038 
L 180.287891 139.040657 
L 180.129389 139.012205 
L 180.061742 139.00019 
L 179.886495 138.969423 
L 179.640228 138.927059 
L 179.570784 138.915297 
L 179.400455 138.886788 
L 179.157403 138.846947 
L 179.093138 138.836578 
L 178.84444 138.797098 
L 178.701549 138.77488 
L 178.643862 138.766006 
L 178.39641 138.728571 
L 178.335892 138.71957 
L 178.100474 138.685134 
L 177.894195 138.655714 
L 177.82813 138.646441 
L 177.684664 138.626551 
L 177.468392 138.597209 
L 177.331323 138.579012 
L 177.258797 138.569509 
L 177.030333 138.540139 
L 176.896843 138.523375 
L 176.785952 138.509672 
L 176.533033 138.479173 
L 176.346778 138.457383 
L 176.235377 138.444622 
L 176.012209 138.419669 
L 175.871945 138.404402 
L 175.772015 138.393721 
L 175.59938 138.375653 
L 175.530946 138.368625 
L 175.327495 138.348183 
L 175.133341 138.329303 
L 174.91599 138.308895 
L 174.798394 138.298174 
L 174.618571 138.282213 
L 174.546185 138.275937 
L 174.440889 138.266959 
L 174.172053 138.244852 
L 174.083295 138.23781 
L 173.820354 138.217698 
L 173.763274 138.21348 
L 173.614521 138.202736 
L 173.401884 138.187998 
L 173.216566 138.175749 
L 173.162926 138.172308 
L 172.92602 138.157662 
L 172.733648 138.146436 
L 172.697381 138.144387 
L 172.431559 138.130012 
L 172.365747 138.126629 
L 172.105913 138.113954 
L 172.012002 138.10964 
L 171.791618 138.100075 
L 171.726356 138.097392 
L 171.585602 138.09184 
L 171.417915 138.085641 
L 171.265167 138.080388 
L 171.090379 138.074837 
L 170.847919 138.06795 
L 170.800972 138.066725 
L 170.677328 138.06367 
L 170.386388 138.05745 
L 170.277304 138.055468 
L 170.117575 138.052911 
L 170.033468 138.051729 
L 169.860097 138.049651 
L 169.619905 138.047569 
L 169.55097 138.047142 
L 169.305904 138.046244 
L 169.2 138.046154 
L 169.2 262.661538 
L 169.356212 262.661343 
L 169.563144 262.66048 
L 169.70993 262.659452 
L 169.774237 262.658892 
L 169.973028 262.656743 
L 170.212529 262.653311 
L 170.3376 262.651153 
L 170.426909 262.649458 
L 170.54898 262.646934 
L 170.739917 262.642506 
L 170.861442 262.639383 
L 171.021862 262.634897 
L 171.297611 262.62622 
L 171.355081 262.624258 
L 171.584503 262.615895 
L 171.701151 262.611318 
L 171.813932 262.606684 
L 172.007471 262.598257 
L 172.154994 262.591427 
L 172.287027 262.585018 
L 172.495476 262.574328 
L 172.610305 262.56814 
L 172.731831 262.561359 
L 172.994031 262.545918 
L 173.189505 262.533685 
L 173.229925 262.531079 
L 173.368704 262.521928 
L 173.530975 262.510834 
L 173.802347 262.49133 
L 173.960209 262.479436 
L 174.028868 262.474137 
L 174.27002 262.45492 
L 174.438532 262.440933 
L 174.472172 262.438085 
L 174.628895 262.424577 
L 174.802731 262.409127 
L 175.062252 262.385149 
L 175.075417 262.383903 
L 175.321922 262.36006 
L 175.531185 262.339043 
L 175.553108 262.3368 
L 175.798931 262.311111 
L 175.917829 262.298332 
L 176.135441 262.274345 
L 176.293274 262.256463 
L 176.456385 262.237555 
L 176.60622 262.219801 
L 176.786727 262.197925 
L 176.880027 262.186408 
L 176.955872 262.17694 
L 177.20193 262.145574 
L 177.40253 262.119265 
L 177.424076 262.1164 
L 177.663442 262.084055 
L 177.871517 262.05517 
L 177.907301 262.05013 
L 178.167368 262.012867 
L 178.231015 262.003577 
L 178.434099 261.973485 
L 178.556701 261.954988 
L 178.817816 261.91476 
L 178.929552 261.897199 
L 179.06161 261.876177 
L 179.182927 261.856608 
L 179.366339 261.826556 
L 179.56027 261.79417 
L 179.74548 261.762651 
L 179.920479 261.732343 
L 180.051132 261.709379 
L 180.17324 261.687658 
L 180.287759 261.667059 
L 180.395757 261.647431 
L 180.565039 261.616269 
L 180.80703 261.570881 
L 181.010515 261.531949 
L 181.075887 261.519292 
L 181.267635 261.481751 
L 181.371884 261.461078 
L 181.636049 261.407865 
L 181.650067 261.405008 
L 181.826876 261.368685 
L 181.999147 261.33278 
L 182.134672 261.304177 
L 182.274678 261.274297 
L 182.451664 261.236043 
L 182.681792 261.185498 
L 182.873288 261.142741 
L 183.019222 261.109732 
L 183.140338 261.082056 
L 183.288688 261.047811 
L 183.400498 261.021748 
L 183.639756 260.965247 
L 183.764945 260.935286 
L 183.843831 260.916266 
L 184.095628 260.854828 
L 184.211147 260.826269 
L 184.333994 260.795642 
L 184.507643 260.751897 
L 184.656933 260.713864 
L 184.889913 260.653723 
L 185.019039 260.619977 
L 185.147261 260.586175 
L 185.341086 260.534523 
L 185.548524 260.478502 
L 185.677928 260.443166 
L 185.737054 260.426921 
L 185.982551 260.3588 
L 186.173703 260.305009 
L 186.24355 260.285189 
L 186.457461 260.223943 
L 186.60705 260.180622 
L 186.736222 260.142887 
L 186.880974 260.100241 
L 187.039264 260.053169 
L 187.155941 260.01818 
L 187.430883 259.934744 
L 187.52131 259.907 
L 187.717906 259.846162 
L 187.771984 259.829303 
L 188.024287 259.74993 
L 188.104176 259.724551 
L 188.257858 259.675399 
L 188.385365 259.634284 
L 188.66499 259.543057 
L 188.707113 259.529188 
L 188.942889 259.450943 
L 189.087743 259.402353 
L 189.269377 259.340867 
L 189.346389 259.314609 
L 189.509578 259.258596 
L 189.732153 259.181384 
L 189.841547 259.143089 
L 189.944195 259.106947 
L 190.223754 259.007493 
L 190.294825 258.98197 
L 190.455055 258.92407 
L 190.692708 258.83728 
L 190.802638 258.796763 
L 190.997215 258.724472 
L 191.155334 258.665181 
L 191.330061 258.599094 
L 191.421633 258.564219 
L 191.532102 258.521928 
L 191.767096 258.431163 
L 191.829239 258.406978 
L 192.046193 258.321941 
L 192.239874 258.245233 
L 192.387696 258.186184 
L 192.595158 258.10257 
L 192.709618 258.056068 
L 192.813341 258.013699 
L 193.044186 257.918621 
L 193.098165 257.896233 
L 193.263289 257.827376 
L 193.469335 257.740673 
L 193.569798 257.698083 
L 193.845451 257.580153 
L 193.955194 257.532766 
L 194.046603 257.493104 
L 194.299935 257.382276 
L 194.45907 257.31197 
L 194.592886 257.252439 
L 194.661262 257.221875 
L 194.803873 257.157809 
L 194.964838 257.084981 
L 195.235377 256.961334 
L 195.361912 256.902965 
L 195.460362 256.857314 
L 195.683724 256.752967 
L 195.84286 256.677967 
L 195.961486 256.6217 
L 196.188118 256.513351 
L 196.290323 256.464121 
L 196.485128 256.36965 
L 196.626962 256.300341 
L 196.822486 256.204064 
L 196.960089 256.135796 
L 197.010293 256.110784 
L 197.287819 255.971496 
L 197.378728 255.925492 
L 197.466685 255.880804 
L 197.731451 255.745225 
L 197.817851 255.700636 
L 198.01583 255.597818 
L 198.150339 255.527449 
L 198.325507 255.43518 
L 198.504017 255.340418 
L 198.600746 255.288759 
L 198.813913 255.174141 
L 198.969104 255.090022 
L 199.086893 255.025797 
L 199.288857 254.914906 
L 199.434528 254.834318 
L 199.616925 254.732695 
L 199.723816 254.672767 
L 199.930695 254.555995 
L 200.058546 254.483308 
L 200.225995 254.387504 
L 200.353846 254.313891 
z
" clip-path="url(#pef2408b880)" style="fill: #808080; opacity: 0.5"/>
   </g>
   <g id="patch_7">
    <path d="M 231.507692 200.353846 
L 231.504695 199.742668 
L 231.501697 199.489521 
L 231.4987 199.295281 
L 231.495702 199.131535 
L 231.492704 198.987277 
L 231.489707 198.856863 
L 231.486709 198.736938 
L 231.483711 198.62532 
L 231.480714 198.520489 
L 231.477716 198.421342 
L 231.474719 198.327043 
L 231.471721 198.236944 
L 231.468723 198.150531 
L 231.465726 198.067386 
L 231.459731 197.909576 
L 231.453735 197.761369 
L 231.44774 197.621201 
L 231.441745 197.487892 
L 231.43575 197.360527 
L 231.429755 197.238376 
L 231.423759 197.120848 
L 231.417764 197.007455 
L 231.411769 196.897792 
L 231.401786 196.722555 
L 231.391804 196.55542 
L 231.381821 196.39536 
L 231.371839 196.24155 
L 231.361856 196.093312 
L 231.351874 195.950084 
L 231.341891 195.811392 
L 231.331909 195.676832 
L 231.321926 195.546057 
L 231.311943 195.418767 
L 231.291978 195.173619 
L 231.272013 194.939633 
L 231.252048 194.71542 
L 231.228558 194.46262 
L 231.205067 194.22032 
L 231.181577 193.987322 
L 231.158087 193.762638 
L 231.134596 193.545447 
L 231.111106 193.335051 
L 231.087616 193.130858 
L 231.064125 192.932355 
L 231.045174 192.776052 
L 231.026223 192.622955 
L 230.988321 192.325649 
L 230.950418 192.03914 
L 230.912516 191.762346 
L 230.885983 191.57387 
L 230.85945 191.389433 
L 230.832917 191.208793 
L 230.806385 191.031727 
L 230.779852 190.858037 
L 230.753319 190.687541 
L 230.700253 190.355476 
L 230.651393 190.05944 
L 230.602533 189.771908 
L 230.553673 189.492204 
L 230.504814 189.219739 
L 230.464285 188.998851 
L 230.400942 188.662257 
L 230.337599 188.33542 
L 230.274255 188.017564 
L 230.210912 187.708012 
L 230.130094 187.32418 
L 230.083624 187.10874 
L 230.037154 186.896909 
L 229.990685 186.688519 
L 229.944215 186.483415 
L 229.850004 186.077096 
L 229.755792 185.68263 
L 229.664554 185.311033 
L 229.573316 184.948937 
L 229.477618 184.578634 
L 229.417753 184.351635 
L 229.357888 184.128032 
L 229.249509 183.731423 
L 229.141131 183.344749 
L 229.066266 183.0831 
L 228.991402 182.825675 
L 228.916088 182.570783 
L 228.840775 182.319808 
L 228.710876 181.895672 
L 228.590232 181.511105 
L 228.469587 181.134988 
L 228.404684 180.935969 
L 228.273335 180.539972 
L 228.141987 180.15259 
L 228.049262 179.884042 
L 227.943486 179.582439 
L 227.83771 179.285683 
L 227.73034 178.989206 
L 227.584744 178.594477 
L 227.479221 178.313409 
L 227.373698 178.036379 
L 227.328363 177.918564 
L 227.154027 177.471992 
L 227.007136 177.103394 
L 226.863901 176.750393 
L 226.74832 176.469974 
L 226.63274 176.193363 
L 226.575044 176.05667 
L 226.358036 175.550471 
L 226.234721 175.268211 
L 226.111406 174.989691 
L 226.035309 174.819631 
L 225.836486 174.381611 
L 225.781598 174.262252 
L 225.592736 173.856529 
L 225.434052 173.521405 
L 225.26408 173.168051 
L 225.117227 172.867264 
L 224.992572 172.615111 
L 224.830602 172.291689 
L 224.61725 171.872678 
L 224.387957 171.43088 
L 224.352876 171.364042 
L 224.172718 171.023849 
L 223.976913 170.659767 
L 223.838002 170.404936 
L 223.604902 169.983546 
L 223.477256 169.756002 
L 223.290941 169.427828 
L 223.260506 169.374657 
L 223.08518 169.070689 
L 222.971298 168.875345 
L 222.791122 168.569571 
L 222.512162 168.103856 
L 222.423536 167.9578 
L 222.210018 167.609587 
L 222.0477 167.348254 
L 221.931045 167.162199 
L 221.775343 166.916115 
L 221.620966 166.674612 
L 221.559481 166.579103 
L 221.380929 166.303894 
L 221.21394 166.049349 
L 221.030689 165.773097 
L 220.823055 165.463894 
L 220.718891 165.310268 
L 220.477363 164.957793 
L 220.34338 164.764477 
L 220.243132 164.620847 
L 220.009979 164.290089 
L 219.903172 164.14008 
L 219.740721 163.913703 
L 219.668757 163.8141 
L 219.404209 163.451463 
L 219.366631 163.400394 
L 219.098812 163.039544 
L 218.93627 162.823165 
L 218.814195 162.661935 
L 218.600375 162.382127 
L 218.552527 162.319958 
L 218.348456 162.056616 
L 218.234765 161.911157 
L 218.060922 161.690442 
L 217.873366 161.454592 
L 217.723443 161.267736 
L 217.549907 161.053273 
L 217.372792 160.836373 
L 217.283369 160.727616 
L 217.106917 160.514471 
L 216.97119 160.351823 
L 216.818002 160.169591 
L 216.634563 159.953217 
L 216.413346 159.694918 
L 216.270957 159.530158 
L 216.1989 159.447221 
L 216.045896 159.272091 
L 215.84202 159.040767 
L 215.738054 158.923687 
L 215.522542 158.682866 
L 215.395293 158.541845 
L 215.206622 158.334336 
L 215.031753 158.143671 
L 214.872563 157.971473 
L 214.746657 157.836196 
L 214.523131 157.598001 
L 214.379798 157.446569 
L 214.251582 157.311966 
L 214.146572 157.20232 
L 213.971951 157.021169 
L 213.792759 156.836788 
L 213.661544 156.702733 
L 213.438072 156.476272 
L 213.405543 156.4435 
L 213.18113 156.218728 
L 213.10018 156.138208 
L 212.825153 155.866831 
L 212.699278 155.743742 
L 212.520869 155.57047 
L 212.357073 155.412601 
L 212.188612 155.251432 
L 212.137159 155.202446 
L 211.981577 155.055003 
L 211.82301 154.905771 
L 211.653392 154.747289 
L 211.487783 154.593689 
L 211.248594 154.373804 
L 211.088353 154.227775 
L 210.942466 154.095711 
L 210.848 154.010642 
L 210.745428 153.918666 
L 210.538272 153.734153 
L 210.433814 153.641737 
L 210.237026 153.468763 
L 210.078424 153.330416 
L 209.9141 153.188068 
L 209.673522 152.981464 
L 209.553736 152.879385 
L 209.490144 152.825404 
L 209.273482 152.642584 
L 209.127109 152.520024 
L 208.920435 152.348268 
L 208.857434 152.296209 
L 208.601172 152.085884 
L 208.429851 151.94654 
L 208.322552 151.85978 
L 208.130013 151.705079 
L 208.022382 151.619144 
L 207.89767 151.520058 
L 207.68493 151.352227 
L 207.55222 151.248289 
L 207.471178 151.185101 
L 207.264086 151.024607 
L 207.153543 150.939505 
L 206.947969 150.782288 
L 206.739302 150.624083 
L 206.636981 150.547009 
L 206.446083 150.404093 
L 206.285558 150.284795 
L 206.161312 150.193005 
L 206.058146 150.117151 
L 205.910693 150.009298 
L 205.663893 149.830258 
L 205.513923 149.722358 
L 205.291586 149.563631 
L 205.25285 149.536128 
L 205.097686 149.426401 
L 204.920389 149.301889 
L 204.793647 149.213443 
L 204.581054 149.066133 
L 204.348234 148.906298 
L 204.306585 148.877869 
L 204.105774 148.741488 
L 203.908533 148.608641 
L 203.804332 148.538899 
L 203.70481 148.472572 
L 203.453377 148.306226 
L 203.372436 148.253048 
L 203.145649 148.105005 
L 203.048957 148.042312 
L 202.900181 147.946344 
L 202.723978 147.833455 
L 202.574671 147.738451 
L 202.382727 147.617187 
L 202.271024 147.547068 
L 202.060791 147.415987 
L 201.92659 147.332918 
L 201.698004 147.192504 
L 201.575262 147.117666 
L 201.394994 147.008454 
L 201.234299 146.911801 
L 201.212589 146.898794 
L 200.904969 146.715767 
L 200.867907 146.693878 
L 200.602565 146.538166 
L 200.564799 146.516146 
L 200.353846 146.393802 
L 200.353846 254.313891 
L 200.478303 254.241844 
L 200.682396 254.122864 
L 200.793184 254.057843 
L 200.997297 253.937243 
L 201.176342 253.830589 
L 201.245153 253.789384 
L 201.516543 253.625692 
L 201.61221 253.56754 
L 201.695186 253.516911 
L 201.977341 253.343415 
L 202.062745 253.290493 
L 202.284893 253.151937 
L 202.380822 253.091703 
L 202.497707 253.017982 
L 202.764623 252.848271 
L 202.864205 252.784465 
L 202.964586 252.719878 
L 203.107965 252.627151 
L 203.311574 252.494512 
L 203.454831 252.400508 
L 203.565146 252.327737 
L 203.837485 252.146637 
L 203.940284 252.07774 
L 204.04881 252.004683 
L 204.311191 251.826682 
L 204.357855 251.794819 
L 204.639951 251.600879 
L 204.77606 251.506485 
L 204.873511 251.438571 
L 205.043293 251.319588 
L 205.16287 251.235282 
L 205.319879 251.123945 
L 205.556574 250.954716 
L 205.725044 250.833245 
L 205.889364 250.713941 
L 205.932334 250.682607 
L 206.132029 250.536251 
L 206.300115 250.412112 
L 206.465944 250.288784 
L 206.582592 250.201518 
L 206.756596 250.07055 
L 206.922411 249.944855 
L 207.089986 249.816939 
L 207.194433 249.736754 
L 207.346094 249.619697 
L 207.501061 249.499316 
L 207.750652 249.303777 
L 207.939361 249.154568 
L 208.017679 249.092294 
L 208.12133 249.009561 
L 208.345483 248.829404 
L 208.448466 248.746061 
L 208.60338 248.620005 
L 208.870554 248.400653 
L 208.969024 248.31918 
L 209.091731 248.217176 
L 209.340832 248.008459 
L 209.434162 247.929688 
L 209.59833 247.790367 
L 209.819823 247.60084 
L 209.888531 247.541683 
L 209.999761 247.445544 
L 210.168367 247.298936 
L 210.319211 247.166868 
L 210.589729 246.927861 
L 210.690534 246.838081 
L 210.822959 246.719542 
L 211.013934 246.547389 
L 211.107294 246.462709 
L 211.358261 246.233358 
L 211.481846 246.119489 
L 211.620876 245.990649 
L 211.860278 245.766941 
L 211.964087 245.669201 
L 212.119954 245.521601 
L 212.271914 245.376716 
L 212.347137 245.304631 
L 212.569181 245.090438 
L 212.706277 244.957124 
L 212.835938 244.830283 
L 213.072813 244.59664 
L 213.164326 244.505705 
L 213.387139 244.282712 
L 213.462023 244.207259 
L 213.720564 243.944761 
L 213.822552 243.840355 
L 213.964578 243.69414 
L 214.118392 243.534705 
L 214.302171 243.342713 
L 214.426486 243.211909 
L 214.672658 242.950629 
L 214.77222 242.844095 
L 214.840722 242.770506 
L 215.077645 242.514138 
L 215.273946 242.299526 
L 215.324565 242.243857 
L 215.575786 241.965563 
L 215.65602 241.875969 
L 215.866118 241.639703 
L 215.932865 241.564134 
L 216.180254 241.281883 
L 216.244519 241.207998 
L 216.408079 241.01889 
L 216.601641 240.793096 
L 216.818804 240.537151 
L 216.923264 240.413035 
L 217.097227 240.204871 
L 217.277312 239.987426 
L 217.34828 239.90118 
L 217.525341 239.684622 
L 217.73688 239.423269 
L 217.868946 239.25863 
L 217.979635 239.119755 
L 218.262956 238.76055 
L 218.433402 238.541811 
L 218.583572 238.347415 
L 218.735403 238.149248 
L 218.773851 238.098804 
L 219.047484 237.736688 
L 219.072879 237.702802 
L 219.2258 237.497726 
L 219.448718 237.1956 
L 219.559441 237.044107 
L 219.779191 236.740574 
L 219.957599 236.491287 
L 220.059362 236.347926 
L 220.173466 236.186154 
L 220.438885 235.805576 
L 220.620163 235.542131 
L 220.671328 235.467246 
L 220.798017 235.280815 
L 221.095977 234.836539 
L 221.232265 234.630542 
L 221.315667 234.503601 
L 221.499043 234.2221 
L 221.68491 233.933345 
L 221.790656 233.767488 
L 222.015057 233.411648 
L 222.191284 233.128415 
L 222.325121 232.911027 
L 222.382742 232.816817 
L 222.562955 232.519721 
L 222.754875 232.199158 
L 222.943837 231.879209 
L 223.08592 231.635728 
L 223.208395 231.423796 
L 223.291964 231.278076 
L 223.462194 230.978393 
L 223.65111 230.641222 
L 223.852871 230.275614 
L 224.054861 229.903681 
L 224.158916 229.709699 
L 224.330976 229.385277 
L 224.459864 229.139188 
L 224.694194 228.684801 
L 224.833678 228.409904 
L 224.94126 228.19555 
L 225.04435 227.988192 
L 225.258138 227.551891 
L 225.369911 227.320299 
L 225.50249 227.042385 
L 225.635069 226.76088 
L 225.753406 226.50649 
L 225.868562 226.25602 
L 225.993818 225.980214 
L 226.197414 225.524134 
L 226.344889 225.187497 
L 226.446612 224.952097 
L 226.588837 224.618427 
L 226.720379 224.304932 
L 226.851921 223.986548 
L 227.029244 223.549256 
L 227.131044 223.293825 
L 227.234115 223.031808 
L 227.337187 222.766255 
L 227.403154 222.594381 
L 227.525383 222.271835 
L 227.647611 221.94378 
L 227.747386 221.671729 
L 227.86095 221.357214 
L 227.974514 221.037293 
L 228.138365 220.565667 
L 228.152762 220.523636 
L 228.271222 220.17402 
L 228.389682 219.817404 
L 228.455013 219.617593 
L 228.531061 219.38208 
L 228.607109 219.143308 
L 228.683157 218.901151 
L 228.759205 218.655474 
L 228.873291 218.279997 
L 228.95299 218.012517 
L 229.03269 217.740558 
L 229.113727 217.459222 
L 229.194764 217.17279 
L 229.259296 216.940873 
L 229.323829 216.705411 
L 229.419066 216.351115 
L 229.514303 215.988213 
L 229.578089 215.740037 
L 229.641876 215.487523 
L 229.706011 215.22903 
L 229.770147 214.965685 
L 229.826341 214.730748 
L 229.882535 214.491684 
L 229.938729 214.24828 
L 229.994923 214.000305 
L 230.066603 213.676951 
L 230.138283 213.345156 
L 230.216864 212.970932 
L 230.265784 212.731994 
L 230.314704 212.488154 
L 230.363625 212.239112 
L 230.412545 211.984533 
L 230.457418 211.745829 
L 230.502291 211.501834 
L 230.547164 211.252194 
L 230.592037 210.996511 
L 230.64683 210.675456 
L 230.701623 210.343788 
L 230.732314 210.152973 
L 230.763005 209.95827 
L 230.793696 209.759437 
L 230.824387 209.556207 
L 230.854442 209.352638 
L 230.884498 209.144253 
L 230.914553 208.930701 
L 230.944609 208.711586 
L 230.974664 208.48646 
L 231.004719 208.254806 
L 231.034775 208.016035 
L 231.06483 207.769457 
L 231.087615 207.576841 
L 231.110399 207.378872 
L 231.133184 207.175084 
L 231.155968 206.964938 
L 231.178753 206.747808 
L 231.201537 206.522957 
L 231.224321 206.289507 
L 231.247106 206.0464 
L 231.263178 205.868418 
L 231.279249 205.684448 
L 231.293527 205.515475 
L 231.307805 205.34074 
L 231.322082 205.159613 
L 231.33636 204.971342 
L 231.350638 204.775016 
L 231.364915 204.569508 
L 231.379193 204.353403 
L 231.386332 204.240829 
L 231.393471 204.124881 
L 231.40061 204.00524 
L 231.407749 203.881529 
L 231.414887 203.753303 
L 231.422026 203.620033 
L 231.429165 203.481071 
L 231.436304 203.335624 
L 231.443443 203.18269 
L 231.450582 203.020982 
L 231.45772 202.848795 
L 231.464859 202.663786 
L 231.471998 202.462584 
L 231.479137 202.240012 
L 231.486276 201.987361 
L 231.493415 201.687643 
L 231.500553 201.29701 
z
" clip-path="url(#pef2408b880)" style="fill: #808080; opacity: 0.5"/>
   </g>
   <g id="matplotlib.axis_1"/>
   <g id="matplotlib.axis_2"/>
   <g id="line2d_1">
    <path d="M 138.046154 138.046154 
L 138.17885 142.110441 
L 138.520301 145.718259 
L 139.095772 149.434608 
L 139.904167 153.148631 
L 140.872842 156.600363 
L 142.018496 159.937599 
L 143.381347 163.272784 
L 144.874517 166.406207 
L 146.7667 169.837132 
L 148.794359 173.029976 
L 150.938888 175.998893 
L 153.298828 178.888213 
L 155.800018 181.603069 
L 158.518252 184.220082 
L 161.325059 186.615715 
L 164.372421 188.91447 
L 167.403611 190.928386 
L 169.2 192.006198 
L 169.2 192.006198 
" clip-path="url(#pef2408b880)" style="fill: none; stroke: #ff0000; stroke-linecap: square"/>
   </g>
   <g id="line2d_2">
    <path d="M 106.892308 200.353846 
L 107.042125 204.67208 
L 107.413384 208.395155 
L 108.01513 212.129254 
L 108.809727 215.692147 
L 109.848514 219.318277 
L 111.080988 222.813342 
L 112.653166 226.520697 
L 114.289508 229.800177 
L 116.22683 233.157685 
L 118.201177 236.150055 
L 120.634362 239.387515 
L 123.028952 242.192619 
L 125.918426 245.175201 
L 128.703891 247.706921 
L 131.575135 250.018905 
L 134.424017 252.053745 
L 137.463148 253.973066 
L 140.918834 255.87343 
L 144.223425 257.436411 
L 147.483729 258.754634 
L 151.024977 259.951808 
L 154.558896 260.916926 
L 158.216673 261.685853 
L 161.979762 262.241783 
L 165.709389 262.563686 
L 169.2 262.661538 
L 169.2 262.661538 
" clip-path="url(#pef2408b880)" style="fill: none; stroke: #228b22; stroke-linecap: square"/>
   </g>
   <g id="line2d_3">
    <path d="M 169.2 262.661538 
L 172.994031 262.545918 
L 176.786727 262.197925 
L 180.395757 261.647431 
L 184.095628 260.854828 
L 187.717906 259.846162 
L 191.155334 258.665181 
L 194.661262 257.221875 
L 198.01583 255.597818 
L 200.353846 254.313891 
L 200.353846 254.313891 
" clip-path="url(#pef2408b880)" style="fill: none; stroke: #228b22; stroke-linecap: square"/>
   </g>
   <g id="line2d_4">
    <path d="M 200.353846 254.313891 
L 203.565146 252.327737 
L 206.582592 250.201518 
L 209.434162 247.929688 
L 212.271914 245.376716 
L 214.840722 242.770506 
L 217.34828 239.90118 
L 219.559441 237.044107 
L 221.68491 233.933345 
L 223.462194 230.978393 
L 225.258138 227.551891 
L 226.720379 224.304932 
L 227.974514 221.037293 
L 229.113727 217.459222 
L 229.994923 214.000305 
L 230.701623 210.343788 
L 231.178753 206.747808 
L 231.450582 203.020982 
L 231.507692 200.353846 
L 231.507692 200.353846 
" clip-path="url(#pef2408b880)" style="fill: none; stroke: #228b22; stroke-linecap: square"/>
   </g>
   <g id="text_1">
    <!-- $\Omega$ -->
    <g transform="translate(16.011538 22.420913)scale(0.1 -0.1)">
     <defs>
      <path id="Cmr10-ad" d="M 494 0 
L 281 1063 
L 469 1063 
Q 503 878 531 736 
Q 559 594 604 536 
Q 650 478 750 459 
Q 850 441 1081 441 
L 1472 441 
Q 1378 803 1004 1386 
Q 631 1969 495 2233 
Q 359 2497 359 2913 
Q 359 3397 646 3761 
Q 934 4125 1389 4319 
Q 1844 4513 2309 4513 
Q 2772 4513 3226 4319 
Q 3681 4125 3968 3758 
Q 4256 3391 4256 2913 
Q 4256 2588 4137 2300 
Q 4019 2013 3834 1725 
Q 3650 1438 3436 1084 
Q 3222 731 3144 441 
L 3531 441 
Q 3766 441 3869 459 
Q 3972 478 4015 536 
Q 4059 594 4086 736 
Q 4113 878 4147 1063 
L 4331 1063 
L 4122 0 
L 2988 0 
Q 2925 0 2925 84 
Q 2925 409 3004 721 
Q 3084 1034 3240 1478 
Q 3397 1922 3484 2261 
Q 3572 2600 3572 2913 
Q 3572 3297 3422 3625 
Q 3272 3953 2984 4150 
Q 2697 4347 2309 4347 
Q 1725 4347 1384 3930 
Q 1044 3513 1044 2913 
Q 1047 2584 1122 2293 
Q 1197 2003 1364 1518 
Q 1531 1034 1611 721 
Q 1691 409 1691 84 
Q 1691 0 1625 0 
L 494 0 
z
" transform="scale(0.015625)"/>
     </defs>
     <use xlink:href="#Cmr10-ad" transform="translate(0 0.484375)"/>
    </g>
   </g>
   <g id="text_2">
    <!-- $A$ -->
    <g style="fill: #0000ff" transform="translate(103.142308 78.497837)scale(0.1 -0.1)">
     <defs>
      <path id="Cmmi10-41" d="M 288 0 
Q 225 0 225 84 
Q 250 225 306 225 
Q 566 225 755 328 
Q 944 431 1081 647 
Q 1094 659 1094 659 
L 3378 4513 
Q 3428 4581 3500 4581 
L 3584 4581 
Q 3603 4581 3622 4573 
Q 3641 4566 3655 4548 
Q 3669 4531 3669 4513 
L 4056 378 
Q 4056 350 4084 294 
Q 4147 225 4563 225 
Q 4628 225 4628 141 
Q 4606 56 4592 28 
Q 4578 0 4519 0 
L 2919 0 
Q 2859 0 2859 84 
Q 2894 225 2944 225 
Q 3450 225 3481 397 
L 3384 1453 
L 1806 1453 
L 1294 594 
Q 1247 525 1247 434 
Q 1247 322 1355 273 
Q 1463 225 1594 225 
Q 1656 225 1656 141 
Q 1634 50 1621 25 
Q 1609 0 1550 0 
L 288 0 
z
M 1931 1678 
L 3359 1678 
L 3169 3750 
L 1931 1678 
z
" transform="scale(0.015625)"/>
     </defs>
     <use xlink:href="#Cmmi10-41" transform="translate(0 0.421875)"/>
    </g>
   </g>
   <g id="text_3">
    <!-- $B$ -->
    <g style="fill: #ff0000" transform="translate(227.707692 78.497837)scale(0.1 -0.1)">
     <defs>
      <path id="Cmmi10-42" d="M 319 0 
Q 256 0 256 84 
Q 259 100 268 137 
Q 278 175 293 200 
Q 309 225 341 225 
Q 522 225 656 234 
Q 791 244 884 269 
Q 959 297 1006 441 
L 1881 3956 
Q 1894 4019 1894 4044 
Q 1894 4113 1819 4122 
Q 1697 4147 1356 4147 
Q 1294 4147 1294 4231 
Q 1297 4247 1306 4286 
Q 1316 4325 1333 4348 
Q 1350 4372 1375 4372 
L 3669 4372 
Q 3878 4372 4083 4320 
Q 4288 4269 4461 4156 
Q 4634 4044 4736 3876 
Q 4838 3709 4838 3488 
Q 4838 3247 4714 3040 
Q 4591 2834 4395 2681 
Q 4200 2528 3973 2429 
Q 3747 2331 3500 2284 
Q 3675 2284 3854 2215 
Q 4034 2147 4175 2028 
Q 4316 1909 4402 1743 
Q 4488 1578 4488 1388 
Q 4488 1003 4219 684 
Q 3950 366 3542 183 
Q 3134 0 2753 0 
L 319 0 
z
M 1497 275 
Q 1497 225 1716 225 
L 2631 225 
Q 2944 225 3231 398 
Q 3519 572 3692 859 
Q 3866 1147 3866 1459 
Q 3866 1650 3786 1820 
Q 3706 1991 3556 2089 
Q 3406 2188 3213 2188 
L 1966 2188 
L 1522 416 
Q 1497 328 1497 275 
z
M 2009 2356 
L 2981 2356 
Q 3288 2356 3577 2512 
Q 3866 2669 4048 2937 
Q 4231 3206 4231 3506 
Q 4231 3784 4057 3965 
Q 3884 4147 3609 4147 
L 2731 4147 
Q 2559 4147 2500 4115 
Q 2441 4084 2400 3928 
L 2009 2356 
z
" transform="scale(0.015625)"/>
     </defs>
     <use xlink:href="#Cmmi10-42" transform="translate(0 0.6875)"/>
    </g>
   </g>
   <g id="text_4">
    <!-- $C$ -->
    <g style="fill: #228b22" transform="translate(150.023077 271.651683)scale(0.1 -0.1)">
     <defs>
      <path id="Cmmi10-43" d="M 934 1381 
Q 934 997 1082 705 
Q 1231 413 1514 248 
Q 1797 84 2181 84 
Q 2584 84 2957 290 
Q 3331 497 3595 842 
Q 3859 1188 3956 1575 
Q 3969 1613 4006 1613 
L 4084 1613 
Q 4109 1613 4125 1595 
Q 4141 1578 4141 1556 
Q 4141 1550 4134 1538 
Q 4025 1094 3711 705 
Q 3397 316 2959 87 
Q 2522 -141 2059 -141 
Q 1559 -141 1162 84 
Q 766 309 545 709 
Q 325 1109 325 1613 
Q 325 2150 565 2676 
Q 806 3203 1212 3614 
Q 1619 4025 2139 4269 
Q 2659 4513 3194 4513 
Q 3406 4513 3600 4448 
Q 3794 4384 3959 4253 
Q 4125 4122 4231 3950 
L 4738 4500 
Q 4738 4513 4769 4513 
L 4806 4513 
Q 4831 4513 4847 4491 
Q 4863 4469 4863 4447 
L 4428 2719 
Q 4428 2675 4378 2675 
L 4263 2675 
Q 4213 2675 4213 2747 
Q 4238 2888 4238 3084 
Q 4238 3397 4131 3673 
Q 4025 3950 3801 4119 
Q 3578 4288 3256 4288 
Q 2734 4288 2300 4025 
Q 1866 3763 1564 3336 
Q 1263 2909 1098 2389 
Q 934 1869 934 1381 
z
" transform="scale(0.015625)"/>
     </defs>
     <use xlink:href="#Cmmi10-43" transform="translate(0 0.484375)"/>
    </g>
   </g>
   <g id="patch_8">
    <path d="M 138.046154 200.353846 
C 154.570347 200.353846 170.419977 193.788715 182.104346 182.104346 
C 193.788715 170.419977 200.353846 154.570347 200.353846 138.046154 
C 200.353846 121.521961 193.788715 105.672331 182.104346 93.987962 
C 170.419977 82.303593 154.570347 75.738462 138.046154 75.738462 
C 121.521961 75.738462 105.672331 82.303593 93.987962 93.987962 
C 82.303593 105.672331 75.738462 121.521961 75.738462 138.046154 
C 75.738462 154.570347 82.303593 170.419977 93.987962 182.104346 
C 105.672331 193.788715 121.521961 200.353846 138.046154 200.353846 
L 138.046154 200.353846 
z
" clip-path="url(#pef2408b880)" style="fill: none; stroke: #0000ff; stroke-linejoin: miter"/>
   </g>
   <g id="patch_9">
    <path d="M 200.353846 200.353846 
C 216.878039 200.353846 232.727669 193.788715 244.412038 182.104346 
C 256.096407 170.419977 262.661538 154.570347 262.661538 138.046154 
C 262.661538 121.521961 256.096407 105.672331 244.412038 93.987962 
C 232.727669 82.303593 216.878039 75.738462 200.353846 75.738462 
C 183.829653 75.738462 167.980023 82.303593 156.295654 93.987962 
C 144.611285 105.672331 138.046154 121.521961 138.046154 138.046154 
C 138.046154 154.570347 144.611285 170.419977 156.295654 182.104346 
C 167.980023 193.788715 183.829653 200.353846 200.353846 200.353846 
L 200.353846 200.353846 
z
" clip-path="url(#pef2408b880)" style="fill: none; stroke: #ff0000; stroke-linejoin: miter"/>
   </g>
   <g id="patch_10">
    <path d="M 169.2 262.661538 
C 185.724193 262.661538 201.573823 256.096407 213.258192 244.412038 
C 224.942561 232.727669 231.507692 216.878039 231.507692 200.353846 
C 231.507692 183.829653 224.942561 167.980023 213.258192 156.295654 
C 201.573823 144.611285 185.724193 138.046154 169.2 138.046154 
C 152.675807 138.046154 136.826177 144.611285 125.141808 156.295654 
C 113.457439 167.980023 106.892308 183.829653 106.892308 200.353846 
C 106.892308 216.878039 113.457439 232.727669 125.141808 244.412038 
C 136.826177 256.096407 152.675807 262.661538 169.2 262.661538 
L 169.2 262.661538 
z
" clip-path="url(#pef2408b880)" style="fill: none; stroke: #228b22; stroke-linejoin: miter"/>
   </g>
  </g>
 </g>
 <defs>
  <clipPath id="pef2408b880">
   <rect x="7.2" y="7.2" width="324" height="324"/>
  </clipPath>
 </defs>
</svg>
