<?xml version="1.0" encoding="utf-8" standalone="no"?>
<!DOCTYPE svg PUBLIC "-//W3C//DTD SVG 1.1//EN"
  "http://www.w3.org/Graphics/SVG/1.1/DTD/svg11.dtd">
<svg xmlns:xlink="http://www.w3.org/1999/xlink" width="338.4pt" height="338.4pt" viewBox="0 0 338.4 338.4" xmlns="http://www.w3.org/2000/svg" version="1.1">
 <metadata>
  <rdf:RDF xmlns:dc="http://purl.org/dc/elements/1.1/" xmlns:cc="http://creativecommons.org/ns#" xmlns:rdf="http://www.w3.org/1999/02/22-rdf-syntax-ns#">
   <cc:Work>
    <dc:type rdf:resource="http://purl.org/dc/dcmitype/StillImage"/>
    <dc:date>2022-08-23T18:58:40.078596</dc:date>
    <dc:format>image/svg+xml</dc:format>
    <dc:creator>
     <cc:Agent>
      <dc:title>Matplotlib v3.5.2, https://matplotlib.org/</dc:title>
     </cc:Agent>
    </dc:creator>
   </cc:Work>
  </rdf:RDF>
 </metadata>
 <defs>
  <style type="text/css">*{stroke-linejoin: round; stroke-linecap: butt}</style>
 </defs>
 <g id="figure_1">
  <g id="patch_1">
   <path d="M -0 338.4 
L 338.4 338.4 
L 338.4 0 
L -0 0 
z
" style="fill: #ffffff"/>
  </g>
  <g id="axes_1">
   <g id="patch_2">
    <path d="M 7.2 331.2 
L 331.2 331.2 
L 331.2 7.2 
L 7.2 7.2 
z
" style="fill: #ffffff"/>
   </g>
   <g id="patch_3">
    <path d="M 13.430769 324.969231 
L 13.430769 13.430769 
L 324.969231 13.430769 
L 324.969231 324.969231 
L 13.430769 324.969231 
z
" clip-path="url(#pb6d2b6e110)" style="fill: none; stroke: #000000; stroke-linejoin: miter"/>
   </g>
   <g id="patch_4">
    <path d="M 200.353846 146.393802 
L 199.695902 146.019249 
L 199.569197 145.948328 
L 198.745193 145.496485 
L 198.309802 145.264211 
L 198.052554 145.129045 
L 197.767654 144.98113 
L 197.162113 144.672891 
L 196.404675 144.298925 
L 196.07464 144.139949 
L 195.458383 143.849458 
L 195.036763 143.655432 
L 194.863203 143.576663 
L 194.137904 143.254376 
L 193.881593 143.143117 
L 193.350145 142.916759 
L 193.037675 142.786375 
L 192.544851 142.584767 
L 191.876125 142.319013 
L 191.273842 142.087269 
L 191.034903 141.997308 
L 190.371371 141.753321 
L 189.984221 141.614893 
L 189.43536 141.423559 
L 188.855157 141.227513 
L 188.766078 141.197975 
L 187.916968 140.923857 
L 187.763886 140.875862 
L 187.191661 140.700274 
L 186.693045 140.552158 
L 186.407539 140.469382 
L 185.635939 140.253027 
L 185.163987 140.125949 
L 184.679938 139.999724 
L 184.240537 139.888726 
L 183.684708 139.753172 
L 183.60545 139.734282 
L 182.905178 139.572133 
L 182.553938 139.494 
L 182.167365 139.410463 
L 181.615035 139.295551 
L 180.995945 139.172933 
L 180.402211 139.061441 
L 180.197027 139.024294 
L 179.554182 138.912497 
L 179.214966 138.856293 
L 178.669536 138.769949 
L 178.08305 138.682622 
L 177.70824 138.629796 
L 177.465115 138.59677 
L 177.101529 138.549199 
L 176.204275 138.441096 
L 175.815957 138.398397 
L 175.38732 138.354124 
L 174.901585 138.30757 
L 174.562793 138.277369 
L 173.868051 138.221264 
L 173.529454 138.196752 
L 173.133067 138.170412 
L 172.548567 138.136199 
L 172.125585 138.114875 
L 171.924568 138.105752 
L 171.033897 138.073148 
L 170.807166 138.066885 
L 170.529268 138.060335 
L 169.860735 138.049657 
L 169.387344 138.046435 
L 168.948229 138.046663 
L 168.391475 138.0514 
L 167.720191 138.063729 
L 167.640743 138.065667 
L 167.228343 138.077357 
L 166.432083 138.107664 
L 165.86468 138.135487 
L 165.563407 138.152369 
L 165.199684 138.174702 
L 164.852864 138.197986 
L 164.276564 138.240979 
L 163.769907 138.28322 
L 163.402022 138.316503 
L 162.694267 138.386726 
L 162.517134 138.405579 
L 161.663023 138.503684 
L 161.495345 138.524348 
L 160.955071 138.594072 
L 160.423591 138.667355 
L 159.899697 138.744164 
L 159.477603 138.809362 
L 158.79362 138.921316 
L 158.64058 138.947436 
L 157.907593 139.077994 
L 157.824362 139.093391 
L 157.179901 139.216577 
L 156.767451 139.299115 
L 156.183251 139.420992 
L 155.596732 139.549244 
L 155.440363 139.584438 
L 155.010149 139.683453 
L 154.192746 139.880457 
L 153.91005 139.951313 
L 153.199243 140.135707 
L 153.151941 140.148295 
L 152.683582 140.275094 
L 151.913394 140.492158 
L 151.338293 140.661234 
L 150.980912 140.76934 
L 150.397804 140.950766 
L 149.891227 141.11349 
L 149.544108 141.227757 
L 149.21435 141.338405 
L 148.716318 141.509413 
L 148.283726 141.661785 
L 147.746454 141.856035 
L 147.434554 141.971367 
L 146.602801 142.288236 
L 146.240463 142.43055 
L 145.934313 142.55284 
L 145.233006 142.840094 
L 145.105643 142.893334 
L 144.466829 143.165397 
L 143.940043 143.396115 
L 143.734393 143.487763 
L 143.283834 143.691682 
L 142.748083 143.9398 
L 142.162595 144.218053 
L 141.63321 144.476117 
L 141.317653 144.632906 
L 140.718253 144.936894 
L 140.356381 145.124378 
L 139.780387 145.429035 
L 139.393685 145.637924 
L 138.917381 145.900091 
L 138.449448 146.162961 
L 137.958554 146.444472 
L 137.462573 146.734967 
L 136.859874 147.096314 
L 136.604749 147.252074 
L 136.048567 147.59751 
L 135.730924 147.798452 
L 135.012214 148.26312 
L 134.726046 148.452064 
L 134.180513 148.818576 
L 133.795954 149.082002 
L 133.143582 149.538659 
L 132.579625 149.943563 
L 132.391773 150.080564 
L 131.952507 150.405144 
L 131.27938 150.914236 
L 130.636677 151.413897 
L 130.296666 151.683741 
L 129.790995 152.092279 
L 129.489476 152.340069 
L 128.900104 152.833672 
L 128.448255 153.22059 
L 127.980678 153.628949 
L 127.613172 153.95574 
L 127.073327 154.445329 
L 126.817145 154.68173 
L 126.311765 155.155973 
L 125.584132 155.857728 
L 125.079081 156.358471 
L 124.748776 156.692225 
L 124.312676 157.140692 
L 123.758804 157.723503 
L 123.409083 158.099373 
L 122.976702 158.572807 
L 122.254286 159.386195 
L 122.036625 159.636962 
L 121.390421 160.397712 
L 121.009085 160.858476 
L 120.458073 161.540536 
L 120.042198 162.068613 
L 119.460096 162.827982 
L 119.069945 163.350791 
L 118.791105 163.73156 
L 118.248658 164.490086 
L 117.700135 165.282313 
L 117.09499 166.187833 
L 116.621776 166.920646 
L 116.257417 167.500667 
L 115.931808 168.031281 
L 115.606199 168.574088 
L 115.406655 168.913035 
L 114.934895 169.734458 
L 114.656248 170.233627 
L 114.377601 170.74383 
L 114.129752 171.207384 
L 113.654169 172.124267 
L 113.4168 172.596268 
L 113.179432 173.078501 
L 112.954841 173.544694 
L 112.730251 174.021054 
L 112.365611 174.817582 
L 112.000972 175.645149 
L 111.710108 176.329674 
L 111.419244 177.037912 
L 111.179079 177.642148 
L 110.938914 178.265515 
L 110.686327 178.943601 
L 110.43374 179.646959 
L 110.249228 180.178243 
L 110.062371 180.732701 
L 109.875514 181.305122 
L 109.688657 181.897177 
L 109.501801 182.510821 
L 109.287322 183.244799 
L 109.127438 183.814928 
L 108.967555 184.407027 
L 108.807671 185.023644 
L 108.647787 185.667864 
L 108.539797 186.120493 
L 108.431807 186.588844 
L 108.291324 187.224426 
L 108.15084 187.893966 
L 108.080598 188.24322 
L 108.010357 188.603269 
L 107.940115 188.975138 
L 107.869873 189.360028 
L 107.802403 189.743306 
L 107.734932 190.141404 
L 107.667462 190.556129 
L 107.599991 190.989688 
L 107.532521 191.444831 
L 107.465051 191.925053 
L 107.39758 192.434917 
L 107.363845 192.702803 
L 107.33011 192.980569 
L 107.275385 193.455257 
L 107.248022 193.705468 
L 107.220659 193.965588 
L 107.193297 194.236881 
L 107.165934 194.520907 
L 107.138571 194.819625 
L 107.111209 195.135559 
L 107.083846 195.472048 
L 107.056484 195.833683 
L 107.029121 196.227067 
L 107.01544 196.438624 
L 107.001758 196.662337 
L 106.988077 196.900566 
L 106.974396 197.156554 
L 106.960714 197.434971 
L 106.947033 197.742981 
L 106.933352 198.092647 
L 106.91967 198.507483 
L 106.905989 199.048199 
L 106.892308 200.353846 
L 106.892308 84.086109 
L 107.437041 83.775252 
L 108.014378 83.453655 
L 108.298473 83.298332 
L 108.657934 83.104539 
L 109.35794 82.735803 
L 109.562567 82.630147 
L 110.21353 82.300359 
L 110.778199 82.021988 
L 111.014415 81.907632 
L 111.765404 81.552166 
L 112.218354 81.343656 
L 112.333048 81.291553 
L 112.985992 81.000235 
L 113.576879 80.744294 
L 113.735704 80.676732 
L 114.314023 80.435092 
L 114.975075 80.167195 
L 115.495092 79.962609 
L 115.78759 79.849892 
L 116.337732 79.642447 
L 116.663134 79.522526 
L 117.43571 79.246 
L 117.745179 79.138438 
L 118.257505 78.964364 
L 118.553332 78.866103 
L 119.079812 78.695279 
L 119.485742 78.567085 
L 119.956492 78.422227 
L 120.548921 78.245691 
L 120.902943 78.143242 
L 121.549768 77.961898 
L 121.836725 77.883849 
L 122.187346 77.790476 
L 122.820306 77.627431 
L 123.406106 77.482819 
L 123.609759 77.433952 
L 124.225274 77.290645 
L 124.807462 77.161135 
L 125.427902 77.029531 
L 125.695053 76.974894 
L 126.338491 76.848285 
L 126.749162 76.771147 
L 126.9602 76.732614 
L 127.338632 76.665396 
L 128.124987 76.533399 
L 128.595615 76.459338 
L 128.891362 76.414682 
L 129.301097 76.35521 
L 129.961523 76.265192 
L 130.492812 76.197989 
L 130.900965 76.149508 
L 131.235806 76.111772 
L 131.653346 76.067282 
L 132.36715 75.997806 
L 132.743772 75.964488 
L 133.065981 75.93781 
L 133.80381 75.883054 
L 134.36346 75.84739 
L 134.802671 75.82294 
L 134.955497 75.815162 
L 135.764185 75.780263 
L 136.043051 75.770668 
L 136.672518 75.753605 
L 137.102613 75.745606 
L 137.439329 75.741417 
L 138.117332 75.738502 
L 138.335643 75.739134 
L 138.909911 75.744449 
L 139.282636 75.750732 
L 139.763397 75.76213 
L 140.098116 75.772259 
L 140.623278 75.791781 
L 141.221646 75.819433 
L 141.601241 75.839965 
L 141.935063 75.859942 
L 142.776332 75.91827 
L 143.138123 75.946875 
L 143.337938 75.963584 
L 144.176032 76.040726 
L 144.396655 76.062933 
L 144.979571 76.125428 
L 145.495354 76.185359 
L 145.716081 76.212338 
L 146.466027 76.309987 
L 147.003673 76.385702 
L 147.351051 76.437166 
L 147.699549 76.490809 
L 148.134236 76.560553 
L 148.633566 76.644564 
L 149.265922 76.75696 
L 149.83976 76.864789 
L 149.989888 76.89392 
L 150.444147 76.984396 
L 151.111687 77.123741 
L 151.29648 77.163666 
L 151.761146 77.266655 
L 152.452868 77.42689 
L 152.828042 77.517282 
L 153.255697 77.623324 
L 153.784663 77.758943 
L 154.444827 77.935156 
L 154.71396 78.009226 
L 155.238731 78.157392 
L 155.884927 78.346684 
L 156.425677 78.51094 
L 156.602907 78.565943 
L 157.356457 78.806297 
L 157.399639 78.82039 
L 158.244458 79.103156 
L 158.382236 79.150549 
L 159.168686 79.428007 
L 159.278844 79.467818 
L 160.103995 79.773518 
L 160.438674 79.901304 
L 160.958408 80.104139 
L 161.24792 80.219459 
L 161.736095 80.41773 
L 162.503618 80.739252 
L 162.623023 80.790359 
L 163.157276 81.022649 
L 163.569284 81.205866 
L 163.991993 81.397571 
L 164.824302 81.786227 
L 165.230978 81.981603 
L 165.810456 82.2663 
L 165.959661 82.340816 
L 166.567627 82.649637 
L 166.91314 82.828895 
L 167.497196 83.138189 
L 168.171612 83.505295 
L 168.59401 83.740749 
L 168.760212 83.834576 
L 169.204586 84.088758 
L 170.051805 84.586947 
L 170.342629 84.762139 
L 170.565837 84.898071 
L 171.245898 85.320207 
L 171.649757 85.576674 
L 172.128226 85.886199 
L 172.49165 86.12548 
L 172.961486 86.440261 
L 173.734018 86.971455 
L 173.996586 87.155929 
L 174.47174 87.49494 
L 175.167221 88.003424 
L 175.344586 88.135479 
L 176.011699 88.641033 
L 176.42839 88.964054 
L 176.758008 89.223609 
L 177.436062 89.768999 
L 177.789924 90.059893 
L 178.405764 90.576686 
L 178.8029 90.917223 
L 179.172046 91.239002 
L 179.48836 91.518828 
L 180.053272 92.028217 
L 180.806875 92.727623 
L 180.924958 92.839333 
L 181.593236 93.482714 
L 182.200339 94.084165 
L 182.396399 94.281964 
L 182.971819 94.872862 
L 183.278991 95.194795 
L 183.887319 95.8462 
L 184.299774 96.298685 
L 185.012279 97.101904 
L 185.429431 97.585388 
L 185.570241 97.750873 
L 186.310079 98.640037 
L 186.841211 99.299658 
L 187.086939 99.611145 
L 187.662948 100.357664 
L 188.047931 100.869941 
L 188.663402 101.712386 
L 188.957624 102.125815 
L 189.436079 102.813724 
L 189.80963 103.364875 
L 190.260729 104.047821 
L 190.711829 104.750881 
L 191.190859 105.520951 
L 191.655391 106.292441 
L 191.668974 106.315385 
L 192.096799 107.049763 
L 192.524625 107.80802 
L 192.7796 108.27203 
L 193.034575 108.745606 
L 193.228667 109.112804 
L 193.649577 109.930182 
L 193.923716 110.479024 
L 194.197854 111.041801 
L 194.47029 111.615767 
L 194.742726 112.205349 
L 195.104109 113.013409 
L 195.435192 113.782047 
L 195.773806 114.599051 
L 196.112421 115.450643 
L 196.366652 116.115171 
L 196.620883 116.803517 
L 196.809349 117.33057 
L 196.997815 117.873148 
L 197.216591 118.524168 
L 197.435366 119.2002 
L 197.62421 119.805986 
L 197.813054 120.43462 
L 198.001899 121.088643 
L 198.190743 121.771113 
L 198.341305 122.338089 
L 198.491867 122.92781 
L 198.647667 123.564953 
L 198.803467 124.233208 
L 198.919317 124.753053 
L 199.035167 125.295124 
L 199.151018 125.862388 
L 199.266868 126.458545 
L 199.326842 126.780021 
L 199.386817 127.111273 
L 199.446791 127.453218 
L 199.506765 127.806926 
L 199.566739 128.173663 
L 199.626714 128.554938 
L 199.686688 128.95258 
L 199.746662 129.368839 
L 199.784611 129.643094 
L 199.82256 129.926785 
L 199.860509 130.220938 
L 199.898458 130.526781 
L 199.936407 130.845802 
L 199.974356 131.179839 
L 200.012305 131.531201 
L 200.050254 131.90286 
L 200.088203 132.298751 
L 200.126152 132.724281 
L 200.145127 132.95046 
L 200.164101 133.18723 
L 200.183076 133.436222 
L 200.20205 133.699537 
L 200.221025 133.979957 
L 200.239999 134.2813 
L 200.258974 134.609066 
L 200.277948 134.971695 
L 200.296923 135.383391 
L 200.315897 135.871852 
L 200.334872 136.508573 
L 200.353846 138.046154 
z
" clip-path="url(#pb6d2b6e110)" style="fill: #808080; opacity: 0.5"/>
   </g>
   <g id="patch_5">
    <path d="M 75.738462 138.046154 
L 75.738462 138.046154 
L 75.740937 137.490762 
L 75.743412 137.260718 
L 75.745888 137.084205 
L 75.748363 136.935402 
L 75.750838 136.804308 
L 75.753314 136.685794 
L 75.755789 136.576812 
L 75.758264 136.475376 
L 75.76074 136.380109 
L 75.763215 136.290006 
L 75.76569 136.204309 
L 75.768166 136.122429 
L 75.773116 135.968335 
L 75.778067 135.824916 
L 75.783018 135.690222 
L 75.787969 135.562833 
L 75.792919 135.441677 
L 75.79787 135.32592 
L 75.802821 135.214901 
L 75.807771 135.108082 
L 75.812722 135.005021 
L 75.817673 134.905348 
L 75.824171 134.779137 
L 75.83067 134.657636 
L 75.837168 134.540355 
L 75.843667 134.426884 
L 75.850165 134.316876 
L 75.856664 134.210032 
L 75.869661 134.00484 
L 75.882658 133.809615 
L 75.895655 133.623037 
L 75.908652 133.444053 
L 75.921649 133.271809 
L 75.934646 133.105601 
L 75.947643 132.944839 
L 75.96064 132.789022 
L 75.973637 132.637724 
L 75.986633 132.490575 
L 75.99963 132.347254 
L 76.012627 132.207479 
L 76.025624 132.071001 
L 76.050041 131.822772 
L 76.074457 131.584163 
L 76.098874 131.354145 
L 76.12329 131.131862 
L 76.147706 130.916588 
L 76.172123 130.707709 
L 76.196539 130.504691 
L 76.220955 130.307075 
L 76.240897 130.149398 
L 76.260839 129.994859 
L 76.300722 129.694497 
L 76.340605 129.404752 
L 76.380489 129.124591 
L 76.409546 128.926008 
L 76.438603 128.731748 
L 76.46766 128.541547 
L 76.496716 128.355165 
L 76.52613 128.170165 
L 76.555543 127.988653 
L 76.584957 127.810444 
L 76.61437 127.635369 
L 76.674231 127.288106 
L 76.734092 126.952031 
L 76.793953 126.626155 
L 76.853814 126.309629 
L 76.908493 126.028042 
L 76.963173 125.753148 
L 77.028369 125.433522 
L 77.093565 125.122127 
L 77.158761 124.818382 
L 77.223957 124.521771 
L 77.270768 124.312947 
L 77.32852 124.059822 
L 77.386273 123.811431 
L 77.444025 123.567532 
L 77.501777 123.3279 
L 77.559418 123.092782 
L 77.617059 122.861523 
L 77.710013 122.496279 
L 77.792445 122.179867 
L 77.874877 121.870063 
L 77.935801 121.645116 
L 77.996726 121.423436 
L 78.118575 120.98937 
L 78.207931 120.678494 
L 78.297286 120.373538 
L 78.390779 120.06047 
L 78.491201 119.730691 
L 78.565779 119.489926 
L 78.640358 119.252541 
L 78.725038 118.986939 
L 78.809718 118.725358 
L 78.95755 118.277861 
L 79.051428 117.999437 
L 79.145307 117.72526 
L 79.295303 117.295587 
L 79.44776 116.868884 
L 79.578474 116.510627 
L 79.709188 116.159012 
L 79.875656 115.720345 
L 80.035304 115.308744 
L 80.122922 115.086457 
L 80.231792 114.813674 
L 80.340663 114.544561 
L 80.395558 114.41022 
L 80.592883 113.934535 
L 80.73661 113.594882 
L 80.857404 113.313677 
L 80.978198 113.036217 
L 81.07012 112.827507 
L 81.259457 112.404008 
L 81.399977 112.095062 
L 81.548714 111.772825 
L 81.708697 111.431506 
L 81.90551 111.018823 
L 81.975215 110.874508 
L 82.122471 110.572708 
L 82.304995 110.204248 
L 82.482792 109.851094 
L 82.674214 109.476995 
L 82.803399 109.22799 
L 82.950454 108.947832 
L 83.161176 108.552295 
L 83.241663 108.403005 
L 83.46343 107.996614 
L 83.600312 107.749309 
L 83.757387 107.46874 
L 83.820796 107.356432 
L 84.07033 106.919654 
L 84.257984 106.59649 
L 84.271283 106.573756 
L 84.446514 106.276245 
L 84.735692 105.793353 
L 84.796273 105.693431 
L 84.93281 105.469763 
L 85.204365 105.031099 
L 85.254944 104.950282 
L 85.443246 104.651804 
L 85.553912 104.478117 
L 85.711507 104.232942 
L 85.899424 103.94385 
L 86.025905 103.751223 
L 86.19287 103.499295 
L 86.459152 103.102918 
L 86.564903 102.947303 
L 86.622426 102.86308 
L 86.832544 102.557921 
L 86.939878 102.403523 
L 87.207241 102.023196 
L 87.323558 101.859599 
L 87.492286 101.624252 
L 87.56855 101.51863 
L 87.809869 101.187448 
L 87.934075 101.018757 
L 88.074935 100.828876 
L 88.29914 100.529715 
L 88.419773 100.370288 
L 88.517235 100.242255 
L 88.705164 99.9973 
L 88.862336 99.794348 
L 89.015023 99.59883 
L 89.247118 99.304669 
L 89.353655 99.170852 
L 89.444446 99.057405 
L 89.709225 98.72962 
L 89.898289 98.498315 
L 89.979942 98.399113 
L 90.133312 98.213904 
L 90.278871 98.039465 
L 90.414838 97.87768 
L 90.592972 97.667397 
L 90.771655 97.458345 
L 90.970576 97.227794 
L 91.114697 97.062171 
L 91.18219 96.985011 
L 91.431686 96.70199 
L 91.548911 96.570198 
L 91.676016 96.428142 
L 91.933508 96.143023 
L 92.026095 96.04136 
L 92.251554 95.795673 
L 92.307049 95.735602 
L 92.472872 95.557044 
L 92.598832 95.42234 
L 92.776601 95.233584 
L 92.938918 95.062601 
L 93.185601 94.805209 
L 93.29404 94.69299 
L 93.399689 94.584197 
L 93.592932 94.386566 
L 93.794453 94.182325 
L 93.847133 94.129243 
L 94.122509 93.853825 
L 94.252849 93.724659 
L 94.391172 93.588409 
L 94.47794 93.503374 
L 94.720957 93.266964 
L 94.784599 93.205476 
L 94.953256 93.043368 
L 95.190962 92.816948 
L 95.274899 92.737564 
L 95.391115 92.628138 
L 95.659379 92.377676 
L 95.765969 92.278977 
L 95.870068 92.183028 
L 96.13854 91.937582 
L 96.189072 91.891705 
L 96.338491 91.756637 
L 96.622358 91.502436 
L 96.658837 91.469995 
L 96.892985 91.262981 
L 96.993783 91.174506 
L 97.156939 91.032107 
L 97.328124 90.883769 
L 97.535565 90.705466 
L 97.704528 90.561401 
L 97.814529 90.468167 
L 97.923029 90.376631 
L 98.086595 90.239437 
L 98.290499 90.069739 
L 98.507787 89.89051 
L 98.558817 89.848657 
L 98.729813 89.709068 
L 98.936774 89.541464 
L 98.992119 89.496891 
L 99.217829 89.316186 
L 99.400067 89.171534 
L 99.598642 89.01517 
L 99.70656 88.930738 
L 99.826195 88.837585 
L 99.947255 88.743797 
L 100.211119 88.541016 
L 100.290481 88.480463 
L 100.46976 88.344412 
L 100.688019 88.18015 
L 100.740774 88.140672 
L 100.926244 88.002565 
L 101.090944 87.880817 
L 101.296232 87.730234 
L 101.427469 87.634643 
L 101.501396 87.581025 
L 101.735827 87.412087 
L 101.958974 87.252808 
L 102.007738 87.218198 
L 102.15065 87.117171 
L 102.341184 86.983411 
L 102.542557 86.843194 
L 102.636682 86.778056 
L 102.820469 86.651605 
L 102.952264 86.561521 
L 103.186709 86.402494 
L 103.273215 86.344208 
L 103.434885 86.23584 
L 103.553336 86.156906 
L 103.769249 86.014026 
L 103.922479 85.913406 
L 104.037819 85.838092 
L 104.24754 85.702079 
L 104.378867 85.617514 
L 104.477207 85.554494 
L 104.64953 85.44469 
L 104.871045 85.304702 
L 104.995459 85.226649 
L 105.144875 85.133448 
L 105.398413 84.976637 
L 105.408623 84.970358 
L 105.623748 84.838672 
L 105.803666 84.729454 
L 105.951751 84.640182 
L 106.044841 84.58435 
L 106.249693 84.462261 
L 106.439831 84.349889 
L 106.633534 84.236342 
L 106.672542 84.213589 
L 106.892308 84.086109 
L 106.892308 138.046154 
z
" clip-path="url(#pb6d2b6e110)" style="fill: #808080; opacity: 0.5"/>
   </g>
   <g id="patch_6">
    <path d="M 75.738462 138.046154 
L 75.738462 138.046154 
L 75.74524 138.965199 
L 75.752018 139.345845 
L 75.758797 139.637901 
L 75.765575 139.884095 
L 75.772353 140.100979 
L 75.779132 140.29704 
L 75.78591 140.477323 
L 75.792689 140.645112 
L 75.799467 140.802691 
L 75.806245 140.95172 
L 75.813024 141.093454 
L 75.819802 141.228869 
L 75.826581 141.358738 
L 75.833359 141.483692 
L 75.840137 141.604247 
L 75.846916 141.720836 
L 75.853694 141.833827 
L 75.860472 141.943531 
L 75.874029 142.154126 
L 75.887586 142.354397 
L 75.901143 142.545722 
L 75.914699 142.729198 
L 75.928256 142.905713 
L 75.941813 143.076002 
L 75.95537 143.240676 
L 75.970721 143.421014 
L 75.986072 143.595453 
L 76.001423 143.764532 
L 76.016774 143.928714 
L 76.032125 144.088396 
L 76.047476 144.243928 
L 76.062826 144.395614 
L 76.078177 144.543724 
L 76.096599 144.717072 
L 76.11502 144.885979 
L 76.133442 145.050766 
L 76.151863 145.211717 
L 76.176978 145.425422 
L 76.202093 145.633028 
L 76.227208 145.835021 
L 76.252323 146.031827 
L 76.277438 146.223821 
L 76.302553 146.411335 
L 76.327668 146.594662 
L 76.352783 146.774068 
L 76.388325 147.021711 
L 76.423867 147.262566 
L 76.459409 147.497152 
L 76.494951 147.725923 
L 76.523041 147.902882 
L 76.551131 148.076641 
L 76.607311 148.415199 
L 76.663491 148.742752 
L 76.719671 149.060282 
L 76.763214 149.300036 
L 76.806758 149.534622 
L 76.850301 149.764352 
L 76.893845 149.989505 
L 76.935633 150.201513 
L 76.977421 150.409745 
L 77.019209 150.614389 
L 77.060997 150.815617 
L 77.10424 151.020425 
L 77.147484 151.221908 
L 77.195457 151.441721 
L 77.24343 151.657815 
L 77.311028 151.95633 
L 77.378626 152.24825 
L 77.446223 152.533974 
L 77.513821 152.813861 
L 77.580216 153.083404 
L 77.646611 153.347911 
L 77.734913 153.692326 
L 77.823214 154.028833 
L 77.892921 154.289216 
L 77.962627 154.545195 
L 78.056811 154.884423 
L 78.170384 155.283922 
L 78.283956 155.673639 
L 78.376533 155.984519 
L 78.498299 156.384677 
L 78.620064 156.775497 
L 78.724127 157.102535 
L 78.84214 157.466072 
L 78.954126 157.80421 
L 79.066112 158.136033 
L 79.116979 158.284754 
L 79.220339 158.583243 
L 79.323698 158.876942 
L 79.468666 159.281181 
L 79.601164 159.643184 
L 79.712002 159.940794 
L 79.82284 160.23386 
L 79.928645 160.50954 
L 80.03445 160.781386 
L 80.139905 161.04865 
L 80.337627 161.540291 
L 80.401719 161.697109 
L 80.535338 162.020193 
L 80.722017 162.463194 
L 80.852098 162.766359 
L 80.98218 163.065175 
L 81.000383 163.106651 
L 81.209503 163.577382 
L 81.337748 163.86098 
L 81.469082 164.147562 
L 81.600416 164.430377 
L 81.676989 164.593579 
L 81.825243 164.906118 
L 81.93145 165.127302 
L 82.177811 165.631961 
L 82.28986 165.857738 
L 82.534124 166.342144 
L 82.672506 166.612002 
L 82.805544 166.86843 
L 82.863714 166.979644 
L 83.065727 167.361699 
L 83.196166 167.605033 
L 83.396038 167.972954 
L 83.567832 168.284557 
L 83.645479 168.424025 
L 83.903367 168.881316 
L 84.078082 169.186092 
L 84.205896 169.406561 
L 84.304367 169.575012 
L 84.514558 169.930582 
L 84.591369 170.05919 
L 84.86292 170.508319 
L 84.901118 170.570817 
L 85.19272 171.042563 
L 85.36344 171.31446 
L 85.519204 171.559854 
L 85.654594 171.771115 
L 85.818383 172.024213 
L 85.84145 172.059643 
L 86.068599 172.405757 
L 86.289884 172.738185 
L 86.356734 172.83771 
L 86.616946 173.221218 
L 86.66752 173.295047 
L 86.840673 173.546114 
L 86.996439 173.769747 
L 87.24058 174.116117 
L 87.338048 174.253011 
L 87.475792 174.445151 
L 87.610318 174.631328 
L 87.807498 174.901629 
L 88.023369 175.194095 
L 88.111901 175.313015 
L 88.331754 175.6058 
L 88.411836 175.711563 
L 88.625926 175.992031 
L 88.768085 176.176462 
L 88.961803 176.42551 
L 89.068333 176.561366 
L 89.222254 176.756298 
L 89.394066 176.972018 
L 89.511771 177.118679 
L 89.610111 177.240519 
L 89.900726 177.596961 
L 89.92986 177.632398 
L 90.076201 177.809606 
L 90.267021 178.03869 
L 90.37919 178.172319 
L 90.664552 178.508881 
L 90.797441 178.663978 
L 90.963154 178.855953 
L 91.101762 179.01532 
L 91.239218 179.172293 
L 91.321591 179.265855 
L 91.535081 179.5066 
L 91.639615 179.623571 
L 91.891089 179.902557 
L 92.021973 180.046432 
L 92.160819 180.198077 
L 92.382457 180.438079 
L 92.53593 180.602799 
L 92.649422 180.723844 
L 92.743059 180.823228 
L 92.977941 181.07062 
L 93.093256 181.19109 
L 93.279165 181.383958 
L 93.455131 181.564991 
L 93.626955 181.740356 
L 93.71742 181.832132 
L 93.856069 181.972057 
L 94.021755 182.138113 
L 94.243126 182.358041 
L 94.427808 182.539844 
L 94.474486 182.585555 
L 94.740127 182.843884 
L 94.793541 182.895457 
L 95.004221 183.097685 
L 95.167003 183.252646 
L 95.279374 183.358968 
L 95.441169 183.511127 
L 95.62901 183.686426 
L 95.722421 183.773062 
L 95.880777 183.919126 
L 96.021227 184.047828 
L 96.247551 184.25357 
L 96.337628 184.334894 
L 96.594464 184.565031 
L 96.668099 184.63054 
L 96.940726 184.871278 
L 96.952086 184.881249 
L 97.233665 185.126821 
L 97.274814 185.16246 
L 97.437381 185.302647 
L 97.641337 185.477149 
L 97.750232 185.569697 
L 97.909375 185.70418 
L 98.053522 185.825207 
L 98.241003 185.981511 
L 98.501441 186.196587 
L 98.631351 186.302986 
L 98.748314 186.398282 
L 98.841327 186.47373 
L 99.030167 186.625999 
L 99.157901 186.72831 
L 99.402799 186.922934 
L 99.478761 186.982896 
L 99.691613 187.149898 
L 99.891223 187.305161 
L 99.937719 187.34114 
L 100.21566 187.554762 
L 100.366633 187.669759 
L 100.548606 187.807408 
L 100.570365 187.823797 
L 100.739603 187.950761 
L 100.903491 188.072858 
L 101.043219 188.176298 
L 101.315373 188.376048 
L 101.374836 188.41939 
L 101.616515 188.594447 
L 101.69085 188.647936 
L 101.886623 188.788019 
L 102.040006 188.896973 
L 102.257602 189.050351 
L 102.372009 189.130437 
L 102.464642 189.195 
L 102.724465 189.37477 
L 102.853959 189.463641 
L 102.900393 189.495391 
L 103.129135 189.650905 
L 103.329003 189.785577 
L 103.398356 189.832046 
L 103.560067 189.939875 
L 103.753394 190.067834 
L 103.898451 190.163166 
L 104.091257 190.288986 
L 104.260834 190.398811 
L 104.448081 190.519176 
L 104.540568 190.578279 
L 104.704113 190.682233 
L 104.879426 190.792876 
L 105.050255 190.899907 
L 105.123514 190.94557 
L 105.25971 191.030091 
L 105.439377 191.140849 
L 105.681147 191.28857 
L 105.779481 191.348221 
L 105.95125 191.451824 
L 106.080131 191.529066 
L 106.310749 191.66623 
L 106.462599 191.755814 
L 106.601358 191.837169 
L 106.658101 191.8703 
L 106.892308 192.006198 
L 106.892308 138.046154 
z
" clip-path="url(#pb6d2b6e110)" style="fill: #808080; opacity: 0.5"/>
   </g>
   <g id="patch_7">
    <path d="M 200.353846 138.046154 
L 200.34446 139.1276 
L 200.335075 139.575491 
L 200.325689 139.919132 
L 200.316303 140.208801 
L 200.306917 140.463976 
L 200.297531 140.694645 
L 200.288146 140.906744 
L 200.27876 141.104138 
L 200.269374 141.289513 
L 200.259988 141.464826 
L 200.241217 141.790839 
L 200.222445 142.090571 
L 200.203674 142.369492 
L 200.184902 142.631401 
L 200.166131 142.879064 
L 200.147359 143.11457 
L 200.128587 143.339543 
L 200.091044 143.762804 
L 200.053501 144.156588 
L 200.021964 144.468576 
L 199.990426 144.765947 
L 199.958889 145.050563 
L 199.927352 145.323921 
L 199.864277 145.84155 
L 199.801202 146.326405 
L 199.738127 146.783942 
L 199.675052 147.218252 
L 199.611978 147.632491 
L 199.548903 148.029159 
L 199.482869 148.427797 
L 199.416836 148.811279 
L 199.350802 149.181171 
L 199.284769 149.538785 
L 199.218735 149.885234 
L 199.152702 150.22147 
L 199.020635 150.866498 
L 198.925955 151.308819 
L 198.831276 151.736203 
L 198.736597 152.150007 
L 198.641917 152.551393 
L 198.547238 152.941366 
L 198.452559 153.320799 
L 198.2632 154.051024 
L 198.138852 154.511759 
L 198.025505 154.919978 
L 197.912158 155.317808 
L 197.685465 156.085032 
L 197.52697 156.600965 
L 197.368476 157.101617 
L 197.209981 157.588162 
L 197.051486 158.061629 
L 196.905294 158.487538 
L 196.759101 158.903727 
L 196.484768 159.66043 
L 196.210435 160.388154 
L 195.905336 161.166783 
L 195.600238 161.916133 
L 195.320906 162.578811 
L 195.11199 163.060928 
L 194.903073 163.532214 
L 194.646569 164.096903 
L 194.390065 164.647136 
L 193.99438 165.469584 
L 193.598696 166.262526 
L 193.298803 166.845343 
L 192.951942 167.501255 
L 192.673916 168.013738 
L 192.39589 168.515067 
L 192.040738 169.140098 
L 191.685586 169.748832 
L 191.519589 170.028028 
L 191.166369 170.611339 
L 190.813148 171.180619 
L 190.560275 171.579952 
L 190.121527 172.257322 
L 189.552625 173.107984 
L 189.286362 173.495972 
L 188.840098 174.132491 
L 188.393834 174.752551 
L 188.001306 175.284996 
L 187.691475 175.697058 
L 187.202853 176.332802 
L 186.620619 177.068837 
L 186.090682 177.719468 
L 185.606768 178.298316 
L 185.325313 178.628535 
L 185.059454 178.936228 
L 184.471182 179.602925 
L 183.771657 180.371405 
L 183.5289 180.632165 
L 183.04352 181.14471 
L 182.718326 181.481687 
L 181.955361 182.252828 
L 181.337341 182.858224 
L 181.306794 182.887714 
L 180.495337 183.656628 
L 180.110502 184.011784 
L 179.646398 184.432232 
L 179.428019 184.627156 
L 178.790788 185.185557 
L 178.213723 185.678232 
L 177.618862 186.173582 
L 177.184433 186.527528 
L 177.105591 186.59107 
L 176.341516 187.196065 
L 175.71031 187.681422 
L 175.547945 187.80421 
L 175.087484 188.147934 
L 174.735075 188.406571 
L 173.852024 189.038194 
L 173.415047 189.342254 
L 173.048011 189.5934 
L 172.645017 189.864753 
L 172.096345 190.226926 
L 171.796139 190.421597 
L 171.276861 190.752592 
L 170.696978 191.113773 
L 170.441779 191.269946 
L 170.042018 191.511219 
L 169.170798 192.023048 
L 168.968944 192.13894 
L 168.204193 192.569004 
L 167.887819 192.742804 
L 167.37209 193.021039 
L 167.224404 193.099566 
L 166.621499 193.414901 
L 166.102821 193.679524 
L 165.502964 193.978006 
L 165.310176 194.072234 
L 164.88668 194.276347 
L 164.06947 194.659187 
L 163.580512 194.881399 
L 163.347723 194.985412 
L 162.801892 195.224838 
L 162.454995 195.373783 
L 161.907414 195.603853 
L 161.584111 195.736821 
L 161.12517 195.921948 
L 160.513498 196.162133 
L 159.847787 196.415129 
L 159.302818 196.615794 
L 159.101429 196.688493 
L 158.547509 196.884432 
L 158.084849 197.043605 
L 157.684232 197.178162 
L 157.234369 197.325669 
L 156.515703 197.5535 
L 156.236081 197.639568 
L 155.869502 197.750231 
L 155.4345 197.878369 
L 154.852854 198.044349 
L 154.214575 198.219492 
L 153.945132 198.291245 
L 153.183341 198.487151 
L 152.688427 198.608951 
L 152.68243 198.6104 
L 151.918361 198.789963 
L 151.32537 198.922347 
L 151.045302 198.982766 
L 150.595542 199.076977 
L 149.9559 199.205016 
L 149.679744 199.258147 
L 149.142717 199.357774 
L 148.464126 199.476719 
L 148.238696 199.514525 
L 147.850319 199.577665 
L 147.231548 199.673072 
L 146.779357 199.738776 
L 146.35741 199.797037 
L 145.724049 199.878981 
L 145.554379 199.899812 
L 144.839192 199.982437 
L 144.28628 200.040584 
L 144.212564 200.04796 
L 143.371453 200.125858 
L 143.160924 200.143558 
L 142.805861 200.171782 
L 142.300088 200.208462 
L 141.661065 200.248894 
L 141.083063 200.279792 
L 140.781232 200.293787 
L 140.219482 200.315931 
L 139.677051 200.332498 
L 139.249244 200.34223 
L 138.680939 200.350612 
L 138.388611 200.352905 
L 137.775241 200.353257 
L 137.417466 200.350674 
L 136.957203 200.34433 
L 136.622025 200.337569 
L 135.914484 200.317371 
L 135.695824 200.309502 
L 135.001286 200.279403 
L 134.484386 200.25196 
L 134.035875 200.224656 
L 133.605726 200.195419 
L 133.027541 200.151404 
L 132.51943 200.108251 
L 132.409517 200.098364 
L 131.977187 200.057573 
L 131.246442 199.981705 
L 130.667357 199.915386 
L 130.267105 199.866336 
L 129.818079 199.808175 
L 129.509313 199.766255 
L 129.187289 199.720857 
L 128.548218 199.625678 
L 128.064454 199.549115 
L 127.336178 199.426484 
L 126.91811 199.352068 
L 126.671126 199.306722 
L 126.35996 199.248126 
L 125.737209 199.125925 
L 125.075234 198.988781 
L 124.687967 198.905067 
L 124.16019 198.78682 
L 123.776592 198.697849 
L 123.417074 198.612139 
L 122.813102 198.463061 
L 122.614513 198.412643 
L 121.919248 198.230632 
L 121.407352 198.091127 
L 121.213409 198.037047 
L 120.557209 197.849041 
L 119.886753 197.648878 
L 119.768287 197.612655 
L 119.024078 197.37919 
L 118.711459 197.278055 
L 118.07745 197.067331 
L 117.796404 196.971498 
L 117.155319 196.747274 
L 116.688667 196.579104 
L 116.114167 196.366275 
L 115.869123 196.273534 
L 115.329582 196.065167 
L 115.04525 195.953035 
L 114.203752 195.611668 
L 114.15549 195.591655 
L 113.481997 195.307404 
L 113.082648 195.134436 
L 112.666526 194.950662 
L 112.234959 194.756212 
L 111.540865 194.435144 
L 111.16389 194.256405 
L 110.875872 194.117754 
L 110.126429 193.748376 
L 109.906025 193.637355 
L 109.40289 193.379796 
L 108.884284 193.108245 
L 108.294782 192.79197 
L 108.000075 192.630782 
L 107.300215 192.239657 
L 106.892308 192.006198 
L 106.892308 200.353846 
L 106.903058 201.511204 
L 106.913807 201.990527 
L 106.924557 202.358276 
L 106.935307 202.668262 
L 106.946057 202.94133 
L 106.956807 203.188171 
L 106.967556 203.415135 
L 106.978306 203.62636 
L 106.989056 203.824721 
L 106.999806 204.012312 
L 107.021306 204.361149 
L 107.042805 204.681854 
L 107.064305 204.980281 
L 107.085804 205.260498 
L 107.107304 205.525464 
L 107.128804 205.777416 
L 107.150303 206.018091 
L 107.193303 206.470872 
L 107.236302 206.89209 
L 107.279337 207.287819 
L 107.322372 207.661898 
L 107.365406 208.017498 
L 107.408441 208.357082 
L 107.451476 208.682611 
L 107.494511 208.995671 
L 107.537546 209.297574 
L 107.580581 209.589412 
L 107.66665 210.146466 
L 107.75272 210.672775 
L 107.83879 211.172829 
L 107.924859 211.650114 
L 108.032917 212.221302 
L 108.140975 212.765292 
L 108.249033 213.285517 
L 108.357091 213.784739 
L 108.502729 214.428283 
L 108.648367 215.042217 
L 108.770425 215.536567 
L 108.892484 216.014369 
L 109.014542 216.477095 
L 109.1366 216.926008 
L 109.304291 217.522205 
L 109.471981 218.096796 
L 109.639671 218.651818 
L 109.807362 219.189001 
L 109.976388 219.713916 
L 110.145414 220.223532 
L 110.299505 220.675762 
L 110.453597 221.117001 
L 110.607688 221.547937 
L 110.761779 221.969184 
L 110.970417 222.525092 
L 111.179054 223.065481 
L 111.369561 223.546277 
L 111.560068 224.015773 
L 111.791168 224.571082 
L 112.022267 225.111782 
L 112.372741 225.905972 
L 112.640267 226.492804 
L 112.907793 227.064069 
L 113.15509 227.579139 
L 113.402387 228.082439 
L 113.847501 228.960653 
L 114.158603 229.554756 
L 114.469704 230.13376 
L 114.65375 230.469543 
L 114.971144 231.037387 
L 115.288538 231.591688 
L 115.599753 232.122732 
L 115.910969 232.642044 
L 116.194796 233.105897 
L 116.672108 233.866069 
L 116.984752 234.351146 
L 117.297397 234.826564 
L 117.886428 235.697387 
L 117.990732 235.848345 
L 118.41576 236.453839 
L 119.082309 237.373646 
L 119.385892 237.781152 
L 119.854469 238.39681 
L 120.458686 239.167926 
L 121.169635 240.044305 
L 121.577238 240.532461 
L 122.133963 241.183207 
L 122.396527 241.483926 
L 122.868202 242.014535 
L 123.466647 242.670616 
L 123.960741 243.198425 
L 124.478554 243.738645 
L 124.639574 243.904012 
L 125.091129 244.3613 
L 125.719291 244.982048 
L 126.176737 245.423208 
L 126.546954 245.773734 
L 127.295015 246.464807 
L 127.473035 246.625965 
L 128.038762 247.129919 
L 128.442278 247.481933 
L 128.959112 247.923999 
L 129.373325 248.271321 
L 129.962188 248.7547 
L 130.322342 249.044464 
L 130.930836 249.524159 
L 131.527351 249.982669 
L 131.979943 250.322995 
L 132.203386 250.488655 
L 132.808215 250.929398 
L 132.969363 251.044964 
L 133.625065 251.507268 
L 134.27791 251.955165 
L 134.768744 252.283964 
L 135.269954 252.612821 
L 135.725144 252.905559 
L 136.048747 253.110296 
L 136.520353 253.40372 
L 136.928747 253.65314 
L 137.205549 253.819757 
L 137.68539 254.103989 
L 138.204066 254.404754 
L 138.675616 254.672448 
L 139.267002 255.000568 
L 139.953621 255.371097 
L 140.465692 255.640265 
L 140.841438 255.833937 
L 140.991208 255.910237 
L 141.508644 256.169949 
L 142.135072 256.476375 
L 142.353489 256.581182 
L 143.163107 256.960637 
L 143.660454 257.18676 
L 143.940382 257.311727 
L 144.392813 257.510228 
L 145.048346 257.790299 
L 145.576229 258.009427 
L 146.064356 258.207027 
L 146.432049 258.352716 
L 146.644855 258.435805 
L 147.326402 258.695891 
L 147.587916 258.793271 
L 148.056301 258.964362 
L 148.630308 259.168269 
L 149.117913 259.336541 
L 149.735491 259.543215 
L 150.173369 259.685421 
L 150.548956 259.804557 
L 151.124384 259.982033 
L 151.303054 260.035902 
L 152.069514 260.260398 
L 152.566578 260.40031 
L 152.769418 260.45613 
L 153.437655 260.63483 
L 153.773422 260.721629 
L 154.316958 260.857925 
L 154.619607 260.93157 
L 155.477522 261.131656 
L 155.735361 261.189296 
L 156.433921 261.339711 
L 156.796906 261.414568 
L 156.980225 261.451519 
L 157.492912 261.551825 
L 158.108603 261.666401 
L 158.643444 261.760748 
L 159.088837 261.835656 
L 159.488225 261.900007 
L 159.86898 261.958883 
L 160.585233 262.063119 
L 160.849434 262.099425 
L 161.335602 262.163229 
L 161.660622 262.203715 
L 162.170776 262.263769 
L 162.700844 262.321656 
L 163.225955 262.374482 
L 163.633182 262.412359 
L 164.010048 262.445012 
L 164.544403 262.487363 
L 165.031654 262.521952 
L 165.646919 262.560149 
L 165.903793 262.574289 
L 166.379546 262.59767 
L 166.850773 262.617236 
L 167.376353 262.634845 
L 167.916471 262.648317 
L 168.507378 262.657689 
L 168.719177 262.659683 
L 169.539837 262.660612 
L 169.66227 262.659824 
L 170.21349 262.653295 
L 170.63445 262.645024 
L 171.119374 262.631969 
L 171.884016 262.603702 
L 172.104516 262.593804 
L 172.868329 262.553459 
L 173.330563 262.524474 
L 173.430671 262.517742 
L 173.939917 262.480988 
L 174.605304 262.426636 
L 175.002641 262.390754 
L 175.540026 262.338139 
L 175.788828 262.312186 
L 176.258617 262.260424 
L 176.791392 262.197353 
L 177.45351 262.112474 
L 177.850817 262.058075 
L 178.251716 262.000541 
L 178.676806 261.936625 
L 179.186435 261.856038 
L 179.488078 261.806299 
L 180.318595 261.661475 
L 180.653775 261.59974 
L 181.133878 261.508004 
L 181.335908 261.468233 
L 182.011959 261.330089 
L 182.433726 261.239945 
L 183.086945 261.094288 
L 183.489088 261.000944 
L 183.784216 260.93065 
L 184.160018 260.838938 
L 184.951013 260.637792 
L 185.438825 260.508223 
L 185.815987 260.405137 
L 186.304348 260.267866 
L 186.622271 260.176191 
L 187.039164 260.053199 
L 187.644975 259.868814 
L 188.02664 259.749184 
L 188.7051 259.529851 
L 189.17136 259.374125 
L 189.691384 259.195597 
L 190.033544 259.075324 
L 190.478254 258.915646 
L 190.95205 258.741318 
L 191.289417 258.614521 
L 191.832847 258.405571 
L 192.154478 258.279147 
L 192.687597 258.065035 
L 193.402832 257.768752 
L 193.854076 257.576438 
L 194.446748 257.317433 
L 194.584457 257.2562 
L 195.323126 256.920893 
L 195.583973 256.799701 
L 196.077868 256.5662 
L 196.727304 256.251038 
L 196.882735 256.174225 
L 197.371185 255.929316 
L 197.930991 255.641988 
L 198.466184 255.360564 
L 198.854409 255.152245 
L 199.3903 254.85884 
L 200.10298 254.457953 
L 200.353846 254.313891 
z
" clip-path="url(#pb6d2b6e110)" style="fill: #808080; opacity: 0.5"/>
   </g>
   <g id="patch_8">
    <path d="M 231.507692 200.353846 
L 231.50352 199.632783 
L 231.499347 199.334126 
L 231.495175 199.10497 
L 231.491003 198.911792 
L 231.48683 198.741607 
L 231.482658 198.587757 
L 231.478485 198.446284 
L 231.474313 198.31461 
L 231.47014 198.190946 
L 231.465968 198.073987 
L 231.461796 197.96275 
L 231.457623 197.85647 
L 231.453451 197.754538 
L 231.449278 197.656461 
L 231.440933 197.470317 
L 231.432588 197.295504 
L 231.424244 197.130179 
L 231.415899 196.972949 
L 231.407554 196.822732 
L 231.399209 196.678669 
L 231.390864 196.540063 
L 231.382519 196.406338 
L 231.374174 196.277013 
L 231.359054 196.052616 
L 231.343933 195.839409 
L 231.328812 195.635876 
L 231.313691 195.440813 
L 231.29857 195.25325 
L 231.28345 195.072387 
L 231.268329 194.897558 
L 231.253208 194.728199 
L 231.235038 194.531253 
L 231.216868 194.340808 
L 231.198698 194.156266 
L 231.180528 193.977114 
L 231.162358 193.802911 
L 231.144188 193.63327 
L 231.126017 193.467855 
L 231.107847 193.306368 
L 231.089677 193.148546 
L 231.071507 192.994152 
L 231.035167 192.694824 
L 230.998827 192.406929 
L 230.962487 192.129265 
L 230.927681 191.871988 
L 230.892875 191.622427 
L 230.858069 191.379939 
L 230.823263 191.143964 
L 230.792097 190.937793 
L 230.760932 190.736142 
L 230.729766 190.538732 
L 230.6986 190.345312 
L 230.658313 190.100831 
L 230.618026 189.8622 
L 230.577739 189.629028 
L 230.537452 189.400968 
L 230.476156 189.063088 
L 230.41486 188.735352 
L 230.344972 188.372991 
L 230.275084 188.021668 
L 230.222228 187.762728 
L 230.169371 187.509224 
L 230.109115 187.226459 
L 230.048858 186.949929 
L 229.988602 186.679255 
L 229.928345 186.414096 
L 229.857402 186.108561 
L 229.786458 185.809788 
L 229.685199 185.39426 
L 229.625502 185.154926 
L 229.565806 184.919533 
L 229.506109 184.687905 
L 229.446413 184.459876 
L 229.376733 184.198062 
L 229.300879 183.918128 
L 229.225026 183.643227 
L 229.109623 183.234103 
L 228.99422 182.835291 
L 228.901694 182.522518 
L 228.831892 182.290458 
L 228.76209 182.061608 
L 228.622486 181.613069 
L 228.514515 181.274098 
L 228.378856 180.857397 
L 228.264187 180.51272 
L 228.149518 180.17458 
L 228.094409 180.014301 
L 227.961614 179.633778 
L 227.828819 179.260953 
L 227.711178 178.936783 
L 227.649949 178.770242 
L 227.482162 178.321185 
L 227.380553 178.054255 
L 227.278944 177.79094 
L 227.172295 177.518313 
L 227.065645 177.249395 
L 226.925591 176.901668 
L 226.877244 176.783016 
L 226.671165 176.284909 
L 226.553576 176.006036 
L 226.435987 175.730882 
L 226.349954 175.531854 
L 226.146648 175.068915 
L 225.968497 174.671435 
L 225.929745 174.585947 
L 225.786404 174.272676 
L 225.555961 173.778402 
L 225.41776 173.487287 
L 225.230986 173.099909 
L 225.01713 172.664562 
L 224.926215 172.482041 
L 224.794204 172.219649 
L 224.615504 171.869281 
L 224.492677 171.631582 
L 224.313409 171.28908 
L 224.192972 171.061842 
L 224.015251 170.730598 
L 223.772796 170.286281 
L 223.751648 170.247929 
L 223.471767 169.746268 
L 223.357985 169.545387 
L 223.150685 169.183794 
L 223.059831 169.027066 
L 222.960166 168.856337 
L 222.67337 168.371864 
L 222.658691 168.347333 
L 222.350365 167.837893 
L 222.287283 167.735003 
L 222.17377 167.550977 
L 221.98708 167.251388 
L 221.868083 167.062382 
L 221.683078 166.771484 
L 221.462581 166.429354 
L 221.280772 166.150897 
L 221.189006 166.011573 
L 221.028603 165.769971 
L 220.847946 165.500751 
L 220.648187 165.206547 
L 220.52472 165.026497 
L 220.466883 164.942616 
L 220.165118 164.509665 
L 220.046111 164.341049 
L 219.953736 164.21098 
L 219.8285 164.035758 
L 219.635484 163.768187 
L 219.453726 163.518924 
L 219.225242 163.209214 
L 219.077556 163.011137 
L 218.907466 162.785025 
L 218.899313 162.77424 
L 218.623062 162.411661 
L 218.46133 162.201914 
L 218.368558 162.082428 
L 218.2267 161.900872 
L 218.100103 161.740009 
L 217.960035 161.563286 
L 217.757044 161.309486 
L 217.513094 161.008027 
L 217.38941 160.856641 
L 217.23383 160.667581 
L 217.032078 160.424649 
L 216.950758 160.327435 
L 216.806478 160.155939 
L 216.711122 160.04328 
L 216.501595 159.797618 
L 216.388012 159.665518 
L 216.229014 159.481846 
L 216.063606 159.292296 
L 215.91221 159.120147 
L 215.690653 158.870503 
L 215.575538 158.741853 
L 215.440313 158.591638 
L 215.236948 158.367563 
L 215.082351 158.198676 
L 214.930529 158.034025 
L 214.818663 157.913463 
L 214.550121 157.62663 
L 214.486949 157.559678 
L 214.273328 157.334738 
L 214.205507 157.263791 
L 213.93184 156.979764 
L 213.808381 156.852802 
L 213.735358 156.778046 
L 213.568526 156.60819 
L 213.33854 156.37615 
L 213.256474 156.293937 
L 212.967118 156.006491 
L 212.857189 155.898269 
L 212.773237 155.815979 
L 212.528678 155.578025 
L 212.425001 155.47793 
L 212.181182 155.244352 
L 212.145871 155.210732 
L 211.97503 155.04882 
L 211.729001 154.817788 
L 211.626217 154.722008 
L 211.498124 154.603248 
L 211.388381 154.50203 
L 211.082592 154.222544 
L 211.038264 154.182337 
L 210.836139 153.999985 
L 210.621711 153.808273 
L 210.490994 153.692274 
L 210.302447 153.526104 
L 210.202832 153.438856 
L 210.108899 153.356926 
L 209.907212 153.182123 
L 209.743249 153.041126 
L 209.548204 152.874683 
L 209.496908 152.831139 
L 209.234939 152.610237 
L 209.16134 152.548618 
L 208.901044 152.33223 
L 208.821993 152.266985 
L 208.71516 152.179158 
L 208.539812 152.035861 
L 208.330422 151.86613 
L 208.104807 151.684919 
L 208.00355 151.604149 
L 207.872433 151.50007 
L 207.669907 151.340432 
L 207.579859 151.269888 
L 207.343214 151.085766 
L 207.208703 150.981921 
L 207.039264 150.851941 
L 206.960148 150.791565 
L 206.704833 150.598082 
L 206.608253 150.525429 
L 206.537627 150.472485 
L 206.263836 150.268713 
L 206.222336 150.238028 
L 205.912436 150.010569 
L 205.850524 149.965478 
L 205.650185 149.820367 
L 205.451061 149.677332 
L 205.286932 149.560324 
L 205.241491 149.528071 
L 205.069455 149.406513 
L 204.85637 149.257155 
L 204.693884 149.144152 
L 204.625865 149.097075 
L 204.403973 148.944423 
L 204.338198 148.899443 
L 204.064674 148.713716 
L 203.929622 148.622793 
L 203.75594 148.506614 
L 203.714154 148.478788 
L 203.526584 148.354479 
L 203.368473 148.250449 
L 203.146535 148.10558 
L 203.053589 148.045309 
L 202.849341 147.913686 
L 202.648955 147.785643 
L 202.512359 147.698977 
L 202.446242 147.657205 
L 202.172827 147.485697 
L 202.096864 147.438396 
L 201.890005 147.310354 
L 201.700869 147.194256 
L 201.626454 147.148832 
L 201.465835 147.051272 
L 201.359007 146.986751 
L 201.137155 146.85369 
L 200.925363 146.727828 
L 200.82714 146.66984 
L 200.701053 146.595757 
L 200.445722 146.446951 
L 200.353846 146.393802 
L 200.353846 254.313891 
L 200.465537 254.249252 
L 200.672555 254.128625 
L 200.889154 254.001269 
L 200.984675 253.944731 
L 201.133205 253.856359 
L 201.268838 253.775173 
L 201.439315 253.672465 
L 201.5478 253.606718 
L 201.806166 253.448916 
L 201.842748 253.426434 
L 202.007313 253.324864 
L 202.304377 253.139722 
L 202.394748 253.082939 
L 202.48855 253.023771 
L 202.680716 252.901826 
L 202.834027 252.80383 
L 203.086754 252.640904 
L 203.173556 252.584546 
L 203.391859 252.441899 
L 203.468475 252.391526 
L 203.68674 252.247134 
L 203.751682 252.203916 
L 204.002285 252.036043 
L 204.163338 251.927226 
L 204.241321 251.874273 
L 204.41207 251.757724 
L 204.510826 251.689936 
L 204.797939 251.491262 
L 204.899501 251.420412 
L 204.97592 251.366904 
L 205.240191 251.180543 
L 205.373642 251.085652 
L 205.583699 250.935216 
L 205.723818 250.834132 
L 205.794445 250.782956 
L 206.010546 250.62543 
L 206.196165 250.488986 
L 206.281946 250.425573 
L 206.486059 250.273765 
L 206.566769 250.21338 
L 206.826355 250.017776 
L 206.881736 249.97577 
L 207.031661 249.861562 
L 207.245917 249.697101 
L 207.444583 249.54328 
L 207.505813 249.495612 
L 207.637725 249.392503 
L 207.864512 249.213892 
L 208.021443 249.089296 
L 208.128263 249.004014 
L 208.271711 248.888884 
L 208.505511 248.699739 
L 208.71897 248.52541 
L 208.821282 248.441293 
L 208.907218 248.370357 
L 209.068148 248.236821 
L 209.231358 248.100457 
L 209.422259 247.939751 
L 209.649402 247.746824 
L 209.687408 247.71436 
L 209.874441 247.553829 
L 209.999098 247.446118 
L 210.193011 247.277417 
L 210.424919 247.073805 
L 210.482598 247.022847 
L 210.761845 246.774333 
L 210.913194 246.638379 
L 211.001576 246.558573 
L 211.103554 246.466108 
L 211.345424 246.24515 
L 211.492734 246.109427 
L 211.673929 245.941278 
L 211.779386 245.842794 
L 211.87513 245.752985 
L 212.152638 245.490521 
L 212.277882 245.371006 
L 212.412528 245.241773 
L 212.559011 245.100295 
L 212.668852 244.993598 
L 212.81103 244.854707 
L 213.068541 244.600876 
L 213.211361 244.458819 
L 213.385025 244.284839 
L 213.46876 244.200459 
L 213.61637 244.050924 
L 213.739647 243.925263 
L 214.039795 243.616317 
L 214.09273 243.561384 
L 214.353464 243.288835 
L 214.395778 243.24429 
L 214.626578 242.999767 
L 214.758258 242.859065 
L 214.874847 242.733757 
L 215.015434 242.581734 
L 215.215681 242.363435 
L 215.323526 242.245001 
L 215.504477 242.044899 
L 215.695849 241.831364 
L 215.900229 241.601114 
L 216.029535 241.454249 
L 216.239885 241.213334 
L 216.301437 241.142363 
L 216.442158 240.979295 
L 216.672914 240.709402 
L 216.847731 240.502847 
L 216.99038 240.332942 
L 217.132107 240.16291 
L 217.298369 239.961868 
L 217.489023 239.729204 
L 217.63686 239.547201 
L 217.74769 239.409835 
L 217.826893 239.311179 
L 218.045961 239.03615 
L 218.261103 238.762917 
L 218.345626 238.654707 
L 218.587647 238.342119 
L 218.718758 238.171053 
L 218.882639 237.955494 
L 219.058421 237.7221 
L 219.065928 237.712081 
L 219.339951 237.343491 
L 219.49597 237.131066 
L 219.631867 236.944492 
L 219.774163 236.747562 
L 219.913143 236.553648 
L 220.066974 236.337168 
L 220.215313 236.126551 
L 220.453197 235.784882 
L 220.602896 235.56735 
L 220.704628 235.418384 
L 220.834275 235.22719 
L 220.966291 235.030922 
L 221.158481 234.742285 
L 221.337402 234.470409 
L 221.509408 234.206089 
L 221.702708 233.905511 
L 221.83691 233.694575 
L 221.950456 233.514635 
L 222.186138 233.136734 
L 222.331556 232.900525 
L 222.50047 232.623157 
L 222.642171 232.387936 
L 222.792632 232.135576 
L 222.90812 231.940019 
L 223.019162 231.750444 
L 223.186046 231.462613 
L 223.332906 231.20635 
L 223.528133 230.861263 
L 223.639501 230.662084 
L 223.780014 230.408307 
L 223.926826 230.140135 
L 224.169552 229.689777 
L 224.232489 229.57154 
L 224.464637 229.130024 
L 224.591939 228.88421 
L 224.71291 228.648109 
L 224.853117 228.371324 
L 224.993324 228.091068 
L 225.051262 227.97422 
L 225.204578 227.662009 
L 225.379354 227.300621 
L 225.595941 226.844341 
L 225.699291 226.623195 
L 225.847916 226.301141 
L 226.018202 225.926106 
L 226.193362 225.533307 
L 226.398979 225.062657 
L 226.459519 224.922038 
L 226.570118 224.662654 
L 226.680717 224.399963 
L 226.85411 223.981205 
L 227.027147 223.554484 
L 227.05562 223.483389 
L 227.17517 223.182078 
L 227.29472 222.876102 
L 227.403741 222.592846 
L 227.512761 222.305393 
L 227.650454 221.936082 
L 227.82279 221.463489 
L 227.852928 221.379607 
L 227.942178 221.128953 
L 228.031428 220.874851 
L 228.13694 220.569821 
L 228.242452 220.259559 
L 228.312242 220.051341 
L 228.420615 219.723081 
L 228.528988 219.388543 
L 228.631346 219.066507 
L 228.733703 218.738262 
L 228.791536 218.549928 
L 228.906016 218.170696 
L 229.020497 217.782462 
L 229.086614 217.553903 
L 229.152731 217.322008 
L 229.234542 217.030246 
L 229.316352 216.73288 
L 229.430409 216.308356 
L 229.487437 216.09149 
L 229.544466 215.871384 
L 229.601581 215.647557 
L 229.696789 215.266493 
L 229.791998 214.874809 
L 229.888466 214.466203 
L 229.9367 214.257147 
L 229.984934 214.044729 
L 230.051822 213.7443 
L 230.11871 213.436631 
L 230.163157 213.227928 
L 230.207604 213.015629 
L 230.272263 212.699986 
L 230.336923 212.375711 
L 230.385467 212.126152 
L 230.434011 211.870982 
L 230.482555 211.60982 
L 230.531099 211.342239 
L 230.566063 211.14527 
L 230.601027 210.944524 
L 230.63599 210.73978 
L 230.670954 210.530798 
L 230.702564 210.337989 
L 230.734175 210.14128 
L 230.765785 209.940431 
L 230.797396 209.735176 
L 230.829006 209.525221 
L 230.860617 209.310233 
L 230.892227 209.089842 
L 230.923838 208.863628 
L 230.964007 208.567004 
L 231.004176 208.259054 
L 231.024261 208.100412 
L 231.044346 207.938399 
L 231.06443 207.772794 
L 231.084515 207.603352 
L 231.112334 207.361798 
L 231.140154 207.111501 
L 231.159319 206.933463 
L 231.178484 206.750415 
L 231.197649 206.561913 
L 231.216814 206.367443 
L 231.235979 206.166408 
L 231.255144 205.958101 
L 231.274309 205.741678 
L 231.293474 205.516118 
L 231.306862 205.352463 
L 231.320251 205.183229 
L 231.33364 205.007806 
L 231.347028 204.825467 
L 231.360417 204.635327 
L 231.373806 204.436298 
L 231.387194 204.227008 
L 231.393889 204.117984 
L 231.400583 204.005695 
L 231.407277 203.889828 
L 231.413972 203.770021 
L 231.420666 203.645843 
L 231.42736 203.51678 
L 231.434055 203.382206 
L 231.440749 203.241352 
L 231.447443 203.093248 
L 231.454138 202.936648 
L 231.460832 202.769901 
L 231.467526 202.590739 
L 231.474221 202.395895 
L 231.480915 202.180359 
L 231.487609 201.935695 
L 231.494304 201.645455 
L 231.500998 201.267176 
z
" clip-path="url(#pb6d2b6e110)" style="fill: #808080; opacity: 0.5"/>
   </g>
   <g id="matplotlib.axis_1"/>
   <g id="matplotlib.axis_2"/>
   <g id="line2d_1">
    <path d="M 106.892308 84.086109 
L 110.21353 82.300359 
L 113.735704 80.676732 
L 117.43571 79.246 
L 120.902943 78.143242 
L 124.807462 77.161135 
L 128.595615 76.459338 
L 132.36715 75.997806 
L 136.043051 75.770668 
L 139.763397 75.76213 
L 143.337938 75.963584 
L 147.351051 76.437166 
L 151.111687 77.123741 
L 154.71396 78.009226 
L 158.382236 79.150549 
L 161.736095 80.41773 
L 165.230978 81.981603 
L 168.760212 83.834576 
L 172.128226 85.886199 
L 175.344586 88.135479 
L 178.405764 90.576686 
L 180.924958 92.839333 
L 183.278991 95.194795 
L 185.570241 97.750873 
L 188.047931 100.869941 
L 190.260729 104.047821 
L 192.096799 107.049763 
L 193.923716 110.479024 
L 195.435192 113.782047 
L 196.809349 117.33057 
L 198.001899 121.088643 
L 198.919317 124.753053 
L 199.626714 128.554938 
L 200.088203 132.298751 
L 200.315897 135.871852 
L 200.353846 138.046154 
L 200.353846 138.046154 
" clip-path="url(#pb6d2b6e110)" style="fill: none; stroke: #0000ff; stroke-linecap: square"/>
   </g>
   <g id="line2d_2">
    <path d="M 75.738462 138.046154 
L 75.856664 134.210032 
L 76.196539 130.504691 
L 76.734092 126.952031 
L 77.501777 123.3279 
L 78.491201 119.730691 
L 79.709188 116.159012 
L 81.07012 112.827507 
L 82.674214 109.476995 
L 84.446514 106.276245 
L 86.564903 102.947303 
L 88.705164 99.9973 
L 91.114697 97.062171 
L 93.592932 94.386566 
L 96.338491 91.756637 
L 99.217829 89.316186 
L 102.15065 87.117171 
L 105.144875 85.133448 
L 106.892308 84.086109 
L 106.892308 84.086109 
" clip-path="url(#pb6d2b6e110)" style="fill: none; stroke: #0000ff; stroke-linecap: square"/>
   </g>
   <g id="line2d_3">
    <path d="M 75.738462 138.046154 
L 75.874029 142.154126 
L 76.227208 145.835021 
L 76.806758 149.534622 
L 77.580216 153.083404 
L 78.620064 156.775497 
L 79.82284 160.23386 
L 81.209503 163.577382 
L 82.863714 166.979644 
L 84.591369 170.05919 
L 86.66752 173.295047 
L 88.768085 176.176462 
L 91.101762 179.01532 
L 93.626955 181.740356 
L 96.337628 184.334894 
L 99.157901 186.72831 
L 102.257602 189.050351 
L 105.25971 191.030091 
L 106.892308 192.006198 
L 106.892308 192.006198 
" clip-path="url(#pb6d2b6e110)" style="fill: none; stroke: #0000ff; stroke-linecap: square"/>
   </g>
   <g id="line2d_4">
    <path d="M 106.892308 200.353846 
L 107.042805 204.681854 
L 107.408441 208.357082 
L 107.924859 211.650114 
L 108.770425 215.536567 
L 109.807362 219.189001 
L 110.970417 222.525092 
L 112.372741 225.905972 
L 113.847501 228.960653 
L 115.599753 232.122732 
L 117.297397 234.826564 
L 119.385892 237.781152 
L 121.577238 240.532461 
L 123.960741 243.198425 
L 126.546954 245.773734 
L 129.373325 248.271321 
L 132.203386 250.488655 
L 135.269954 252.612821 
L 138.675616 254.672448 
L 142.135072 256.476375 
L 145.576229 258.009427 
L 149.117913 259.336541 
L 152.769418 260.45613 
L 156.433921 261.339711 
L 159.86898 261.958883 
L 163.633182 262.412359 
L 167.376353 262.634845 
L 171.119374 262.631969 
L 175.002641 262.390754 
L 178.676806 261.936625 
L 182.433726 261.239945 
L 186.304348 260.267866 
L 189.691384 259.195597 
L 192.687597 258.065035 
L 196.077868 256.5662 
L 199.3903 254.85884 
L 200.353846 254.313891 
L 200.353846 254.313891 
" clip-path="url(#pb6d2b6e110)" style="fill: none; stroke: #228b22; stroke-linecap: square"/>
   </g>
   <g id="line2d_5">
    <path d="M 200.353846 254.313891 
L 203.468475 252.391526 
L 206.566769 250.21338 
L 209.422259 247.939751 
L 212.277882 245.371006 
L 214.874847 242.733757 
L 217.298369 239.961868 
L 219.631867 236.944492 
L 221.702708 233.905511 
L 223.639501 230.662084 
L 225.379354 227.300621 
L 226.85411 223.981205 
L 228.13694 220.569821 
L 229.234542 217.030246 
L 230.11871 213.436631 
L 230.797396 209.735176 
L 231.255144 205.958101 
L 231.480915 202.180359 
L 231.507692 200.353846 
L 231.507692 200.353846 
" clip-path="url(#pb6d2b6e110)" style="fill: none; stroke: #228b22; stroke-linecap: square"/>
   </g>
   <g id="text_1">
    <!-- $\Omega$ -->
    <g transform="translate(16.011538 22.420913)scale(0.1 -0.1)">
     <defs>
      <path id="Cmr10-ad" d="M 494 0 
L 281 1063 
L 469 1063 
Q 503 878 531 736 
Q 559 594 604 536 
Q 650 478 750 459 
Q 850 441 1081 441 
L 1472 441 
Q 1378 803 1004 1386 
Q 631 1969 495 2233 
Q 359 2497 359 2913 
Q 359 3397 646 3761 
Q 934 4125 1389 4319 
Q 1844 4513 2309 4513 
Q 2772 4513 3226 4319 
Q 3681 4125 3968 3758 
Q 4256 3391 4256 2913 
Q 4256 2588 4137 2300 
Q 4019 2013 3834 1725 
Q 3650 1438 3436 1084 
Q 3222 731 3144 441 
L 3531 441 
Q 3766 441 3869 459 
Q 3972 478 4015 536 
Q 4059 594 4086 736 
Q 4113 878 4147 1063 
L 4331 1063 
L 4122 0 
L 2988 0 
Q 2925 0 2925 84 
Q 2925 409 3004 721 
Q 3084 1034 3240 1478 
Q 3397 1922 3484 2261 
Q 3572 2600 3572 2913 
Q 3572 3297 3422 3625 
Q 3272 3953 2984 4150 
Q 2697 4347 2309 4347 
Q 1725 4347 1384 3930 
Q 1044 3513 1044 2913 
Q 1047 2584 1122 2293 
Q 1197 2003 1364 1518 
Q 1531 1034 1611 721 
Q 1691 409 1691 84 
Q 1691 0 1625 0 
L 494 0 
z
" transform="scale(0.015625)"/>
     </defs>
     <use xlink:href="#Cmr10-ad" transform="translate(0 0.484375)"/>
    </g>
   </g>
   <g id="text_2">
    <!-- $A$ -->
    <g style="fill: #0000ff" transform="translate(103.142308 78.497837)scale(0.1 -0.1)">
     <defs>
      <path id="Cmmi10-41" d="M 288 0 
Q 225 0 225 84 
Q 250 225 306 225 
Q 566 225 755 328 
Q 944 431 1081 647 
Q 1094 659 1094 659 
L 3378 4513 
Q 3428 4581 3500 4581 
L 3584 4581 
Q 3603 4581 3622 4573 
Q 3641 4566 3655 4548 
Q 3669 4531 3669 4513 
L 4056 378 
Q 4056 350 4084 294 
Q 4147 225 4563 225 
Q 4628 225 4628 141 
Q 4606 56 4592 28 
Q 4578 0 4519 0 
L 2919 0 
Q 2859 0 2859 84 
Q 2894 225 2944 225 
Q 3450 225 3481 397 
L 3384 1453 
L 1806 1453 
L 1294 594 
Q 1247 525 1247 434 
Q 1247 322 1355 273 
Q 1463 225 1594 225 
Q 1656 225 1656 141 
Q 1634 50 1621 25 
Q 1609 0 1550 0 
L 288 0 
z
M 1931 1678 
L 3359 1678 
L 3169 3750 
L 1931 1678 
z
" transform="scale(0.015625)"/>
     </defs>
     <use xlink:href="#Cmmi10-41" transform="translate(0 0.421875)"/>
    </g>
   </g>
   <g id="text_3">
    <!-- $B$ -->
    <g style="fill: #ff0000" transform="translate(227.707692 78.497837)scale(0.1 -0.1)">
     <defs>
      <path id="Cmmi10-42" d="M 319 0 
Q 256 0 256 84 
Q 259 100 268 137 
Q 278 175 293 200 
Q 309 225 341 225 
Q 522 225 656 234 
Q 791 244 884 269 
Q 959 297 1006 441 
L 1881 3956 
Q 1894 4019 1894 4044 
Q 1894 4113 1819 4122 
Q 1697 4147 1356 4147 
Q 1294 4147 1294 4231 
Q 1297 4247 1306 4286 
Q 1316 4325 1333 4348 
Q 1350 4372 1375 4372 
L 3669 4372 
Q 3878 4372 4083 4320 
Q 4288 4269 4461 4156 
Q 4634 4044 4736 3876 
Q 4838 3709 4838 3488 
Q 4838 3247 4714 3040 
Q 4591 2834 4395 2681 
Q 4200 2528 3973 2429 
Q 3747 2331 3500 2284 
Q 3675 2284 3854 2215 
Q 4034 2147 4175 2028 
Q 4316 1909 4402 1743 
Q 4488 1578 4488 1388 
Q 4488 1003 4219 684 
Q 3950 366 3542 183 
Q 3134 0 2753 0 
L 319 0 
z
M 1497 275 
Q 1497 225 1716 225 
L 2631 225 
Q 2944 225 3231 398 
Q 3519 572 3692 859 
Q 3866 1147 3866 1459 
Q 3866 1650 3786 1820 
Q 3706 1991 3556 2089 
Q 3406 2188 3213 2188 
L 1966 2188 
L 1522 416 
Q 1497 328 1497 275 
z
M 2009 2356 
L 2981 2356 
Q 3288 2356 3577 2512 
Q 3866 2669 4048 2937 
Q 4231 3206 4231 3506 
Q 4231 3784 4057 3965 
Q 3884 4147 3609 4147 
L 2731 4147 
Q 2559 4147 2500 4115 
Q 2441 4084 2400 3928 
L 2009 2356 
z
" transform="scale(0.015625)"/>
     </defs>
     <use xlink:href="#Cmmi10-42" transform="translate(0 0.6875)"/>
    </g>
   </g>
   <g id="text_4">
    <!-- $C$ -->
    <g style="fill: #228b22" transform="translate(150.023077 271.651683)scale(0.1 -0.1)">
     <defs>
      <path id="Cmmi10-43" d="M 934 1381 
Q 934 997 1082 705 
Q 1231 413 1514 248 
Q 1797 84 2181 84 
Q 2584 84 2957 290 
Q 3331 497 3595 842 
Q 3859 1188 3956 1575 
Q 3969 1613 4006 1613 
L 4084 1613 
Q 4109 1613 4125 1595 
Q 4141 1578 4141 1556 
Q 4141 1550 4134 1538 
Q 4025 1094 3711 705 
Q 3397 316 2959 87 
Q 2522 -141 2059 -141 
Q 1559 -141 1162 84 
Q 766 309 545 709 
Q 325 1109 325 1613 
Q 325 2150 565 2676 
Q 806 3203 1212 3614 
Q 1619 4025 2139 4269 
Q 2659 4513 3194 4513 
Q 3406 4513 3600 4448 
Q 3794 4384 3959 4253 
Q 4125 4122 4231 3950 
L 4738 4500 
Q 4738 4513 4769 4513 
L 4806 4513 
Q 4831 4513 4847 4491 
Q 4863 4469 4863 4447 
L 4428 2719 
Q 4428 2675 4378 2675 
L 4263 2675 
Q 4213 2675 4213 2747 
Q 4238 2888 4238 3084 
Q 4238 3397 4131 3673 
Q 4025 3950 3801 4119 
Q 3578 4288 3256 4288 
Q 2734 4288 2300 4025 
Q 1866 3763 1564 3336 
Q 1263 2909 1098 2389 
Q 934 1869 934 1381 
z
" transform="scale(0.015625)"/>
     </defs>
     <use xlink:href="#Cmmi10-43" transform="translate(0 0.484375)"/>
    </g>
   </g>
   <g id="patch_9">
    <path d="M 138.046154 200.353846 
C 154.570347 200.353846 170.419977 193.788715 182.104346 182.104346 
C 193.788715 170.419977 200.353846 154.570347 200.353846 138.046154 
C 200.353846 121.521961 193.788715 105.672331 182.104346 93.987962 
C 170.419977 82.303593 154.570347 75.738462 138.046154 75.738462 
C 121.521961 75.738462 105.672331 82.303593 93.987962 93.987962 
C 82.303593 105.672331 75.738462 121.521961 75.738462 138.046154 
C 75.738462 154.570347 82.303593 170.419977 93.987962 182.104346 
C 105.672331 193.788715 121.521961 200.353846 138.046154 200.353846 
L 138.046154 200.353846 
z
" clip-path="url(#pb6d2b6e110)" style="fill: none; stroke: #0000ff; stroke-linejoin: miter"/>
   </g>
   <g id="patch_10">
    <path d="M 200.353846 200.353846 
C 216.878039 200.353846 232.727669 193.788715 244.412038 182.104346 
C 256.096407 170.419977 262.661538 154.570347 262.661538 138.046154 
C 262.661538 121.521961 256.096407 105.672331 244.412038 93.987962 
C 232.727669 82.303593 216.878039 75.738462 200.353846 75.738462 
C 183.829653 75.738462 167.980023 82.303593 156.295654 93.987962 
C 144.611285 105.672331 138.046154 121.521961 138.046154 138.046154 
C 138.046154 154.570347 144.611285 170.419977 156.295654 182.104346 
C 167.980023 193.788715 183.829653 200.353846 200.353846 200.353846 
L 200.353846 200.353846 
z
" clip-path="url(#pb6d2b6e110)" style="fill: none; stroke: #ff0000; stroke-linejoin: miter"/>
   </g>
   <g id="patch_11">
    <path d="M 169.2 262.661538 
C 185.724193 262.661538 201.573823 256.096407 213.258192 244.412038 
C 224.942561 232.727669 231.507692 216.878039 231.507692 200.353846 
C 231.507692 183.829653 224.942561 167.980023 213.258192 156.295654 
C 201.573823 144.611285 185.724193 138.046154 169.2 138.046154 
C 152.675807 138.046154 136.826177 144.611285 125.141808 156.295654 
C 113.457439 167.980023 106.892308 183.829653 106.892308 200.353846 
C 106.892308 216.878039 113.457439 232.727669 125.141808 244.412038 
C 136.826177 256.096407 152.675807 262.661538 169.2 262.661538 
L 169.2 262.661538 
z
" clip-path="url(#pb6d2b6e110)" style="fill: none; stroke: #228b22; stroke-linejoin: miter"/>
   </g>
  </g>
 </g>
 <defs>
  <clipPath id="pb6d2b6e110">
   <rect x="7.2" y="7.2" width="324" height="324"/>
  </clipPath>
 </defs>
</svg>
