<?xml version="1.0" encoding="utf-8" standalone="no"?>
<!DOCTYPE svg PUBLIC "-//W3C//DTD SVG 1.1//EN"
  "http://www.w3.org/Graphics/SVG/1.1/DTD/svg11.dtd">
<svg xmlns:xlink="http://www.w3.org/1999/xlink" width="338.4pt" height="338.4pt" viewBox="0 0 338.4 338.4" xmlns="http://www.w3.org/2000/svg" version="1.1">
 <metadata>
  <rdf:RDF xmlns:dc="http://purl.org/dc/elements/1.1/" xmlns:cc="http://creativecommons.org/ns#" xmlns:rdf="http://www.w3.org/1999/02/22-rdf-syntax-ns#">
   <cc:Work>
    <dc:type rdf:resource="http://purl.org/dc/dcmitype/StillImage"/>
    <dc:date>2022-08-25T17:40:08.696580</dc:date>
    <dc:format>image/svg+xml</dc:format>
    <dc:creator>
     <cc:Agent>
      <dc:title>Matplotlib v3.5.2, https://matplotlib.org/</dc:title>
     </cc:Agent>
    </dc:creator>
   </cc:Work>
  </rdf:RDF>
 </metadata>
 <defs>
  <style type="text/css">*{stroke-linejoin: round; stroke-linecap: butt}</style>
 </defs>
 <g id="figure_1">
  <g id="patch_1">
   <path d="M -0 338.4 
L 338.4 338.4 
L 338.4 0 
L -0 0 
z
" style="fill: #ffffff"/>
  </g>
  <g id="axes_1">
   <g id="patch_2">
    <path d="M 7.2 331.2 
L 331.2 331.2 
L 331.2 7.2 
L 7.2 7.2 
z
" style="fill: #ffffff"/>
   </g>
   <g id="patch_3">
    <path d="M 184.776923 44.584615 
C 184.776923 42.539073 184.373996 40.51342 183.5912 38.623585 
C 182.808405 36.73375 181.660965 35.016485 180.214548 33.570067 
C 178.768131 32.12365 177.050866 30.97621 175.16103 30.193415 
C 173.271195 29.41062 171.245543 29.007692 169.2 29.007692 
C 167.154457 29.007692 165.128805 29.41062 163.23897 30.193415 
C 161.349134 30.97621 159.631869 32.12365 158.185452 33.570067 
C 156.739035 35.016485 155.591595 36.73375 154.8088 38.623585 
C 154.026004 40.51342 153.623077 42.539073 153.623077 44.584615 
C 153.623077 46.630158 154.026004 48.655811 154.8088 50.545646 
C 155.591595 52.435481 156.739035 54.152746 158.185452 55.599163 
C 159.631869 57.045581 161.349134 58.19302 163.23897 58.975816 
C 165.128805 59.758611 167.154457 60.161538 169.2 60.161538 
C 171.245543 60.161538 173.271195 59.758611 175.16103 58.975816 
C 177.050866 58.19302 178.768131 57.045581 180.214548 55.599163 
C 181.660965 54.152746 182.808405 52.435481 183.5912 50.545646 
C 184.373996 48.655811 184.776923 46.630158 184.776923 44.584615 
M 169.2 44.584615 
M 184.776923 44.584615 
z
" clip-path="url(#paa906a7825)" style="fill: #0000ff"/>
   </g>
   <g id="patch_4">
    <path d="M 60.161538 106.892308 
C 60.161538 104.846765 59.758611 102.821112 58.975816 100.931277 
C 58.19302 99.041442 57.045581 97.324177 55.599163 95.87776 
C 54.152746 94.431343 52.435481 93.283903 50.545646 92.501107 
C 48.655811 91.718312 46.630158 91.315385 44.584615 91.315385 
C 42.539073 91.315385 40.51342 91.718312 38.623585 92.501107 
C 36.73375 93.283903 35.016485 94.431343 33.570067 95.87776 
C 32.12365 97.324177 30.97621 99.041442 30.193415 100.931277 
C 29.41062 102.821112 29.007692 104.846765 29.007692 106.892308 
C 29.007692 108.93785 29.41062 110.963503 30.193415 112.853338 
C 30.97621 114.743173 32.12365 116.460438 33.570067 117.906856 
C 35.016485 119.353273 36.73375 120.500713 38.623585 121.283508 
C 40.51342 122.066303 42.539073 122.469231 44.584615 122.469231 
C 46.630158 122.469231 48.655811 122.066303 50.545646 121.283508 
C 52.435481 120.500713 54.152746 119.353273 55.599163 117.906856 
C 57.045581 116.460438 58.19302 114.743173 58.975816 112.853338 
C 59.758611 110.963503 60.161538 108.93785 60.161538 106.892308 
M 44.584615 106.892308 
M 60.161538 106.892308 
z
" clip-path="url(#paa906a7825)" style="fill: #ff0000"/>
   </g>
   <g id="patch_5">
    <path d="M 122.469231 106.892308 
C 122.469231 104.846765 122.066303 102.821112 121.283508 100.931277 
C 120.500713 99.041442 119.353273 97.324177 117.906856 95.87776 
C 116.460438 94.431343 114.743173 93.283903 112.853338 92.501107 
C 110.963503 91.718312 108.93785 91.315385 106.892308 91.315385 
C 104.846765 91.315385 102.821112 91.718312 100.931277 92.501107 
C 99.041442 93.283903 97.324177 94.431343 95.87776 95.87776 
C 94.431343 97.324177 93.283903 99.041442 92.501107 100.931277 
C 91.718312 102.821112 91.315385 104.846765 91.315385 106.892308 
C 91.315385 108.93785 91.718312 110.963503 92.501107 112.853338 
C 93.283903 114.743173 94.431343 116.460438 95.87776 117.906856 
C 97.324177 119.353273 99.041442 120.500713 100.931277 121.283508 
C 102.821112 122.066303 104.846765 122.469231 106.892308 122.469231 
C 108.93785 122.469231 110.963503 122.066303 112.853338 121.283508 
C 114.743173 120.500713 116.460438 119.353273 117.906856 117.906856 
C 119.353273 116.460438 120.500713 114.743173 121.283508 112.853338 
C 122.066303 110.963503 122.469231 108.93785 122.469231 106.892308 
M 106.892308 106.892308 
M 122.469231 106.892308 
z
" clip-path="url(#paa906a7825)" style="fill: #0000ff"/>
   </g>
   <g id="patch_6">
    <path d="M 184.776923 44.584615 
C 184.776923 42.539073 184.373996 40.51342 183.5912 38.623585 
C 182.808405 36.73375 181.660965 35.016485 180.214548 33.570067 
C 178.768131 32.12365 177.050866 30.97621 175.16103 30.193415 
C 173.271195 29.41062 171.245543 29.007692 169.2 29.007692 
C 167.154457 29.007692 165.128805 29.41062 163.23897 30.193415 
C 161.349134 30.97621 159.631869 32.12365 158.185452 33.570067 
C 156.739035 35.016485 155.591595 36.73375 154.8088 38.623585 
C 154.026004 40.51342 153.623077 42.539073 153.623077 44.584615 
C 153.623077 46.630158 154.026004 48.655811 154.8088 50.545646 
C 155.591595 52.435481 156.739035 54.152746 158.185452 55.599163 
C 159.631869 57.045581 161.349134 58.19302 163.23897 58.975816 
C 165.128805 59.758611 167.154457 60.161538 169.2 60.161538 
C 171.245543 60.161538 173.271195 59.758611 175.16103 58.975816 
C 177.050866 58.19302 178.768131 57.045581 180.214548 55.599163 
C 181.660965 54.152746 182.808405 52.435481 183.5912 50.545646 
C 184.373996 48.655811 184.776923 46.630158 184.776923 44.584615 
M 169.2 44.584615 
M 184.776923 44.584615 
z
" clip-path="url(#paa906a7825)" style="fill: #0000ff"/>
   </g>
   <g id="patch_7">
    <path d="M 60.161538 106.892308 
C 60.161538 104.846765 59.758611 102.821112 58.975816 100.931277 
C 58.19302 99.041442 57.045581 97.324177 55.599163 95.87776 
C 54.152746 94.431343 52.435481 93.283903 50.545646 92.501107 
C 48.655811 91.718312 46.630158 91.315385 44.584615 91.315385 
C 42.539073 91.315385 40.51342 91.718312 38.623585 92.501107 
C 36.73375 93.283903 35.016485 94.431343 33.570067 95.87776 
C 32.12365 97.324177 30.97621 99.041442 30.193415 100.931277 
C 29.41062 102.821112 29.007692 104.846765 29.007692 106.892308 
C 29.007692 108.93785 29.41062 110.963503 30.193415 112.853338 
C 30.97621 114.743173 32.12365 116.460438 33.570067 117.906856 
C 35.016485 119.353273 36.73375 120.500713 38.623585 121.283508 
C 40.51342 122.066303 42.539073 122.469231 44.584615 122.469231 
C 46.630158 122.469231 48.655811 122.066303 50.545646 121.283508 
C 52.435481 120.500713 54.152746 119.353273 55.599163 117.906856 
C 57.045581 116.460438 58.19302 114.743173 58.975816 112.853338 
C 59.758611 110.963503 60.161538 108.93785 60.161538 106.892308 
M 44.584615 106.892308 
M 60.161538 106.892308 
z
" clip-path="url(#paa906a7825)" style="fill: #ff0000"/>
   </g>
   <g id="patch_8">
    <path d="M 122.469231 106.892308 
C 122.469231 104.846765 122.066303 102.821112 121.283508 100.931277 
C 120.500713 99.041442 119.353273 97.324177 117.906856 95.87776 
C 116.460438 94.431343 114.743173 93.283903 112.853338 92.501107 
C 110.963503 91.718312 108.93785 91.315385 106.892308 91.315385 
C 104.846765 91.315385 102.821112 91.718312 100.931277 92.501107 
C 99.041442 93.283903 97.324177 94.431343 95.87776 95.87776 
C 94.431343 97.324177 93.283903 99.041442 92.501107 100.931277 
C 91.718312 102.821112 91.315385 104.846765 91.315385 106.892308 
C 91.315385 108.93785 91.718312 110.963503 92.501107 112.853338 
C 93.283903 114.743173 94.431343 116.460438 95.87776 117.906856 
C 97.324177 119.353273 99.041442 120.500713 100.931277 121.283508 
C 102.821112 122.066303 104.846765 122.469231 106.892308 122.469231 
C 108.93785 122.469231 110.963503 122.066303 112.853338 121.283508 
C 114.743173 120.500713 116.460438 119.353273 117.906856 117.906856 
C 119.353273 116.460438 120.500713 114.743173 121.283508 112.853338 
C 122.066303 110.963503 122.469231 108.93785 122.469231 106.892308 
M 106.892308 106.892308 
M 122.469231 106.892308 
z
" clip-path="url(#paa906a7825)" style="fill: #0000ff"/>
   </g>
   <g id="patch_9">
    <path d="M 215.930769 122.469231 
L 247.084615 122.469231 
L 231.507692 91.315385 
z
" clip-path="url(#paa906a7825)" style="fill: #008000"/>
   </g>
   <g id="patch_10">
    <path d="M 153.623077 184.776923 
L 184.776923 184.776923 
L 169.2 153.623077 
z
" clip-path="url(#paa906a7825)" style="fill: #ff0000"/>
   </g>
   <g id="patch_11">
    <path d="M 215.930769 309.392308 
L 247.084615 309.392308 
L 231.507692 278.238462 
z
" clip-path="url(#paa906a7825)" style="fill: #ff0000"/>
   </g>
   <g id="patch_12">
    <path d="M 215.930769 122.469231 
L 247.084615 122.469231 
L 231.507692 91.315385 
z
" clip-path="url(#paa906a7825)" style="fill: #008000"/>
   </g>
   <g id="patch_13">
    <path d="M 153.623077 184.776923 
L 184.776923 184.776923 
L 169.2 153.623077 
z
" clip-path="url(#paa906a7825)" style="fill: #ff0000"/>
   </g>
   <g id="patch_14">
    <path d="M 29.007692 184.776923 
L 60.161538 184.776923 
L 60.161538 153.623077 
L 29.007692 153.623077 
z
" clip-path="url(#paa906a7825)" style="fill: #008000"/>
   </g>
   <g id="patch_15">
    <path d="M 278.238462 184.776923 
L 309.392308 184.776923 
L 309.392308 153.623077 
L 278.238462 153.623077 
z
" clip-path="url(#paa906a7825)" style="fill: #ff0000"/>
   </g>
   <g id="patch_16">
    <path d="M 91.315385 247.084615 
L 122.469231 247.084615 
L 122.469231 215.930769 
L 91.315385 215.930769 
z
" clip-path="url(#paa906a7825)" style="fill: #ff0000"/>
   </g>
   <g id="patch_17">
    <path d="M 278.238462 309.392308 
L 309.392308 309.392308 
L 309.392308 278.238462 
L 278.238462 278.238462 
z
" clip-path="url(#paa906a7825)" style="fill: #0000ff"/>
   </g>
   <g id="matplotlib.axis_1"/>
   <g id="matplotlib.axis_2"/>
   <g id="line2d_1">
    <path d="M 13.430769 324.969231 
L 13.430769 13.430769 
" clip-path="url(#paa906a7825)" style="fill: none; stroke: #000000; stroke-linecap: square"/>
   </g>
   <g id="line2d_2">
    <path d="M 75.738462 324.969231 
L 75.738462 13.430769 
" clip-path="url(#paa906a7825)" style="fill: none; stroke: #000000; stroke-linecap: square"/>
   </g>
   <g id="line2d_3">
    <path d="M 138.046154 324.969231 
L 138.046154 13.430769 
" clip-path="url(#paa906a7825)" style="fill: none; stroke: #000000; stroke-linecap: square"/>
   </g>
   <g id="line2d_4">
    <path d="M 200.353846 324.969231 
L 200.353846 13.430769 
" clip-path="url(#paa906a7825)" style="fill: none; stroke: #000000; stroke-linecap: square"/>
   </g>
   <g id="line2d_5">
    <path d="M 262.661538 324.969231 
L 262.661538 13.430769 
" clip-path="url(#paa906a7825)" style="fill: none; stroke: #000000; stroke-linecap: square"/>
   </g>
   <g id="line2d_6">
    <path d="M 324.969231 324.969231 
L 324.969231 13.430769 
" clip-path="url(#paa906a7825)" style="fill: none; stroke: #000000; stroke-linecap: square"/>
   </g>
   <g id="line2d_7">
    <path d="M 13.430769 324.969231 
L 324.969231 324.969231 
" clip-path="url(#paa906a7825)" style="fill: none; stroke: #000000; stroke-linecap: square"/>
   </g>
   <g id="line2d_8">
    <path d="M 13.430769 262.661538 
L 324.969231 262.661538 
" clip-path="url(#paa906a7825)" style="fill: none; stroke: #000000; stroke-linecap: square"/>
   </g>
   <g id="line2d_9">
    <path d="M 13.430769 200.353846 
L 324.969231 200.353846 
" clip-path="url(#paa906a7825)" style="fill: none; stroke: #000000; stroke-linecap: square"/>
   </g>
   <g id="line2d_10">
    <path d="M 13.430769 138.046154 
L 324.969231 138.046154 
" clip-path="url(#paa906a7825)" style="fill: none; stroke: #000000; stroke-linecap: square"/>
   </g>
   <g id="line2d_11">
    <path d="M 13.430769 75.738462 
L 324.969231 75.738462 
" clip-path="url(#paa906a7825)" style="fill: none; stroke: #000000; stroke-linecap: square"/>
   </g>
   <g id="line2d_12">
    <path d="M 13.430769 13.430769 
L 324.969231 13.430769 
" clip-path="url(#paa906a7825)" style="fill: none; stroke: #000000; stroke-linecap: square"/>
   </g>
   <g id="text_1">
    <!-- $a$ -->
    <g transform="translate(163.9 50.103365)scale(0.2 -0.2)">
     <defs>
      <path id="Cmmi10-61" d="M 1113 -72 
Q 709 -72 476 233 
Q 244 538 244 953 
Q 244 1363 456 1803 
Q 669 2244 1030 2536 
Q 1391 2828 1806 2828 
Q 1997 2828 2147 2725 
Q 2297 2622 2381 2444 
Q 2453 2700 2663 2700 
Q 2744 2700 2798 2651 
Q 2853 2603 2853 2522 
Q 2853 2503 2851 2493 
Q 2850 2484 2847 2472 
L 2400 684 
Q 2356 494 2356 372 
Q 2356 97 2541 97 
Q 2741 97 2845 351 
Q 2950 606 3022 941 
Q 3034 978 3072 978 
L 3150 978 
Q 3175 978 3190 956 
Q 3206 934 3206 916 
Q 3094 469 2961 198 
Q 2828 -72 2528 -72 
Q 2313 -72 2147 54 
Q 1981 181 1941 391 
Q 1528 -72 1113 -72 
z
M 1119 97 
Q 1350 97 1567 270 
Q 1784 444 1941 678 
Q 1947 684 1947 697 
L 2291 2088 
L 2297 2106 
Q 2259 2334 2132 2498 
Q 2006 2663 1791 2663 
Q 1575 2663 1389 2486 
Q 1203 2309 1075 2069 
Q 950 1813 836 1366 
Q 722 919 722 672 
Q 722 450 817 273 
Q 913 97 1119 97 
z
" transform="scale(0.015625)"/>
     </defs>
     <use xlink:href="#Cmmi10-61" transform="translate(0 0.8125)"/>
    </g>
   </g>
   <g id="text_2">
    <!-- $b$ -->
    <g transform="translate(40.284615 112.411058)scale(0.2 -0.2)">
     <defs>
      <path id="Cmmi10-62" d="M 1106 -72 
Q 719 -72 503 231 
Q 288 534 288 941 
Q 288 1000 317 1173 
Q 347 1347 347 1388 
L 966 3872 
Q 991 3981 997 4044 
Q 997 4147 581 4147 
Q 519 4147 519 4231 
Q 522 4247 533 4287 
Q 544 4328 561 4350 
Q 578 4372 609 4372 
L 1472 4441 
Q 1550 4441 1550 4359 
L 1075 2472 
Q 1438 2828 1806 2828 
Q 2078 2828 2273 2684 
Q 2469 2541 2566 2306 
Q 2663 2072 2663 1806 
Q 2663 1497 2542 1167 
Q 2422 838 2209 555 
Q 1997 272 1712 100 
Q 1428 -72 1106 -72 
z
M 1119 97 
Q 1338 97 1528 280 
Q 1719 463 1838 691 
Q 1966 947 2077 1386 
Q 2188 1825 2188 2088 
Q 2188 2316 2092 2489 
Q 1997 2663 1791 2663 
Q 1559 2663 1348 2492 
Q 1138 2322 978 2088 
L 800 1363 
Q 697 959 691 716 
Q 691 475 795 286 
Q 900 97 1119 97 
z
" transform="scale(0.015625)"/>
     </defs>
     <use xlink:href="#Cmmi10-62" transform="translate(0 0.609375)"/>
    </g>
   </g>
   <g id="text_3">
    <!-- $c$ -->
    <g transform="translate(102.492308 112.411058)scale(0.2 -0.2)">
     <defs>
      <path id="Cmmi10-63" d="M 750 763 
Q 750 484 892 290 
Q 1034 97 1300 97 
Q 1681 97 2032 272 
Q 2384 447 2606 756 
Q 2625 775 2656 775 
Q 2688 775 2720 739 
Q 2753 703 2753 672 
Q 2753 647 2741 634 
Q 2506 306 2109 117 
Q 1713 -72 1288 -72 
Q 981 -72 747 73 
Q 513 219 384 462 
Q 256 706 256 1013 
Q 256 1444 497 1869 
Q 738 2294 1138 2561 
Q 1538 2828 1978 2828 
Q 2266 2828 2495 2689 
Q 2725 2550 2725 2278 
Q 2725 2103 2623 1979 
Q 2522 1856 2350 1856 
Q 2247 1856 2176 1920 
Q 2106 1984 2106 2088 
Q 2106 2238 2215 2344 
Q 2325 2450 2472 2450 
L 2484 2450 
Q 2409 2559 2267 2611 
Q 2125 2663 1972 2663 
Q 1597 2663 1315 2342 
Q 1034 2022 892 1576 
Q 750 1131 750 763 
z
" transform="scale(0.015625)"/>
     </defs>
     <use xlink:href="#Cmmi10-63" transform="translate(0 0.8125)"/>
    </g>
   </g>
   <g id="text_4">
    <!-- $d$ -->
    <g transform="translate(226.207692 118.641827)scale(0.2 -0.2)">
     <defs>
      <path id="Cmmi10-64" d="M 1113 -72 
Q 709 -72 476 233 
Q 244 538 244 953 
Q 244 1363 456 1803 
Q 669 2244 1030 2536 
Q 1391 2828 1806 2828 
Q 1994 2828 2145 2723 
Q 2297 2619 2381 2444 
L 2741 3872 
Q 2766 3981 2772 4044 
Q 2772 4147 2356 4147 
Q 2291 4147 2291 4231 
Q 2294 4247 2305 4287 
Q 2316 4328 2333 4350 
Q 2350 4372 2381 4372 
L 3244 4441 
Q 3322 4441 3322 4359 
L 2400 678 
Q 2356 572 2356 372 
Q 2356 97 2541 97 
Q 2741 97 2845 351 
Q 2950 606 3022 941 
Q 3034 978 3072 978 
L 3150 978 
Q 3175 978 3190 956 
Q 3206 934 3206 916 
Q 3094 469 2961 198 
Q 2828 -72 2528 -72 
Q 2313 -72 2147 54 
Q 1981 181 1941 391 
Q 1528 -72 1113 -72 
z
M 1119 97 
Q 1350 97 1567 270 
Q 1784 444 1941 678 
Q 1947 684 1947 703 
L 2297 2113 
Q 2259 2338 2131 2500 
Q 2003 2663 1791 2663 
Q 1575 2663 1389 2486 
Q 1203 2309 1075 2069 
Q 950 1813 836 1366 
Q 722 919 722 672 
Q 722 450 817 273 
Q 913 97 1119 97 
z
" transform="scale(0.015625)"/>
     </defs>
     <use xlink:href="#Cmmi10-64" transform="translate(0 0.609375)"/>
    </g>
   </g>
   <g id="text_5">
    <!-- $e$ -->
    <g transform="translate(39.884615 174.71875)scale(0.2 -0.2)">
     <defs>
      <path id="Cmmi10-65" d="M 1288 -72 
Q 981 -72 751 87 
Q 522 247 401 517 
Q 281 788 281 1088 
Q 281 1544 511 1945 
Q 741 2347 1134 2587 
Q 1528 2828 1978 2828 
Q 2253 2828 2458 2686 
Q 2663 2544 2663 2278 
Q 2663 1909 2369 1729 
Q 2075 1550 1706 1508 
Q 1338 1466 891 1466 
L 872 1466 
Q 769 1084 769 813 
Q 769 528 900 312 
Q 1031 97 1300 97 
Q 1681 97 2032 272 
Q 2384 447 2606 756 
Q 2625 775 2656 775 
Q 2688 775 2720 739 
Q 2753 703 2753 672 
Q 2753 647 2741 634 
Q 2506 306 2109 117 
Q 1713 -72 1288 -72 
z
M 909 1631 
Q 1281 1631 1597 1665 
Q 1913 1700 2169 1839 
Q 2425 1978 2425 2272 
Q 2425 2391 2359 2480 
Q 2294 2569 2189 2616 
Q 2084 2663 1972 2663 
Q 1700 2663 1483 2516 
Q 1266 2369 1125 2133 
Q 984 1897 909 1631 
z
" transform="scale(0.015625)"/>
     </defs>
     <use xlink:href="#Cmmi10-65" transform="translate(0 0.8125)"/>
    </g>
   </g>
   <g id="text_6">
    <!-- $f$ -->
    <g transform="translate(164.3 180.908894)scale(0.2 -0.2)">
     <defs>
      <path id="Cmmi10-66" d="M 622 -1056 
Q 741 -1147 909 -1147 
Q 1138 -1147 1281 -641 
Q 1341 -397 1606 966 
L 1900 2534 
L 1350 2534 
Q 1288 2534 1288 2619 
Q 1313 2759 1369 2759 
L 1941 2759 
L 2016 3175 
Q 2053 3369 2084 3508 
Q 2116 3647 2152 3765 
Q 2188 3884 2259 4031 
Q 2369 4241 2555 4377 
Q 2741 4513 2956 4513 
Q 3097 4513 3230 4461 
Q 3363 4409 3447 4306 
Q 3531 4203 3531 4063 
Q 3531 3900 3423 3779 
Q 3316 3659 3163 3659 
Q 3059 3659 2986 3723 
Q 2913 3788 2913 3891 
Q 2913 4031 3008 4136 
Q 3103 4241 3244 4256 
Q 3125 4347 2950 4347 
Q 2853 4347 2767 4256 
Q 2681 4166 2656 4063 
Q 2616 3900 2478 3181 
L 2400 2759 
L 3059 2759 
Q 3122 2759 3122 2675 
Q 3119 2659 3109 2620 
Q 3100 2581 3083 2557 
Q 3066 2534 3041 2534 
L 2356 2534 
L 2059 972 
Q 2003 631 1929 279 
Q 1856 -72 1723 -442 
Q 1591 -813 1384 -1063 
Q 1178 -1313 897 -1313 
Q 681 -1313 511 -1189 
Q 341 -1066 341 -863 
Q 341 -700 445 -579 
Q 550 -459 709 -459 
Q 816 -459 887 -523 
Q 959 -588 959 -691 
Q 959 -828 857 -942 
Q 756 -1056 622 -1056 
z
" transform="scale(0.015625)"/>
     </defs>
     <use xlink:href="#Cmmi10-66" transform="translate(0 0.484375)"/>
    </g>
   </g>
   <g id="text_7">
    <!-- $g$ -->
    <g transform="translate(289.015385 174.678125)scale(0.2 -0.2)">
     <defs>
      <path id="Cmmi10-67" d="M 91 -916 
Q 91 -759 198 -642 
Q 306 -525 459 -525 
Q 563 -525 633 -589 
Q 703 -653 703 -756 
Q 703 -872 637 -964 
Q 572 -1056 469 -1094 
Q 641 -1147 1006 -1147 
Q 1300 -1147 1544 -920 
Q 1788 -694 1863 -397 
L 2047 353 
Q 1700 0 1325 0 
Q 1050 0 854 140 
Q 659 281 556 515 
Q 453 750 453 1013 
Q 453 1306 573 1628 
Q 694 1950 911 2225 
Q 1128 2500 1409 2664 
Q 1691 2828 2003 2828 
Q 2191 2828 2341 2725 
Q 2491 2622 2578 2450 
Q 2641 2700 2853 2700 
Q 2934 2700 2990 2651 
Q 3047 2603 3047 2522 
Q 3047 2503 3045 2493 
Q 3044 2484 3041 2472 
L 2309 -434 
Q 2259 -634 2125 -800 
Q 1991 -966 1809 -1077 
Q 1628 -1188 1412 -1250 
Q 1197 -1313 997 -1313 
Q 631 -1313 361 -1242 
Q 91 -1172 91 -916 
z
M 1338 166 
Q 1747 166 2144 728 
L 2497 2125 
Q 2453 2347 2322 2505 
Q 2191 2663 1991 2663 
Q 1778 2663 1589 2489 
Q 1400 2316 1275 2075 
Q 1156 1844 1045 1411 
Q 934 978 934 728 
Q 934 509 1034 337 
Q 1134 166 1338 166 
z
" transform="scale(0.015625)"/>
     </defs>
     <use xlink:href="#Cmmi10-67" transform="translate(0 0.8125)"/>
    </g>
   </g>
   <g id="text_8">
    <!-- $h$ -->
    <g transform="translate(101.092308 237.026442)scale(0.2 -0.2)">
     <defs>
      <path id="Cmmi10-68" d="M 341 116 
Q 341 153 347 172 
L 1275 3872 
Q 1300 3981 1306 4044 
Q 1306 4147 891 4147 
Q 825 4147 825 4231 
Q 828 4247 839 4287 
Q 850 4328 867 4350 
Q 884 4372 916 4372 
L 1778 4441 
L 1797 4441 
Q 1797 4434 1819 4423 
Q 1841 4413 1844 4409 
Q 1856 4378 1856 4359 
L 1356 2363 
Q 1750 2828 2291 2828 
Q 2516 2828 2680 2750 
Q 2844 2672 2936 2514 
Q 3028 2356 3028 2138 
Q 3028 1875 2911 1503 
Q 2794 1131 2619 672 
Q 2528 463 2528 288 
Q 2528 97 2675 97 
Q 2925 97 3092 364 
Q 3259 631 3328 941 
Q 3341 978 3378 978 
L 3456 978 
Q 3481 978 3497 961 
Q 3513 944 3513 922 
Q 3513 916 3506 903 
Q 3450 672 3339 448 
Q 3228 225 3059 76 
Q 2891 -72 2663 -72 
Q 2438 -72 2278 83 
Q 2119 238 2119 459 
Q 2119 578 2169 709 
Q 2350 1191 2470 1569 
Q 2591 1947 2591 2234 
Q 2591 2419 2519 2541 
Q 2447 2663 2278 2663 
Q 1934 2663 1678 2452 
Q 1422 2241 1234 1894 
L 800 147 
Q 775 50 703 -11 
Q 631 -72 538 -72 
Q 456 -72 398 -17 
Q 341 38 341 116 
z
" transform="scale(0.015625)"/>
     </defs>
     <use xlink:href="#Cmmi10-68" transform="translate(0 0.609375)"/>
    </g>
   </g>
   <g id="text_9">
    <!-- $i$ -->
    <g transform="translate(228.007692 305.564904)scale(0.2 -0.2)">
     <defs>
      <path id="Cmmi10-69" d="M 500 459 
Q 500 578 550 709 
L 1069 2088 
Q 1153 2322 1153 2472 
Q 1153 2663 1013 2663 
Q 759 2663 595 2402 
Q 431 2141 353 1819 
Q 341 1778 300 1778 
L 225 1778 
Q 172 1778 172 1838 
L 172 1856 
Q 275 2238 487 2533 
Q 700 2828 1025 2828 
Q 1253 2828 1411 2678 
Q 1569 2528 1569 2297 
Q 1569 2178 1516 2047 
L 997 672 
Q 909 459 909 288 
Q 909 97 1056 97 
Q 1306 97 1473 364 
Q 1641 631 1709 941 
Q 1722 978 1759 978 
L 1838 978 
Q 1863 978 1878 961 
Q 1894 944 1894 922 
Q 1894 916 1888 903 
Q 1800 541 1583 234 
Q 1366 -72 1044 -72 
Q 819 -72 659 83 
Q 500 238 500 459 
z
M 1222 3878 
Q 1222 4013 1334 4122 
Q 1447 4231 1581 4231 
Q 1691 4231 1761 4164 
Q 1831 4097 1831 3994 
Q 1831 3850 1717 3742 
Q 1603 3634 1466 3634 
Q 1363 3634 1292 3704 
Q 1222 3775 1222 3878 
z
" transform="scale(0.015625)"/>
     </defs>
     <use xlink:href="#Cmmi10-69" transform="translate(0 0.890625)"/>
    </g>
   </g>
   <g id="text_10">
    <!-- $j$ -->
    <g transform="translate(289.615385 299.29351)scale(0.2 -0.2)">
     <defs>
      <path id="Cmmi10-6a" d="M -84 -909 
Q -84 -753 23 -639 
Q 131 -525 288 -525 
Q 391 -525 461 -589 
Q 531 -653 531 -756 
Q 531 -878 454 -976 
Q 378 -1075 263 -1106 
Q 375 -1147 488 -1147 
Q 759 -1147 959 -895 
Q 1159 -644 1241 -331 
L 1844 2075 
Q 1888 2259 1888 2388 
Q 1888 2663 1697 2663 
Q 1416 2663 1205 2408 
Q 994 2153 863 1819 
Q 850 1778 813 1778 
L 738 1778 
Q 684 1778 684 1838 
L 684 1856 
Q 828 2241 1093 2534 
Q 1359 2828 1709 2828 
Q 1975 2828 2145 2662 
Q 2316 2497 2316 2241 
Q 2316 2150 2297 2059 
L 1691 -372 
Q 1625 -631 1440 -847 
Q 1256 -1063 1000 -1188 
Q 744 -1313 475 -1313 
Q 259 -1313 87 -1209 
Q -84 -1106 -84 -909 
z
M 1941 3878 
Q 1941 4019 2050 4125 
Q 2159 4231 2297 4231 
Q 2406 4231 2476 4164 
Q 2547 4097 2547 3994 
Q 2547 3850 2433 3742 
Q 2319 3634 2181 3634 
Q 2078 3634 2009 3706 
Q 1941 3778 1941 3878 
z
" transform="scale(0.015625)"/>
     </defs>
     <use xlink:href="#Cmmi10-6a" transform="translate(0 0.890625)"/>
    </g>
   </g>
  </g>
 </g>
 <defs>
  <clipPath id="paa906a7825">
   <rect x="7.2" y="7.2" width="324" height="324"/>
  </clipPath>
 </defs>
</svg>
