<?xml version="1.0" encoding="utf-8" standalone="no"?>
<!DOCTYPE svg PUBLIC "-//W3C//DTD SVG 1.1//EN"
  "http://www.w3.org/Graphics/SVG/1.1/DTD/svg11.dtd">
<svg xmlns:xlink="http://www.w3.org/1999/xlink" width="338.4pt" height="338.4pt" viewBox="0 0 338.4 338.4" xmlns="http://www.w3.org/2000/svg" version="1.1">
 <metadata>
  <rdf:RDF xmlns:dc="http://purl.org/dc/elements/1.1/" xmlns:cc="http://creativecommons.org/ns#" xmlns:rdf="http://www.w3.org/1999/02/22-rdf-syntax-ns#">
   <cc:Work>
    <dc:type rdf:resource="http://purl.org/dc/dcmitype/StillImage"/>
    <dc:date>2022-08-25T17:40:44.040750</dc:date>
    <dc:format>image/svg+xml</dc:format>
    <dc:creator>
     <cc:Agent>
      <dc:title>Matplotlib v3.5.2, https://matplotlib.org/</dc:title>
     </cc:Agent>
    </dc:creator>
   </cc:Work>
  </rdf:RDF>
 </metadata>
 <defs>
  <style type="text/css">*{stroke-linejoin: round; stroke-linecap: butt}</style>
 </defs>
 <g id="figure_1">
  <g id="patch_1">
   <path d="M -0 338.4 
L 338.4 338.4 
L 338.4 0 
L -0 0 
z
" style="fill: #ffffff"/>
  </g>
  <g id="axes_1">
   <g id="patch_2">
    <path d="M 7.2 331.2 
L 331.2 331.2 
L 331.2 7.2 
L 7.2 7.2 
z
" style="fill: #ffffff"/>
   </g>
   <g id="patch_3">
    <path d="M 13.430769 324.969231 
L 13.430769 13.430769 
L 324.969231 13.430769 
L 324.969231 324.969231 
L 13.430769 324.969231 
z
" clip-path="url(#p47ed9b4816)" style="fill: none; stroke: #000000; stroke-linejoin: miter"/>
   </g>
   <g id="patch_4">
    <path d="M 169.2 169.2 
L 169.2 101.749945 
L 169.461738 101.901738 
L 169.529918 101.941502 
L 169.87772 102.145792 
L 169.919327 102.170394 
L 170.184278 102.327875 
L 170.37705 102.443349 
L 170.535271 102.538692 
L 170.756525 102.672879 
L 171.015781 102.831396 
L 171.074631 102.867574 
L 171.335509 103.028811 
L 171.594038 103.190002 
L 171.692492 103.251758 
L 171.918455 103.394269 
L 172.135859 103.53241 
L 172.284975 103.627744 
L 172.503354 103.768223 
L 172.781808 103.948848 
L 172.851696 103.994447 
L 173.03199 104.112576 
L 173.236792 104.247631 
L 173.527329 104.440817 
L 173.72243 104.571602 
L 173.818669 104.63643 
L 174.168829 104.874069 
L 174.355546 105.001927 
L 174.499497 105.101045 
L 174.592198 105.165127 
L 174.962377 105.42301 
L 175.165073 105.565572 
L 175.269589 105.639458 
L 175.440669 105.760959 
L 175.668477 105.923828 
L 175.901814 106.091938 
L 176.033359 106.18729 
L 176.194802 106.304887 
L 176.41618 106.467175 
L 176.579896 106.587966 
L 176.855141 106.79254 
L 177.037549 106.929154 
L 177.13158 106.999904 
L 177.324491 107.145751 
L 177.699183 107.431737 
L 177.850305 107.548102 
L 178.084691 107.729751 
L 178.132977 107.767351 
L 178.31067 107.906243 
L 178.616566 108.147296 
L 178.733298 108.23994 
L 179.024195 108.472399 
L 179.162479 108.583705 
L 179.377044 108.757444 
L 179.656145 108.985333 
L 179.856754 109.150467 
L 179.979088 109.251722 
L 180.118521 109.367642 
L 180.373789 109.581293 
L 180.479522 109.670334 
L 180.780853 109.925861 
L 181.014644 110.125935 
L 181.109142 110.20726 
L 181.426364 110.482198 
L 181.449869 110.502689 
L 181.780959 110.793097 
L 181.965528 110.956433 
L 182.043875 111.026083 
L 182.317157 111.270513 
L 182.588724 111.515717 
L 182.72841 111.642749 
L 182.992322 111.884451 
L 183.020811 111.910676 
L 183.280849 112.151265 
L 183.409847 112.271433 
L 183.65086 112.497417 
L 183.815941 112.653318 
L 184.114321 112.93743 
L 184.252806 113.07032 
L 184.431976 113.243228 
L 184.69811 113.502116 
L 184.852306 113.653249 
L 184.986975 113.785932 
L 185.18005 113.977288 
L 185.530872 114.328432 
L 185.557799 114.355569 
L 185.79008 114.590777 
L 186.101512 114.90929 
L 186.302556 115.116855 
L 186.486998 115.308642 
L 186.693015 115.524422 
L 186.844688 115.684346 
L 186.948315 115.794133 
L 187.175191 116.035993 
L 187.330845 116.203127 
L 187.641433 116.539582 
L 187.710077 116.614481 
L 187.979217 116.91005 
L 188.123964 117.070278 
L 188.468474 117.455259 
L 188.617453 117.623342 
L 188.734485 117.75607 
L 188.997463 118.056549 
L 189.196942 118.286562 
L 189.394096 118.515692 
L 189.624465 118.78572 
L 189.654481 118.821087 
L 190.025443 119.261745 
L 190.14834 119.409201 
L 190.341923 119.642977 
L 190.605012 119.963689 
L 190.737184 120.126133 
L 190.902667 120.330784 
L 191.152386 120.642307 
L 191.370855 120.917554 
L 191.451258 121.019497 
L 191.64187 121.262582 
L 191.933171 121.637949 
L 191.999855 121.724547 
L 192.343794 122.175226 
L 192.393936 122.241502 
L 192.766891 122.739119 
L 192.926814 122.95506 
L 193.008594 123.06609 
L 193.225104 123.362042 
L 193.48189 123.71688 
L 193.578053 123.850851 
L 193.925423 124.339847 
L 194.126714 124.626898 
L 194.291714 124.864265 
L 194.528578 125.208336 
L 194.70516 125.467436 
L 194.750447 125.534248 
L 195.024296 125.94147 
L 195.248113 126.27846 
L 195.350663 126.434144 
L 195.610881 126.832867 
L 195.736528 127.027314 
L 195.912581 127.301922 
L 196.276522 127.877761 
L 196.433433 128.129516 
L 196.676966 128.524535 
L 196.735666 128.620544 
L 196.959795 128.990016 
L 197.11191 129.243437 
L 197.407675 129.742515 
L 197.65948 130.174209 
L 197.725747 130.288884 
L 197.99913 130.7668 
L 198.139288 131.014894 
L 198.451061 131.574507 
L 198.516084 131.692597 
L 198.810461 132.233377 
L 198.93631 132.467715 
L 199.069269 132.717399 
L 199.266075 133.091048 
L 199.578879 133.695263 
L 199.810032 134.150245 
L 199.941192 134.411739 
L 200.057492 134.645676 
L 200.247362 135.031895 
L 200.537148 135.631988 
L 200.763432 136.10991 
L 200.822613 136.236303 
L 201.00059 136.620009 
L 201.178566 137.009273 
L 201.366183 137.425861 
L 201.414035 137.533168 
L 201.566794 137.878675 
L 201.719552 138.22879 
L 201.90488 138.659965 
L 202.031929 138.959757 
L 202.190164 139.338103 
L 202.348399 139.722155 
L 202.482575 140.052451 
L 202.618568 140.39172 
L 202.761159 140.752492 
L 202.903749 141.118623 
L 203.136862 141.729289 
L 203.225149 141.964662 
L 203.35173 142.306228 
L 203.478312 142.652793 
L 203.591469 142.966996 
L 203.704627 143.285504 
L 203.8065 143.576063 
L 203.922484 143.911431 
L 204.038468 144.251845 
L 204.154323 144.597128 
L 204.270177 144.947879 
L 204.354522 145.20681 
L 204.495377 145.646244 
L 204.636233 146.094891 
L 204.739324 146.429408 
L 204.842415 146.769387 
L 204.950159 147.13082 
L 205.057903 147.498805 
L 205.178823 147.92002 
L 205.299742 148.350443 
L 205.387112 148.667499 
L 205.509106 149.119212 
L 205.62083 149.542664 
L 205.732553 149.97609 
L 205.83039 150.364378 
L 205.928227 150.76136 
L 206.01151 151.106562 
L 206.094792 151.458871 
L 206.178074 151.818719 
L 206.261356 152.186583 
L 206.316785 152.436119 
L 206.372214 152.689611 
L 206.438558 152.998488 
L 206.504903 153.313646 
L 206.592862 153.741824 
L 206.680821 154.18272 
L 206.730386 154.437193 
L 206.779951 154.6963 
L 206.829515 154.960294 
L 206.87908 155.229451 
L 206.927707 155.498829 
L 206.976335 155.773787 
L 207.024962 156.054674 
L 207.07359 156.34188 
L 207.128959 156.677156 
L 207.184329 157.02191 
L 207.239699 157.376972 
L 207.295069 157.7433 
L 207.339114 158.043488 
L 207.383159 158.352159 
L 207.427205 158.670059 
L 207.47125 158.998049 
L 207.515296 159.337137 
L 207.559341 159.68851 
L 207.603386 160.053584 
L 207.625409 160.241779 
L 207.647432 160.434069 
L 207.685407 160.776084 
L 207.723382 161.132765 
L 207.742369 161.317224 
L 207.761357 161.506151 
L 207.780344 161.699883 
L 207.799332 161.898804 
L 207.826395 162.192175 
L 207.853459 162.498485 
L 207.866991 162.657058 
L 207.880523 162.819599 
L 207.894054 162.98642 
L 207.907586 163.157875 
L 207.922256 163.349462 
L 207.936926 163.547577 
L 207.951597 163.752932 
L 207.966267 163.966379 
L 207.980937 164.188953 
L 207.995607 164.421929 
L 208.010277 164.666911 
L 208.024947 164.925961 
L 208.032282 165.061582 
L 208.039617 165.201814 
L 208.046952 165.347161 
L 208.054287 165.498225 
L 208.061622 165.655736 
L 208.068957 165.820598 
L 208.076292 165.993942 
L 208.083627 166.177228 
L 208.090962 166.372389 
L 208.098297 166.58208 
L 208.105632 166.81012 
L 208.112968 167.062376 
L 208.120303 167.34872 
L 208.127638 167.688401 
L 208.134973 168.131113 
L 208.142308 169.2 
L 208.142308 169.2 
z
" clip-path="url(#p47ed9b4816)" style="fill: #808080; opacity: 0.5"/>
   </g>
   <g id="patch_5">
    <path d="M 169.2 169.2 
L 169.2 236.650055 
L 169.338789 236.569735 
L 169.581645 236.428269 
L 169.704631 236.356179 
L 169.947967 236.212651 
L 170.228162 236.045904 
L 170.375994 235.957285 
L 170.627382 235.805567 
L 170.76866 235.719732 
L 170.924087 235.624827 
L 171.169884 235.47372 
L 171.423592 235.316428 
L 171.479814 235.281389 
L 171.828848 235.062374 
L 171.853765 235.04664 
L 172.095005 234.893626 
L 172.247861 234.796029 
L 172.612796 234.560986 
L 172.73443 234.482004 
L 172.88091 234.386461 
L 173.050507 234.275251 
L 173.293693 234.114682 
L 173.457218 234.005975 
L 173.742125 233.815148 
L 173.956256 233.670527 
L 174.120565 233.558851 
L 174.306557 233.431697 
L 174.572941 233.248201 
L 174.589058 233.237047 
L 174.972614 232.969813 
L 175.16681 232.833202 
L 175.213314 232.800357 
L 175.460858 232.624657 
L 175.679144 232.468515 
L 175.815203 232.370615 
L 176.141379 232.134097 
L 176.282871 232.030695 
L 176.412223 231.935736 
L 176.731889 231.699299 
L 176.861967 231.602363 
L 177.103513 231.421238 
L 177.272231 231.293852 
L 177.448204 231.160221 
L 177.563164 231.072495 
L 177.762571 230.919525 
L 178.02408 230.717359 
L 178.252648 230.539201 
L 178.461995 230.374819 
L 178.632847 230.239804 
L 178.841261 230.074051 
L 178.928483 230.004338 
L 179.100479 229.866263 
L 179.445507 229.586855 
L 179.565179 229.489179 
L 179.771751 229.319641 
L 179.890051 229.222015 
L 180.22468 228.943731 
L 180.419198 228.780506 
L 180.581158 228.643773 
L 180.735699 228.512597 
L 181.024316 228.265753 
L 181.052326 228.241668 
L 181.243002 228.077089 
L 181.567598 227.794427 
L 181.747296 227.636581 
L 181.847381 227.548242 
L 182.175684 227.256313 
L 182.30238 227.142763 
L 182.465126 226.996169 
L 182.667216 226.812977 
L 182.803142 226.689034 
L 183.038978 226.472587 
L 183.31877 226.213467 
L 183.552356 225.995177 
L 183.674792 225.880038 
L 183.819154 225.743639 
L 184.099344 225.476904 
L 184.354671 225.231511 
L 184.459555 225.130058 
L 184.727958 224.868694 
L 184.799301 224.798797 
L 185.085353 224.516733 
L 185.336796 224.266375 
L 185.45918 224.14369 
L 185.659305 223.941891 
L 185.915181 223.681715 
L 186.025522 223.568764 
L 186.203788 223.385309 
L 186.390194 223.192181 
L 186.704417 222.863587 
L 186.785003 222.778694 
L 187.014785 222.53522 
L 187.290317 222.240485 
L 187.436931 222.082398 
L 187.625632 221.877631 
L 187.849958 221.632282 
L 188.067745 221.39206 
L 188.263408 221.174515 
L 188.358848 221.067804 
L 188.536947 220.867608 
L 188.700722 220.682285 
L 189.027721 220.308678 
L 189.179304 220.133849 
L 189.335294 219.952836 
L 189.572874 219.67497 
L 189.686558 219.541069 
L 189.919696 219.264545 
L 190.152249 218.986097 
L 190.39038 218.698213 
L 190.618836 218.419362 
L 190.770066 218.233315 
L 190.896214 218.077224 
L 191.104726 217.817402 
L 191.271469 217.607979 
L 191.458006 217.371931 
L 191.779298 216.960919 
L 191.888492 216.819931 
L 192.010598 216.661479 
L 192.205647 216.406612 
L 192.418433 216.126066 
L 192.749847 215.683803 
L 192.963437 215.39527 
L 193.073065 215.246088 
L 193.329333 214.894436 
L 193.557874 214.57731 
L 193.655771 214.440434 
L 193.83053 214.194528 
L 194.00297 213.949892 
L 194.186124 213.687851 
L 194.492535 213.244276 
L 194.543465 213.169907 
L 194.823325 212.75792 
L 195.050926 212.418632 
L 195.256006 212.109586 
L 195.43017 211.844596 
L 195.630294 211.537173 
L 195.716695 211.403462 
L 196.053056 210.877133 
L 196.282038 210.513425 
L 196.465967 210.218016 
L 196.617622 209.97221 
L 196.869477 209.559428 
L 197.071978 209.2233 
L 197.123236 209.137607 
L 197.369514 208.722357 
L 197.503442 208.494052 
L 197.833186 207.92423 
L 198.058628 207.528142 
L 198.18784 207.298666 
L 198.335296 207.03455 
L 198.598079 206.557795 
L 198.656532 206.450664 
L 198.849349 206.094416 
L 199.042166 205.733677 
L 199.09728 205.62972 
L 199.396311 205.058955 
L 199.581049 204.700501 
L 199.664386 204.537292 
L 199.841701 204.18684 
L 200.019017 203.831935 
L 200.04781 203.773874 
L 200.209702 203.445141 
L 200.371594 203.112448 
L 200.510829 202.82306 
L 200.704302 202.415787 
L 200.827971 202.152225 
L 200.9901 201.802758 
L 201.152229 201.448689 
L 201.299628 201.122668 
L 201.470464 200.739729 
L 201.592481 200.462777 
L 201.83851 199.895275 
L 201.9979 199.520883 
L 202.15729 199.140962 
L 202.238096 198.946174 
L 202.377523 198.60652 
L 202.623575 197.995701 
L 202.760068 197.650286 
L 202.896562 197.299963 
L 203.011643 197.000646 
L 203.168253 196.587287 
L 203.31693 196.188165 
L 203.465608 195.78222 
L 203.620116 195.352785 
L 203.764946 194.9429 
L 203.909777 194.525554 
L 204.01267 194.22432 
L 204.115562 193.918988 
L 204.224041 193.592471 
L 204.361464 193.171739 
L 204.498888 192.742688 
L 204.631977 192.318803 
L 204.720858 192.030905 
L 204.818978 191.708398 
L 204.917098 191.380768 
L 205.026165 191.010293 
L 205.135231 190.63286 
L 205.26246 190.183283 
L 205.389689 189.723071 
L 205.498265 189.321369 
L 205.606842 188.910884 
L 205.703599 188.537232 
L 205.800863 188.1537 
L 205.898127 187.761735 
L 205.980982 187.420776 
L 206.063838 187.072929 
L 206.146694 186.717785 
L 206.229549 186.354891 
L 206.31814 185.957731 
L 206.406732 185.550448 
L 206.460315 185.298871 
L 206.513898 185.043118 
L 206.567481 184.782985 
L 206.621065 184.518247 
L 206.675956 184.242018 
L 206.734282 183.942612 
L 206.792607 183.636763 
L 206.850933 183.324051 
L 206.909259 183.00401 
L 206.979134 182.61021 
L 207.049009 182.204114 
L 207.118884 181.784533 
L 207.153822 181.569259 
L 207.18876 181.35007 
L 207.243209 181.000148 
L 207.297659 180.639267 
L 207.352109 180.266356 
L 207.406559 179.880155 
L 207.454726 179.526244 
L 207.502893 179.159533 
L 207.534369 178.912285 
L 207.565846 178.658473 
L 207.597322 178.397551 
L 207.628799 178.128897 
L 207.660275 177.85179 
L 207.691752 177.56539 
L 207.723228 177.268709 
L 207.754705 176.960566 
L 207.780377 176.699782 
L 207.806049 176.429506 
L 207.831721 176.14863 
L 207.857392 175.855813 
L 207.883064 175.549403 
L 207.8959 175.390473 
L 207.908736 175.227327 
L 207.921572 175.059612 
L 207.934408 174.886924 
L 207.947244 174.708796 
L 207.96008 174.52468 
L 207.971469 174.355788 
L 207.982859 174.181147 
L 207.994248 174.000129 
L 208.005637 173.811984 
L 208.017026 173.6158 
L 208.028416 173.410454 
L 208.039805 173.194533 
L 208.051194 172.96622 
L 208.056889 172.846693 
L 208.062583 172.723105 
L 208.068278 172.595011 
L 208.073972 172.461881 
L 208.079667 172.32307 
L 208.085362 172.177785 
L 208.091056 172.025027 
L 208.096751 171.863509 
L 208.102445 171.69153 
L 208.10814 171.506751 
L 208.113835 171.305804 
L 208.119529 171.083523 
L 208.125224 170.831209 
L 208.130918 170.531901 
L 208.136613 170.141813 
L 208.142308 169.2 
L 208.142308 169.2 
z
" clip-path="url(#p47ed9b4816)" style="fill: #808080; opacity: 0.5"/>
   </g>
   <g id="patch_6">
    <path d="M 130.257692 169.2 
L 130.257692 169.2 
L 130.26354 168.245578 
L 130.269389 167.850268 
L 130.275237 167.546954 
L 130.281085 167.291263 
L 130.286933 167.066007 
L 130.292781 166.862372 
L 130.298629 166.67512 
L 130.304477 166.500841 
L 130.310325 166.337163 
L 130.316173 166.182362 
L 130.322022 166.035134 
L 130.32787 165.894467 
L 130.333718 165.759557 
L 130.339566 165.62975 
L 130.345414 165.50451 
L 130.351262 165.383386 
L 130.362958 165.152022 
L 130.374655 164.933216 
L 130.386351 164.725128 
L 130.398047 164.526324 
L 130.409743 164.335667 
L 130.421439 164.152232 
L 130.433136 163.97526 
L 130.444832 163.804115 
L 130.461327 163.571628 
L 130.477822 163.348416 
L 130.494318 163.133457 
L 130.510813 162.925902 
L 130.527308 162.725038 
L 130.543803 162.530262 
L 130.560298 162.341054 
L 130.576794 162.156966 
L 130.593289 161.977606 
L 130.609784 161.80263 
L 130.642774 161.464649 
L 130.675765 161.140965 
L 130.708755 160.829919 
L 130.736938 160.573174 
L 130.765122 160.323943 
L 130.793305 160.081608 
L 130.821488 159.845634 
L 130.851868 159.597853 
L 130.882248 159.356401 
L 130.912627 159.120823 
L 130.943007 158.890717 
L 130.973387 158.665723 
L 131.003767 158.445521 
L 131.034147 158.229822 
L 131.064526 158.018366 
L 131.123426 157.61962 
L 131.182326 157.234445 
L 131.241226 156.861569 
L 131.300125 156.499909 
L 131.357232 156.159085 
L 131.414339 155.82719 
L 131.463044 155.550685 
L 131.511749 155.279842 
L 131.560454 155.014336 
L 131.60916 154.753874 
L 131.690944 154.327128 
L 131.772729 153.912727 
L 131.850378 153.529815 
L 131.928026 153.156414 
L 132.005675 152.791877 
L 132.083324 152.435624 
L 132.166131 152.064252 
L 132.244885 151.718736 
L 132.32364 151.380266 
L 132.407252 151.02819 
L 132.490864 150.683185 
L 132.574477 150.344861 
L 132.658089 150.012867 
L 132.736174 149.708251 
L 132.814259 149.40863 
L 132.898268 149.091599 
L 132.982277 148.779835 
L 133.112294 148.307169 
L 133.242311 147.845755 
L 133.329476 147.542358 
L 133.41664 147.243499 
L 133.562003 146.7547 
L 133.666448 146.410538 
L 133.770892 146.071969 
L 133.901164 145.657149 
L 134.031436 145.25022 
L 134.140276 144.916 
L 134.249117 144.586799 
L 134.394929 144.153296 
L 134.581203 143.611385 
L 134.702761 143.264574 
L 134.824319 142.922903 
L 134.951714 142.570124 
L 135.069645 142.248205 
L 135.187576 141.930596 
L 135.408492 141.346717 
L 135.462117 141.207086 
L 135.616973 140.80829 
L 135.771829 140.415852 
L 135.928018 140.026217 
L 136.089232 139.630293 
L 136.23161 139.285708 
L 136.497347 138.654741 
L 136.658585 138.279284 
L 136.804893 137.943216 
L 136.951201 137.611401 
L 137.199614 137.057388 
L 137.374259 136.674677 
L 137.50289 136.39625 
L 137.689799 135.996728 
L 137.839723 135.680455 
L 138.078165 135.184867 
L 138.351838 134.626836 
L 138.565179 134.199478 
L 138.644188 134.042858 
L 138.912483 133.517445 
L 139.101677 133.152745 
L 139.23068 132.906737 
L 139.361443 132.659531 
L 139.560787 132.286747 
L 139.919142 131.628561 
L 139.958016 131.55806 
L 140.252838 131.028896 
L 140.405009 130.759504 
L 140.636893 130.353735 
L 140.909419 129.883948 
L 141.051826 129.641428 
L 141.271568 129.271095 
L 141.333565 129.167448 
L 141.668646 128.61348 
L 141.799492 128.399949 
L 141.992555 128.087672 
L 142.193238 127.766516 
L 142.435596 127.38324 
L 142.590505 127.140821 
L 142.775156 126.854413 
L 143.030694 126.462533 
L 143.193736 126.215162 
L 143.428977 125.861816 
L 143.570776 125.650825 
L 143.845419 125.246349 
L 143.936233 125.113797 
L 144.054026 124.942736 
L 144.327186 124.549765 
L 144.568445 124.206919 
L 144.774659 123.916952 
L 144.952667 123.668883 
L 145.166023 123.374233 
L 145.229866 123.286625 
L 145.514898 122.898587 
L 145.725957 122.614461 
L 145.844562 122.455971 
L 146.020554 122.222335 
L 146.385892 121.743089 
L 146.517285 121.572593 
L 146.7637 121.25545 
L 146.803574 121.204448 
L 147.002736 120.951 
L 147.299106 120.577802 
L 147.407685 120.442242 
L 147.644413 120.148822 
L 147.843232 119.904617 
L 148.054488 119.647328 
L 148.248793 119.41265 
L 148.38766 119.246067 
L 148.677746 118.901101 
L 148.876954 118.666534 
L 148.98301 118.542417 
L 149.213483 118.274496 
L 149.349578 118.117436 
L 149.537084 117.902427 
L 149.879259 117.514118 
L 149.960256 117.422957 
L 150.129589 117.233301 
L 150.321019 117.020389 
L 150.659583 116.647648 
L 150.756187 116.542175 
L 151.051499 116.222147 
L 151.193856 116.069151 
L 151.395192 115.854164 
L 151.523502 115.718002 
L 151.830073 115.395302 
L 152.006948 115.21079 
L 152.230156 114.979666 
L 152.375215 114.83048 
L 152.473895 114.729447 
L 152.796452 114.401738 
L 152.980548 114.216425 
L 153.22897 113.968318 
L 153.251477 113.94595 
L 153.471369 113.72837 
L 153.686617 113.517049 
L 153.852865 113.354949 
L 154.166751 113.051513 
L 154.414134 112.814748 
L 154.453172 112.777575 
L 154.763811 112.483605 
L 154.826661 112.42452 
L 155.201453 112.074881 
L 155.284283 111.99823 
L 155.455123 111.840834 
L 155.740103 111.580366 
L 155.804739 111.521648 
L 156.101647 111.25362 
L 156.309775 111.067377 
L 156.460375 110.933448 
L 156.670571 110.747681 
L 156.812412 110.623084 
L 157.091506 110.379689 
L 157.188089 110.296002 
L 157.409723 110.105008 
L 157.688266 109.867016 
L 157.771145 109.796639 
L 157.962977 109.634506 
L 158.319217 109.336213 
L 158.49535 109.19006 
L 158.681934 109.036184 
L 158.87648 108.876774 
L 158.994082 108.78092 
L 159.240295 108.581468 
L 159.437067 108.423254 
L 159.618383 108.278394 
L 159.887046 108.06537 
L 160.069683 107.921651 
L 160.287619 107.751305 
L 160.403357 107.661346 
L 160.588376 107.518261 
L 160.873092 107.299801 
L 161.034969 107.176521 
L 161.179352 107.067125 
L 161.461007 106.855237 
L 161.640066 106.721565 
L 161.798544 106.603923 
L 161.931675 106.505576 
L 162.21533 106.297488 
L 162.412138 106.154264 
L 162.522103 106.074647 
L 162.748244 105.911831 
L 163.026766 105.712984 
L 163.209706 105.583378 
L 163.372694 105.468571 
L 163.47804 105.394698 
L 163.752645 105.20335 
L 163.965858 105.055985 
L 164.018708 105.01962 
L 164.394353 104.762978 
L 164.587651 104.632166 
L 164.691474 104.562253 
L 164.968821 104.376676 
L 165.001684 104.354801 
L 165.327548 104.139185 
L 165.570624 103.979872 
L 165.708359 103.890175 
L 165.827564 103.812877 
L 166.09011 103.643719 
L 166.32434 103.494058 
L 166.527389 103.365269 
L 166.730037 103.237608 
L 166.880555 103.143349 
L 167.102605 103.005165 
L 167.33372 102.862436 
L 167.393986 102.825399 
L 167.595285 102.702239 
L 167.861938 102.540379 
L 168.051042 102.426474 
L 168.182424 102.347767 
L 168.398186 102.219271 
L 168.517542 102.148592 
L 168.813348 101.974661 
L 169.086126 101.815818 
L 169.2 101.749945 
L 169.2 169.2 
z
" clip-path="url(#p47ed9b4816)" style="fill: #808080; opacity: 0.5"/>
   </g>
   <g id="patch_7">
    <path d="M 130.257692 169.2 
L 130.257692 169.2 
L 130.265392 170.295154 
L 130.273092 170.748744 
L 130.280792 171.096769 
L 130.288492 171.390146 
L 130.296192 171.648598 
L 130.303892 171.882238 
L 130.311592 172.097076 
L 130.319292 172.297028 
L 130.326992 172.484813 
L 130.334692 172.662412 
L 130.342392 172.831318 
L 130.350092 172.992694 
L 130.357792 173.147464 
L 130.365492 173.296376 
L 130.373192 173.440047 
L 130.380892 173.578993 
L 130.388592 173.713651 
L 130.396292 173.844394 
L 130.411692 174.095379 
L 130.427092 174.334062 
L 130.442492 174.562088 
L 130.457892 174.780762 
L 130.473292 174.991144 
L 130.488692 175.194106 
L 130.504092 175.39038 
L 130.517231 175.553009 
L 130.530369 175.711551 
L 130.556646 176.017507 
L 130.582923 176.310213 
L 130.6092 176.591244 
L 130.635477 176.861883 
L 130.661754 177.123196 
L 130.68803 177.376077 
L 130.714307 177.621286 
L 130.753371 177.973019 
L 130.792436 178.311016 
L 130.8315 178.636753 
L 130.870564 178.951459 
L 130.909139 179.252413 
L 130.947715 179.544472 
L 130.98629 179.828369 
L 131.024865 180.10474 
L 131.055558 180.319637 
L 131.086251 180.530375 
L 131.147636 180.940269 
L 131.209022 181.336017 
L 131.270408 181.718959 
L 131.319464 182.016554 
L 131.368521 182.30721 
L 131.417577 182.591379 
L 131.466634 182.869466 
L 131.518605 183.157849 
L 131.570577 183.440202 
L 131.622549 183.716879 
L 131.67452 183.988198 
L 131.7444 184.345067 
L 131.83972 184.818206 
L 131.935039 185.276863 
L 132.021635 185.682006 
L 132.108231 186.076981 
L 132.194827 186.462488 
L 132.281423 186.839147 
L 132.359828 187.17301 
L 132.438233 187.500449 
L 132.524634 187.854244 
L 132.611036 188.20106 
L 132.688153 188.505022 
L 132.765271 188.803969 
L 132.902966 189.325974 
L 133.040662 189.83386 
L 133.14886 190.223703 
L 133.257057 190.605901 
L 133.389119 191.062618 
L 133.498292 191.432505 
L 133.607466 191.79581 
L 133.703491 192.110169 
L 133.799516 192.419874 
L 133.897518 192.731353 
L 133.995521 193.03836 
L 134.140962 193.486089 
L 134.300135 193.96584 
L 134.460538 194.439061 
L 134.620942 194.902569 
L 134.740132 195.241003 
L 134.913119 195.72356 
L 135.056402 196.115864 
L 135.23336 196.591581 
L 135.410318 197.058051 
L 135.543233 197.402617 
L 135.675374 197.740443 
L 135.807516 198.073712 
L 135.964666 198.464336 
L 136.17227 198.971245 
L 136.301324 199.281329 
L 136.450541 199.635242 
L 136.599758 199.984362 
L 136.709671 200.238552 
L 136.859187 200.580408 
L 137.042891 200.994438 
L 137.254079 201.462554 
L 137.542091 202.088034 
L 137.600204 202.212496 
L 137.756916 202.545314 
L 137.913628 202.874114 
L 138.013157 203.080903 
L 138.254075 203.575111 
L 138.501232 204.073112 
L 138.74766 204.560942 
L 138.790848 204.645569 
L 139.079439 205.204632 
L 139.314852 205.652636 
L 139.449883 205.906459 
L 139.619212 206.221598 
L 139.783797 206.52462 
L 140.037321 206.985237 
L 140.265666 207.39391 
L 140.393402 207.620035 
L 140.595624 207.974461 
L 140.89457 208.490649 
L 140.977064 208.631503 
L 141.145393 208.916832 
L 141.327711 209.222781 
L 141.647075 209.751169 
L 141.87918 210.129344 
L 141.933698 210.217476 
L 142.263497 210.745103 
L 142.483158 211.091399 
L 142.620318 211.305607 
L 142.823865 211.620683 
L 142.894977 211.729979 
L 143.121894 212.07609 
L 143.354983 212.427489 
L 143.559883 212.733018 
L 143.6752 212.903608 
L 144.037084 213.432721 
L 144.117577 213.549151 
L 144.337178 213.864514 
L 144.567571 214.191846 
L 144.726896 214.416135 
L 144.86914 214.614971 
L 145.060352 214.880194 
L 145.369178 215.30366 
L 145.610121 215.629936 
L 145.678323 215.72165 
L 145.891982 216.00716 
L 146.181033 216.389128 
L 146.251346 216.481309 
L 146.419288 216.700338 
L 146.676444 217.032634 
L 146.835404 217.236204 
L 147.183413 217.677071 
L 147.332572 217.864046 
L 147.40657 217.956369 
L 147.664217 218.275593 
L 147.831079 218.480514 
L 148.000306 218.686896 
L 148.25375 218.993312 
L 148.518645 219.310201 
L 148.681363 219.503174 
L 148.805855 219.649963 
L 148.969931 219.842306 
L 149.164924 220.069259 
L 149.518572 220.476417 
L 149.724099 220.710448 
L 149.753501 220.743774 
L 149.968743 220.986578 
L 150.142248 221.180827 
L 150.337371 221.397726 
L 150.641894 221.732997 
L 150.765419 221.867883 
L 150.954622 222.073263 
L 151.201553 222.339099 
L 151.324823 222.470881 
L 151.612651 222.776219 
L 151.840831 223.015955 
L 151.883644 223.06071 
L 152.115125 223.301461 
L 152.361442 223.55539 
L 152.638439 223.838209 
L 152.809837 224.011778 
L 152.893623 224.09623 
L 153.149631 224.352687 
L 153.34813 224.5499 
L 153.504186 224.703955 
L 153.684434 224.880816 
L 153.98527 225.173463 
L 154.120888 225.304362 
L 154.31544 225.491044 
L 154.567003 225.730523 
L 154.81545 225.96495 
L 154.935901 226.077866 
L 155.049908 226.1843 
L 155.264494 226.383477 
L 155.564683 226.659609 
L 155.701377 226.784391 
L 155.811556 226.884537 
L 155.995793 227.051139 
L 156.293464 227.318076 
L 156.508734 227.509411 
L 156.674815 227.656056 
L 156.899432 227.853056 
L 157.084259 228.01402 
L 157.311973 228.210934 
L 157.549428 228.414642 
L 157.672108 228.51924 
L 157.844163 228.665199 
L 157.96414 228.766474 
L 158.208487 228.971455 
L 158.458441 229.179386 
L 158.552461 229.257143 
L 158.764992 229.432001 
L 158.932029 229.568549 
L 159.215617 229.798616 
L 159.509391 230.034634 
L 159.53639 230.056208 
L 159.793971 230.261049 
L 160.072483 230.480546 
L 160.126684 230.523024 
L 160.303239 230.660856 
L 160.583386 230.877892 
L 160.69086 230.960614 
L 160.988628 231.188255 
L 161.26837 231.400058 
L 161.403144 231.501396 
L 161.614148 231.659136 
L 161.667894 231.699138 
L 161.940886 231.901212 
L 162.096283 232.015419 
L 162.285136 232.15342 
L 162.529777 232.330899 
L 162.831843 232.548048 
L 162.934472 232.621328 
L 163.110758 232.746619 
L 163.415157 232.961237 
L 163.551159 233.056423 
L 163.815573 233.240252 
L 163.939074 233.32556 
L 164.05503 233.405336 
L 164.365441 233.617383 
L 164.577529 233.761005 
L 164.719139 233.856336 
L 164.980481 234.031088 
L 165.077154 234.095345 
L 165.369281 234.288259 
L 165.539972 234.40011 
L 165.618968 234.451658 
L 165.839235 234.594673 
L 166.121158 234.776187 
L 166.342019 234.917191 
L 166.382313 234.942803 
L 166.698413 235.142527 
L 166.820016 235.218796 
L 167.071135 235.375313 
L 167.246449 235.4838 
L 167.354541 235.550368 
L 167.67778 235.747993 
L 167.858119 235.857314 
L 168.061591 235.979858 
L 168.172638 236.046382 
L 168.438716 236.204762 
L 168.615365 236.309121 
L 168.846664 236.444819 
L 168.969273 236.516318 
L 169.2 236.650055 
L 169.2 169.2 
z
" clip-path="url(#p47ed9b4816)" style="fill: #808080; opacity: 0.5"/>
   </g>
   <g id="matplotlib.axis_1"/>
   <g id="matplotlib.axis_2"/>
   <g id="line2d_1">
    <path d="M 169.2 101.749945 
L 172.851696 103.994447 
L 176.194802 106.304887 
L 179.377044 108.757444 
L 182.588724 111.515717 
L 185.557799 114.355569 
L 188.468474 117.455259 
L 191.152386 120.642307 
L 193.578053 123.850851 
L 195.912581 127.301922 
L 198.139288 131.014894 
L 200.057492 134.645676 
L 201.719552 138.22879 
L 203.35173 142.306228 
L 204.636233 146.094891 
L 205.732553 149.97609 
L 206.680821 154.18272 
L 207.383159 158.352159 
L 207.853459 162.498485 
L 208.098297 166.58208 
L 208.142308 169.2 
L 208.142308 169.2 
" clip-path="url(#p47ed9b4816)" style="fill: none; stroke: #0000ff; stroke-linecap: square"/>
   </g>
   <g id="line2d_2">
    <path d="M 169.2 236.650055 
L 172.73443 234.482004 
L 176.141379 232.134097 
L 179.445507 229.586855 
L 182.465126 226.996169 
L 185.45918 224.14369 
L 188.358848 221.067804 
L 191.104726 217.817402 
L 193.655771 214.440434 
L 196.053056 210.877133 
L 198.18784 207.298666 
L 200.04781 203.773874 
L 201.83851 199.895275 
L 203.31693 196.188165 
L 204.631977 192.318803 
L 205.703599 188.537232 
L 206.621065 184.518247 
L 207.297659 180.639267 
L 207.806049 176.429506 
L 208.085362 172.177785 
L 208.142308 169.2 
L 208.142308 169.2 
" clip-path="url(#p47ed9b4816)" style="fill: none; stroke: #0000ff; stroke-linecap: square"/>
   </g>
   <g id="line2d_3">
    <path d="M 130.257692 169.2 
L 130.386351 164.725128 
L 130.736938 160.573174 
L 131.300125 156.499909 
L 132.083324 152.435624 
L 133.112294 148.307169 
L 134.394929 144.153296 
L 135.928018 140.026217 
L 137.50289 136.39625 
L 139.361443 132.659531 
L 141.333565 129.167448 
L 143.570776 125.650825 
L 146.020554 122.222335 
L 148.677746 118.901101 
L 151.523502 115.718002 
L 154.453172 112.777575 
L 157.688266 109.867016 
L 160.873092 107.299801 
L 164.018708 105.01962 
L 167.595285 102.702239 
L 169.2 101.749945 
L 169.2 101.749945 
" clip-path="url(#p47ed9b4816)" style="fill: none; stroke: #0000ff; stroke-linecap: square"/>
   </g>
   <g id="line2d_4">
    <path d="M 130.257692 169.2 
L 130.396292 173.844394 
L 130.753371 177.973019 
L 131.319464 182.016554 
L 132.108231 186.076981 
L 133.14886 190.223703 
L 134.300135 193.96584 
L 135.807516 198.073712 
L 137.542091 202.088034 
L 139.314852 205.652636 
L 141.327711 209.222781 
L 143.6752 212.903608 
L 146.251346 216.481309 
L 148.805855 219.649963 
L 151.612651 222.776219 
L 154.567003 225.730523 
L 157.672108 228.51924 
L 160.988628 231.188255 
L 164.365441 233.617383 
L 167.858119 235.857314 
L 169.2 236.650055 
L 169.2 236.650055 
" clip-path="url(#p47ed9b4816)" style="fill: none; stroke: #0000ff; stroke-linecap: square"/>
   </g>
   <g id="text_1">
    <!-- $\Omega$ -->
    <g transform="translate(17.569231 23.978606)scale(0.1 -0.1)">
     <defs>
      <path id="Cmr10-ad" d="M 494 0 
L 281 1063 
L 469 1063 
Q 503 878 531 736 
Q 559 594 604 536 
Q 650 478 750 459 
Q 850 441 1081 441 
L 1472 441 
Q 1378 803 1004 1386 
Q 631 1969 495 2233 
Q 359 2497 359 2913 
Q 359 3397 646 3761 
Q 934 4125 1389 4319 
Q 1844 4513 2309 4513 
Q 2772 4513 3226 4319 
Q 3681 4125 3968 3758 
Q 4256 3391 4256 2913 
Q 4256 2588 4137 2300 
Q 4019 2013 3834 1725 
Q 3650 1438 3436 1084 
Q 3222 731 3144 441 
L 3531 441 
Q 3766 441 3869 459 
Q 3972 478 4015 536 
Q 4059 594 4086 736 
Q 4113 878 4147 1063 
L 4331 1063 
L 4122 0 
L 2988 0 
Q 2925 0 2925 84 
Q 2925 409 3004 721 
Q 3084 1034 3240 1478 
Q 3397 1922 3484 2261 
Q 3572 2600 3572 2913 
Q 3572 3297 3422 3625 
Q 3272 3953 2984 4150 
Q 2697 4347 2309 4347 
Q 1725 4347 1384 3930 
Q 1044 3513 1044 2913 
Q 1047 2584 1122 2293 
Q 1197 2003 1364 1518 
Q 1531 1034 1611 721 
Q 1691 409 1691 84 
Q 1691 0 1625 0 
L 494 0 
z
" transform="scale(0.015625)"/>
     </defs>
     <use xlink:href="#Cmr10-ad" transform="translate(0 0.484375)"/>
    </g>
   </g>
   <g id="text_2">
    <!-- $A$ -->
    <g style="fill: #0000ff" transform="translate(87.565385 94.07476)scale(0.1 -0.1)">
     <defs>
      <path id="Cmmi10-41" d="M 288 0 
Q 225 0 225 84 
Q 250 225 306 225 
Q 566 225 755 328 
Q 944 431 1081 647 
Q 1094 659 1094 659 
L 3378 4513 
Q 3428 4581 3500 4581 
L 3584 4581 
Q 3603 4581 3622 4573 
Q 3641 4566 3655 4548 
Q 3669 4531 3669 4513 
L 4056 378 
Q 4056 350 4084 294 
Q 4147 225 4563 225 
Q 4628 225 4628 141 
Q 4606 56 4592 28 
Q 4578 0 4519 0 
L 2919 0 
Q 2859 0 2859 84 
Q 2894 225 2944 225 
Q 3450 225 3481 397 
L 3384 1453 
L 1806 1453 
L 1294 594 
Q 1247 525 1247 434 
Q 1247 322 1355 273 
Q 1463 225 1594 225 
Q 1656 225 1656 141 
Q 1634 50 1621 25 
Q 1609 0 1550 0 
L 288 0 
z
M 1931 1678 
L 3359 1678 
L 3169 3750 
L 1931 1678 
z
" transform="scale(0.015625)"/>
     </defs>
     <use xlink:href="#Cmmi10-41" transform="translate(0 0.421875)"/>
    </g>
   </g>
   <g id="text_3">
    <!-- $B$ -->
    <g style="fill: #ff0000" transform="translate(243.284615 94.07476)scale(0.1 -0.1)">
     <defs>
      <path id="Cmmi10-42" d="M 319 0 
Q 256 0 256 84 
Q 259 100 268 137 
Q 278 175 293 200 
Q 309 225 341 225 
Q 522 225 656 234 
Q 791 244 884 269 
Q 959 297 1006 441 
L 1881 3956 
Q 1894 4019 1894 4044 
Q 1894 4113 1819 4122 
Q 1697 4147 1356 4147 
Q 1294 4147 1294 4231 
Q 1297 4247 1306 4286 
Q 1316 4325 1333 4348 
Q 1350 4372 1375 4372 
L 3669 4372 
Q 3878 4372 4083 4320 
Q 4288 4269 4461 4156 
Q 4634 4044 4736 3876 
Q 4838 3709 4838 3488 
Q 4838 3247 4714 3040 
Q 4591 2834 4395 2681 
Q 4200 2528 3973 2429 
Q 3747 2331 3500 2284 
Q 3675 2284 3854 2215 
Q 4034 2147 4175 2028 
Q 4316 1909 4402 1743 
Q 4488 1578 4488 1388 
Q 4488 1003 4219 684 
Q 3950 366 3542 183 
Q 3134 0 2753 0 
L 319 0 
z
M 1497 275 
Q 1497 225 1716 225 
L 2631 225 
Q 2944 225 3231 398 
Q 3519 572 3692 859 
Q 3866 1147 3866 1459 
Q 3866 1650 3786 1820 
Q 3706 1991 3556 2089 
Q 3406 2188 3213 2188 
L 1966 2188 
L 1522 416 
Q 1497 328 1497 275 
z
M 2009 2356 
L 2981 2356 
Q 3288 2356 3577 2512 
Q 3866 2669 4048 2937 
Q 4231 3206 4231 3506 
Q 4231 3784 4057 3965 
Q 3884 4147 3609 4147 
L 2731 4147 
Q 2559 4147 2500 4115 
Q 2441 4084 2400 3928 
L 2009 2356 
z
" transform="scale(0.015625)"/>
     </defs>
     <use xlink:href="#Cmmi10-42" transform="translate(0 0.6875)"/>
    </g>
   </g>
   <g id="text_4">
    <!-- $A\cap B$, colorée en gris -->
    <g transform="translate(116.25 55.323077)scale(0.1 -0.1)">
     <defs>
      <path id="Cmsy10-5c" d="M 359 -25 
L 359 2472 
Q 359 2897 625 3206 
Q 891 3516 1306 3672 
Q 1722 3828 2131 3828 
Q 2434 3828 2745 3745 
Q 3056 3663 3320 3489 
Q 3584 3316 3743 3056 
Q 3903 2797 3903 2472 
L 3903 -25 
Q 3903 -75 3865 -108 
Q 3828 -141 3775 -141 
Q 3728 -141 3687 -108 
Q 3647 -75 3647 -25 
L 3647 2450 
Q 3647 2731 3508 2945 
Q 3369 3159 3151 3293 
Q 2934 3428 2662 3500 
Q 2391 3572 2131 3572 
Q 1775 3572 1426 3447 
Q 1078 3322 847 3069 
Q 616 2816 616 2450 
L 616 -25 
Q 616 -75 575 -108 
Q 534 -141 488 -141 
Q 434 -141 396 -108 
Q 359 -75 359 -25 
z
" transform="scale(0.015625)"/>
      <path id="DejaVuSans-2c" d="M 750 794 
L 1409 794 
L 1409 256 
L 897 -744 
L 494 -744 
L 750 256 
L 750 794 
z
" transform="scale(0.015625)"/>
      <path id="DejaVuSans-20" transform="scale(0.015625)"/>
      <path id="DejaVuSans-63" d="M 3122 3366 
L 3122 2828 
Q 2878 2963 2633 3030 
Q 2388 3097 2138 3097 
Q 1578 3097 1268 2742 
Q 959 2388 959 1747 
Q 959 1106 1268 751 
Q 1578 397 2138 397 
Q 2388 397 2633 464 
Q 2878 531 3122 666 
L 3122 134 
Q 2881 22 2623 -34 
Q 2366 -91 2075 -91 
Q 1284 -91 818 406 
Q 353 903 353 1747 
Q 353 2603 823 3093 
Q 1294 3584 2113 3584 
Q 2378 3584 2631 3529 
Q 2884 3475 3122 3366 
z
" transform="scale(0.015625)"/>
      <path id="DejaVuSans-6f" d="M 1959 3097 
Q 1497 3097 1228 2736 
Q 959 2375 959 1747 
Q 959 1119 1226 758 
Q 1494 397 1959 397 
Q 2419 397 2687 759 
Q 2956 1122 2956 1747 
Q 2956 2369 2687 2733 
Q 2419 3097 1959 3097 
z
M 1959 3584 
Q 2709 3584 3137 3096 
Q 3566 2609 3566 1747 
Q 3566 888 3137 398 
Q 2709 -91 1959 -91 
Q 1206 -91 779 398 
Q 353 888 353 1747 
Q 353 2609 779 3096 
Q 1206 3584 1959 3584 
z
" transform="scale(0.015625)"/>
      <path id="DejaVuSans-6c" d="M 603 4863 
L 1178 4863 
L 1178 0 
L 603 0 
L 603 4863 
z
" transform="scale(0.015625)"/>
      <path id="DejaVuSans-72" d="M 2631 2963 
Q 2534 3019 2420 3045 
Q 2306 3072 2169 3072 
Q 1681 3072 1420 2755 
Q 1159 2438 1159 1844 
L 1159 0 
L 581 0 
L 581 3500 
L 1159 3500 
L 1159 2956 
Q 1341 3275 1631 3429 
Q 1922 3584 2338 3584 
Q 2397 3584 2469 3576 
Q 2541 3569 2628 3553 
L 2631 2963 
z
" transform="scale(0.015625)"/>
      <path id="DejaVuSans-e9" d="M 3597 1894 
L 3597 1613 
L 953 1613 
Q 991 1019 1311 708 
Q 1631 397 2203 397 
Q 2534 397 2845 478 
Q 3156 559 3463 722 
L 3463 178 
Q 3153 47 2828 -22 
Q 2503 -91 2169 -91 
Q 1331 -91 842 396 
Q 353 884 353 1716 
Q 353 2575 817 3079 
Q 1281 3584 2069 3584 
Q 2775 3584 3186 3129 
Q 3597 2675 3597 1894 
z
M 3022 2063 
Q 3016 2534 2758 2815 
Q 2500 3097 2075 3097 
Q 1594 3097 1305 2825 
Q 1016 2553 972 2059 
L 3022 2063 
z
M 2469 5119 
L 3091 5119 
L 2072 3944 
L 1594 3944 
L 2469 5119 
z
" transform="scale(0.015625)"/>
      <path id="DejaVuSans-65" d="M 3597 1894 
L 3597 1613 
L 953 1613 
Q 991 1019 1311 708 
Q 1631 397 2203 397 
Q 2534 397 2845 478 
Q 3156 559 3463 722 
L 3463 178 
Q 3153 47 2828 -22 
Q 2503 -91 2169 -91 
Q 1331 -91 842 396 
Q 353 884 353 1716 
Q 353 2575 817 3079 
Q 1281 3584 2069 3584 
Q 2775 3584 3186 3129 
Q 3597 2675 3597 1894 
z
M 3022 2063 
Q 3016 2534 2758 2815 
Q 2500 3097 2075 3097 
Q 1594 3097 1305 2825 
Q 1016 2553 972 2059 
L 3022 2063 
z
" transform="scale(0.015625)"/>
      <path id="DejaVuSans-6e" d="M 3513 2113 
L 3513 0 
L 2938 0 
L 2938 2094 
Q 2938 2591 2744 2837 
Q 2550 3084 2163 3084 
Q 1697 3084 1428 2787 
Q 1159 2491 1159 1978 
L 1159 0 
L 581 0 
L 581 3500 
L 1159 3500 
L 1159 2956 
Q 1366 3272 1645 3428 
Q 1925 3584 2291 3584 
Q 2894 3584 3203 3211 
Q 3513 2838 3513 2113 
z
" transform="scale(0.015625)"/>
      <path id="DejaVuSans-67" d="M 2906 1791 
Q 2906 2416 2648 2759 
Q 2391 3103 1925 3103 
Q 1463 3103 1205 2759 
Q 947 2416 947 1791 
Q 947 1169 1205 825 
Q 1463 481 1925 481 
Q 2391 481 2648 825 
Q 2906 1169 2906 1791 
z
M 3481 434 
Q 3481 -459 3084 -895 
Q 2688 -1331 1869 -1331 
Q 1566 -1331 1297 -1286 
Q 1028 -1241 775 -1147 
L 775 -588 
Q 1028 -725 1275 -790 
Q 1522 -856 1778 -856 
Q 2344 -856 2625 -561 
Q 2906 -266 2906 331 
L 2906 616 
Q 2728 306 2450 153 
Q 2172 0 1784 0 
Q 1141 0 747 490 
Q 353 981 353 1791 
Q 353 2603 747 3093 
Q 1141 3584 1784 3584 
Q 2172 3584 2450 3431 
Q 2728 3278 2906 2969 
L 2906 3500 
L 3481 3500 
L 3481 434 
z
" transform="scale(0.015625)"/>
      <path id="DejaVuSans-69" d="M 603 3500 
L 1178 3500 
L 1178 0 
L 603 0 
L 603 3500 
z
M 603 4863 
L 1178 4863 
L 1178 4134 
L 603 4134 
L 603 4863 
z
" transform="scale(0.015625)"/>
      <path id="DejaVuSans-73" d="M 2834 3397 
L 2834 2853 
Q 2591 2978 2328 3040 
Q 2066 3103 1784 3103 
Q 1356 3103 1142 2972 
Q 928 2841 928 2578 
Q 928 2378 1081 2264 
Q 1234 2150 1697 2047 
L 1894 2003 
Q 2506 1872 2764 1633 
Q 3022 1394 3022 966 
Q 3022 478 2636 193 
Q 2250 -91 1575 -91 
Q 1294 -91 989 -36 
Q 684 19 347 128 
L 347 722 
Q 666 556 975 473 
Q 1284 391 1588 391 
Q 1994 391 2212 530 
Q 2431 669 2431 922 
Q 2431 1156 2273 1281 
Q 2116 1406 1581 1522 
L 1381 1569 
Q 847 1681 609 1914 
Q 372 2147 372 2553 
Q 372 3047 722 3315 
Q 1072 3584 1716 3584 
Q 2034 3584 2315 3537 
Q 2597 3491 2834 3397 
z
" transform="scale(0.015625)"/>
     </defs>
     <use xlink:href="#Cmmi10-41" transform="translate(0 0.015625)"/>
     <use xlink:href="#Cmsy10-5c" transform="translate(92.558594 0.015625)"/>
     <use xlink:href="#Cmmi10-42" transform="translate(176.71875 0.015625)"/>
     <use xlink:href="#DejaVuSans-2c" transform="translate(252.5 0.015625)"/>
     <use xlink:href="#DejaVuSans-20" transform="translate(284.287109 0.015625)"/>
     <use xlink:href="#DejaVuSans-63" transform="translate(316.074219 0.015625)"/>
     <use xlink:href="#DejaVuSans-6f" transform="translate(371.054688 0.015625)"/>
     <use xlink:href="#DejaVuSans-6c" transform="translate(432.236328 0.015625)"/>
     <use xlink:href="#DejaVuSans-6f" transform="translate(460.019531 0.015625)"/>
     <use xlink:href="#DejaVuSans-72" transform="translate(521.201172 0.015625)"/>
     <use xlink:href="#DejaVuSans-e9" transform="translate(562.314453 0.015625)"/>
     <use xlink:href="#DejaVuSans-65" transform="translate(623.837891 0.015625)"/>
     <use xlink:href="#DejaVuSans-20" transform="translate(685.361328 0.015625)"/>
     <use xlink:href="#DejaVuSans-65" transform="translate(717.148438 0.015625)"/>
     <use xlink:href="#DejaVuSans-6e" transform="translate(778.671875 0.015625)"/>
     <use xlink:href="#DejaVuSans-20" transform="translate(842.050781 0.015625)"/>
     <use xlink:href="#DejaVuSans-67" transform="translate(873.837891 0.015625)"/>
     <use xlink:href="#DejaVuSans-72" transform="translate(937.314453 0.015625)"/>
     <use xlink:href="#DejaVuSans-69" transform="translate(978.427734 0.015625)"/>
     <use xlink:href="#DejaVuSans-73" transform="translate(1006.210938 0.015625)"/>
    </g>
   </g>
   <g id="patch_8">
    <path d="M 130.257692 247.084615 
C 150.912934 247.084615 170.724971 238.878201 185.330432 224.27274 
C 199.935893 209.667278 208.142308 189.855241 208.142308 169.2 
C 208.142308 148.544759 199.935893 128.732722 185.330432 114.12726 
C 170.724971 99.521799 150.912934 91.315385 130.257692 91.315385 
C 109.602451 91.315385 89.790414 99.521799 75.184953 114.12726 
C 60.579491 128.732722 52.373077 148.544759 52.373077 169.2 
C 52.373077 189.855241 60.579491 209.667278 75.184953 224.27274 
C 89.790414 238.878201 109.602451 247.084615 130.257692 247.084615 
L 130.257692 247.084615 
z
" clip-path="url(#p47ed9b4816)" style="fill: none; stroke: #0000ff; stroke-linejoin: miter"/>
   </g>
   <g id="patch_9">
    <path d="M 208.142308 247.084615 
C 228.797549 247.084615 248.609586 238.878201 263.215047 224.27274 
C 277.820509 209.667278 286.026923 189.855241 286.026923 169.2 
C 286.026923 148.544759 277.820509 128.732722 263.215047 114.12726 
C 248.609586 99.521799 228.797549 91.315385 208.142308 91.315385 
C 187.487066 91.315385 167.675029 99.521799 153.069568 114.12726 
C 138.464107 128.732722 130.257692 148.544759 130.257692 169.2 
C 130.257692 189.855241 138.464107 209.667278 153.069568 224.27274 
C 167.675029 238.878201 187.487066 247.084615 208.142308 247.084615 
L 208.142308 247.084615 
z
" clip-path="url(#p47ed9b4816)" style="fill: none; stroke: #ff0000; stroke-linejoin: miter"/>
   </g>
  </g>
 </g>
 <defs>
  <clipPath id="p47ed9b4816">
   <rect x="7.2" y="7.2" width="324" height="324"/>
  </clipPath>
 </defs>
</svg>
