<?xml version="1.0" encoding="utf-8" standalone="no"?>
<!DOCTYPE svg PUBLIC "-//W3C//DTD SVG 1.1//EN"
  "http://www.w3.org/Graphics/SVG/1.1/DTD/svg11.dtd">
<svg xmlns:xlink="http://www.w3.org/1999/xlink" width="384.685714pt" height="338.4pt" viewBox="0 0 384.685714 338.4" xmlns="http://www.w3.org/2000/svg" version="1.1">
 <metadata>
  <rdf:RDF xmlns:dc="http://purl.org/dc/elements/1.1/" xmlns:cc="http://creativecommons.org/ns#" xmlns:rdf="http://www.w3.org/1999/02/22-rdf-syntax-ns#">
   <cc:Work>
    <dc:type rdf:resource="http://purl.org/dc/dcmitype/StillImage"/>
    <dc:date>2022-08-23T17:25:58.326473</dc:date>
    <dc:format>image/svg+xml</dc:format>
    <dc:creator>
     <cc:Agent>
      <dc:title>Matplotlib v3.5.2, https://matplotlib.org/</dc:title>
     </cc:Agent>
    </dc:creator>
   </cc:Work>
  </rdf:RDF>
 </metadata>
 <defs>
  <style type="text/css">*{stroke-linejoin: round; stroke-linecap: butt}</style>
 </defs>
 <g id="figure_1">
  <g id="patch_1">
   <path d="M 0 338.4 
L 384.685714 338.4 
L 384.685714 0 
L 0 0 
z
" style="fill: #ffffff"/>
  </g>
  <g id="axes_1">
   <g id="patch_2">
    <path d="M 7.2 331.2 
L 377.485714 331.2 
L 377.485714 7.2 
L 7.2 7.2 
z
" style="fill: #ffffff"/>
   </g>
   <g id="PathCollection_1">
    <path d="M 58.826374 104.677826 
C 59.419386 104.677826 59.98819 104.44222 60.407512 104.022897 
C 60.826835 103.603574 61.062442 103.03477 61.062442 102.441758 
C 61.062442 101.848746 60.826835 101.279942 60.407512 100.860619 
C 59.98819 100.441296 59.419386 100.20569 58.826374 100.20569 
C 58.233361 100.20569 57.664558 100.441296 57.245235 100.860619 
C 56.825912 101.279942 56.590306 101.848746 56.590306 102.441758 
C 56.590306 103.03477 56.825912 103.603574 57.245235 104.022897 
C 57.664558 104.44222 58.233361 104.677826 58.826374 104.677826 
z
" clip-path="url(#p7ac131cf20)"/>
   </g>
   <g id="PathCollection_2">
    <path d="M 192.342857 104.677826 
C 192.935869 104.677826 193.504673 104.44222 193.923996 104.022897 
C 194.343319 103.603574 194.578925 103.03477 194.578925 102.441758 
C 194.578925 101.848746 194.343319 101.279942 193.923996 100.860619 
C 193.504673 100.441296 192.935869 100.20569 192.342857 100.20569 
C 191.749845 100.20569 191.181041 100.441296 190.761718 100.860619 
C 190.342395 101.279942 190.106789 101.848746 190.106789 102.441758 
C 190.106789 103.03477 190.342395 103.603574 190.761718 104.022897 
C 191.181041 104.44222 191.749845 104.677826 192.342857 104.677826 
z
" clip-path="url(#p7ac131cf20)"/>
   </g>
   <g id="PathCollection_3">
    <path d="M 325.859341 104.677826 
C 326.452353 104.677826 327.021157 104.44222 327.440479 104.022897 
C 327.859802 103.603574 328.095409 103.03477 328.095409 102.441758 
C 328.095409 101.848746 327.859802 101.279942 327.440479 100.860619 
C 327.021157 100.441296 326.452353 100.20569 325.859341 100.20569 
C 325.266328 100.20569 324.697525 100.441296 324.278202 100.860619 
C 323.858879 101.279942 323.623273 101.848746 323.623273 102.441758 
C 323.623273 103.03477 323.858879 103.603574 324.278202 104.022897 
C 324.697525 104.44222 325.266328 104.677826 325.859341 104.677826 
z
" clip-path="url(#p7ac131cf20)"/>
   </g>
   <g id="matplotlib.axis_1"/>
   <g id="matplotlib.axis_2"/>
   <g id="patch_3">
    <path d="M 103.331868 146.947253 
Q 125.584615 146.947253 146.719329 146.947253 
" clip-path="url(#p7ac131cf20)" style="fill: none; stroke: #000000; stroke-linecap: round"/>
    <path d="M 142.719329 144.947253 
L 146.719329 146.947253 
L 142.719329 148.947253 
L 142.719329 144.947253 
z
" clip-path="url(#p7ac131cf20)" style="stroke: #000000; stroke-linecap: round"/>
   </g>
   <g id="patch_4">
    <path d="M 236.848352 146.947253 
Q 259.101099 146.947253 280.235812 146.947253 
" clip-path="url(#p7ac131cf20)" style="fill: none; stroke: #000000; stroke-linecap: round"/>
    <path d="M 276.235812 144.947253 
L 280.235812 146.947253 
L 276.235812 148.947253 
L 276.235812 144.947253 
z
" clip-path="url(#p7ac131cf20)" style="stroke: #000000; stroke-linecap: round"/>
   </g>
   <g id="patch_5">
    <path d="M 58.826374 235.958242 
Q 192.342857 324.969231 312.507692 244.859341 
" clip-path="url(#p7ac131cf20)" style="fill: none; stroke: #000000; stroke-linejoin: miter"/>
   </g>
   <g id="patch_6">
    <path d="M 312.507692 244.859341 
Q 319.183516 240.408791 324.92908 236.578415 
" clip-path="url(#p7ac131cf20)" style="fill: none; stroke: #000000; stroke-linecap: round"/>
    <path d="M 320.491479 237.133116 
L 324.92908 236.578415 
L 322.710279 240.461317 
L 320.491479 237.133116 
z
" clip-path="url(#p7ac131cf20)" style="stroke: #000000; stroke-linecap: round"/>
   </g>
   <g id="patch_7">
    <path d="M 58.826374 102.441758 
Q 125.584615 71.287912 183.441758 97.991209 
" clip-path="url(#p7ac131cf20)" style="fill: none; stroke: #000000; stroke-linejoin: miter"/>
   </g>
   <g id="patch_8">
    <path d="M 183.441758 97.991209 
Q 187.892308 100.216484 191.342857 101.941758 
" clip-path="url(#p7ac131cf20)" style="fill: none; stroke: #000000; stroke-linecap: round"/>
    <path d="M 188.659576 98.364049 
L 191.342857 101.941758 
L 186.870721 101.941758 
L 188.659576 98.364049 
z
" clip-path="url(#p7ac131cf20)" style="stroke: #000000; stroke-linecap: round"/>
   </g>
   <g id="patch_9">
    <path d="M 192.342857 102.441758 
Q 259.101099 71.287912 316.958242 97.991209 
" clip-path="url(#p7ac131cf20)" style="fill: none; stroke: #000000; stroke-linejoin: miter"/>
   </g>
   <g id="patch_10">
    <path d="M 316.958242 97.991209 
Q 321.408791 100.216484 324.859341 101.941758 
" clip-path="url(#p7ac131cf20)" style="fill: none; stroke: #000000; stroke-linecap: round"/>
    <path d="M 322.176059 98.364049 
L 324.859341 101.941758 
L 320.387205 101.941758 
L 322.176059 98.364049 
z
" clip-path="url(#p7ac131cf20)" style="stroke: #000000; stroke-linecap: round"/>
   </g>
   <g id="patch_11">
    <path d="M 58.826374 102.441758 
Q 192.342857 13.430769 308.057143 84.63956 
" clip-path="url(#p7ac131cf20)" style="fill: none; stroke: #000000; stroke-linejoin: miter"/>
   </g>
   <g id="patch_12">
    <path d="M 308.057143 84.63956 
Q 316.958242 91.315385 324.964913 97.320388 
" clip-path="url(#p7ac131cf20)" style="fill: none; stroke: #000000; stroke-linecap: round"/>
    <path d="M 322.964913 93.320388 
L 324.964913 97.320388 
L 320.564913 96.520388 
L 322.964913 93.320388 
z
" clip-path="url(#p7ac131cf20)" style="stroke: #000000; stroke-linecap: round"/>
   </g>
   <g id="text_1">
    <!-- $a$ -->
    <g transform="translate(55.646374 119.104657)scale(0.12 -0.12)">
     <defs>
      <path id="Cmmi10-61" d="M 1113 -72 
Q 709 -72 476 233 
Q 244 538 244 953 
Q 244 1363 456 1803 
Q 669 2244 1030 2536 
Q 1391 2828 1806 2828 
Q 1997 2828 2147 2725 
Q 2297 2622 2381 2444 
Q 2453 2700 2663 2700 
Q 2744 2700 2798 2651 
Q 2853 2603 2853 2522 
Q 2853 2503 2851 2493 
Q 2850 2484 2847 2472 
L 2400 684 
Q 2356 494 2356 372 
Q 2356 97 2541 97 
Q 2741 97 2845 351 
Q 2950 606 3022 941 
Q 3034 978 3072 978 
L 3150 978 
Q 3175 978 3190 956 
Q 3206 934 3206 916 
Q 3094 469 2961 198 
Q 2828 -72 2528 -72 
Q 2313 -72 2147 54 
Q 1981 181 1941 391 
Q 1528 -72 1113 -72 
z
M 1119 97 
Q 1350 97 1567 270 
Q 1784 444 1941 678 
Q 1947 684 1947 697 
L 2291 2088 
L 2297 2106 
Q 2259 2334 2132 2498 
Q 2006 2663 1791 2663 
Q 1575 2663 1389 2486 
Q 1203 2309 1075 2069 
Q 950 1813 836 1366 
Q 722 919 722 672 
Q 722 450 817 273 
Q 913 97 1119 97 
z
" transform="scale(0.015625)"/>
     </defs>
     <use xlink:href="#Cmmi10-61" transform="translate(0 0.8125)"/>
    </g>
   </g>
   <g id="text_2">
    <!-- $g(a)$ -->
    <g transform="translate(181.602857 118.793407)scale(0.12 -0.12)">
     <defs>
      <path id="Cmmi10-67" d="M 91 -916 
Q 91 -759 198 -642 
Q 306 -525 459 -525 
Q 563 -525 633 -589 
Q 703 -653 703 -756 
Q 703 -872 637 -964 
Q 572 -1056 469 -1094 
Q 641 -1147 1006 -1147 
Q 1300 -1147 1544 -920 
Q 1788 -694 1863 -397 
L 2047 353 
Q 1700 0 1325 0 
Q 1050 0 854 140 
Q 659 281 556 515 
Q 453 750 453 1013 
Q 453 1306 573 1628 
Q 694 1950 911 2225 
Q 1128 2500 1409 2664 
Q 1691 2828 2003 2828 
Q 2191 2828 2341 2725 
Q 2491 2622 2578 2450 
Q 2641 2700 2853 2700 
Q 2934 2700 2990 2651 
Q 3047 2603 3047 2522 
Q 3047 2503 3045 2493 
Q 3044 2484 3041 2472 
L 2309 -434 
Q 2259 -634 2125 -800 
Q 1991 -966 1809 -1077 
Q 1628 -1188 1412 -1250 
Q 1197 -1313 997 -1313 
Q 631 -1313 361 -1242 
Q 91 -1172 91 -916 
z
M 1338 166 
Q 1747 166 2144 728 
L 2497 2125 
Q 2453 2347 2322 2505 
Q 2191 2663 1991 2663 
Q 1778 2663 1589 2489 
Q 1400 2316 1275 2075 
Q 1156 1844 1045 1411 
Q 934 978 934 728 
Q 934 509 1034 337 
Q 1134 166 1338 166 
z
" transform="scale(0.015625)"/>
      <path id="Cmr10-28" d="M 1984 -1588 
Q 1628 -1306 1370 -942 
Q 1113 -578 948 -165 
Q 784 247 703 697 
Q 622 1147 622 1600 
Q 622 2059 703 2509 
Q 784 2959 951 3375 
Q 1119 3791 1378 4153 
Q 1638 4516 1984 4788 
Q 1984 4800 2016 4800 
L 2075 4800 
Q 2094 4800 2109 4783 
Q 2125 4766 2125 4744 
Q 2125 4716 2113 4703 
Q 1800 4397 1592 4047 
Q 1384 3697 1257 3301 
Q 1131 2906 1075 2482 
Q 1019 2059 1019 1600 
Q 1019 -434 2106 -1491 
Q 2125 -1509 2125 -1544 
Q 2125 -1559 2108 -1579 
Q 2091 -1600 2075 -1600 
L 2016 -1600 
Q 1984 -1600 1984 -1588 
z
" transform="scale(0.015625)"/>
      <path id="Cmr10-29" d="M 416 -1600 
Q 359 -1600 359 -1544 
Q 359 -1516 372 -1503 
Q 1466 -434 1466 1600 
Q 1466 3634 384 4691 
Q 359 4706 359 4744 
Q 359 4766 376 4783 
Q 394 4800 416 4800 
L 475 4800 
Q 494 4800 506 4788 
Q 966 4425 1272 3906 
Q 1578 3388 1720 2800 
Q 1863 2213 1863 1600 
Q 1863 1147 1786 708 
Q 1709 269 1542 -157 
Q 1375 -584 1119 -945 
Q 863 -1306 506 -1588 
Q 494 -1600 475 -1600 
L 416 -1600 
z
" transform="scale(0.015625)"/>
     </defs>
     <use xlink:href="#Cmmi10-67"/>
     <use xlink:href="#Cmr10-28" transform="translate(47.705078 0)"/>
     <use xlink:href="#Cmmi10-61" transform="translate(86.523438 0)"/>
     <use xlink:href="#Cmr10-29" transform="translate(139.306641 0)"/>
    </g>
   </g>
   <g id="text_3">
    <!-- $f(g(a))$ -->
    <g transform="translate(307.559341 118.793407)scale(0.12 -0.12)">
     <defs>
      <path id="Cmmi10-66" d="M 622 -1056 
Q 741 -1147 909 -1147 
Q 1138 -1147 1281 -641 
Q 1341 -397 1606 966 
L 1900 2534 
L 1350 2534 
Q 1288 2534 1288 2619 
Q 1313 2759 1369 2759 
L 1941 2759 
L 2016 3175 
Q 2053 3369 2084 3508 
Q 2116 3647 2152 3765 
Q 2188 3884 2259 4031 
Q 2369 4241 2555 4377 
Q 2741 4513 2956 4513 
Q 3097 4513 3230 4461 
Q 3363 4409 3447 4306 
Q 3531 4203 3531 4063 
Q 3531 3900 3423 3779 
Q 3316 3659 3163 3659 
Q 3059 3659 2986 3723 
Q 2913 3788 2913 3891 
Q 2913 4031 3008 4136 
Q 3103 4241 3244 4256 
Q 3125 4347 2950 4347 
Q 2853 4347 2767 4256 
Q 2681 4166 2656 4063 
Q 2616 3900 2478 3181 
L 2400 2759 
L 3059 2759 
Q 3122 2759 3122 2675 
Q 3119 2659 3109 2620 
Q 3100 2581 3083 2557 
Q 3066 2534 3041 2534 
L 2356 2534 
L 2059 972 
Q 2003 631 1929 279 
Q 1856 -72 1723 -442 
Q 1591 -813 1384 -1063 
Q 1178 -1313 897 -1313 
Q 681 -1313 511 -1189 
Q 341 -1066 341 -863 
Q 341 -700 445 -579 
Q 550 -459 709 -459 
Q 816 -459 887 -523 
Q 959 -588 959 -691 
Q 959 -828 857 -942 
Q 756 -1056 622 -1056 
z
" transform="scale(0.015625)"/>
     </defs>
     <use xlink:href="#Cmmi10-66"/>
     <use xlink:href="#Cmr10-28" transform="translate(48.876953 0)"/>
     <use xlink:href="#Cmmi10-67" transform="translate(87.695312 0)"/>
     <use xlink:href="#Cmr10-28" transform="translate(135.400391 0)"/>
     <use xlink:href="#Cmmi10-61" transform="translate(174.21875 0)"/>
     <use xlink:href="#Cmr10-29" transform="translate(227.001953 0)"/>
     <use xlink:href="#Cmr10-29" transform="translate(265.820312 0)"/>
    </g>
   </g>
   <g id="text_4">
    <!-- $g$ -->
    <g transform="translate(122.704615 163.585776)scale(0.12 -0.12)">
     <use xlink:href="#Cmmi10-67" transform="translate(0 0.8125)"/>
    </g>
   </g>
   <g id="text_5">
    <!-- $f$ -->
    <g transform="translate(256.161099 163.585776)scale(0.12 -0.12)">
     <use xlink:href="#Cmmi10-66" transform="translate(0 0.484375)"/>
    </g>
   </g>
   <g id="text_6">
    <!-- $g$ -->
    <g transform="translate(122.704615 81.250611)scale(0.12 -0.12)">
     <use xlink:href="#Cmmi10-67" transform="translate(0 0.8125)"/>
    </g>
   </g>
   <g id="text_7">
    <!-- $f$ -->
    <g transform="translate(256.161099 81.250611)scale(0.12 -0.12)">
     <use xlink:href="#Cmmi10-66" transform="translate(0 0.484375)"/>
    </g>
   </g>
   <g id="text_8">
    <!-- $f\circ g$ -->
    <g transform="translate(181.422857 43.420941)scale(0.12 -0.12)">
     <defs>
      <path id="Cmsy10-b1" d="M 1600 359 
Q 1269 359 983 526 
Q 697 694 528 984 
Q 359 1275 359 1600 
Q 359 1925 528 2215 
Q 697 2506 983 2673 
Q 1269 2841 1600 2841 
Q 1931 2841 2215 2672 
Q 2500 2503 2667 2214 
Q 2834 1925 2834 1600 
Q 2834 1275 2667 986 
Q 2500 697 2215 528 
Q 1931 359 1600 359 
z
M 1600 616 
Q 2000 616 2289 908 
Q 2578 1200 2578 1600 
Q 2578 1856 2445 2086 
Q 2313 2316 2088 2450 
Q 1863 2584 1600 2584 
Q 1403 2584 1225 2507 
Q 1047 2431 906 2290 
Q 766 2150 691 1973 
Q 616 1797 616 1600 
Q 616 1200 905 908 
Q 1194 616 1600 616 
z
" transform="scale(0.015625)"/>
     </defs>
     <use xlink:href="#Cmmi10-66" transform="translate(0 0.484375)"/>
     <use xlink:href="#Cmsy10-b1" transform="translate(66.435547 0.484375)"/>
     <use xlink:href="#Cmmi10-67" transform="translate(133.994141 0.484375)"/>
    </g>
   </g>
   <g id="text_9">
    <!-- $f\circ g$ -->
    <g transform="translate(181.422857 297.10226)scale(0.12 -0.12)">
     <use xlink:href="#Cmmi10-66" transform="translate(0 0.484375)"/>
     <use xlink:href="#Cmsy10-b1" transform="translate(66.435547 0.484375)"/>
     <use xlink:href="#Cmmi10-67" transform="translate(133.994141 0.484375)"/>
    </g>
   </g>
   <g id="text_10">
    <!-- $A$ -->
    <g transform="translate(54.326374 221.467294)scale(0.12 -0.12)">
     <defs>
      <path id="Cmmi10-41" d="M 288 0 
Q 225 0 225 84 
Q 250 225 306 225 
Q 566 225 755 328 
Q 944 431 1081 647 
Q 1094 659 1094 659 
L 3378 4513 
Q 3428 4581 3500 4581 
L 3584 4581 
Q 3603 4581 3622 4573 
Q 3641 4566 3655 4548 
Q 3669 4531 3669 4513 
L 4056 378 
Q 4056 350 4084 294 
Q 4147 225 4563 225 
Q 4628 225 4628 141 
Q 4606 56 4592 28 
Q 4578 0 4519 0 
L 2919 0 
Q 2859 0 2859 84 
Q 2894 225 2944 225 
Q 3450 225 3481 397 
L 3384 1453 
L 1806 1453 
L 1294 594 
Q 1247 525 1247 434 
Q 1247 322 1355 273 
Q 1463 225 1594 225 
Q 1656 225 1656 141 
Q 1634 50 1621 25 
Q 1609 0 1550 0 
L 288 0 
z
M 1931 1678 
L 3359 1678 
L 3169 3750 
L 1931 1678 
z
" transform="scale(0.015625)"/>
     </defs>
     <use xlink:href="#Cmmi10-41" transform="translate(0 0.421875)"/>
    </g>
   </g>
   <g id="text_11">
    <!-- $B$ -->
    <g transform="translate(187.782857 221.467294)scale(0.12 -0.12)">
     <defs>
      <path id="Cmmi10-42" d="M 319 0 
Q 256 0 256 84 
Q 259 100 268 137 
Q 278 175 293 200 
Q 309 225 341 225 
Q 522 225 656 234 
Q 791 244 884 269 
Q 959 297 1006 441 
L 1881 3956 
Q 1894 4019 1894 4044 
Q 1894 4113 1819 4122 
Q 1697 4147 1356 4147 
Q 1294 4147 1294 4231 
Q 1297 4247 1306 4286 
Q 1316 4325 1333 4348 
Q 1350 4372 1375 4372 
L 3669 4372 
Q 3878 4372 4083 4320 
Q 4288 4269 4461 4156 
Q 4634 4044 4736 3876 
Q 4838 3709 4838 3488 
Q 4838 3247 4714 3040 
Q 4591 2834 4395 2681 
Q 4200 2528 3973 2429 
Q 3747 2331 3500 2284 
Q 3675 2284 3854 2215 
Q 4034 2147 4175 2028 
Q 4316 1909 4402 1743 
Q 4488 1578 4488 1388 
Q 4488 1003 4219 684 
Q 3950 366 3542 183 
Q 3134 0 2753 0 
L 319 0 
z
M 1497 275 
Q 1497 225 1716 225 
L 2631 225 
Q 2944 225 3231 398 
Q 3519 572 3692 859 
Q 3866 1147 3866 1459 
Q 3866 1650 3786 1820 
Q 3706 1991 3556 2089 
Q 3406 2188 3213 2188 
L 1966 2188 
L 1522 416 
Q 1497 328 1497 275 
z
M 2009 2356 
L 2981 2356 
Q 3288 2356 3577 2512 
Q 3866 2669 4048 2937 
Q 4231 3206 4231 3506 
Q 4231 3784 4057 3965 
Q 3884 4147 3609 4147 
L 2731 4147 
Q 2559 4147 2500 4115 
Q 2441 4084 2400 3928 
L 2009 2356 
z
" transform="scale(0.015625)"/>
     </defs>
     <use xlink:href="#Cmmi10-42" transform="translate(0 0.6875)"/>
    </g>
   </g>
   <g id="text_12">
    <!-- $C$ -->
    <g transform="translate(321.539341 221.467294)scale(0.12 -0.12)">
     <defs>
      <path id="Cmmi10-43" d="M 934 1381 
Q 934 997 1082 705 
Q 1231 413 1514 248 
Q 1797 84 2181 84 
Q 2584 84 2957 290 
Q 3331 497 3595 842 
Q 3859 1188 3956 1575 
Q 3969 1613 4006 1613 
L 4084 1613 
Q 4109 1613 4125 1595 
Q 4141 1578 4141 1556 
Q 4141 1550 4134 1538 
Q 4025 1094 3711 705 
Q 3397 316 2959 87 
Q 2522 -141 2059 -141 
Q 1559 -141 1162 84 
Q 766 309 545 709 
Q 325 1109 325 1613 
Q 325 2150 565 2676 
Q 806 3203 1212 3614 
Q 1619 4025 2139 4269 
Q 2659 4513 3194 4513 
Q 3406 4513 3600 4448 
Q 3794 4384 3959 4253 
Q 4125 4122 4231 3950 
L 4738 4500 
Q 4738 4513 4769 4513 
L 4806 4513 
Q 4831 4513 4847 4491 
Q 4863 4469 4863 4447 
L 4428 2719 
Q 4428 2675 4378 2675 
L 4263 2675 
Q 4213 2675 4213 2747 
Q 4238 2888 4238 3084 
Q 4238 3397 4131 3673 
Q 4025 3950 3801 4119 
Q 3578 4288 3256 4288 
Q 2734 4288 2300 4025 
Q 1866 3763 1564 3336 
Q 1263 2909 1098 2389 
Q 934 1869 934 1381 
z
" transform="scale(0.015625)"/>
     </defs>
     <use xlink:href="#Cmmi10-43" transform="translate(0 0.484375)"/>
    </g>
   </g>
   <g id="patch_13">
    <path d="M 58.826374 235.958242 
C 70.629369 235.958242 81.950533 226.579482 90.296511 209.887527 
C 98.642488 193.195571 103.331868 170.553243 103.331868 146.947253 
C 103.331868 123.341263 98.642488 100.698935 90.296511 84.006979 
C 81.950533 67.315023 70.629369 57.936264 58.826374 57.936264 
C 47.023379 57.936264 35.702215 67.315023 27.356237 84.006979 
C 19.010259 100.698935 14.320879 123.341263 14.320879 146.947253 
C 14.320879 170.553243 19.010259 193.195571 27.356237 209.887527 
C 35.702215 226.579482 47.023379 235.958242 58.826374 235.958242 
L 58.826374 235.958242 
z
" clip-path="url(#p7ac131cf20)" style="fill: none; stroke: #000000; stroke-linejoin: miter"/>
   </g>
   <g id="patch_14">
    <path d="M 192.342857 235.958242 
C 204.145852 235.958242 215.467016 226.579482 223.812994 209.887527 
C 232.158972 193.195571 236.848352 170.553243 236.848352 146.947253 
C 236.848352 123.341263 232.158972 100.698935 223.812994 84.006979 
C 215.467016 67.315023 204.145852 57.936264 192.342857 57.936264 
C 180.539862 57.936264 169.218698 67.315023 160.87272 84.006979 
C 152.526742 100.698935 147.837363 123.341263 147.837363 146.947253 
C 147.837363 170.553243 152.526742 193.195571 160.87272 209.887527 
C 169.218698 226.579482 180.539862 235.958242 192.342857 235.958242 
L 192.342857 235.958242 
z
" clip-path="url(#p7ac131cf20)" style="fill: none; stroke: #000000; stroke-linejoin: miter"/>
   </g>
   <g id="patch_15">
    <path d="M 325.859341 235.958242 
C 337.662336 235.958242 348.9835 226.579482 357.329478 209.887527 
C 365.675456 193.195571 370.364835 170.553243 370.364835 146.947253 
C 370.364835 123.341263 365.675456 100.698935 357.329478 84.006979 
C 348.9835 67.315023 337.662336 57.936264 325.859341 57.936264 
C 314.056346 57.936264 302.735182 67.315023 294.389204 84.006979 
C 286.043226 100.698935 281.353846 123.341263 281.353846 146.947253 
C 281.353846 170.553243 286.043226 193.195571 294.389204 209.887527 
C 302.735182 226.579482 314.056346 235.958242 325.859341 235.958242 
L 325.859341 235.958242 
z
" clip-path="url(#p7ac131cf20)" style="fill: none; stroke: #000000; stroke-linejoin: miter"/>
   </g>
  </g>
 </g>
 <defs>
  <clipPath id="p7ac131cf20">
   <rect x="7.2" y="7.2" width="370.285714" height="324"/>
  </clipPath>
 </defs>
</svg>
