<?xml version="1.0" encoding="utf-8" standalone="no"?>
<!DOCTYPE svg PUBLIC "-//W3C//DTD SVG 1.1//EN"
  "http://www.w3.org/Graphics/SVG/1.1/DTD/svg11.dtd">
<svg xmlns:xlink="http://www.w3.org/1999/xlink" width="338.4pt" height="338.4pt" viewBox="0 0 338.4 338.4" xmlns="http://www.w3.org/2000/svg" version="1.1">
 <metadata>
  <rdf:RDF xmlns:dc="http://purl.org/dc/elements/1.1/" xmlns:cc="http://creativecommons.org/ns#" xmlns:rdf="http://www.w3.org/1999/02/22-rdf-syntax-ns#">
   <cc:Work>
    <dc:type rdf:resource="http://purl.org/dc/dcmitype/StillImage"/>
    <dc:date>2022-08-23T17:26:09.452117</dc:date>
    <dc:format>image/svg+xml</dc:format>
    <dc:creator>
     <cc:Agent>
      <dc:title>Matplotlib v3.5.2, https://matplotlib.org/</dc:title>
     </cc:Agent>
    </dc:creator>
   </cc:Work>
  </rdf:RDF>
 </metadata>
 <defs>
  <style type="text/css">*{stroke-linejoin: round; stroke-linecap: butt}</style>
 </defs>
 <g id="figure_1">
  <g id="patch_1">
   <path d="M -0 338.4 
L 338.4 338.4 
L 338.4 0 
L -0 0 
z
" style="fill: #ffffff"/>
  </g>
  <g id="axes_1">
   <g id="patch_2">
    <path d="M 7.2 331.2 
L 331.2 331.2 
L 331.2 7.2 
L 7.2 7.2 
z
" style="fill: #ffffff"/>
   </g>
   <g id="patch_3">
    <path d="M 13.430769 324.969231 
L 13.430769 13.430769 
L 324.969231 13.430769 
L 324.969231 324.969231 
L 13.430769 324.969231 
z
" clip-path="url(#pfa43fbed31)" style="fill: none; stroke: #000000; stroke-linejoin: miter"/>
   </g>
   <g id="patch_4">
    <path d="M 169.2 138.046154 
L 169.080902 138.046268 
L 168.910151 138.046828 
L 168.678644 138.048335 
L 168.550104 138.049543 
L 168.447239 138.050701 
L 168.229915 138.053706 
L 168.105449 138.055769 
L 167.885206 138.060028 
L 167.844461 138.060901 
L 167.591891 138.066909 
L 167.524401 138.068688 
L 167.359019 138.073357 
L 167.131945 138.080484 
L 166.935962 138.087301 
L 166.911638 138.08819 
L 166.65142 138.098298 
L 166.470503 138.105968 
L 166.31004 138.113211 
L 166.153243 138.120689 
L 166.059346 138.125357 
L 165.921396 138.132473 
L 165.703267 138.14435 
L 165.558139 138.152678 
L 165.450311 138.159085 
L 165.238925 138.17219 
L 165.156508 138.177495 
L 164.914638 138.193697 
L 164.851182 138.198104 
L 164.605537 138.215779 
L 164.552575 138.219717 
L 164.308533 138.238453 
L 164.12011 138.253579 
L 164.014599 138.2623 
L 163.899508 138.272019 
L 163.75217 138.284774 
L 163.498592 138.307553 
L 163.459679 138.311141 
L 163.254358 138.330481 
L 163.023243 138.35307 
L 162.924421 138.362995 
L 162.85736 138.369821 
L 162.659394 138.390397 
L 162.452311 138.412606 
L 162.281841 138.431414 
L 162.142442 138.447147 
L 162.063017 138.456253 
L 161.830123 138.483551 
L 161.650098 138.505261 
L 161.524576 138.520713 
L 161.450566 138.529945 
L 161.215347 138.559883 
L 161.087752 138.576504 
L 160.86351 138.606365 
L 160.770285 138.619023 
L 160.583779 138.644777 
L 160.362929 138.676016 
L 160.321272 138.681999 
L 160.042908 138.722716 
L 159.958887 138.735258 
L 159.799647 138.759351 
L 159.693816 138.775595 
L 159.483948 138.80836 
L 159.41382 138.819472 
L 159.258099 138.844439 
L 159.095503 138.870941 
L 158.911879 138.9014 
L 158.721431 138.933588 
L 158.609376 138.95281 
L 158.419518 138.98586 
L 158.232639 139.018982 
L 158.045424 139.052753 
L 157.972002 139.066159 
L 157.813613 139.095388 
L 157.592826 139.136838 
L 157.4465 139.164764 
L 157.373976 139.178739 
L 157.148421 139.222774 
L 157.034717 139.2453 
L 156.833495 139.285703 
L 156.613412 139.330684 
L 156.589418 139.335638 
L 156.355915 139.384362 
L 156.275258 139.401409 
L 155.992179 139.462123 
L 155.897797 139.482671 
L 155.693402 139.527698 
L 155.515081 139.567569 
L 155.423321 139.5883 
L 155.261606 139.62519 
L 155.10685 139.660917 
L 154.963366 139.694413 
L 154.828918 139.726125 
L 154.57768 139.786229 
L 154.556431 139.791363 
L 154.252438 139.865674 
L 154.142811 139.89287 
L 154.035213 139.919768 
L 153.834646 139.970451 
L 153.672753 140.011878 
L 153.500979 140.05634 
L 153.465334 140.065632 
L 153.285287 140.11291 
L 153.008526 140.186707 
L 152.975033 140.19573 
L 152.83069 140.234846 
L 152.664737 140.280278 
L 152.427709 140.346023 
L 152.242281 140.39816 
L 152.193706 140.41192 
L 151.998631 140.467609 
L 151.801298 140.524642 
L 151.693507 140.556094 
L 151.536243 140.602359 
L 151.41495 140.63835 
L 151.121302 140.726594 
L 151.082127 140.738486 
L 150.824361 140.817434 
L 150.698749 140.856349 
L 150.643315 140.873615 
L 150.478318 140.925342 
L 150.293662 140.983829 
L 150.120855 141.039137 
L 149.87669 141.11823 
L 149.798404 141.143825 
L 149.640355 141.195847 
L 149.47493 141.250799 
L 149.239701 141.329826 
L 149.137136 141.36461 
L 148.951426 141.428098 
L 148.798778 141.480774 
L 148.68065 141.521841 
L 148.474125 141.59428 
L 148.453317 141.601623 
L 148.295387 141.657631 
L 148.120151 141.720336 
L 147.831922 141.824761 
L 147.768191 141.848068 
L 147.669984 141.884137 
L 147.514913 141.941472 
L 147.223328 142.050549 
L 147.138476 142.082604 
L 146.903756 142.17201 
L 146.764442 142.225589 
L 146.706405 142.248023 
L 146.54513 142.310712 
L 146.278442 142.415511 
L 146.176128 142.456093 
L 145.982517 142.53346 
L 145.879056 142.575112 
L 145.752886 142.626198 
L 145.501113 142.729101 
L 145.465254 142.743861 
L 145.186657 142.85943 
L 145.037161 142.922098 
L 144.964087 142.952896 
L 144.732967 143.051029 
L 144.611673 143.102971 
L 144.447975 143.173554 
L 144.242663 143.262867 
L 144.11513 143.318788 
L 144.018188 143.361523 
L 143.843106 143.439204 
L 143.663951 143.519361 
L 143.598367 143.548873 
L 143.425498 143.627102 
L 143.172537 143.742719 
L 143.094795 143.778526 
L 142.969737 143.836399 
L 142.745676 143.940929 
L 142.542448 144.036678 
L 142.404289 144.102282 
L 142.277172 144.163012 
L 142.145814 144.226139 
L 141.892884 144.348758 
L 141.773022 144.407359 
L 141.62569 144.479828 
L 141.486869 144.548552 
L 141.326133 144.628663 
L 141.142782 144.720753 
L 141.02742 144.779083 
L 140.904788 144.84142 
L 140.64593 144.974124 
L 140.586814 145.004644 
L 140.34493 145.13036 
L 140.235497 145.187678 
L 140.13373 145.24123 
L 139.878032 145.376844 
L 139.728605 145.456802 
L 139.594574 145.528968 
L 139.468983 145.596973 
L 139.287543 145.695879 
L 139.065676 145.817885 
L 138.971486 145.870037 
L 138.757009 145.989586 
L 138.72491 146.007573 
L 138.583633 146.087037 
L 138.392931 146.19507 
L 138.162087 146.327033 
L 138.046154 146.393802 
L 138.046154 138.046154 
L 138.053006 138.97017 
L 138.059858 139.352874 
L 138.06671 139.646509 
L 138.073561 139.894034 
L 138.080413 140.11209 
L 138.087265 140.309211 
L 138.094117 140.490468 
L 138.100969 140.659163 
L 138.107821 140.817593 
L 138.114673 140.967427 
L 138.121525 141.109926 
L 138.128377 141.246072 
L 138.135229 141.376642 
L 138.142081 141.50227 
L 138.148932 141.623476 
L 138.155784 141.740694 
L 138.162636 141.854294 
L 138.169488 141.96459 
L 138.183192 142.176321 
L 138.196896 142.377671 
L 138.2106 142.570027 
L 138.224303 142.754491 
L 138.238007 142.931957 
L 138.251711 143.103162 
L 138.265415 143.268722 
L 138.279391 143.432299 
L 138.293368 143.591018 
L 138.307344 143.745284 
L 138.32132 143.895449 
L 138.334551 144.0341 
L 138.347781 144.169584 
L 138.374242 144.431852 
L 138.400702 144.68366 
L 138.427163 144.926156 
L 138.453624 145.160293 
L 138.480084 145.38687 
L 138.506545 145.606567 
L 138.533006 145.819969 
L 138.558603 146.020895 
L 138.584201 146.216801 
L 138.609799 146.40804 
L 138.635397 146.594926 
L 138.660994 146.777738 
L 138.686592 146.956726 
L 138.71219 147.132117 
L 138.737788 147.304116 
L 138.7885 147.635558 
L 138.839212 147.955662 
L 138.885631 148.239634 
L 138.93205 148.515702 
L 138.978468 148.784474 
L 139.024887 149.046486 
L 139.086837 149.386441 
L 139.148787 149.71617 
L 139.206365 150.014196 
L 139.263942 150.304708 
L 139.310019 150.532135 
L 139.356096 150.755325 
L 139.402173 150.974499 
L 139.44825 151.189857 
L 139.502463 151.438604 
L 139.556676 151.682599 
L 139.62633 151.989515 
L 139.695984 152.28948 
L 139.765639 152.582922 
L 139.835293 152.87023 
L 139.915174 153.192618 
L 139.995055 153.507874 
L 140.071276 153.802432 
L 140.164103 154.1534 
L 140.25693 154.496359 
L 140.353967 154.84684 
L 140.460903 155.224161 
L 140.567839 155.592718 
L 140.631654 155.808708 
L 140.738017 156.162485 
L 140.84438 156.508871 
L 140.928664 156.778379 
L 141.012948 157.043689 
L 141.159909 157.496767 
L 141.256413 157.788037 
L 141.405163 158.227861 
L 141.553913 158.657229 
L 141.596239 158.777583 
L 141.698202 159.064335 
L 141.800165 159.346738 
L 141.902228 159.625239 
L 142.004292 159.899714 
L 142.039962 159.994718 
L 142.169683 160.336323 
L 142.299403 160.672028 
L 142.363018 160.83458 
L 142.522404 161.236084 
L 142.654292 161.562318 
L 142.78618 161.883358 
L 142.85945 162.059544 
L 142.969083 162.320367 
L 143.078716 162.577928 
L 143.150806 162.745561 
L 143.292671 163.071556 
L 143.434535 163.392565 
L 143.467197 163.465785 
L 143.647428 163.865346 
L 143.872239 164.353501 
L 144.052842 164.737828 
L 144.127602 164.894952 
L 144.281142 165.214156 
L 144.536318 165.734636 
L 144.684411 166.031195 
L 144.825546 166.310202 
L 144.899497 166.45502 
L 145.167559 166.972306 
L 145.291246 167.207062 
L 145.373953 167.362699 
L 145.531833 167.656885 
L 145.738882 168.037055 
L 145.910365 168.347241 
L 146.072522 168.636779 
L 146.123005 168.726186 
L 146.42 169.245333 
L 146.454704 169.305249 
L 146.683096 169.695784 
L 146.791002 169.878061 
L 147.026129 170.270416 
L 147.126224 170.435485 
L 147.224099 170.595785 
L 147.426721 170.92423 
L 147.520645 171.07495 
L 147.814713 171.54075 
L 147.862768 171.61601 
L 148.115568 172.008057 
L 148.229846 172.183188 
L 148.421864 172.474597 
L 148.558398 172.679665 
L 148.698867 172.888824 
L 148.81029 173.053443 
L 149.028602 173.372742 
L 149.09779 173.473053 
L 149.321108 173.793996 
L 149.528021 174.087575 
L 149.653783 174.264273 
L 149.803676 174.473188 
L 149.923622 174.639063 
L 150.023466 174.776269 
L 150.327928 175.189875 
L 150.45083 175.354833 
L 150.621217 175.581659 
L 150.689955 175.672559 
L 150.909123 175.960107 
L 150.999285 176.077401 
L 151.217055 176.358349 
L 151.406951 176.60066 
L 151.581758 176.821558 
L 151.648602 176.905486 
L 151.85647 177.164602 
L 151.999296 177.341014 
L 152.108444 177.474947 
L 152.359105 177.779683 
L 152.50248 177.952234 
L 152.680702 178.164975 
L 152.793905 178.299111 
L 152.898415 178.422267 
L 153.0249 178.57046 
L 153.178382 178.749029 
L 153.430543 179.039472 
L 153.596732 179.228926 
L 153.629421 179.266011 
L 153.801719 179.460498 
L 153.959093 179.636722 
L 154.109168 179.803527 
L 154.271106 179.982171 
L 154.40978 180.134053 
L 154.63528 180.378898 
L 154.807566 180.564207 
L 154.956593 180.72329 
L 155.068284 180.841789 
L 155.309971 181.0961 
L 155.397797 181.187806 
L 155.624753 181.423069 
L 155.772799 181.57521 
L 155.92932 181.73494 
L 155.994014 181.800626 
L 156.278766 182.08745 
L 156.413682 182.222058 
L 156.564082 182.371147 
L 156.718168 182.522845 
L 156.880168 182.681206 
L 157.047602 182.843673 
L 157.190081 182.980972 
L 157.23406 183.023176 
L 157.522893 183.298314 
L 157.689751 183.455663 
L 157.803486 183.562254 
L 157.948743 183.697613 
L 158.129602 183.864946 
L 158.229938 183.957208 
L 158.426836 184.137089 
L 158.566814 184.264034 
L 158.635255 184.325822 
L 158.923287 184.583851 
L 158.968144 184.623747 
L 159.25282 184.875142 
L 159.408266 185.011119 
L 159.422948 185.023916 
L 159.584325 185.164034 
L 159.796938 185.347165 
L 160.022981 185.540046 
L 160.149689 185.647355 
L 160.320217 185.790861 
L 160.45914 185.907003 
L 160.530063 185.966033 
L 160.773038 186.16692 
L 160.83008 186.213782 
L 160.981957 186.338005 
L 161.155508 186.478982 
L 161.439364 186.707346 
L 161.4884 186.74652 
L 161.690728 186.907302 
L 161.773859 186.972968 
L 161.951869 187.11281 
L 162.125917 187.248532 
L 162.347903 187.420204 
L 162.403202 187.462721 
L 162.547088 187.572889 
L 162.738617 187.718511 
L 162.916742 187.852898 
L 163.155608 188.031548 
L 163.294101 188.134314 
L 163.41297 188.222047 
L 163.626131 188.378286 
L 163.644589 188.391749 
L 163.858661 188.547144 
L 163.970721 188.627937 
L 164.180272 188.778009 
L 164.384625 188.9231 
L 164.532325 189.027201 
L 164.714546 189.154752 
L 164.82192 189.229459 
L 164.981053 189.339565 
L 165.102656 189.423212 
L 165.20901 189.496023 
L 165.45151 189.660836 
L 165.593897 189.756834 
L 165.805958 189.898752 
L 165.90774 189.966422 
L 166.061185 190.067898 
L 166.208448 190.164676 
L 166.331408 190.245026 
L 166.579321 190.405775 
L 166.769988 190.528274 
L 166.830076 190.566677 
L 166.958742 190.648583 
L 167.161941 190.777036 
L 167.27473 190.847864 
L 167.43039 190.945063 
L 167.57746 191.036314 
L 167.800827 191.173825 
L 167.954411 191.267626 
L 168.112617 191.363615 
L 168.246312 191.444232 
L 168.405372 191.539551 
L 168.617109 191.665442 
L 168.789208 191.766933 
L 168.864783 191.811267 
L 169.043247 191.915393 
L 169.2 192.006198 
z
" clip-path="url(#pfa43fbed31)" style="fill: #808080; opacity: 0.5"/>
   </g>
   <g id="patch_5">
    <path d="M 169.2 192.006198 
L 168.781226 192.245821 
L 168.507421 192.400176 
L 168.119001 192.616039 
L 167.839676 192.769042 
L 167.541247 192.930469 
L 167.298407 193.060281 
L 167.123994 193.152666 
L 166.675114 193.387198 
L 166.490981 193.482066 
L 166.168674 193.646265 
L 165.76981 193.84622 
L 165.405088 194.025947 
L 164.980361 194.231535 
L 164.756174 194.338457 
L 164.544105 194.438592 
L 164.106301 194.642242 
L 163.843229 194.762637 
L 163.660384 194.845447 
L 163.352591 194.983249 
L 162.782232 195.233346 
L 162.580078 195.320363 
L 162.44088 195.37979 
L 161.89966 195.607067 
L 161.750956 195.668466 
L 161.460849 195.786959 
L 161.033945 195.958242 
L 160.811379 196.046094 
L 160.436762 196.19174 
L 160.19527 196.284158 
L 159.859456 196.41077 
L 159.416486 196.574416 
L 159.163549 196.666152 
L 158.72192 196.823371 
L 158.407543 196.933014 
L 158.230362 196.993981 
L 157.882305 197.112012 
L 157.461438 197.251688 
L 157.252389 197.319833 
L 156.956724 197.414823 
L 156.548801 197.543217 
L 156.209805 197.647582 
L 155.900154 197.741072 
L 155.814406 197.766651 
L 155.465924 197.869227 
L 155.216116 197.941403 
L 154.734859 198.077276 
L 154.553415 198.127422 
L 154.203545 198.222455 
L 153.775128 198.335854 
L 153.498065 198.407457 
L 153.095726 198.509026 
L 152.819012 198.57723 
L 152.704016 198.60518 
L 152.174901 198.730806 
L 151.891037 198.796197 
L 151.642119 198.852389 
L 151.429023 198.899644 
L 151.106876 198.969598 
L 150.779439 199.038875 
L 150.353164 199.126314 
L 150.007004 199.195042 
L 149.918849 199.21222 
L 149.446049 199.3021 
L 149.304507 199.328272 
L 148.698033 199.436593 
L 148.393897 199.488588 
L 148.215372 199.518388 
L 147.771032 199.590246 
L 147.745256 199.594313 
L 147.14324 199.68617 
L 146.839973 199.730165 
L 146.646744 199.757404 
L 146.322947 199.801665 
L 146.104998 199.830485 
L 145.753292 199.875342 
L 145.464748 199.910626 
L 145.024303 199.961854 
L 144.869844 199.979067 
L 144.44512 200.02439 
L 144.178021 200.051385 
L 143.701041 200.096704 
L 143.400234 200.123383 
L 143.181674 200.141846 
L 142.878892 200.166144 
L 142.717556 200.178485 
L 142.391631 200.20213 
L 141.940254 200.232041 
L 141.597907 200.252533 
L 141.483138 200.258979 
L 140.909872 200.288002 
L 140.830755 200.291592 
L 140.426375 200.308366 
L 139.971238 200.3241 
L 139.901095 200.326229 
L 139.409955 200.338919 
L 139.152325 200.344026 
L 138.719526 200.350207 
L 138.549818 200.35181 
L 138.323794 200.353228 
L 137.81136 200.353404 
L 137.684162 200.352795 
L 137.398831 200.350483 
L 136.905552 200.343405 
L 136.761468 200.340601 
L 136.213699 200.326894 
L 136.117078 200.323976 
L 135.647912 200.307675 
L 135.293374 200.293007 
L 134.981294 200.278422 
L 134.722173 200.265119 
L 134.577832 200.25724 
L 134.029995 200.224277 
L 133.827094 200.210839 
L 133.54947 200.191374 
L 133.211388 200.165986 
L 132.766082 200.129721 
L 132.508647 200.107289 
L 132.323519 200.090493 
L 132.063671 200.065977 
L 131.661312 200.025847 
L 131.459453 200.00472 
L 131.004884 199.954708 
L 130.668488 199.915521 
L 130.316031 199.872473 
L 129.974724 199.828842 
L 129.878506 199.816196 
L 129.279668 199.734056 
L 128.983677 199.691267 
L 128.658066 199.64252 
L 128.520225 199.621353 
L 128.206415 199.571986 
L 127.871691 199.51752 
L 127.428928 199.442595 
L 127.323847 199.424331 
L 127.029942 199.372263 
L 126.555702 199.285178 
L 126.282725 199.233328 
L 126.013928 199.181038 
L 125.680355 199.11444 
L 125.496109 199.076842 
L 125.125079 198.999368 
L 124.789173 198.927193 
L 124.413411 198.844154 
L 123.997219 198.749333 
L 123.921225 198.731695 
L 123.489092 198.629489 
L 123.191524 198.557215 
L 122.84355 198.47073 
L 122.624567 198.415212 
L 122.17354 198.298196 
L 121.894628 198.22403 
L 121.58192 198.139228 
L 121.443572 198.101152 
L 120.916915 197.953063 
L 120.62928 197.870071 
L 120.225726 197.751102 
L 120.177355 197.736644 
L 119.709882 197.594703 
L 119.550599 197.545423 
L 119.208823 197.438102 
L 118.774037 197.298445 
L 118.574883 197.233299 
L 118.073938 197.066143 
L 117.708171 196.941103 
L 117.485164 196.863619 
L 117.317768 196.804834 
L 116.972139 196.681761 
L 116.748751 196.600993 
L 116.434568 196.485763 
L 116.076104 196.351946 
L 115.668012 196.196539 
L 115.349389 196.072918 
L 115.153128 195.995769 
L 114.606307 195.776753 
L 114.389239 195.688143 
L 114.217911 195.61753 
L 113.799975 195.442768 
L 113.37875 195.263002 
L 113.257132 195.210417 
L 112.73872 194.982806 
L 112.545067 194.896335 
L 112.145459 194.715392 
L 111.957959 194.629319 
L 111.432368 194.384018 
L 111.140946 194.245427 
L 110.96168 194.159252 
L 110.63911 194.002409 
L 110.453536 193.911133 
L 109.870001 193.619105 
L 109.77159 193.5691 
L 109.448048 193.403148 
L 109.035568 193.188102 
L 108.621682 192.968362 
L 108.564895 192.937901 
L 107.997441 192.629332 
L 107.890728 192.57045 
L 107.55639 192.384196 
L 107.251839 192.212183 
L 106.892308 192.006198 
L 106.892308 200.353846 
L 106.90001 201.333548 
L 106.907713 201.739311 
L 106.915416 202.050635 
L 106.923119 202.313069 
L 106.930821 202.544256 
L 106.938524 202.753246 
L 106.946227 202.945414 
L 106.953929 203.124263 
L 106.961632 203.292226 
L 106.969335 203.451074 
L 106.977037 203.602146 
L 106.98474 203.74648 
L 107.000146 204.018083 
L 107.015551 204.270838 
L 107.030956 204.508186 
L 107.046362 204.732634 
L 107.061767 204.946073 
L 107.077173 205.149974 
L 107.092578 205.345505 
L 107.107983 205.533615 
L 107.138794 205.890566 
L 107.164213 206.168448 
L 107.189631 206.433536 
L 107.215049 206.687437 
L 107.240467 206.931446 
L 107.265886 207.166627 
L 107.291304 207.393864 
L 107.316722 207.613903 
L 107.34214 207.82738 
L 107.392977 208.236764 
L 107.443813 208.6256 
L 107.49465 208.996662 
L 107.545486 209.352149 
L 107.598344 209.70716 
L 107.651201 210.048892 
L 107.704059 210.378704 
L 107.756917 210.697735 
L 107.809774 211.006954 
L 107.862632 211.307193 
L 107.91549 211.59917 
L 107.968347 211.883513 
L 108.050306 212.310577 
L 108.132264 212.722363 
L 108.214223 213.120347 
L 108.296182 213.505783 
L 108.391311 213.938832 
L 108.48644 214.35785 
L 108.604036 214.858247 
L 108.721632 215.341024 
L 108.840459 215.812639 
L 108.959286 216.2694 
L 109.075689 216.703641 
L 109.192093 217.125837 
L 109.308497 217.536873 
L 109.424901 217.937534 
L 109.534746 218.306728 
L 109.644591 218.667823 
L 109.833988 219.272755 
L 110.023385 219.857095 
L 110.246126 220.520384 
L 110.384811 220.921346 
L 110.523496 221.313723 
L 110.662181 221.697986 
L 110.800867 222.074567 
L 110.93895 222.442273 
L 111.077034 222.803107 
L 111.223679 223.179154 
L 111.370323 223.548178 
L 111.5495 223.990012 
L 111.738629 224.446156 
L 111.927759 224.892366 
L 112.079576 225.243718 
L 112.26453 225.663939 
L 112.449484 226.075967 
L 112.761389 226.753311 
L 112.949214 227.151189 
L 113.137038 227.541947 
L 113.333712 227.943815 
L 113.576276 228.429634 
L 113.81884 228.905127 
L 114.065859 229.379266 
L 114.308956 229.836415 
L 114.552054 230.284608 
L 114.671544 230.501748 
L 115.079779 231.228596 
L 115.358597 231.712287 
L 115.531442 232.007194 
L 115.81999 232.49141 
L 116.108537 232.965885 
L 116.238149 233.175956 
L 116.469715 233.546701 
L 116.723659 233.946735 
L 116.977603 234.340163 
L 117.334618 234.88254 
L 117.516546 235.154265 
L 117.959552 235.803317 
L 118.119915 236.034 
L 118.58426 236.689715 
L 118.754657 236.925911 
L 119.23476 237.579151 
L 119.321377 237.695131 
L 119.676129 238.164357 
L 120.077548 238.684424 
L 120.481422 239.19646 
L 120.689859 239.456464 
L 121.109305 239.971186 
L 121.158314 240.030602 
L 121.742571 240.727612 
L 122.014549 241.045144 
L 122.341626 241.421368 
L 122.521441 241.625636 
L 122.983962 242.142916 
L 123.205393 242.386508 
L 123.607429 242.822258 
L 123.686938 242.907456 
L 124.023995 243.265116 
L 124.533498 243.795211 
L 124.861561 244.129996 
L 125.062936 244.333024 
L 125.50528 244.772535 
L 125.711402 244.974361 
L 125.974828 245.229597 
L 126.180537 245.426835 
L 126.464781 245.696426 
L 126.985592 246.181701 
L 127.223195 246.399436 
L 127.655575 246.789923 
L 127.923887 247.028583 
L 128.102445 247.185881 
L 128.422119 247.464492 
L 128.81318 247.800166 
L 129.271232 248.186283 
L 129.2894 248.201443 
L 129.661879 248.509692 
L 130.206641 248.951855 
L 130.235669 248.975132 
L 130.736819 249.372539 
L 131.117563 249.66892 
L 131.33502 249.836083 
L 131.596252 250.034895 
L 131.958199 250.306792 
L 132.284654 250.548525 
L 132.703496 250.853883 
L 132.893985 250.991004 
L 133.324013 251.296579 
L 133.59717 251.487856 
L 133.806357 251.632873 
L 134.183767 251.891327 
L 134.365377 252.014252 
L 134.855293 252.341245 
L 134.969997 252.416841 
L 135.423116 252.711946 
L 135.740202 252.915148 
L 136.073152 253.125623 
L 136.374525 253.313611 
L 136.752783 253.546201 
L 136.969998 253.678095 
L 137.304863 253.879062 
L 137.661753 254.090123 
L 138.013014 254.294743 
L 138.354802 254.490915 
L 138.528184 254.589335 
L 138.86871 254.780506 
L 139.292333 255.014435 
L 139.465763 255.108971 
L 139.883019 255.333508 
L 140.105157 255.451383 
L 140.386864 255.599223 
L 140.556533 255.687383 
L 141.016376 255.923009 
L 141.451529 256.141577 
L 141.726833 256.277666 
L 142.047684 256.434148 
L 142.373595 256.590778 
L 142.512278 256.656724 
L 142.899282 256.838541 
L 143.302933 257.024742 
L 143.379722 257.05977 
L 143.885218 257.287231 
L 144.058269 257.363862 
L 144.505262 257.558902 
L 144.902252 257.728649 
L 145.179469 257.84526 
L 145.465379 257.963883 
L 145.855483 258.12306 
L 145.895078 258.139044 
L 146.398398 258.339495 
L 146.694864 258.4552 
L 146.850314 258.515174 
L 147.354513 258.706423 
L 147.515987 258.76662 
L 147.76146 258.857158 
L 148.097826 258.979325 
L 148.562481 259.144503 
L 148.809305 259.230565 
L 149.143595 259.345279 
L 149.327138 259.407363 
L 149.860791 259.584273 
L 150.120078 259.668305 
L 150.474601 259.781179 
L 150.765124 259.871943 
L 150.999582 259.944058 
L 151.499303 260.094401 
L 151.689978 260.150566 
L 152.115233 260.273453 
L 152.161192 260.286538 
L 152.724755 260.443902 
L 153.027875 260.526189 
L 153.12026 260.550943 
L 153.469953 260.643266 
L 153.957606 260.768397 
L 154.238586 260.838593 
L 154.527735 260.909384 
L 154.693501 260.949308 
L 155.09656 261.044385 
L 155.329123 261.097959 
L 155.874529 261.219931 
L 156.158828 261.281478 
L 156.508135 261.355199 
L 156.520511 261.357773 
L 157.01736 261.458934 
L 157.253327 261.505506 
L 157.766496 261.603528 
L 157.819225 261.613347 
L 158.148275 261.673565 
L 158.573144 261.748622 
L 158.85674 261.797035 
L 159.052593 261.829684 
L 159.539626 261.908096 
L 159.694636 261.932224 
L 160.011041 261.980233 
L 160.55297 262.058606 
L 160.896508 262.105774 
L 161.105675 262.133539 
L 161.29927 262.158595 
L 161.600613 262.196371 
L 162.103624 262.256108 
L 162.319504 262.280474 
L 162.490619 262.299247 
L 162.874328 262.339606 
L 163.359512 262.387202 
L 163.699095 262.418237 
L 163.756708 262.423316 
L 164.059411 262.449119 
L 164.422232 262.478088 
L 164.665714 262.496334 
L 164.983638 262.518714 
L 165.596793 262.557266 
L 165.703872 262.563376 
L 166.032103 262.580954 
L 166.238835 262.591134 
L 166.539668 262.604719 
L 167.099495 262.626122 
L 167.191949 262.629172 
L 167.66882 262.642722 
L 167.902693 262.648031 
L 168.339081 262.65559 
L 168.684104 262.659403 
L 168.976325 262.661137 
L 169.2 262.661538 
z
" clip-path="url(#pfa43fbed31)" style="fill: #808080; opacity: 0.5"/>
   </g>
   <g id="patch_6">
    <path d="M 200.353846 146.393802 
L 200.166102 146.285842 
L 200.028728 146.207396 
L 199.81702 146.087405 
L 199.66361 146.001137 
L 199.584649 145.956956 
L 199.461087 145.888122 
L 199.247709 145.770115 
L 199.087668 145.682319 
L 198.927367 145.594991 
L 198.746082 145.496964 
L 198.576815 145.406132 
L 198.473506 145.351025 
L 198.36033 145.290939 
L 198.212977 145.213156 
L 197.974958 145.088574 
L 197.90367 145.051515 
L 197.722942 144.958085 
L 197.578942 144.884177 
L 197.364922 144.775202 
L 197.295266 144.739958 
L 197.072556 144.628007 
L 196.872458 144.528372 
L 196.732253 144.459092 
L 196.562781 144.375933 
L 196.438464 144.315336 
L 196.293897 144.245297 
L 196.190063 144.195276 
L 195.957709 144.084196 
L 195.824446 144.021019 
L 195.726886 143.975013 
L 195.502249 143.869864 
L 195.335369 143.792455 
L 195.182366 143.722007 
L 194.997757 143.637673 
L 194.85879 143.574669 
L 194.767787 143.533632 
L 194.538861 143.431174 
L 194.479039 143.404582 
L 194.199098 143.281141 
L 194.108656 143.241611 
L 193.960305 143.177139 
L 193.77646 143.097876 
L 193.557468 143.004371 
L 193.412919 142.943193 
L 193.289293 142.891211 
L 193.222561 142.863281 
L 193.040704 142.787629 
L 192.771047 142.676691 
L 192.67653 142.638155 
L 192.529999 142.578768 
L 192.348876 142.505959 
L 192.19303 142.443837 
L 192.036556 142.381954 
L 191.959087 142.351497 
L 191.672192 142.239742 
L 191.59185 142.208738 
L 191.481005 142.166173 
L 191.226374 142.069308 
L 191.101937 142.022434 
L 190.925428 141.956463 
L 190.805617 141.91203 
L 190.711372 141.877275 
L 190.509497 141.803408 
L 190.391775 141.760697 
L 190.103394 141.657197 
L 190.011229 141.624456 
L 189.914869 141.590399 
L 189.735761 141.527568 
L 189.588564 141.476389 
L 189.371455 141.401654 
L 189.251477 141.360738 
L 189.11024 141.312921 
L 188.995617 141.274391 
L 188.735796 141.187967 
L 188.612814 141.147502 
L 188.418491 141.08414 
L 188.281673 141.03995 
L 188.152544 140.998563 
L 188.021827 140.956983 
L 187.869961 140.909073 
L 187.708891 140.858725 
L 187.567459 140.81491 
L 187.298282 140.732535 
L 187.129076 140.681434 
L 187.048699 140.657343 
L 186.92844 140.621519 
L 186.788704 140.580223 
L 186.568364 140.515828 
L 186.451997 140.482174 
L 186.258942 140.426882 
L 186.067529 140.372724 
L 185.903643 140.326879 
L 185.758762 140.286751 
L 185.712435 140.273999 
L 185.462958 140.205989 
L 185.383696 140.184614 
L 185.159313 140.12471 
L 184.961249 140.072576 
L 184.925939 140.063355 
L 184.650797 139.992257 
L 184.529592 139.961362 
L 184.362433 139.919178 
L 184.253137 139.891862 
L 184.024951 139.835507 
L 183.961925 139.820103 
L 183.690982 139.754672 
L 183.650475 139.745 
L 183.506649 139.710888 
L 183.308196 139.664413 
L 183.064184 139.608205 
L 183.048266 139.604574 
L 182.837035 139.556808 
L 182.58726 139.501321 
L 182.57212 139.497992 
L 182.311364 139.44128 
L 182.211439 139.419857 
L 182.024507 139.380241 
L 181.832416 139.340154 
L 181.706003 139.314118 
L 181.542759 139.280899 
L 181.409285 139.254076 
L 181.178336 139.20838 
L 181.146885 139.202227 
L 180.99205 139.172182 
L 180.823691 139.139972 
L 180.680016 139.112865 
L 180.465665 139.073072 
L 180.366517 139.054928 
L 180.228289 139.029908 
L 179.991447 138.987787 
L 179.772877 138.949752 
L 179.738885 138.943909 
L 179.503012 138.903895 
L 179.366865 138.881223 
L 179.241654 138.860646 
L 179.007196 138.822818 
L 178.934826 138.811327 
L 178.750561 138.782462 
L 178.543456 138.750694 
L 178.421687 138.732348 
L 178.339737 138.72014 
L 178.151101 138.692462 
L 177.914222 138.65854 
L 177.819884 138.645288 
L 177.586425 138.613127 
L 177.513121 138.603214 
L 177.349586 138.581419 
L 177.258159 138.569426 
L 177.01803 138.538582 
L 176.864243 138.519326 
L 176.70927 138.500314 
L 176.554318 138.4817 
L 176.426342 138.466622 
L 176.176216 138.437928 
L 176.110078 138.430512 
L 175.995482 138.417831 
L 175.827734 138.399656 
L 175.617997 138.377578 
L 175.489565 138.364412 
L 175.380356 138.353429 
L 175.128276 138.328818 
L 174.951181 138.312147 
L 174.829077 138.300949 
L 174.626408 138.282898 
L 174.541442 138.275529 
L 174.425969 138.265701 
L 174.142785 138.242515 
L 174.050337 138.235228 
L 173.967515 138.228816 
L 173.763461 138.213494 
L 173.623106 138.203346 
L 173.42277 138.189413 
L 173.221186 138.176048 
L 173.086043 138.167455 
L 172.922187 138.157433 
L 172.825516 138.151723 
L 172.656014 138.142075 
L 172.523769 138.134869 
L 172.408628 138.128825 
L 172.153645 138.116201 
L 171.9931 138.108789 
L 171.823366 138.101405 
L 171.703233 138.096458 
L 171.578566 138.091571 
L 171.315517 138.082078 
L 171.250425 138.079901 
L 171.005522 138.072319 
L 170.993468 138.071971 
L 170.752902 138.065508 
L 170.684723 138.063846 
L 170.513473 138.06 
L 170.3338 138.05647 
L 170.157042 138.053504 
L 169.967073 138.050876 
L 169.835821 138.049398 
L 169.697025 138.048136 
L 169.4763 138.046766 
L 169.356439 138.04635 
L 169.2 138.046154 
L 169.2 262.661538 
L 169.372969 262.661298 
L 169.526349 262.660684 
L 169.712838 262.659428 
L 169.79629 262.658685 
L 170.016897 262.656183 
L 170.183397 262.653778 
L 170.240317 262.652853 
L 170.399683 262.649988 
L 170.596906 262.645878 
L 170.804415 262.640878 
L 170.904378 262.638223 
L 171.071643 262.633421 
L 171.161052 262.63067 
L 171.45296 262.620793 
L 171.52193 262.618259 
L 171.762417 262.608826 
L 171.837625 262.605685 
L 172.071117 262.595353 
L 172.247369 262.586973 
L 172.299128 262.584417 
L 172.544632 262.571705 
L 172.655508 262.565646 
L 172.754163 262.560087 
L 172.956742 262.548182 
L 173.048966 262.542543 
L 173.341045 262.523777 
L 173.354172 262.522901 
L 173.526972 262.511113 
L 173.805852 262.49107 
L 173.838728 262.488625 
L 173.984484 262.477571 
L 174.152798 262.464379 
L 174.434201 262.441298 
L 174.558367 262.430705 
L 174.720095 262.416533 
L 174.811207 262.408361 
L 175.048947 262.386405 
L 175.215063 262.370518 
L 175.264537 262.365699 
L 175.479545 262.344296 
L 175.552666 262.336845 
L 175.843273 262.306372 
L 175.945798 262.295292 
L 176.09502 262.278859 
L 176.196461 262.26748 
L 176.413453 262.242574 
L 176.627879 262.217205 
L 176.747953 262.202669 
L 176.858638 262.189061 
L 176.967568 262.175472 
L 177.118909 262.156268 
L 177.382001 262.121988 
L 177.526603 262.102662 
L 177.591285 262.093905 
L 177.850965 262.058054 
L 177.949262 262.044193 
L 178.152623 262.015009 
L 178.358201 261.984811 
L 178.387986 261.980378 
L 178.539691 261.957569 
L 178.779896 261.920673 
L 178.903969 261.901239 
L 179.007681 261.884797 
L 179.251467 261.845443 
L 179.314949 261.835033 
L 179.524328 261.800219 
L 179.745317 261.76268 
L 179.802669 261.752803 
L 180.067227 261.706531 
L 180.185065 261.685542 
L 180.326559 261.66003 
L 180.542908 261.62037 
L 180.683495 261.594175 
L 180.754945 261.580734 
L 180.888275 261.555421 
L 181.111949 261.51228 
L 181.229433 261.48928 
L 181.336278 261.468159 
L 181.613091 261.412537 
L 181.801095 261.374014 
L 181.912218 261.350961 
L 181.985671 261.335607 
L 182.123175 261.306615 
L 182.400587 261.247138 
L 182.584493 261.20698 
L 182.61656 261.199918 
L 182.843895 261.149345 
L 182.972104 261.12043 
L 183.088505 261.093931 
L 183.22826 261.061806 
L 183.409773 261.019577 
L 183.58344 260.978636 
L 183.823086 260.921279 
L 183.915252 260.898952 
L 184.139031 260.844125 
L 184.152096 260.840897 
L 184.422524 260.773407 
L 184.579101 260.733742 
L 184.714919 260.698985 
L 184.842487 260.666043 
L 185.04051 260.614337 
L 185.139206 260.588307 
L 185.315889 260.541276 
L 185.53659 260.481746 
L 185.633357 260.455371 
L 185.725262 260.430166 
L 185.981889 260.358985 
L 186.140869 260.314295 
L 186.319564 260.26352 
L 186.406015 260.238749 
L 186.633803 260.172832 
L 186.665239 260.163661 
L 186.878359 260.101015 
L 187.100931 260.034707 
L 187.134692 260.024571 
L 187.38396 259.949082 
L 187.521188 259.907037 
L 187.673006 259.86012 
L 187.884659 259.794001 
L 187.983794 259.762748 
L 188.106195 259.723909 
L 188.286619 259.666151 
L 188.420375 259.622942 
L 188.67382 259.540153 
L 188.78877 259.502207 
L 188.906475 259.463095 
L 189.041654 259.417856 
L 189.171992 259.373911 
L 189.422023 259.288711 
L 189.575521 259.235818 
L 189.634139 259.215502 
L 189.806452 259.155399 
L 190.038203 259.073671 
L 190.103443 259.050478 
L 190.263137 258.993362 
L 190.520713 258.900201 
L 190.668336 258.846231 
L 190.866608 258.773078 
L 190.88794 258.765162 
L 191.064982 258.699121 
L 191.245448 258.631172 
L 191.496416 258.535616 
L 191.635401 258.482164 
L 191.791358 258.421729 
L 191.91294 258.374281 
L 192.119094 258.293156 
L 192.241112 258.244741 
L 192.349197 258.201605 
L 192.515191 258.134902 
L 192.663746 258.074736 
L 192.771624 258.030766 
L 192.929723 257.9659 
L 193.220704 257.845187 
L 193.378449 257.779024 
L 193.452572 257.747759 
L 193.61589 257.678473 
L 193.807874 257.596322 
L 193.920693 257.547691 
L 194.159536 257.443864 
L 194.326546 257.370556 
L 194.473944 257.305372 
L 194.542065 257.275092 
L 194.675246 257.215612 
L 194.860256 257.132361 
L 194.967038 257.083982 
L 195.120716 257.013929 
L 195.3918 256.889128 
L 195.550334 256.815412 
L 195.67291 256.758044 
L 195.865205 256.667391 
L 195.981487 256.612183 
L 196.194111 256.510471 
L 196.248041 256.484515 
L 196.515133 256.355025 
L 196.549337 256.338328 
L 196.692928 256.267954 
L 196.967543 256.132086 
L 197.144453 256.043666 
L 197.251335 255.989906 
L 197.359758 255.935107 
L 197.552802 255.836881 
L 197.639315 255.792586 
L 197.923661 255.645797 
L 198.026573 255.592213 
L 198.230844 255.485131 
L 198.36069 255.416562 
L 198.553081 255.314242 
L 198.561735 255.30962 
L 198.762296 255.201993 
L 198.975098 255.086762 
L 199.153453 254.989358 
L 199.191245 254.968622 
L 199.427046 254.83847 
L 199.555748 254.76687 
L 199.788582 254.636322 
L 199.925587 254.55889 
L 200.106845 254.455745 
L 200.141603 254.435874 
L 200.353846 254.313891 
z
" clip-path="url(#pfa43fbed31)" style="fill: #808080; opacity: 0.5"/>
   </g>
   <g id="patch_7">
    <path d="M 231.507692 200.353846 
L 231.501906 199.504708 
L 231.49612 199.153012 
L 231.490333 198.883164 
L 231.484547 198.655689 
L 231.478761 198.455292 
L 231.472974 198.274133 
L 231.467188 198.107551 
L 231.461401 197.952512 
L 231.455615 197.806906 
L 231.449829 197.669197 
L 231.444042 197.538228 
L 231.438256 197.413097 
L 231.43247 197.293089 
L 231.426683 197.177622 
L 231.420897 197.066218 
L 231.415111 196.958477 
L 231.403538 196.752681 
L 231.391965 196.558061 
L 231.380393 196.372979 
L 231.36882 196.196159 
L 231.357247 196.026589 
L 231.345674 195.863448 
L 231.334102 195.706059 
L 231.322529 195.553855 
L 231.312159 195.421478 
L 231.301789 195.292584 
L 231.281048 195.044235 
L 231.260308 194.807071 
L 231.239567 194.579715 
L 231.218827 194.361049 
L 231.198087 194.150156 
L 231.177346 193.946267 
L 231.156606 193.748734 
L 231.129757 193.501572 
L 231.102909 193.263122 
L 231.077722 193.046583 
L 231.052534 192.836364 
L 231.027347 192.631947 
L 231.002159 192.432884 
L 230.976972 192.23878 
L 230.951784 192.049288 
L 230.926597 191.8641 
L 230.901409 191.682939 
L 230.863049 191.41422 
L 230.824689 191.153506 
L 230.786328 190.900134 
L 230.747968 190.65353 
L 230.693877 190.316337 
L 230.639786 189.990392 
L 230.585695 189.674663 
L 230.531604 189.368272 
L 230.47816 189.073967 
L 230.424715 188.787394 
L 230.384524 188.576639 
L 230.344332 188.369725 
L 230.304141 188.166455 
L 230.263949 187.966651 
L 230.215845 187.731835 
L 230.167741 187.501488 
L 230.119636 187.275375 
L 230.071532 187.053279 
L 229.995599 186.710398 
L 229.919665 186.376338 
L 229.862247 186.12921 
L 229.806299 185.892688 
L 229.75035 185.660185 
L 229.694401 185.431515 
L 229.638452 185.206502 
L 229.542462 184.828517 
L 229.446471 184.460097 
L 229.358627 184.130773 
L 229.270783 183.808469 
L 229.217133 183.614903 
L 229.143233 183.352161 
L 229.069333 183.093734 
L 228.974225 182.767188 
L 228.879117 182.447102 
L 228.752971 182.031941 
L 228.626824 181.626831 
L 228.552393 181.392254 
L 228.40942 180.950416 
L 228.294992 180.604657 
L 228.180563 180.2655 
L 228.086941 179.992691 
L 227.99332 179.723914 
L 227.972602 179.664966 
L 227.806916 179.200174 
L 227.665735 178.81304 
L 227.524554 178.433652 
L 227.385732 178.067772 
L 227.301795 177.849849 
L 227.106992 177.353221 
L 226.912238 176.868827 
L 226.787283 176.564073 
L 226.689082 176.327736 
L 226.556312 176.012481 
L 226.337706 175.503673 
L 226.191187 175.169464 
L 226.098975 174.961817 
L 225.978846 174.694323 
L 225.858718 174.430146 
L 225.707904 174.103031 
L 225.522419 173.707389 
L 225.366846 173.38101 
L 225.187242 173.010159 
L 225.06379 172.75882 
L 224.981405 172.592661 
L 224.753604 172.139565 
L 224.543808 171.73023 
L 224.432268 171.515589 
L 224.358247 171.374261 
L 224.213709 171.100806 
L 223.935346 170.583216 
L 223.871848 170.466766 
L 223.629762 170.028122 
L 223.562034 169.90688 
L 223.393623 169.608119 
L 223.169514 169.216408 
L 223.104358 169.103748 
L 222.93477 168.813031 
L 222.684045 168.389719 
L 222.555969 168.176384 
L 222.362306 167.85742 
L 222.218949 167.624049 
L 222.055241 167.360332 
L 222.020906 167.30539 
L 221.834365 167.009099 
L 221.698678 166.795877 
L 221.529771 166.53309 
L 221.282198 166.153069 
L 221.141957 165.940453 
L 220.989788 165.711871 
L 220.878509 165.546085 
L 220.653868 165.214865 
L 220.491636 164.978479 
L 220.427861 164.886188 
L 220.298161 164.699584 
L 220.102719 164.421107 
L 219.903469 164.140496 
L 219.694112 163.849146 
L 219.537058 163.632883 
L 219.377189 163.414731 
L 219.31751 163.333802 
L 219.157494 163.118147 
L 218.985516 162.888517 
L 218.846712 162.704776 
L 218.727056 162.547507 
L 218.547524 162.313467 
L 218.354538 162.064423 
L 218.202922 161.870575 
L 218.024047 161.643887 
L 217.883449 161.467211 
L 217.773584 161.330065 
L 217.522811 161.019962 
L 217.440179 160.918663 
L 217.290633 160.736432 
L 217.156628 160.574324 
L 216.969843 160.350213 
L 216.827147 160.18043 
L 216.666102 159.990278 
L 216.478641 159.770862 
L 216.307325 159.572129 
L 216.090959 159.323535 
L 216.005238 159.225776 
L 215.867098 159.069097 
L 215.744702 158.931156 
L 215.466104 158.620213 
L 215.366496 158.510051 
L 215.170277 158.294577 
L 215.042949 158.155831 
L 214.852593 157.949963 
L 214.752868 157.842851 
L 214.530875 157.606211 
L 214.462855 157.534196 
L 214.362922 157.428807 
L 214.077183 157.130161 
L 213.962381 157.011283 
L 213.869099 156.915152 
L 213.620962 156.661436 
L 213.515268 156.554239 
L 213.412085 156.450087 
L 213.261227 156.29869 
L 212.971514 156.01083 
L 212.909667 155.949866 
L 212.745775 155.78913 
L 212.507805 155.557836 
L 212.364477 155.419711 
L 212.268771 155.327971 
L 212.045659 155.11561 
L 211.964693 155.039063 
L 211.771557 154.857571 
L 211.648247 154.7425 
L 211.494529 154.599924 
L 211.244679 154.370224 
L 211.137064 154.272059 
L 211.061814 154.203689 
L 210.874078 154.034091 
L 210.645429 153.829391 
L 210.495092 153.6959 
L 210.328469 153.548958 
L 210.23783 153.469467 
L 210.072571 153.325328 
L 209.864248 153.145082 
L 209.817205 153.104601 
L 209.653882 152.964692 
L 209.419091 152.765263 
L 209.253329 152.625664 
L 209.146913 152.536562 
L 209.007157 152.420155 
L 208.730527 152.191766 
L 208.712112 152.176658 
L 208.423683 151.941542 
L 208.300586 151.842067 
L 208.236834 151.790752 
L 207.963668 151.57243 
L 207.915672 151.534329 
L 207.698206 151.362656 
L 207.546429 151.243766 
L 207.474406 151.187614 
L 207.187962 150.96596 
L 207.022398 150.839053 
L 206.964408 150.794811 
L 206.773641 150.650023 
L 206.692168 150.588538 
L 206.515853 150.456195 
L 206.364815 150.343597 
L 206.189144 150.213526 
L 206.026295 150.093797 
L 205.831322 149.951517 
L 205.685248 149.845677 
L 205.51208 149.721037 
L 205.435874 149.666471 
L 205.195356 149.495387 
L 205.076698 149.411614 
L 204.900996 149.288325 
L 204.813109 149.226994 
L 204.525735 149.028015 
L 204.377306 148.926172 
L 204.280758 148.860265 
L 204.180333 148.791992 
L 204.032568 148.692054 
L 203.829684 148.555839 
L 203.718219 148.481492 
L 203.505191 148.340363 
L 203.327843 148.223828 
L 203.166709 148.118693 
L 203.009617 148.016877 
L 202.823085 147.896848 
L 202.737096 147.841831 
L 202.548207 147.721673 
L 202.437297 147.651564 
L 202.173823 147.486318 
L 202.017155 147.388925 
L 201.88386 147.306567 
L 201.835806 147.27699 
L 201.60187 147.133856 
L 201.377353 146.997811 
L 201.28589 146.94276 
L 201.210908 146.897787 
L 201.029259 146.789429 
L 200.801833 146.654939 
L 200.6593 146.571312 
L 200.513099 146.48606 
L 200.353846 146.393802 
L 200.353846 254.313891 
L 200.448557 254.259098 
L 200.591624 254.175909 
L 200.821167 254.041371 
L 200.919151 253.983539 
L 201.11105 253.869576 
L 201.361973 253.719153 
L 201.3804 253.708044 
L 201.576061 253.589541 
L 201.780545 253.464642 
L 201.89768 253.392608 
L 202.031829 253.309672 
L 202.28807 253.149946 
L 202.331419 253.122754 
L 202.569523 252.972507 
L 202.733471 252.868176 
L 202.871923 252.779509 
L 203.039505 252.671496 
L 203.189754 252.574007 
L 203.396935 252.438567 
L 203.559515 252.331459 
L 203.692966 252.242995 
L 203.76506 252.194999 
L 203.997092 252.03954 
L 204.168594 251.923662 
L 204.244523 251.872095 
L 204.362646 251.791545 
L 204.562316 251.654481 
L 204.752869 251.522607 
L 204.946772 251.387334 
L 205.065095 251.304249 
L 205.236351 251.183266 
L 205.338826 251.110459 
L 205.50409 250.992384 
L 205.706723 250.846496 
L 205.870737 250.727506 
L 205.92974 250.6845 
L 206.150665 250.522531 
L 206.349879 250.375192 
L 206.457753 250.294895 
L 206.686501 250.123423 
L 206.840373 250.007153 
L 206.929207 249.939685 
L 207.113845 249.798652 
L 207.295604 249.658749 
L 207.373181 249.598711 
L 207.539095 249.469651 
L 207.70787 249.33744 
L 207.873379 249.206873 
L 207.96269 249.13604 
L 208.117996 249.012228 
L 208.294085 248.870864 
L 208.474913 248.724599 
L 208.653148 248.579333 
L 208.881706 248.391443 
L 208.952137 248.333176 
L 209.081054 248.226072 
L 209.260024 248.076409 
L 209.469277 247.899969 
L 209.62103 247.771025 
L 209.684906 247.716499 
L 209.944783 247.49312 
L 210.094161 247.363591 
L 210.154733 247.31083 
L 210.360143 247.130882 
L 210.554214 246.959398 
L 210.72992 246.802897 
L 210.766321 246.770325 
L 211.072904 246.493942 
L 211.131631 246.440578 
L 211.284196 246.301305 
L 211.520368 246.083869 
L 211.658006 245.956108 
L 211.803956 245.819783 
L 211.967668 245.665822 
L 212.089851 245.550187 
L 212.225119 245.421436 
L 212.464041 245.192126 
L 212.546861 245.112065 
L 212.660128 245.002091 
L 212.940791 244.727168 
L 213.006398 244.662401 
L 213.147357 244.522594 
L 213.411854 244.257837 
L 213.483522 244.185549 
L 213.672305 243.993995 
L 213.879232 243.782117 
L 213.986153 243.671845 
L 214.171053 243.479859 
L 214.297108 243.348024 
L 214.437469 243.200315 
L 214.5694 243.060591 
L 214.751642 242.866156 
L 214.946282 242.656638 
L 215.079927 242.511654 
L 215.224702 242.353553 
L 215.412055 242.147321 
L 215.600369 241.938149 
L 215.659807 241.871732 
L 215.926173 241.571721 
L 216.015357 241.470398 
L 216.203419 241.255278 
L 216.38987 241.040019 
L 216.506503 240.90435 
L 216.694701 240.683759 
L 216.867339 240.479566 
L 216.951009 240.379958 
L 217.077149 240.22899 
L 217.194318 240.087886 
L 217.38344 239.858335 
L 217.603467 239.588434 
L 217.711772 239.454441 
L 217.914763 239.201245 
L 217.997125 239.097738 
L 218.201755 238.838603 
L 218.327811 238.677555 
L 218.54915 238.392115 
L 218.597488 238.329321 
L 218.769152 238.104974 
L 219.025208 237.766372 
L 219.188018 237.548557 
L 219.356603 237.320908 
L 219.494997 237.132397 
L 219.603265 236.983881 
L 219.771387 236.75142 
L 219.970555 236.473083 
L 220.003311 236.426995 
L 220.307269 235.995053 
L 220.458761 235.776832 
L 220.490565 235.730766 
L 220.779329 235.308407 
L 220.901071 235.128087 
L 221.014204 234.959291 
L 221.15705 234.744448 
L 221.317878 234.500227 
L 221.480477 234.250752 
L 221.627008 234.023674 
L 221.859752 233.658486 
L 221.965561 233.490594 
L 222.071095 233.321949 
L 222.234384 233.058626 
L 222.40477 232.780703 
L 222.608782 232.443572 
L 222.695115 232.299444 
L 222.923677 231.913553 
L 223.118064 231.580291 
L 223.169575 231.49118 
L 223.348808 231.178433 
L 223.448918 231.001904 
L 223.698385 230.556074 
L 223.801345 230.369537 
L 223.98582 230.031488 
L 224.204785 229.623662 
L 224.358798 229.332383 
L 224.384789 229.282855 
L 224.525716 229.012417 
L 224.666643 228.738702 
L 224.794051 228.488345 
L 224.924011 228.230057 
L 225.15059 227.772452 
L 225.221748 227.626767 
L 225.469085 227.112745 
L 225.48464 227.08001 
L 225.613661 226.806584 
L 225.742683 226.529666 
L 225.871634 226.249298 
L 226.101408 225.740424 
L 226.160599 225.607334 
L 226.277387 225.342251 
L 226.449441 224.945512 
L 226.580631 224.637826 
L 226.711822 224.325473 
L 226.865649 223.953029 
L 226.909414 223.845803 
L 227.031083 223.544671 
L 227.152752 223.23893 
L 227.325952 222.795375 
L 227.460843 222.442819 
L 227.576867 222.134341 
L 227.726635 221.728632 
L 227.842797 221.407846 
L 227.958958 221.081445 
L 228.016169 220.918543 
L 228.137793 220.567334 
L 228.259417 220.209168 
L 228.376967 219.856028 
L 228.498223 219.484169 
L 228.589606 219.19856 
L 228.680989 218.908105 
L 228.767922 218.627082 
L 228.854856 218.34125 
L 228.934742 218.074148 
L 229.015302 217.800282 
L 229.095862 217.52167 
L 229.16213 217.288766 
L 229.228397 217.052351 
L 229.294665 216.812273 
L 229.360932 216.56837 
L 229.467595 216.167304 
L 229.536184 215.903553 
L 229.604773 215.634942 
L 229.662945 215.403127 
L 229.721116 215.167456 
L 229.779287 214.927743 
L 229.837459 214.683784 
L 229.899771 214.417497 
L 229.962084 214.145788 
L 230.045375 213.773563 
L 230.09157 213.562375 
L 230.137764 213.34759 
L 230.183959 213.129028 
L 230.230153 212.906491 
L 230.276918 212.676937 
L 230.323683 212.442844 
L 230.370448 212.203944 
L 230.417213 211.959938 
L 230.470673 211.674319 
L 230.524134 211.381045 
L 230.577594 211.079489 
L 230.631055 210.768932 
L 230.673974 210.51254 
L 230.706781 210.311982 
L 230.739587 210.107191 
L 230.772394 209.897893 
L 230.8052 209.683787 
L 230.838007 209.464532 
L 230.870814 209.239748 
L 230.90362 209.009004 
L 230.936427 208.771809 
L 230.973625 208.49435 
L 231.007325 208.234396 
L 231.041026 207.96542 
L 231.074726 207.686429 
L 231.108427 207.396233 
L 231.125277 207.246493 
L 231.142127 207.093385 
L 231.158978 206.936674 
L 231.175828 206.776096 
L 231.192678 206.611353 
L 231.209528 206.442107 
L 231.226379 206.267972 
L 231.243229 206.088502 
L 231.259798 205.906322 
L 231.276367 205.717908 
L 231.292936 205.522577 
L 231.309506 205.319513 
L 231.326075 205.107725 
L 231.342644 204.88599 
L 231.359213 204.652771 
L 231.367498 204.531257 
L 231.375782 204.406083 
L 231.384027 204.277538 
L 231.392271 204.144618 
L 231.400515 204.006846 
L 231.40876 203.863651 
L 231.417004 203.71434 
L 231.425249 203.558057 
L 231.433493 203.393728 
L 231.441737 203.219969 
L 231.449982 203.034948 
L 231.454104 202.937463 
L 231.458226 202.836146 
L 231.462348 202.730507 
L 231.46647 202.619941 
L 231.470593 202.503688 
L 231.474715 202.38077 
L 231.478837 202.249891 
L 231.482959 202.109271 
L 231.487081 201.956349 
L 231.491204 201.787192 
L 231.495326 201.595181 
L 231.499448 201.367408 
L 231.50357 201.070555 
z
" clip-path="url(#pfa43fbed31)" style="fill: #808080; opacity: 0.5"/>
   </g>
   <g id="matplotlib.axis_1"/>
   <g id="matplotlib.axis_2"/>
   <g id="line2d_1">
    <path d="M 138.046154 138.046154 
L 138.183192 142.176321 
L 138.533006 145.819969 
L 139.086837 149.386441 
L 139.835293 152.87023 
L 140.84438 156.508871 
L 142.039962 159.994718 
L 143.467197 163.465785 
L 145.167559 166.972306 
L 147.026129 170.270416 
L 149.09779 173.473053 
L 151.406951 176.60066 
L 153.801719 179.460498 
L 156.413682 182.222058 
L 158.968144 184.623747 
L 161.951869 187.11281 
L 164.981053 189.339565 
L 168.112617 191.363615 
L 169.2 192.006198 
L 169.2 192.006198 
" clip-path="url(#pfa43fbed31)" style="fill: none; stroke: #ff0000; stroke-linecap: square"/>
   </g>
   <g id="line2d_2">
    <path d="M 106.892308 200.353846 
L 107.030956 204.508186 
L 107.392977 208.236764 
L 107.968347 211.883513 
L 108.721632 215.341024 
L 109.644591 218.667823 
L 110.93895 222.442273 
L 112.26453 225.663939 
L 113.81884 228.905127 
L 115.531442 232.007194 
L 117.516546 235.154265 
L 119.676129 238.164357 
L 122.014549 241.045144 
L 124.533498 243.795211 
L 127.223195 246.399436 
L 130.235669 248.975132 
L 133.324013 251.296579 
L 136.374525 253.313611 
L 139.465763 255.108971 
L 142.899282 256.838541 
L 146.398398 258.339495 
L 149.860791 259.584273 
L 153.469953 260.643266 
L 157.253327 261.505506 
L 161.105675 262.133539 
L 164.665714 262.496334 
L 168.339081 262.65559 
L 169.2 262.661538 
L 169.2 262.661538 
" clip-path="url(#pfa43fbed31)" style="fill: none; stroke: #228b22; stroke-linecap: square"/>
   </g>
   <g id="line2d_3">
    <path d="M 169.2 262.661538 
L 172.956742 262.548182 
L 176.627879 262.217205 
L 180.326559 261.66003 
L 183.915252 260.898952 
L 187.521188 259.907037 
L 191.064982 258.699121 
L 194.542065 257.275092 
L 197.923661 255.645797 
L 200.353846 254.313891 
L 200.353846 254.313891 
" clip-path="url(#pfa43fbed31)" style="fill: none; stroke: #228b22; stroke-linecap: square"/>
   </g>
   <g id="line2d_4">
    <path d="M 200.353846 254.313891 
L 203.559515 252.331459 
L 206.457753 250.294895 
L 209.469277 247.899969 
L 212.225119 245.421436 
L 214.946282 242.656638 
L 217.38344 239.858335 
L 219.603265 236.983881 
L 221.627008 234.023674 
L 223.448918 231.001904 
L 225.221748 227.626767 
L 226.711822 224.325473 
L 228.016169 220.918543 
L 229.16213 217.288766 
L 230.09157 213.562375 
L 230.772394 209.897893 
L 231.226379 206.267972 
L 231.470593 202.503688 
L 231.507692 200.353846 
L 231.507692 200.353846 
" clip-path="url(#pfa43fbed31)" style="fill: none; stroke: #228b22; stroke-linecap: square"/>
   </g>
   <g id="text_1">
    <!-- $\Omega$ -->
    <g transform="translate(16.011538 22.420913)scale(0.1 -0.1)">
     <defs>
      <path id="Cmr10-ad" d="M 494 0 
L 281 1063 
L 469 1063 
Q 503 878 531 736 
Q 559 594 604 536 
Q 650 478 750 459 
Q 850 441 1081 441 
L 1472 441 
Q 1378 803 1004 1386 
Q 631 1969 495 2233 
Q 359 2497 359 2913 
Q 359 3397 646 3761 
Q 934 4125 1389 4319 
Q 1844 4513 2309 4513 
Q 2772 4513 3226 4319 
Q 3681 4125 3968 3758 
Q 4256 3391 4256 2913 
Q 4256 2588 4137 2300 
Q 4019 2013 3834 1725 
Q 3650 1438 3436 1084 
Q 3222 731 3144 441 
L 3531 441 
Q 3766 441 3869 459 
Q 3972 478 4015 536 
Q 4059 594 4086 736 
Q 4113 878 4147 1063 
L 4331 1063 
L 4122 0 
L 2988 0 
Q 2925 0 2925 84 
Q 2925 409 3004 721 
Q 3084 1034 3240 1478 
Q 3397 1922 3484 2261 
Q 3572 2600 3572 2913 
Q 3572 3297 3422 3625 
Q 3272 3953 2984 4150 
Q 2697 4347 2309 4347 
Q 1725 4347 1384 3930 
Q 1044 3513 1044 2913 
Q 1047 2584 1122 2293 
Q 1197 2003 1364 1518 
Q 1531 1034 1611 721 
Q 1691 409 1691 84 
Q 1691 0 1625 0 
L 494 0 
z
" transform="scale(0.015625)"/>
     </defs>
     <use xlink:href="#Cmr10-ad" transform="translate(0 0.484375)"/>
    </g>
   </g>
   <g id="text_2">
    <!-- $A$ -->
    <g style="fill: #0000ff" transform="translate(103.142308 78.497837)scale(0.1 -0.1)">
     <defs>
      <path id="Cmmi10-41" d="M 288 0 
Q 225 0 225 84 
Q 250 225 306 225 
Q 566 225 755 328 
Q 944 431 1081 647 
Q 1094 659 1094 659 
L 3378 4513 
Q 3428 4581 3500 4581 
L 3584 4581 
Q 3603 4581 3622 4573 
Q 3641 4566 3655 4548 
Q 3669 4531 3669 4513 
L 4056 378 
Q 4056 350 4084 294 
Q 4147 225 4563 225 
Q 4628 225 4628 141 
Q 4606 56 4592 28 
Q 4578 0 4519 0 
L 2919 0 
Q 2859 0 2859 84 
Q 2894 225 2944 225 
Q 3450 225 3481 397 
L 3384 1453 
L 1806 1453 
L 1294 594 
Q 1247 525 1247 434 
Q 1247 322 1355 273 
Q 1463 225 1594 225 
Q 1656 225 1656 141 
Q 1634 50 1621 25 
Q 1609 0 1550 0 
L 288 0 
z
M 1931 1678 
L 3359 1678 
L 3169 3750 
L 1931 1678 
z
" transform="scale(0.015625)"/>
     </defs>
     <use xlink:href="#Cmmi10-41" transform="translate(0 0.421875)"/>
    </g>
   </g>
   <g id="text_3">
    <!-- $B$ -->
    <g style="fill: #ff0000" transform="translate(227.707692 78.497837)scale(0.1 -0.1)">
     <defs>
      <path id="Cmmi10-42" d="M 319 0 
Q 256 0 256 84 
Q 259 100 268 137 
Q 278 175 293 200 
Q 309 225 341 225 
Q 522 225 656 234 
Q 791 244 884 269 
Q 959 297 1006 441 
L 1881 3956 
Q 1894 4019 1894 4044 
Q 1894 4113 1819 4122 
Q 1697 4147 1356 4147 
Q 1294 4147 1294 4231 
Q 1297 4247 1306 4286 
Q 1316 4325 1333 4348 
Q 1350 4372 1375 4372 
L 3669 4372 
Q 3878 4372 4083 4320 
Q 4288 4269 4461 4156 
Q 4634 4044 4736 3876 
Q 4838 3709 4838 3488 
Q 4838 3247 4714 3040 
Q 4591 2834 4395 2681 
Q 4200 2528 3973 2429 
Q 3747 2331 3500 2284 
Q 3675 2284 3854 2215 
Q 4034 2147 4175 2028 
Q 4316 1909 4402 1743 
Q 4488 1578 4488 1388 
Q 4488 1003 4219 684 
Q 3950 366 3542 183 
Q 3134 0 2753 0 
L 319 0 
z
M 1497 275 
Q 1497 225 1716 225 
L 2631 225 
Q 2944 225 3231 398 
Q 3519 572 3692 859 
Q 3866 1147 3866 1459 
Q 3866 1650 3786 1820 
Q 3706 1991 3556 2089 
Q 3406 2188 3213 2188 
L 1966 2188 
L 1522 416 
Q 1497 328 1497 275 
z
M 2009 2356 
L 2981 2356 
Q 3288 2356 3577 2512 
Q 3866 2669 4048 2937 
Q 4231 3206 4231 3506 
Q 4231 3784 4057 3965 
Q 3884 4147 3609 4147 
L 2731 4147 
Q 2559 4147 2500 4115 
Q 2441 4084 2400 3928 
L 2009 2356 
z
" transform="scale(0.015625)"/>
     </defs>
     <use xlink:href="#Cmmi10-42" transform="translate(0 0.6875)"/>
    </g>
   </g>
   <g id="text_4">
    <!-- $C$ -->
    <g style="fill: #228b22" transform="translate(150.023077 271.651683)scale(0.1 -0.1)">
     <defs>
      <path id="Cmmi10-43" d="M 934 1381 
Q 934 997 1082 705 
Q 1231 413 1514 248 
Q 1797 84 2181 84 
Q 2584 84 2957 290 
Q 3331 497 3595 842 
Q 3859 1188 3956 1575 
Q 3969 1613 4006 1613 
L 4084 1613 
Q 4109 1613 4125 1595 
Q 4141 1578 4141 1556 
Q 4141 1550 4134 1538 
Q 4025 1094 3711 705 
Q 3397 316 2959 87 
Q 2522 -141 2059 -141 
Q 1559 -141 1162 84 
Q 766 309 545 709 
Q 325 1109 325 1613 
Q 325 2150 565 2676 
Q 806 3203 1212 3614 
Q 1619 4025 2139 4269 
Q 2659 4513 3194 4513 
Q 3406 4513 3600 4448 
Q 3794 4384 3959 4253 
Q 4125 4122 4231 3950 
L 4738 4500 
Q 4738 4513 4769 4513 
L 4806 4513 
Q 4831 4513 4847 4491 
Q 4863 4469 4863 4447 
L 4428 2719 
Q 4428 2675 4378 2675 
L 4263 2675 
Q 4213 2675 4213 2747 
Q 4238 2888 4238 3084 
Q 4238 3397 4131 3673 
Q 4025 3950 3801 4119 
Q 3578 4288 3256 4288 
Q 2734 4288 2300 4025 
Q 1866 3763 1564 3336 
Q 1263 2909 1098 2389 
Q 934 1869 934 1381 
z
" transform="scale(0.015625)"/>
     </defs>
     <use xlink:href="#Cmmi10-43" transform="translate(0 0.484375)"/>
    </g>
   </g>
   <g id="patch_8">
    <path d="M 138.046154 200.353846 
C 154.570347 200.353846 170.419977 193.788715 182.104346 182.104346 
C 193.788715 170.419977 200.353846 154.570347 200.353846 138.046154 
C 200.353846 121.521961 193.788715 105.672331 182.104346 93.987962 
C 170.419977 82.303593 154.570347 75.738462 138.046154 75.738462 
C 121.521961 75.738462 105.672331 82.303593 93.987962 93.987962 
C 82.303593 105.672331 75.738462 121.521961 75.738462 138.046154 
C 75.738462 154.570347 82.303593 170.419977 93.987962 182.104346 
C 105.672331 193.788715 121.521961 200.353846 138.046154 200.353846 
L 138.046154 200.353846 
z
" clip-path="url(#pfa43fbed31)" style="fill: none; stroke: #0000ff; stroke-linejoin: miter"/>
   </g>
   <g id="patch_9">
    <path d="M 200.353846 200.353846 
C 216.878039 200.353846 232.727669 193.788715 244.412038 182.104346 
C 256.096407 170.419977 262.661538 154.570347 262.661538 138.046154 
C 262.661538 121.521961 256.096407 105.672331 244.412038 93.987962 
C 232.727669 82.303593 216.878039 75.738462 200.353846 75.738462 
C 183.829653 75.738462 167.980023 82.303593 156.295654 93.987962 
C 144.611285 105.672331 138.046154 121.521961 138.046154 138.046154 
C 138.046154 154.570347 144.611285 170.419977 156.295654 182.104346 
C 167.980023 193.788715 183.829653 200.353846 200.353846 200.353846 
L 200.353846 200.353846 
z
" clip-path="url(#pfa43fbed31)" style="fill: none; stroke: #ff0000; stroke-linejoin: miter"/>
   </g>
   <g id="patch_10">
    <path d="M 169.2 262.661538 
C 185.724193 262.661538 201.573823 256.096407 213.258192 244.412038 
C 224.942561 232.727669 231.507692 216.878039 231.507692 200.353846 
C 231.507692 183.829653 224.942561 167.980023 213.258192 156.295654 
C 201.573823 144.611285 185.724193 138.046154 169.2 138.046154 
C 152.675807 138.046154 136.826177 144.611285 125.141808 156.295654 
C 113.457439 167.980023 106.892308 183.829653 106.892308 200.353846 
C 106.892308 216.878039 113.457439 232.727669 125.141808 244.412038 
C 136.826177 256.096407 152.675807 262.661538 169.2 262.661538 
L 169.2 262.661538 
z
" clip-path="url(#pfa43fbed31)" style="fill: none; stroke: #228b22; stroke-linejoin: miter"/>
   </g>
  </g>
 </g>
 <defs>
  <clipPath id="pfa43fbed31">
   <rect x="7.2" y="7.2" width="324" height="324"/>
  </clipPath>
 </defs>
</svg>
