<?xml version="1.0" encoding="utf-8" standalone="no"?>
<!DOCTYPE svg PUBLIC "-//W3C//DTD SVG 1.1//EN"
  "http://www.w3.org/Graphics/SVG/1.1/DTD/svg11.dtd">
<svg xmlns:xlink="http://www.w3.org/1999/xlink" width="338.4pt" height="338.4pt" viewBox="0 0 338.4 338.4" xmlns="http://www.w3.org/2000/svg" version="1.1">
 <metadata>
  <rdf:RDF xmlns:dc="http://purl.org/dc/elements/1.1/" xmlns:cc="http://creativecommons.org/ns#" xmlns:rdf="http://www.w3.org/1999/02/22-rdf-syntax-ns#">
   <cc:Work>
    <dc:type rdf:resource="http://purl.org/dc/dcmitype/StillImage"/>
    <dc:date>2022-08-25T17:40:33.341790</dc:date>
    <dc:format>image/svg+xml</dc:format>
    <dc:creator>
     <cc:Agent>
      <dc:title>Matplotlib v3.5.2, https://matplotlib.org/</dc:title>
     </cc:Agent>
    </dc:creator>
   </cc:Work>
  </rdf:RDF>
 </metadata>
 <defs>
  <style type="text/css">*{stroke-linejoin: round; stroke-linecap: butt}</style>
 </defs>
 <g id="figure_1">
  <g id="patch_1">
   <path d="M -0 338.4 
L 338.4 338.4 
L 338.4 0 
L -0 0 
z
" style="fill: #ffffff"/>
  </g>
  <g id="axes_1">
   <g id="patch_2">
    <path d="M 7.2 331.2 
L 331.2 331.2 
L 331.2 7.2 
L 7.2 7.2 
z
" style="fill: #ffffff"/>
   </g>
   <g id="patch_3">
    <path d="M 13.430769 324.969231 
L 13.430769 13.430769 
L 324.969231 13.430769 
L 324.969231 324.969231 
L 13.430769 324.969231 
z
" clip-path="url(#pc35c49cca4)" style="fill: none; stroke: #000000; stroke-linejoin: miter"/>
   </g>
   <g id="patch_4">
    <path d="M 169.2 138.046154 
L 169.035593 138.046371 
L 168.861275 138.047075 
L 168.764809 138.047674 
L 168.523221 138.049829 
L 168.391542 138.051399 
L 168.233201 138.053655 
L 168.120197 138.055511 
L 167.896156 138.059797 
L 167.72041 138.063724 
L 167.598 138.066752 
L 167.471928 138.070122 
L 167.368259 138.073085 
L 167.138989 138.08025 
L 167.015906 138.084446 
L 166.857569 138.090201 
L 166.756836 138.094072 
L 166.54101 138.102916 
L 166.367958 138.110549 
L 166.241583 138.116427 
L 166.088179 138.123909 
L 165.974979 138.129673 
L 165.726408 138.143054 
L 165.614835 138.149384 
L 165.49638 138.156324 
L 165.312547 138.167544 
L 165.122712 138.179702 
L 165.020117 138.186515 
L 164.834317 138.199286 
L 164.671285 138.210952 
L 164.461649 138.226585 
L 164.289061 138.239989 
L 164.115942 138.25392 
L 164.012008 138.262516 
L 163.835967 138.277476 
L 163.69343 138.289958 
L 163.521771 138.305428 
L 163.485538 138.308754 
L 163.230913 138.332733 
L 163.056775 138.349739 
L 162.90874 138.364584 
L 162.836322 138.371977 
L 162.638395 138.392617 
L 162.423654 138.415735 
L 162.323497 138.426774 
L 162.090787 138.453058 
L 161.983657 138.465455 
L 161.798143 138.487369 
L 161.668444 138.503024 
L 161.546084 138.518047 
L 161.407756 138.535326 
L 161.172829 138.565392 
L 161.056199 138.580656 
L 160.90981 138.600132 
L 160.801035 138.614832 
L 160.661419 138.633986 
L 160.392554 138.671779 
L 160.223506 138.696153 
L 160.189955 138.701047 
L 160.037211 138.723563 
L 159.729396 138.770113 
L 159.592389 138.791339 
L 159.50497 138.805045 
L 159.311405 138.835847 
L 159.23735 138.847797 
L 159.076648 138.874042 
L 158.876757 138.907291 
L 158.765451 138.926094 
L 158.607611 138.953115 
L 158.350605 138.998006 
L 158.209574 139.023111 
L 158.112936 139.040507 
L 157.95769 139.068783 
L 157.803412 139.097285 
L 157.620354 139.131625 
L 157.47626 139.159055 
L 157.290686 139.194899 
L 157.11741 139.228896 
L 156.963212 139.259578 
L 156.873451 139.277626 
L 156.670722 139.318891 
L 156.498626 139.354472 
L 156.323772 139.391142 
L 156.275563 139.401345 
L 156.009128 139.458449 
L 155.863021 139.490281 
L 155.689203 139.52863 
L 155.642841 139.538947 
L 155.382182 139.597641 
L 155.341904 139.606816 
L 155.082175 139.666652 
L 154.916859 139.705347 
L 154.770572 139.739985 
L 154.616419 139.776889 
L 154.434636 139.820942 
L 154.353783 139.840721 
L 154.15991 139.888615 
L 154.06041 139.913451 
L 153.856483 139.964899 
L 153.75058 139.991905 
L 153.476339 140.06276 
L 153.321167 140.103442 
L 153.285119 140.112954 
L 153.145968 140.149888 
L 152.868849 140.224469 
L 152.8164 140.238739 
L 152.614779 140.294051 
L 152.38709 140.357392 
L 152.331145 140.373097 
L 152.131631 140.429567 
L 151.971629 140.475371 
L 151.77483 140.532345 
L 151.688 140.557706 
L 151.50926 140.610342 
L 151.408122 140.640384 
L 151.241687 140.690227 
L 150.965897 140.773933 
L 150.857334 140.807267 
L 150.72699 140.847574 
L 150.551805 140.902241 
L 150.420846 140.943477 
L 150.276168 140.989403 
L 150.09026 141.048987 
L 149.946208 141.095598 
L 149.782666 141.148984 
L 149.6322 141.198544 
L 149.513089 141.238078 
L 149.301091 141.309101 
L 149.19579 141.344694 
L 148.959214 141.425423 
L 148.796203 141.481666 
L 148.746773 141.498821 
L 148.562662 141.563126 
L 148.367342 141.632054 
L 148.161663 141.705428 
L 148.091352 141.730698 
L 147.968678 141.775015 
L 147.682323 141.879595 
L 147.649253 141.891775 
L 147.404127 141.982719 
L 147.335004 142.008577 
L 147.195701 142.060971 
L 146.979264 142.143131 
L 146.80357 142.210502 
L 146.718928 142.243177 
L 146.559597 142.305068 
L 146.277016 142.416075 
L 146.17606 142.45612 
L 145.963874 142.54095 
L 145.869524 142.578961 
L 145.644584 142.670305 
L 145.62156 142.679712 
L 145.461511 142.745403 
L 145.288892 142.816837 
L 145.121022 142.886887 
L 144.928753 142.967828 
L 144.733879 143.05064 
L 144.573284 143.119474 
L 144.411123 143.189521 
L 144.26791 143.251838 
L 144.146463 143.305018 
L 144.057444 143.344194 
L 143.821725 143.448735 
L 143.604277 143.54621 
L 143.521663 143.583506 
L 143.38783 143.644231 
L 143.215959 143.722776 
L 143.018222 143.813922 
L 142.913045 143.862745 
L 142.745038 143.941228 
L 142.658199 143.982033 
L 142.462371 144.074652 
L 142.246936 144.177509 
L 142.168153 144.215377 
L 141.902179 144.344227 
L 141.836796 144.37614 
L 141.68365 144.451261 
L 141.486152 144.548908 
L 141.336718 144.623369 
L 141.124279 144.730089 
L 141.079117 144.752907 
L 140.895462 144.846174 
L 140.718443 144.936796 
L 140.564243 145.016319 
L 140.447388 145.076945 
L 140.25948 145.175093 
L 140.08683 145.26599 
L 139.935955 145.34599 
L 139.726727 145.457811 
L 139.593178 145.529722 
L 139.531031 145.563329 
L 139.374404 145.648432 
L 139.138216 145.777865 
L 139.026459 145.839573 
L 138.854807 145.934936 
L 138.612495 146.070763 
L 138.476545 146.147594 
L 138.403965 146.188795 
L 138.22111 146.293168 
L 138.046154 146.393802 
L 138.046154 138.046154 
L 138.050429 138.776035 
L 138.054704 139.078344 
L 138.058979 139.310302 
L 138.063254 139.505842 
L 138.067529 139.678106 
L 138.071805 139.833838 
L 138.07608 139.97704 
L 138.080355 140.110322 
L 138.08463 140.235498 
L 138.088905 140.353885 
L 138.09318 140.466481 
L 138.097455 140.57406 
L 138.10173 140.677237 
L 138.106005 140.776511 
L 138.110281 140.872293 
L 138.114556 140.964928 
L 138.123106 141.141875 
L 138.131656 141.309219 
L 138.140206 141.468368 
L 138.148757 141.620417 
L 138.157307 141.766237 
L 138.165857 141.906534 
L 138.174407 142.04189 
L 138.182958 142.17279 
L 138.192381 142.312386 
L 138.201804 142.447537 
L 138.211227 142.578639 
L 138.22065 142.706036 
L 138.230074 142.830023 
L 138.239497 142.950858 
L 138.258343 143.183958 
L 138.27719 143.406866 
L 138.296036 143.620804 
L 138.314882 143.826768 
L 138.333729 144.025583 
L 138.356441 144.25665 
L 138.379153 144.479343 
L 138.401865 144.694504 
L 138.424577 144.902841 
L 138.447289 145.104958 
L 138.470001 145.301377 
L 138.492713 145.492546 
L 138.515425 145.678862 
L 138.535538 145.840084 
L 138.555651 145.997986 
L 138.595877 146.304593 
L 138.620472 146.486474 
L 138.645066 146.664447 
L 138.66966 146.83875 
L 138.694255 147.009596 
L 138.743443 147.341679 
L 138.792632 147.662049 
L 138.831241 147.906049 
L 138.869849 148.144007 
L 138.908458 148.376341 
L 138.947066 148.603422 
L 138.997683 148.893725 
L 139.0483 149.176229 
L 139.098917 149.451513 
L 139.149534 149.720088 
L 139.203149 149.997755 
L 139.256764 150.26888 
L 139.310378 150.533891 
L 139.363993 150.793167 
L 139.411225 151.017099 
L 139.458456 151.23706 
L 139.512341 151.483406 
L 139.566225 151.725103 
L 139.614811 151.939252 
L 139.663398 152.149982 
L 139.76057 152.56178 
L 139.825206 152.828988 
L 139.889841 153.091174 
L 139.970136 153.410272 
L 140.050431 153.722463 
L 140.114053 153.965196 
L 140.177675 154.204031 
L 140.241298 154.439141 
L 140.30492 154.670682 
L 140.369414 154.901907 
L 140.433908 155.129759 
L 140.545129 155.515151 
L 140.634659 155.818807 
L 140.760503 156.236315 
L 140.886347 156.643602 
L 141.00282 157.012023 
L 141.106583 157.333722 
L 141.210346 157.649594 
L 141.367625 158.117881 
L 141.528907 158.585752 
L 141.665233 158.972099 
L 141.761668 159.240614 
L 141.858102 159.505336 
L 142.031467 159.972134 
L 142.063093 160.056074 
L 142.184278 160.374383 
L 142.305462 160.687568 
L 142.406563 160.945082 
L 142.507664 161.199289 
L 142.607291 161.446664 
L 142.705175 161.686782 
L 142.837591 162.007141 
L 142.964277 162.309005 
L 143.090964 162.606505 
L 143.280485 163.043752 
L 143.43751 163.399244 
L 143.531199 163.608535 
L 143.681229 163.939455 
L 143.869178 164.34693 
L 143.936306 164.490617 
L 144.074552 164.783573 
L 144.212799 165.072647 
L 144.378197 165.413566 
L 144.509499 165.680505 
L 144.691996 166.046278 
L 144.836052 166.330832 
L 144.955528 166.564128 
L 145.09091 166.825598 
L 145.246946 167.123259 
L 145.449971 167.50482 
L 145.600181 167.783077 
L 145.69734 167.961282 
L 145.934493 168.390553 
L 146.084476 168.657981 
L 146.152039 168.77745 
L 146.343 169.111842 
L 146.497577 169.379057 
L 146.709694 169.740845 
L 146.828904 169.941751 
L 146.914824 170.085497 
L 147.131295 170.443818 
L 147.315839 170.745058 
L 147.475235 171.002201 
L 147.62923 171.248011 
L 147.823922 171.555191 
L 147.888693 171.656513 
L 148.125691 172.023622 
L 148.221878 172.171019 
L 148.396344 172.436072 
L 148.498738 172.590275 
L 148.738156 172.947 
L 148.912729 173.203799 
L 148.936824 173.239027 
L 149.218136 173.646543 
L 149.329083 173.805377 
L 149.425825 173.943022 
L 149.665964 174.281319 
L 149.855764 174.545362 
L 149.879242 174.577823 
L 150.125493 174.915667 
L 150.299594 175.151684 
L 150.448057 175.351123 
L 150.646614 175.615285 
L 150.702001 175.688454 
L 150.912429 175.964418 
L 150.998899 176.0769 
L 151.262628 176.416726 
L 151.38319 176.570476 
L 151.532315 176.759287 
L 151.737 177.016024 
L 151.864401 177.174432 
L 151.984606 177.32293 
L 152.210028 177.59892 
L 152.305853 177.715271 
L 152.483258 177.929174 
L 152.645616 178.123246 
L 152.701784 178.190014 
L 152.879041 178.399485 
L 153.078653 178.633154 
L 153.241967 178.82261 
L 153.321968 178.914857 
L 153.488561 179.105788 
L 153.696128 179.341503 
L 153.915172 179.587676 
L 154.067261 179.75707 
L 154.138189 179.835645 
L 154.356744 180.076085 
L 154.481683 180.212411 
L 154.643042 180.387279 
L 154.823187 180.580935 
L 154.972921 180.740652 
L 155.061298 180.834396 
L 155.259382 181.043105 
L 155.346421 181.134206 
L 155.582063 181.379005 
L 155.665361 181.464903 
L 155.876941 181.681615 
L 155.989181 181.795726 
L 156.231545 182.040143 
L 156.341326 182.14997 
L 156.479744 182.287669 
L 156.611024 182.417474 
L 156.767811 182.571495 
L 157.003482 182.800979 
L 157.14972 182.942167 
L 157.360436 183.143994 
L 157.442381 183.221973 
L 157.605889 183.376725 
L 157.738207 183.501141 
L 157.942846 183.692135 
L 158.046929 183.788621 
L 158.236941 183.963632 
L 158.419237 184.130175 
L 158.551098 184.24982 
L 158.69072 184.37576 
L 158.879103 184.544479 
L 159.022471 184.671962 
L 159.187999 184.81817 
L 159.263477 184.884493 
L 159.539604 185.125302 
L 159.689647 185.25496 
L 159.770118 185.324157 
L 159.967626 185.492984 
L 160.047002 185.560435 
L 160.236141 185.720238 
L 160.431757 185.884165 
L 160.558994 185.990062 
L 160.693963 186.101769 
L 160.942549 186.305849 
L 161.124393 186.453782 
L 161.181635 186.500116 
L 161.323219 186.614237 
L 161.522746 186.773909 
L 161.632345 186.861048 
L 161.884747 187.060202 
L 162.047292 187.187342 
L 162.144238 187.262761 
L 162.381724 187.446219 
L 162.501193 187.537822 
L 162.5489 187.574273 
L 162.810305 187.772717 
L 162.968127 187.89148 
L 163.039003 187.944561 
L 163.296705 188.136241 
L 163.469171 188.263375 
L 163.550167 188.322766 
L 163.789054 188.496768 
L 163.867394 188.553453 
L 163.958094 188.618851 
L 164.211641 188.800361 
L 164.304692 188.866495 
L 164.442798 188.964177 
L 164.619536 189.088368 
L 164.739795 189.172349 
L 165.005936 189.356716 
L 165.135527 189.44575 
L 165.252112 189.525439 
L 165.433744 189.648818 
L 165.55507 189.730713 
L 165.702038 189.829363 
L 165.978258 190.013138 
L 166.050787 190.061042 
L 166.289811 190.21789 
L 166.318823 190.236821 
L 166.479053 190.340962 
L 166.637323 190.443144 
L 166.874408 190.594948 
L 167.017714 190.685976 
L 167.095509 190.735161 
L 167.357849 190.899845 
L 167.507647 190.993068 
L 167.600299 191.050434 
L 167.765032 191.151876 
L 167.967843 191.275801 
L 168.104321 191.358597 
L 168.270712 191.458896 
L 168.47487 191.580997 
L 168.629471 191.672757 
L 168.652883 191.6866 
L 168.929718 191.849246 
L 169.051927 191.920437 
L 169.2 192.006198 
z
" clip-path="url(#pc35c49cca4)" style="fill: #808080; opacity: 0.5"/>
   </g>
   <g id="patch_5">
    <path d="M 169.2 192.006198 
L 168.766034 192.254433 
L 168.593815 192.351669 
L 168.182762 192.580852 
L 167.856844 192.759692 
L 167.743821 192.821122 
L 167.46427 192.971767 
L 166.856999 193.292726 
L 166.622819 193.41422 
L 166.51474 193.469869 
L 166.188551 193.636207 
L 165.615385 193.922679 
L 165.426558 194.015449 
L 165.102958 194.172599 
L 164.8776 194.280681 
L 164.375857 194.517343 
L 164.221161 194.589213 
L 163.967294 194.706043 
L 163.683674 194.834939 
L 163.393461 194.965066 
L 163.045998 195.118532 
L 162.59564 195.313695 
L 162.198366 195.482372 
L 162.017468 195.558106 
L 161.660625 195.705544 
L 161.504818 195.769109 
L 161.005615 195.969479 
L 160.79019 196.054406 
L 160.435579 196.192196 
L 160.174441 196.292076 
L 159.817255 196.426525 
L 159.366818 196.592527 
L 159.11807 196.682515 
L 158.747662 196.814309 
L 158.644432 196.850571 
L 158.123975 197.030301 
L 157.776531 197.147429 
L 157.652124 197.188816 
L 157.338084 197.291997 
L 156.900633 197.43266 
L 156.708633 197.493277 
L 156.505597 197.556636 
L 155.918671 197.73553 
L 155.877926 197.747715 
L 155.353305 197.901906 
L 155.239839 197.934598 
L 154.944744 198.018532 
L 154.332614 198.187651 
L 154.238513 198.213055 
L 153.750481 198.342278 
L 153.659094 198.366007 
L 153.115099 198.504201 
L 153.066243 198.516357 
L 152.678515 198.611346 
L 152.441946 198.668012 
L 152.135649 198.739931 
L 151.644152 198.851934 
L 151.48889 198.886448 
L 151.071123 198.977252 
L 150.647333 199.066305 
L 150.321116 199.132763 
L 150.011686 199.194126 
L 149.858511 199.223901 
L 149.569621 199.278974 
L 149.154633 199.355617 
L 148.698115 199.436579 
L 148.471414 199.475483 
L 148.317875 199.501343 
L 147.798146 199.585955 
L 147.627319 199.612783 
L 147.246522 199.670838 
L 146.923899 199.718142 
L 146.726876 199.746183 
L 146.297613 199.805056 
L 146.005714 199.843354 
L 145.577306 199.897025 
L 145.420645 199.915899 
L 145.152374 199.947286 
L 144.825047 199.983987 
L 144.31902 200.03728 
L 144.032478 200.065606 
L 143.878645 200.080262 
L 143.456366 200.118516 
L 143.307342 200.131324 
L 142.939272 200.161417 
L 142.687521 200.180735 
L 142.245006 200.212207 
L 141.91324 200.233726 
L 141.593751 200.25277 
L 141.2604 200.270885 
L 141.095789 200.27917 
L 140.85105 200.29068 
L 140.324294 200.312185 
L 140.02802 200.322319 
L 139.76437 200.330151 
L 139.557706 200.335509 
L 139.065706 200.345504 
L 138.795451 200.349341 
L 138.636294 200.351051 
L 138.332529 200.353188 
L 137.985373 200.353817 
L 137.625952 200.352429 
L 137.274366 200.349066 
L 136.948128 200.34417 
L 136.566303 200.33627 
L 136.183689 200.326004 
L 136.035453 200.321395 
L 135.597123 200.305697 
L 135.347423 200.295374 
L 135.07103 200.282776 
L 134.770731 200.267695 
L 134.565022 200.256525 
L 133.980397 200.221053 
L 133.910599 200.21645 
L 133.657289 200.199081 
L 133.319195 200.174283 
L 132.876592 200.139021 
L 132.630185 200.118014 
L 132.313656 200.089582 
L 132.034524 200.063158 
L 131.628105 200.022417 
L 131.366695 199.994789 
L 131.042211 199.958942 
L 130.676178 199.916437 
L 130.250718 199.864272 
L 130.174668 199.854634 
L 129.899095 199.818914 
L 129.591424 199.777556 
L 129.269719 199.732641 
L 128.93498 199.684089 
L 128.466975 199.613092 
L 128.317852 199.589705 
L 127.753299 199.497807 
L 127.410715 199.439443 
L 127.305923 199.421197 
L 126.964319 199.360438 
L 126.670412 199.30659 
L 126.292862 199.235276 
L 126.068018 199.191659 
L 125.733165 199.125109 
L 125.282235 199.032471 
L 125.024518 198.977964 
L 124.780682 198.925344 
L 124.360838 198.832342 
L 124.145768 198.783521 
L 123.790657 198.701156 
L 123.635013 198.664365 
L 123.233879 198.567597 
L 122.886299 198.481469 
L 122.416171 198.361593 
L 122.166089 198.296233 
L 121.785571 198.194653 
L 121.597076 198.143378 
L 121.410355 198.091959 
L 120.862906 197.937593 
L 120.583994 197.856868 
L 120.405682 197.80452 
L 120.164784 197.732879 
L 119.610123 197.563893 
L 119.4189 197.504323 
L 119.194221 197.433469 
L 118.868103 197.328958 
L 118.572284 197.232444 
L 118.310147 197.14555 
L 117.820021 196.979609 
L 117.48296 196.862848 
L 117.278874 196.791099 
L 116.831302 196.630952 
L 116.648475 196.564423 
L 116.1952 196.396684 
L 116.015327 196.329009 
L 115.572519 196.1597 
L 115.392684 196.089834 
L 114.99939 195.934799 
L 114.744516 195.832676 
L 114.389521 195.688259 
L 114.039115 195.543202 
L 113.853533 195.465363 
L 113.376418 195.261996 
L 113.158021 195.167335 
L 112.752108 194.988754 
L 112.474818 194.864771 
L 112.117989 194.702829 
L 112.040344 194.667231 
L 111.551587 194.440182 
L 111.398028 194.367783 
L 110.876294 194.117958 
L 110.747844 194.055535 
L 110.217483 193.793921 
L 109.892185 193.630347 
L 109.865332 193.616738 
L 109.247833 193.299256 
L 109.105437 193.224804 
L 108.702262 193.011457 
L 108.381961 192.839257 
L 108.096442 192.683717 
L 107.702205 192.465758 
L 107.50833 192.357201 
L 107.245328 192.208481 
L 106.892308 192.006198 
L 106.892308 200.353846 
L 106.899986 201.33198 
L 106.907664 201.737094 
L 106.915342 202.04792 
L 106.92302 202.309934 
L 106.930698 202.540751 
L 106.938376 202.749407 
L 106.946054 202.941268 
L 106.953732 203.119831 
L 106.96141 203.287525 
L 106.969088 203.44612 
L 106.976766 203.596951 
L 106.984445 203.741054 
L 106.999801 204.012223 
L 107.015157 204.264574 
L 107.030513 204.501544 
L 107.045869 204.725634 
L 107.061225 204.938733 
L 107.076581 205.142309 
L 107.091937 205.337528 
L 107.107294 205.525339 
L 107.138006 205.881722 
L 107.168775 206.21692 
L 107.199544 206.533812 
L 107.230313 206.835083 
L 107.261082 207.122818 
L 107.291851 207.398677 
L 107.32262 207.664004 
L 107.353389 207.919907 
L 107.384158 208.167313 
L 107.430383 208.524705 
L 107.476607 208.866856 
L 107.522832 209.195535 
L 107.569056 209.512193 
L 107.615281 209.818036 
L 107.661505 210.114082 
L 107.70773 210.401196 
L 107.753954 210.680123 
L 107.814288 211.032932 
L 107.874622 211.374122 
L 107.934955 211.70474 
L 107.995289 212.025685 
L 108.055622 212.337735 
L 108.115956 212.641566 
L 108.176289 212.937775 
L 108.236623 213.226887 
L 108.355756 213.778694 
L 108.47489 214.307681 
L 108.562092 214.681883 
L 108.649295 215.046041 
L 108.736497 215.400883 
L 108.823699 215.747054 
L 108.977304 216.337446 
L 109.130909 216.905368 
L 109.230553 217.262837 
L 109.330197 217.612329 
L 109.429841 217.954319 
L 109.529485 218.289236 
L 109.682794 218.791597 
L 109.864115 219.367033 
L 110.045437 219.923878 
L 110.252965 220.540367 
L 110.460494 221.136506 
L 110.629159 221.607202 
L 110.831453 222.156626 
L 111.017223 222.647634 
L 111.202993 223.126543 
L 111.457263 223.763776 
L 111.651487 224.237253 
L 111.845711 224.699975 
L 112.034375 225.139726 
L 112.22304 225.570398 
L 112.413168 225.995693 
L 112.69121 226.602755 
L 112.969252 227.193211 
L 113.170246 227.610316 
L 113.499546 228.277097 
L 113.703196 228.679688 
L 113.974192 229.204472 
L 114.193058 229.619609 
L 114.411925 230.027326 
L 114.797559 230.728554 
L 115.092078 231.250146 
L 115.435578 231.84409 
L 115.556095 232.048956 
L 116.000302 232.789022 
L 116.419607 233.466965 
L 116.627045 233.795332 
L 116.764385 234.01027 
L 117.065566 234.474944 
L 117.366746 234.930751 
L 117.552113 235.207027 
L 117.986781 235.842644 
L 118.246624 236.214717 
L 118.554637 236.648415 
L 118.931158 237.168137 
L 118.956245 237.202368 
L 119.33706 237.71607 
L 119.80599 238.333844 
L 119.94544 238.514518 
L 120.450689 239.157883 
L 120.564103 239.299938 
L 120.910277 239.728345 
L 121.312314 240.216335 
L 121.6327 240.598106 
L 121.880337 240.888992 
L 122.158038 241.210942 
L 122.641458 241.76098 
L 122.806436 241.945741 
L 123.212564 242.394353 
L 123.441473 242.643393 
L 123.941342 243.177933 
L 124.201636 243.45136 
L 124.304823 243.558841 
L 124.800178 244.067738 
L 124.932116 244.201342 
L 125.492169 244.759634 
L 125.790344 245.051165 
L 126.041514 245.293735 
L 126.213816 245.458574 
L 126.514744 245.743464 
L 126.834571 246.042127 
L 127.088831 246.276585 
L 127.610825 246.749849 
L 127.89154 246.999957 
L 128.253533 247.318039 
L 128.532042 247.559415 
L 128.714445 247.715944 
L 129.132655 248.070262 
L 129.31729 248.224693 
L 129.643414 248.494525 
L 130.159653 248.914116 
L 130.245949 248.983368 
L 130.546629 249.222706 
L 131.006944 249.583299 
L 131.215335 249.744268 
L 131.711168 250.121667 
L 131.967009 250.313359 
L 132.222857 250.503018 
L 132.554497 250.745866 
L 132.888514 250.987082 
L 133.198326 251.207833 
L 133.500319 251.420286 
L 133.908681 251.703348 
L 134.200255 251.902526 
L 134.330582 251.990773 
L 134.627617 252.190116 
L 134.934679 252.393603 
L 135.365232 252.674559 
L 135.70195 252.890778 
L 136.055997 253.114851 
L 136.228159 253.22261 
L 136.560282 253.428297 
L 137.013052 253.704093 
L 137.181644 253.805445 
L 137.430351 253.95364 
L 137.995785 254.284779 
L 138.337097 254.480824 
L 138.594915 254.627019 
L 138.976985 254.840706 
L 139.224478 254.977253 
L 139.562997 255.161661 
L 139.774793 255.275661 
L 140.004693 255.398215 
L 140.352402 255.581236 
L 140.715631 255.769451 
L 140.973577 255.901282 
L 141.334622 256.083275 
L 141.523007 256.177072 
L 142.02917 256.42518 
L 142.16139 256.489059 
L 142.52654 256.663482 
L 142.943974 256.859329 
L 143.238056 256.99505 
L 143.406177 257.071808 
L 143.724217 257.215371 
L 144.294546 257.467478 
L 144.32703 257.481632 
L 144.663677 257.627028 
L 145.246477 257.87321 
L 145.393005 257.934012 
L 145.814158 258.106343 
L 146.118477 258.228641 
L 146.495792 258.377699 
L 146.628896 258.429605 
L 147.071479 258.599679 
L 147.355101 258.706643 
L 147.72453 258.843612 
L 147.773602 258.861606 
L 148.364225 259.074533 
L 148.378632 259.079642 
L 148.849466 259.244459 
L 149.21374 259.369081 
L 149.518574 259.471441 
L 149.896696 259.595985 
L 150.043389 259.643582 
L 150.269079 259.716029 
L 150.570795 259.811404 
L 151.155559 259.991474 
L 151.32678 260.043012 
L 151.707035 260.155558 
L 152.047849 260.254199 
L 152.381603 260.348763 
L 152.676141 260.430552 
L 152.844519 260.47661 
L 153.34072 260.6094 
L 153.465241 260.642036 
L 153.913755 260.757317 
L 154.195949 260.828031 
L 154.623826 260.932586 
L 154.784653 260.971057 
L 155.055975 261.034939 
L 155.476331 261.131387 
L 155.861214 261.217015 
L 156.010584 261.249559 
L 156.322396 261.316259 
L 156.823624 261.419989 
L 156.945075 261.444478 
L 157.323609 261.519195 
L 157.528865 261.558692 
L 157.781924 261.606406 
L 158.259387 261.693487 
L 158.679266 261.766896 
L 158.819995 261.790838 
L 159.330399 261.874895 
L 159.403461 261.886572 
L 159.808832 261.949743 
L 160.04876 261.985845 
L 160.547945 262.057902 
L 160.67926 262.076172 
L 160.986204 262.117768 
L 161.468175 262.179952 
L 161.670677 262.20494 
L 161.986528 262.242572 
L 162.244838 262.272133 
L 162.577832 262.308631 
L 162.795702 262.331532 
L 163.192561 262.371257 
L 163.441647 262.39488 
L 164.02025 262.445864 
L 164.198943 262.460512 
L 164.392101 262.475764 
L 164.933813 262.515315 
L 165.074085 262.524783 
L 165.592477 262.557016 
L 165.844101 262.571098 
L 166.165244 262.587589 
L 166.278205 262.592995 
L 166.604042 262.607437 
L 167.063111 262.624885 
L 167.438337 262.636629 
L 167.58377 262.640573 
L 168.007817 262.650132 
L 168.206073 262.65361 
L 168.527089 262.657905 
L 168.79059 262.660193 
L 169.2 262.661538 
z
" clip-path="url(#pc35c49cca4)" style="fill: #808080; opacity: 0.5"/>
   </g>
   <g id="patch_6">
    <path d="M 200.353846 146.393802 
L 200.265407 146.342838 
L 200.021385 146.203216 
L 199.90386 146.136492 
L 199.777148 146.064929 
L 199.497873 145.908576 
L 199.413333 145.861617 
L 199.219471 145.75458 
L 199.177778 145.731677 
L 198.906459 145.583646 
L 198.783551 145.517161 
L 198.679147 145.460965 
L 198.423391 145.324382 
L 198.256496 145.236076 
L 198.235912 145.22523 
L 197.959006 145.080271 
L 197.80327 144.99952 
L 197.760911 144.977652 
L 197.513454 144.850722 
L 197.454004 144.820435 
L 197.2589 144.721601 
L 197.109179 144.64634 
L 196.915399 144.549678 
L 196.794693 144.489891 
L 196.524123 144.357053 
L 196.456002 144.323864 
L 196.272446 144.234944 
L 196.060902 144.133383 
L 195.983397 144.096418 
L 195.886478 144.050379 
L 195.635872 143.93228 
L 195.451228 143.846134 
L 195.324044 143.787223 
L 195.156374 143.71009 
L 195.105532 143.68682 
L 194.863544 143.576817 
L 194.67966 143.494059 
L 194.51035 143.418491 
L 194.376662 143.359248 
L 194.220446 143.290497 
L 194.102629 143.238983 
L 193.998752 143.193804 
L 193.842886 143.126434 
L 193.556394 143.003915 
L 193.41898 142.94575 
L 193.295502 142.893814 
L 193.202034 142.854708 
L 192.957069 142.753063 
L 192.789529 142.684247 
L 192.62114 142.615655 
L 192.550763 142.587157 
L 192.406664 142.529117 
L 192.240279 142.46262 
L 192.070571 142.395365 
L 191.942526 142.345002 
L 191.764594 142.275558 
L 191.575311 142.202372 
L 191.4144 142.140712 
L 191.302994 142.098321 
L 191.146288 142.039106 
L 191.035813 141.997649 
L 190.878079 141.93887 
L 190.663091 141.859537 
L 190.52127 141.807694 
L 190.326655 141.737185 
L 190.242553 141.706941 
L 190.027821 141.630338 
L 189.883041 141.579189 
L 189.764817 141.537719 
L 189.493587 141.443585 
L 189.435585 141.423636 
L 189.194471 141.341393 
L 189.029267 141.285676 
L 188.921528 141.249617 
L 188.696417 141.17498 
L 188.684787 141.17115 
L 188.466826 141.099834 
L 188.312687 141.049936 
L 188.087368 140.977792 
L 187.982519 140.944541 
L 187.78815 140.88344 
L 187.626422 140.833131 
L 187.471695 140.785451 
L 187.408725 140.766172 
L 187.253431 140.718939 
L 187.055546 140.659391 
L 186.853715 140.599391 
L 186.728728 140.562608 
L 186.596599 140.52403 
L 186.384783 140.462847 
L 186.19175 140.407796 
L 186.14423 140.394347 
L 186.020096 140.359406 
L 185.801946 140.298672 
L 185.633128 140.252259 
L 185.463148 140.206041 
L 185.321243 140.167851 
L 185.180569 140.130346 
L 184.959224 140.072046 
L 184.858725 140.045863 
L 184.629756 139.986875 
L 184.518385 139.958519 
L 184.412 139.931635 
L 184.168965 139.870967 
L 184.123342 139.859694 
L 183.838572 139.790155 
L 183.76199 139.771696 
L 183.679773 139.751992 
L 183.373729 139.679684 
L 183.360979 139.676707 
L 183.150676 139.62801 
L 182.935132 139.578895 
L 182.769375 139.541672 
L 182.711241 139.528729 
L 182.439562 139.469016 
L 182.362615 139.452335 
L 182.237883 139.42551 
L 182.036702 139.382807 
L 181.828804 139.339407 
L 181.688614 139.310558 
L 181.514229 139.27514 
L 181.438615 139.259945 
L 181.294243 139.231201 
L 181.060036 139.185324 
L 180.903633 139.155206 
L 180.828128 139.140815 
L 180.592282 139.096484 
L 180.42614 139.065819 
L 180.259488 139.035527 
L 180.151949 139.016229 
L 180.016108 138.992129 
L 179.91275 138.974 
L 179.728338 138.9421 
L 179.523663 138.907361 
L 179.314114 138.872522 
L 179.200686 138.85397 
L 179.123093 138.841402 
L 178.904356 138.806515 
L 178.7356 138.780144 
L 178.569775 138.754692 
L 178.427775 138.73326 
L 178.24419 138.706047 
L 178.061402 138.679507 
L 178.029482 138.674929 
L 177.798417 138.642293 
L 177.670126 138.624554 
L 177.53675 138.6064 
L 177.358652 138.582616 
L 177.181133 138.559429 
L 176.974058 138.533036 
L 176.944505 138.529327 
L 176.750735 138.505363 
L 176.53617 138.479545 
L 176.372187 138.460323 
L 176.242192 138.445397 
L 176.035509 138.422236 
L 176.007437 138.419144 
L 175.822019 138.399045 
L 175.654209 138.381338 
L 175.416885 138.357081 
L 175.243994 138.339988 
L 175.198746 138.335594 
L 175.000972 138.316783 
L 174.843773 138.302284 
L 174.708362 138.290117 
L 174.58565 138.279348 
L 174.370567 138.261063 
L 174.207745 138.247719 
L 174.023235 138.233118 
L 173.856677 138.22041 
L 173.709114 138.209527 
L 173.600992 138.201776 
L 173.455034 138.191613 
L 173.219303 138.175926 
L 173.129244 138.17017 
L 173.001834 138.16225 
L 172.835207 138.152288 
L 172.720174 138.145672 
L 172.500087 138.133609 
L 172.280861 138.122368 
L 172.103446 138.113839 
L 172.065018 138.112058 
L 171.85517 138.102753 
L 171.656847 138.09461 
L 171.613161 138.092902 
L 171.326123 138.082439 
L 171.262856 138.080311 
L 171.025778 138.07291 
L 170.866006 138.068431 
L 170.758955 138.06566 
L 170.638586 138.062763 
L 170.507794 138.05988 
L 170.25537 138.055092 
L 170.136205 138.053188 
L 169.998489 138.05127 
L 169.767529 138.048739 
L 169.614746 138.047534 
L 169.478277 138.046775 
L 169.295262 138.046227 
L 169.2 138.046154 
L 169.2 262.661538 
L 169.322389 262.661418 
L 169.475012 262.660932 
L 169.646788 262.659937 
L 169.806499 262.658587 
L 170.057145 262.655642 
L 170.10883 262.65491 
L 170.223831 262.653126 
L 170.424865 262.649498 
L 170.654081 262.644569 
L 170.757382 262.642072 
L 170.85832 262.639466 
L 171.016608 262.635051 
L 171.27201 262.627077 
L 171.383 262.623285 
L 171.614687 262.614731 
L 171.77513 262.608302 
L 171.92023 262.60213 
L 172.028355 262.597311 
L 172.100224 262.594004 
L 172.293356 262.584704 
L 172.545976 262.571633 
L 172.689824 262.56373 
L 172.817433 262.55644 
L 172.959895 262.547991 
L 173.181036 262.534228 
L 173.310226 262.525822 
L 173.449041 262.516489 
L 173.653867 262.502149 
L 173.696021 262.499114 
L 173.926777 262.481989 
L 174.008884 262.475687 
L 174.237325 262.457581 
L 174.367034 262.446924 
L 174.545804 262.431788 
L 174.69916 262.418391 
L 174.819082 262.407649 
L 175.061752 262.385196 
L 175.107509 262.380855 
L 175.277062 262.364473 
L 175.419045 262.350394 
L 175.592938 262.332704 
L 175.801953 262.310789 
L 175.952544 262.294557 
L 176.042512 262.284683 
L 176.250933 262.2613 
L 176.375993 262.246928 
L 176.563367 262.224916 
L 176.691886 262.209486 
L 176.847551 262.190433 
L 177.058949 262.163922 
L 177.189245 262.147215 
L 177.380174 262.12223 
L 177.475989 262.109465 
L 177.665526 262.083769 
L 177.84094 262.059459 
L 177.971031 262.041102 
L 178.066642 262.027432 
L 178.313398 261.991452 
L 178.462563 261.969213 
L 178.662778 261.938782 
L 178.735502 261.927564 
L 178.875806 261.905672 
L 179.007509 261.884824 
L 179.168554 261.858939 
L 179.398557 261.821219 
L 179.533521 261.798674 
L 179.630521 261.782282 
L 179.768204 261.758745 
L 179.978238 261.722227 
L 180.178961 261.686635 
L 180.269254 261.670403 
L 180.425146 261.642056 
L 180.685424 261.593813 
L 180.727758 261.585858 
L 180.99946 261.534082 
L 181.100739 261.514462 
L 181.325359 261.470327 
L 181.48183 261.439075 
L 181.507735 261.433861 
L 181.763278 261.381812 
L 181.952112 261.342633 
L 182.026567 261.327018 
L 182.261506 261.277122 
L 182.387867 261.249894 
L 182.43314 261.240072 
L 182.657763 261.190818 
L 182.862469 261.145173 
L 183.034047 261.106358 
L 183.14194 261.081689 
L 183.333499 261.037392 
L 183.51818 260.994082 
L 183.642982 260.964479 
L 183.682292 260.955098 
L 183.889817 260.905129 
L 184.036285 260.869408 
L 184.293345 260.805806 
L 184.355405 260.790277 
L 184.618734 260.723633 
L 184.76518 260.686041 
L 184.846073 260.665113 
L 184.936361 260.641618 
L 185.117306 260.594098 
L 185.377011 260.524876 
L 185.472088 260.499234 
L 185.603657 260.463484 
L 185.832035 260.400694 
L 185.955672 260.366311 
L 186.05816 260.337602 
L 186.224457 260.290616 
L 186.408651 260.237991 
L 186.507449 260.209512 
L 186.771155 260.13263 
L 186.916104 260.089834 
L 187.049026 260.050251 
L 187.191327 260.007519 
L 187.374058 259.952102 
L 187.587507 259.886594 
L 187.647211 259.868121 
L 187.887328 259.793162 
L 187.918383 259.78339 
L 188.166519 259.704665 
L 188.248637 259.67836 
L 188.406253 259.62752 
L 188.604094 259.563049 
L 188.727437 259.522484 
L 188.891363 259.468132 
L 189.029378 259.421979 
L 189.251631 259.346902 
L 189.395166 259.297919 
L 189.620304 259.220303 
L 189.715098 259.187334 
L 189.920784 259.115208 
L 190.02821 259.077216 
L 190.138687 259.037915 
L 190.403317 258.94282 
L 190.565813 258.883758 
L 190.680718 258.841685 
L 190.833777 258.785244 
L 191.003659 258.722065 
L 191.191337 258.651613 
L 191.341162 258.594875 
L 191.434186 258.559426 
L 191.622359 258.487196 
L 191.684442 258.463212 
L 191.951881 258.359022 
L 192.128425 258.289464 
L 192.274085 258.231606 
L 192.410138 258.177181 
L 192.476226 258.150609 
L 192.610147 258.096495 
L 192.910781 257.973698 
L 192.93797 257.962503 
L 193.134514 257.881123 
L 193.266237 257.826142 
L 193.438276 257.753798 
L 193.676274 257.652717 
L 193.785708 257.605846 
L 193.929964 257.543683 
L 194.097842 257.470796 
L 194.220354 257.417236 
L 194.365977 257.353163 
L 194.546269 257.273221 
L 194.733924 257.189286 
L 194.856539 257.134041 
L 195.056343 257.043334 
L 195.158706 256.996534 
L 195.32802 256.918633 
L 195.525044 256.827208 
L 195.638016 256.774408 
L 195.810052 256.693474 
L 195.896789 256.652425 
L 196.167051 256.52347 
L 196.26884 256.474488 
L 196.431993 256.395501 
L 196.608468 256.309404 
L 196.76243 256.233726 
L 196.95721 256.137229 
L 197.036948 256.097481 
L 197.160128 256.035798 
L 197.381729 255.92397 
L 197.593549 255.81604 
L 197.620625 255.80217 
L 197.904925 255.655526 
L 198.004773 255.603584 
L 198.148554 255.528385 
L 198.249153 255.475487 
L 198.53495 255.323922 
L 198.612863 255.282272 
L 198.821371 255.170111 
L 198.878087 255.139425 
L 199.076348 255.03156 
L 199.187115 254.97089 
L 199.481721 254.808101 
L 199.5775 254.754729 
L 199.676177 254.69951 
L 199.832133 254.611758 
L 200.111655 254.452997 
L 200.134633 254.439861 
L 200.353846 254.313891 
z
" clip-path="url(#pc35c49cca4)" style="fill: #808080; opacity: 0.5"/>
   </g>
   <g id="patch_7">
    <path d="M 231.507692 200.353846 
L 231.501987 199.510642 
L 231.496281 199.161402 
L 231.490575 198.89344 
L 231.484869 198.667553 
L 231.479163 198.468556 
L 231.473458 198.288662 
L 231.467752 198.123243 
L 231.462046 197.969286 
L 231.45634 197.824696 
L 231.450635 197.687949 
L 231.444929 197.557894 
L 231.439223 197.433636 
L 231.433517 197.314465 
L 231.427812 197.199803 
L 231.422106 197.089176 
L 231.4164 196.982187 
L 231.404989 196.777825 
L 231.393577 196.584562 
L 231.382165 196.400769 
L 231.370754 196.225181 
L 231.359342 196.056792 
L 231.347931 195.894787 
L 231.336519 195.738493 
L 231.325108 195.587348 
L 231.308741 195.378624 
L 231.292374 195.178363 
L 231.276007 194.985617 
L 231.25964 194.799604 
L 231.237576 194.558353 
L 231.215511 194.326831 
L 231.193447 194.103958 
L 231.171382 193.888839 
L 231.149318 193.680724 
L 231.127253 193.478976 
L 231.105189 193.283052 
L 231.083124 193.092479 
L 231.06336 192.92598 
L 231.043596 192.763184 
L 231.023832 192.603857 
L 231.004068 192.447789 
L 230.964539 192.144693 
L 230.925011 191.852581 
L 230.890767 191.607544 
L 230.856523 191.369319 
L 230.822278 191.137376 
L 230.788034 190.911253 
L 230.75379 190.690541 
L 230.719546 190.474877 
L 230.685301 190.263939 
L 230.651057 190.057434 
L 230.59959 189.754843 
L 230.548123 189.460897 
L 230.506551 189.229308 
L 230.464979 189.002594 
L 230.423406 188.78047 
L 230.381834 188.562677 
L 230.326958 188.281419 
L 230.288096 188.086288 
L 230.249235 187.894333 
L 230.171511 187.519387 
L 230.098151 187.175691 
L 230.02479 186.841133 
L 229.95143 186.515049 
L 229.878069 186.196853 
L 229.861763 186.127143 
L 229.76967 185.740032 
L 229.677578 185.36348 
L 229.612168 185.10201 
L 229.546758 184.845224 
L 229.441033 184.439497 
L 229.335308 184.044545 
L 229.254316 183.748797 
L 229.173325 183.458614 
L 229.076349 183.118088 
L 228.968305 182.747079 
L 228.860261 182.384378 
L 228.758694 182.050555 
L 228.657128 181.723267 
L 228.55263 181.392997 
L 228.428429 181.008519 
L 228.304228 180.632317 
L 228.152941 180.184582 
L 228.061172 179.918314 
L 227.981784 179.691069 
L 227.838644 179.288284 
L 227.695504 178.894012 
L 227.56051 178.529561 
L 227.484147 178.326437 
L 227.354012 177.985132 
L 227.245876 177.706004 
L 227.13774 177.430784 
L 227.031469 177.163983 
L 226.89139 176.81766 
L 226.751311 176.477181 
L 226.641746 176.214785 
L 226.547267 175.991181 
L 226.419208 175.691918 
L 226.29115 175.3969 
L 226.164519 175.109202 
L 225.976677 174.689524 
L 225.825437 174.357531 
L 225.711419 174.110599 
L 225.506108 173.672941 
L 225.354 173.354276 
L 225.261049 173.161802 
L 225.111088 172.854779 
L 224.930194 172.489999 
L 224.733529 172.100073 
L 224.647401 171.931421 
L 224.463196 171.574901 
L 224.354971 171.368027 
L 224.073632 170.838884 
L 223.918367 170.552021 
L 223.789993 170.317515 
L 223.645435 170.056269 
L 223.491799 169.781814 
L 223.38863 169.59932 
L 223.238923 169.337022 
L 223.069659 169.04397 
L 222.879812 168.719588 
L 222.672444 168.370315 
L 222.592394 168.23686 
L 222.500806 168.085091 
L 222.319994 167.7883 
L 222.063202 167.373089 
L 221.981082 167.241825 
L 221.856912 167.044717 
L 221.718938 166.827593 
L 221.452894 166.414435 
L 221.355399 166.264802 
L 221.212388 166.046996 
L 220.953588 165.657813 
L 220.928512 165.62044 
L 220.71867 165.309943 
L 220.608378 165.148347 
L 220.424762 164.881713 
L 220.229028 164.600709 
L 220.086958 164.398791 
L 219.864672 164.086236 
L 219.798104 163.993423 
L 219.635672 163.768446 
L 219.441308 163.501988 
L 219.237977 163.226372 
L 219.064114 162.99319 
L 218.948366 162.839201 
L 218.834876 162.689173 
L 218.69687 162.507996 
L 218.476648 162.221702 
L 218.321688 162.022289 
L 218.257224 161.939822 
L 217.987167 161.597416 
L 217.913153 161.504429 
L 217.710206 161.251309 
L 217.565262 161.072172 
L 217.412485 160.88481 
L 217.229477 160.662313 
L 217.058249 160.45602 
L 216.989262 160.373413 
L 216.837205 160.192357 
L 216.638532 159.957879 
L 216.454311 159.742534 
L 216.349521 159.620921 
L 216.147222 159.387923 
L 216.064436 159.293243 
L 215.810515 159.005225 
L 215.737676 158.923262 
L 215.56555 158.730724 
L 215.325762 158.465153 
L 215.168218 158.292326 
L 215.114248 158.23342 
L 214.86551 157.963874 
L 214.687042 157.772424 
L 214.524817 157.599788 
L 214.433099 157.502764 
L 214.237058 157.296769 
L 214.174368 157.231292 
L 214.000898 157.051097 
L 213.863362 156.909254 
L 213.582572 156.622441 
L 213.49145 156.530155 
L 213.397172 156.435074 
L 213.259686 156.297149 
L 213.108591 156.14656 
L 212.879575 155.920263 
L 212.775772 155.81846 
L 212.595938 155.643209 
L 212.436949 155.489442 
L 212.288023 155.346393 
L 212.08062 155.148748 
L 211.878087 154.957487 
L 211.787252 154.872262 
L 211.632181 154.727554 
L 211.452287 154.560913 
L 211.340359 154.457891 
L 211.108028 154.245651 
L 211.044617 154.188096 
L 210.853489 154.015575 
L 210.717345 153.893556 
L 210.470845 153.674451 
L 210.418322 153.628066 
L 210.140559 153.384503 
L 210.044418 153.300876 
L 209.905059 153.180266 
L 209.749647 153.04661 
L 209.609454 152.926801 
L 209.489518 152.824873 
L 209.306014 152.669927 
L 209.050532 152.45621 
L 208.952165 152.374539 
L 208.825557 152.269922 
L 208.661733 152.135383 
L 208.510102 152.011686 
L 208.291326 151.834605 
L 208.133407 151.707795 
L 208.057939 151.64749 
L 207.867223 151.495947 
L 207.740492 151.395915 
L 207.479088 151.19126 
L 207.47521 151.18824 
L 207.240575 151.006473 
L 207.046417 150.85741 
L 206.904656 150.749336 
L 206.818039 150.683617 
L 206.688242 150.585581 
L 206.43541 150.396136 
L 206.301526 150.296626 
L 206.098866 150.147052 
L 206.06644 150.123237 
L 205.764631 149.903115 
L 205.627074 149.803704 
L 205.537984 149.739624 
L 205.388439 149.632594 
L 205.252132 149.535618 
L 205.004595 149.36091 
L 204.932925 149.310662 
L 204.697892 149.146931 
L 204.506937 149.015082 
L 204.46315 148.984996 
L 204.344633 148.903838 
L 204.132057 148.759273 
L 204.027019 148.688313 
L 203.729327 148.488886 
L 203.674216 148.452238 
L 203.40726 148.275906 
L 203.250216 148.17309 
L 203.120343 148.088572 
L 203.061186 148.050227 
L 202.806007 147.885905 
L 202.754991 147.853264 
L 202.599716 147.754345 
L 202.361268 147.603692 
L 202.197571 147.501137 
L 202.057706 147.414072 
L 201.996887 147.376372 
L 201.69832 147.192698 
L 201.589437 147.126288 
L 201.372737 146.995027 
L 201.363239 146.989302 
L 201.126293 146.847208 
L 200.911775 146.719791 
L 200.880163 146.701113 
L 200.630191 146.554296 
L 200.451094 146.450065 
L 200.353846 146.393802 
L 200.353846 254.313891 
L 200.548785 254.200872 
L 200.670405 254.129883 
L 200.796261 254.056032 
L 201.010447 253.929438 
L 201.062137 253.898713 
L 201.366924 253.716169 
L 201.521032 253.622969 
L 201.663707 253.536138 
L 201.790977 253.458241 
L 201.868929 253.410321 
L 202.082486 253.278232 
L 202.293442 253.146579 
L 202.388395 253.086938 
L 202.57574 252.968563 
L 202.777433 252.840078 
L 202.886928 252.769869 
L 203.015464 252.687037 
L 203.197572 252.568917 
L 203.393707 252.440687 
L 203.48404 252.381272 
L 203.650082 252.271477 
L 203.830266 252.151464 
L 204.022885 252.022165 
L 204.130742 251.949309 
L 204.244477 251.872126 
L 204.37845 251.780738 
L 204.526879 251.67889 
L 204.705524 251.55547 
L 204.846491 251.457429 
L 204.979466 251.364417 
L 205.240589 251.180261 
L 205.328631 251.117716 
L 205.57851 250.938948 
L 205.737644 250.824126 
L 205.876406 250.723379 
L 205.994854 250.636917 
L 206.087271 250.56916 
L 206.328824 250.390822 
L 206.438629 250.309156 
L 206.564941 250.214749 
L 206.782972 250.050614 
L 206.862535 249.990344 
L 207.112463 249.799712 
L 207.182754 249.745737 
L 207.448125 249.540526 
L 207.631803 249.397144 
L 207.757643 249.298271 
L 207.797666 249.266715 
L 207.989757 249.11452 
L 208.214051 248.935245 
L 208.374161 248.806231 
L 208.466011 248.731826 
L 208.714551 248.529035 
L 208.828433 248.4354 
L 208.965007 248.32251 
L 209.052034 248.250233 
L 209.227226 248.103922 
L 209.392144 247.96519 
L 209.528557 247.849699 
L 209.682687 247.718396 
L 209.872337 247.555642 
L 210.122007 247.339353 
L 210.223841 247.250466 
L 210.43636 247.063707 
L 210.491276 247.015169 
L 210.678959 246.84841 
L 210.864059 246.682614 
L 210.953487 246.602034 
L 211.185733 246.391296 
L 211.363365 246.228667 
L 211.418391 246.178032 
L 211.579069 246.029474 
L 211.843792 245.782422 
L 211.908748 245.721361 
L 212.160537 245.483003 
L 212.2252 245.421359 
L 212.41571 245.238709 
L 212.513756 245.144102 
L 212.7036 244.959735 
L 212.827759 244.838306 
L 213.047474 244.621752 
L 213.136797 244.533099 
L 213.359 244.310998 
L 213.512598 244.156154 
L 213.595309 244.072321 
L 213.8166 243.846461 
L 213.921368 243.738726 
L 214.145312 243.506685 
L 214.288568 243.356981 
L 214.385108 243.255531 
L 214.643716 242.981504 
L 214.817684 242.795282 
L 214.862485 242.747077 
L 215.013136 242.584228 
L 215.28358 242.288941 
L 215.353091 242.212426 
L 215.601541 241.936842 
L 215.733946 241.788619 
L 215.850897 241.6569 
L 216.023242 241.461419 
L 216.184491 241.277019 
L 216.389872 241.040017 
L 216.53766 240.867973 
L 216.649943 240.73641 
L 216.867954 240.478834 
L 216.953596 240.376872 
L 217.112965 240.185948 
L 217.242002 240.030219 
L 217.461238 239.763254 
L 217.587632 239.607962 
L 217.806056 239.337174 
L 217.858007 239.272311 
L 218.084562 238.987357 
L 218.136033 238.922139 
L 218.409168 238.573034 
L 218.47416 238.489206 
L 218.719309 238.170331 
L 218.903091 237.928456 
L 218.994159 237.807688 
L 219.205213 237.525437 
L 219.367969 237.305482 
L 219.470639 237.165683 
L 219.595399 236.994702 
L 219.810815 236.696575 
L 219.992319 236.442471 
L 220.138323 236.236094 
L 220.279501 236.034838 
L 220.332491 235.958858 
L 220.614293 235.550707 
L 220.703496 235.420047 
L 220.934852 235.077809 
L 221.072793 234.871405 
L 221.194294 234.688114 
L 221.32567 234.488331 
L 221.462733 234.278104 
L 221.702018 233.90659 
L 221.765678 233.806769 
L 222.033189 233.382662 
L 222.173654 233.156903 
L 222.251744 233.030458 
L 222.465439 232.680949 
L 222.643759 232.385287 
L 222.778297 232.159736 
L 222.834981 232.064055 
L 222.999981 231.783299 
L 223.232447 231.381949 
L 223.384091 231.116369 
L 223.45551 230.990232 
L 223.66509 230.616076 
L 223.824165 230.327987 
L 224.071462 229.872844 
L 224.079311 229.858249 
L 224.308151 229.428582 
L 224.524092 229.015552 
L 224.626372 228.817257 
L 224.741682 228.591589 
L 224.924251 228.229576 
L 225.036719 228.003608 
L 225.18378 227.704621 
L 225.375722 227.308193 
L 225.53468 226.974371 
L 225.710828 226.598367 
L 225.830347 226.339465 
L 225.949866 226.077401 
L 225.966262 226.041198 
L 226.112105 225.716433 
L 226.257948 225.386606 
L 226.294874 225.30227 
L 226.493174 224.843451 
L 226.692782 224.371102 
L 226.875975 223.927781 
L 226.977462 223.677941 
L 227.122449 223.31552 
L 227.229526 223.043549 
L 227.336603 222.767768 
L 227.460084 222.444819 
L 227.533392 222.250511 
L 227.671737 221.878355 
L 227.810083 221.498745 
L 227.947938 221.112658 
L 228.093861 220.694978 
L 228.196155 220.396358 
L 228.311391 220.053895 
L 228.39202 219.810293 
L 228.472648 219.563262 
L 228.597283 219.174347 
L 228.721918 218.77638 
L 228.841355 218.385964 
L 228.919596 218.125126 
L 228.997837 217.860051 
L 229.113287 217.460761 
L 229.228738 217.051127 
L 229.309441 216.758224 
L 229.390144 216.459592 
L 229.465952 216.173565 
L 229.541761 215.8819 
L 229.622922 215.563022 
L 229.704083 215.236871 
L 229.795802 214.858923 
L 229.868158 214.55325 
L 229.940514 214.240474 
L 230.002696 213.96563 
L 230.064878 213.684831 
L 230.118857 213.435946 
L 230.172837 213.182006 
L 230.226817 212.922704 
L 230.280796 212.657702 
L 230.321477 212.453993 
L 230.362158 212.246655 
L 230.406106 212.01837 
L 230.450054 211.785358 
L 230.494001 211.547323 
L 230.537949 211.30394 
L 230.57844 211.074647 
L 230.618932 210.840186 
L 230.659423 210.600201 
L 230.699915 210.354295 
L 230.73293 210.149103 
L 230.765945 209.939405 
L 230.79896 209.7249 
L 230.831975 209.505249 
L 230.861473 209.304339 
L 230.89097 209.098715 
L 230.920468 208.888036 
L 230.949965 208.671918 
L 230.979463 208.449926 
L 231.00896 208.221562 
L 231.038458 207.986254 
L 231.067955 207.74334 
L 231.086438 207.586919 
L 231.10492 207.426992 
L 231.123402 207.263315 
L 231.141885 207.095614 
L 231.160367 206.923582 
L 231.178849 206.746869 
L 231.197332 206.565076 
L 231.215814 206.377742 
L 231.230277 206.226942 
L 231.24474 206.07213 
L 231.259203 205.91297 
L 231.273666 205.749079 
L 231.288292 205.578065 
L 231.302919 205.401218 
L 231.317546 205.217901 
L 231.332172 205.027354 
L 231.346799 204.828652 
L 231.361426 204.620657 
L 231.376052 204.401936 
L 231.383366 204.287998 
L 231.390679 204.170646 
L 231.397992 204.049555 
L 231.405306 203.924345 
L 231.412619 203.794566 
L 231.419932 203.65968 
L 231.427246 203.519034 
L 231.434559 203.371823 
L 231.441872 203.217035 
L 231.449186 203.053365 
L 231.456499 202.879089 
L 231.463812 202.691836 
L 231.471126 202.488191 
L 231.478439 202.262919 
L 231.485752 202.0072 
L 231.493066 201.703843 
L 231.500379 201.308466 
z
" clip-path="url(#pc35c49cca4)" style="fill: #808080; opacity: 0.5"/>
   </g>
   <g id="matplotlib.axis_1"/>
   <g id="matplotlib.axis_2"/>
   <g id="line2d_1">
    <path d="M 138.046154 138.046154 
L 138.174407 142.04189 
L 138.515425 145.678862 
L 139.0483 149.176229 
L 139.825206 152.828988 
L 140.760503 156.236315 
L 141.858102 159.505336 
L 143.280485 163.043752 
L 144.955528 166.564128 
L 146.828904 169.941751 
L 148.738156 172.947 
L 150.998899 176.0769 
L 153.488561 179.105788 
L 155.989181 181.795726 
L 158.69072 184.37576 
L 161.522746 186.773909 
L 164.442798 188.964177 
L 167.600299 191.050434 
L 169.2 192.006198 
L 169.2 192.006198 
" clip-path="url(#pc35c49cca4)" style="fill: none; stroke: #ff0000; stroke-linecap: square"/>
   </g>
   <g id="line2d_2">
    <path d="M 106.892308 200.353846 
L 107.030513 204.501544 
L 107.384158 208.167313 
L 107.934955 211.70474 
L 108.736497 215.400883 
L 109.682794 218.791597 
L 110.831453 222.156626 
L 112.22304 225.570398 
L 113.703196 228.679688 
L 115.556095 232.048956 
L 117.552113 235.207027 
L 119.94544 238.514518 
L 122.158038 241.210942 
L 124.932116 244.201342 
L 127.89154 246.999957 
L 130.546629 249.222706 
L 133.500319 251.420286 
L 136.560282 253.428297 
L 140.004693 255.398215 
L 143.406177 257.071808 
L 146.628896 258.429605 
L 150.269079 259.716029 
L 153.913755 260.757317 
L 157.528865 261.558692 
L 160.986204 262.117768 
L 164.933813 262.515315 
L 168.527089 262.657905 
L 169.2 262.661538 
L 169.2 262.661538 
" clip-path="url(#pc35c49cca4)" style="fill: none; stroke: #228b22; stroke-linecap: square"/>
   </g>
   <g id="line2d_3">
    <path d="M 169.2 262.661538 
L 172.959895 262.547991 
L 176.691886 262.209486 
L 180.425146 261.642056 
L 184.036285 260.869408 
L 187.647211 259.868121 
L 191.191337 258.651613 
L 194.546269 257.273221 
L 197.904925 255.655526 
L 200.353846 254.313891 
L 200.353846 254.313891 
" clip-path="url(#pc35c49cca4)" style="fill: none; stroke: #228b22; stroke-linecap: square"/>
   </g>
   <g id="line2d_4">
    <path d="M 200.353846 254.313891 
L 203.48404 252.381272 
L 206.564941 250.214749 
L 209.528557 247.849699 
L 212.2252 245.421359 
L 214.862485 242.747077 
L 217.242002 240.030219 
L 219.595399 236.994702 
L 221.765678 233.806769 
L 223.66509 230.616076 
L 225.375722 227.308193 
L 226.875975 223.927781 
L 228.196155 220.396358 
L 229.309441 216.758224 
L 230.172837 213.182006 
L 230.831975 209.505249 
L 231.273666 205.749079 
L 231.485752 202.0072 
L 231.507692 200.353846 
L 231.507692 200.353846 
" clip-path="url(#pc35c49cca4)" style="fill: none; stroke: #228b22; stroke-linecap: square"/>
   </g>
   <g id="text_1">
    <!-- $\Omega$ -->
    <g transform="translate(16.011538 22.420913)scale(0.1 -0.1)">
     <defs>
      <path id="Cmr10-ad" d="M 494 0 
L 281 1063 
L 469 1063 
Q 503 878 531 736 
Q 559 594 604 536 
Q 650 478 750 459 
Q 850 441 1081 441 
L 1472 441 
Q 1378 803 1004 1386 
Q 631 1969 495 2233 
Q 359 2497 359 2913 
Q 359 3397 646 3761 
Q 934 4125 1389 4319 
Q 1844 4513 2309 4513 
Q 2772 4513 3226 4319 
Q 3681 4125 3968 3758 
Q 4256 3391 4256 2913 
Q 4256 2588 4137 2300 
Q 4019 2013 3834 1725 
Q 3650 1438 3436 1084 
Q 3222 731 3144 441 
L 3531 441 
Q 3766 441 3869 459 
Q 3972 478 4015 536 
Q 4059 594 4086 736 
Q 4113 878 4147 1063 
L 4331 1063 
L 4122 0 
L 2988 0 
Q 2925 0 2925 84 
Q 2925 409 3004 721 
Q 3084 1034 3240 1478 
Q 3397 1922 3484 2261 
Q 3572 2600 3572 2913 
Q 3572 3297 3422 3625 
Q 3272 3953 2984 4150 
Q 2697 4347 2309 4347 
Q 1725 4347 1384 3930 
Q 1044 3513 1044 2913 
Q 1047 2584 1122 2293 
Q 1197 2003 1364 1518 
Q 1531 1034 1611 721 
Q 1691 409 1691 84 
Q 1691 0 1625 0 
L 494 0 
z
" transform="scale(0.015625)"/>
     </defs>
     <use xlink:href="#Cmr10-ad" transform="translate(0 0.484375)"/>
    </g>
   </g>
   <g id="text_2">
    <!-- $A$ -->
    <g style="fill: #0000ff" transform="translate(103.142308 78.497837)scale(0.1 -0.1)">
     <defs>
      <path id="Cmmi10-41" d="M 288 0 
Q 225 0 225 84 
Q 250 225 306 225 
Q 566 225 755 328 
Q 944 431 1081 647 
Q 1094 659 1094 659 
L 3378 4513 
Q 3428 4581 3500 4581 
L 3584 4581 
Q 3603 4581 3622 4573 
Q 3641 4566 3655 4548 
Q 3669 4531 3669 4513 
L 4056 378 
Q 4056 350 4084 294 
Q 4147 225 4563 225 
Q 4628 225 4628 141 
Q 4606 56 4592 28 
Q 4578 0 4519 0 
L 2919 0 
Q 2859 0 2859 84 
Q 2894 225 2944 225 
Q 3450 225 3481 397 
L 3384 1453 
L 1806 1453 
L 1294 594 
Q 1247 525 1247 434 
Q 1247 322 1355 273 
Q 1463 225 1594 225 
Q 1656 225 1656 141 
Q 1634 50 1621 25 
Q 1609 0 1550 0 
L 288 0 
z
M 1931 1678 
L 3359 1678 
L 3169 3750 
L 1931 1678 
z
" transform="scale(0.015625)"/>
     </defs>
     <use xlink:href="#Cmmi10-41" transform="translate(0 0.421875)"/>
    </g>
   </g>
   <g id="text_3">
    <!-- $B$ -->
    <g style="fill: #ff0000" transform="translate(227.707692 78.497837)scale(0.1 -0.1)">
     <defs>
      <path id="Cmmi10-42" d="M 319 0 
Q 256 0 256 84 
Q 259 100 268 137 
Q 278 175 293 200 
Q 309 225 341 225 
Q 522 225 656 234 
Q 791 244 884 269 
Q 959 297 1006 441 
L 1881 3956 
Q 1894 4019 1894 4044 
Q 1894 4113 1819 4122 
Q 1697 4147 1356 4147 
Q 1294 4147 1294 4231 
Q 1297 4247 1306 4286 
Q 1316 4325 1333 4348 
Q 1350 4372 1375 4372 
L 3669 4372 
Q 3878 4372 4083 4320 
Q 4288 4269 4461 4156 
Q 4634 4044 4736 3876 
Q 4838 3709 4838 3488 
Q 4838 3247 4714 3040 
Q 4591 2834 4395 2681 
Q 4200 2528 3973 2429 
Q 3747 2331 3500 2284 
Q 3675 2284 3854 2215 
Q 4034 2147 4175 2028 
Q 4316 1909 4402 1743 
Q 4488 1578 4488 1388 
Q 4488 1003 4219 684 
Q 3950 366 3542 183 
Q 3134 0 2753 0 
L 319 0 
z
M 1497 275 
Q 1497 225 1716 225 
L 2631 225 
Q 2944 225 3231 398 
Q 3519 572 3692 859 
Q 3866 1147 3866 1459 
Q 3866 1650 3786 1820 
Q 3706 1991 3556 2089 
Q 3406 2188 3213 2188 
L 1966 2188 
L 1522 416 
Q 1497 328 1497 275 
z
M 2009 2356 
L 2981 2356 
Q 3288 2356 3577 2512 
Q 3866 2669 4048 2937 
Q 4231 3206 4231 3506 
Q 4231 3784 4057 3965 
Q 3884 4147 3609 4147 
L 2731 4147 
Q 2559 4147 2500 4115 
Q 2441 4084 2400 3928 
L 2009 2356 
z
" transform="scale(0.015625)"/>
     </defs>
     <use xlink:href="#Cmmi10-42" transform="translate(0 0.6875)"/>
    </g>
   </g>
   <g id="text_4">
    <!-- $C$ -->
    <g style="fill: #228b22" transform="translate(150.023077 271.651683)scale(0.1 -0.1)">
     <defs>
      <path id="Cmmi10-43" d="M 934 1381 
Q 934 997 1082 705 
Q 1231 413 1514 248 
Q 1797 84 2181 84 
Q 2584 84 2957 290 
Q 3331 497 3595 842 
Q 3859 1188 3956 1575 
Q 3969 1613 4006 1613 
L 4084 1613 
Q 4109 1613 4125 1595 
Q 4141 1578 4141 1556 
Q 4141 1550 4134 1538 
Q 4025 1094 3711 705 
Q 3397 316 2959 87 
Q 2522 -141 2059 -141 
Q 1559 -141 1162 84 
Q 766 309 545 709 
Q 325 1109 325 1613 
Q 325 2150 565 2676 
Q 806 3203 1212 3614 
Q 1619 4025 2139 4269 
Q 2659 4513 3194 4513 
Q 3406 4513 3600 4448 
Q 3794 4384 3959 4253 
Q 4125 4122 4231 3950 
L 4738 4500 
Q 4738 4513 4769 4513 
L 4806 4513 
Q 4831 4513 4847 4491 
Q 4863 4469 4863 4447 
L 4428 2719 
Q 4428 2675 4378 2675 
L 4263 2675 
Q 4213 2675 4213 2747 
Q 4238 2888 4238 3084 
Q 4238 3397 4131 3673 
Q 4025 3950 3801 4119 
Q 3578 4288 3256 4288 
Q 2734 4288 2300 4025 
Q 1866 3763 1564 3336 
Q 1263 2909 1098 2389 
Q 934 1869 934 1381 
z
" transform="scale(0.015625)"/>
     </defs>
     <use xlink:href="#Cmmi10-43" transform="translate(0 0.484375)"/>
    </g>
   </g>
   <g id="patch_8">
    <path d="M 138.046154 200.353846 
C 154.570347 200.353846 170.419977 193.788715 182.104346 182.104346 
C 193.788715 170.419977 200.353846 154.570347 200.353846 138.046154 
C 200.353846 121.521961 193.788715 105.672331 182.104346 93.987962 
C 170.419977 82.303593 154.570347 75.738462 138.046154 75.738462 
C 121.521961 75.738462 105.672331 82.303593 93.987962 93.987962 
C 82.303593 105.672331 75.738462 121.521961 75.738462 138.046154 
C 75.738462 154.570347 82.303593 170.419977 93.987962 182.104346 
C 105.672331 193.788715 121.521961 200.353846 138.046154 200.353846 
L 138.046154 200.353846 
z
" clip-path="url(#pc35c49cca4)" style="fill: none; stroke: #0000ff; stroke-linejoin: miter"/>
   </g>
   <g id="patch_9">
    <path d="M 200.353846 200.353846 
C 216.878039 200.353846 232.727669 193.788715 244.412038 182.104346 
C 256.096407 170.419977 262.661538 154.570347 262.661538 138.046154 
C 262.661538 121.521961 256.096407 105.672331 244.412038 93.987962 
C 232.727669 82.303593 216.878039 75.738462 200.353846 75.738462 
C 183.829653 75.738462 167.980023 82.303593 156.295654 93.987962 
C 144.611285 105.672331 138.046154 121.521961 138.046154 138.046154 
C 138.046154 154.570347 144.611285 170.419977 156.295654 182.104346 
C 167.980023 193.788715 183.829653 200.353846 200.353846 200.353846 
L 200.353846 200.353846 
z
" clip-path="url(#pc35c49cca4)" style="fill: none; stroke: #ff0000; stroke-linejoin: miter"/>
   </g>
   <g id="patch_10">
    <path d="M 169.2 262.661538 
C 185.724193 262.661538 201.573823 256.096407 213.258192 244.412038 
C 224.942561 232.727669 231.507692 216.878039 231.507692 200.353846 
C 231.507692 183.829653 224.942561 167.980023 213.258192 156.295654 
C 201.573823 144.611285 185.724193 138.046154 169.2 138.046154 
C 152.675807 138.046154 136.826177 144.611285 125.141808 156.295654 
C 113.457439 167.980023 106.892308 183.829653 106.892308 200.353846 
C 106.892308 216.878039 113.457439 232.727669 125.141808 244.412038 
C 136.826177 256.096407 152.675807 262.661538 169.2 262.661538 
L 169.2 262.661538 
z
" clip-path="url(#pc35c49cca4)" style="fill: none; stroke: #228b22; stroke-linejoin: miter"/>
   </g>
  </g>
 </g>
 <defs>
  <clipPath id="pc35c49cca4">
   <rect x="7.2" y="7.2" width="324" height="324"/>
  </clipPath>
 </defs>
</svg>
