<?xml version="1.0" encoding="utf-8" standalone="no"?>
<!DOCTYPE svg PUBLIC "-//W3C//DTD SVG 1.1//EN"
  "http://www.w3.org/Graphics/SVG/1.1/DTD/svg11.dtd">
<svg xmlns:xlink="http://www.w3.org/1999/xlink" width="338.4pt" height="338.4pt" viewBox="0 0 338.4 338.4" xmlns="http://www.w3.org/2000/svg" version="1.1">
 <metadata>
  <rdf:RDF xmlns:dc="http://purl.org/dc/elements/1.1/" xmlns:cc="http://creativecommons.org/ns#" xmlns:rdf="http://www.w3.org/1999/02/22-rdf-syntax-ns#">
   <cc:Work>
    <dc:type rdf:resource="http://purl.org/dc/dcmitype/StillImage"/>
    <dc:date>2022-08-25T17:40:36.398620</dc:date>
    <dc:format>image/svg+xml</dc:format>
    <dc:creator>
     <cc:Agent>
      <dc:title>Matplotlib v3.5.2, https://matplotlib.org/</dc:title>
     </cc:Agent>
    </dc:creator>
   </cc:Work>
  </rdf:RDF>
 </metadata>
 <defs>
  <style type="text/css">*{stroke-linejoin: round; stroke-linecap: butt}</style>
 </defs>
 <g id="figure_1">
  <g id="patch_1">
   <path d="M -0 338.4 
L 338.4 338.4 
L 338.4 0 
L -0 0 
z
" style="fill: #ffffff"/>
  </g>
  <g id="axes_1">
   <g id="patch_2">
    <path d="M 7.2 331.2 
L 331.2 331.2 
L 331.2 7.2 
L 7.2 7.2 
z
" style="fill: #ffffff"/>
   </g>
   <g id="patch_3">
    <path d="M 13.430769 324.969231 
L 13.430769 13.430769 
L 324.969231 13.430769 
L 324.969231 324.969231 
L 13.430769 324.969231 
z
" clip-path="url(#pb01a422121)" style="fill: none; stroke: #000000; stroke-linejoin: miter"/>
   </g>
   <g id="patch_4">
    <path d="M 200.353846 146.393802 
L 200.019011 146.201865 
L 199.266749 145.7806 
L 199.132308 145.706747 
L 198.591093 145.413768 
L 198.162402 145.186575 
L 197.704741 144.948718 
L 196.915374 144.549666 
L 196.553607 144.37145 
L 196.182995 144.19188 
L 195.673719 143.950028 
L 194.967941 143.624121 
L 194.905629 143.595859 
L 194.370147 143.35637 
L 193.691602 143.061526 
L 193.165936 142.839653 
L 192.820611 142.696971 
L 192.25611 142.468923 
L 192.116923 142.413677 
L 191.335615 142.110708 
L 190.761793 141.895848 
L 190.643009 141.852172 
L 190.030936 141.631443 
L 189.471947 141.436135 
L 189.261188 141.36404 
L 188.708694 141.179026 
L 188.135893 140.993249 
L 187.66453 140.844942 
L 187.156372 140.689642 
L 186.559317 140.513202 
L 186.18394 140.405583 
L 185.770069 140.289869 
L 185.137076 140.118822 
L 184.93781 140.066452 
L 184.39841 139.928215 
L 184.047803 139.84111 
L 183.269366 139.655399 
L 182.996123 139.592711 
L 182.346904 139.448941 
L 181.978341 139.370549 
L 181.656258 139.303947 
L 181.155693 139.203949 
L 180.625199 139.102615 
L 180.189918 139.02302 
L 179.486807 138.90118 
L 179.06952 138.832784 
L 178.884788 138.803433 
L 178.491055 138.742769 
L 177.703016 138.629076 
L 177.195365 138.561268 
L 177.010751 138.537661 
L 176.339308 138.456522 
L 176.161462 138.436267 
L 175.383334 138.353726 
L 175.038605 138.320313 
L 174.575106 138.278434 
L 174.28185 138.253739 
L 173.408398 138.188439 
L 172.966274 138.160087 
L 172.664402 138.142541 
L 171.969493 138.107734 
L 171.483794 138.088022 
L 171.427585 138.085986 
L 170.576098 138.061352 
L 170.338739 138.056561 
L 169.610927 138.047509 
L 169.339606 138.04631 
L 168.888377 138.046933 
L 168.586226 138.049177 
L 167.965105 138.058392 
L 167.524118 138.068696 
L 167.04212 138.083532 
L 166.339313 138.111859 
L 166.225714 138.117184 
L 165.826199 138.137562 
L 165.035964 138.185451 
L 164.482032 138.225034 
L 164.120652 138.253534 
L 163.801397 138.280473 
L 163.401542 138.316548 
L 162.598714 138.396833 
L 162.439342 138.41402 
L 161.774567 138.490194 
L 161.456956 138.529144 
L 161.137304 138.570018 
L 160.449509 138.663673 
L 160.144802 138.707663 
L 159.710619 138.773004 
L 159.205843 138.852908 
L 158.629704 138.949308 
L 158.020181 139.057352 
L 157.698467 139.116903 
L 157.261964 139.200499 
L 156.677569 139.317486 
L 156.422702 139.37033 
L 155.92514 139.476703 
L 155.27339 139.622487 
L 154.716584 139.752863 
L 154.47781 139.810427 
L 153.811647 139.976308 
L 153.285555 140.112839 
L 153.143692 140.150495 
L 152.359067 140.365251 
L 151.803992 140.523859 
L 151.655397 140.567264 
L 151.073068 140.74124 
L 150.617506 140.881672 
L 149.934699 141.099338 
L 149.495388 141.243976 
L 149.121327 141.369989 
L 148.659632 141.529176 
L 148.17685 141.699983 
L 147.90375 141.798588 
L 147.408925 141.980928 
L 146.803223 142.210636 
L 146.17535 142.456402 
L 145.780761 142.614884 
L 145.225445 142.843245 
L 144.871677 142.992002 
L 144.61234 143.102685 
L 143.769617 143.472002 
L 143.54777 143.571704 
L 143.060379 143.79442 
L 142.535488 144.039973 
L 141.955759 144.318144 
L 141.827878 144.3805 
L 141.098282 144.743218 
L 140.53272 145.032643 
L 140.381697 145.111164 
L 139.720451 145.461181 
L 139.103012 145.797271 
L 138.657263 146.045562 
L 138.544549 146.109106 
L 137.707314 146.590854 
L 137.260911 146.854845 
L 136.987891 147.018787 
L 136.393129 147.382555 
L 136.160651 147.527243 
L 135.704368 147.815373 
L 135.19209 148.145508 
L 134.570697 148.555584 
L 134.099936 148.873423 
L 133.570983 149.238079 
L 133.402731 149.355767 
L 132.907431 149.70705 
L 132.063768 150.322368 
L 131.939967 150.414498 
L 131.373067 150.842518 
L 130.663118 151.393073 
L 130.433885 151.574375 
L 129.842541 152.050234 
L 129.451648 152.37138 
L 129.000419 152.748782 
L 128.345661 153.309489 
L 127.94219 153.66293 
L 127.571533 153.993095 
L 127.191069 154.337564 
L 126.728748 154.763921 
L 126.375632 155.095454 
L 125.606968 155.835355 
L 125.389967 156.048886 
L 124.530194 156.915879 
L 124.187014 157.271604 
L 123.75425 157.728357 
L 123.417732 158.090002 
L 123.067988 158.472037 
L 122.510806 159.094088 
L 122.107261 159.555287 
L 121.438891 160.339786 
L 120.791954 161.124908 
L 120.510111 161.475275 
L 119.990198 162.135475 
L 119.753724 162.441918 
L 119.351273 162.972662 
L 118.948821 163.515448 
L 118.480661 164.162726 
L 117.958278 164.906217 
L 117.591954 165.441698 
L 117.07261 166.221988 
L 116.904415 166.480253 
L 116.521636 167.078653 
L 116.138857 167.692499 
L 115.755763 168.323203 
L 115.499594 168.75456 
L 115.10781 169.430012 
L 114.716027 170.125628 
L 114.377639 170.74376 
L 114.066048 171.328068 
L 113.754456 171.927798 
L 113.49927 172.431145 
L 113.244084 172.94611 
L 113.214817 173.005942 
L 112.912792 173.633091 
L 112.610767 174.278816 
L 112.319055 174.921453 
L 112.027343 175.58419 
L 111.77081 176.184928 
L 111.514276 176.803777 
L 111.267987 177.416313 
L 111.021699 178.04838 
L 110.748397 178.77472 
L 110.475096 179.529962 
L 110.283372 180.078752 
L 110.091648 180.64468 
L 109.871491 181.317655 
L 109.736245 181.744431 
L 109.600998 182.182235 
L 109.465751 182.631881 
L 109.330504 183.094298 
L 109.148528 183.738515 
L 108.966552 184.410815 
L 108.811318 185.009283 
L 108.656084 185.633696 
L 108.500851 186.28751 
L 108.345617 186.975035 
L 108.219423 187.562531 
L 108.093229 188.179651 
L 107.967035 188.831152 
L 107.903938 189.171662 
L 107.84084 189.523238 
L 107.763087 189.973372 
L 107.685334 190.444541 
L 107.60758 190.939903 
L 107.529827 191.463501 
L 107.489982 191.744423 
L 107.450137 192.035017 
L 107.410292 192.336335 
L 107.370447 192.649634 
L 107.330602 192.976441 
L 107.290757 193.318638 
L 107.250912 193.678591 
L 107.211067 194.059346 
L 107.171222 194.464937 
L 107.131377 194.900902 
L 107.111455 195.132632 
L 107.091532 195.375215 
L 107.07161 195.630324 
L 107.051687 195.90011 
L 107.031765 196.187424 
L 107.011842 196.49618 
L 106.99192 196.832013 
L 106.971998 197.203571 
L 106.952075 197.62541 
L 106.932153 198.125909 
L 106.91223 198.778331 
L 106.892308 200.353846 
L 106.892308 84.086109 
L 107.483304 83.749186 
L 107.829011 83.556037 
L 108.326966 83.28286 
L 108.979293 82.933849 
L 109.147684 82.845366 
L 109.597171 82.612374 
L 110.400319 82.20749 
L 110.621596 82.09848 
L 111.084246 81.874061 
L 111.745079 81.561625 
L 112.221023 81.34244 
L 112.700239 81.126622 
L 113.092837 80.953418 
L 113.640943 80.71698 
L 113.793417 80.65231 
L 114.243625 80.464142 
L 114.908505 80.193775 
L 115.1289 80.106116 
L 115.765418 79.858377 
L 116.204463 79.692156 
L 116.902777 79.435522 
L 117.310066 79.290191 
L 117.820731 79.112456 
L 117.944866 79.07 
L 118.521685 78.876536 
L 119.045461 78.706267 
L 119.579059 78.538046 
L 120.136022 78.368053 
L 120.492713 78.262166 
L 120.812793 78.169115 
L 121.362052 78.013752 
L 121.748274 77.90775 
L 122.515465 77.705071 
L 122.870982 77.614683 
L 123.112416 77.554568 
L 123.748343 77.401112 
L 124.476259 77.234095 
L 124.803368 77.162025 
L 125.289966 77.058219 
L 125.729909 76.967855 
L 126.226232 76.869868 
L 126.73959 76.772912 
L 127.171829 76.694727 
L 127.717574 76.600495 
L 128.157482 76.528167 
L 128.477978 76.477505 
L 128.831625 76.423585 
L 129.307124 76.354356 
L 129.850695 76.279796 
L 130.4014 76.209221 
L 130.896358 76.15004 
L 131.16135 76.120004 
L 131.560726 76.076905 
L 132.265886 76.007158 
L 132.688974 75.969192 
L 133.361651 75.914809 
L 133.804184 75.883028 
L 134.078032 75.864947 
L 134.412043 75.844532 
L 135.268822 75.800391 
L 135.36956 75.795978 
L 135.853099 75.777068 
L 136.426096 75.759527 
L 136.757363 75.751792 
L 137.210471 75.744066 
L 138.023908 75.738466 
L 138.14245 75.738536 
L 138.709927 75.741997 
L 139.097031 75.747324 
L 139.562676 75.75692 
L 140.323583 75.780097 
L 140.493316 75.786537 
L 141.387776 75.828133 
L 141.826159 75.853228 
L 142.009645 75.864651 
L 142.721252 75.914101 
L 143.085001 75.942543 
L 143.538146 75.980974 
L 143.945819 76.018398 
L 144.337229 76.056873 
L 144.977038 76.125145 
L 145.388417 76.172575 
L 146.017176 76.250431 
L 146.18753 76.272644 
L 146.825702 76.36011 
L 147.161175 76.408788 
L 147.843151 76.513501 
L 148.260443 76.581393 
L 148.57657 76.634764 
L 149.318842 76.766671 
L 149.478159 76.796192 
L 150.075153 76.910635 
L 150.388839 76.973192 
L 150.987519 77.097244 
L 151.562728 77.222222 
L 151.794379 77.274163 
L 152.246971 77.378326 
L 153.131922 77.592303 
L 153.223808 77.615306 
L 153.908247 77.791341 
L 154.426689 77.930211 
L 154.606638 77.979533 
L 155.088967 78.114601 
L 155.692961 78.289659 
L 156.032318 78.390924 
L 156.561065 78.552906 
L 157.157178 78.741708 
L 157.381955 78.814614 
L 157.878135 78.978895 
L 158.746938 79.277744 
L 159.245026 79.455571 
L 159.322937 79.48382 
L 159.956304 79.717826 
L 160.532052 79.937352 
L 160.917555 80.088 
L 161.294809 80.238295 
L 161.923683 80.495201 
L 162.435203 80.710102 
L 162.757912 80.848448 
L 163.308403 81.08944 
L 163.768965 81.295951 
L 164.383399 81.578482 
L 164.667624 81.711921 
L 165.125769 81.930711 
L 165.490299 82.108086 
L 166.114577 82.418713 
L 166.617101 82.675137 
L 166.916449 82.830626 
L 167.565314 83.17478 
L 168.14826 83.492403 
L 168.246643 83.546805 
L 169.096726 84.026616 
L 169.413498 84.209937 
L 169.632717 84.338263 
L 170.084884 84.606765 
L 170.686891 84.97233 
L 171.379806 85.404762 
L 171.864038 85.714527 
L 172.393617 86.060576 
L 172.431163 86.085403 
L 173.032596 86.488445 
L 173.788646 87.009669 
L 173.936978 87.113873 
L 174.362779 87.416604 
L 175.068122 87.930064 
L 175.5314 88.275632 
L 175.918917 88.569873 
L 176.529932 89.04363 
L 176.817032 89.270468 
L 177.16096 89.54584 
L 177.772844 90.045752 
L 178.254629 90.4486 
L 178.708527 90.835774 
L 179.360875 91.405589 
L 179.80311 91.801098 
L 180.213829 92.175295 
L 180.736408 92.661237 
L 181.155928 93.059535 
L 181.368306 93.264019 
L 182.076366 93.960001 
L 182.319291 94.203961 
L 182.974491 94.875643 
L 183.406845 95.330158 
L 183.847357 95.802831 
L 184.186025 96.173003 
L 184.627401 96.664564 
L 185.261336 97.389358 
L 185.79591 98.018547 
L 186.22144 98.531722 
L 186.801106 99.249206 
L 187.005033 99.506866 
L 187.519237 100.169215 
L 187.930886 100.713031 
L 188.597773 101.621131 
L 189.09634 102.323234 
L 189.617099 103.079225 
L 190.194119 103.94574 
L 190.465707 104.36472 
L 190.769991 104.843059 
L 191.321751 105.735795 
L 191.689622 106.350305 
L 192.13855 107.122681 
L 192.587478 107.921538 
L 193.009259 108.698146 
L 193.239299 109.133091 
L 193.572766 109.77879 
L 193.955603 110.543754 
L 194.33844 111.336099 
L 194.549055 111.784573 
L 194.953057 112.671898 
L 195.155058 113.129863 
L 195.357059 113.598073 
L 195.543388 114.039559 
L 195.729717 114.490792 
L 195.934813 114.999426 
L 196.139909 115.52141 
L 196.426619 116.275306 
L 196.713328 117.060179 
L 196.902075 117.595504 
L 197.090821 118.147014 
L 197.252715 118.634002 
L 197.414609 119.134911 
L 197.576502 119.650879 
L 197.738396 120.18321 
L 197.903587 120.744816 
L 198.068777 121.326907 
L 198.190933 121.771816 
L 198.313089 122.230179 
L 198.414708 122.622594 
L 198.516327 123.025945 
L 198.617946 123.441137 
L 198.719565 123.869212 
L 198.821184 124.311373 
L 198.922803 124.769028 
L 199.024422 125.243838 
L 199.126041 125.737788 
L 199.201929 126.120563 
L 199.277816 126.516538 
L 199.376621 127.054232 
L 199.475425 127.620555 
L 199.57423 128.220455 
L 199.623632 128.534967 
L 199.673035 128.860508 
L 199.722437 129.198293 
L 199.771839 129.549784 
L 199.821241 129.916758 
L 199.870644 130.301415 
L 199.920046 130.706536 
L 199.969448 131.135718 
L 200.018851 131.59376 
L 200.043552 131.835584 
L 200.068253 132.087316 
L 200.103952 132.471371 
L 200.139651 132.884167 
L 200.157501 133.103573 
L 200.17535 133.33325 
L 200.1932 133.57478 
L 200.21105 133.8302 
L 200.228899 134.102207 
L 200.246749 134.394507 
L 200.264598 134.712433 
L 200.273523 134.883395 
L 200.282448 135.064169 
L 200.291373 135.256663 
L 200.300297 135.463494 
L 200.309222 135.688435 
L 200.318147 135.93727 
L 200.327072 136.219742 
L 200.335997 136.554841 
L 200.344921 136.991599 
L 200.353846 138.046154 
z
" clip-path="url(#pb01a422121)" style="fill: #808080; opacity: 0.5"/>
   </g>
   <g id="patch_5">
    <path d="M 75.738462 138.046154 
L 75.738462 138.046154 
L 75.741894 137.392147 
L 75.745326 137.121262 
L 75.748759 136.913412 
L 75.752191 136.738195 
L 75.755624 136.583831 
L 75.759056 136.444282 
L 75.762489 136.315958 
L 75.765921 136.196522 
L 75.769354 136.08435 
L 75.772786 135.97826 
L 75.776219 135.877358 
L 75.779651 135.780952 
L 75.783083 135.688489 
L 75.786516 135.599523 
L 75.793381 135.430668 
L 75.800246 135.272088 
L 75.807111 135.122113 
L 75.813976 134.979478 
L 75.82084 134.843204 
L 75.827705 134.71251 
L 75.83457 134.586763 
L 75.841435 134.465443 
L 75.8483 134.348113 
L 75.857359 134.198777 
L 75.866418 134.055044 
L 75.875477 133.916331 
L 75.884536 133.782148 
L 75.893595 133.652078 
L 75.902654 133.525768 
L 75.911712 133.40291 
L 75.920771 133.283238 
L 75.938889 133.052538 
L 75.957007 132.832099 
L 75.975125 132.62067 
L 75.993243 132.417234 
L 76.015318 132.178959 
L 76.037394 131.950069 
L 76.05947 131.729546 
L 76.081546 131.51654 
L 76.103621 131.310339 
L 76.125697 131.110336 
L 76.147773 130.916009 
L 76.169849 130.726906 
L 76.189338 130.563989 
L 76.208826 130.404593 
L 76.247804 130.095527 
L 76.286782 129.798218 
L 76.325759 129.511437 
L 76.357339 129.286092 
L 76.38892 129.066512 
L 76.4205 128.852282 
L 76.45208 128.643039 
L 76.48366 128.438455 
L 76.51524 128.238239 
L 76.54682 128.042129 
L 76.578401 127.849888 
L 76.610586 127.65772 
L 76.642772 127.46914 
L 76.674958 127.28396 
L 76.707143 127.102008 
L 76.756017 126.831537 
L 76.80489 126.567645 
L 76.861871 126.267697 
L 76.918852 125.975469 
L 76.975832 125.690413 
L 77.032813 125.412044 
L 77.111487 125.037889 
L 77.190162 124.674663 
L 77.2405 124.447586 
L 77.328747 124.058837 
L 77.416994 123.681146 
L 77.510474 123.29217 
L 77.603955 122.913767 
L 77.683783 122.598414 
L 77.76361 122.289775 
L 77.865454 121.905155 
L 77.967297 121.530118 
L 78.041404 121.262872 
L 78.115512 121.000137 
L 78.208701 120.675841 
L 78.2882 120.404288 
L 78.367698 120.137204 
L 78.489831 119.735147 
L 78.592404 119.404798 
L 78.694977 119.080756 
L 78.809847 118.72496 
L 78.914253 118.407753 
L 79.018658 118.096135 
L 79.108994 117.83082 
L 79.19933 117.569341 
L 79.293667 117.300218 
L 79.388005 117.034965 
L 79.544505 116.603076 
L 79.574428 116.521614 
L 79.725881 116.114572 
L 79.877334 115.715975 
L 79.887558 115.689361 
L 80.078162 115.199701 
L 80.214038 114.857905 
L 80.349914 114.521859 
L 80.3584 114.501056 
L 80.527807 114.090188 
L 80.638316 113.826562 
L 80.748824 113.566274 
L 80.854239 113.320996 
L 80.987564 113.014856 
L 81.177345 112.586635 
L 81.352883 112.198107 
L 81.461612 111.960944 
L 81.585747 111.693336 
L 81.709882 111.428998 
L 81.882957 111.06572 
L 82.034732 110.752032 
L 82.207618 110.40006 
L 82.302808 110.208626 
L 82.471393 109.873569 
L 82.649062 109.525798 
L 82.711282 109.405267 
L 82.880513 109.080647 
L 83.162212 108.550368 
L 83.221639 108.440054 
L 83.403728 108.105316 
L 83.563565 107.81544 
L 83.706159 107.55987 
L 83.927192 107.169197 
L 84.036683 106.978074 
L 84.200759 106.694568 
L 84.358439 106.42531 
L 84.505949 106.176185 
L 84.70508 105.844006 
L 84.872445 105.56839 
L 85.026286 105.317847 
L 85.181488 105.067742 
L 85.263541 104.936573 
L 85.422904 104.683868 
L 85.613155 104.385655 
L 85.778766 104.129068 
L 85.846622 104.024728 
L 86.067321 103.688484 
L 86.150473 103.563015 
L 86.39447 103.198599 
L 86.542082 102.9808 
L 86.651982 102.819919 
L 86.867548 102.507459 
L 87.056631 102.236699 
L 87.176794 102.066204 
L 87.353834 101.817198 
L 87.465655 101.661245 
L 87.610144 101.46122 
L 87.857825 101.122176 
L 87.90561 101.057312 
L 88.142857 100.737851 
L 88.249735 100.595317 
L 88.457451 100.320711 
L 88.606131 100.126071 
L 88.699844 100.0042 
L 88.90712 99.736835 
L 89.110994 99.476754 
L 89.218787 99.340382 
L 89.356648 99.167104 
L 89.510572 98.975118 
L 89.626465 98.831587 
L 89.80142 98.616544 
L 89.977823 98.401683 
L 90.110417 98.24146 
L 90.297957 98.016687 
L 90.50874 97.766596 
L 90.603977 97.654467 
L 90.713041 97.526715 
L 90.977219 97.220134 
L 91.004175 97.189077 
L 91.236541 96.923062 
L 91.318138 96.830367 
L 91.539183 96.581106 
L 91.73038 96.367651 
L 91.811419 96.277771 
L 91.95509 96.119285 
L 92.243267 95.804657 
L 92.396382 95.639234 
L 92.484663 95.5444 
L 92.700707 95.313977 
L 92.740343 95.271956 
L 92.897846 95.105744 
L 93.17101 94.820352 
L 93.236961 94.751989 
L 93.376028 94.608516 
L 93.573254 94.406611 
L 93.719676 94.257892 
L 93.907368 94.068704 
L 94.10813 93.868121 
L 94.206328 93.770673 
L 94.296919 93.681157 
L 94.533528 93.44907 
L 94.757589 93.23155 
L 94.849057 93.143378 
L 94.993853 93.00453 
L 95.186685 92.821001 
L 95.239248 92.771246 
L 95.417934 92.602965 
L 95.668886 92.368855 
L 95.738524 92.304346 
L 95.935894 92.122581 
L 96.139317 91.936875 
L 96.295196 91.795683 
L 96.356601 91.740326 
L 96.535644 91.579757 
L 96.687205 91.444804 
L 96.837892 91.311502 
L 96.991022 91.176924 
L 97.121829 91.062666 
L 97.413197 90.810454 
L 97.505991 90.730789 
L 97.593459 90.655986 
L 97.813586 90.468964 
L 97.939827 90.362497 
L 98.145153 90.190551 
L 98.349873 90.0206 
L 98.43595 89.949581 
L 98.611054 89.805907 
L 98.683059 89.747134 
L 98.840268 89.619436 
L 99.135739 89.38171 
L 99.29086 89.258084 
L 99.343735 89.216129 
L 99.46061 89.123722 
L 99.733599 88.909644 
L 99.785294 88.869379 
L 100.062515 88.654943 
L 100.211395 88.540805 
L 100.347418 88.437145 
L 100.422159 88.380436 
L 100.555118 88.279993 
L 100.817251 88.083595 
L 100.9573 87.979544 
L 101.162268 87.828353 
L 101.307454 87.72204 
L 101.363339 87.681289 
L 101.570062 87.531372 
L 101.76555 87.390786 
L 101.94033 87.266059 
L 102.076638 87.169416 
L 102.272182 87.03173 
L 102.317485 86.999991 
L 102.528855 86.852697 
L 102.629997 86.782674 
L 102.754516 86.696871 
L 102.902199 86.595683 
L 103.128541 86.441805 
L 103.271944 86.345062 
L 103.434893 86.235835 
L 103.579322 86.139641 
L 103.708504 86.054094 
L 103.951376 85.894504 
L 104.116496 85.786927 
L 104.272928 85.685694 
L 104.345807 85.638758 
L 104.495289 85.542935 
L 104.671295 85.430877 
L 104.892005 85.291525 
L 105.032305 85.203611 
L 105.198432 85.100184 
L 105.282843 85.047908 
L 105.412719 84.96784 
L 105.706083 84.788588 
L 105.750789 84.761466 
L 105.90513 84.668227 
L 106.115461 84.542141 
L 106.306305 84.428708 
L 106.395151 84.376213 
L 106.533802 84.294687 
L 106.73185 84.179068 
L 106.892308 84.086109 
L 106.892308 138.046154 
z
" clip-path="url(#pb01a422121)" style="fill: #808080; opacity: 0.5"/>
   </g>
   <g id="patch_6">
    <path d="M 75.738462 138.046154 
L 75.738462 138.046154 
L 75.74315 138.810488 
L 75.747838 139.127066 
L 75.752526 139.36997 
L 75.757215 139.574737 
L 75.761903 139.755129 
L 75.766591 139.918207 
L 75.771279 140.068165 
L 75.775968 140.207734 
L 75.780656 140.338812 
L 75.785344 140.462783 
L 75.790032 140.580688 
L 75.794721 140.693338 
L 75.799409 140.801379 
L 75.804097 140.905332 
L 75.808785 141.005629 
L 75.813474 141.102629 
L 75.82285 141.287913 
L 75.832227 141.46314 
L 75.841603 141.629784 
L 75.85098 141.788992 
L 75.860356 141.941677 
L 75.869733 142.088577 
L 75.879109 142.230302 
L 75.888486 142.367361 
L 75.905046 142.599307 
L 75.921606 142.819939 
L 75.938166 143.030761 
L 75.954725 143.232967 
L 75.971285 143.427531 
L 75.987845 143.615251 
L 76.004405 143.7968 
L 76.020965 143.972744 
L 76.036288 144.130977 
L 76.051611 144.28516 
L 76.066934 144.435588 
L 76.082257 144.582518 
L 76.112904 144.866787 
L 76.14355 145.139541 
L 76.174196 145.40206 
L 76.204842 145.655405 
L 76.235488 145.900463 
L 76.266135 146.137987 
L 76.300407 146.39548 
L 76.334679 146.645129 
L 76.361841 146.837859 
L 76.389003 147.026372 
L 76.416166 147.210927 
L 76.443328 147.39176 
L 76.47049 147.569082 
L 76.497652 147.743086 
L 76.551977 148.081826 
L 76.596384 148.350244 
L 76.64079 148.611658 
L 76.680056 148.837378 
L 76.719321 149.058332 
L 76.758586 149.274802 
L 76.797851 149.487042 
L 76.862976 149.830347 
L 76.9281 150.163581 
L 76.993225 150.487551 
L 77.058349 150.802964 
L 77.113602 151.064322 
L 77.168856 151.320305 
L 77.252647 151.698923 
L 77.336439 152.06682 
L 77.392849 152.308871 
L 77.449258 152.546664 
L 77.508441 152.791791 
L 77.567623 153.032676 
L 77.620901 153.246066 
L 77.674178 153.456316 
L 77.780734 153.867901 
L 77.872021 154.211617 
L 77.963307 154.547671 
L 78.033722 154.801947 
L 78.104138 155.05213 
L 78.214752 155.437297 
L 78.321964 155.801987 
L 78.400094 156.062704 
L 78.478225 156.319367 
L 78.556355 156.572145 
L 78.634486 156.821196 
L 78.71549 157.075625 
L 78.845885 157.477486 
L 78.988021 157.905293 
L 79.125156 158.308546 
L 79.227957 158.605049 
L 79.330757 158.89683 
L 79.445529 159.217251 
L 79.560302 159.53228 
L 79.6679 159.822931 
L 79.827663 160.246511 
L 79.930183 160.513518 
L 80.060347 160.847355 
L 80.190512 161.175643 
L 80.273853 161.383029 
L 80.413569 161.725971 
L 80.529048 162.005098 
L 80.644526 162.280461 
L 80.741569 162.509046 
L 80.854577 162.772094 
L 80.978772 163.0574 
L 81.102966 163.338878 
L 81.211764 163.582414 
L 81.381391 163.956638 
L 81.530549 164.280386 
L 81.680064 164.600107 
L 81.810558 164.875359 
L 82.016084 165.301974 
L 82.124164 165.523045 
L 82.338679 165.955395 
L 82.410596 166.098484 
L 82.551989 166.377165 
L 82.693382 166.652433 
L 82.800071 166.857937 
L 83.004628 167.246821 
L 83.040703 167.314718 
L 83.289076 167.776794 
L 83.477201 168.120693 
L 83.55334 168.258431 
L 83.657392 168.44535 
L 83.901611 168.878232 
L 84.060419 169.15546 
L 84.190088 169.379407 
L 84.285471 169.542781 
L 84.579438 170.03926 
L 84.62537 170.115895 
L 84.883741 170.542406 
L 85.015479 170.756949 
L 85.087066 170.872722 
L 85.340632 171.278315 
L 85.490127 171.514236 
L 85.624119 171.723725 
L 85.724544 171.879535 
L 85.946601 172.220488 
L 86.12826 172.495838 
L 86.244239 172.669992 
L 86.312153 172.771386 
L 86.527304 173.089792 
L 86.713446 173.361896 
L 86.85911 173.572695 
L 87.063512 173.865405 
L 87.088699 173.901228 
L 87.311434 174.215709 
L 87.544183 174.539981 
L 87.615561 174.638555 
L 87.85543 174.966877 
L 87.904455 175.033429 
L 88.180084 175.404199 
L 88.201789 175.433154 
L 88.358902 175.641706 
L 88.559498 175.905359 
L 88.728469 176.125209 
L 88.838563 176.267372 
L 89.121676 176.629103 
L 89.136776 176.648242 
L 89.358646 176.927706 
L 89.569263 177.189986 
L 89.607242 177.236973 
L 89.776472 177.44522 
L 90.015224 177.735929 
L 90.215586 177.977161 
L 90.277842 178.051615 
L 90.462599 178.271194 
L 90.616514 178.452561 
L 90.769445 178.631389 
L 90.846477 178.72095 
L 91.153727 179.074788 
L 91.29307 179.233502 
L 91.370623 179.321369 
L 91.596713 179.575637 
L 91.72748 179.721434 
L 91.828521 179.83346 
L 91.968454 179.987709 
L 92.121875 180.155644 
L 92.286616 180.334606 
L 92.548539 180.616279 
L 92.62784 180.700876 
L 92.840847 180.926554 
L 92.970142 181.062449 
L 93.100317 181.198445 
L 93.276647 181.381357 
L 93.43887 181.548323 
L 93.583252 181.695883 
L 93.777406 181.892778 
L 93.940067 182.056398 
L 94.098236 182.214344 
L 94.258543 182.373275 
L 94.340426 182.454012 
L 94.562115 182.671112 
L 94.715081 182.819658 
L 94.904365 183.002072 
L 95.012099 183.105211 
L 95.219971 183.302828 
L 95.367036 183.441544 
L 95.432664 183.503155 
L 95.552778 183.615458 
L 95.852055 183.892708 
L 95.9237 183.958542 
L 96.067985 184.090501 
L 96.270524 184.274341 
L 96.340572 184.337546 
L 96.523423 184.501631 
L 96.670435 184.632616 
L 96.821318 184.766186 
L 97.007826 184.930097 
L 97.111113 185.020306 
L 97.380502 185.253709 
L 97.482181 185.341107 
L 97.629939 185.467437 
L 97.8825 185.681534 
L 98.030093 185.805586 
L 98.175111 185.926718 
L 98.277645 186.011915 
L 98.448415 186.152989 
L 98.616061 186.290494 
L 98.808551 186.447177 
L 98.981691 186.587026 
L 99.071444 186.65912 
L 99.274109 186.820912 
L 99.42406 186.939736 
L 99.608592 187.084938 
L 99.724665 187.175697 
L 99.91702 187.325132 
L 100.004421 187.392633 
L 100.201649 187.544052 
L 100.369574 187.671993 
L 100.440061 187.725428 
L 100.666241 187.895834 
L 100.834601 188.021636 
L 100.998563 188.143305 
L 101.148641 188.253943 
L 101.24165 188.322162 
L 101.466323 188.485865 
L 101.56732 188.558956 
L 101.787946 188.717555 
L 101.832337 188.74929 
L 101.993772 188.864204 
L 102.248562 189.044006 
L 102.343349 189.11041 
L 102.540097 189.247408 
L 102.633049 189.311742 
L 102.790082 189.419862 
L 102.93973 189.522241 
L 103.209809 189.705399 
L 103.223596 189.714693 
L 103.498219 189.898721 
L 103.658504 190.005158 
L 103.751524 190.066601 
L 103.953557 190.19923 
L 104.066708 190.273022 
L 104.233975 190.381468 
L 104.420763 190.501674 
L 104.525395 190.568599 
L 104.732656 190.700303 
L 104.827188 190.759993 
L 105.040169 190.893609 
L 105.165941 190.971952 
L 105.319679 191.067153 
L 105.532771 191.198091 
L 105.56428 191.217353 
L 105.856123 191.394541 
L 105.955446 191.454346 
L 106.07769 191.527607 
L 106.231984 191.619535 
L 106.47426 191.76267 
L 106.541932 191.802386 
L 106.701117 191.895362 
L 106.892308 192.006198 
L 106.892308 138.046154 
z
" clip-path="url(#pb01a422121)" style="fill: #808080; opacity: 0.5"/>
   </g>
   <g id="patch_7">
    <path d="M 200.353846 138.046154 
L 200.335813 139.545129 
L 200.317779 140.165872 
L 200.299746 140.64208 
L 200.281712 141.043454 
L 200.263679 141.396994 
L 200.245645 141.71655 
L 200.227612 142.010348 
L 200.209578 142.283748 
L 200.191545 142.540476 
L 200.173511 142.783242 
L 200.155478 143.014094 
L 200.137444 143.234622 
L 200.101377 143.649527 
L 200.06531 144.035544 
L 200.029243 144.397939 
L 199.993176 144.740552 
L 199.957109 145.066279 
L 199.921042 145.377371 
L 199.884975 145.675618 
L 199.848908 145.962473 
L 199.776774 146.506595 
L 199.729858 146.842125 
L 199.682943 147.165077 
L 199.636027 147.476743 
L 199.589112 147.778206 
L 199.495281 148.354079 
L 199.40145 148.898627 
L 199.334227 149.272045 
L 199.267004 149.633045 
L 199.199781 149.982754 
L 199.132558 150.322137 
L 198.998112 150.973154 
L 198.863666 151.591587 
L 198.748423 152.099019 
L 198.63318 152.587844 
L 198.537802 152.979639 
L 198.442425 153.36082 
L 198.251669 154.094345 
L 198.060914 154.793605 
L 197.870158 155.462727 
L 197.639153 156.237441 
L 197.408149 156.977664 
L 197.221951 157.551884 
L 197.035754 158.107949 
L 196.750063 158.929151 
L 196.503971 159.608439 
L 196.257879 160.264245 
L 195.999518 160.929686 
L 195.741158 161.573479 
L 195.387816 162.422008 
L 195.034474 163.237022 
L 194.763694 163.840905 
L 194.492913 164.428191 
L 194.312088 164.811676 
L 194.022111 165.412935 
L 193.732135 165.998256 
L 193.305461 166.832565 
L 192.986603 167.436553 
L 192.667745 168.024985 
L 192.17552 168.904868 
L 192.018742 169.178263 
L 191.65463 169.80115 
L 191.290518 170.407955 
L 191.056809 170.789381 
L 190.662644 171.419099 
L 190.268479 172.032582 
L 189.827643 172.700532 
L 189.363297 173.384509 
L 189.235854 173.568867 
L 188.818824 174.162417 
L 188.337609 174.829548 
L 187.696183 175.69085 
L 187.40962 176.065843 
L 186.834617 176.800952 
L 186.435628 177.297999 
L 186.036639 177.784823 
L 185.582018 178.327541 
L 185.18096 178.796105 
L 184.713139 179.331031 
L 184.508193 179.561542 
L 183.805972 180.334303 
L 183.222119 180.957466 
L 182.960787 181.230923 
L 182.670114 181.531217 
L 182.224124 181.984241 
L 181.634932 182.56881 
L 180.994874 183.186556 
L 180.464311 183.685485 
L 180.339781 183.800909 
L 179.749792 184.339297 
L 179.227023 184.804945 
L 178.633686 185.320891 
L 178.430666 185.494438 
L 177.769211 186.049562 
L 177.297279 186.436212 
L 176.881349 186.770646 
L 176.381459 187.164917 
L 175.741556 187.657697 
L 175.512021 187.831266 
L 174.862543 188.313459 
L 174.538007 188.549552 
L 173.886843 189.013727 
L 173.568752 189.235934 
L 173.119715 189.544637 
L 172.512298 189.953123 
L 172.290942 190.099425 
L 171.689463 190.490183 
L 171.39631 190.677091 
L 170.86191 191.011942 
L 170.280474 191.367792 
L 169.879896 191.607907 
L 169.243114 191.981284 
L 169.075265 192.078022 
L 168.497689 192.405629 
L 168.091511 192.631179 
L 167.415783 192.997709 
L 167.175193 193.12562 
L 166.50388 193.475445 
L 165.883817 193.789432 
L 165.477209 193.990642 
L 165.181899 194.134476 
L 164.870904 194.283875 
L 164.218085 194.590637 
L 163.80047 194.782066 
L 163.20223 195.049841 
L 162.747996 195.248143 
L 162.415062 195.390769 
L 161.995586 195.567221 
L 161.394576 195.813789 
L 160.965511 195.98536 
L 160.616649 196.12215 
L 159.849058 196.414655 
L 159.63413 196.494488 
L 158.838098 196.782374 
L 158.388445 196.939615 
L 158.25037 196.987126 
L 157.45035 197.255323 
L 157.246564 197.32172 
L 156.482702 197.563733 
L 156.078372 197.687479 
L 155.906552 197.739158 
L 155.230101 197.937393 
L 154.727727 198.079258 
L 154.359684 198.180314 
L 153.750635 198.342238 
L 153.313704 198.454352 
L 153.114081 198.504454 
L 152.412578 198.674978 
L 151.799078 198.817081 
L 151.625453 198.856113 
L 150.986333 198.995315 
L 150.591111 199.077888 
L 150.052121 199.1862 
L 149.822698 199.230805 
L 148.928525 199.396154 
L 148.735526 199.430076 
L 148.412366 199.485475 
L 147.931448 199.564683 
L 147.107935 199.69137 
L 146.910361 199.72009 
L 146.218681 199.81555 
L 145.778612 199.872181 
L 145.619935 199.891819 
L 144.936838 199.971649 
L 144.37326 200.031767 
L 143.955724 200.072967 
L 143.613389 200.10463 
L 143.272138 200.134298 
L 142.397931 200.201689 
L 142.04525 200.225377 
L 141.489049 200.258653 
L 141.061973 200.280817 
L 140.768647 200.294339 
L 140.245694 200.315011 
L 139.639212 200.333477 
L 139.262553 200.341971 
L 138.631577 200.351096 
L 138.484826 200.352302 
L 137.75075 200.353146 
L 137.542629 200.351812 
L 137.142547 200.347294 
L 136.324557 200.330057 
L 135.876921 200.316074 
L 135.346726 200.295343 
L 134.963003 200.277518 
L 134.402257 200.247203 
L 134.143688 200.231516 
L 133.708064 200.202646 
L 133.243603 200.168485 
L 132.734974 200.127068 
L 132.272743 200.085788 
L 131.648327 200.024508 
L 131.523294 200.011473 
L 131.066521 199.961687 
L 130.201969 199.858105 
L 130.064395 199.840491 
L 129.245318 199.729164 
L 128.775227 199.660263 
L 128.682969 199.64631 
L 128.074128 199.550684 
L 127.789732 199.503898 
L 127.22787 199.407487 
L 126.720449 199.31586 
L 126.013748 199.181003 
L 125.600647 199.098245 
L 125.075959 198.988935 
L 124.562183 198.877322 
L 124.42981 198.847829 
L 123.995826 198.74901 
L 123.271819 198.57687 
L 123.033425 198.518184 
L 122.418735 198.362257 
L 121.708894 198.173872 
L 121.628512 198.151974 
L 121.059793 197.993732 
L 120.447536 197.816859 
L 120.202868 197.744275 
L 119.797334 197.621561 
L 119.096764 197.402444 
L 118.475284 197.20044 
L 118.24039 197.122208 
L 117.624164 196.912025 
L 117.406367 196.836015 
L 116.727708 196.593335 
L 116.088375 196.356569 
L 116.045695 196.340479 
L 115.571296 196.159227 
L 114.929524 195.906935 
L 114.279817 195.643113 
L 114.138283 195.584508 
L 113.335454 195.244317 
L 113.028561 195.110754 
L 112.50299 194.877442 
L 111.889304 194.597615 
L 111.71773 194.51794 
L 111.009971 194.182536 
L 110.423898 193.896485 
L 110.200984 193.785682 
L 109.768057 193.567301 
L 109.302998 193.327973 
L 108.720823 193.021362 
L 108.517667 192.91251 
L 107.719942 192.475644 
L 107.191682 192.177938 
L 106.892308 192.006198 
L 106.892308 200.353846 
L 106.899734 201.315834 
L 106.907161 201.714261 
L 106.914588 202.019958 
L 106.922014 202.277649 
L 106.929441 202.504659 
L 106.936868 202.709873 
L 106.944294 202.89857 
L 106.951721 203.07419 
L 106.966574 203.395101 
L 106.981427 203.685176 
L 106.996281 203.951879 
L 107.011134 204.200075 
L 107.025987 204.433145 
L 107.040841 204.653548 
L 107.070547 205.063371 
L 107.100254 205.440108 
L 107.12996 205.790639 
L 107.153083 206.04846 
L 107.176206 206.295013 
L 107.222451 206.759463 
L 107.268696 207.192129 
L 107.314941 207.598708 
L 107.361186 207.983372 
L 107.407432 208.349283 
L 107.453677 208.69891 
L 107.499922 209.03422 
L 107.546167 209.356814 
L 107.592412 209.668011 
L 107.684903 210.260477 
L 107.777393 210.818639 
L 107.869884 211.347723 
L 107.962707 211.853518 
L 108.05553 212.337266 
L 108.148354 212.801537 
L 108.241177 213.248435 
L 108.334216 213.680695 
L 108.427255 214.098738 
L 108.520295 214.503824 
L 108.613334 214.897037 
L 108.706373 215.279315 
L 108.799412 215.651478 
L 108.985491 216.368258 
L 109.185691 217.102911 
L 109.38589 217.804371 
L 109.520159 218.258178 
L 109.654428 218.699781 
L 109.788696 219.130041 
L 109.922965 219.549721 
L 110.163848 220.278236 
L 110.404732 220.978224 
L 110.638047 221.631678 
L 110.871362 222.26317 
L 111.198972 223.116299 
L 111.373727 223.556662 
L 111.548482 223.987529 
L 111.827256 224.656453 
L 112.143957 225.390947 
L 112.460658 226.100604 
L 112.696049 226.613169 
L 112.93144 227.113848 
L 113.304197 227.88397 
L 113.676953 228.628213 
L 113.887669 229.038241 
L 114.245871 229.718659 
L 114.604074 230.379391 
L 115.051614 231.179173 
L 115.473832 231.909311 
L 115.929492 232.672594 
L 116.304652 233.283023 
L 116.564184 233.696302 
L 116.87228 234.177776 
L 117.180376 234.649723 
L 117.657547 235.36276 
L 118.007443 235.872442 
L 118.35734 236.371515 
L 118.56396 236.661421 
L 118.938128 237.177653 
L 119.347129 237.729504 
L 119.843133 238.382102 
L 120.458385 239.167549 
L 120.787971 239.577869 
L 121.395287 240.315803 
L 122.13214 241.181105 
L 122.589659 241.702663 
L 122.63241 241.750803 
L 123.202064 242.382865 
L 123.730749 242.954266 
L 124.464302 243.723949 
L 124.660451 243.925363 
L 125.112214 244.382424 
L 125.780723 245.041819 
L 126.381036 245.61735 
L 126.780706 245.99212 
L 127.137432 246.321105 
L 127.473477 246.626362 
L 128.215564 247.284907 
L 128.727243 247.726881 
L 129.090956 248.035217 
L 129.400217 248.29366 
L 129.963392 248.755676 
L 130.227789 248.968816 
L 130.720306 249.359577 
L 131.31281 249.81908 
L 131.925684 250.282534 
L 132.460557 250.677418 
L 132.847864 250.957904 
L 133.122801 251.154281 
L 133.870818 251.677305 
L 133.971648 251.746567 
L 134.387928 252.029452 
L 134.957332 252.408512 
L 135.616547 252.836226 
L 136.137173 253.165757 
L 136.672112 253.496908 
L 136.739328 253.537992 
L 137.323751 253.890313 
L 138.068753 254.326932 
L 138.339931 254.48244 
L 138.702436 254.687511 
L 139.294234 255.015475 
L 139.902041 255.343646 
L 140.347014 255.578421 
L 140.479693 255.647539 
L 141.067417 255.948866 
L 141.840667 256.333444 
L 142.06359 256.441847 
L 142.700971 256.745778 
L 142.958265 256.865967 
L 143.410227 257.07365 
L 143.911096 257.29873 
L 144.380819 257.505021 
L 145.069086 257.799016 
L 145.328402 257.907259 
L 145.691751 258.056626 
L 146.21656 258.267661 
L 146.822902 258.504633 
L 147.077661 258.602027 
L 147.821586 258.879157 
L 148.275489 259.042971 
L 148.67187 259.182788 
L 149.252749 259.382277 
L 149.498579 259.46478 
L 150.316034 259.730983 
L 150.341377 259.739037 
L 150.944631 259.927247 
L 151.505086 260.096114 
L 152.158752 260.285844 
L 152.673396 260.429797 
L 152.759169 260.453327 
L 153.458857 260.64037 
L 153.751871 260.716118 
L 154.145763 260.815557 
L 154.770803 260.967762 
L 155.278978 261.086487 
L 155.546088 261.147096 
L 156.276668 261.306582 
L 156.803439 261.415895 
L 157.296973 261.514017 
L 157.848929 261.618858 
L 158.208835 261.684449 
L 158.687468 261.7683 
L 158.930872 261.809469 
L 159.491551 261.900532 
L 159.737148 261.938771 
L 160.438651 262.042478 
L 160.815992 262.094893 
L 161.212318 262.147417 
L 161.814861 262.222321 
L 162.283671 262.276483 
L 162.591665 262.310108 
L 163.452709 262.395906 
L 163.877239 262.433768 
L 164.114221 262.453632 
L 164.88073 262.511649 
L 165.202072 262.533144 
L 165.699705 262.563142 
L 166.134973 262.586106 
L 166.351041 262.596371 
L 166.919381 262.619786 
L 167.269735 262.631632 
L 167.877873 262.64751 
L 168.512548 262.657746 
L 168.652215 262.65913 
L 169.361889 262.661328 
L 169.795495 262.658693 
L 170.066208 262.655517 
L 170.85439 262.639571 
L 171.082919 262.633081 
L 171.575651 262.616233 
L 172.321883 262.583279 
L 172.416114 262.578481 
L 173.317923 262.525313 
L 173.502015 262.512845 
L 173.840078 262.488524 
L 174.730759 262.415583 
L 174.830791 262.406588 
L 175.48269 262.343977 
L 176.097381 262.278596 
L 176.517581 262.230348 
L 177.083528 262.160792 
L 177.574562 262.096175 
L 178.044876 262.030557 
L 178.49318 261.964603 
L 178.65768 261.939565 
L 179.409327 261.819431 
L 179.630211 261.782335 
L 179.981538 261.721647 
L 180.748406 261.581967 
L 180.894622 261.554208 
L 181.558072 261.423696 
L 182.26867 261.275586 
L 182.442569 261.238022 
L 182.848238 261.14837 
L 183.326663 261.038984 
L 184.011474 260.875485 
L 184.209207 260.826751 
L 185.016573 260.620624 
L 185.296558 260.546448 
L 185.696176 260.438159 
L 186.110044 260.322996 
L 186.630392 260.173826 
L 187.226516 259.996895 
L 187.69587 259.853017 
L 188.316377 259.656566 
L 188.383497 259.634888 
L 189.231985 259.353576 
L 189.442104 259.281817 
L 189.967532 259.098702 
L 190.344187 258.964186 
L 190.978176 258.731578 
L 191.632485 258.483289 
L 192.076398 258.310027 
L 192.226004 258.250752 
L 192.846944 257.999926 
L 193.430381 257.757131 
L 193.569952 257.698017 
L 194.481797 257.301886 
L 194.875253 257.125581 
L 195.228275 256.9646 
L 195.426134 256.87321 
L 196.10194 256.554684 
L 196.558481 256.333861 
L 197.223688 256.003836 
L 197.57604 255.824999 
L 198.037958 255.586271 
L 198.4477 255.370394 
L 198.804868 255.179025 
L 199.458926 254.820771 
L 200.004296 254.5142 
L 200.353846 254.313891 
z
" clip-path="url(#pb01a422121)" style="fill: #808080; opacity: 0.5"/>
   </g>
   <g id="patch_8">
    <path d="M 231.507692 200.353846 
L 231.50462 199.735129 
L 231.501548 199.478859 
L 231.498476 199.282223 
L 231.495404 199.116458 
L 231.492332 198.970421 
L 231.48926 198.838399 
L 231.486188 198.716996 
L 231.483116 198.604001 
L 231.480044 198.497878 
L 231.476972 198.397508 
L 231.4739 198.302047 
L 231.470828 198.210838 
L 231.467756 198.12336 
L 231.464684 198.03919 
L 231.45854 197.879436 
L 231.452396 197.729402 
L 231.446252 197.587508 
L 231.440108 197.452557 
L 231.433964 197.323624 
L 231.42782 197.199968 
L 231.421676 197.080993 
L 231.415532 196.966205 
L 231.409388 196.855192 
L 231.4031 196.745121 
L 231.396812 196.638321 
L 231.384236 196.433469 
L 231.37166 196.23884 
L 231.359083 196.053047 
L 231.346507 195.87499 
L 231.333931 195.70378 
L 231.321355 195.538686 
L 231.308779 195.3791 
L 231.296203 195.224507 
L 231.283627 195.07447 
L 231.271051 194.928609 
L 231.258474 194.786597 
L 231.245898 194.648146 
L 231.233322 194.513003 
L 231.20817 194.251767 
L 231.186563 194.036047 
L 231.164955 193.827526 
L 231.143348 193.625533 
L 231.12174 193.429497 
L 231.100133 193.238927 
L 231.078525 193.053393 
L 231.056918 192.872521 
L 231.03531 192.695981 
L 231.004795 192.453478 
L 230.97428 192.218314 
L 230.943764 191.98987 
L 230.913249 191.767611 
L 230.880888 191.538148 
L 230.848528 191.314624 
L 230.816167 191.096608 
L 230.783807 190.883721 
L 230.751446 190.675623 
L 230.719086 190.472012 
L 230.686725 190.272617 
L 230.654364 190.077192 
L 230.622956 189.891105 
L 230.591548 189.708363 
L 230.528732 189.352249 
L 230.483936 189.105393 
L 230.43914 188.864013 
L 230.374961 188.527069 
L 230.310782 188.199801 
L 230.242513 187.861444 
L 230.174244 187.532376 
L 230.125338 187.301962 
L 230.076433 187.075726 
L 230.027527 186.853458 
L 229.978621 186.634964 
L 229.930903 186.425246 
L 229.883185 186.2188 
L 229.78775 185.81517 
L 229.736639 185.603801 
L 229.685529 185.395593 
L 229.605652 185.076223 
L 229.525775 184.763803 
L 229.433284 184.410195 
L 229.340793 184.064786 
L 229.241427 183.702254 
L 229.142061 183.34803 
L 229.071505 183.101268 
L 229.000948 182.858271 
L 228.931162 182.621479 
L 228.861375 182.388078 
L 228.725204 181.94193 
L 228.651026 181.703804 
L 228.576848 181.468972 
L 228.470061 181.136448 
L 228.363274 180.810165 
L 228.265179 180.515673 
L 228.13548 180.133616 
L 228.005781 179.759463 
L 227.883952 179.414832 
L 227.782102 179.131549 
L 227.680251 178.85248 
L 227.602395 178.641895 
L 227.442705 178.217094 
L 227.356961 177.992801 
L 227.183502 177.546784 
L 227.043461 177.193913 
L 226.903421 176.847173 
L 226.880234 176.790334 
L 226.68409 176.315794 
L 226.559984 176.021137 
L 226.435878 175.73063 
L 226.363374 175.562775 
L 226.2322 175.262479 
L 226.092885 174.948175 
L 225.943222 174.615639 
L 225.745868 174.184909 
L 225.622395 173.919743 
L 225.498922 173.657782 
L 225.475255 173.607926 
L 225.245046 173.128833 
L 225.154312 172.942836 
L 224.895561 172.420837 
L 224.725861 172.085006 
L 224.568152 171.777347 
L 224.446453 171.542772 
L 224.297841 171.259578 
L 224.22129 171.115067 
L 224.044496 170.784778 
L 223.818814 170.369955 
L 223.751805 170.248214 
L 223.598223 169.971584 
L 223.368792 169.564393 
L 223.160638 169.201028 
L 223.115656 169.123243 
L 222.962013 168.85949 
L 222.753285 168.50586 
L 222.640016 168.316162 
L 222.406963 167.930589 
L 222.318162 167.785312 
L 222.041863 167.33891 
L 221.926731 167.155346 
L 221.804111 166.961392 
L 221.579648 166.610388 
L 221.481074 166.457861 
L 221.258505 166.117015 
L 221.144575 165.944404 
L 220.995045 165.719732 
L 220.914755 165.599959 
L 220.695732 165.276245 
L 220.491299 164.97799 
L 220.463146 164.937206 
L 220.188405 164.542799 
L 220.06755 164.371339 
L 219.952027 164.20858 
L 219.813605 164.015003 
L 219.598935 163.717855 
L 219.492028 163.571236 
L 219.252766 163.246311 
L 219.069637 163.000562 
L 218.939273 162.827146 
L 218.821492 162.671542 
L 218.674244 162.478423 
L 218.537972 162.301079 
L 218.282212 161.971754 
L 218.205146 161.873407 
L 218.082824 161.718136 
L 217.935384 161.532321 
L 217.694008 161.231222 
L 217.620343 161.140087 
L 217.494 160.984593 
L 217.225052 160.656959 
L 217.114561 160.523664 
L 216.915636 160.285572 
L 216.734214 160.070512 
L 216.613613 159.928633 
L 216.414218 159.69593 
L 216.345393 159.616143 
L 216.113399 159.349194 
L 216.079477 159.310416 
L 215.894227 159.099783 
L 215.732651 158.917619 
L 215.481735 158.637548 
L 215.336821 158.477334 
L 215.196874 158.323666 
L 215.143816 158.265673 
L 214.937952 158.042048 
L 214.792197 157.885033 
L 214.526479 157.60155 
L 214.400153 157.468013 
L 214.232268 157.291759 
L 214.118281 157.172871 
L 214.035539 157.086966 
L 213.850871 156.896416 
L 213.672382 156.713775 
L 213.498616 156.537398 
L 213.39685 156.43475 
L 213.122735 156.160613 
L 213.003138 156.042069 
L 212.857431 155.898506 
L 212.778171 155.820808 
L 212.595841 155.643115 
L 212.420261 155.473365 
L 212.184193 155.24722 
L 212.141618 155.206687 
L 211.928202 155.004654 
L 211.77709 154.862749 
L 211.673739 154.766238 
L 211.397967 154.510852 
L 211.293996 154.415365 
L 211.137147 154.272134 
L 210.952468 154.104739 
L 210.868658 154.029215 
L 210.660558 153.842872 
L 210.605448 153.793806 
L 210.362822 153.579167 
L 210.243688 153.474595 
L 210.118343 153.365148 
L 209.907882 153.182702 
L 209.711567 153.013995 
L 209.607024 152.924731 
L 209.378431 152.73093 
L 209.341381 152.699695 
L 209.066133 152.469193 
L 208.976366 152.394601 
L 208.850104 152.290162 
L 208.603546 152.087822 
L 208.520619 152.02024 
L 208.375432 151.902488 
L 208.149285 151.720507 
L 207.995739 151.597932 
L 207.915107 151.533881 
L 207.780397 151.427356 
L 207.538816 151.237823 
L 207.428854 151.152187 
L 207.16896 150.951351 
L 207.117861 150.912119 
L 206.878951 150.729808 
L 206.850738 150.708399 
L 206.556291 150.486461 
L 206.513224 150.454228 
L 206.300207 150.295648 
L 206.114066 150.158226 
L 205.954557 150.041313 
L 205.897843 149.99993 
L 205.70694 149.861353 
L 205.492756 149.707184 
L 205.312395 149.578425 
L 205.228834 149.519098 
L 205.060794 149.400417 
L 204.90257 149.289426 
L 204.674911 149.131007 
L 204.55283 149.046674 
L 204.460004 148.982836 
L 204.228957 148.825012 
L 204.160029 148.778223 
L 204.007863 148.675406 
L 203.821488 148.550361 
L 203.707972 148.474675 
L 203.535176 148.360152 
L 203.303663 148.208005 
L 203.161459 148.11528 
L 203.076555 148.06018 
L 202.822565 147.896515 
L 202.755773 147.853764 
L 202.474626 147.675124 
L 202.387778 147.620366 
L 202.166515 147.481761 
L 202.06008 147.415546 
L 201.926616 147.332934 
L 201.689568 147.187349 
L 201.619883 147.144827 
L 201.372409 146.99483 
L 201.250276 146.921381 
L 201.151842 146.862461 
L 201.043447 146.797862 
L 200.855246 146.686408 
L 200.618024 146.54719 
L 200.496295 146.476296 
L 200.353846 146.393802 
L 200.353846 254.313891 
L 200.520379 254.217399 
L 200.591446 254.176013 
L 200.883322 254.004714 
L 200.973878 253.951133 
L 201.106419 253.872338 
L 201.226505 253.800563 
L 201.446981 253.667829 
L 201.582501 253.585624 
L 201.80299 253.450867 
L 201.972266 253.346554 
L 202.021604 253.31601 
L 202.184236 253.214878 
L 202.446344 253.050422 
L 202.590217 252.959378 
L 202.725418 252.873318 
L 202.797345 252.827334 
L 203.042897 252.669301 
L 203.118438 252.620356 
L 203.345026 252.472612 
L 203.41149 252.429008 
L 203.654868 252.268301 
L 203.809207 252.165537 
L 204.022549 252.022392 
L 204.039902 252.010692 
L 204.206765 251.897759 
L 204.462354 251.723243 
L 204.509636 251.690754 
L 204.703306 251.557008 
L 204.827152 251.470914 
L 205.068992 251.301505 
L 205.241727 251.179454 
L 205.288817 251.146028 
L 205.493096 251.000264 
L 205.742289 250.820762 
L 205.781117 250.792625 
L 205.923689 250.688915 
L 206.193726 250.490786 
L 206.345733 250.378271 
L 206.391969 250.343905 
L 206.618578 250.17451 
L 206.75679 250.070403 
L 206.876016 249.980113 
L 207.088503 249.818074 
L 207.176207 249.750772 
L 207.340651 249.623911 
L 207.534543 249.473204 
L 207.774975 249.284612 
L 207.805196 249.260771 
L 208.002198 249.10462 
L 208.212294 248.936656 
L 208.388738 248.794442 
L 208.531409 248.678672 
L 208.620072 248.606374 
L 208.758936 248.492595 
L 208.961018 248.325817 
L 209.122403 248.191595 
L 209.305891 248.037869 
L 209.397024 247.96107 
L 209.562786 247.820613 
L 209.746974 247.663374 
L 209.90456 247.527857 
L 210.123094 247.338407 
L 210.192973 247.277451 
L 210.421363 247.076943 
L 210.511139 246.997584 
L 210.634207 246.888296 
L 210.888092 246.66099 
L 210.937836 246.616159 
L 211.140746 246.432283 
L 211.314538 246.273496 
L 211.41677 246.179525 
L 211.627267 245.984708 
L 211.7322 245.886916 
L 211.918449 245.712226 
L 212.127272 245.514646 
L 212.326556 245.324377 
L 212.40892 245.245245 
L 212.588111 245.072079 
L 212.708079 244.955366 
L 212.931975 244.735856 
L 212.972834 244.695559 
L 213.203155 244.467006 
L 213.321969 244.348168 
L 213.494636 244.174318 
L 213.699416 243.966351 
L 213.801519 243.861926 
L 213.997239 243.66038 
L 214.093862 243.560207 
L 214.260504 243.386386 
L 214.487129 243.147824 
L 214.621282 243.005407 
L 214.681573 242.94111 
L 214.851966 242.758403 
L 215.120499 242.467458 
L 215.252218 242.323379 
L 215.380493 242.182193 
L 215.470195 242.082943 
L 215.692691 241.834904 
L 215.927495 241.570223 
L 216.04002 241.4423 
L 216.102609 241.37084 
L 216.24591 241.206397 
L 216.526492 240.881018 
L 216.596986 240.798552 
L 216.75556 240.611979 
L 217.001609 240.319515 
L 217.0653 240.243213 
L 217.220232 240.056564 
L 217.42974 239.801795 
L 217.531748 239.676749 
L 217.67383 239.501468 
L 217.850221 239.282043 
L 218.00354 239.089657 
L 218.26971 238.751921 
L 218.374247 238.617954 
L 218.450463 238.519805 
L 218.595041 238.332503 
L 218.891393 237.943925 
L 218.995793 237.805515 
L 219.132022 237.623696 
L 219.223722 237.500525 
L 219.376151 237.294371 
L 219.663988 236.900178 
L 219.839713 236.656298 
L 219.955306 236.494507 
L 220.068425 236.335117 
L 220.244092 236.085474 
L 220.399846 235.861934 
L 220.498564 235.719167 
L 220.734958 235.373792 
L 220.911136 235.113117 
L 221.065716 234.882038 
L 221.134952 234.77781 
L 221.404029 234.36837 
L 221.478983 234.253057 
L 221.629353 234.020023 
L 221.790565 233.767631 
L 221.911901 233.575887 
L 222.120752 233.242181 
L 222.282944 232.97975 
L 222.368454 232.840214 
L 222.640322 232.39102 
L 222.678492 232.327264 
L 222.930917 231.901224 
L 223.116593 231.582832 
L 223.195018 231.447038 
L 223.290166 231.28122 
L 223.527894 230.861689 
L 223.634062 230.67185 
L 223.837332 230.303979 
L 223.969942 230.06078 
L 224.170138 229.688679 
L 224.275744 229.489922 
L 224.488165 229.084793 
L 224.595934 228.876451 
L 224.766789 228.542151 
L 224.994631 228.088439 
L 225.108936 227.857289 
L 225.18026 227.711825 
L 225.42395 227.207449 
L 225.57946 226.879401 
L 225.791247 226.424506 
L 225.856702 226.281951 
L 225.971822 226.028906 
L 226.118435 225.702225 
L 226.306005 225.276782 
L 226.428458 224.994303 
L 226.557259 224.69298 
L 226.686059 224.387188 
L 226.879183 223.91993 
L 227.00798 223.602201 
L 227.149451 223.247288 
L 227.269882 222.940065 
L 227.399758 222.603266 
L 227.580098 222.125678 
L 227.708342 221.778655 
L 227.799912 221.526916 
L 227.891481 221.271747 
L 227.992649 220.985688 
L 228.093817 220.695105 
L 228.192 220.408583 
L 228.290182 220.11742 
L 228.323905 220.016307 
L 228.472347 219.564191 
L 228.594873 219.181953 
L 228.717398 218.790979 
L 228.808368 218.49471 
L 228.899339 218.193058 
L 228.984751 217.90469 
L 229.110054 217.47208 
L 229.172706 217.251273 
L 229.235358 217.027308 
L 229.313241 216.744293 
L 229.391125 216.455928 
L 229.405675 216.40144 
L 229.513191 215.992501 
L 229.620707 215.571817 
L 229.70603 215.228954 
L 229.791353 214.877499 
L 229.860197 214.587224 
L 229.929041 214.290564 
L 229.974898 214.089212 
L 230.020756 213.884707 
L 230.082528 213.603988 
L 230.144301 213.316898 
L 230.206074 213.023002 
L 230.267846 212.721816 
L 230.318695 212.46804 
L 230.369543 212.208616 
L 230.420391 211.943162 
L 230.471239 211.671256 
L 230.537754 211.305032 
L 230.571011 211.117094 
L 230.604269 210.925711 
L 230.654039 210.632446 
L 230.688646 210.423353 
L 230.723252 210.209703 
L 230.757859 209.991195 
L 230.792466 209.767488 
L 230.827073 209.538204 
L 230.861679 209.302914 
L 230.896286 209.06113 
L 230.930893 208.812296 
L 230.954148 208.640806 
L 230.977403 208.465624 
L 231.008252 208.227125 
L 231.0391 207.981047 
L 231.069949 207.726631 
L 231.100797 207.462983 
L 231.131646 207.189034 
L 231.162494 206.903491 
L 231.177918 206.75589 
L 231.193343 206.604766 
L 231.208767 206.449859 
L 231.224191 206.29087 
L 231.240043 206.122862 
L 231.255896 205.949767 
L 231.271748 205.771097 
L 231.287601 205.586282 
L 231.303453 205.394645 
L 231.319305 205.195378 
L 231.335158 204.987495 
L 231.35101 204.769779 
L 231.360803 204.629723 
L 231.370595 204.484898 
L 231.380388 204.334784 
L 231.390181 204.178758 
L 231.399973 204.016065 
L 231.409766 203.845772 
L 231.419559 203.666708 
L 231.429351 203.477365 
L 231.434248 203.37824 
L 231.439144 203.275745 
L 231.44404 203.169514 
L 231.448936 203.059106 
L 231.453833 202.943986 
L 231.458729 202.823496 
L 231.463625 202.696808 
L 231.468522 202.562855 
L 231.473418 202.420225 
L 231.478314 202.266979 
L 231.483211 202.100324 
L 231.488107 201.915974 
L 231.493003 201.706715 
L 231.4979 201.458481 
L 231.502796 201.134956 
z
" clip-path="url(#pb01a422121)" style="fill: #808080; opacity: 0.5"/>
   </g>
   <g id="matplotlib.axis_1"/>
   <g id="matplotlib.axis_2"/>
   <g id="line2d_1">
    <path d="M 106.892308 84.086109 
L 110.400319 82.20749 
L 113.793417 80.65231 
L 117.310066 79.290191 
L 120.812793 78.169115 
L 124.476259 77.234095 
L 128.157482 76.528167 
L 131.560726 76.076905 
L 135.36956 75.795978 
L 139.097031 75.747324 
L 142.721252 75.914101 
L 146.18753 76.272644 
L 150.075153 76.910635 
L 153.223808 77.615306 
L 156.561065 78.552906 
L 159.956304 79.717826 
L 163.308403 81.08944 
L 166.617101 82.675137 
L 169.632717 84.338263 
L 172.431163 86.085403 
L 175.5314 88.275632 
L 178.254629 90.4486 
L 181.155928 93.059535 
L 183.847357 95.802831 
L 186.22144 98.531722 
L 188.597773 101.621131 
L 190.769991 104.843059 
L 192.587478 107.921538 
L 194.33844 111.336099 
L 195.729717 114.490792 
L 197.090821 118.147014 
L 198.190933 121.771816 
L 199.024422 125.243838 
L 199.673035 128.860508 
L 200.103952 132.471371 
L 200.327072 136.219742 
L 200.353846 138.046154 
L 200.353846 138.046154 
" clip-path="url(#pb01a422121)" style="fill: none; stroke: #0000ff; stroke-linecap: square"/>
   </g>
   <g id="line2d_2">
    <path d="M 75.738462 138.046154 
L 75.866418 134.055044 
L 76.208826 130.404593 
L 76.756017 126.831537 
L 77.510474 123.29217 
L 78.489831 119.735147 
L 79.725881 116.114572 
L 81.177345 112.586635 
L 82.880513 109.080647 
L 84.70508 105.844006 
L 86.651982 102.819919 
L 88.90712 99.736835 
L 91.318138 96.830367 
L 93.907368 94.068704 
L 96.687205 91.444804 
L 99.46061 89.123722 
L 102.528855 86.852697 
L 105.412719 84.96784 
L 106.892308 84.086109 
L 106.892308 84.086109 
" clip-path="url(#pb01a422121)" style="fill: none; stroke: #0000ff; stroke-linecap: square"/>
   </g>
   <g id="line2d_3">
    <path d="M 75.738462 138.046154 
L 75.869733 142.088577 
L 76.204842 145.655405 
L 76.758586 149.274802 
L 77.508441 152.791791 
L 78.478225 156.319367 
L 79.6679 159.822931 
L 81.102966 163.338878 
L 82.693382 166.652433 
L 84.285471 169.542781 
L 86.312153 172.771386 
L 88.559498 175.905359 
L 90.846477 178.72095 
L 93.43887 181.548323 
L 96.067985 184.090501 
L 98.981691 186.587026 
L 101.993772 188.864204 
L 105.165941 190.971952 
L 106.892308 192.006198 
L 106.892308 192.006198 
" clip-path="url(#pb01a422121)" style="fill: none; stroke: #0000ff; stroke-linecap: square"/>
   </g>
   <g id="line2d_4">
    <path d="M 106.892308 200.353846 
L 107.025987 204.433145 
L 107.361186 207.983372 
L 107.869884 211.347723 
L 108.613334 214.897037 
L 109.520159 218.258178 
L 110.638047 221.631678 
L 112.143957 225.390947 
L 113.887669 229.038241 
L 115.473832 231.909311 
L 117.657547 235.36276 
L 119.843133 238.382102 
L 122.13214 241.181105 
L 124.660451 243.925363 
L 127.473477 246.626362 
L 130.720306 249.359577 
L 133.971648 251.746567 
L 137.323751 253.890313 
L 140.479693 255.647539 
L 143.911096 257.29873 
L 147.077661 258.602027 
L 150.944631 259.927247 
L 154.770803 260.967762 
L 158.208835 261.684449 
L 161.814861 262.222321 
L 165.699705 262.563142 
L 169.361889 262.661328 
L 172.416114 262.578481 
L 176.517581 262.230348 
L 179.981538 261.721647 
L 184.011474 260.875485 
L 187.69587 259.853017 
L 190.978176 258.731578 
L 194.481797 257.301886 
L 197.57604 255.824999 
L 200.353846 254.313891 
L 200.353846 254.313891 
" clip-path="url(#pb01a422121)" style="fill: none; stroke: #228b22; stroke-linecap: square"/>
   </g>
   <g id="line2d_5">
    <path d="M 200.353846 254.313891 
L 203.41149 252.429008 
L 206.391969 250.343905 
L 209.397024 247.96107 
L 212.127272 245.514646 
L 214.681573 242.94111 
L 217.220232 240.056564 
L 219.376151 237.294371 
L 221.478983 234.253057 
L 223.290166 231.28122 
L 225.108936 227.857289 
L 226.557259 224.69298 
L 227.891481 221.271747 
L 228.984751 217.90469 
L 229.974898 214.089212 
L 230.688646 210.423353 
L 231.177918 206.75589 
L 231.448936 203.059106 
L 231.507692 200.353846 
L 231.507692 200.353846 
" clip-path="url(#pb01a422121)" style="fill: none; stroke: #228b22; stroke-linecap: square"/>
   </g>
   <g id="text_1">
    <!-- $\Omega$ -->
    <g transform="translate(16.011538 22.420913)scale(0.1 -0.1)">
     <defs>
      <path id="Cmr10-ad" d="M 494 0 
L 281 1063 
L 469 1063 
Q 503 878 531 736 
Q 559 594 604 536 
Q 650 478 750 459 
Q 850 441 1081 441 
L 1472 441 
Q 1378 803 1004 1386 
Q 631 1969 495 2233 
Q 359 2497 359 2913 
Q 359 3397 646 3761 
Q 934 4125 1389 4319 
Q 1844 4513 2309 4513 
Q 2772 4513 3226 4319 
Q 3681 4125 3968 3758 
Q 4256 3391 4256 2913 
Q 4256 2588 4137 2300 
Q 4019 2013 3834 1725 
Q 3650 1438 3436 1084 
Q 3222 731 3144 441 
L 3531 441 
Q 3766 441 3869 459 
Q 3972 478 4015 536 
Q 4059 594 4086 736 
Q 4113 878 4147 1063 
L 4331 1063 
L 4122 0 
L 2988 0 
Q 2925 0 2925 84 
Q 2925 409 3004 721 
Q 3084 1034 3240 1478 
Q 3397 1922 3484 2261 
Q 3572 2600 3572 2913 
Q 3572 3297 3422 3625 
Q 3272 3953 2984 4150 
Q 2697 4347 2309 4347 
Q 1725 4347 1384 3930 
Q 1044 3513 1044 2913 
Q 1047 2584 1122 2293 
Q 1197 2003 1364 1518 
Q 1531 1034 1611 721 
Q 1691 409 1691 84 
Q 1691 0 1625 0 
L 494 0 
z
" transform="scale(0.015625)"/>
     </defs>
     <use xlink:href="#Cmr10-ad" transform="translate(0 0.484375)"/>
    </g>
   </g>
   <g id="text_2">
    <!-- $A$ -->
    <g style="fill: #0000ff" transform="translate(103.142308 78.497837)scale(0.1 -0.1)">
     <defs>
      <path id="Cmmi10-41" d="M 288 0 
Q 225 0 225 84 
Q 250 225 306 225 
Q 566 225 755 328 
Q 944 431 1081 647 
Q 1094 659 1094 659 
L 3378 4513 
Q 3428 4581 3500 4581 
L 3584 4581 
Q 3603 4581 3622 4573 
Q 3641 4566 3655 4548 
Q 3669 4531 3669 4513 
L 4056 378 
Q 4056 350 4084 294 
Q 4147 225 4563 225 
Q 4628 225 4628 141 
Q 4606 56 4592 28 
Q 4578 0 4519 0 
L 2919 0 
Q 2859 0 2859 84 
Q 2894 225 2944 225 
Q 3450 225 3481 397 
L 3384 1453 
L 1806 1453 
L 1294 594 
Q 1247 525 1247 434 
Q 1247 322 1355 273 
Q 1463 225 1594 225 
Q 1656 225 1656 141 
Q 1634 50 1621 25 
Q 1609 0 1550 0 
L 288 0 
z
M 1931 1678 
L 3359 1678 
L 3169 3750 
L 1931 1678 
z
" transform="scale(0.015625)"/>
     </defs>
     <use xlink:href="#Cmmi10-41" transform="translate(0 0.421875)"/>
    </g>
   </g>
   <g id="text_3">
    <!-- $B$ -->
    <g style="fill: #ff0000" transform="translate(227.707692 78.497837)scale(0.1 -0.1)">
     <defs>
      <path id="Cmmi10-42" d="M 319 0 
Q 256 0 256 84 
Q 259 100 268 137 
Q 278 175 293 200 
Q 309 225 341 225 
Q 522 225 656 234 
Q 791 244 884 269 
Q 959 297 1006 441 
L 1881 3956 
Q 1894 4019 1894 4044 
Q 1894 4113 1819 4122 
Q 1697 4147 1356 4147 
Q 1294 4147 1294 4231 
Q 1297 4247 1306 4286 
Q 1316 4325 1333 4348 
Q 1350 4372 1375 4372 
L 3669 4372 
Q 3878 4372 4083 4320 
Q 4288 4269 4461 4156 
Q 4634 4044 4736 3876 
Q 4838 3709 4838 3488 
Q 4838 3247 4714 3040 
Q 4591 2834 4395 2681 
Q 4200 2528 3973 2429 
Q 3747 2331 3500 2284 
Q 3675 2284 3854 2215 
Q 4034 2147 4175 2028 
Q 4316 1909 4402 1743 
Q 4488 1578 4488 1388 
Q 4488 1003 4219 684 
Q 3950 366 3542 183 
Q 3134 0 2753 0 
L 319 0 
z
M 1497 275 
Q 1497 225 1716 225 
L 2631 225 
Q 2944 225 3231 398 
Q 3519 572 3692 859 
Q 3866 1147 3866 1459 
Q 3866 1650 3786 1820 
Q 3706 1991 3556 2089 
Q 3406 2188 3213 2188 
L 1966 2188 
L 1522 416 
Q 1497 328 1497 275 
z
M 2009 2356 
L 2981 2356 
Q 3288 2356 3577 2512 
Q 3866 2669 4048 2937 
Q 4231 3206 4231 3506 
Q 4231 3784 4057 3965 
Q 3884 4147 3609 4147 
L 2731 4147 
Q 2559 4147 2500 4115 
Q 2441 4084 2400 3928 
L 2009 2356 
z
" transform="scale(0.015625)"/>
     </defs>
     <use xlink:href="#Cmmi10-42" transform="translate(0 0.6875)"/>
    </g>
   </g>
   <g id="text_4">
    <!-- $C$ -->
    <g style="fill: #228b22" transform="translate(150.023077 271.651683)scale(0.1 -0.1)">
     <defs>
      <path id="Cmmi10-43" d="M 934 1381 
Q 934 997 1082 705 
Q 1231 413 1514 248 
Q 1797 84 2181 84 
Q 2584 84 2957 290 
Q 3331 497 3595 842 
Q 3859 1188 3956 1575 
Q 3969 1613 4006 1613 
L 4084 1613 
Q 4109 1613 4125 1595 
Q 4141 1578 4141 1556 
Q 4141 1550 4134 1538 
Q 4025 1094 3711 705 
Q 3397 316 2959 87 
Q 2522 -141 2059 -141 
Q 1559 -141 1162 84 
Q 766 309 545 709 
Q 325 1109 325 1613 
Q 325 2150 565 2676 
Q 806 3203 1212 3614 
Q 1619 4025 2139 4269 
Q 2659 4513 3194 4513 
Q 3406 4513 3600 4448 
Q 3794 4384 3959 4253 
Q 4125 4122 4231 3950 
L 4738 4500 
Q 4738 4513 4769 4513 
L 4806 4513 
Q 4831 4513 4847 4491 
Q 4863 4469 4863 4447 
L 4428 2719 
Q 4428 2675 4378 2675 
L 4263 2675 
Q 4213 2675 4213 2747 
Q 4238 2888 4238 3084 
Q 4238 3397 4131 3673 
Q 4025 3950 3801 4119 
Q 3578 4288 3256 4288 
Q 2734 4288 2300 4025 
Q 1866 3763 1564 3336 
Q 1263 2909 1098 2389 
Q 934 1869 934 1381 
z
" transform="scale(0.015625)"/>
     </defs>
     <use xlink:href="#Cmmi10-43" transform="translate(0 0.484375)"/>
    </g>
   </g>
   <g id="patch_9">
    <path d="M 138.046154 200.353846 
C 154.570347 200.353846 170.419977 193.788715 182.104346 182.104346 
C 193.788715 170.419977 200.353846 154.570347 200.353846 138.046154 
C 200.353846 121.521961 193.788715 105.672331 182.104346 93.987962 
C 170.419977 82.303593 154.570347 75.738462 138.046154 75.738462 
C 121.521961 75.738462 105.672331 82.303593 93.987962 93.987962 
C 82.303593 105.672331 75.738462 121.521961 75.738462 138.046154 
C 75.738462 154.570347 82.303593 170.419977 93.987962 182.104346 
C 105.672331 193.788715 121.521961 200.353846 138.046154 200.353846 
L 138.046154 200.353846 
z
" clip-path="url(#pb01a422121)" style="fill: none; stroke: #0000ff; stroke-linejoin: miter"/>
   </g>
   <g id="patch_10">
    <path d="M 200.353846 200.353846 
C 216.878039 200.353846 232.727669 193.788715 244.412038 182.104346 
C 256.096407 170.419977 262.661538 154.570347 262.661538 138.046154 
C 262.661538 121.521961 256.096407 105.672331 244.412038 93.987962 
C 232.727669 82.303593 216.878039 75.738462 200.353846 75.738462 
C 183.829653 75.738462 167.980023 82.303593 156.295654 93.987962 
C 144.611285 105.672331 138.046154 121.521961 138.046154 138.046154 
C 138.046154 154.570347 144.611285 170.419977 156.295654 182.104346 
C 167.980023 193.788715 183.829653 200.353846 200.353846 200.353846 
L 200.353846 200.353846 
z
" clip-path="url(#pb01a422121)" style="fill: none; stroke: #ff0000; stroke-linejoin: miter"/>
   </g>
   <g id="patch_11">
    <path d="M 169.2 262.661538 
C 185.724193 262.661538 201.573823 256.096407 213.258192 244.412038 
C 224.942561 232.727669 231.507692 216.878039 231.507692 200.353846 
C 231.507692 183.829653 224.942561 167.980023 213.258192 156.295654 
C 201.573823 144.611285 185.724193 138.046154 169.2 138.046154 
C 152.675807 138.046154 136.826177 144.611285 125.141808 156.295654 
C 113.457439 167.980023 106.892308 183.829653 106.892308 200.353846 
C 106.892308 216.878039 113.457439 232.727669 125.141808 244.412038 
C 136.826177 256.096407 152.675807 262.661538 169.2 262.661538 
L 169.2 262.661538 
z
" clip-path="url(#pb01a422121)" style="fill: none; stroke: #228b22; stroke-linejoin: miter"/>
   </g>
  </g>
 </g>
 <defs>
  <clipPath id="pb01a422121">
   <rect x="7.2" y="7.2" width="324" height="324"/>
  </clipPath>
 </defs>
</svg>
